<svg width="392" height="940" viewBox="0 0 392 940" fill="none" xmlns="http://www.w3.org/2000/svg">
<g clip-path="url(#clip0_1582_19870)">
<path d="M16.3333 15.2751C25.5255 6.67848 39.8079 6.67848 49 15.2751C58.1922 23.8718 72.4745 23.8718 81.6667 15.2751C90.8588 6.67848 105.141 6.67848 114.333 15.2751C123.525 23.8718 137.808 23.8718 147 15.2751C156.192 6.67848 170.475 6.67848 179.667 15.2751C188.859 23.8718 203.141 23.8718 212.333 15.2751C221.525 6.67848 235.808 6.67848 245 15.2751C254.192 23.8718 268.475 23.8718 277.667 15.2751C286.859 6.67848 301.141 6.67848 310.333 15.2751C319.525 23.8718 333.808 23.8718 343 15.2751C352.192 6.67848 366.475 6.67848 375.667 15.2751L390.543 29.188C391.473 30.0571 392 31.2726 392 32.5449H0C0 31.2726 0.527442 30.0571 1.45674 29.188L16.3333 15.2751Z" fill="#87B9B6"/>
<path d="M392 31.5H0V940.693H392V31.5Z" fill="#87B9B6"/>
</g>
<defs>
<clipPath id="clip0_1582_19870">
<rect width="392" height="940" fill="white"/>
</clipPath>
</defs>
</svg>
