<svg width="1440" height="617" viewBox="0 0 1440 617" fill="none" xmlns="http://www.w3.org/2000/svg">
<path d="M54 6.05664C43.3333 -1.94336 28.6667 -1.94336 18 6.05664L1.34605e-10 19.5566L0 616.557H1440V19.5566L1422 6.05664C1411.33 -1.94336 1396.67 -1.94336 1386 6.05664C1375.33 14.0566 1360.67 14.0566 1350 6.05664C1339.33 -1.94336 1324.67 -1.94336 1314 6.05664C1303.33 14.0566 1288.67 14.0566 1278 6.05664C1267.33 -1.94336 1252.67 -1.94336 1242 6.05664C1231.33 14.0566 1216.67 14.0566 1206 6.05664C1195.33 -1.94336 1180.67 -1.94336 1170 6.05664C1159.33 14.0566 1144.67 14.0566 1134 6.05664C1123.33 -1.94336 1108.67 -1.94336 1098 6.05664C1087.33 14.0566 1072.67 14.0566 1062 6.05664C1051.33 -1.94336 1036.67 -1.94336 1026 6.05664C1015.33 14.0566 1000.67 14.0566 990 6.05664C979.333 -1.94336 964.667 -1.94336 954 6.05664C943.333 14.0566 928.667 14.0566 918 6.05664C907.333 -1.94336 892.667 -1.94336 882 6.05664C871.333 14.0566 856.667 14.0566 846 6.05664C835.333 -1.94336 820.667 -1.94336 810 6.05664C799.333 14.0566 784.667 14.0566 774 6.05664C763.333 -1.94336 748.667 -1.94336 738 6.05664C727.333 14.0566 712.667 14.0566 702 6.05664C691.333 -1.94336 676.667 -1.94336 666 6.05664C655.333 14.0566 640.667 14.0566 630 6.05664C619.333 -1.94336 604.667 -1.94336 594 6.05664C583.333 14.0566 568.667 14.0566 558 6.05664C547.333 -1.94336 532.667 -1.94336 522 6.05664C511.333 14.0566 496.667 14.0566 486 6.05664C475.333 -1.94336 460.667 -1.94336 450 6.05664C439.333 14.0566 424.667 14.0566 414 6.05664C403.333 -1.94336 388.667 -1.94336 378 6.05664C367.333 14.0566 352.667 14.0566 342 6.05664C331.333 -1.94336 316.667 -1.94336 306 6.05664C295.333 14.0566 280.667 14.0566 270 6.05664C259.333 -1.94336 244.667 -1.94336 234 6.05664C223.333 14.0566 208.667 14.0566 198 6.05664C187.333 -1.94336 172.667 -1.94336 162 6.05664C151.333 14.0566 136.667 14.0566 126 6.05664C115.333 -1.94336 100.667 -1.94336 90 6.05664C79.3333 14.0566 64.6667 14.0566 54 6.05664Z" fill="#88B9B6"/>
</svg>
