<svg width="97" height="23" viewBox="0 0 97 23" fill="none" xmlns="http://www.w3.org/2000/svg">
<path d="M7.06005 4.96516C8.55698 4.96516 9.81642 5.54018 10.8384 6.69023C11.8747 7.84028 12.3929 9.30979 12.3929 11.0988C12.3929 12.8877 11.8819 14.3572 10.86 15.5073C9.83801 16.6573 8.56418 17.2323 7.03846 17.2323C5.65668 17.2323 4.53398 16.7212 3.67036 15.6989V16.9555H0V0.556641H3.67036V6.56245C4.50519 5.49759 5.63509 4.96516 7.06005 4.96516ZM4.38285 13.0581C4.85783 13.5408 5.45517 13.7822 6.17485 13.7822C6.89453 13.7822 7.49186 13.5408 7.96685 13.0581C8.44184 12.5612 8.67933 11.908 8.67933 11.0988C8.67933 10.3037 8.44184 9.65764 7.96685 9.16071C7.49186 8.66377 6.89453 8.4153 6.17485 8.4153C5.45517 8.4153 4.85783 8.66377 4.38285 9.16071C3.90786 9.65764 3.67036 10.3037 3.67036 11.0988C3.67036 11.908 3.90786 12.5612 4.38285 13.0581Z" fill="#1E222B"/>
<path d="M17.4248 17.2323C15.8127 17.2323 14.4597 16.8774 13.3658 16.1675C12.2863 15.4576 11.6386 14.485 11.4227 13.2498H15.1362C15.3377 14.0875 16.115 14.5063 17.468 14.5063C18.5475 14.5063 19.0872 14.2365 19.0872 13.697C19.0872 13.4698 18.9505 13.3066 18.677 13.2072C18.4035 13.0936 17.7414 12.9232 16.6907 12.696C14.9491 12.3269 13.7184 11.8725 12.9988 11.333C12.2791 10.7935 11.9192 10.0197 11.9192 9.01163C11.9192 7.74799 12.4014 6.76122 13.3658 6.05132C14.3446 5.34141 15.6904 4.98646 17.4032 4.98646C20.5698 4.98646 22.3546 6.2075 22.7576 8.64957H19.0441C18.8713 8.02486 18.274 7.7125 17.2521 7.7125C16.1725 7.7125 15.6328 7.98936 15.6328 8.54309C15.6328 8.72766 15.7119 8.85545 15.8703 8.92644C16.043 8.98323 16.4604 9.08262 17.1225 9.2246C17.2521 9.25299 17.3456 9.27429 17.4032 9.28849C19.3751 9.71443 20.7785 10.1901 21.6133 10.7154C22.4481 11.2265 22.8656 12.05 22.8656 13.1859C22.8656 14.4921 22.3546 15.4931 21.3326 16.1888C20.3251 16.8845 19.0225 17.2323 17.4248 17.2323Z" fill="#1E222B"/>
<path d="M30.829 5.24202H34.4994L34.4778 16.9555H30.8074V15.6989C29.9582 16.7212 28.8427 17.2323 27.4609 17.2323C25.9352 17.2323 24.6614 16.6573 23.6394 15.5073C22.6175 14.3572 22.1065 12.8877 22.1065 11.0988C22.1065 9.30979 22.6175 7.84028 23.6394 6.69023C24.6758 5.54018 25.9424 4.96516 27.4393 4.96516C28.8643 4.96516 29.9942 5.49759 30.829 6.56245V5.24202ZM26.5325 13.0581C27.0075 13.5408 27.6049 13.7822 28.3245 13.7822C29.0442 13.7822 29.6416 13.5408 30.1165 13.0581C30.5915 12.5612 30.829 11.908 30.829 11.0988C30.829 10.3037 30.5915 9.65764 30.1165 9.16071C29.6416 8.66377 29.0442 8.4153 28.3245 8.4153C27.6049 8.4153 27.0075 8.66377 26.5325 9.16071C26.0576 9.65764 25.8201 10.3037 25.8201 11.0988C25.8201 11.908 26.0576 12.5612 26.5325 13.0581Z" fill="#1E222B"/>
<path d="M42.7914 5.24202H46.4618V16.7851C46.4618 18.5173 45.9149 19.9087 44.8209 20.9594C43.7414 22.0242 42.2949 22.5566 40.4813 22.5566C38.9124 22.5566 37.545 22.1662 36.3791 21.3853C35.2276 20.6044 34.5583 19.4473 34.3712 17.9139H38.1495C38.3798 18.8651 39.1211 19.3408 40.3733 19.3408C41.9854 19.3408 42.7914 18.5315 42.7914 16.9129V15.486C41.9278 16.5082 40.8051 17.0194 39.4233 17.0194C37.8976 17.0194 36.6238 16.4514 35.6019 15.3156C34.5799 14.1797 34.0689 12.7386 34.0689 10.9923C34.0689 9.2459 34.5799 7.80479 35.6019 6.66894C36.6382 5.53308 37.912 4.96516 39.4233 4.96516C40.8195 4.96516 41.9422 5.49049 42.7914 6.54115V5.24202ZM40.287 13.5692C41.0066 13.5692 41.604 13.3279 42.079 12.8451C42.554 12.3624 42.7914 11.7448 42.7914 10.9923C42.7914 10.2398 42.554 9.62215 42.079 9.13941C41.604 8.65667 41.0066 8.4153 40.287 8.4153C39.5673 8.4153 38.97 8.65667 38.495 9.13941C38.02 9.62215 37.7825 10.2398 37.7825 10.9923C37.7825 11.7448 38.02 12.3624 38.495 12.8451C38.9843 13.3279 39.5817 13.5692 40.287 13.5692Z" fill="#1E222B"/>
<path d="M52.2926 4.96516C54.2357 4.96516 55.7902 5.63247 56.9561 6.9671C58.122 8.28752 58.6113 9.92031 58.4242 11.8654H49.7665C49.8528 12.7173 50.1335 13.3634 50.6085 13.8035C51.0979 14.2294 51.688 14.4424 52.3789 14.4424C52.8827 14.4424 53.3217 14.3288 53.6959 14.1017C54.0702 13.8603 54.3293 13.5337 54.4732 13.122H58.2515C57.8629 14.4992 57.1288 15.5286 56.0493 16.2101C54.9842 16.8916 53.7607 17.2323 52.3789 17.2323C50.5078 17.2323 48.982 16.6502 47.8018 15.486C46.6215 14.3217 46.0314 12.8593 46.0314 11.0988C46.0314 9.35238 46.6143 7.89707 47.7802 6.73283C48.9604 5.55438 50.4646 4.96516 52.2926 4.96516ZM52.271 7.75509C51.0187 7.75509 50.2199 8.39401 49.8744 9.67184H54.6027C54.4732 9.08972 54.2069 8.62828 53.8039 8.28752C53.4153 7.93257 52.9043 7.75509 52.271 7.75509Z" fill="#1E222B"/>
<path d="M64.9334 4.96516C66.272 4.96516 67.3227 5.384 68.0856 6.22169C68.8484 7.05938 69.2299 8.19523 69.2299 9.62924V16.9555H65.5595V10.4385C65.5595 9.75703 65.4228 9.25299 65.1493 8.92644C64.8758 8.58568 64.3864 8.4153 63.6811 8.4153C62.2274 8.4153 61.5005 9.1891 61.5005 10.7367V16.9555H57.8302V5.24202H61.5005V6.56245C62.3785 5.49759 63.5228 4.96516 64.9334 4.96516Z" fill="#1E222B"/>
<path d="M74.9092 17.2323C73.11 17.2323 71.6202 16.6502 70.4399 15.486C69.2741 14.3075 68.6911 12.8451 68.6911 11.0988C68.6911 9.35238 69.2741 7.89707 70.4399 6.73283C71.6202 5.55438 73.1171 4.96516 74.9307 4.96516C76.4709 4.96516 77.8095 5.4053 78.9466 6.28558C80.0836 7.15167 80.7385 8.34431 80.9113 9.86351H77.133C76.8739 8.82705 76.1398 8.30882 74.9307 8.30882C74.1391 8.30882 73.5202 8.56439 73.074 9.07552C72.6278 9.58665 72.4047 10.2611 72.4047 11.0988C72.4047 11.9364 72.6278 12.6109 73.074 13.122C73.5346 13.6331 74.1463 13.8887 74.9092 13.8887C75.4417 13.8887 75.9095 13.7609 76.3125 13.5053C76.7299 13.2356 77.0034 12.838 77.133 12.3127H80.9113C80.7242 13.8603 80.0549 15.0671 78.9034 15.9332C77.7663 16.7993 76.4349 17.2323 74.9092 17.2323Z" fill="#1E222B"/>
<path d="M87.9167 5.24202H91.8245L84.2463 22.2798H80.3385L83.4259 15.3369L78.9567 5.24202H82.8645L85.369 11.3543L87.9167 5.24202Z" fill="#1E222B"/>
<path d="M94.2629 4.63995C94.5756 4.3315 94.9536 4.17727 95.3969 4.17727C95.8402 4.17727 96.2182 4.3315 96.531 4.63995C96.8437 4.94841 97 5.32129 97 5.75859C97 6.19589 96.8437 6.56877 96.531 6.87723C96.2182 7.18568 95.8402 7.33991 95.3969 7.33991C94.9536 7.33991 94.5756 7.18568 94.2629 6.87723C93.9502 6.56877 93.7938 6.19589 93.7938 5.75859C93.7938 5.32129 93.9502 4.94841 94.2629 4.63995ZM94.5241 6.61953C94.7656 6.8577 95.0565 6.97679 95.3969 6.97679C95.7373 6.97679 96.0263 6.8577 96.2638 6.61953C96.5052 6.38136 96.626 6.09438 96.626 5.75859C96.626 5.4228 96.5052 5.13778 96.2638 4.90351C96.0263 4.66533 95.7373 4.54625 95.3969 4.54625C95.0565 4.54625 94.7656 4.66533 94.5241 4.90351C94.2866 5.14168 94.1679 5.42671 94.1679 5.75859C94.1679 6.09438 94.2866 6.38136 94.5241 6.61953ZM96.0975 5.52432C96.0975 5.73907 95.9946 5.88549 95.7888 5.96358L96.1806 6.49654H95.6166L95.2782 6.01629H95.2366V6.49654H94.7616V5.0265H95.5869C95.7452 5.0265 95.8699 5.0714 95.961 5.1612C96.052 5.2471 96.0975 5.36814 96.0975 5.52432ZM95.6047 5.54189C95.6047 5.4599 95.5592 5.4189 95.4682 5.4189H95.2366V5.67074H95.4682C95.5592 5.67074 95.6047 5.62779 95.6047 5.54189Z" fill="#1E222B"/>
</svg>
