<svg width="130" height="140" viewBox="0 0 130 140" fill="none" xmlns="http://www.w3.org/2000/svg">
<path d="M64.3284 140C62.6549 140 61.0299 139.802 59.4929 139.414C57.956 139.027 56.5072 138.454 55.186 137.701C54.7324 137.441 54.4241 137.027 54.2964 136.561C54.1687 136.094 54.217 135.578 54.4768 135.125C54.7322 134.671 55.1508 134.363 55.6176 134.235C56.0844 134.108 56.5995 134.156 57.0532 134.416C58.0925 135.006 59.2376 135.455 60.4531 135.759C61.6685 136.063 62.9589 136.217 64.2889 136.217C65.6188 136.217 66.9356 136.063 68.1599 135.759C69.3842 135.455 70.5248 135.006 71.5641 134.416C72.0177 134.156 72.5373 134.108 72.9997 134.235C73.4621 134.363 73.8806 134.671 74.1405 135.125C74.4003 135.578 74.4486 136.094 74.3209 136.561C74.1932 137.027 73.8849 137.446 73.4313 137.701C72.1101 138.454 70.6612 139.027 69.1286 139.414C67.5961 139.802 65.98 140 64.3241 140H64.3284Z" fill="#1D6148"/>
<path d="M108.096 5.59742C106.502 4.38635 104.798 3.43951 103.01 2.79654C101.222 2.15357 99.3545 1.81445 97.43 1.81445C95.5055 1.81445 93.6339 2.15357 91.8503 2.79654C90.0623 3.43951 88.3579 4.38194 86.7637 5.59742" fill="white"/>
<path d="M108.089 7.48665C107.891 7.48665 107.689 7.45583 107.495 7.38977C107.301 7.32371 107.116 7.23122 106.944 7.0991C103.985 4.8443 100.704 3.72131 97.423 3.72131C94.1421 3.72131 90.8613 4.8487 87.9019 7.0991C87.4879 7.41618 86.9814 7.5351 86.5014 7.46904C86.0214 7.40298 85.5677 7.15635 85.2551 6.73798C84.938 6.32401 84.8235 5.81756 84.8852 5.33754C84.9513 4.85751 85.1978 4.40392 85.6118 4.08684C89.1966 1.36082 93.3098 0 97.423 0C101.536 0 105.65 1.36082 109.234 4.08684C109.648 4.40392 109.899 4.85751 109.961 5.33754C110.023 5.81756 109.908 6.3196 109.591 6.73798C109.406 6.9846 109.173 7.16956 108.913 7.29287C108.653 7.41618 108.371 7.48224 108.085 7.48224L108.089 7.48665Z" fill="#1D6148"/>
<path d="M41.0337 5.59742C39.4395 4.38635 37.7352 3.43951 35.9473 2.79654C34.1593 2.15357 32.292 1.81445 30.3675 1.81445C28.443 1.81445 26.5714 2.15357 24.7878 2.79654C22.9998 3.43951 21.2954 4.38194 19.7012 5.59742" fill="white"/>
<path d="M41.0308 7.48665C40.8326 7.48665 40.63 7.45583 40.4362 7.38977C40.2424 7.32371 40.0575 7.23122 39.8857 7.0991C36.9263 4.8443 33.6453 3.72131 30.3644 3.72131C27.0835 3.72131 23.8027 4.8487 20.8433 7.0991C20.4294 7.41618 19.9229 7.5351 19.4473 7.46904C18.9673 7.40298 18.5135 7.15635 18.1965 6.73798C17.8794 6.32401 17.7649 5.81756 17.8266 5.33754C17.8883 4.85751 18.1392 4.40392 18.5532 4.08684C22.1336 1.36082 26.2468 0 30.3644 0C34.4777 0 38.591 1.36082 42.1758 4.08684C42.5898 4.40392 42.8408 4.85751 42.9024 5.33754C42.9641 5.81756 42.8497 6.3196 42.5326 6.73798C42.3476 6.9846 42.1142 7.16956 41.8544 7.29287C41.5945 7.41618 41.3127 7.48224 41.0265 7.48224L41.0308 7.48665Z" fill="#1D6148"/>
<path d="M31.2559 47.5708L39.2225 45.1047L47.1894 42.6385C46.4363 34.5837 44.3443 27.5595 41.4157 22.5478C38.4871 17.5362 34.7173 14.5371 30.5996 14.5371C25.9315 14.5371 21.673 17.6198 18.5771 23.226C15.4811 28.8322 13.5566 36.9662 13.5566 47.0688C13.5566 57.1714 15.4855 65.5564 18.5771 71.418C21.673 77.2796 25.9315 80.6134 30.5996 80.6134C34.638 80.6134 38.3418 77.513 41.2484 72.4441C44.155 67.3752 46.2599 60.329 47.0967 52.446L39.1784 50.0106L31.2602 47.5753L31.2559 47.5708Z" fill="#1D6148"/>
<path d="M98.3106 47.5708L106.277 45.1047L114.244 42.6385C113.491 34.5837 111.399 27.5595 108.471 22.5478C105.542 17.5362 101.772 14.5371 97.6545 14.5371C92.9864 14.5371 88.7277 17.6198 85.6317 23.226C82.5358 28.8322 80.6113 36.9662 80.6113 47.0688C80.6113 57.1714 82.5402 65.5564 85.6317 71.418C88.7277 77.2796 92.9864 80.6134 97.6545 80.6134C101.693 80.6134 105.396 77.513 108.303 72.4441C111.21 67.3752 113.315 60.329 114.152 52.446L106.233 50.0106L98.3151 47.5753L98.3106 47.5708Z" fill="#1D6148"/>
<path d="M54.0176 91.1258C54.8191 89.0692 56.2193 87.3076 58.0073 86.0657C59.7953 84.8238 61.9666 84.0928 64.3051 84.0928C66.6435 84.0928 68.7133 84.7886 70.4748 85.9776C72.2364 87.1667 73.6369 88.8534 74.4736 90.8352" fill="white"/>
<path d="M54.0176 93.0149C53.9031 93.0149 53.7885 93.0061 53.674 92.9841C53.5595 92.9621 53.4451 92.9313 53.3306 92.8872C52.8461 92.6979 52.4806 92.3279 52.2868 91.8875C52.093 91.4472 52.0667 90.9275 52.2561 90.4431C53.2293 87.9416 54.8983 85.8806 56.9946 84.4493C59.0908 83.0137 61.6186 82.2078 64.3006 82.2078C66.9826 82.2078 69.3739 82.9828 71.4481 84.3568C73.5224 85.7309 75.196 87.7038 76.2133 90.1039C76.4159 90.584 76.4071 91.1036 76.2221 91.5484C76.0415 91.9976 75.6891 92.3764 75.2091 92.5789C74.729 92.7815 74.2139 92.7727 73.7647 92.5878C73.3155 92.4028 72.9368 92.0549 72.7342 91.5749C72.0164 89.8794 70.8317 88.4789 69.3608 87.5057C67.8943 86.5324 66.1458 85.9863 64.3006 85.9863C62.4553 85.9863 60.6146 86.5588 59.1305 87.5717C57.6464 88.5846 56.4661 90.0423 55.7747 91.8127C55.6293 92.187 55.3783 92.4865 55.07 92.6934C54.7617 92.9004 54.3919 93.0149 54.0176 93.0149Z" fill="#1D6148"/>
<path d="M66.2733 126.233C50.5866 126.233 37.7978 122.961 27.5499 118.311C17.302 113.665 9.59062 107.645 4.05931 102.149C3.68938 101.783 3.5044 101.299 3.5 100.814C3.5 100.33 3.68066 99.8453 4.04619 99.4753C4.41612 99.1054 4.90056 98.9204 5.38499 98.916C5.86942 98.916 6.35387 99.0966 6.7238 99.4621C12.0041 104.707 19.3674 110.45 29.1749 114.885C38.9824 119.319 51.2296 122.446 66.2733 122.446C81.3171 122.446 93.5645 119.319 103.372 114.885C113.179 110.45 120.543 104.703 125.823 99.4621C126.193 99.0922 126.677 98.9116 127.162 98.9116C127.646 98.9116 128.131 99.101 128.501 99.4709C128.866 99.8409 129.051 100.325 129.047 100.81C129.047 101.294 128.857 101.774 128.487 102.144C122.956 107.636 115.245 113.66 104.997 118.306C94.7491 122.953 81.9601 126.229 66.2733 126.229V126.233Z" fill="#1D6148"/>
<path d="M2.84442 108.05C2.78717 108.05 2.72986 108.05 2.67261 108.041C2.61536 108.037 2.55815 108.028 2.4965 108.019C1.98565 107.922 1.55847 107.632 1.28542 107.231C1.01238 106.83 0.888994 106.328 0.98588 105.817C1.35581 103.814 2.19696 101.867 3.41685 100.101C4.63673 98.3351 6.24416 96.7496 8.15105 95.4637C8.58263 95.1686 9.09358 95.0805 9.5692 95.173C10.0448 95.2655 10.4807 95.5386 10.7758 95.9702C11.0664 96.4017 11.1546 96.9126 11.0665 97.3882C10.9784 97.8638 10.7009 98.3042 10.2694 98.5949C8.78084 99.599 7.53007 100.823 6.58323 102.171C5.63639 103.518 4.98912 104.998 4.70727 106.509C4.6236 106.962 4.38128 107.35 4.05098 107.623C3.72069 107.896 3.29804 108.054 2.85324 108.054L2.84442 108.05Z" fill="#1D6148"/>
<path d="M25.7991 26.6789L21.5184 22.2838L17.2422 17.8887" fill="white"/>
<path d="M25.797 28.5679C25.5504 28.5679 25.3037 28.5194 25.0747 28.4269C24.8457 28.3344 24.6299 28.1891 24.4449 27.9998L20.1687 23.6047L15.8925 19.2095C15.527 18.8352 15.3509 18.3508 15.3597 17.8664C15.3685 17.3819 15.5578 16.9019 15.9321 16.5364C16.3064 16.1708 16.791 15.9947 17.2754 15.9991C17.7599 16.0079 18.2399 16.1973 18.6054 16.5716L22.8816 20.9667L27.1578 25.3618C27.5233 25.7362 27.6994 26.2206 27.6906 26.705C27.6818 27.1894 27.4925 27.6695 27.1182 28.035C26.9333 28.2156 26.7217 28.3477 26.5015 28.4357C26.2769 28.5238 26.0392 28.5679 25.8013 28.5679H25.797Z" fill="#1D6148"/>
<path d="M24.1921 31.0603L18.3746 29.1225L12.5527 27.1892" fill="white"/>
<path d="M24.1893 32.9501C24.0925 32.9501 23.9913 32.9413 23.89 32.9281C23.7887 32.9104 23.6918 32.8884 23.5905 32.8532L17.7729 30.9155L11.9554 28.9777C11.4621 28.8148 11.079 28.4625 10.8632 28.0309C10.6474 27.5993 10.5945 27.0841 10.7574 26.5908C10.9248 26.0976 11.2728 25.7145 11.7044 25.4943C12.136 25.2785 12.6513 25.2256 13.1445 25.393L18.9621 27.3307L24.7796 29.2684C25.2728 29.4314 25.656 29.7837 25.8718 30.2152C26.0876 30.6468 26.1403 31.1621 25.9774 31.6553C25.8452 32.0517 25.5943 32.3732 25.2772 32.5978C24.9601 32.8224 24.5771 32.9457 24.1807 32.9457L24.1893 32.9501Z" fill="#1D6148"/>
<path d="M102.703 26.6789L106.979 22.2838L111.255 17.8887" fill="white"/>
<path d="M102.702 28.5681C102.464 28.5681 102.227 28.524 102.002 28.436C101.777 28.3479 101.566 28.2114 101.385 28.0352C101.011 27.6697 100.822 27.1897 100.813 26.7052C100.804 26.2208 100.985 25.7364 101.346 25.362L105.622 20.9669L109.898 16.5718C110.264 16.1975 110.744 16.0081 111.228 15.9993C111.712 15.9905 112.197 16.1711 112.571 16.5366C112.946 16.9021 113.135 17.3822 113.144 17.8666C113.153 18.351 112.972 18.8354 112.611 19.2098L108.335 23.6049L104.059 28C103.874 28.1894 103.658 28.3347 103.429 28.4272C103.2 28.5196 102.953 28.5681 102.706 28.5681H102.702Z" fill="#1D6148"/>
<path d="M104.305 31.0603L110.127 29.1225L115.944 27.1892" fill="white"/>
<path d="M104.313 32.9498C103.917 32.9498 103.534 32.8265 103.217 32.6019C102.9 32.3773 102.649 32.0558 102.516 31.6595C102.354 31.1662 102.402 30.651 102.622 30.2194C102.838 29.7878 103.221 29.4355 103.714 29.2726L109.532 27.3348L115.35 25.3971C115.843 25.2298 116.358 25.2826 116.794 25.4984C117.226 25.7142 117.578 26.0973 117.741 26.595C117.904 27.0882 117.855 27.6035 117.635 28.0351C117.419 28.4667 117.036 28.8189 116.543 28.9819L110.725 30.9196L104.908 32.8573C104.811 32.8926 104.71 32.9146 104.608 32.9322C104.507 32.9498 104.41 32.9542 104.309 32.9542L104.313 32.9498Z" fill="#1D6148"/>
</svg>
