<svg width="31" height="29" viewBox="0 0 31 29" fill="none" xmlns="http://www.w3.org/2000/svg">
<path d="M15.4226 12.7764H14.3169V14.8866H15.4226C16.181 14.8866 16.6274 14.5028 16.6274 13.8349C16.6274 13.1679 16.1903 12.7754 15.4226 12.7754V12.7764ZM18.5629 16.2399C18.5629 16.5812 18.8832 16.7987 19.3751 16.7987C19.9992 16.79 20.4807 16.4149 20.4807 15.889V15.5797L19.4464 15.6474C18.8667 15.6802 18.5629 15.8803 18.5629 16.239V16.2399Z" fill="#303C42"/>
<path d="M28.9333 3.8667H2.06667C0.9269 3.8667 0 4.7338 0 5.80003V23.2C0 24.2663 0.9269 25.1334 2.06667 25.1334H28.9333C30.0731 25.1334 31 24.2663 31 23.2V5.80003C31 4.7338 30.0731 3.8667 28.9333 3.8667ZM8.96003 10.2525C9.25763 9.92673 9.7619 9.68217 10.1783 9.6667C10.231 10.1201 10.0368 10.5744 9.74847 10.9021C9.45913 11.2288 8.98587 11.4821 8.5219 11.4492C8.45783 11.0046 8.6924 10.5425 8.96003 10.2525ZM11.3264 16.4401C10.9812 16.9109 10.6237 17.3807 10.0605 17.3894C9.50667 17.3991 9.32893 17.083 8.69653 17.083C8.0631 17.083 7.86573 17.3807 7.34183 17.3991C6.7983 17.4184 6.38393 16.8896 6.03673 16.4208C5.3258 15.4609 4.78433 13.7083 5.51283 12.5251C5.8745 11.9364 6.52137 11.5643 7.223 11.5556C7.7562 11.5459 8.2615 11.891 8.587 11.891C8.91353 11.891 9.5263 11.4753 10.1701 11.5362C10.4387 11.5469 11.1962 11.6377 11.6818 12.3038C11.6426 12.326 10.7787 12.7968 10.788 13.775C10.7994 14.9447 11.8854 15.3352 11.8978 15.3391C11.8875 15.3671 11.7242 15.8949 11.3264 16.4401ZM15.6281 15.5798H14.3158V17.3913H13.4333V12.0834H15.655C16.7514 12.0834 17.5284 12.7929 17.5284 13.8272C17.5284 14.8616 16.7431 15.5798 15.6271 15.5798H15.6281ZM21.328 17.3826H20.5168V16.7156H20.4982C20.2668 17.1487 19.7315 17.4242 19.1518 17.4242C18.2859 17.4329 17.6979 16.9573 17.6979 16.2478C17.6979 15.5469 18.2766 15.1458 19.3306 15.0791L20.4807 15.0211V14.7117C20.4807 14.2535 20.15 14.0032 19.5889 14.0032C19.1239 14.0032 18.786 14.2284 18.7147 14.5706H17.9201C17.9469 13.8611 18.661 13.3429 19.6147 13.3429C20.6584 13.3429 21.328 13.8611 21.328 14.645V17.3826ZM24.2368 17.5663C23.871 18.5262 23.4691 18.8346 22.5949 18.8346C22.4816 18.8372 22.3683 18.8317 22.2559 18.8181V18.1676C22.3179 18.184 22.4523 18.184 22.5246 18.184C22.9255 18.184 23.157 18.0255 23.2996 17.5992L23.3616 17.3913L21.8095 13.3855H22.7292L23.8266 16.648H23.8442L24.9416 13.3855H25.8333L24.2368 17.5663Z" fill="#303C42"/>
</svg>
