<svg width="12" height="8" viewBox="0 0 12 8" fill="none" xmlns="http://www.w3.org/2000/svg">
<path d="M6 4.99531C5.95 4.99531 5.9 4.99531 5.85 4.94523L0.35 2.9421C0.15 2.89202 0 2.69171 0 2.49139C0 2.29108 0.15 2.09077 0.35 2.04069L5.85 0.0375587C5.95 -0.0125196 6.1 -0.0125196 6.2 0.0375587L11.7 2.04069C11.85 2.09077 12 2.29108 12 2.49139C12 2.69171 11.85 2.89202 11.65 2.9421L6.15 4.94523C6.1 4.99531 6.05 4.99531 6 4.99531ZM1.95 2.49139L6 3.94366L10.05 2.49139L6 1.03912L1.95 2.49139Z" fill="#25C06C"/>
<path d="M9.5 8H6C5.7 8 5.5 7.79969 5.5 7.49922C5.5 7.19875 5.7 6.99844 6 6.99844H9C8.95 5.6964 8.65 4.59468 8.15 3.79343C8 3.54304 8.1 3.24257 8.3 3.09233C8.55 2.9421 8.85 3.04225 9 3.24257C9.65 4.29421 10 5.74648 10 7.44914C10 7.79969 9.8 8 9.5 8Z" fill="#25C06C"/>
<path d="M6 8H2.5C2.2 8 2 7.79969 2 7.49922C2 5.79656 2.35 4.34429 3 3.29264C3.15 3.04225 3.45 2.99218 3.7 3.14241C3.95 3.29264 4 3.59311 3.85 3.84351C3.35 4.64476 3.05 5.74648 3 7.04851H6C6.3 7.04851 6.5 7.24883 6.5 7.5493C6.5 7.84977 6.3 8 6 8ZM11 8C10.7 8 10.5 7.79969 10.5 7.49922V2.49139C10.5 2.19092 10.7 1.99061 11 1.99061C11.3 1.99061 11.5 2.19092 11.5 2.49139V7.49922C11.5 7.79969 11.3 8 11 8Z" fill="#25C06C"/>
</svg>
