<svg width="10" height="10" viewBox="0 0 10 10" fill="none" xmlns="http://www.w3.org/2000/svg">
<path d="M3.50142 6.50648C3.44835 6.51367 3.39455 6.51367 3.34148 6.50648L0.342597 5.50833C0.244927 5.47541 0.15984 5.41314 0.0989955 5.33005C0.0381508 5.24696 0.00452449 5.14711 0.00272368 5.0442C-0.00790534 4.94294 0.0127329 4.84086 0.0618694 4.75166C0.111006 4.66245 0.18629 4.59038 0.277621 4.54512L9.27428 0.0534735C9.38163 -0.000591884 9.5049 -0.0142062 9.62148 0.0151267C9.73807 0.0444596 9.84016 0.114774 9.90904 0.213177C9.97869 0.312119 10.01 0.432948 9.99712 0.553201C9.98425 0.673455 9.92808 0.784951 9.83907 0.866961L3.8413 6.35676C3.75148 6.44841 3.62977 6.50202 3.50142 6.50648ZM1.80705 4.91444L3.38147 5.44345L6.5303 2.55882L1.80705 4.91444Z" fill="#25C16C"/>
<path d="M9.49919 9.50091C9.41164 9.50152 9.32546 9.47914 9.24929 9.43603L5.75059 7.43974C5.63807 7.3748 5.5553 7.26866 5.51985 7.14381C5.48439 7.01896 5.49903 6.88524 5.56066 6.77099L9.05936 0.283047C9.1121 0.185473 9.19588 0.108215 9.29747 0.0634639C9.39907 0.0187132 9.51269 0.00901865 9.62042 0.0359104C9.72815 0.0628021 9.82384 0.124749 9.89239 0.211974C9.96095 0.299199 9.99846 0.406735 9.99901 0.517611V9.00184C9.99848 9.08893 9.97514 9.17437 9.93129 9.24967C9.88745 9.32497 9.82464 9.3875 9.7491 9.43104C9.67448 9.47834 9.58756 9.50264 9.49919 9.50091ZM6.67024 6.8159L8.99938 8.14344V2.5139L6.67024 6.8159Z" fill="#25C16C"/>
<path d="M4.50105 9.99998H4.43608C4.33934 9.98707 4.24852 9.94616 4.1748 9.88231C4.10108 9.81845 4.04769 9.73445 4.02123 9.64065L3.0216 6.14715C2.99693 6.05914 2.99693 5.96605 3.02161 5.87805C3.04629 5.79004 3.09469 5.71049 3.16155 5.64807L9.15932 0.158279C9.24613 0.0774446 9.35893 0.0301016 9.47751 0.0247244C9.59609 0.0193473 9.71272 0.056287 9.80651 0.128931C9.90031 0.201575 9.96515 0.305181 9.98943 0.421203C10.0137 0.537224 9.99584 0.658087 9.93903 0.762156L6.44033 7.25009L4.94089 9.74546C4.89708 9.82329 4.83316 9.88796 4.7558 9.93273C4.67844 9.9775 4.59046 10.0007 4.50105 9.99998ZM4.06621 6.16711L4.66599 8.25822L5.57065 6.761L7.65988 2.8882L4.06621 6.16711Z" fill="#25C16C"/>
</svg>
