<svg width="10" height="10" viewBox="0 0 10 10" fill="none" xmlns="http://www.w3.org/2000/svg">
<path d="M4.50774 4.4998H7.50352C7.63594 4.4998 7.76294 4.44712 7.85657 4.35336C7.95021 4.2596 8.00281 4.13243 8.00281 3.99982C8.00281 3.86722 7.95021 3.74005 7.85657 3.64629C7.76294 3.55252 7.63594 3.49985 7.50352 3.49985H4.50774C4.37532 3.49985 4.24832 3.55252 4.15468 3.64629C4.06105 3.74005 4.00844 3.86722 4.00844 3.99982C4.00844 4.13243 4.06105 4.2596 4.15468 4.35336C4.24832 4.44712 4.37532 4.4998 4.50774 4.4998ZM2.51055 3.49985C2.4118 3.49985 2.31527 3.52917 2.23316 3.58411C2.15105 3.63905 2.08706 3.71713 2.04927 3.80849C2.01147 3.89985 2.00159 4.00038 2.02085 4.09736C2.04012 4.19435 2.08767 4.28344 2.1575 4.35336C2.22733 4.42328 2.31629 4.4709 2.41315 4.49019C2.51 4.50949 2.61039 4.49958 2.70163 4.46174C2.79286 4.4239 2.87084 4.35982 2.9257 4.2776C2.98057 4.19537 3.00985 4.09871 3.00985 3.99982C3.00985 3.86722 2.95725 3.74005 2.86361 3.64629C2.76997 3.55252 2.64298 3.49985 2.51055 3.49985ZM2.51055 5.49976C2.4118 5.49976 2.31527 5.52908 2.23316 5.58402C2.15105 5.63896 2.08706 5.71704 2.04927 5.8084C2.01147 5.89976 2.00159 6.00029 2.02085 6.09728C2.04012 6.19426 2.08767 6.28335 2.1575 6.35327C2.22733 6.4232 2.31629 6.47081 2.41315 6.49011C2.51 6.5094 2.61039 6.4995 2.70163 6.46165C2.79286 6.42381 2.87084 6.35973 2.9257 6.27751C2.98057 6.19529 3.00985 6.09862 3.00985 5.99973C3.00985 5.86713 2.95725 5.73996 2.86361 5.6462C2.76997 5.55243 2.64298 5.49976 2.51055 5.49976ZM5.00704 0C4.35135 0 3.70209 0.129323 3.09631 0.380586C2.49054 0.631848 1.94012 1.00013 1.47648 1.4644C0.540116 2.40204 0.0140734 3.67375 0.0140734 4.99978C0.00970842 6.15429 0.408913 7.27395 1.14248 8.16464L0.14389 9.16459C0.0746092 9.2349 0.0276772 9.32419 0.00901647 9.42118C-0.00964429 9.51817 0.000802318 9.61852 0.0390381 9.70957C0.0805086 9.79953 0.147737 9.87512 0.232189 9.92676C0.316642 9.97839 0.414509 10.0037 0.51337 9.99956H5.00704C6.33125 9.99956 7.60123 9.4728 8.53759 8.53516C9.47396 7.59752 10 6.3258 10 4.99978C10 3.67375 9.47396 2.40204 8.53759 1.4644C7.60123 0.526761 6.33125 0 5.00704 0ZM5.00704 8.9996H1.71667L2.18102 8.53462C2.2282 8.48832 2.26573 8.4331 2.29144 8.37216C2.31715 8.31123 2.33053 8.24579 2.33081 8.17964C2.32893 8.04776 2.27509 7.92196 2.18102 7.82965C1.52723 7.1757 1.1201 6.31499 1.02899 5.39416C0.937875 4.47333 1.16842 3.54935 1.68134 2.77964C2.19426 2.00993 2.95782 1.44212 3.84194 1.17293C4.72605 0.903754 5.67602 0.94986 6.53 1.3034C7.38397 1.65694 8.08912 2.29604 8.5253 3.11181C8.96148 3.92758 9.1017 4.86956 8.92208 5.77725C8.74246 6.68494 8.25411 7.50219 7.54024 8.08976C6.82636 8.67733 5.93112 8.99887 5.00704 8.9996ZM7.50352 5.49976H4.50774C4.37532 5.49976 4.24832 5.55243 4.15468 5.6462C4.06105 5.73996 4.00844 5.86713 4.00844 5.99973C4.00844 6.13234 4.06105 6.25951 4.15468 6.35327C4.24832 6.44704 4.37532 6.49971 4.50774 6.49971H7.50352C7.63594 6.49971 7.76294 6.44704 7.85657 6.35327C7.95021 6.25951 8.00281 6.13234 8.00281 5.99973C8.00281 5.86713 7.95021 5.73996 7.85657 5.6462C7.76294 5.55243 7.63594 5.49976 7.50352 5.49976Z" fill="#25C16C"/>
</svg>
