<svg width="10" height="10" viewBox="0 0 10 10" fill="none" xmlns="http://www.w3.org/2000/svg">
<path d="M9.40677 4.75718C9.28968 4.70624 9.21191 4.60356 9.19343 4.47549C9.1748 4.34641 9.22093 4.22479 9.32001 4.14182C9.66715 3.85114 9.77289 3.37869 9.58309 2.96621C9.39509 2.55755 8.97211 2.33249 8.53022 2.40624C8.40615 2.42695 8.2873 2.38392 8.20408 2.28826C8.11846 2.18984 8.09189 2.06163 8.13117 1.93655C8.26748 1.50257 8.10223 1.04717 7.72001 0.803384C7.34197 0.562249 6.86518 0.603558 6.53353 0.906119C6.43974 0.991666 6.31654 1.02044 6.19543 0.985025C6.07248 0.949068 5.98266 0.856509 5.94901 0.731098C5.83163 0.29381 5.45025 0 4.99999 0C4.54974 0 4.16836 0.29381 4.05098 0.731098C4.01731 0.856528 3.92749 0.949088 3.80454 0.985045C3.68345 1.02044 3.56025 0.991705 3.46646 0.906138C3.13479 0.603578 2.65799 0.562308 2.27999 0.803403C1.89777 1.04719 1.73254 1.50259 1.86882 1.93657C1.9081 2.06167 1.88154 2.18988 1.79591 2.28829C1.71267 2.38398 1.59379 2.42699 1.46975 2.40628C1.02802 2.33257 0.604903 2.55759 0.41688 2.96623C0.227099 3.37871 0.332819 3.85116 0.67998 4.14186C0.77906 4.22481 0.825192 4.34643 0.806559 4.47551C0.788064 4.60358 0.710311 4.70626 0.593224 4.7572C0.179873 4.93702 -0.0542038 5.35911 0.0107362 5.80748C0.0754419 6.25427 0.418306 6.59141 0.863863 6.64635C0.989309 6.66182 1.09187 6.73744 1.14524 6.85383C1.19977 6.97276 1.1895 7.10322 1.11708 7.21178C0.864937 7.58971 0.896206 8.0735 1.19487 8.41562C1.48992 8.75361 1.95872 8.84902 2.36143 8.653C2.47469 8.59788 2.60056 8.60525 2.70679 8.67325C2.81579 8.74302 2.87673 8.8581 2.874 8.98894C2.86446 9.44314 3.14954 9.83326 3.5834 9.95971C3.67662 9.98687 3.77058 10 3.86298 10C4.19776 10 4.51195 9.82756 4.69542 9.52568C4.76212 9.41595 4.87311 9.35304 4.99999 9.35304C5.12688 9.35304 5.23789 9.41597 5.30457 9.52568C5.53871 9.91088 5.98565 10.0853 6.4166 9.95969C6.85046 9.83324 7.13555 9.44314 7.126 8.98892C7.12324 8.85808 7.18418 8.743 7.2932 8.67323C7.39941 8.60527 7.5253 8.59784 7.63858 8.65298C8.04125 8.849 8.51005 8.75359 8.80514 8.4156C9.10383 8.07347 9.13509 7.58967 8.88293 7.21174C8.81051 7.10319 8.80026 6.97272 8.85477 6.85381C8.90813 6.73742 9.01068 6.66178 9.13615 6.64631C9.58171 6.59137 9.92455 6.25426 9.98928 5.80746C10.0542 5.35911 9.8201 4.93702 9.40677 4.75718ZM4.06251 2.81248C4.40713 2.81248 4.68749 3.09285 4.68749 3.43748C4.68749 3.78211 4.40713 4.06248 4.06251 4.06248C3.71788 4.06248 3.43752 3.78211 3.43752 3.43748C3.43752 3.09285 3.71788 2.81248 4.06251 2.81248ZM5.93747 7.1875C5.59284 7.1875 5.31248 6.90713 5.31248 6.5625C5.31248 6.21787 5.59284 5.9375 5.93747 5.9375C6.28209 5.9375 6.56245 6.21787 6.56245 6.5625C6.56245 6.90713 6.28207 7.1875 5.93747 7.1875ZM6.78341 3.65846L3.65847 6.78348C3.59746 6.84451 3.51748 6.87502 3.43752 6.87502C3.35756 6.87502 3.27758 6.84451 3.21657 6.78348C3.09452 6.66145 3.09452 6.46357 3.21657 6.34154L6.3415 3.21652C6.46353 3.09447 6.6614 3.09447 6.78343 3.21652C6.90545 3.33855 6.90545 3.53643 6.78341 3.65846Z" fill="#25C06C"/>
</svg>
