<svg width="10" height="10" viewBox="0 0 10 10" fill="none" xmlns="http://www.w3.org/2000/svg">
<path d="M6.25 4.10714L5.64286 3.64286C5.28571 3.35714 4.71429 3.35714 4.32143 3.64286L3.71429 4.10714C3.35714 4.39286 3.21429 4.85714 3.35714 5.28571L3.60714 6.07143C3.75 6.53571 4.14286 6.82143 4.64286 6.82143H5.35714C5.82143 6.82143 6.25 6.53571 6.39286 6.07143L6.64286 5.28571C6.75 4.82143 6.60714 4.35714 6.25 4.10714ZM5.92857 5.03571L5.71429 5.82143C5.67857 5.96429 5.53571 6.07143 5.35714 6.07143H4.64286C4.5 6.07143 4.35714 5.96429 4.28571 5.82143L4.03571 5.03571C4 4.89286 4.03571 4.75 4.14286 4.64286L4.75 4.17857C4.82143 4.14286 4.89286 4.10714 4.96429 4.10714C5.03571 4.10714 5.10714 4.14286 5.17857 4.17857L5.78571 4.64286C5.92857 4.75 6 4.89286 5.92857 5.03571Z" fill="#25C16C"/>
<path d="M10 4.57143C9.92857 3.67857 9.60714 2.82143 9.07143 2.10714C8.46429 1.21429 7.53571 0.571429 6.5 0.25C6 0.0714286 5.5 0 5 0C4.75 0 4.5 0.0357143 4.25 0.0714286C4 0.107143 3.75 0.178571 3.5 0.25C2.46429 0.535714 1.53571 1.21429 0.928571 2.10714C0.857143 2.21429 0.785714 2.32143 0.714286 2.42857C0.25 3.17857 0 4.07143 0 4.96429V5C0 6.07143 0.321429 7.10714 0.964286 7.96429C1.57143 8.78571 2.42857 9.39286 3.39286 9.71429C3.39286 9.71429 3.39286 9.71429 3.42857 9.71429C3.92857 9.92857 4.46429 10 5 10C5.53571 10 6.07143 9.92857 6.57143 9.75C6.57143 9.75 6.57143 9.75 6.60714 9.75C6.85714 9.67857 7.07143 9.57143 7.32143 9.46429C8 9.10714 8.57143 8.60714 9.03571 8C9.67857 7.10714 10 6.07143 10 5V4.96429C10 4.82143 10 4.71429 10 4.57143ZM8.57143 3.60714L8.78572 3V3.03571C8.82143 3.10714 8.85714 3.17857 8.89286 3.25C8.89286 3.28571 8.92857 3.32143 8.92857 3.35714C8.96429 3.46429 9 3.57143 9.03571 3.67857C9.07143 3.78571 9.10714 3.89286 9.14286 4C9.14286 4.03571 9.14286 4.07143 9.17857 4.10714C9.17857 4.17857 9.21429 4.25 9.21429 4.35714V4.39286L8.67857 4.03571C8.57143 3.92857 8.53571 3.75 8.57143 3.60714ZM4.32143 0.785714C4.35714 0.785714 4.42857 0.785714 4.46429 0.75C4.53571 0.75 4.60714 0.75 4.64286 0.714286C4.67857 0.714286 4.71429 0.714286 4.71429 0.714286C4.89286 0.714286 5.03571 0.714286 5.21429 0.714286C5.25 0.714286 5.28571 0.714286 5.28571 0.714286C5.35714 0.714286 5.42857 0.714286 5.46429 0.75C5.5 0.75 5.57143 0.75 5.60714 0.785714H5.64286L5.14286 1.17857C5 1.28571 4.82143 1.28571 4.71429 1.17857L4.28571 0.785714H4.32143ZM0.75 4.35714C0.75 4.28571 0.785714 4.21429 0.785714 4.14286C0.785714 4.10714 0.785714 4.07143 0.821429 4.03571C0.857143 3.92857 0.892857 3.82143 0.928571 3.71429V3.67857C0.964286 3.57143 1 3.5 1.03571 3.39286C1.03571 3.35714 1.07143 3.32143 1.10714 3.28571C1.14286 3.21429 1.17857 3.14286 1.17857 3.10714C1.17857 3.10714 1.17857 3.07143 1.21429 3.07143L1.42857 3.60714C1.5 3.75 1.42857 3.92857 1.28571 4.03571L0.75 4.35714ZM3.07143 8.82143C3 8.78572 2.92857 8.75 2.89286 8.71429C2.85714 8.67857 2.82143 8.67857 2.78571 8.64286C2.71429 8.60714 2.60714 8.53572 2.53571 8.46429C2.53571 8.46429 2.5 8.46429 2.5 8.42857C2.39286 8.35714 2.32143 8.28571 2.21429 8.21429C2.17857 8.21429 2.17857 8.21429 2.14286 8.17857C2.07143 8.10714 2 8.07143 1.96429 8C1.96429 8 1.96429 8 1.96429 7.96429L2.60714 7.92857C2.75 7.92857 2.89286 8.03571 2.96429 8.17857L3.07143 8.82143ZM8.03571 8C7.96429 8.07143 7.92857 8.10714 7.85714 8.14286C7.85714 8.21429 7.82143 8.21429 7.78571 8.25C7.71429 8.32143 7.60714 8.39286 7.5 8.46429C7.46429 8.46429 7.46429 8.5 7.42857 8.5C7.35714 8.53571 7.28571 8.60714 7.21429 8.64286C7.17857 8.67857 7.14286 8.67857 7.10714 8.71429C7.03571 8.75 7 8.78572 6.92857 8.82143H6.89286L7.07143 8.21429C7.10714 8.07143 7.25 7.96429 7.42857 7.96429L8.03571 8ZM8.60714 7.28571L7.42857 7.25C6.96429 7.25 6.53571 7.57143 6.39286 8.03571L6.07143 9.14286C5.35714 9.32143 4.64286 9.32143 3.92857 9.14286L3.60714 8.03571C3.46429 7.57143 3.03571 7.25 2.53571 7.25L1.35714 7.28571C0.964286 6.67857 0.75 5.96429 0.714286 5.25L1.67857 4.60714C2.07143 4.32143 2.25 3.82143 2.07143 3.35714L1.71429 2.28571C2.17857 1.71429 2.78571 1.28571 3.42857 1.03571L4.35714 1.75C4.53571 1.89286 4.78571 1.96429 5 1.96429C5.21429 1.96429 5.46429 1.89286 5.64286 1.75L6.57143 1.03571C7.25 1.28571 7.82143 1.75 8.28572 2.28571L7.89286 3.39286C7.71429 3.85714 7.89286 4.35714 8.28572 4.64286L9.25 5.28571C9.21429 6 9 6.67857 8.60714 7.28571Z" fill="#25C16C"/>
</svg>
