<svg width="10" height="10" viewBox="0 0 10 10" fill="none" xmlns="http://www.w3.org/2000/svg">
<path d="M9.5 1H8V0.5C8 0.367392 7.94732 0.240215 7.85355 0.146447C7.75979 0.0526784 7.63261 0 7.5 0H2.5C2.36739 0 2.24021 0.0526784 2.14645 0.146447C2.05268 0.240215 2 0.367392 2 0.5V1H0.5C0.367392 1 0.240215 1.05268 0.146447 1.14645C0.0526784 1.24021 0 1.36739 0 1.5V3C0 3.53043 0.210714 4.03914 0.585786 4.41421C0.960859 4.78929 1.46957 5 2 5H2.77C3.22227 5.50457 3.83203 5.84118 4.5 5.955V7H4C3.60218 7 3.22064 7.15804 2.93934 7.43934C2.65804 7.72064 2.5 8.10218 2.5 8.5V9.5C2.5 9.63261 2.55268 9.75979 2.64645 9.85355C2.74021 9.94732 2.86739 10 3 10H7C7.13261 10 7.25979 9.94732 7.35355 9.85355C7.44732 9.75979 7.5 9.63261 7.5 9.5V8.5C7.5 8.10218 7.34196 7.72064 7.06066 7.43934C6.77936 7.15804 6.39782 7 6 7H5.5V5.955C6.16797 5.84118 6.77773 5.50457 7.23 5H8C8.53043 5 9.03914 4.78929 9.41421 4.41421C9.78929 4.03914 10 3.53043 10 3V1.5C10 1.36739 9.94732 1.24021 9.85355 1.14645C9.75979 1.05268 9.63261 1 9.5 1ZM2 4C1.73478 4 1.48043 3.89464 1.29289 3.70711C1.10536 3.51957 1 3.26522 1 3V2H2V3C2.0011 3.34085 2.06028 3.67903 2.175 4H2ZM6 8C6.13261 8 6.25979 8.05268 6.35355 8.14645C6.44732 8.24021 6.5 8.36739 6.5 8.5V9H3.5V8.5C3.5 8.36739 3.55268 8.24021 3.64645 8.14645C3.74021 8.05268 3.86739 8 4 8H6ZM7 3C7 3.53043 6.78929 4.03914 6.41421 4.41421C6.03914 4.78929 5.53043 5 5 5C4.46957 5 3.96086 4.78929 3.58579 4.41421C3.21071 4.03914 3 3.53043 3 3V1H7V3ZM9 3C9 3.26522 8.89464 3.51957 8.70711 3.70711C8.51957 3.89464 8.26522 4 8 4H7.825C7.93972 3.67903 7.9989 3.34085 8 3V2H9V3Z" fill="#25C06C"/>
</svg>
