<svg width="21" height="8" viewBox="0 0 21 8" fill="none" xmlns="http://www.w3.org/2000/svg">
<path d="M9.86326 0C8.02792 0.107636 6.19185 0.203455 4.35632 0.309091C2.90397 0.384364 1.45346 0.477273 0 0.545455C0.0512119 0.716182 0.120477 0.880364 0.180715 1.04782C1.04149 3.36515 1.90172 5.68255 2.76139 8C4.52986 7.45042 6.29783 6.89994 8.06532 6.34855C7.92605 6.13945 7.69375 5.97309 7.66538 5.70764C7.13414 5.74347 6.60257 5.64247 6.12277 5.41455C5.77531 5.23915 5.5126 4.93481 5.39235 4.56836C5.31927 4.34573 5.29708 4.10989 5.32737 3.87778C5.35766 3.64568 5.43968 3.42308 5.56754 3.226C5.80329 2.89627 6.14532 2.65515 6.5378 2.542C6.95078 2.42027 7.38402 2.38005 7.81276 2.42364C8.02773 2.43874 8.23903 2.48671 8.43909 2.56582C8.4378 2.846 8.44001 3.12636 8.4378 3.40655C8.11423 3.2356 7.74775 3.15987 7.38188 3.18836C7.23355 3.19917 7.09061 3.24781 6.96706 3.32953C6.84351 3.41125 6.74358 3.52325 6.67707 3.65455C6.60975 3.80489 6.58315 3.96991 6.59988 4.13345C6.6166 4.29698 6.67608 4.45343 6.77249 4.58745C6.9264 4.76748 7.14273 4.88448 7.3793 4.91564C7.76419 4.96234 8.15474 4.90745 8.51112 4.75655C8.51112 4.79909 8.51112 4.84182 8.51112 4.88382C8.6944 4.99649 8.86572 5.12709 9.0225 5.27364C9.02563 4.33636 9.0225 3.39873 9.02379 2.46145C9.43275 2.46418 9.84226 2.45527 10.2508 2.46509C10.2531 2.48327 10.2577 2.51964 10.2599 2.53782C10.2612 3.17127 10.2553 3.80491 10.2626 4.43818C10.5905 3.95221 10.945 3.48424 11.3245 3.03636C10.8669 2.02382 10.4034 1.01364 9.948 0H9.86326ZM4.81392 4.22473C4.52818 4.48742 4.15941 4.64481 3.76978 4.67036C3.5572 4.69446 3.34316 4.70357 3.12927 4.69764C3.12927 5.016 3.12927 5.334 3.12927 5.65291C2.72031 5.65473 2.31153 5.65382 1.90221 5.65291C1.89668 4.59036 1.90368 3.52727 1.89889 2.46436C2.37785 2.45855 2.85681 2.46255 3.33577 2.46255C3.8092 2.46836 4.31672 2.51964 4.71223 2.80182C4.81632 2.88684 4.90184 2.99183 4.96363 3.11043C5.02541 3.22903 5.06217 3.35876 5.07168 3.49179C5.08118 3.62481 5.06324 3.75836 5.01894 3.88434C4.97463 4.01032 4.90488 4.12612 4.81392 4.22473ZM10.2932 1.08982C10.3753 1.22866 10.4077 1.39077 10.385 1.54997C10.3623 1.70917 10.2859 1.85619 10.1681 1.96727C10.0564 2.05492 9.92426 2.11362 9.7837 2.13804C9.64314 2.16246 9.49863 2.15182 9.3633 2.10709C9.24496 2.07313 9.13893 2.00647 9.05772 1.91498C8.97651 1.82349 8.92351 1.71098 8.90497 1.59073C8.87873 1.42931 8.90208 1.26383 8.97202 1.11564C9.0339 1.01362 9.12047 0.928372 9.22397 0.867537C9.32747 0.806702 9.44466 0.772187 9.56501 0.767091C9.70467 0.750274 9.84632 0.77145 9.97467 0.82833C10.103 0.88521 10.2132 0.975631 10.2932 1.08982Z" fill="#B1B4C7"/>
<path d="M3.69462 3.22818C3.50921 3.15663 3.30948 3.12862 3.11121 3.14636C3.11121 3.43291 3.10845 3.71945 3.11305 4.006C3.30565 4.02612 3.50033 4.00069 3.68099 3.93182C3.74401 3.89715 3.79672 3.84677 3.83386 3.78572C3.871 3.72466 3.89127 3.65507 3.89265 3.58387C3.89403 3.51267 3.87647 3.44236 3.84172 3.37994C3.80697 3.31753 3.75626 3.26521 3.69462 3.22818Z" fill="#B1B4C7"/>
<path d="M11.9694 4.454L11.9351 4.45746C11.7526 4.73509 11.5778 5.01836 11.4059 5.30273C11.6822 5.23 11.9515 5.12927 12.2282 5.05564C12.1613 4.84745 12.0527 4.65564 11.9694 4.454Z" fill="#B1B4C7"/>
<path d="M13.0821 2.14291C13.1734 2.12656 13.2674 2.13331 13.3554 2.16255C13.366 2.17161 13.3745 2.18291 13.3801 2.19561C13.3857 2.20831 13.3884 2.2221 13.3879 2.23595C13.3874 2.24979 13.3837 2.26336 13.3772 2.27564C13.3707 2.28792 13.3615 2.2986 13.3503 2.30691C13.1153 2.51342 12.8914 2.7319 12.6795 2.96145C12.3474 3.35277 12.0434 3.76651 11.7697 4.19964C11.1699 5.12164 10.6152 6.07145 10.0779 7.03018C10.0093 7.16473 9.84466 7.19691 9.70944 7.22418C9.56989 7.25615 9.42417 7.25023 9.28776 7.20704C9.15134 7.16386 9.02931 7.08502 8.93463 6.97891C8.62368 6.59297 8.31266 6.20709 8.00158 5.82127C7.97312 5.78882 7.95474 5.74894 7.94866 5.70644C7.94259 5.66393 7.94906 5.6206 7.96732 5.58164C8.05489 5.418 8.18562 5.28074 8.34569 5.18436C8.36924 5.1672 8.39831 5.15909 8.42748 5.16157C8.45664 5.16405 8.48389 5.17694 8.50412 5.19782C8.82318 5.47327 9.14058 5.75036 9.46001 6.02527C9.50017 6.07164 9.58657 6.08327 9.61162 6.01582C10.1187 5.10371 10.7046 4.23654 11.363 3.424C11.6662 3.05491 11.9766 2.69 12.3084 2.346C12.5468 2.22006 12.8117 2.15054 13.0821 2.14291Z" fill="#B1B4C7"/>
<path d="M20.6791 2.34218C20.3963 2.20304 20.0938 2.10675 19.782 2.05655C19.7376 2.05103 19.6954 2.03476 19.659 2.00919C19.6226 1.98361 19.5932 1.94954 19.5734 1.91C19.5705 1.8631 19.5852 1.81679 19.6147 1.7799C19.6442 1.74301 19.6864 1.71813 19.7333 1.71C19.7958 1.69386 19.8613 1.69228 19.9245 1.70537C19.9878 1.71846 20.047 1.74588 20.0977 1.78545C20.1547 1.84986 20.1936 1.92782 20.2106 2.01164C20.4501 2.00764 20.6896 1.97673 20.9291 1.97182C20.9203 1.85593 20.8853 1.74347 20.8266 1.64276C20.7678 1.54205 20.6869 1.45566 20.5897 1.39C20.3036 1.2542 19.9825 1.20686 19.6687 1.25418C19.5253 1.256 19.3846 1.29288 19.2593 1.36151C19.1339 1.43014 19.0277 1.52839 18.9502 1.64745C18.886 1.76259 18.8595 1.89452 18.8743 2.02514C18.8891 2.15575 18.9445 2.27864 19.0329 2.37691C19.2178 2.53937 19.4439 2.64911 19.6871 2.69436C19.8545 2.72073 20.0166 2.7736 20.167 2.85091C20.1928 2.86962 20.2142 2.89358 20.2298 2.92117C20.2454 2.94876 20.2548 2.97933 20.2574 3.01082C20.26 3.04232 20.2557 3.07399 20.2449 3.10371C20.234 3.13343 20.2168 3.1605 20.1944 3.18309C20.1251 3.23627 20.0415 3.26808 19.954 3.27455C19.8664 3.28102 19.7789 3.26185 19.7024 3.21945C19.6438 3.17858 19.5949 3.12566 19.559 3.06432C19.5231 3.00299 19.5011 2.93471 19.4946 2.86418C19.2551 2.87582 19.018 2.90055 18.7793 2.90473C18.782 3.05796 18.8265 3.20765 18.908 3.3381C18.9895 3.46854 19.1051 3.57496 19.2426 3.64618C19.4884 3.73634 19.7509 3.77354 20.0124 3.75527C20.2681 3.75783 20.5175 3.67669 20.7215 3.52455C20.8745 3.39475 20.9737 3.21381 21 3.01636V2.81309C20.9833 2.71665 20.9461 2.6248 20.8908 2.54362C20.8355 2.46243 20.7633 2.39378 20.6791 2.34218Z" fill="#B1B4C7"/>
<path d="M18.2823 2.39273C18.0767 2.25831 17.8456 2.16635 17.6031 2.12236C17.4597 2.0989 17.3194 2.06038 17.1843 2.00745C17.1613 1.99303 17.1424 1.97293 17.1296 1.94912C17.1168 1.9253 17.1105 1.89861 17.1113 1.87167C17.1122 1.84472 17.1201 1.81846 17.1344 1.79546C17.1486 1.77247 17.1687 1.75354 17.1926 1.74055C17.2521 1.71192 17.3175 1.69751 17.3837 1.69845C17.4498 1.6994 17.5148 1.71569 17.5734 1.746C17.6187 1.77659 17.6571 1.81606 17.6862 1.86195C17.7153 1.90785 17.7346 1.95917 17.7427 2.01273C17.9805 2.00691 18.2165 1.97782 18.4543 1.97255C18.4488 1.84954 18.412 1.72989 18.3472 1.62466C18.2824 1.51944 18.1918 1.43204 18.0837 1.37055C17.7859 1.24558 17.4579 1.20832 17.1392 1.26327C17.0104 1.27101 16.8851 1.30797 16.773 1.37129C16.661 1.43461 16.5653 1.52258 16.4933 1.62836C16.4178 1.75046 16.3868 1.89437 16.4055 2.03624C16.4242 2.17811 16.4915 2.30941 16.5961 2.40836C16.834 2.62073 17.1608 2.67927 17.462 2.75382C17.5249 2.76201 17.5854 2.7831 17.6396 2.81572C17.6937 2.84835 17.7404 2.89179 17.7766 2.94327C17.789 2.97778 17.7933 3.01464 17.7892 3.05104C17.785 3.08743 17.7725 3.12242 17.7527 3.15335C17.7328 3.18427 17.706 3.21033 17.6744 3.22953C17.6428 3.24873 17.6072 3.26058 17.5703 3.26418C17.4483 3.29025 17.3209 3.26965 17.2138 3.20655C17.1614 3.16476 17.118 3.11294 17.0863 3.0542C17.0547 2.99546 17.0354 2.93101 17.0296 2.86473C16.7918 2.87418 16.5552 2.90109 16.317 2.90309C16.3151 3.0769 16.3695 3.24678 16.4722 3.38797C16.5749 3.52916 16.7206 3.63428 16.8881 3.688C17.2131 3.77504 17.5547 3.78166 17.8829 3.70727C18.0329 3.67492 18.1709 3.6023 18.2818 3.49742C18.3926 3.39254 18.472 3.25947 18.5111 3.11291C18.5481 2.98391 18.5461 2.84706 18.5055 2.71913C18.4649 2.5912 18.3873 2.47776 18.2823 2.39273Z" fill="#B1B4C7"/>
<path d="M16.0293 2.82636C16.0744 2.52646 16.0507 2.2204 15.96 1.93073C15.9159 1.79535 15.8403 1.67201 15.7394 1.57053C15.6384 1.46905 15.5148 1.39223 15.3785 1.34618C15.0786 1.254 13.788 1.29527 13.788 1.29527C13.788 1.29527 13.788 2.90709 13.7907 3.71345C14.1348 3.71345 14.4788 3.71345 14.8223 3.71345C15.0571 3.72525 15.2916 3.68538 15.5089 3.59673C15.6521 3.51923 15.7743 3.40871 15.8649 3.27457C15.9555 3.14044 16.0119 2.98666 16.0293 2.82636ZM15.2788 2.66673C15.2857 2.75411 15.2688 2.8417 15.2299 2.92051C15.1911 2.99931 15.1316 3.06648 15.0578 3.11509C14.8947 3.15763 14.7259 3.1748 14.5574 3.166C14.5525 2.72091 14.5455 2.27509 14.5611 1.83C14.772 1.84345 15.039 1.81745 15.1792 2.01018C15.2752 2.21515 15.3098 2.44298 15.2788 2.66673Z" fill="#B1B4C7"/>
<path d="M14.171 4.72437C14.1495 4.73247 14.1264 4.73537 14.1036 4.73282C14.0808 4.73028 14.0589 4.72237 14.0399 4.70976C14.0208 4.69714 14.0051 4.68019 13.9941 4.66033C13.983 4.64047 13.977 4.61828 13.9764 4.59564C13.9668 4.49473 13.958 4.35927 14.0641 4.30564C14.0838 4.29788 14.1049 4.29417 14.1261 4.29475C14.1473 4.29533 14.1682 4.30017 14.1874 4.30899C14.2066 4.31781 14.2238 4.33042 14.238 4.34604C14.2521 4.36166 14.2628 4.37996 14.2695 4.39982C14.3393 4.38782 14.4082 4.37037 14.4782 4.35837C14.4676 4.29963 14.4391 4.24548 14.3965 4.20307C14.354 4.16067 14.2994 4.13202 14.24 4.12091C14.1742 4.10621 14.1061 4.1046 14.0397 4.11618C13.9733 4.12776 13.9099 4.1523 13.8532 4.18837C13.7875 4.25488 13.7433 4.33916 13.7262 4.43051C13.7091 4.52187 13.7199 4.61617 13.7572 4.70145C13.7891 4.77406 13.8441 4.83438 13.914 4.87322C13.9838 4.91205 14.0646 4.92727 14.1441 4.91655C14.2255 4.92304 14.3063 4.89833 14.3697 4.84754C14.4332 4.79675 14.4743 4.72379 14.4847 4.64382C14.418 4.62364 14.3518 4.60236 14.2865 4.57945C14.2538 4.63182 14.2367 4.70291 14.171 4.72437Z" fill="#B1B4C7"/>
<path d="M14.8373 4.12491C14.492 4.208 14.4775 4.78473 14.8117 4.89145C14.9037 4.92817 15.0055 4.93327 15.1008 4.90593C15.1961 4.87859 15.2793 4.8204 15.337 4.74073C15.38 4.65947 15.3986 4.56779 15.3906 4.47647C15.3825 4.38516 15.3482 4.298 15.2917 4.22527C15.2307 4.17202 15.157 4.13489 15.0776 4.11734C14.9981 4.09979 14.9154 4.10239 14.8373 4.12491ZM15.0145 4.73109C14.789 4.76509 14.7525 4.41509 14.903 4.31C14.9246 4.29955 14.9482 4.29394 14.9722 4.29357C14.9962 4.2932 15.02 4.29809 15.0418 4.30787C15.0637 4.31766 15.0831 4.33211 15.0986 4.35018C15.1141 4.36824 15.1254 4.38948 15.1316 4.41236C15.1578 4.52309 15.1523 4.69891 15.0145 4.73109Z" fill="#B1B4C7"/>
<path d="M16.0759 4.12018C16.0339 4.26945 15.995 4.42 15.9604 4.57109C15.9028 4.42564 15.8768 4.26927 15.8285 4.12C15.7235 4.12146 15.6185 4.12127 15.5135 4.12127C15.5126 4.38 15.5135 4.63873 15.5135 4.89727H15.7117C15.7163 4.72564 15.7012 4.55309 15.7204 4.382C15.7775 4.55091 15.8108 4.72618 15.8609 4.89691H16.0452C16.0953 4.71509 16.1391 4.53091 16.1909 4.34927C16.2008 4.53109 16.1971 4.71164 16.1942 4.89273C16.2596 4.89636 16.3255 4.89618 16.3915 4.89727C16.3915 4.63836 16.3915 4.37927 16.3915 4.12036C16.2854 4.12109 16.1806 4.12109 16.0759 4.12018Z" fill="#B1B4C7"/>
<path d="M17.0508 4.13309C16.8817 4.11906 16.7119 4.11529 16.5424 4.12182C16.5424 4.38018 16.5424 4.63855 16.5424 4.89727C16.6248 4.89727 16.7075 4.89727 16.7907 4.89727C16.7907 4.80285 16.7907 4.70855 16.7907 4.61437C16.8996 4.62847 17.0103 4.61334 17.1112 4.57055C17.1485 4.54404 17.1778 4.508 17.1959 4.46632C17.2141 4.42463 17.2204 4.37885 17.2142 4.3339C17.208 4.28895 17.1895 4.24651 17.1607 4.21113C17.1319 4.17576 17.0939 4.14878 17.0508 4.13309ZM16.7916 4.458C16.7916 4.39982 16.7907 4.34146 16.7916 4.28328C16.8516 4.28245 16.9113 4.29243 16.9677 4.31273L16.9701 4.41855C16.9148 4.44613 16.8535 4.45969 16.7916 4.458Z" fill="#B1B4C7"/>
<path d="M18.0754 4.12109C18.0741 4.37982 18.0754 4.63818 18.0754 4.89691C18.157 4.89691 18.2384 4.89691 18.3202 4.89818C18.3252 4.63946 18.3202 4.38073 18.3226 4.12218C18.2398 4.12109 18.1574 4.12073 18.0754 4.12109Z" fill="#B1B4C7"/>
<path d="M18.7069 4.12073C18.6068 4.37879 18.5086 4.63739 18.4121 4.89654C18.4952 4.89782 18.5779 4.89745 18.6619 4.89654C18.6757 4.85491 18.6907 4.81346 18.7054 4.77182C18.7922 4.77309 18.8789 4.77309 18.9661 4.77273C18.9808 4.81473 18.9961 4.85636 19.0114 4.89837C19.0958 4.89837 19.1803 4.89745 19.2652 4.89654C19.1683 4.63764 19.0707 4.37854 18.9705 4.12109C18.8821 4.12109 18.7942 4.12097 18.7069 4.12073ZM18.757 4.60473C18.7786 4.51815 18.8047 4.43271 18.8351 4.34873C18.8681 4.432 18.8952 4.51742 18.9163 4.60436C18.8629 4.60436 18.8099 4.60436 18.757 4.60473Z" fill="#B1B4C7"/>
<path d="M19.8645 4.12073C19.8632 4.25891 19.8663 4.39727 19.8608 4.53545C19.7554 4.40364 19.6724 4.256 19.5677 4.12437C19.4928 4.11938 19.4177 4.11823 19.3426 4.12091C19.3417 4.37964 19.3426 4.63836 19.3426 4.89691H19.5723C19.5723 4.76327 19.5705 4.62964 19.5755 4.49691C19.6755 4.62418 19.7635 4.75891 19.8518 4.89327C19.9325 4.89764 20.0135 4.89818 20.0946 4.89764C20.0946 4.63891 20.0955 4.38 20.0946 4.12127L19.8645 4.12073Z" fill="#B1B4C7"/>
<path d="M20.1909 4.12327C20.1909 4.18618 20.1909 4.24855 20.1909 4.31145C20.2714 4.31418 20.3521 4.31491 20.433 4.31273C20.4448 4.50455 20.4385 4.69745 20.4367 4.88964C20.5192 4.8977 20.6021 4.90025 20.685 4.89727C20.6737 4.70156 20.6812 4.50522 20.7075 4.31091C20.7811 4.31436 20.8567 4.31455 20.9313 4.31455C20.9313 4.24982 20.9313 4.18545 20.9313 4.12091C20.6837 4.12236 20.4374 4.11836 20.1909 4.12327Z" fill="#B1B4C7"/>
<path d="M17.5798 4.70673C17.5789 4.51146 17.5798 4.31655 17.5798 4.12164C17.4987 4.12103 17.4176 4.12073 17.3365 4.12073C17.335 4.37945 17.3365 4.63818 17.3356 4.89709C17.5437 4.89709 17.7519 4.89709 17.9601 4.89709C17.9595 4.8337 17.959 4.77036 17.9586 4.70709L17.5798 4.70673Z" fill="#B1B4C7"/>
</svg>
