<svg width="20" height="22" viewBox="0 0 20 22" fill="none" xmlns="http://www.w3.org/2000/svg">
<g clip-path="url(#clip0_74:1326)">
<path fill-rule="evenodd" clip-rule="evenodd" d="M5.18373 8.27522C5.18373 8.43339 5.16016 8.55494 5.10156 8.64021L3.04582 12.3507L2.91649 7.82513H-0.372559L0.731594 8.37253C1.04868 8.57935 1.2132 8.84687 1.2132 9.18762L1.5185 13.993H3.12783L6.98099 7.82513H5.00759C5.12496 7.93464 5.18373 8.10485 5.18373 8.27522ZM18.4814 8.00754L18.6104 7.82495H16.6016C16.672 7.89785 16.6956 7.93447 16.6956 7.95871C16.6718 8.05585 16.6249 8.11688 16.6016 8.18978L13.6766 13.7126C13.6062 13.8099 13.5355 13.8952 13.4535 13.9927H15.1098L15.0275 13.8101C15.0275 13.6519 15.1098 13.3602 15.286 12.9465L15.6384 12.2652H17.3417C17.4124 12.837 17.4594 13.3115 17.4828 13.6645L17.3417 13.9929H19.3974L19.092 13.5306L18.4814 8.00754ZM17.2595 11.4016H16.0378L17.0832 9.32137L17.2595 11.4016ZM12.1848 7.50879C11.5507 7.50879 11.0101 7.69137 10.5285 8.05619C9.99977 8.37253 9.74145 8.77397 9.74145 9.27289C9.74145 9.84471 9.92938 10.3435 10.3052 10.7205L11.4449 11.5354C11.8561 11.8397 12.0558 12.1072 12.0558 12.3507C12.0558 12.5817 11.9498 12.7885 11.7504 12.9467C11.5507 13.1049 11.3272 13.1778 11.0455 13.1778C10.6343 13.1778 9.92955 12.8738 8.95455 12.3142V13.4455C9.71805 13.92 10.4583 14.1634 11.1746 14.1634C11.8561 14.1634 12.4317 13.9686 12.9253 13.5307C13.4538 13.1291 13.7122 12.655 13.7122 12.1318C13.7122 11.6936 13.5241 11.2923 13.1012 10.8664L12.0085 10.0514C11.6448 9.74723 11.4449 9.47954 11.4449 9.27289C11.4449 8.79856 11.715 8.55511 12.2672 8.55511C12.643 8.55511 13.1952 8.77414 13.9351 9.23644L14.1586 8.05636C13.5357 7.6912 12.8897 7.50879 12.1848 7.50879ZM7.81504 13.9929C7.79146 13.7374 7.74448 13.5063 7.72091 13.2629L9.21287 8.27522L9.56531 7.82513H7.41561C7.43918 7.93464 7.46259 8.0806 7.48617 8.19012C7.48617 8.29963 7.48617 8.43356 7.46259 8.55511L5.9708 13.4941L5.66534 13.993H7.81504V13.9929Z" fill="#315881"/>
</g>
<defs>
<clipPath id="clip0_74:1326">
<rect width="20" height="22" fill="white"/>
</clipPath>
</defs>
</svg>
