<svg width="146" height="140" viewBox="0 0 146 140" fill="none" xmlns="http://www.w3.org/2000/svg">
<path d="M66.7456 97.9631C66.7456 97.9631 66.7278 97.9631 66.7171 97.9631C66.7064 97.9631 66.6992 97.9631 66.6885 97.9631C64.288 97.8775 61.9266 97.6207 59.6045 97.2783C57.2825 96.9358 54.996 96.5078 52.7488 96.0905C50.2484 95.6232 47.7087 95.1488 45.1191 94.7921C42.5294 94.4354 39.8899 94.1929 37.1933 94.1929C32.121 94.1929 24.8515 95.1203 18.8305 96.0512C12.8095 96.9822 8.03327 97.9168 7.93696 97.9382C7.53032 98.0202 7.12726 97.931 6.80267 97.717C6.47807 97.503 6.23196 97.1677 6.14635 96.7575C6.02864 96.2189 4.60898 89.5594 3.21429 81.2947C1.81961 73.03 0.457031 63.1602 0.457031 56.201C0.457031 38.3448 3.80285 24.2945 10.07 14.71C16.3372 5.12558 25.5186 0.00341797 37.1933 0.00341797C48.868 0.00341797 58.0493 5.12558 64.3165 14.71C70.5837 24.2945 73.9295 38.3448 73.9295 56.201C73.9295 62.4432 73.4765 68.7889 72.5384 75.4805C71.6003 82.1721 70.1735 89.2027 68.2295 96.8182C68.1439 97.157 67.9477 97.4459 67.6837 97.6492C67.4198 97.8526 67.0952 97.9703 66.7456 97.9703V97.9631ZM37.1933 91.1288C40.029 91.1288 42.7756 91.3749 45.4544 91.7459C48.1332 92.1133 50.7442 92.602 53.3124 93.0799C55.3991 93.4687 57.4323 93.8504 59.4583 94.1607C61.4843 94.4711 63.5068 94.7208 65.5685 94.8456C67.377 87.6225 68.7003 80.9309 69.5742 74.5638C70.4481 68.1932 70.869 62.1436 70.869 56.1975C70.869 46.2742 69.774 32.9908 65.0192 22.19C60.2644 11.3856 51.8428 3.06388 37.1933 3.06388C22.5437 3.06388 14.1257 11.3856 9.36732 22.19C4.61255 32.9943 3.5175 46.2777 3.5175 56.1975C3.5175 62.0651 4.55191 70.2478 5.73614 77.6814C6.91681 85.1149 8.24729 91.7923 8.83227 94.6494C11.2007 94.2035 16.0732 93.3261 21.4629 92.5556C26.8526 91.7887 32.7595 91.1288 37.1933 91.1288Z" fill="#295278"/>
<path d="M51.7938 41.1343C50.6452 37.3747 48.7761 33.9504 46.3078 31.4643C43.8358 28.9781 40.7611 27.4336 37.1942 27.4336C33.6272 27.4336 30.5525 28.9781 28.0805 31.4643C25.6086 33.9504 23.7431 37.3747 22.5945 41.1343C21.6814 44.1234 21.2248 47.4372 21.0572 50.8401C20.8895 54.2429 21.0144 57.735 21.2605 61.0772L28.3944 64.3268L35.5284 67.5763L29.0044 70.5476L22.4804 73.5188C22.9584 78.0453 23.4898 82.0368 23.9856 85.3184C24.4815 88.6 24.9452 91.1753 25.2983 92.8625C27.3101 92.7769 29.2362 92.7092 31.1838 92.6664C33.1314 92.6236 35.1003 92.5986 37.1977 92.5986C39.2951 92.5986 41.2641 92.62 43.2116 92.6664C45.1592 92.7092 47.0854 92.7769 49.0971 92.8625C49.5608 90.6189 50.2279 86.1959 50.9056 81.0951C51.5833 75.9908 52.2682 70.2087 52.7675 65.247C53.1563 61.4018 53.4702 57.1857 53.406 53.0266C53.3454 48.864 52.9067 44.7584 51.7973 41.1343H51.7938Z" fill="#295278"/>
<path d="M138.352 97.9633C138.302 97.9633 138.252 97.9633 138.205 97.9562C138.156 97.9526 138.106 97.9455 138.056 97.9348C137.959 97.9169 133.183 96.9788 127.162 96.0478C121.141 95.1169 113.875 94.1895 108.803 94.1895C106.11 94.1895 103.47 94.432 100.881 94.7887C98.2911 95.1454 95.7479 95.6198 93.251 96.0871C91.0038 96.508 88.7174 96.9324 86.3917 97.2784C84.066 97.6208 81.7047 97.8812 79.3077 97.9633C78.951 97.974 78.6121 97.8599 78.3375 97.6565C78.0664 97.4532 77.8595 97.1607 77.7703 96.8112C75.8263 89.1992 74.3996 82.1652 73.4614 75.4771C72.5233 68.7855 72.0703 62.4398 72.0703 56.1976C72.0703 38.3414 75.4161 24.2911 81.6833 14.7066C87.9504 5.12216 97.1318 0 108.807 0C120.481 0 129.663 5.12216 135.93 14.7066C142.197 24.2911 145.543 38.3414 145.543 56.1976C145.543 63.1603 144.18 73.0302 142.786 81.2913C141.391 89.5559 139.971 96.2155 139.853 96.7541C139.775 97.1143 139.579 97.414 139.315 97.628C139.051 97.842 138.712 97.9633 138.359 97.9633H138.352ZM108.799 3.06047C94.1499 3.06047 85.7318 11.3822 80.9735 22.1866C76.2187 32.9909 75.1236 46.2743 75.1236 56.1941C75.1236 62.1402 75.5445 68.1898 76.4184 74.5604C77.2923 80.931 78.6157 87.6191 80.4241 94.8422C82.4858 94.7173 84.5083 94.4712 86.5344 94.1573C88.5604 93.8434 90.5971 93.4654 92.6838 93.0766C95.252 92.5986 97.8631 92.1099 100.542 91.7425C103.221 91.3751 105.964 91.129 108.799 91.129C113.233 91.129 119.14 91.7853 124.53 92.5558C129.919 93.3226 134.792 94.2037 137.16 94.6496C137.745 91.796 139.076 85.1151 140.257 77.6815C141.437 70.2479 142.475 62.0653 142.475 56.1976C142.475 46.2743 141.38 32.9909 136.625 22.1901C131.871 11.3858 123.449 3.06404 108.799 3.06404V3.06047Z" fill="#295278"/>
<path d="M123.399 41.1343C122.251 37.3747 120.382 33.9504 117.913 31.4643C115.441 28.9781 112.367 27.4336 108.8 27.4336C105.233 27.4336 102.158 28.9781 99.686 31.4643C97.2141 33.9504 95.3486 37.3747 94.2 41.1343C93.2869 44.1234 92.8303 47.4372 92.6627 50.8401C92.495 54.2429 92.6198 57.735 92.866 61.0772L99.9999 64.3268L107.134 67.5763L100.61 70.5476L94.0859 73.5188C94.5638 78.0453 95.0953 82.0368 95.5911 85.3184C96.0869 88.6 96.5507 91.1753 96.9038 92.8625C98.9156 92.7769 100.842 92.7092 102.789 92.6664C104.737 92.6236 106.706 92.5986 108.803 92.5986C110.901 92.5986 112.87 92.62 114.817 92.6664C116.765 92.7092 118.691 92.7769 120.703 92.8625C121.166 90.6189 121.833 86.1959 122.511 81.0951C123.189 75.9908 123.874 70.2087 124.373 65.247C124.762 61.4018 125.076 57.1857 125.011 53.0266C124.951 48.864 124.512 44.7584 123.403 41.1343H123.399Z" fill="#295278"/>
<path d="M72.9953 111.058C68.7756 111.058 64.9482 109.802 62.1767 107.776C59.4052 105.75 57.6895 102.95 57.6895 99.8645C57.6895 96.7791 59.4052 93.9791 62.1767 91.953C64.9482 89.927 68.7756 88.6714 72.9953 88.6714C77.215 88.6714 81.0424 89.927 83.8139 91.953C86.5855 93.9791 88.3048 96.7791 88.3048 99.8645C88.3048 102.95 86.589 105.75 83.8139 107.776C81.0424 109.802 77.215 111.058 72.9953 111.058ZM72.9953 91.7283C69.6174 91.7283 66.5569 92.6414 64.3383 94.1146C62.1196 95.5877 60.7464 97.6209 60.7464 99.8645C60.7464 102.108 62.1196 104.141 64.3383 105.615C66.5569 107.088 69.6174 108.001 72.9953 108.001C76.3732 108.001 79.4337 107.088 81.6524 105.615C83.871 104.141 85.2443 102.108 85.2443 99.8645C85.2443 97.6209 83.871 95.5877 81.6524 94.1146C79.4337 92.6414 76.3732 91.7283 72.9953 91.7283Z" fill="#295278"/>
<path d="M72.9949 139.996C57.6426 139.996 47.6444 134.981 41.4343 129.855C35.2242 124.733 32.8058 119.501 32.6132 119.076C32.442 118.691 32.442 118.27 32.5811 117.906C32.7202 117.539 33.002 117.228 33.3872 117.057C33.7725 116.886 34.1934 116.886 34.5572 117.029C34.921 117.168 35.2349 117.446 35.4061 117.831C35.5845 118.227 37.8246 123.003 43.5995 127.683C49.3744 132.363 58.6806 136.939 72.9913 136.939C87.302 136.939 96.6154 132.356 102.39 127.676C108.162 122.996 110.402 118.22 110.576 117.828C110.751 117.442 111.062 117.164 111.425 117.025C111.789 116.886 112.21 116.886 112.595 117.061C112.981 117.232 113.259 117.546 113.398 117.91C113.537 118.274 113.537 118.691 113.366 119.08C113.177 119.508 110.755 124.737 104.548 129.859C98.3382 134.981 88.34 140 72.9877 140L72.9949 139.996Z" fill="#295278"/>
<path d="M29.6278 119.986C29.3032 119.986 28.975 119.971 28.6504 119.946C28.3258 119.918 28.0012 119.879 27.6766 119.825C27.2593 119.754 26.9133 119.522 26.685 119.201C26.4567 118.88 26.3533 118.477 26.4246 118.059C26.496 117.642 26.7278 117.293 27.0453 117.068C27.3627 116.84 27.7694 116.736 28.1903 116.807C29.8668 117.093 31.636 116.847 33.2233 116.176C34.8106 115.505 36.2267 114.418 37.1969 113.012C37.4359 112.666 37.7961 112.449 38.1814 112.377C38.5666 112.306 38.9804 112.384 39.3264 112.623C39.6724 112.862 39.8899 113.223 39.9613 113.608C40.0326 113.993 39.9542 114.407 39.7152 114.753C38.5844 116.387 37.0471 117.696 35.3028 118.598C33.5586 119.5 31.6003 119.989 29.6278 119.989V119.986Z" fill="#295278"/>
<path d="M116.363 119.986C114.39 119.986 112.436 119.493 110.688 118.595C108.94 117.696 107.406 116.387 106.275 114.749C106.036 114.4 105.958 113.99 106.029 113.604C106.101 113.219 106.318 112.859 106.664 112.62C107.014 112.381 107.424 112.302 107.809 112.374C108.194 112.445 108.551 112.663 108.794 113.009C109.764 114.414 111.173 115.506 112.76 116.173C114.347 116.843 116.117 117.089 117.8 116.804C118.218 116.729 118.621 116.836 118.942 117.064C119.263 117.293 119.495 117.642 119.566 118.059C119.637 118.477 119.534 118.883 119.305 119.201C119.077 119.518 118.731 119.754 118.314 119.825C117.989 119.879 117.665 119.921 117.34 119.946C117.015 119.971 116.687 119.986 116.363 119.986Z" fill="#295278"/>
<path d="M138.502 24.4088H79.0972C78.8404 24.4088 78.5943 24.3446 78.3767 24.2304C78.1591 24.1127 77.9665 23.9451 77.8274 23.7311C77.6847 23.5206 77.5991 23.2781 77.5741 23.0319C77.5491 22.7858 77.5848 22.5326 77.6811 22.2971C80.7095 14.8992 84.8436 9.32407 90.0407 5.60015C95.2378 1.87623 101.505 0 108.799 0C116.094 0 122.357 1.87623 127.558 5.60015C132.755 9.32407 136.889 14.8992 139.918 22.2971C140.014 22.5326 140.05 22.7858 140.025 23.0319C140 23.2781 139.914 23.5171 139.775 23.7311C139.636 23.9451 139.443 24.1127 139.226 24.2304C139.008 24.3481 138.762 24.4088 138.505 24.4088H138.502ZM81.4336 21.3483H136.162C133.337 15.2809 129.627 10.7081 125.058 7.65473C120.488 4.6014 115.059 3.06404 108.799 3.06404C102.539 3.06404 97.1104 4.6014 92.5412 7.65473C87.9719 10.7081 84.2586 15.2809 81.4372 21.3483H81.4336Z" fill="#295278"/>
<path d="M66.8961 24.4088H7.49173C7.23491 24.4088 6.9888 24.3446 6.77122 24.2304C6.55363 24.1127 6.361 23.9451 6.22189 23.7311C6.07921 23.5206 5.99362 23.2781 5.96865 23.0319C5.94368 22.7858 5.97935 22.5326 6.07565 22.2971C9.10401 14.8992 13.2381 9.32407 18.4352 5.60015C23.6323 1.87623 29.8995 0 37.1939 0C44.4884 0 50.752 1.87623 55.9526 5.60015C61.1533 9.32407 65.2838 14.8992 68.3122 22.2971C68.4085 22.5326 68.4442 22.7858 68.4192 23.0319C68.3942 23.2781 68.3086 23.5171 68.1659 23.7311C68.0232 23.9415 67.8342 24.1127 67.6166 24.2304C67.399 24.3481 67.1529 24.4088 66.8961 24.4088ZM9.82811 21.3483H64.5562C61.7311 15.2809 58.0215 10.7081 53.4522 7.65473C48.8829 4.6014 43.4539 3.06404 37.1939 3.06404C30.9339 3.06404 25.5049 4.6014 20.9356 7.65473C16.3664 10.7081 12.6531 15.2809 9.83166 21.3483H9.82811Z" fill="#295278"/>
</svg>
