<svg width="104" height="20" viewBox="0 0 104 20" fill="none" xmlns="http://www.w3.org/2000/svg">
<path d="M7.07231 0.450684C8.90999 0.450684 10.4043 0.863829 11.5551 1.69012C12.706 2.49763 13.2815 3.86853 13.2815 5.8028C13.2815 6.51641 13.1144 7.1643 12.7803 7.74646C12.4647 8.30984 12.0471 8.7981 11.5273 9.21125C12.3812 9.66195 13.0773 10.2723 13.6156 11.0423C14.1725 11.8122 14.4509 12.7887 14.4509 13.9718C14.4509 15.7371 13.8383 17.1174 12.6132 18.1127C11.4066 19.108 9.79171 19.6056 7.7684 19.6056H0V0.450684H7.07231ZM6.54327 3.49294H3.59184V8.2535H6.26484C7.26721 8.2535 8.04684 8.06571 8.60371 7.69012C9.17915 7.29575 9.46687 6.68543 9.46687 5.85914C9.46687 4.95773 9.20699 4.33801 8.68724 3.99998C8.16749 3.66195 7.45284 3.49294 6.54327 3.49294ZM7.74055 11.2113H3.59184V16.5915H7.48996C8.45521 16.5915 9.22555 16.3662 9.80099 15.9155C10.395 15.4648 10.692 14.8263 10.692 14C10.692 13.0986 10.4228 12.4131 9.88452 11.9437C9.34621 11.4554 8.63155 11.2113 7.74055 11.2113Z" fill="black"/>
<path d="M21.7285 0.450684V19.6056H18.1367V0.450684H21.7285Z" fill="black"/>
<path d="M24.2305 0.450684H39.5445L40.1292 3.32392H33.6417V19.6056H29.9941V3.32392H24.2305V0.450684Z" fill="black"/>
<path d="M54.3304 3.91555C53.5137 3.67142 52.8454 3.48363 52.3257 3.35217C51.8059 3.20194 51.1377 3.12682 50.3209 3.12682C48.8174 3.12682 47.6572 3.74654 46.8405 4.98597C46.0237 6.22541 45.6153 7.92494 45.6153 10.0846C45.6153 11.9438 45.9587 13.5494 46.6455 14.9015C47.3324 16.2536 48.4832 16.9297 50.0982 16.9297C50.8964 16.9297 51.6389 16.8452 52.3257 16.6762C53.031 16.5071 53.6714 16.3006 54.2469 16.0564L55.6112 18.7607C54.8873 19.1362 54.0148 19.4367 52.9939 19.6621C51.973 19.8874 51.0727 20.0001 50.2931 20.0001C47.3416 20.0001 45.1977 19.0424 43.8612 17.1269C42.5247 15.2114 41.8564 12.8733 41.8564 10.1128C41.8564 7.16438 42.5896 4.75123 44.0561 2.8733C45.5411 0.995363 47.6665 0.0563965 50.4323 0.0563965C50.9892 0.0563965 51.7595 0.150293 52.7433 0.338086C53.7271 0.525879 54.6274 0.845128 55.4442 1.29583L54.3304 3.91555Z" fill="black"/>
<path d="M58.3613 10.1127C58.3613 7.16432 59.1224 4.76056 60.6445 2.90141C62.1666 1.02348 64.3106 0.0563384 67.0764 0C70.0464 0 72.2461 0.967137 73.6754 2.90141C75.1047 4.83568 75.8194 7.17371 75.8194 9.91549C75.8194 12.8826 75.049 15.2958 73.5083 17.1549C71.9862 18.9953 69.8422 19.9437 67.0764 20C64.125 20 61.9346 19.0423 60.5053 17.1268C59.076 15.1925 58.3613 12.8545 58.3613 10.1127ZM62.1202 10.0845C62.1202 12.0939 62.5193 13.7371 63.3175 15.0141C64.1157 16.2911 65.3594 16.9296 67.0486 16.9296C68.5707 16.9296 69.7865 16.3568 70.6961 15.2113C71.6057 14.0657 72.0605 12.3005 72.0605 9.91549C72.0605 7.92488 71.6614 6.29108 70.8632 5.01408C70.065 3.73709 68.8213 3.09859 67.1321 3.09859C65.6471 3.09859 64.4406 3.7277 63.5124 4.98591C62.5843 6.24413 62.1202 7.94366 62.1202 10.0845Z" fill="black"/>
<path d="M83.3438 0.450684V19.6056H79.752V0.450684H83.3438Z" fill="black"/>
<path d="M104 0.450684V19.6056H100.38L91.6094 6.78871V19.6056H88.0176V0.450684H91.6094L100.38 13.2394V0.450684H104Z" fill="black"/>
</svg>
