<svg width="116" height="32" viewBox="0 0 116 32" fill="none" xmlns="http://www.w3.org/2000/svg">
<path d="M14.5942 21.915V25H4.37695V21.915H14.5942ZM5.66895 5.80469V25H1.71387V5.80469H5.66895ZM13.2627 13.6226V16.6284H4.37695V13.6226H13.2627ZM14.5811 5.80469V8.90283H4.37695V5.80469H14.5811Z" fill="black"/>
<path d="M25.7479 24.2148C25.4673 24.4416 25.064 24.6248 24.538 24.7644C24.0295 24.9214 23.5737 24.9999 23.1704 24.9999C21.5924 24.9999 20.3475 24.6073 19.4357 23.8222C18.5415 23.0196 18.0944 21.8856 18.0944 20.42V14.4269H16.3848V11.8098H18.0944V8.80017L21.4872 8.19824V11.8098H23.8016L24.8536 14.4269H21.4872V19.8181C21.4872 20.4811 21.645 21.0307 21.9606 21.4668C22.2762 21.8856 22.7408 22.0949 23.3545 22.0949C23.5824 22.0949 23.8104 22.0688 24.0383 22.0164C24.2663 21.9641 24.503 21.8769 24.7484 21.7547L25.7479 24.2148Z" fill="black"/>
<path d="M31.2198 12.6212C31.7809 12.185 32.4209 11.8535 33.1398 11.6267C33.8762 11.3999 34.5337 11.2865 35.1123 11.2865C36.8482 11.2865 38.0755 11.7925 38.7944 12.8044C39.5308 13.8163 39.899 15.0551 39.899 16.5207V24.4766H36.4799V16.6777C36.4799 15.8751 36.2871 15.2645 35.9013 14.8457C35.5156 14.4095 34.9457 14.1915 34.1918 14.1915C33.7008 14.1915 33.1924 14.3223 32.6664 14.584C32.1403 14.8283 31.6582 15.1162 31.2198 15.4477V24.4766H27.8271V6.28788L31.2198 6V12.6212Z" fill="black"/>
<path d="M49.6294 24.7907C47.4202 24.7907 45.6756 24.1888 44.3956 22.9849C43.1332 21.7811 42.502 20.1672 42.502 18.1434C42.502 16.1195 43.0718 14.4969 44.2115 13.2756C45.3687 12.0543 46.938 11.4436 48.9193 11.4436C50.9181 11.4436 52.3822 12.1066 53.3115 13.4326C54.2583 14.7411 54.7317 16.2939 54.7317 18.091V19.1378H46.1314C46.2892 19.9753 46.675 20.647 47.2887 21.153C47.9023 21.6415 48.7089 21.8858 49.7083 21.8858C50.2869 21.8858 50.8042 21.816 51.26 21.6764C51.7335 21.5194 52.277 21.3013 52.8907 21.0221L53.8901 23.4822C53.294 23.9358 52.5663 24.2673 51.7072 24.4767C50.8655 24.6861 50.173 24.7907 49.6294 24.7907ZM51.4968 16.861C51.3214 16.0061 51.0058 15.3779 50.5499 14.9767C50.0941 14.5579 49.5242 14.3486 48.8404 14.3486C48.139 14.3486 47.5517 14.5667 47.0783 15.0028C46.6048 15.4216 46.298 16.041 46.1577 16.861H51.4968Z" fill="black"/>
<path d="M73.1274 24.7907C70.9182 24.7907 69.1736 24.1888 67.8936 22.9849C66.6312 21.7811 66 20.1672 66 18.1434C66 16.1195 66.5698 14.4969 67.7095 13.2756C68.8667 12.0543 70.436 11.4436 72.4173 11.4436C74.4161 11.4436 75.8802 12.1066 76.8095 13.4326C77.7563 14.7411 78.2297 16.2939 78.2297 18.091V19.1378H69.6294C69.7872 19.9753 70.173 20.647 70.7867 21.153C71.4003 21.6415 72.2069 21.8858 73.2063 21.8858C73.7849 21.8858 74.3022 21.816 74.758 21.6764C75.2315 21.5194 75.775 21.3013 76.3887 21.0221L77.3881 23.4822C76.792 23.9358 76.0643 24.2673 75.2052 24.4767C74.3635 24.6861 73.671 24.7907 73.1274 24.7907ZM74.9948 16.861C74.8194 16.0061 74.5038 15.3779 74.0479 14.9767C73.5921 14.5579 73.0222 14.3486 72.3384 14.3486C71.637 14.3486 71.0497 14.5667 70.5763 15.0028C70.1028 15.4216 69.796 16.041 69.6557 16.861H74.9948Z" fill="black"/>
<path d="M64.3563 11.7837L65.0401 14.5055C64.4615 14.5055 63.7865 14.6712 63.0151 15.0027C62.2611 15.3342 61.5158 15.8227 60.7794 16.4682V24.4765H57.3604V11.7837H59.1488L60.2798 13.6418C60.8058 13.1882 61.4457 12.7695 62.1996 12.3856C62.9536 11.9843 63.6726 11.7837 64.3563 11.7837Z" fill="black"/>
<path d="M89.2052 23.2203C88.6266 23.7611 87.9164 24.1886 87.0748 24.5027C86.2332 24.8342 85.4705 24.9999 84.7867 24.9999C83.0508 24.9999 81.8147 24.4939 81.0783 23.482C80.3594 22.4526 80 21.2139 80 19.7657V11.7837H83.4453V19.6087C83.4453 20.4113 83.6382 21.0307 84.024 21.4668C84.4097 21.8856 84.9708 22.0949 85.7072 22.0949C86.1631 22.0949 86.6453 21.9815 87.1537 21.7547C87.6622 21.5279 88.1268 21.2662 88.5477 20.9696V11.7837H91.9667V24.4765H90.1783L89.2052 23.2203Z" fill="black"/>
<path d="M106.227 13.2756C106.771 12.665 107.49 12.1852 108.384 11.8362C109.296 11.4698 110.11 11.2866 110.829 11.2866C112.565 11.2866 113.792 11.7926 114.511 12.8045C115.248 13.8165 115.616 15.0552 115.616 16.5208V24.4767H112.171V16.6778C112.171 15.8752 111.978 15.2646 111.592 14.8459C111.206 14.4097 110.645 14.1916 109.909 14.1916C109.418 14.1916 108.901 14.3224 108.357 14.5841C107.814 14.8459 107.323 15.1425 106.885 15.474C106.902 15.6484 106.92 15.8229 106.937 15.9974C106.955 16.1718 106.964 16.3463 106.964 16.5208V24.4767H103.518V16.6778C103.518 15.8752 103.325 15.2646 102.94 14.8459C102.554 14.4097 102.002 14.1916 101.283 14.1916C100.844 14.1916 100.397 14.2875 99.9414 14.4795C99.503 14.6539 99.0822 14.8807 98.6789 15.1599V24.4767H95.2598V11.7839H97.0483L97.8899 12.9354C98.4685 12.412 99.1611 12.0107 99.9677 11.7315C100.792 11.4349 101.528 11.2866 102.177 11.2866C103.176 11.2866 104.009 11.4698 104.675 11.8362C105.342 12.1852 105.859 12.665 106.227 13.2756Z" fill="black"/>
</svg>
