<svg width="36" height="22" viewBox="0 0 36 22" fill="none" xmlns="http://www.w3.org/2000/svg">
<path d="M25.1287 0.550671C22.6022 0.550671 20.282 1.45196 18.4753 2.94928C16.5119 1.12403 13.8884 6.47513e-07 10.999 6.47513e-07C4.9251 -0.00206179 0 4.92303 0 10.999C0 17.0749 4.9251 22 10.999 22C13.8905 22 16.5119 20.876 18.4753 19.0507C20.282 20.546 22.6022 21.4473 25.1287 21.4473C30.8891 21.4473 35.577 16.7614 35.577 10.999C35.577 5.23652 30.8891 0.550671 25.1287 0.550671ZM25.1287 18.7269C23.2725 18.7269 21.5628 18.0669 20.2304 16.9656C21.3421 15.2476 21.9979 13.2017 21.9979 10.999C21.9979 8.79629 21.3421 6.75035 20.2304 5.03234C21.5628 3.93513 23.2725 3.27515 25.1287 3.27515C29.3856 3.27515 32.8505 6.74004 32.8505 10.999C32.8505 15.2579 29.3856 18.7269 25.1287 18.7269Z" fill="black"/>
</svg>
