<svg width="103" height="18" viewBox="0 0 103 18" fill="none" xmlns="http://www.w3.org/2000/svg">
<path fill-rule="evenodd" clip-rule="evenodd" d="M95.9978 7.62168C95.414 8.02225 94.5667 8.22028 93.4073 8.22028H92.9041H92.2575L93.1392 3.53296H93.586H93.9847C94.947 3.53296 95.65 3.68543 96.1343 3.99488C96.5129 4.23757 96.9615 4.71799 96.9615 5.62965C96.9615 6.72806 96.4395 7.31899 95.9978 7.62168ZM27.41 13.5044H18.5121L19.0872 10.4406H24.6683L25.3025 6.9897H19.775L20.3094 3.95744H29.1917L27.41 13.5044ZM100.791 1.32757C99.4828 0.444777 97.5031 0 94.9076 0H88.1099L85.583 13.5048H76.6783L77.2492 10.441H82.614L83.2519 6.99962L77.8903 7.00912L78.4645 3.95837H83.9892L84.7243 0.000478745H73.5016L71.1031 12.812H66.988L69.4039 0.000514984H63.5369L61.1384 12.812H57.1259L59.5441 0.000514984H53.6831L51.1498 13.5054H42.1818L42.7468 10.4415H48.1359L48.7706 7.01998L43.3898 7.01508L43.9612 3.95847H49.5473L50.2787 0.000577927H15.3153L13.3251 10.7028L9.36029 0.000127792H3.27514L0 17.4651H5.81112L7.79307 6.46881L11.641 17.4651H32.4696L35.0014 3.95802H38.2605L35.7273 17.4651H90.5336L92.121 8.9381L94.694 17.4651H100.508L97.8445 10.498L98.4526 10.3685C99.7926 10.0861 100.842 9.47761 101.569 8.56595C102.298 7.64572 102.669 6.4643 102.669 5.04516C102.669 3.39235 102.056 2.17698 100.791 1.32757Z" fill="black"/>
</svg>
