<svg width="59" height="20" viewBox="0 0 59 20" fill="none" xmlns="http://www.w3.org/2000/svg">
<path d="M42.0581 4.80434C43.3861 4.80434 44.4613 3.72909 44.4613 2.40322C44.4613 1.07735 43.3854 0 42.0581 0C40.7308 0 39.657 1.07665 39.657 2.40322C39.6569 2.7186 39.7189 3.03091 39.8396 3.3223C39.9602 3.6137 40.137 3.87848 40.36 4.10152C40.583 4.32456 40.8477 4.50149 41.1391 4.6222C41.4304 4.74291 41.7427 4.80434 42.0581 4.80434ZM23.6514 6.09941C23.5429 6.37942 22.7623 8.57753 20.8743 10.8617V1.09205L15.8446 2.0861V19.797H20.875V14.3227C22.3325 16.5068 23.0522 19.797 23.0522 19.797H29.0774C28.4823 17.3189 25.8747 12.7511 25.8747 12.7511C27.424 10.7529 28.6181 8.50307 29.405 6.10011L23.6514 6.09941ZM36.875 5.9146C32.3703 6.0595 30.0826 8.08051 30.0826 12.0987V19.7963H34.9983V13.5198C34.9983 11.1145 35.3133 10.0896 38.168 9.9846V5.9874C37.6878 5.88519 36.875 5.9174 36.875 5.9174M7.40917 8.0525C6.79314 8.0126 5.36647 7.9195 5.36647 6.63563C5.36647 5.08645 7.41967 5.08645 8.19041 5.08645C9.54498 5.08645 11.2986 5.48547 12.5516 5.86139C12.9784 6.03892 13.4097 6.20512 13.8453 6.35982L13.9013 6.37522V2.13021L13.8257 2.10781C12.3472 1.58978 10.6286 1.09275 7.44137 1.09275C1.9461 1.09275 0 4.29331 0 7.03605C0 8.61673 0.677633 12.3374 6.97025 12.7665C7.50367 12.7994 8.91915 12.8806 8.91915 14.2086C8.91915 15.3042 7.75989 15.9503 5.81099 15.9503C3.67588 15.9503 1.60168 15.4057 0.343717 14.889V19.2594C2.22821 19.7529 4.35212 20 6.84214 20C12.2149 20 14.6209 16.9717 14.6209 13.9699C14.6209 10.5663 11.9286 8.35562 7.41057 8.0525M39.6234 19.7991H44.4984V6.11621H39.622L39.6234 19.7991ZM53.6787 1.9657V19.7991H58.5551V1.09416L53.6787 1.9657ZM46.5642 1.9657L51.4351 1.09416V19.7991H46.5642V1.9643V1.9657Z" fill="black"/>
</svg>
