<svg width="126" height="120" viewBox="0 0 126 120" fill="none" xmlns="http://www.w3.org/2000/svg">
<path d="M57.6391 83.9685C57.6391 83.9685 57.6238 83.9685 57.6147 83.9685C57.6055 83.9685 57.5993 83.9685 57.5902 83.9685C55.5325 83.8951 53.5086 83.675 51.5182 83.3815C49.5278 83.088 47.568 82.7211 45.6418 82.3634C43.4986 81.9629 41.3217 81.5562 39.1021 81.2505C36.8824 80.9447 34.6199 80.7369 32.3085 80.7369C27.9609 80.7369 21.7299 81.5318 16.569 82.3298C11.4081 83.1277 7.31423 83.9288 7.23168 83.9471C6.88314 84.0175 6.53765 83.941 6.25943 83.7575C5.9812 83.5741 5.77025 83.2867 5.69688 82.9351C5.59598 82.4735 4.37912 76.7653 3.18368 69.6813C1.98823 62.5973 0.820312 54.1374 0.820312 48.1724C0.820312 32.8671 3.68816 20.824 9.06002 12.6087C14.4319 4.39348 22.3016 0.00305176 32.3085 0.00305176C42.3154 0.00305176 50.1851 4.39348 55.557 12.6087C60.9289 20.824 63.7967 32.8671 63.7967 48.1724C63.7967 53.5229 63.4084 58.962 62.6043 64.6977C61.8002 70.4334 60.5773 76.4596 58.911 82.9871C58.8376 83.2776 58.6694 83.5252 58.4432 83.6995C58.2169 83.8737 57.9387 83.9746 57.6391 83.9746V83.9685ZM32.3085 78.1105C34.7391 78.1105 37.0933 78.3215 39.3895 78.6395C41.6856 78.9544 43.9236 79.3732 46.1249 79.7829C47.9135 80.1162 49.6562 80.4433 51.3928 80.7093C53.1294 80.9753 54.863 81.1894 56.6302 81.2964C58.1803 75.1051 59.3146 69.3694 60.0636 63.912C60.8127 58.4514 61.1735 53.2661 61.1735 48.1694C61.1735 39.6637 60.2348 28.2779 56.1593 19.0201C52.0838 9.75923 44.8653 2.62631 32.3085 2.62631C19.7518 2.62631 12.5363 9.75923 8.4577 19.0201C4.38218 28.281 3.44357 39.6667 3.44357 48.1694C3.44357 53.1988 4.33021 60.2125 5.34527 66.5841C6.35727 72.9558 7.49768 78.6792 7.99909 81.1282C10.0292 80.746 14.2056 79.9939 18.8254 79.3335C23.4451 78.6762 28.5082 78.1105 32.3085 78.1105Z" fill="#593E7C"/>
<path d="M44.8215 35.258C43.8371 32.0355 42.235 29.1004 40.1193 26.9694C38.0005 24.8384 35.365 23.5145 32.3076 23.5145C29.2502 23.5145 26.6147 24.8384 24.4959 26.9694C22.3772 29.1004 20.7781 32.0355 19.7936 35.258C19.011 37.8201 18.6196 40.6604 18.4759 43.5772C18.3322 46.494 18.4392 49.4872 18.6502 52.3519L24.765 55.1373L30.8798 57.9225L25.2878 60.4694L19.6958 63.0162C20.1055 66.896 20.561 70.3173 20.986 73.1301C21.411 75.9429 21.8085 78.1503 22.1112 79.5965C23.8355 79.5231 25.4865 79.465 27.1559 79.4283C28.8252 79.3916 30.5129 79.3702 32.3107 79.3702C34.1084 79.3702 35.7961 79.3886 37.4654 79.4283C39.1348 79.465 40.7858 79.5231 42.5102 79.5965C42.9076 77.6734 43.4794 73.8822 44.0603 69.5101C44.6412 65.135 45.2282 60.1789 45.6562 55.926C45.9895 52.6302 46.2585 49.0163 46.2035 45.4514C46.1515 41.8834 45.7755 38.3643 44.8246 35.258H44.8215Z" fill="#593E7C"/>
<path d="M119.016 83.9685C118.973 83.9685 118.93 83.9685 118.89 83.9624C118.848 83.9594 118.805 83.9533 118.762 83.9441C118.679 83.9288 114.586 83.1247 109.425 82.3267C104.264 81.5287 98.0359 80.7338 93.6883 80.7338C91.3799 80.7338 89.1175 80.9417 86.8978 81.2474C84.6781 81.5532 82.4982 81.9598 80.358 82.3603C78.4318 82.7211 76.472 83.0849 74.4786 83.3815C72.4852 83.675 70.4611 83.8982 68.4066 83.9685C68.1008 83.9777 67.8104 83.8799 67.575 83.7056C67.3426 83.5313 67.1653 83.2806 67.0889 82.981C65.4226 76.4565 64.1996 70.4273 63.3955 64.6947C62.5914 58.959 62.2031 53.5198 62.2031 48.1694C62.2031 32.864 65.071 20.8209 70.4428 12.6057C75.8147 4.39043 83.6844 0 93.6913 0C103.698 0 111.568 4.39043 116.94 12.6057C122.312 20.8209 125.18 32.864 125.18 48.1694C125.18 54.1374 124.012 62.5973 122.816 69.6782C121.621 76.7622 120.404 82.4704 120.303 82.9321C120.236 83.2409 120.068 83.4977 119.841 83.6811C119.615 83.8646 119.325 83.9685 119.022 83.9685H119.016ZM93.6852 2.62326C81.1284 2.62326 73.913 9.75618 69.8344 19.0171C65.7589 28.2779 64.8202 39.6637 64.8202 48.1663C64.8202 53.263 65.181 58.4484 65.9301 63.9089C66.6791 69.3694 67.8134 75.1021 69.3635 81.2933C71.1307 81.1863 72.8643 80.9753 74.6009 80.7063C76.3375 80.4372 78.0833 80.1132 79.8718 79.7799C82.0732 79.3702 84.3112 78.9513 86.6073 78.6364C88.9034 78.3215 91.2546 78.1105 93.6852 78.1105C97.4856 78.1105 102.549 78.6731 107.168 79.3335C111.788 79.9908 115.965 80.746 117.995 81.1282C118.496 78.6823 119.636 72.9558 120.648 66.5841C121.66 60.2125 122.55 53.1988 122.55 48.1694C122.55 39.6637 121.612 28.2779 117.536 19.0201C113.46 9.75924 106.242 2.62632 93.6852 2.62632V2.62326Z" fill="#593E7C"/>
<path d="M106.2 35.258C105.216 32.0355 103.614 29.1004 101.498 26.9694C99.3794 24.8384 96.7439 23.5145 93.6865 23.5145C90.6291 23.5145 87.9936 24.8384 85.8748 26.9694C83.756 29.1004 82.157 32.0355 81.1725 35.258C80.3898 37.8201 79.9985 40.6604 79.8548 43.5772C79.7111 46.494 79.8181 49.4872 80.0291 52.3519L86.1439 55.1373L92.2587 57.9225L86.6667 60.4694L81.0747 63.0162C81.4844 66.896 81.94 70.3173 82.3649 73.1301C82.7899 75.9429 83.1874 78.1503 83.4901 79.5965C85.2145 79.5231 86.8655 79.465 88.5348 79.4283C90.2041 79.3916 91.8918 79.3702 93.6896 79.3702C95.4873 79.3702 97.175 79.3886 98.8443 79.4283C100.514 79.465 102.165 79.5231 103.889 79.5965C104.287 77.6734 104.858 73.8822 105.439 69.5101C106.02 65.135 106.607 60.1789 107.035 55.926C107.368 52.6302 107.637 49.0163 107.582 45.4514C107.53 41.8834 107.154 38.3643 106.204 35.258H106.2Z" fill="#593E7C"/>
<path d="M62.9963 95.1923C59.3794 95.1923 56.0988 94.1161 53.7232 92.3795C51.3476 90.6429 49.877 88.2428 49.877 85.5982C49.877 82.9535 51.3476 80.5535 53.7232 78.8169C56.0988 77.0803 59.3794 76.004 62.9963 76.004C66.6132 76.004 69.8938 77.0803 72.2694 78.8169C74.645 80.5535 76.1187 82.9535 76.1187 85.5982C76.1187 88.2428 74.648 90.6429 72.2694 92.3795C69.8938 94.1161 66.6132 95.1923 62.9963 95.1923ZM62.9963 78.6242C60.1009 78.6242 57.4776 79.4069 55.5759 80.6696C53.6742 81.9323 52.4972 83.6751 52.4972 85.5982C52.4972 87.5213 53.6742 89.264 55.5759 90.5267C57.4776 91.7894 60.1009 92.5721 62.9963 92.5721C65.8916 92.5721 68.5149 91.7894 70.4166 90.5267C72.3183 89.264 73.4954 87.5213 73.4954 85.5982C73.4954 83.6751 72.3183 81.9323 70.4166 80.6696C68.5149 79.4069 65.8916 78.6242 62.9963 78.6242Z" fill="#593E7C"/>
<path d="M62.9962 119.997C49.8371 119.997 41.2672 115.698 35.9443 111.305C30.6213 106.914 28.5484 102.429 28.3833 102.065C28.2365 101.735 28.2366 101.374 28.3558 101.062C28.475 100.748 28.7166 100.482 29.0468 100.335C29.377 100.188 29.7377 100.188 30.0496 100.31C30.3614 100.43 30.6305 100.668 30.7773 100.998C30.9301 101.338 32.8502 105.431 37.8001 109.443C42.7501 113.454 50.7268 117.377 62.9931 117.377C75.2594 117.377 83.2423 113.448 88.1923 109.437C93.1391 105.425 95.0592 101.331 95.209 100.995C95.3588 100.665 95.6248 100.426 95.9366 100.307C96.2485 100.188 96.6093 100.188 96.9395 100.338C97.2697 100.485 97.5082 100.754 97.6274 101.066C97.7466 101.377 97.7467 101.735 97.5999 102.068C97.4379 102.435 95.3618 106.917 90.042 111.308C84.719 115.698 76.1491 120 62.9901 120L62.9962 119.997Z" fill="#593E7C"/>
<path d="M25.8232 102.845C25.545 102.845 25.2637 102.833 24.9855 102.811C24.7073 102.787 24.4291 102.753 24.1508 102.707C23.7931 102.646 23.4966 102.447 23.3009 102.172C23.1052 101.897 23.0165 101.551 23.0777 101.194C23.1388 100.836 23.3376 100.536 23.6097 100.344C23.8818 100.148 24.2303 100.059 24.5911 100.121C26.0281 100.365 27.5446 100.154 28.9051 99.5795C30.2657 99.0047 31.4794 98.0722 32.3111 96.8675C32.5159 96.571 32.8247 96.3845 33.1549 96.3234C33.4851 96.2622 33.8398 96.3295 34.1363 96.5343C34.4329 96.7391 34.6194 97.0479 34.6805 97.3781C34.7417 97.7083 34.6744 98.063 34.4696 98.3596C33.5004 99.7598 32.1826 100.882 30.6876 101.655C29.1925 102.429 27.514 102.848 25.8232 102.848V102.845Z" fill="#593E7C"/>
<path d="M100.168 102.845C98.4773 102.845 96.8019 102.423 95.3038 101.653C93.8056 100.882 92.491 99.76 91.5218 98.3566C91.3169 98.057 91.2496 97.7054 91.3108 97.3752C91.3719 97.045 91.5584 96.7362 91.855 96.5314C92.1546 96.3265 92.5062 96.2593 92.8364 96.3204C93.1666 96.3816 93.4724 96.5681 93.6803 96.8647C94.5119 98.0693 95.7196 99.0048 97.0801 99.5766C98.4406 100.151 99.9571 100.362 101.4 100.118C101.758 100.053 102.103 100.145 102.379 100.341C102.654 100.537 102.852 100.836 102.914 101.194C102.975 101.552 102.886 101.9 102.69 102.172C102.495 102.444 102.198 102.646 101.84 102.707C101.562 102.753 101.284 102.79 101.006 102.811C100.728 102.833 100.446 102.845 100.168 102.845Z" fill="#593E7C"/>
<path d="M119.144 20.9218H68.2262C68.0061 20.9218 67.7951 20.8668 67.6086 20.7689C67.4221 20.668 67.257 20.5244 67.1378 20.3409C67.0155 20.1605 66.9421 19.9526 66.9207 19.7417C66.8993 19.5307 66.9299 19.3136 67.0124 19.1118C69.6081 12.7708 73.1517 7.99206 77.6063 4.80013C82.061 1.6082 87.4328 0 93.6852 0C99.9376 0 105.306 1.6082 109.764 4.80013C114.219 7.99206 117.762 12.7708 120.358 19.1118C120.441 19.3136 120.471 19.5307 120.45 19.7417C120.428 19.9526 120.355 20.1575 120.236 20.3409C120.116 20.5244 119.951 20.668 119.765 20.7689C119.578 20.8698 119.367 20.9218 119.147 20.9218H119.144ZM70.2288 18.2986H117.139C114.717 13.0979 111.537 9.17833 107.621 6.56119C103.704 3.94406 99.0509 2.62632 93.6852 2.62632C88.3195 2.62632 83.6661 3.94406 79.7496 6.56119C75.833 9.17833 72.6503 13.0979 70.2319 18.2986H70.2288Z" fill="#593E7C"/>
<path d="M57.7672 20.9218H6.84922C6.62908 20.9218 6.41814 20.8668 6.23164 20.7689C6.04513 20.668 5.88002 20.5244 5.76078 20.3409C5.63849 20.1605 5.56512 19.9526 5.54372 19.7417C5.52232 19.5307 5.55289 19.3136 5.63544 19.1118C8.23117 12.7708 11.7747 7.99206 16.2293 4.80013C20.684 1.6082 26.0558 0 32.3082 0C38.5606 0 43.9294 1.6082 48.3871 4.80013C52.8448 7.99206 56.3853 12.7708 58.981 19.1118C59.0636 19.3136 59.0942 19.5307 59.0728 19.7417C59.0513 19.9526 58.9779 20.1575 58.8557 20.3409C58.7334 20.5213 58.5713 20.668 58.3848 20.7689C58.1983 20.8698 57.9874 20.9218 57.7672 20.9218ZM8.85183 18.2986H55.7616C53.3401 13.0979 50.1604 9.17833 46.2439 6.56119C42.3273 3.94406 37.674 2.62632 32.3082 2.62632C26.9425 2.62632 22.2891 3.94406 18.3726 6.56119C14.456 9.17833 11.2733 13.0979 8.85487 18.2986H8.85183Z" fill="#593E7C"/>
</svg>
