<svg width="125" height="120" viewBox="0 0 125 120" fill="none" xmlns="http://www.w3.org/2000/svg">
<path d="M31.8113 28.3579L38.6467 26.2392L45.482 24.1205C44.8351 17.2064 43.0416 11.1755 40.5258 6.87641C38.01 2.57395 34.7755 0 31.2432 0C27.2385 0 24.1272 2.64583 22.0187 7.45829C19.9103 12.2707 18.8047 19.2498 18.8047 27.9198C18.8047 36.5898 19.9103 43.7879 22.0187 48.816C24.1272 53.8475 27.2351 56.709 31.2432 56.709C34.707 56.709 37.8902 54.0495 40.382 49.6957C42.8738 45.3419 44.6845 39.3006 45.4033 32.5303L38.6056 30.4424L31.8079 28.3545L31.8113 28.3579Z" fill="black"/>
<path d="M93.0184 28.3579L99.8537 26.2392L106.689 24.1205C106.042 17.2064 104.249 11.1755 101.733 6.87641C99.2171 2.57395 95.9825 0 92.4502 0C88.4455 0 85.3342 2.64583 83.2257 7.45829C81.1173 12.2707 80.0117 19.2498 80.0117 27.9198C80.0117 36.5898 81.1173 43.7879 83.2257 48.816C85.3342 53.8475 88.4421 56.709 92.4502 56.709C95.9141 56.709 99.0973 54.0495 101.589 49.6957C104.084 45.3419 105.892 39.3006 106.61 32.5303L99.8126 30.4424L93.0149 28.3545L93.0184 28.3579Z" fill="black"/>
<path d="M62.7469 120C52.588 120 42.9494 116.813 34.8647 111.159C26.7801 105.505 20.2425 97.3822 16.2926 87.5142C16.142 87.1377 16.1591 86.7373 16.3063 86.3916C16.4535 86.0459 16.7342 85.7584 17.1107 85.6077C17.4872 85.4571 17.8877 85.4743 18.2334 85.6214C18.5791 85.7686 18.87 86.0493 19.0172 86.4258C22.7446 95.7324 28.8988 103.393 36.5111 108.725C44.1234 114.058 53.1904 117.067 62.7469 117.067C72.3034 117.067 81.3704 114.062 88.9827 108.725C96.595 103.393 102.749 95.7324 106.477 86.4258C106.627 86.0493 106.915 85.7686 107.26 85.6214C107.606 85.4743 108.007 85.4571 108.387 85.6077C108.763 85.7584 109.044 86.0459 109.191 86.3916C109.338 86.7373 109.355 87.1377 109.205 87.5142C105.255 97.3822 98.7172 105.505 90.6325 111.159C82.5478 116.813 72.9092 120 62.7503 120H62.7469Z" fill="black"/>
<path d="M12.8732 89.8554C11.8942 89.8554 10.9153 89.7253 9.96377 89.472C9.01223 89.2153 8.09149 88.832 7.2221 88.3254C6.87297 88.12 6.64023 87.7914 6.54439 87.4286C6.44855 87.0658 6.49305 86.6653 6.69842 86.3162C6.90379 85.9671 7.22896 85.7343 7.5952 85.6385C7.95801 85.5427 8.35848 85.5872 8.70761 85.7925C9.86109 86.4702 11.1446 86.8433 12.4453 86.9118C13.746 86.9802 15.0603 86.7406 16.2754 86.1862C17.5384 85.6111 18.6098 84.7417 19.421 83.6738C20.2322 82.6059 20.7798 81.336 20.9921 79.9635C21.0537 79.563 21.2761 79.2276 21.5808 79.0051C21.8854 78.7826 22.2722 78.6765 22.6692 78.7381C23.0697 78.7997 23.4085 79.0188 23.631 79.3234C23.8535 79.6281 23.9596 80.0148 23.898 80.4153C23.6071 82.2807 22.8643 84.0024 21.7656 85.4537C20.6669 86.9049 19.2088 88.0858 17.4939 88.8662C16.7615 89.2016 15.9982 89.4515 15.2246 89.6158C14.4511 89.7835 13.6638 89.8657 12.8766 89.8657L12.8732 89.8554Z" fill="black"/>
<path d="M112.625 89.8554C111.837 89.8554 111.05 89.7733 110.277 89.6056C109.503 89.4379 108.743 89.188 108.007 88.856C106.293 88.0756 104.838 86.8947 103.736 85.4435C102.637 83.9922 101.894 82.2705 101.603 80.4051C101.542 80.0046 101.648 79.6178 101.87 79.3132C102.093 79.0086 102.428 78.7895 102.832 78.7279C103.229 78.6697 103.616 78.7758 103.92 78.9949C104.225 79.2174 104.444 79.5528 104.509 79.9533C104.721 81.3258 105.269 82.5957 106.08 83.6636C106.892 84.7315 107.963 85.6009 109.226 86.1759C110.441 86.727 111.755 86.9666 113.056 86.9016C114.357 86.8365 115.64 86.46 116.794 85.7823C117.143 85.5769 117.543 85.5324 117.906 85.6283C118.269 85.7241 118.597 85.9569 118.803 86.306C119.008 86.6551 119.053 87.0556 118.957 87.4184C118.861 87.7812 118.628 88.1098 118.279 88.3152C117.41 88.8252 116.489 89.2085 115.538 89.4618C114.586 89.7185 113.607 89.8452 112.628 89.8452L112.625 89.8554Z" fill="black"/>
<path d="M2.75171 76.568C2.12876 76.568 1.56401 76.3147 1.15669 75.9074C0.749379 75.5 0.496094 74.9353 0.496094 74.3123C0.496094 73.6894 0.749379 73.1246 1.15669 72.7173C1.56401 72.31 2.12876 72.0567 2.75171 72.0567C3.37466 72.0567 3.93943 72.31 4.34675 72.7173C4.75406 73.1246 5.00735 73.6894 5.00735 74.3123C5.00735 74.9353 4.75406 75.5 4.34675 75.9074C3.93943 76.3147 3.37466 76.568 2.75171 76.568ZM2.75171 73.6312C2.56346 73.6312 2.39575 73.7065 2.27253 73.8297C2.14931 73.9529 2.074 74.1241 2.074 74.3089C2.074 74.4937 2.14931 74.6649 2.27253 74.7881C2.39575 74.9113 2.56688 74.9866 2.75171 74.9866C2.93654 74.9866 3.10769 74.9113 3.23091 74.7881C3.35413 74.6649 3.42944 74.4937 3.42944 74.3089C3.42944 74.1241 3.35413 73.9529 3.23091 73.8297C3.10769 73.7065 2.93654 73.6312 2.75171 73.6312Z" fill="black"/>
<path d="M14.8064 69.5753C14.1835 69.5753 13.6187 69.322 13.2114 68.9147C12.8041 68.5074 12.5508 67.9426 12.5508 67.3197C12.5508 66.6967 12.8041 66.1319 13.2114 65.7246C13.6187 65.3173 14.1835 65.064 14.8064 65.064C15.4294 65.064 15.9941 65.3173 16.4014 65.7246C16.8087 66.1319 17.062 66.6967 17.062 67.3197C17.062 67.9426 16.8087 68.5074 16.4014 68.9147C15.9941 69.322 15.4294 69.5753 14.8064 69.5753ZM14.8064 66.6385C14.6182 66.6385 14.4504 66.7138 14.3272 66.837C14.204 66.9603 14.1287 67.1314 14.1287 67.3162C14.1287 67.5011 14.204 67.6722 14.3272 67.7954C14.4504 67.9186 14.6216 67.9939 14.8064 67.9939C14.9912 67.9939 15.1624 67.9186 15.2856 67.7954C15.4088 67.6722 15.4841 67.5011 15.4841 67.3162C15.4841 67.1314 15.4088 66.9603 15.2856 66.837C15.1624 66.7138 14.9912 66.6385 14.8064 66.6385Z" fill="black"/>
<path d="M3.53884 63.7362C2.91589 63.7362 2.35112 63.4829 1.9438 63.0756C1.53649 62.6683 1.2832 62.1035 1.2832 61.4805C1.2832 60.8576 1.53649 60.2928 1.9438 59.8855C2.35112 59.4782 2.91589 59.2249 3.53884 59.2249C4.16179 59.2249 4.72654 59.4782 5.13386 59.8855C5.54117 60.2928 5.79446 60.8576 5.79446 61.4805C5.79446 62.1035 5.54117 62.6683 5.13386 63.0756C4.72654 63.4829 4.16179 63.7362 3.53884 63.7362ZM3.53884 60.7994C3.35059 60.7994 3.18286 60.8747 3.05964 60.9979C2.93642 61.1211 2.86111 61.2923 2.86111 61.4771C2.86111 61.662 2.93642 61.8331 3.05964 61.9563C3.18286 62.0795 3.35401 62.1548 3.53884 62.1548C3.72367 62.1548 3.8948 62.0795 4.01802 61.9563C4.14124 61.8331 4.21655 61.662 4.21655 61.4771C4.21655 61.2923 4.14124 61.1211 4.01802 60.9979C3.8948 60.8747 3.72367 60.7994 3.53884 60.7994Z" fill="black"/>
<path d="M122.746 76.568C122.123 76.568 121.558 76.3147 121.151 75.9074C120.743 75.5 120.49 74.9353 120.49 74.3123C120.49 73.6894 120.743 73.1246 121.151 72.7173C121.558 72.31 122.123 72.0567 122.746 72.0567C123.369 72.0567 123.934 72.31 124.341 72.7173C124.748 73.1246 125.001 73.6894 125.001 74.3123C125.001 74.9353 124.748 75.5 124.341 75.9074C123.934 76.3147 123.369 76.568 122.746 76.568ZM122.746 73.6312C122.558 73.6312 122.39 73.7065 122.267 73.8297C122.143 73.9529 122.068 74.1241 122.068 74.3089C122.068 74.4937 122.143 74.6649 122.267 74.7881C122.39 74.9113 122.558 74.9866 122.746 74.9866C122.934 74.9866 123.102 74.9113 123.225 74.7881C123.348 74.6649 123.424 74.4937 123.424 74.3089C123.424 74.1241 123.348 73.9529 123.225 73.8297C123.102 73.7065 122.931 73.6312 122.746 73.6312Z" fill="black"/>
<path d="M110.689 69.5753C110.066 69.5753 109.501 69.322 109.094 68.9147C108.687 68.5074 108.434 67.9426 108.434 67.3197C108.434 66.6967 108.687 66.1319 109.094 65.7246C109.501 65.3173 110.066 65.064 110.689 65.064C111.312 65.064 111.877 65.3173 112.284 65.7246C112.692 66.1319 112.945 66.6967 112.945 67.3197C112.945 67.9426 112.692 68.5074 112.284 68.9147C111.877 69.322 111.312 69.5753 110.689 69.5753ZM110.689 66.6385C110.501 66.6385 110.333 66.7138 110.21 66.837C110.087 66.9603 110.012 67.1314 110.012 67.3162C110.012 67.5011 110.087 67.6722 110.21 67.7954C110.333 67.9186 110.501 67.9939 110.689 67.9939C110.877 67.9939 111.045 67.9186 111.168 67.7954C111.292 67.6722 111.367 67.5011 111.367 67.3162C111.367 67.1314 111.292 66.9603 111.168 66.837C111.045 66.7138 110.874 66.6385 110.689 66.6385Z" fill="black"/>
<path d="M121.955 63.7362C121.332 63.7362 120.767 63.4829 120.36 63.0756C119.953 62.6683 119.699 62.1035 119.699 61.4805C119.699 60.8576 119.953 60.2928 120.36 59.8855C120.767 59.4782 121.332 59.2249 121.955 59.2249C122.578 59.2249 123.143 59.4782 123.55 59.8855C123.957 60.2928 124.21 60.8576 124.21 61.4805C124.21 62.1035 123.957 62.6683 123.55 63.0756C123.143 63.4829 122.578 63.7362 121.955 63.7362ZM121.955 60.7994C121.767 60.7994 121.599 60.8747 121.476 60.9979C121.352 61.1211 121.277 61.2923 121.277 61.4771C121.277 61.662 121.352 61.8331 121.476 61.9563C121.599 62.0795 121.77 62.1548 121.955 62.1548C122.14 62.1548 122.311 62.0795 122.434 61.9563C122.557 61.8331 122.633 61.662 122.633 61.4771C122.633 61.2923 122.557 61.1211 122.434 60.9979C122.311 60.8747 122.14 60.7994 121.955 60.7994Z" fill="black"/>
</svg>
