<svg width="229" height="234" viewBox="0 0 229 234" fill="none" xmlns="http://www.w3.org/2000/svg">
<path d="M160.697 226.508C160.646 230.547 158.584 232.753 155.226 233.051C153.456 233.207 151.791 232.843 150.192 232.113C147.894 231.063 145.894 229.579 144.13 227.792C140.102 223.714 137.187 218.879 134.7 213.762C134.432 213.209 134.377 212.658 134.831 212.161C135.256 211.697 135.772 211.546 136.391 211.704C140.072 212.649 143.634 212.165 147.075 210.7C148.316 210.172 149.233 210.335 150.148 211.33C152.674 214.085 155.614 216.45 157.818 219.512C158.72 220.764 159.605 222.028 160.034 223.521C160.376 224.709 160.575 225.936 160.699 226.508H160.697Z" fill="black"/>
<path d="M75.8309 207.084C76.6474 207.516 77.3332 207.853 77.9961 208.229C79.9457 209.337 82.0123 210.007 84.2761 210.02C84.7463 210.023 85.2257 210.103 85.6867 210.211C86.2372 210.339 86.556 211.149 86.2211 211.605C83.6775 215.071 81.4503 218.784 78.3722 221.833C75.1932 224.98 71.5623 227.388 67.1723 228.535C65.6538 228.932 64.1538 228.955 62.6285 228.636C59.7752 228.037 57.7063 225.03 59.0228 222.041C59.7499 220.39 60.6032 218.745 61.6743 217.305C64.0345 214.128 66.819 211.399 70.5462 209.773C72.294 209.009 73.9546 208.048 75.8331 207.084H75.8309Z" fill="black"/>
<path d="M167.963 50.4546C165.011 54.2965 161.509 57.5467 157.396 60.1339C154.382 62.0308 151.274 63.7373 147.992 65.1318C146.77 65.6502 145.48 66.0722 144.343 67.0952C144.522 67.6296 144.627 68.187 144.88 68.6687C147.276 73.2124 148.614 78.1048 149.832 83.0591C150.935 87.5295 152.251 91.9517 153.568 96.367C154.889 100.798 155.703 105.328 156.421 109.881C157.499 116.71 158.621 123.533 159.626 130.373C160.068 133.407 160.38 136.476 160.545 139.541C160.795 144.142 160.908 148.754 161.002 153.365C161.158 160.961 160.715 168.54 160.13 176.109C159.784 180.607 159.323 185.1 158.775 189.579C158.343 193.107 157.625 196.593 156.506 199.979C156.114 201.16 155.683 202.339 155.174 203.474C153.125 208.057 149.377 210.782 144.898 212.624C143.57 213.17 142.12 213.358 140.655 213.321C137.765 213.252 134.911 212.897 132.092 212.257C129.576 211.688 127.445 210.456 125.787 208.468C124.186 206.553 122.62 204.605 121.044 202.669C120.012 201.403 119.016 200.11 117.956 198.869C116.885 197.614 115.576 196.653 114.112 195.878C109.681 193.52 105.048 193.94 101.24 197.174C98.3823 199.6 95.6826 202.199 93.4463 205.241C92.7651 206.167 92.038 207.073 91.2375 207.897C90.5746 208.58 89.8361 209.229 89.0264 209.722C85.8657 211.654 82.7326 211.947 79.2164 210.238C73.7758 207.594 70.4775 203.438 69.2733 197.623C68.732 195.002 68.5554 192.304 68.2343 189.637C68.0623 188.212 68.2527 186.641 67.6976 185.393C67.1127 184.072 65.3557 183.857 64.1057 183.187C60.5941 181.304 57.5871 178.772 54.7636 176.012C51.5547 172.877 48.6555 169.505 46.0178 165.941C43.1851 162.122 40.6506 158.078 38.3409 153.872C38.2491 153.704 38.1643 153.53 38.0863 153.353C37.5519 152.174 37.0221 150.993 36.4945 149.809C33.0792 142.135 29.8704 134.38 27.5767 126.276C27.4964 125.994 27.4184 125.71 27.3404 125.428C25.7945 119.788 25.0376 114.015 24.439 108.209C24.4252 108.083 24.4115 107.957 24.4 107.831C23.9183 103.104 23.744 98.3694 23.65 93.6329C23.5651 89.6328 23.5399 85.6281 23.4275 81.6302C23.338 78.3686 23.1568 75.1047 22.9045 71.8523C22.643 68.4852 21.7278 65.2419 20.7576 62.0216C20.3149 60.5514 19.909 59.0697 19.542 57.5788C19.4319 57.1315 19.4479 56.6292 19.5076 56.1659C19.597 55.4938 20.3998 55.0145 21.0374 55.2507C21.5719 55.4502 22.0971 55.7003 22.5811 56.003C27.9758 59.3656 33.0586 63.1294 37.6413 67.5608C39.8914 69.7375 41.919 72.0793 43.7425 74.5749C45.0269 76.3272 46.2082 78.1553 47.3022 80.0544C48.9514 82.9123 50.4882 85.8253 51.924 88.7864C53.6764 92.3898 55.275 96.0597 56.7545 99.7846C57.7637 102.326 58.6834 104.895 59.5137 107.498C61.0138 112.209 62.2019 117.019 63.0254 121.916C63.4107 124.21 63.7662 126.504 64.0919 128.804C65.0461 135.536 65.7732 142.298 66.4154 149.071C66.6746 151.803 66.9108 154.534 67.1448 157.271C67.3145 159.227 67.4819 161.179 67.6563 163.133C67.7044 163.682 67.8031 164.227 67.881 164.801C68.7045 164.503 68.6196 163.863 68.6724 163.319C68.8926 161.023 69.0853 158.727 69.2963 156.431C70.3284 145.142 71.7 133.887 73.5442 122.705C75.2965 112.097 77.3355 101.532 80.3265 91.1856C81.4986 87.1281 82.6867 83.0706 83.9482 79.0406C85.4368 74.2813 86.8038 69.4714 89.5379 65.0814C89.109 64.6914 88.7993 64.3451 88.4277 64.0836C84.4987 61.3037 80.8517 58.1843 77.347 54.8929C74.7988 52.5052 72.7001 49.7826 70.9959 46.7435C70.3422 45.5737 69.755 44.3787 68.7481 43.4245C68.0829 42.7938 68.1632 42.1309 68.7412 41.3556C68.9132 41.124 69.099 40.9015 69.3009 40.6974C74.9616 35.0251 79.2003 28.1946 83.0193 21.2058C83.4184 20.4764 83.2854 19.708 83.1684 18.9511C82.9046 17.2423 82.5032 15.5496 82.3518 13.8316C81.994 9.74888 81.205 5.73037 82.9803 1.8793C83.9849 -0.299683 85.7533 0.0214417 87.7396 0.571922C89.3544 1.01919 90.4393 2.26465 91.6641 3.31973C93.3339 4.75786 94.967 6.23959 96.6207 7.69378C96.834 7.87956 97.0772 8.03322 97.4166 8.27864C97.8088 8.17543 98.2768 8.09514 98.7103 7.92771C104.708 5.62257 110.949 4.62255 117.342 4.76705C123.03 4.90008 128.613 5.86342 134.01 7.74653C135.271 8.18691 136.547 8.586 137.799 9.00116C138.106 8.78555 138.416 8.67775 138.549 8.45985C140.088 5.93452 142.418 4.19591 144.68 2.42979C145.87 1.50085 147.286 0.789811 148.703 0.246211C150.442 -0.421246 151.942 0.305853 152.772 1.97335C153.334 3.10642 153.568 4.32896 153.625 5.59277C153.784 9.15025 153.761 12.7031 153.378 16.2446C153.306 16.9143 153.233 17.5818 153.146 18.2492C153.043 19.0497 153.24 19.7424 153.703 20.4168C156.747 24.8527 159.337 29.5754 161.887 34.3049C163.185 36.7155 164.472 39.1308 165.809 41.5185C166.825 43.3351 168.855 45.6494 169.234 47.716C169.429 48.7734 168.555 49.6656 167.961 50.4386L167.963 50.4546Z" fill="#898482"/>
<path d="M142.059 11.4806C143.061 10.0287 144.311 9.02408 145.781 8.2924C146.738 7.81532 147.738 8.12955 148.258 9.03325C148.699 9.79704 148.859 10.5952 148.676 11.5058C147.919 15.2789 147.024 15.678 143.795 13.5977C143.068 13.1275 142.375 12.6274 142.059 11.4829V11.4806Z" fill="#DCDBD9"/>
<path d="M86.4202 10.4003C86.333 9.38654 86.5142 8.44385 87.356 8.03329C88.2299 7.60666 89.0419 7.89795 89.7759 8.42549C90.73 9.1113 91.4089 10.0357 91.8906 11.0976C92.2347 11.8591 92.0557 12.6344 91.3103 13.1092C90.5924 13.5679 89.8102 13.9487 89.012 14.2491C88.2253 14.545 87.4156 14.1757 87.1496 13.3638C86.9271 12.6848 86.5165 11.499 86.4202 10.398V10.4003Z" fill="#DCDBD9"/>
<path d="M117.718 153.092C119.865 152.957 122.81 150.674 123.973 149.683C126.31 147.693 128.693 145.752 131.074 143.809C132.574 142.585 134.251 141.653 136.088 141.034C136.538 140.883 137.01 140.761 137.48 140.715C138.611 140.605 139.336 141.472 138.992 142.53C136.169 151.218 133.767 160.046 130.556 168.604C127.324 177.217 123.028 185.371 118.482 193.353C117.626 194.853 116.546 195.626 114.78 195.506C112.195 195.332 109.601 195.275 107.011 195.132C106.248 195.091 105.484 194.951 104.731 194.807C103.626 194.596 102.798 193.986 102.339 192.935C101.532 191.089 100.644 189.272 99.9469 187.385C97.7817 181.536 95.6852 175.662 93.5774 169.792C93.1553 168.618 92.7906 167.425 92.4351 166.23C91.3709 162.638 90.208 159.085 88.7079 155.647C86.9303 151.573 86.0816 147.229 85.0793 142.933C85.0587 142.839 85.0403 142.745 85.0334 142.649C84.9899 141.913 84.5954 140.467 85.5702 140.107C86.4854 139.77 87.7125 141.263 88.318 141.796C91.5314 144.624 94.3411 148.261 98.1647 150.44C101.669 152.438 109.479 152.493 106.149 146.445C104.901 144.176 103.642 141.908 102.25 139.729C99.6349 135.635 96.4926 131.742 94.3595 127.373C92.2402 123.031 90.5795 118.467 89.396 113.783C85.9463 100.154 87.7996 87.2658 89.857 73.6254C90.1919 71.4005 90.5428 69.1435 91.3318 67.0265C92.3892 64.1892 93.0888 65.265 95.433 66.3545C99.573 68.2788 103.981 69.2238 108.475 69.7491C115.872 70.6138 123.232 70.3179 130.533 68.7582C132.808 68.272 135.912 67.0448 138.224 67.1962C141.088 67.382 141.733 71.8959 142.742 73.9281C150.091 88.704 147.536 109.774 136.441 122.141C133.987 124.875 131.239 127.329 128.615 129.903C125.553 132.905 122.737 136.098 119.959 139.36C117.778 141.922 116.53 145.066 115.64 148.25C115.358 149.257 115.172 150.33 115.441 151.342C115.803 152.711 116.663 153.161 117.714 153.094L117.718 153.092Z" fill="#A7A39E"/>
<path d="M59.5158 107.503C56.979 112.503 53.9239 117.141 49.3549 120.528C43.8982 124.574 37.6205 126.558 30.8587 126.492C29.4298 126.478 28.377 126.43 27.5811 126.281C27.5008 125.999 27.4228 125.714 27.3448 125.432C25.7989 119.792 25.042 114.019 24.4434 108.214C24.581 108.163 24.7209 108.117 24.8608 108.076C29.6936 106.647 33.9208 104.048 38.0265 101.234C39.7811 100.032 41.4601 98.7156 43.1368 97.4037C46.0956 95.0848 48.8732 92.5732 51.199 89.5914C51.4192 89.3093 51.6692 89.0432 51.9261 88.7932C53.6785 92.3966 55.2771 96.0664 56.7565 99.7913C57.7658 102.333 58.6855 104.902 59.5158 107.503Z" fill="#DCDBD9"/>
<path d="M67.1483 157.278C66.6873 157.869 66.146 158.424 65.5473 158.959C60.0701 163.849 53.6432 166.145 46.3172 165.959C46.2186 165.959 46.12 165.943 46.0214 165.943C43.1887 162.124 40.6541 158.08 38.3444 153.874C38.2527 153.706 38.1678 153.532 38.0898 153.355C37.5554 152.176 37.0256 150.995 36.498 149.812C44.1864 148.117 50.6156 144.064 56.4553 138.949C58.9898 136.729 61.1022 134.137 62.6229 131.098C62.8959 130.556 63.2078 130.031 63.5289 129.515C63.6918 129.253 63.8707 128.987 64.0977 128.808C65.0519 135.54 65.779 142.302 66.4212 149.075C66.6804 151.807 66.9167 154.539 67.1506 157.275L67.1483 157.278Z" fill="#DCDBD9"/>
<path d="M43.7444 74.5796C43.265 75.4489 42.7536 76.3159 42.1411 77.0958C40.5815 79.089 38.93 81.0111 37.3657 83.0043C34.4459 86.7223 30.76 89.5504 26.847 92.1078C25.9226 92.711 24.8813 93.156 23.8514 93.5689C23.7826 93.5941 23.7161 93.6194 23.6519 93.64C23.567 89.6398 23.5418 85.6351 23.4294 81.6372C23.34 78.3756 23.1588 75.1117 22.9065 71.8593C22.645 68.4922 21.7298 65.2489 20.7596 62.0286C20.3169 60.5584 19.9109 59.0767 19.5439 57.5858C19.4338 57.1385 19.4499 56.6362 19.5095 56.1729C19.599 55.5009 20.4018 55.0215 21.0394 55.2577C21.5738 55.4573 22.0991 55.7073 22.583 56.01C27.9777 59.3726 33.0605 63.1365 37.6433 67.5678C39.8934 69.7445 41.921 72.0864 43.7444 74.5819V74.5796Z" fill="black"/>
<path d="M169.823 49.5946C169.018 50.6979 168.264 51.8722 167.3 52.8104C166.935 53.1659 166.573 53.5214 166.206 53.8746C165.653 54.4136 165.098 54.9504 164.541 55.4825C162.869 57.0835 161.169 58.6523 159.405 60.1386C154.889 63.9461 149.572 66.21 144.04 67.9853C140.914 68.9876 137.737 69.6574 134.524 70.1023C134.42 70.1161 134.317 70.1298 134.212 70.1436C131.927 70.4487 129.629 70.639 127.315 70.7606C116.427 71.3363 106.252 71.9786 95.8387 68.0747C95.8134 68.0656 95.7859 68.0541 95.7607 68.0449C95.2285 67.8477 94.6987 67.6389 94.1689 67.4233C91.2949 66.2512 88.7306 64.4874 86.2741 62.5997C83.2074 60.2396 80.2188 57.7601 77.2485 55.2715C74.7048 53.1429 72.4983 50.6956 70.8629 47.7414C70.7574 47.5464 70.6473 47.356 70.5349 47.1679C70.3675 46.8789 70.1931 46.5945 70.0188 46.3124C69.4362 45.3674 68.8376 44.4362 68.3032 43.4682C67.7022 42.3696 67.7664 41.9384 68.638 41.1287C72.8079 37.2386 75.7691 32.3852 78.8013 27.6098C80.8839 24.3345 81.5055 23.7931 85.3956 24.2175C92.6573 25.0088 99.4925 27.174 105.449 31.688C108.665 34.1284 111.27 37.1033 112.722 41.0094C112.858 41.3764 113.066 41.7182 113.183 42.0897C113.491 43.0485 114.069 43.5049 115.094 43.5095C116.718 43.5187 118.344 43.6403 120.158 43.7228C120.408 43.1219 120.601 42.7779 120.695 42.4086C121.289 40.0874 122.496 38.0988 123.7 36.0735C125.794 32.5481 128.787 30.1994 132.448 28.7314C134.134 28.0548 135.923 27.4951 137.707 27.2749C142.879 26.6396 148.056 26.8001 153.212 27.5937C157.128 28.1993 160.401 30.0159 162.607 33.4243C165.24 37.4955 167.197 42.4544 170.232 46.2619C171.016 47.2482 170.704 48.3882 169.821 49.5946H169.823Z" fill="#DCDBD9"/>
<path d="M166.208 53.8719C165.655 54.411 165.1 54.9477 164.543 55.4798C162.871 57.0808 161.171 58.6496 159.407 60.1359C154.891 63.9434 149.574 66.2073 144.042 67.9826C140.916 68.9849 137.739 69.6547 134.526 70.0996C133.826 69.7395 133.445 68.9413 132.982 67.4573C130.991 61.0993 129.454 54.6426 129.161 48.2708C128.901 45.2776 129.099 42.6307 130.069 40.0709C130.603 38.6603 131.358 37.3827 132.441 36.2864C134.922 33.7656 137.92 32.9284 141.418 33.6854C143.136 34.0569 144.744 34.7038 146.258 35.557C152.152 38.8805 157.536 42.8164 161.781 48.0391C163.32 49.936 164.786 51.8925 166.208 53.8719Z" fill="#65605E"/>
<path d="M105.879 42.6425C105.879 44.2366 105.766 45.8812 105.367 47.4134C104.218 51.7988 102.658 56.0398 100.42 60.0079C99.5297 61.5814 98.7475 63.2145 97.8805 64.8017C97.4011 65.6824 96.9149 66.5701 96.3254 67.3752C96.1075 67.671 95.8919 67.9211 95.6786 68.1275C95.1121 67.9188 94.5455 67.6986 93.9813 67.4715C91.0545 66.2903 88.4489 64.515 85.9488 62.6135C82.8271 60.2373 79.7903 57.7417 76.765 55.2348C74.1777 53.0902 71.9345 50.6268 70.2693 47.6496C70.1615 47.4546 70.0491 47.262 69.9367 47.0716C69.9069 46.4752 70.0904 45.9202 70.5124 45.4133C71.5354 44.1816 72.641 43.0187 73.7557 41.8741C74.5241 41.0851 75.3796 40.3856 76.1801 39.6264C80.3798 35.6354 85.3915 33.3188 91.0362 32.3141C91.722 32.1926 92.4308 32.2109 92.9124 32.1765C96.3461 32.0825 99.2659 32.9931 101.832 34.922C104.378 36.8327 105.883 39.3878 105.876 42.6379L105.879 42.6425Z" fill="#65605E"/>
<path d="M118.029 50.3741C117.698 52.0738 117.909 53.5096 117.834 54.9317C117.808 55.395 117.749 55.8789 117.581 56.3056C117.506 56.4982 117.123 56.6978 116.902 56.6748C116.664 56.6496 116.306 56.4019 116.258 56.1932C116.132 55.6427 116.118 55.0578 116.111 54.4867C116.093 53.1541 116.107 51.8214 116.107 50.3971C115.196 50.0805 114.384 49.8466 113.611 49.5209C111.976 48.8351 110.944 47.1309 111.1 45.3877C111.2 44.2661 111.714 43.3234 112.758 42.8693C115.657 41.6055 118.529 41.6238 121.251 43.3647C121.793 43.711 122.26 44.2569 122.611 44.8051C123.451 46.1171 123.203 47.6263 122.079 48.7158C121.001 49.7617 119.657 50.2021 118.033 50.3718L118.029 50.3741Z" fill="black"/>
<path d="M116.729 60.4713C115.146 60.4208 113.976 59.9804 113.07 59.0675C112.339 58.329 111.71 57.4735 111.134 56.6042C111.011 56.4161 111.242 55.9046 111.439 55.6362C111.52 55.5261 112.034 55.5674 112.194 55.7119C112.687 56.1592 113.084 56.7096 113.552 57.1844C115.219 58.8703 116.623 59.1387 118.729 58.0354C119.564 57.5973 120.272 56.923 121.036 56.3496C121.412 56.0651 121.763 55.744 122.16 55.4917C122.291 55.4091 122.6 55.4183 122.697 55.5147C122.887 55.705 123.029 55.9734 123.101 56.2349C123.144 56.3931 123.061 56.6271 122.961 56.7762C121.399 59.0767 119.158 60.1846 116.729 60.4713Z" fill="black"/>
<path d="M96.5665 38.8483C96.5321 40.3024 95.1514 41.541 93.6995 41.4126C92.3233 41.2933 91.2705 40.0708 91.337 38.6716C91.4058 37.222 92.7659 35.9926 94.2064 36.0752C95.4885 36.1486 96.5987 37.4537 96.5665 38.8483Z" fill="black"/>
<path d="M142.771 39.9082C142.743 41.3349 141.422 42.6629 140.025 42.6675C138.576 42.6721 137.358 41.3509 137.429 39.8486C137.488 38.5733 138.732 37.4884 140.167 37.4586C141.589 37.4288 142.798 38.5641 142.771 39.9082Z" fill="black"/>
<path d="M116.696 27.0272C116.813 26.0479 116.854 25.19 117.047 24.3689C117.104 24.1304 117.576 23.9216 117.895 23.8459C118.019 23.8161 118.388 24.1877 118.391 24.3826C118.418 25.7038 118.4 27.0295 118.338 28.3507C118.326 28.5847 118.063 28.8232 117.886 29.0319C117.652 29.3049 117.005 29.1833 116.943 28.8484C116.829 28.2085 116.764 27.5594 116.693 27.0295L116.696 27.0272Z" fill="white"/>
<path d="M109.273 25.0942C109.379 24.8144 109.441 24.5369 109.581 24.3098C109.67 24.1653 109.888 23.9933 110.023 24.0116C110.271 24.046 110.67 24.1722 110.709 24.3327C111.012 25.6011 111.276 26.8833 111.482 28.1723C111.542 28.5393 111.306 28.982 110.858 28.927C110.546 28.888 110.138 28.6402 110.005 28.3696C109.762 27.8764 109.673 27.3007 109.556 26.7526C109.439 26.2044 109.367 25.647 109.276 25.0942H109.273Z" fill="white"/>
<path d="M123.194 30.0624C122.964 29.7115 122.604 29.4156 122.613 29.1312C122.657 27.7114 122.891 26.3146 123.657 25.0829C123.763 24.9131 124.173 24.8053 124.389 24.8673C124.586 24.9246 124.873 25.2733 124.841 25.443C124.593 26.8261 124.302 28.2023 123.964 29.567C123.921 29.7459 123.547 29.8468 123.194 30.0624Z" fill="white"/>
<path d="M101.708 10.0062C102.176 10.27 102.573 10.3594 102.616 10.5383C102.917 11.731 103.167 12.9398 103.366 14.1531C103.396 14.3389 103.123 14.6968 102.919 14.7633C102.71 14.8321 102.29 14.7243 102.18 14.5545C101.428 13.3985 101.205 12.0934 101.316 10.7379C101.336 10.4833 101.575 10.2447 101.708 10.0039V10.0062Z" fill="white"/>
<path d="M129.14 22.0319C128.906 21.8186 128.539 21.6351 128.539 21.4562C128.546 20.0158 129.039 18.7061 129.805 17.5019C129.879 17.3872 130.179 17.3069 130.305 17.362C130.539 17.4675 130.732 17.6785 130.922 17.8643C130.977 17.9194 131.007 18.0547 130.982 18.1327C130.615 19.291 130.259 20.4539 129.84 21.5938C129.768 21.7865 129.406 21.8714 129.14 22.0296V22.0319Z" fill="white"/>
<path d="M114.189 20.6831C114.038 20.8734 113.902 21.1188 113.7 21.2817C113.444 21.4881 112.813 21.2863 112.739 20.956C112.51 19.9376 112.283 18.9123 112.173 17.8779C112.148 17.6508 112.609 17.176 112.852 17.1714C113.127 17.1668 113.583 17.5178 113.657 17.793C113.905 18.7128 114.015 19.667 114.189 20.6808V20.6831Z" fill="white"/>
<path d="M110.015 12.1966C110.015 12.3801 110.084 12.6118 109.999 12.7402C109.859 12.9512 109.637 13.2081 109.419 13.2402C109.203 13.2746 108.8 13.1118 108.735 12.9375C108.478 12.2471 108.254 11.5314 108.141 10.8066C107.976 9.75386 108.377 8.86163 108.882 8.9786C109.68 9.16668 109.735 9.86166 109.806 10.5245C109.866 11.0819 109.946 11.637 110.015 12.1943V12.1966Z" fill="white"/>
<path d="M105.129 18.2842C105.205 18.0388 105.223 17.8346 105.324 17.6901C105.42 17.5548 105.595 17.4309 105.753 17.3988C105.918 17.3667 106.191 17.3942 106.267 17.502C107.049 18.6236 107.225 19.9127 107.184 21.2384C107.179 21.3669 106.936 21.5825 106.794 21.5917C106.546 21.6077 106.189 21.5756 106.058 21.4173C105.301 20.4907 105.234 19.3461 105.129 18.2819V18.2842Z" fill="white"/>
<path d="M117.784 11.2608C117.885 10.8846 118.057 10.1644 118.284 9.46026C118.325 9.33182 118.617 9.17126 118.743 9.20337C118.988 9.2676 119.387 9.4488 119.399 9.60477C119.456 10.4328 119.472 11.2746 119.392 12.1003C119.321 12.8205 118.72 13.2861 118.307 13.0888C117.782 12.8365 117.821 12.3595 117.786 11.903C117.779 11.809 117.786 11.7149 117.786 11.2585L117.784 11.2608Z" fill="white"/>
<path d="M128.216 11.6643C127.976 12.2515 127.65 13.1185 127.248 13.9465C127.182 14.0841 126.762 14.1048 126.517 14.0773C126.379 14.0612 126.17 13.8433 126.154 13.6988C126.026 12.5497 126.4 11.4946 126.9 10.4923C126.985 10.3225 127.395 10.1941 127.609 10.2469C127.822 10.2973 128.015 10.5748 128.143 10.795C128.228 10.9395 128.182 11.1597 128.216 11.6666V11.6643Z" fill="white"/>
<path d="M123.058 18.9905C122.95 19.4951 122.828 20.2474 122.608 20.9722C122.544 21.1832 122.117 21.4929 122.007 21.4401C121.711 21.3002 121.285 20.9837 121.289 20.7451C121.307 19.807 121.441 18.8666 121.613 17.9423C121.649 17.7427 122.106 17.4239 122.23 17.4789C122.528 17.6097 122.778 17.9056 122.982 18.1831C123.078 18.3116 123.025 18.5501 123.06 18.9928L123.058 18.9905Z" fill="white"/>
<path d="M134.592 15.4948C134.454 15.3457 134.138 15.1668 134.119 14.958C134.005 13.7608 134.452 12.7378 135.266 11.8777C135.36 11.7767 135.672 11.7377 135.773 11.8157C135.977 11.9694 136.241 12.2217 136.246 12.4373C136.271 13.5176 135.826 14.458 135.218 15.325C135.17 15.3938 135.053 15.4191 134.963 15.4466C134.879 15.4718 134.784 15.4718 134.594 15.4948H134.592Z" fill="white"/>
<path d="M120.691 34.1219C120.506 34.9729 120.265 36.1885 119.953 37.3858C119.907 37.5647 119.494 37.7734 119.281 37.7459C119.051 37.7161 118.783 37.4592 118.668 37.2321C118.547 36.9959 118.531 36.6679 118.57 36.3949C118.703 35.4477 118.861 34.5026 119.044 33.5622C119.187 32.8374 119.721 32.3856 120.166 32.5622C120.721 32.7847 120.733 33.2572 120.691 34.1173V34.1219Z" fill="white"/>
<path d="M116.45 36.4771C116.45 36.3441 116.528 36.6583 116.427 36.8991C116.333 37.1239 116.07 37.3785 115.847 37.4152C115.627 37.4519 115.237 37.2959 115.145 37.1124C114.895 36.6101 114.696 36.0619 114.602 35.5092C114.489 34.8578 114.476 34.1834 114.485 33.5206C114.489 33.094 114.817 32.8004 115.216 32.8072C115.446 32.8118 115.781 33.0526 115.87 33.2705C116.049 33.6995 116.102 34.1834 116.184 34.6467C116.267 35.1169 116.324 35.5895 116.455 36.4748L116.45 36.4771Z" fill="white"/>
<path d="M149.604 42.5824C151.06 42.5824 152.182 43.1559 152.785 44.5343C153.386 45.906 153.037 47.2913 151.838 48.3923C151.629 48.585 151.404 48.7616 151.17 48.9221C149.723 49.9153 148.257 50.0323 147.2 49.2455C145.968 48.3304 145.324 46.5849 145.709 45.2133C146.154 43.6352 147.328 42.7063 149.037 42.5847C149.225 42.571 149.415 42.5847 149.606 42.5847L149.604 42.5824Z" fill="#FAC1B3"/>
<path d="M86.2912 45.0069C86.266 46.9726 84.9356 48.507 83.2636 48.5024C81.3231 48.4956 79.3345 46.4565 79.4629 44.6055C79.5707 43.0687 81.2773 41.6948 83.1558 41.6352C84.876 41.5802 86.3164 43.1284 86.2912 45.0069Z" fill="#FAC1B3"/>
<g class="flowers">
    <path d="M199.652 107.852C199.553 107.983 199.459 108.071 199.407 108.179C198.911 109.204 198.436 110.239 197.925 111.255C197.64 111.822 197.324 112.376 196.978 112.907C196.65 113.412 196.26 113.876 195.905 114.363C195.318 115.166 194.561 115.768 193.663 116.178C191.271 117.272 188.91 117.163 186.623 115.88C185.423 115.205 184.669 114.137 184.363 112.81C183.905 110.823 184.068 108.905 185.039 107.053C185.73 105.734 186.503 104.496 187.609 103.489C188.079 103.062 188.578 102.666 189.078 102.274C189.657 101.819 190.254 101.385 190.837 100.934C190.931 100.862 190.999 100.753 191.126 100.608C190.954 100.57 190.867 100.528 190.783 100.536C190.015 100.597 189.249 100.679 188.481 100.729C186.29 100.868 184.132 100.657 182.012 100.08C181.234 99.8687 180.483 99.583 179.774 99.2002C178.66 98.5999 177.871 97.7198 177.57 96.4699C177.429 95.887 177.311 95.2896 177.269 94.6936C177.108 92.449 177.548 90.2885 178.297 88.189C178.876 86.5693 180.106 85.7443 181.78 85.5674C182.958 85.4441 184.122 85.637 185.278 85.8327C188.227 86.3344 191.065 87.2363 193.87 88.2513C194.026 88.3079 194.188 88.3427 194.349 88.3804C194.371 88.3862 194.404 88.347 194.475 88.3006C194.378 88.1353 194.284 87.9657 194.179 87.8018C192.829 85.6776 191.681 83.4431 190.638 81.1565C189.984 79.7195 189.486 78.2318 189.264 76.6571C188.99 74.7141 189.694 73.109 190.915 71.675C191.268 71.2603 191.73 70.9659 192.225 70.76C194.427 69.8422 196.649 69.7871 198.867 70.7049C200.092 71.211 200.903 72.1071 201.216 73.4019C201.444 74.3444 201.658 75.2941 201.802 76.2526C202.117 78.3391 202.385 80.4329 202.507 82.5427C202.547 83.2445 202.579 83.9477 202.615 84.651C202.625 84.8438 202.639 85.0381 202.65 85.2295C202.878 85.2339 202.885 85.0613 202.929 84.954C203.181 84.3334 203.423 83.7099 203.661 83.0835C204.207 81.6393 204.874 80.2546 205.66 78.9235C206.191 78.023 206.8 77.1893 207.508 76.4237C209.306 74.4807 211.539 73.4701 214.173 73.3642C215.114 73.3265 216.045 73.4831 216.949 73.7572C219.121 74.414 221.238 76.9457 221.384 79.2512C221.423 79.8587 221.37 80.4532 221.243 81.0477C220.761 83.3054 219.651 85.2165 218.082 86.8927C216.609 88.4674 214.959 89.8245 213.226 91.0962C213.023 91.2455 212.738 91.3224 212.674 91.624C212.82 91.8342 213.038 91.7516 213.222 91.7588C216.208 91.8937 219.163 92.2721 222.063 92.9957C223.099 93.2538 224.125 93.5887 225.113 93.9933C226.862 94.7096 228.013 96.0015 228.486 97.8517C228.747 98.8769 228.695 99.9136 228.514 100.945C228.427 101.439 228.298 101.925 228.19 102.416C227.931 103.597 227.313 104.578 226.511 105.46C226.052 105.966 225.495 106.317 224.857 106.565C223.563 107.068 222.24 107.104 220.901 106.839C219.486 106.559 218.093 106.183 216.767 105.612C214.739 104.736 212.731 103.813 210.712 102.914C210.599 102.863 210.48 102.772 210.292 102.901C210.361 103.069 210.422 103.249 210.508 103.417C211.127 104.643 211.747 105.867 212.371 107.091C213.392 109.096 214.275 111.154 214.781 113.358C214.878 113.781 214.971 114.209 215.032 114.638C215.209 115.874 214.811 116.873 213.796 117.627C213.253 118.031 212.671 118.365 212.026 118.555C211.128 118.819 210.225 119.083 209.307 119.259C207.928 119.525 206.545 119.758 205.125 119.779C203.046 119.808 201.587 118.503 200.996 116.979C200.678 116.162 200.452 115.324 200.292 114.467C199.902 112.356 199.575 110.238 199.736 108.079C199.74 108.028 199.697 107.973 199.649 107.852H199.652Z" fill="#EDCAC0"/>
    <path d="M211.23 97.1816C211.473 97.2367 211.775 97.2773 212.056 97.3745C213.479 97.8617 214.904 98.346 216.314 98.8723C216.843 99.0695 217.336 99.3682 217.832 99.6437C218.001 99.738 218.171 99.8786 218.267 100.042C218.336 100.163 218.343 100.392 218.271 100.504C218.2 100.614 217.994 100.691 217.849 100.688C217.695 100.685 217.534 100.586 217.394 100.504C216.174 99.7873 214.849 99.3175 213.522 98.8549C212.702 98.5693 211.874 98.3039 211.051 98.0241C210.96 97.9936 210.877 97.9298 210.801 97.8689C210.624 97.7283 210.676 97.3469 210.882 97.273C210.975 97.2396 211.075 97.2222 211.228 97.1831L211.23 97.1816Z" fill="black"/>
    <path d="M206.669 109.133C206.648 109.27 206.643 109.337 206.627 109.401C206.584 109.578 206.469 109.692 206.292 109.73C206.116 109.768 205.949 109.715 205.856 109.563C205.772 109.424 205.704 109.263 205.676 109.104C205.311 107.001 204.783 104.928 204.547 102.802C204.528 102.637 204.503 102.471 204.506 102.307C204.509 102.116 204.703 101.923 204.889 101.904C205.08 101.884 205.206 101.993 205.286 102.146C205.346 102.262 205.386 102.393 205.412 102.522C205.798 104.485 206.181 106.45 206.559 108.415C206.61 108.676 206.639 108.941 206.668 109.135L206.669 109.133Z" fill="black"/>
    <path d="M195.527 101.211C195.808 101.206 196.013 101.412 195.981 101.597C195.957 101.726 195.928 101.861 195.868 101.976C194.976 103.663 194.078 105.348 193.181 107.032C193.118 107.149 193.042 107.261 192.957 107.365C192.788 107.575 192.52 107.636 192.335 107.517C192.15 107.399 192.087 107.153 192.183 106.887C192.216 106.792 192.26 106.701 192.308 106.614C193.213 104.971 194.117 103.328 195.025 101.687C195.09 101.57 195.156 101.445 195.253 101.358C195.346 101.274 195.479 101.236 195.528 101.21L195.527 101.211Z" fill="black"/>
    <path d="M196.762 83.1503C196.775 83.0198 196.775 82.9517 196.791 82.8879C196.834 82.7139 196.934 82.5877 197.123 82.5674C197.305 82.5486 197.44 82.6385 197.533 82.7922C197.551 82.8212 197.569 82.8502 197.58 82.8806C198.119 84.4553 198.658 86.03 199.193 87.6076C199.246 87.7642 199.28 87.9281 199.301 88.0919C199.322 88.263 199.137 88.4805 198.954 88.5298C198.771 88.5791 198.615 88.5124 198.509 88.3805C198.407 88.2543 198.326 88.1006 198.274 87.9455C197.809 86.5549 197.349 85.1644 196.897 83.7695C196.826 83.5491 196.797 83.3156 196.762 83.1489V83.1503Z" fill="black"/>
    <path d="M210.597 84.7726C210.884 84.7654 211.097 84.9829 211.062 85.1656C211.039 85.2917 211.004 85.4324 210.929 85.5324C210.526 86.0646 210.133 86.6069 209.689 87.1057C209.089 87.7814 208.509 88.4672 208.045 89.2459C207.943 89.4155 207.82 89.5939 207.66 89.6983C207.543 89.7751 207.344 89.7751 207.196 89.7418C207.022 89.7041 206.914 89.4228 206.977 89.243C207.033 89.0878 207.102 88.9341 207.186 88.792C207.582 88.1323 208.029 87.5117 208.555 86.9462C209.123 86.3357 209.644 85.6818 210.199 85.0597C210.324 84.9205 210.508 84.8364 210.595 84.7755L210.597 84.7726Z" fill="black"/>
    <path d="M190.722 95.0418C190.493 95.0287 190.391 95.0316 190.293 95.0157C188.973 94.7996 187.654 94.5865 186.336 94.3603C186.175 94.3327 186.019 94.253 185.873 94.1761C185.68 94.0732 185.611 93.7788 185.708 93.557C185.79 93.367 185.998 93.2394 186.189 93.2771C187.204 93.4787 188.218 93.6875 189.233 93.889C189.855 94.0123 190.469 94.1863 191.113 94.1529C191.147 94.1515 191.181 94.1529 191.213 94.1602C191.383 94.2022 191.525 94.2791 191.561 94.469C191.598 94.6575 191.47 94.8982 191.283 94.9446C191.058 95.0012 190.826 95.0258 190.722 95.0432V95.0418Z" fill="black"/>
    <path d="M201.209 102.479C199.765 102.557 198.379 102.36 197.013 101.988C196.852 101.945 196.691 101.893 196.526 101.874C194.969 101.698 193.785 100.866 192.818 99.7061C192.392 99.1943 192.047 98.6114 191.703 98.0372C190.868 96.6423 190.672 95.1589 191.151 93.5929C191.329 93.0071 191.616 92.4895 192.012 92.0197C193.116 90.7089 194.505 89.7911 196.049 89.0994C198.572 87.9684 201.225 87.648 203.909 88.2236C206.245 88.7239 208.319 89.8172 209.795 91.7964C211.412 93.9627 211.555 96.303 210.472 98.723C210.011 99.7525 209.228 100.536 208.219 101.079C207.565 101.432 206.87 101.671 206.155 101.851C204.526 102.26 202.873 102.51 201.211 102.479H201.209Z" fill="white"/>
    <path d="M203.297 99.0421C201.89 99.0261 200.489 98.8956 199.109 98.6274C197.559 98.3258 196.074 97.827 194.713 96.9976C193.18 96.0652 193.482 95.2242 194.194 94.1788C194.597 93.5872 195.194 93.2015 195.832 92.8883C196.741 92.4417 197.713 92.1938 198.703 92.0183C201.158 91.5862 203.494 92.0372 205.741 93.0391C206.446 93.3537 207.088 93.7728 207.6 94.3745C208.889 95.8898 208.251 97.6805 206.813 98.4418C206.121 98.8072 205.372 98.9739 204.6 99.0348C204.168 99.0696 203.732 99.0406 203.297 99.0406V99.0421ZM201.828 95.5505C202.102 95.9942 202.453 96.2291 202.927 96.1986C203.517 96.1609 204.033 95.9057 204.419 95.462C204.81 95.0111 205.154 94.5195 205.093 93.8496C204.252 93.4248 203.401 93.1884 202.445 93.0753C202.505 93.9961 202.498 94.8632 201.828 95.5519V95.5505ZM197.981 93.2363C198.214 93.6742 198.464 94.0628 198.636 94.4818C198.912 95.1474 198.95 95.1952 199.621 95.2141C200.027 95.2257 200.417 95.1575 200.791 95.0067C201.354 94.7805 201.648 94.2411 201.545 93.6437C201.442 93.0376 201.232 92.852 200.621 92.8419C200.389 92.8375 200.153 92.826 199.924 92.8535C199.271 92.9347 198.603 92.9579 197.979 93.2363H197.981ZM196.099 96.4219C196.231 96.4219 196.364 96.4321 196.495 96.4205C197.283 96.3465 197.768 95.8231 197.775 95.0459C197.781 94.3339 197.075 93.5973 196.444 93.7409C195.632 93.925 195.006 94.4108 194.668 95.1967C194.61 95.3315 194.604 95.5679 194.684 95.6694C195.039 96.1203 195.483 96.448 196.097 96.4234L196.099 96.4219ZM198.632 96.087C198.303 96.4698 198.01 96.8105 197.681 97.1933C198.776 97.6457 199.856 97.7994 200.952 97.8705C201.068 97.8777 201.235 97.8168 201.301 97.7298C201.523 97.4326 201.705 97.1121 201.51 96.7177C201.293 96.274 200.932 96.0362 200.484 96.1247C199.883 96.2421 199.295 96.2044 198.632 96.087ZM202.438 97.9778C203.571 98.13 204.661 98.1373 205.737 97.8212C205.927 97.7646 206.108 97.6733 206.288 97.5877C206.405 97.5326 206.434 97.3427 206.352 97.2441C205.828 96.6148 205.122 96.4002 204.375 96.7061C203.907 96.8975 203.445 97.0788 202.933 97.1005C202.647 97.1121 202.525 97.3021 202.474 97.55C202.448 97.6762 202.451 97.8081 202.437 97.9778H202.438ZM205.606 95.5476C206.062 95.8709 206.508 96.1928 206.961 96.5075C207.007 96.5394 207.083 96.5307 207.145 96.5408C207.297 96.0406 207.326 95.8651 207.219 95.6186C207.003 95.1256 206.687 94.7167 206.21 94.4702C206.15 94.5065 206.113 94.5152 206.102 94.5384C205.94 94.8632 205.782 95.188 205.606 95.5476Z" fill="black"/>
</g>
<g class="flowers">
    <path d="M7.89958 201.245C7.56096 200.932 7.35026 200.719 7.12151 200.53C6.07145 199.657 5.00702 198.801 3.97136 197.911C3.61653 197.607 3.28324 197.25 3.03288 196.858C2.54837 196.101 2.74295 195.194 3.40577 194.585C4.38019 193.69 5.49511 193.385 6.7451 193.819C8.18242 194.316 9.59991 194.869 11.0192 195.417C11.5524 195.622 12.0656 195.878 12.5339 196.087C12.8905 195.972 12.8132 195.747 12.7898 195.552C12.5916 193.882 12.3736 192.216 12.1953 190.545C12.1179 189.815 12.0692 189.075 12.1053 188.344C12.1863 186.746 13.6309 185.826 15.1204 186.363C15.8949 186.642 16.4676 187.108 16.8819 187.839C17.977 189.778 18.7137 191.847 19.2631 193.99C19.3387 194.286 19.308 194.632 19.7259 194.846C20.0087 194.606 20.3149 194.342 20.6265 194.084C21.9593 192.978 23.2832 191.86 24.634 190.775C25.0393 190.449 25.5022 190.181 25.9687 189.947C26.826 189.515 27.5789 189.765 28.2939 190.345C29.0378 190.948 29.3351 191.716 29 192.58C28.6614 193.454 28.2057 194.297 27.696 195.085C26.8062 196.458 25.6697 197.63 24.4936 198.763C24.1622 199.084 23.8506 199.426 23.4507 199.842C23.8488 200.001 24.1189 200.13 24.4035 200.217C27.4186 201.143 29.9852 202.868 32.4618 204.747C32.8292 205.026 33.1552 205.401 33.3966 205.795C33.9855 206.755 33.6416 207.83 32.6077 208.282C32.2331 208.446 31.8026 208.515 31.3919 208.553C29.317 208.74 27.3105 208.342 25.3401 207.742C24.4881 207.483 23.6596 207.141 22.8185 206.847C22.5843 206.764 22.3358 206.719 21.9864 206.629C22.0026 206.987 22.0044 207.238 22.0278 207.488C22.2656 210.01 22.2079 212.526 21.9053 215.039C21.8495 215.503 21.7558 215.981 21.5739 216.407C21.075 217.582 19.589 217.845 18.7173 216.91C18.4021 216.571 18.1409 216.15 17.9608 215.723C17.6366 214.95 17.3358 214.16 17.1287 213.349C16.8297 212.18 16.6261 210.99 16.3794 209.808C16.2749 209.313 16.1632 208.817 16.03 208.209C15.4014 208.56 15.1132 209.075 14.7656 209.509C13.4093 211.206 11.8009 212.629 10.0628 213.915C9.68455 214.194 9.28828 214.464 8.86681 214.671C7.91941 215.134 6.65865 214.815 6.02825 213.978C5.61038 213.423 5.59598 212.803 5.84814 212.186C5.98682 211.847 6.17949 211.528 6.37581 211.218C7.1377 210.022 7.9104 208.834 8.67948 207.641C8.84339 207.387 9.00551 207.133 9.15141 206.903C8.85422 206.512 8.52284 206.636 8.24186 206.669C7.09453 206.8 5.95079 206.966 4.80527 207.117C4.12804 207.207 3.45256 207.308 2.77353 207.375C2.46373 207.405 2.14318 207.391 1.83338 207.355C0.970632 207.25 0.356466 206.782 0.102505 205.955C-0.151456 205.13 0.0700353 204.376 0.727453 203.814C1.1219 203.477 1.5704 203.174 2.04049 202.962C3.47961 202.315 4.97099 201.816 6.53799 201.562C6.94144 201.498 7.33766 201.382 7.89782 201.254L7.89958 201.245Z" fill="#EAD8AA"/>
    <path d="M17.4238 205.694C14.1385 205.516 12.2365 203.666 12.2149 200.41C12.2041 198.83 13.1605 197.773 14.4483 197.026C16.4872 195.842 19.2286 196.285 20.873 197.865C22.2167 199.154 22.5355 201.665 21.5701 203.263C20.5902 204.882 19.1115 205.635 17.4238 205.694ZM17.6724 201.112C17.5085 201.002 17.3356 200.826 17.1303 200.766C16.9141 200.703 16.6475 200.979 16.6367 201.231C16.6259 201.505 16.8456 201.557 17.0456 201.564C17.3031 201.572 17.5535 201.521 17.6724 201.114V201.112Z" fill="#CE9B79"/>
    <path d="M17.2121 203.583C15.8126 203.603 14.5824 202.324 14.5158 200.867C14.4509 199.477 15.8991 198.131 17.1923 198.117C18.5792 198.101 19.8382 199.358 19.8814 200.84C19.921 202.236 18.6296 203.564 17.2121 203.583Z" fill="white"/>
</g>
</svg>
