<svg width="14" height="14" viewBox="0 0 14 14" fill="none" xmlns="http://www.w3.org/2000/svg">
<path d="M0.5 2.67692C1.59565 2.47084 2.45557 1.59995 2.65845 0.5H11.3415C11.5444 1.59995 12.4044 2.47084 13.5 2.67692V11.3231C12.4044 11.5292 11.5444 12.4 11.3415 13.5H2.65845C2.45557 12.4 1.59565 11.5292 0.5 11.3231V2.67692Z" stroke="white"/>
<path d="M4 4.95285C4.52167 4.95285 4.94457 4.52625 4.94457 4H9.05543C9.05543 4.52625 9.47833 4.95285 10 4.95285V9.04715C9.47833 9.04715 9.05543 9.47375 9.05543 10H4.94457C4.94457 9.47375 4.52167 9.04715 4 9.04715V4.95285Z" fill="#D8A70D"/>
</svg>
