<svg  viewBox="0 0 52 47" fill="none" xmlns="http://www.w3.org/2000/svg">
<path d="M10.5529 0C13.13 1.1824 14.5977 3.41252 15.6203 5.8572C16.4763 7.90243 17.661 8.46395 19.8569 8.42743C28.9805 8.27449 38.1087 8.35667 47.2346 8.37493C47.981 8.37721 48.7663 8.42058 49.4625 8.65569C50.848 9.12819 51.6309 10.1873 51.6355 11.6642C51.6583 19.0827 51.6629 26.5012 51.6332 33.922C51.6264 35.8234 50.1472 37.2204 48.1705 37.2386C44.459 37.2729 40.7474 37.2455 37.0382 37.2546C36.2073 37.2569 35.5887 36.9716 35.5727 36.0654C35.5567 35.0953 36.2073 34.7825 37.0792 34.7848C40.5625 34.7871 44.0481 34.7894 47.5314 34.7826C48.9831 34.7803 49.1497 34.6091 49.152 33.1391C49.1543 26.5172 49.152 19.893 49.152 12.9858C48.6293 13.3761 48.2572 13.6409 47.8989 13.9217C43.0757 17.7063 38.2525 21.4909 33.4362 25.2846C32.1807 26.2729 30.8614 27.0924 29.186 26.5491C28.5171 26.3323 27.8529 25.9876 27.2982 25.5585C23.5273 22.639 19.7861 19.683 16.0403 16.7316C15.7185 16.4782 15.4332 16.1746 15.1296 15.8916C12.5776 16.8206 11.7262 17.7953 11.9362 19.7538C12.0047 20.4066 12.258 21.0823 12.5845 21.6575C14.2394 24.5861 15.9353 27.4941 17.6359 30.3954C18.9279 32.5958 20.69 33.0523 22.8722 31.79C23.2648 31.5618 23.6552 31.3312 24.0546 31.1144C26.0884 30.005 28.1451 30.11 29.8274 31.6964C32.514 34.2302 34.436 37.2911 35.3855 40.8863C35.8603 42.685 35.292 43.8172 33.6713 44.769C27.2777 48.5216 19.6012 47.5127 13.897 41.95C12.0754 40.1741 10.4616 38.1038 9.10347 35.949C6.75009 32.21 4.54508 28.3661 2.50898 24.4446C0.347343 20.2902 -0.563422 15.8186 0.356474 11.1483C1.233 6.69264 3.64573 3.24817 7.56955 0.897069C8.04434 0.614025 8.50086 0.301306 8.96423 0C9.4938 0 10.0234 0 10.5529 0ZM25.762 44.5522C27.999 44.4654 30.2063 43.945 32.2538 42.7512C32.9226 42.3608 33.1349 41.9796 32.918 41.2081C32.2081 38.6721 30.7655 36.5539 29.17 34.5383C27.5881 32.541 26.7184 32.4314 24.5431 33.6778C24.3126 33.8102 24.0843 33.9425 23.856 34.0749C20.843 35.7983 17.5172 35.0017 15.7208 32.0229C13.8102 28.8523 11.9499 25.6498 10.1489 22.4176C9.06467 20.4705 8.96651 18.334 10.2151 16.4896C10.9318 15.4305 12.1896 14.6795 13.3126 13.9628C15.2323 12.7416 15.6044 12.1093 14.826 9.97048C13.9312 7.51438 12.7465 5.19296 10.9547 3.23675C10.3498 2.57708 9.79054 2.41045 8.91401 2.95371C5.94889 4.78893 3.90138 7.29069 3.01116 10.6712C1.99768 14.5197 2.40398 18.3477 4.10453 21.8378C6.2502 26.241 8.71999 30.5004 11.2583 34.6958C12.4566 36.6771 13.9883 38.5146 15.6318 40.1558C18.3618 42.879 21.7104 44.4563 25.762 44.5522ZM47.6889 10.9246C37.497 10.9246 27.5836 10.9246 17.798 10.9246C17.5241 12.107 17.273 13.1867 17.0036 14.344C20.7996 17.3205 24.6641 20.3541 28.5354 23.3809C29.9301 24.472 30.4414 24.4697 31.8224 23.3877C35.0066 20.8928 38.1886 18.3911 41.3706 15.8939C43.4044 14.2938 45.4405 12.6914 47.6889 10.9246Z" fill="#0472B6"/>
</svg>
