<svg viewBox="0 0 24 25" fill="none" xmlns="http://www.w3.org/2000/svg">
<path d="M17.946 0H6.05432C2.71574 0 0 2.82928 0 6.30659V18.6938C0 22.1715 2.71574 25 6.05432 25H17.946C21.2846 25 24 22.1715 24 18.6938V6.30659C24 2.82928 21.2846 0 17.946 0ZM21.3884 18.6938C21.3884 20.6712 19.844 22.28 17.946 22.28H6.05432C4.15639 22.28 2.61193 20.6712 2.61193 18.6938V6.30659C2.61193 4.32958 4.15639 2.72115 6.05432 2.72115H17.946C19.844 2.72115 21.3884 4.32958 21.3884 6.30659V18.6938Z" fill="white"/>
<path d="M18.3799 7.39295C17.5732 7.39295 16.9169 6.70966 16.9169 5.8694C16.9169 5.02953 17.5732 4.34624 18.3799 4.34624C19.1865 4.34624 19.8425 5.02953 19.8425 5.8694C19.8425 6.70966 19.1865 7.39295 18.3799 7.39295Z" fill="white"/>
<path d="M11.9996 6.06165C8.59184 6.06165 5.8188 8.94984 5.8188 12.5C5.8188 16.0502 8.59184 18.9388 11.9996 18.9388C15.4082 18.9388 18.1812 16.0502 18.1812 12.5C18.1812 8.95023 15.4082 6.06165 11.9996 6.06165ZM11.9996 16.2188C10.0325 16.2188 8.43036 14.5503 8.43036 12.5C8.43036 10.4505 10.0325 8.7828 11.9996 8.7828C13.9679 8.7828 15.5689 10.4505 15.5689 12.5C15.5689 14.5503 13.9679 16.2188 11.9996 16.2188Z" fill="white"/>
</svg>
