<svg xmlns="http://www.w3.org/2000/svg" width="188" height="188" viewBox="0 0 47 47"><defs><mask id="28qvb" width="2" height="2" x="-1" y="-1"><path fill="#fff" d="M1 0h45v46H1z"/><path d="M13.873 11.722a2.623 2.623 0 1 1 0 5.247 2.623 2.623 0 0 1 0-5.247zm-2.311 6.902h5.09V33.99h-5.09zm13.62-.094v2.28c.484-.734 1.429-2.53 4.552-2.56 5.715 0 5.689 6.214 5.689 7.666l-.063 8.058-5.06-.015s.02-7.414.008-8.506c.024-.351-.02-2.863-2.35-2.863-3.148 0-2.78 3.155-2.78 3.155v8.182h-5.152V18.53zm5.119 6.934c.003-.198.006-.183.007-.01-.003.048-.007.055-.007.01zM1.035 22.57c0 12.426 10.074 22.5 22.5 22.5 12.427 0 22.5-10.074 22.5-22.5 0-12.427-10.073-22.5-22.5-22.5-12.426 0-22.5 10.073-22.5 22.5z"/></mask><filter id="28qva" width="67" height="69" x="-10" y="-11" filterUnits="userSpaceOnUse"><feOffset dy="1" in="SourceGraphic" result="FeOffset1063Out"/><feGaussianBlur in="FeOffset1063Out" result="FeGaussianBlur1064Out" stdDeviation="0.4 0.4"/></filter></defs><g><g><g filter="url(#28qva)"><path fill="none" d="M13.873 11.722a2.623 2.623 0 1 1 0 5.247 2.623 2.623 0 0 1 0-5.247zm-2.311 6.902h5.09V33.99h-5.09zm13.62-.094v2.28c.484-.734 1.429-2.53 4.552-2.56 5.715 0 5.689 6.214 5.689 7.666l-.063 8.058-5.06-.015s.02-7.414.008-8.506c.024-.351-.02-2.863-2.35-2.863-3.148 0-2.78 3.155-2.78 3.155v8.182h-5.152V18.53zm5.119 6.934c.003-.198.006-.183.007-.01-.003.048-.007.055-.007.01zM1.035 22.57c0 12.426 10.074 22.5 22.5 22.5 12.427 0 22.5-10.074 22.5-22.5 0-12.427-10.073-22.5-22.5-22.5-12.426 0-22.5 10.073-22.5 22.5z" mask="url(&quot;#28qvb&quot;)"/><path fill-opacity=".25" d="M13.873 11.722a2.623 2.623 0 1 1 0 5.247 2.623 2.623 0 0 1 0-5.247zm-2.311 6.902h5.09V33.99h-5.09zm13.62-.094v2.28c.484-.734 1.429-2.53 4.552-2.56 5.715 0 5.689 6.214 5.689 7.666l-.063 8.058-5.06-.015s.02-7.414.008-8.506c.024-.351-.02-2.863-2.35-2.863-3.148 0-2.78 3.155-2.78 3.155v8.182h-5.152V18.53zm5.119 6.934c.003-.198.006-.183.007-.01-.003.048-.007.055-.007.01zM1.035 22.57c0 12.426 10.074 22.5 22.5 22.5 12.427 0 22.5-10.074 22.5-22.5 0-12.427-10.073-22.5-22.5-22.5-12.426 0-22.5 10.073-22.5 22.5z"/></g><path fill="#fff" d="M13.873 11.722a2.623 2.623 0 1 1 0 5.247 2.623 2.623 0 0 1 0-5.247zm-2.311 6.902h5.09V33.99h-5.09zm13.62-.094v2.28c.484-.734 1.429-2.53 4.552-2.56 5.715 0 5.689 6.214 5.689 7.666l-.063 8.058-5.06-.015s.02-7.414.008-8.506c.024-.351-.02-2.863-2.35-2.863-3.148 0-2.78 3.155-2.78 3.155v8.182h-5.152V18.53zm5.119 6.934c.003-.198.006-.183.007-.01-.003.048-.007.055-.007.01zM1.035 22.57c0 12.426 10.074 22.5 22.5 22.5 12.427 0 22.5-10.074 22.5-22.5 0-12.427-10.073-22.5-22.5-22.5-12.426 0-22.5 10.073-22.5 22.5z"/></g></g></svg>