<svg xmlns="http://www.w3.org/2000/svg" width="188" height="188" viewBox="0 0 47 47"><defs><mask id="ttrnb" width="2" height="2" x="-1" y="-1"><path fill="#fff" d="M1 0h45v45H1z"/><path d="M27.785 12.563c.235 0 .494.478.494.478s.46-.972.988-1.023c.358.208.522.76.246.954.092 0 1.186-.784 1.731-.392.052.614-1.72 1.62-1.72 1.62s4.175 0 5.913 6.05c.051 0 2.284.323 3.784-.835-.12 1.329-2.676 2.437-2.676 2.437s1.5.306 2.54.119c-.376 1.977-3.7 1.79-3.7 1.79s-2.573 8.81-10.617 10.09c-9.919 1.43-15.56-2.268-16.225-6.102.008.027 5.956 5.28 10.89.05-.006 0-.796-.043-1.329-.408-.05-.051-.647-.46-.647-1.125.007-.41.903-1.483.903-1.483s-1.928.085-3.155-1.227c-.102-.102-.779-.642.163-1.25.572-.358 1.475-.83 1.475-.83s-.852.307-1.534-.016c-.011-.012-1.395-1.116-1.655-2.18-.255-.835.912-.796.912-.796l.794-.024s-2.778-2.028-2.062-3.63c0-.017.605-1.201 9.732 4.96-.009-.009 1.96-6.46 4.755-7.227zM8.543 27.75zM.975 22.475c0 12.426 10.074 22.5 22.5 22.5s22.5-10.074 22.5-22.5c0-12.427-10.074-22.5-22.5-22.5s-22.5 10.073-22.5 22.5z"/></mask><filter id="ttrna" width="67" height="68" x="-10" y="-11" filterUnits="userSpaceOnUse"><feOffset dy="1" in="SourceGraphic" result="FeOffset1043Out"/><feGaussianBlur in="FeOffset1043Out" result="FeGaussianBlur1044Out" stdDeviation="0.4 0.4"/></filter></defs><g><g><g filter="url(#ttrna)"><path fill="none" d="M27.785 12.563c.235 0 .494.478.494.478s.46-.972.988-1.023c.358.208.522.76.246.954.092 0 1.186-.784 1.731-.392.052.614-1.72 1.62-1.72 1.62s4.175 0 5.913 6.05c.051 0 2.284.323 3.784-.835-.12 1.329-2.676 2.437-2.676 2.437s1.5.306 2.54.119c-.376 1.977-3.7 1.79-3.7 1.79s-2.573 8.81-10.617 10.09c-9.919 1.43-15.56-2.268-16.225-6.102.008.027 5.956 5.28 10.89.05-.006 0-.796-.043-1.329-.408-.05-.051-.647-.46-.647-1.125.007-.41.903-1.483.903-1.483s-1.928.085-3.155-1.227c-.102-.102-.779-.642.163-1.25.572-.358 1.475-.83 1.475-.83s-.852.307-1.534-.016c-.011-.012-1.395-1.116-1.655-2.18-.255-.835.912-.796.912-.796l.794-.024s-2.778-2.028-2.062-3.63c0-.017.605-1.201 9.732 4.96-.009-.009 1.96-6.46 4.755-7.227zM8.543 27.75zM.975 22.475c0 12.426 10.074 22.5 22.5 22.5s22.5-10.074 22.5-22.5c0-12.427-10.074-22.5-22.5-22.5s-22.5 10.073-22.5 22.5z" mask="url(&quot;#ttrnb&quot;)"/><path fill-opacity=".25" d="M27.785 12.563c.235 0 .494.478.494.478s.46-.972.988-1.023c.358.208.522.76.246.954.092 0 1.186-.784 1.731-.392.052.614-1.72 1.62-1.72 1.62s4.175 0 5.913 6.05c.051 0 2.284.323 3.784-.835-.12 1.329-2.676 2.437-2.676 2.437s1.5.306 2.54.119c-.376 1.977-3.7 1.79-3.7 1.79s-2.573 8.81-10.617 10.09c-9.919 1.43-15.56-2.268-16.225-6.102.008.027 5.956 5.28 10.89.05-.006 0-.796-.043-1.329-.408-.05-.051-.647-.46-.647-1.125.007-.41.903-1.483.903-1.483s-1.928.085-3.155-1.227c-.102-.102-.779-.642.163-1.25.572-.358 1.475-.83 1.475-.83s-.852.307-1.534-.016c-.011-.012-1.395-1.116-1.655-2.18-.255-.835.912-.796.912-.796l.794-.024s-2.778-2.028-2.062-3.63c0-.017.605-1.201 9.732 4.96-.009-.009 1.96-6.46 4.755-7.227zM8.543 27.75zM.975 22.475c0 12.426 10.074 22.5 22.5 22.5s22.5-10.074 22.5-22.5c0-12.427-10.074-22.5-22.5-22.5s-22.5 10.073-22.5 22.5z"/></g><path fill="#fff" d="M27.785 12.563c.235 0 .494.478.494.478s.46-.972.988-1.023c.358.208.522.76.246.954.092 0 1.186-.784 1.731-.392.052.614-1.72 1.62-1.72 1.62s4.175 0 5.913 6.05c.051 0 2.284.323 3.784-.835-.12 1.329-2.676 2.437-2.676 2.437s1.5.306 2.54.119c-.376 1.977-3.7 1.79-3.7 1.79s-2.573 8.81-10.617 10.09c-9.919 1.43-15.56-2.268-16.225-6.102.008.027 5.956 5.28 10.89.05-.006 0-.796-.043-1.329-.408-.05-.051-.647-.46-.647-1.125.007-.41.903-1.483.903-1.483s-1.928.085-3.155-1.227c-.102-.102-.779-.642.163-1.25.572-.358 1.475-.83 1.475-.83s-.852.307-1.534-.016c-.011-.012-1.395-1.116-1.655-2.18-.255-.835.912-.796.912-.796l.794-.024s-2.778-2.028-2.062-3.63c0-.017.605-1.201 9.732 4.96-.009-.009 1.96-6.46 4.755-7.227zM8.543 27.75zM.975 22.475c0 12.426 10.074 22.5 22.5 22.5s22.5-10.074 22.5-22.5c0-12.427-10.074-22.5-22.5-22.5s-22.5 10.073-22.5 22.5z"/></g></g></svg>