<svg width="397" height="193" viewBox="0 0 397 193" fill="none" xmlns="http://www.w3.org/2000/svg">
<path d="M395.364 70.3391H333.86V53.3337H351.886C352.802 53.3337 353.521 52.6156 353.521 51.7017V23.566C353.521 22.6521 352.802 21.934 351.886 21.934H213.042V1.632C213.042 0.718079 212.322 0 211.406 0H10.338C9.422 0 8.70227 0.718079 8.70227 1.632V30.2899C8.70227 31.2038 9.422 31.9219 10.338 31.9219H19.1712V71.4815H10.338C9.422 71.4815 8.70227 72.1996 8.70227 73.1135V101.771C8.70227 102.685 9.422 103.403 10.338 103.403H39.7491V179.65H1.63576C0.719736 179.65 0 180.368 0 181.282V191.368C0 192.282 0.719736 193 1.63576 193H395.364C396.28 193 397 192.282 397 191.368V181.282C397 180.368 396.28 179.65 395.364 179.65H367.491V152.82C367.491 151.906 366.771 151.188 365.855 151.188H355.353V117.895H365.855C366.771 117.895 367.491 117.177 367.491 116.263V103.436H395.364C396.28 103.436 397 102.718 397 101.804V72.0037C397 71.0898 396.28 70.3391 395.364 70.3391ZM330.588 90.6085H247.949V53.3337H330.588V90.6085ZM22.4427 31.9219H170.414V71.4815H22.4427V31.9219ZM11.9738 74.7455H172.05C172.966 74.7455 173.685 74.0274 173.685 73.1135V30.2899C173.685 29.3759 172.966 28.6579 172.05 28.6579H11.9738V3.26399H209.77V100.139H11.9738V74.7455ZM393.728 189.736H3.27153V182.914H393.728V189.736ZM295.877 117.895H326.4V151.221H295.877V117.895ZM292.606 151.188H289.596V117.895H292.606V151.188ZM252.529 151.188H249.519V117.895H252.529V151.188ZM212.453 179.65H209.443V117.895H212.453V179.65ZM175.648 117.895H206.172V179.683H175.648V117.895ZM172.377 179.65H169.367V117.895H172.377V179.65ZM166.096 179.65H135.572V117.895H166.096V179.65ZM132.301 179.65H129.291V117.895H132.301V179.65ZM126.019 179.65H97.3607V117.895H126.019V179.65ZM226.455 152.82V179.65H215.725V117.895H246.248V151.221H228.091C227.208 151.188 226.455 151.939 226.455 152.82ZM255.801 117.895H286.324V151.221H255.801V117.895ZM329.672 117.895H332.682V151.221H329.672V117.895ZM364.219 179.65H229.727V154.452H364.219V179.65ZM352.082 151.188H335.953V117.895H352.082V151.188ZM364.219 114.631H95.7249C94.8089 114.631 94.0892 115.35 94.0892 116.263V179.683H43.0206V103.403H364.187V114.631H364.219ZM393.728 100.139H213.042V25.198H350.25V50.0697H246.313C245.397 50.0697 244.678 50.7878 244.678 51.7017V92.2405C244.678 93.1544 245.397 93.8725 246.313 93.8725H332.224C333.14 93.8725 333.86 93.1544 333.86 92.2405V73.6031H393.728V100.139Z" fill="#3D4A51"/>
<path d="M51.8861 33.7498C50.9701 33.7498 50.2504 34.4678 50.2504 35.3818V66.3897C50.2504 67.3036 50.9701 68.0217 51.8861 68.0217C52.8022 68.0217 53.5219 67.3036 53.5219 66.3897V35.3818C53.5219 34.4678 52.7694 33.7498 51.8861 33.7498Z" fill="#3D4A51"/>
<path d="M89.7706 33.7498C88.8546 33.7498 88.1348 34.4678 88.1348 35.3818V66.3897C88.1348 67.3036 88.8546 68.0217 89.7706 68.0217C90.6866 68.0217 91.4064 67.3036 91.4064 66.3897V35.3818C91.4064 34.4678 90.6866 33.7498 89.7706 33.7498Z" fill="#3D4A51"/>
<path d="M127.655 33.7498C126.739 33.7498 126.019 34.4678 126.019 35.3818V66.3897C126.019 67.3036 126.739 68.0217 127.655 68.0217C128.571 68.0217 129.291 67.3036 129.291 66.3897V35.3818C129.291 34.4678 128.571 33.7498 127.655 33.7498Z" fill="#3D4A51"/>
<path d="M271.766 88.9112C272.682 88.9112 273.401 88.1931 273.401 87.2792V57.1199C273.401 56.206 272.682 55.4879 271.766 55.4879C270.849 55.4879 270.13 56.206 270.13 57.1199V87.2792C270.13 88.1605 270.849 88.9112 271.766 88.9112Z" fill="#3D4A51"/>
<path d="M301.799 88.9112C302.715 88.9112 303.434 88.1931 303.434 87.2792V57.1199C303.434 56.206 302.715 55.4879 301.799 55.4879C300.882 55.4879 300.163 56.206 300.163 57.1199V87.2792C300.163 88.1605 300.915 88.9112 301.799 88.9112Z" fill="#3D4A51"/>
<path d="M105.311 141.331C105.736 141.331 106.162 141.168 106.456 140.841L119.542 127.785C120.196 127.133 120.196 126.121 119.542 125.468C118.888 124.815 117.874 124.815 117.219 125.468L104.133 138.524C103.479 139.177 103.479 140.189 104.133 140.841C104.493 141.168 104.886 141.331 105.311 141.331Z" fill="#3D4A51"/>
<path d="M202.573 154.061C201.918 153.408 200.904 153.408 200.25 154.061L187.262 167.019C186.608 167.672 186.608 168.683 187.262 169.336C187.589 169.663 188.014 169.826 188.407 169.826C188.832 169.826 189.258 169.663 189.552 169.336L202.54 156.378C203.227 155.725 203.227 154.681 202.573 154.061Z" fill="#3D4A51"/>
<path d="M140.153 172.665C140.48 172.992 140.905 173.155 141.298 173.155C141.723 173.155 142.148 172.992 142.443 172.665L156.772 158.369C157.427 157.716 157.427 156.704 156.772 156.052C156.118 155.399 155.104 155.399 154.449 156.052L140.12 170.348C139.499 171.001 139.499 172.045 140.153 172.665Z" fill="#3D4A51"/>
<path d="M237.742 125.501C237.088 124.848 236.073 124.848 235.419 125.501L218.734 142.147C218.08 142.8 218.08 143.812 218.734 144.464C219.061 144.791 219.487 144.954 219.879 144.954C220.272 144.954 220.73 144.791 221.024 144.464L237.709 127.818C238.396 127.165 238.396 126.121 237.742 125.501Z" fill="#3D4A51"/>
<path d="M241.406 133.791C240.752 133.138 239.738 133.138 239.084 133.791L233.228 139.634C232.573 140.287 232.573 141.298 233.228 141.951C233.555 142.278 233.98 142.441 234.373 142.441C234.798 142.441 235.223 142.278 235.518 141.951L241.374 136.109C242.061 135.456 242.061 134.444 241.406 133.791Z" fill="#3D4A51"/>
<path d="M283.935 125.501C283.281 124.848 282.267 124.848 281.613 125.501L269.672 137.414C269.017 138.067 269.017 139.079 269.672 139.732C269.999 140.058 270.424 140.221 270.817 140.221C271.242 140.221 271.667 140.058 271.962 139.732L283.903 127.818C284.59 127.165 284.59 126.121 283.935 125.501Z" fill="#3D4A51"/>
<path d="M313.38 129.679C312.726 129.026 311.712 129.026 311.057 129.679L302.192 138.524C301.537 139.177 301.537 140.189 302.192 140.841C302.519 141.168 302.944 141.331 303.337 141.331C303.762 141.331 304.187 141.168 304.482 140.841L313.348 131.996C314.035 131.343 314.035 130.299 313.38 129.679Z" fill="#3D4A51"/>
</svg>
