<svg width="871" height="522" viewBox="0 0 871 522" fill="none" xmlns="http://www.w3.org/2000/svg">
<path d="M249.241 521.983C249.275 517.959 249.237 513.93 249.358 509.911C249.739 497.293 250.181 484.68 250.605 472.063C250.631 471.283 250.687 470.503 250.744 469.533C252.524 469.399 254.165 469.265 255.807 469.156C258.7 468.97 259.818 467.688 259.441 464.79C258.466 457.284 257.444 449.786 256.448 442.288C255.499 435.146 254.715 427.973 253.559 420.861C252.753 415.897 251.289 411.041 250.423 406.082C249.696 401.906 249.089 397.661 248.972 393.43C248.388 372.738 247.993 352.038 247.508 331.343C247.404 326.873 247.214 322.403 247.023 317.937C247.002 317.417 246.859 316.772 246.521 316.425C245.221 315.087 246.322 313.688 246.997 313.164C247.656 312.652 249.176 313.073 250.259 313.333C250.934 313.497 251.445 314.29 252.125 314.515C264.656 318.604 277.082 323.078 289.785 326.539C297.239 328.571 305.182 329.385 312.732 326.154C319.8 323.126 322.169 317.989 319.926 310.301C316.392 298.19 310.752 287.019 304.316 276.208C298.928 267.164 291.812 259.467 285.177 251.402C284.453 250.522 282.95 250.293 282.006 249.855C282.223 243.115 277.935 238.81 273.929 234.375C273.357 233.742 272.595 233.292 272.01 232.672C268.289 228.744 264.591 224.798 260.896 220.843C256.907 216.577 253.784 211.938 252.58 205.986C251.108 198.692 247.664 192.446 241.739 187.539C237.477 184.009 233.778 179.803 229.772 175.956C228.841 175.064 228.789 174.28 229.161 173.098C230.4 169.186 231.526 165.24 232.613 161.281C233.233 159.029 232.921 156.889 231.604 154.867C231.193 154.23 231.015 153.255 231.128 152.497C231.959 146.992 231.648 141.894 228.148 137.064C226.671 135.029 226.169 131.962 226.052 129.328C225.748 122.411 223.21 116.854 217.303 113.12C211.443 109.412 205.18 107.784 198.128 109.174C194.793 109.833 191.233 109.252 187.799 109.521C182.748 109.915 178.127 111.565 174.017 114.662C169.161 118.318 164.376 122.026 160.937 127.145C160.135 128.336 159.247 129.562 158.836 130.905C156.393 138.814 153.647 146.732 153.626 155.1C153.6 163.815 155.86 172.201 158.767 180.379C159.26 181.765 160.304 182.965 161.131 184.225C161.803 185.252 162.526 186.239 163.228 187.244C165.922 191.112 166.351 195.015 163.6 199.086C162.474 200.754 161.573 202.573 160.551 204.314C159.507 206.086 158.424 207.68 158.554 210.041C158.715 212.99 156.783 215.169 153.716 215.485C147.415 216.131 141.078 216.594 134.75 216.75C126.53 216.954 118.3 216.728 110.075 216.832C108.733 216.85 107.2 217.304 106.095 218.054C97.4501 223.91 93.4177 232.261 92.9196 242.574C92.742 246.212 92.3306 249.903 91.4514 253.429C90.7757 256.149 89.2685 258.683 88.0211 261.243C84.7467 267.961 81.9704 274.921 81.507 282.393C80.8876 292.399 77.4963 301.486 73.6285 310.521C67.9504 323.789 64.4291 337.636 62.7053 351.952C62.1638 356.461 63.2899 360.758 65.0787 364.786C71.0645 378.274 77.0155 391.784 83.3823 405.099C92.8893 424.984 102.756 444.697 112.397 464.517C113.159 466.085 114.129 466.895 115.775 466.917C117.789 466.939 119.821 467.008 121.813 466.783C123.216 466.627 124.511 466.285 125.551 464.834C126.828 463.058 128.34 463.452 129.96 465.015C130.138 466.791 130.038 468.008 130.397 469.074C132.524 475.316 134.166 481.661 134.23 488.284C134.326 498.082 134.256 507.884 134.256 517.816C133.018 517.816 131.996 517.816 130.753 517.816C130.753 506.788 130.753 495.929 130.753 484.793C61.4709 486.521 -7.5206 488.245 -76.7546 489.973C-81.6662 417.209 -86.5647 344.588 -91.485 271.716C-90.5884 271.616 -89.7568 271.434 -88.9339 271.443C-71.6265 271.621 -54.3191 271.863 -37.0116 272.006C1.22839 272.322 39.4728 272.578 77.7128 272.92C79.4063 272.933 79.978 272.4 80.5064 270.832C81.9011 266.696 83.6032 262.659 85.2707 258.362C26.1327 256.794 -33.1049 255.222 -92.4941 253.645C-96.2579 178.178 -100.017 102.898 -103.781 27.4397C-22.3679 34.5216 58.7639 41.5776 140.125 48.6551C142.438 103.431 144.751 158.089 147.072 213.034C149.121 212.743 150.971 212.587 152.772 212.202C154.851 211.76 155.388 210.651 155.172 208.572C155.072 207.611 155.254 206.467 155.709 205.622C157.528 202.27 159.494 198.995 161.43 195.703C162.318 194.192 162.288 192.697 161.435 191.199C160.794 190.073 160.274 188.838 159.447 187.864C155.518 183.251 153.755 177.737 152.664 171.945C151.754 167.138 150.65 162.343 150.174 157.487C149.563 151.232 151.152 145.151 152.885 139.195C154.163 134.799 155.873 130.528 157.363 126.188C157.545 125.66 157.649 125.062 157.623 124.507C156.462 101.746 155.289 78.9883 154.102 56.2265C154.02 54.6325 153.838 53.0429 153.664 51.0331C157.181 51.4229 160.205 51.7998 163.241 52.0856C178.391 53.502 193.546 54.8881 208.701 56.2958C225.146 57.8205 241.588 59.3668 258.037 60.8828C272.833 62.2472 287.628 63.5813 302.423 64.9457C317.288 66.3145 332.153 67.7092 347.017 69.0866C352.475 69.5934 357.932 70.1175 363.398 70.5419C364.736 70.6459 365.252 71.0184 365.291 72.4478C365.832 93.1434 366.425 113.835 367.019 134.526C367.976 167.909 368.946 201.291 369.903 234.669C370.154 243.393 370.354 252.121 370.601 260.844C370.661 262.919 370.822 264.994 370.951 267.415C347.702 266.717 324.677 266.024 301.341 265.323C304.152 269.68 306.82 273.821 309.431 277.867C329.667 278.603 349.889 279.339 370.432 280.089C370.908 296.6 371.38 313.073 371.852 329.545C371.939 329.567 372.03 329.593 372.117 329.614C372.407 328.571 372.727 327.535 372.978 326.483C377.816 306.09 382.689 285.707 387.414 265.288C388.051 262.525 388.155 259.579 388.09 256.725C387.622 236.029 387.042 215.338 386.505 194.642C385.496 155.707 384.499 116.767 383.486 77.8318C383.443 76.2248 383.3 74.6178 383.187 72.7856C441.84 78.2952 500.099 83.7658 558.648 89.2668C559.661 151.077 560.67 212.821 561.688 274.856C557.66 274.627 553.823 274.41 549.713 274.176C551.094 280.076 552.363 285.741 553.758 291.376C557.695 307.316 561.849 323.204 565.508 339.204C566.297 342.648 567.756 345.567 569.073 348.712C573.746 359.874 573.95 370.824 566.362 381.072C565.708 381.951 565.391 383.303 565.409 384.425C565.907 412.406 566.474 440.387 567.024 468.368C567.046 469.434 567.029 470.499 567.029 471.989C561.368 471.989 555.854 471.989 550.167 471.989C550.323 487.379 549.47 502.201 542.739 516.218C541.639 515.676 540.712 515.217 539.643 514.689C543.034 507.78 544.792 500.598 545.745 493.217C547.214 481.852 546.936 470.477 545.65 459.116C545.286 455.898 544.654 452.705 544.32 449.483C544.238 448.673 544.615 447.612 545.156 446.979C546.824 445.021 547.014 442.895 546.486 440.517C543.813 428.571 541.219 416.607 538.464 404.683C538.031 402.803 538.322 402.023 539.985 400.793C544.61 397.376 549.02 393.625 553.247 389.713C556.837 386.391 560.298 382.861 563.39 379.075C570.182 370.759 570.784 357.197 564.824 348.235C563.135 345.697 562.806 342.99 562.23 340.17C561.307 335.665 559.783 331.286 558.704 326.808C554.654 310.006 550.678 293.183 546.672 276.368C545.407 271.058 544.151 265.743 542.869 260.437C541.851 256.222 539.669 253.294 535.394 251.436C524.626 246.758 514.089 241.552 503.429 236.631C502.026 235.986 501.589 235.289 501.81 233.712C504.179 216.746 503.087 200.208 495.555 184.481C494.139 181.527 494.594 180.141 497.206 178.161C497.665 177.81 498.137 177.481 498.6 177.135C502.277 174.375 502.685 172.725 500.883 168.415C500.627 167.809 500.58 167.055 500.636 166.388C501.979 149.621 495.014 129.58 473.475 125.677C459.394 123.126 442.957 128.51 434.1 146.269C431.003 152.476 429.358 158.96 430.7 165.92C430.977 167.367 431.696 168.732 432.199 170.139C432.333 170.512 432.589 170.958 432.489 171.278C430.969 176.182 431.597 181.154 432.06 186.096C432.35 189.172 432.706 192.295 433.511 195.262C435.807 203.721 441.602 208.984 449.601 212.059C450.195 212.289 450.814 212.453 451.966 212.821C451.174 215.056 450.663 217.304 449.623 219.275C445.846 226.444 440.25 232.209 434.629 237.918C434.079 238.476 433.113 238.684 432.298 238.918C422.267 241.829 412.28 244.891 402.179 247.542C396.033 249.158 392.95 253.177 391.862 258.995C386.076 289.943 377.626 320.276 370.657 350.955C369.652 355.374 369.067 359.77 370.523 364.184C371.935 368.468 374.49 371.746 378.661 373.787C391.546 380.076 404.362 386.504 417.26 392.767C418.906 393.564 419.214 394.331 418.811 396.037C412.501 422.957 409.023 450.211 409.495 477.902C409.72 491.177 410.816 504.375 413.696 517.543C412.626 517.863 411.621 518.171 410.439 518.526C407.546 506.281 406.645 493.941 406.064 481.514C400.17 481.514 394.366 481.514 387.973 481.514C387.973 477.403 388.064 473.241 387.96 469.087C387.362 445.147 386.717 421.212 386.089 397.272C385.959 392.368 385.764 387.465 385.721 382.562C385.708 381.323 385.188 380.821 384.192 380.331C380.272 378.395 376.396 376.381 372.342 374.311C373.459 409.534 374.577 444.861 375.703 480.375C334.981 481.553 294.48 482.727 253.763 483.905C253.715 484.892 253.659 485.733 253.633 486.573C253.29 497.389 252.957 508.2 252.602 519.016C252.567 520.012 252.407 521.004 252.303 522C251.263 521.983 250.254 521.983 249.241 521.983ZM-89.2068 250.262C-30.177 251.826 28.6925 253.385 88.06 254.958C88.5581 250.583 89.2468 246.472 89.4547 242.336C90.0567 230.338 94.9293 220.834 105.294 214.454C106.442 213.748 107.975 213.363 109.335 213.35C119.578 213.25 129.826 213.289 140.069 213.263C141.199 213.259 142.325 213.116 143.594 213.029C141.321 159.198 139.06 105.557 136.79 51.8171C57.7028 44.9431 -21.0815 38.0994 -100.113 31.2341C-96.4745 104.306 -92.845 177.148 -89.2068 250.262ZM-87.7775 275.116C-83.0175 345.753 -78.2792 416.014 -73.5322 486.408C-5.57156 484.711 62.1335 483.017 130.263 481.315C129.081 477.057 127.972 473.081 126.815 468.918C122.259 470.685 117.932 470.82 113.523 470.053C111.851 469.763 110.773 469.083 109.976 467.441C99.5723 446.07 88.9393 424.807 78.6787 403.366C72.6843 390.839 67.1664 378.079 61.6052 365.349C59.4742 360.472 58.7292 355.309 59.4049 349.912C60.6869 339.642 63.0994 329.636 66.4258 319.873C68.9769 312.388 72.0477 305.077 74.9279 297.705C77.5872 290.9 77.8428 283.697 78.683 276.342C23.2178 275.939 -32.0957 275.528 -87.7775 275.116ZM157.541 55.0657C158.68 77.2124 159.806 99.0472 160.945 121.138C163.245 119.08 165.268 117.265 167.295 115.45C173.848 109.577 181.367 105.982 190.293 105.744C192.953 105.674 195.673 106.017 198.263 105.588C205.214 104.431 211.607 105.856 217.619 109.243C225.541 113.7 229.378 120.549 229.53 129.645C229.564 131.628 230.075 133.959 231.219 135.496C234.506 139.914 235.338 144.805 234.87 150.024C234.692 152.025 235.073 153.727 235.68 155.603C236.269 157.435 236.377 159.622 236.009 161.52C235.294 165.184 234.025 168.732 233.155 172.37C232.969 173.154 233.211 174.384 233.748 174.934C237.165 178.447 240.505 182.094 244.282 185.195C250.813 190.562 254.334 197.579 256.054 205.557C256.972 209.824 258.873 213.406 261.715 216.542C266.024 221.298 270.152 226.283 274.925 230.533C279.096 234.245 281.777 238.793 284.596 243.393C286.697 246.814 288.971 250.141 291.362 253.368C293.202 255.854 295.268 258.193 297.399 260.437C298.088 261.16 299.296 261.749 300.284 261.78C321.771 262.473 343.258 263.079 364.749 263.698C365.507 263.72 366.265 263.703 367.222 263.703C365.408 200.286 363.601 137.164 361.787 73.9031C293.709 67.6269 225.792 61.3636 157.541 55.0657ZM311.411 281.388C311.913 282.423 312.264 283.186 312.649 283.926C317.002 292.316 320.991 300.867 323.438 310.023C325.097 316.23 324.378 322.169 318.96 326.262C316.119 328.41 312.584 330.251 309.124 330.849C301.778 332.122 294.324 331.711 287.104 329.45C282.227 327.921 277.372 326.314 272.508 324.746C265.253 322.407 257.998 320.077 250.96 317.811C250.96 322.13 250.882 326.366 250.973 330.598C251.415 351.432 251.865 372.271 252.407 393.1C252.498 396.544 252.857 400.013 253.464 403.405C254.547 409.421 256.045 415.364 257.124 421.38C257.959 426.058 258.427 430.801 259.051 435.514C260.342 445.229 261.654 454.941 262.897 464.66C263.482 469.252 260.853 472.305 256.223 472.608C255.534 472.652 254.845 472.738 254.04 472.816C254.04 475.428 254.04 477.837 254.04 480.414C293.445 479.275 332.698 478.14 372.052 477.001C372.052 476.065 372.069 475.428 372.047 474.792C371.515 457.999 370.973 441.206 370.445 424.413C369.869 406.177 369.301 387.942 368.721 369.706C368.708 369.286 368.669 368.823 368.487 368.459C365.481 362.434 365.698 356.231 367.335 349.907C367.928 347.62 368.717 345.26 368.669 342.951C368.327 325.937 367.785 308.927 367.331 291.914C367.257 289.128 367.322 286.335 367.322 283.428C348.425 282.74 330.078 282.068 311.411 281.388ZM447.834 215.208C446.834 214.74 446.184 214.45 445.547 214.138C437.695 210.279 432.073 204.392 430.059 195.764C428.318 188.31 427.512 180.704 428.461 173.011C428.561 172.184 428.613 171.244 428.322 170.499C426.733 166.423 426.378 162.174 426.928 157.938C429.479 138.225 446.912 118.508 472.791 122.125C484.277 123.732 493.455 129.476 498.838 140.01C502.992 148.14 505.028 156.889 504.244 166.137C504.179 166.886 504.391 167.696 504.625 168.428C506.184 173.262 505.361 176.117 501.42 179.305C500.917 179.712 500.419 180.154 499.861 180.465C498.405 181.275 498.258 182.146 498.925 183.77C500.727 188.154 502.537 192.585 503.759 197.15C506.678 208.074 507.029 219.223 505.66 230.411C505.366 232.807 505.846 234.041 508.241 235.111C518.039 239.486 527.623 244.346 537.468 248.612C542.051 250.6 544.567 253.857 545.845 258.345C546.85 261.875 547.573 265.479 548.504 269.03C548.66 269.62 549.193 270.516 549.622 270.56C552.381 270.841 555.161 270.928 558.054 271.084C558.054 269.879 558.067 269.022 558.054 268.169C557.296 220.796 556.539 173.422 555.785 126.045C555.616 115.52 555.456 104.99 555.3 94.4602C555.282 93.3817 555.473 92.3465 553.792 92.2078C545.819 91.5365 537.849 90.7655 529.88 90.0205C515.379 88.6691 500.874 87.3176 486.373 85.9576C471.656 84.5758 456.938 83.1854 442.221 81.8037C429.085 80.5692 415.948 79.3305 402.807 78.1003C397.588 77.6109 392.373 77.1344 386.921 76.632C388.41 134.591 389.892 192.347 391.377 250.102C394.704 245.901 399.477 244.779 404.081 243.393C410.01 241.608 415.875 239.347 421.943 238.329C430.466 236.9 436.508 232.399 441.221 225.551C442.568 223.594 444.057 221.731 445.361 219.743C446.249 218.37 446.938 216.867 447.834 215.208ZM405.982 477.932C405.982 477.044 405.986 476.55 405.982 476.056C405.714 449.479 408.988 423.304 414.926 397.436C415.268 395.951 414.744 395.4 413.557 394.824C405.986 391.13 398.442 387.379 390.884 383.658C390.394 383.415 389.861 383.268 389.134 382.995C389.987 414.818 390.832 446.412 391.672 477.936C396.514 477.932 401.101 477.932 405.982 477.932ZM550.115 468.39C554.546 468.39 558.968 468.39 563.542 468.39C563.009 440.915 562.481 413.761 561.957 386.647C555.811 392.018 549.981 397.28 543.93 402.274C542.345 403.587 542.007 404.557 542.453 406.502C545.052 417.863 547.504 429.255 549.946 440.651C550.518 443.311 550.54 445.927 548.495 448.166C548.084 448.617 547.898 449.496 547.967 450.137C548.638 456.214 549.388 462.282 550.115 468.39Z" fill="#DFE9EE"/>
<path d="M871 318.989C869.718 324.291 868.709 329.675 867.089 334.868C865.097 341.253 862.836 347.581 860.259 353.749C857.404 360.576 856.322 367.714 855.464 374.947C855.152 377.598 854.108 379.833 852.194 381.817C850.47 383.606 849.175 385.806 847.56 388.007C848.413 389.003 849.27 390.051 850.18 391.052C853.467 394.664 855.282 398.788 855.174 403.786C854.983 412.644 855.438 421.532 853.753 430.312C853.307 432.625 852.449 434.565 850.093 435.523C849.569 435.735 849.136 436.159 848.642 436.463C843.285 439.746 840.491 444.207 841.041 450.8C841.47 455.941 841.128 461.147 841.128 466.614C840.695 466.687 839.729 466.848 838.837 466.999C838.646 466.787 838.477 466.683 838.477 466.579C838.373 458.886 838.083 451.185 838.33 443.501C838.39 441.691 839.963 439.638 841.37 438.221C843.531 436.042 846.191 434.357 848.556 432.365C849.266 431.767 850.067 430.905 850.206 430.065C850.769 426.661 851.293 423.226 851.458 419.782C851.704 414.528 851.566 409.252 851.739 403.994C851.873 400.009 850.548 396.657 847.928 393.737C847.204 392.932 846.464 392.143 845.771 391.312C843.609 388.721 843.709 387.084 845.888 384.498C847.69 382.354 849.729 380.266 850.925 377.797C852.016 375.545 852.402 372.834 852.601 370.287C853.138 363.43 855.286 357.067 857.794 350.743C861.489 341.439 865.222 332.105 866.794 322.16C867.427 318.153 867.427 313.969 867.111 309.911C866.656 304.072 863.823 299.264 859.475 295.327C855.49 291.723 851.99 287.716 849.634 282.826C849.145 281.813 848.79 280.734 848.378 279.695C852.415 278.005 855.46 275.402 857.855 272.084C862.212 266.042 865.283 259.415 866.431 251.999C866.669 250.444 866.651 248.837 866.595 247.256C866.504 244.8 865.421 243.011 863.204 241.656C853.814 235.908 843.973 234.318 833.362 237.684C830.707 238.524 827.84 238.663 825.12 239.334C823.391 239.759 821.694 240.447 820.096 241.244C818.017 242.284 817.055 244.016 816.869 246.455C816.613 249.821 816.102 253.203 815.301 256.478C814.933 257.99 813.633 259.285 812.724 260.658C811.325 262.763 810.407 264.816 811.507 267.497C812.399 269.676 811.974 271.967 810.952 274.198C810.034 276.208 809.311 278.365 808.899 280.535C808.284 283.749 809.935 285.971 812.966 287.227C815.474 288.266 817.999 289.432 820.204 290.987C822.781 292.806 822.893 294.859 820.901 297.25C814.534 304.891 808.115 312.492 801.701 320.094C798.301 324.126 795.802 328.601 794.71 333.812C794.342 335.57 793.935 337.333 793.376 339.04C792.138 342.825 790.041 345.593 785.94 347.066C782.345 348.357 778.871 350.384 775.822 352.718C770.109 357.089 768.784 365.163 772.275 371.482C774.254 375.064 777.511 376.745 781.392 377.299C782.016 377.39 782.761 376.628 783.714 376.117C785.723 376.637 786.754 378.135 785.862 380.336C785.069 381.349 783.978 382.25 783.527 383.398C777.975 397.501 776.056 412.042 778.347 427.094C778.616 428.865 779.2 430.052 781.124 430.269C783.142 430.494 785.165 431.027 787.17 430.966C789.63 430.897 790.453 432.218 790.379 434.076C789.989 435.072 789.249 436.077 789.266 437.069C789.413 444.263 789.461 451.475 790.085 458.635C790.358 461.745 791.917 464.743 792.995 468.117C792.701 468.446 791.986 469.243 791.185 470.14C787.703 466.155 786.533 461.511 786.204 456.768C785.758 450.31 785.853 443.809 785.719 437.329C785.706 436.614 785.719 435.904 785.719 435.141C783.146 434.392 780.63 433.552 778.061 432.945C776.303 432.53 775.653 431.468 775.341 429.844C773.492 420.172 773.288 410.457 775.168 400.815C776.468 394.131 778.408 387.573 780.114 380.751C780.236 380.808 779.937 380.613 779.612 380.531C771.911 378.581 767.779 373.613 767.112 365.687C766.532 358.769 768.862 353.1 774.596 349.227C778.027 346.91 781.847 345.121 785.628 343.388C787.334 342.604 788.616 341.682 789.223 339.958C789.942 337.926 790.734 335.895 791.163 333.799C792.571 326.955 795.984 321.341 800.653 316.17C806.968 309.179 812.819 301.772 819.325 294.006C816.457 292.65 814.201 291.138 811.719 290.506C807.409 289.41 804.555 284.29 805.439 280.227C805.984 277.715 807.067 275.324 807.678 272.82C808.055 271.279 808.505 269.446 808.02 268.06C806.885 264.82 807.427 261.888 809.415 259.506C812.737 255.534 812.871 250.76 813.374 246.108C813.729 242.808 814.963 240.244 817.774 238.632C819.693 237.532 821.772 236.545 823.907 236.038C829.295 234.756 834.709 233.461 840.188 232.746C850.262 231.434 859.301 234.414 867.353 240.452C869.649 242.171 869.986 244.943 870.004 247.503C870.025 250.431 869.761 253.433 869.086 256.274C867.656 262.278 865.179 267.93 861.463 272.859C859.076 276.03 856.07 278.737 853.034 281.982C854.438 284.936 856.932 287.981 859.726 290.796C861.099 292.178 862.567 293.464 863.892 294.889C867.539 298.801 869.627 303.478 870.528 308.72C870.649 309.413 870.827 310.093 870.983 310.777C871 313.506 871 316.248 871 318.989Z" fill="#DFE9EE"/>
<path d="M586.974 275.268C585.956 214.021 584.947 153.03 583.929 91.7617C617.296 94.3606 650.482 96.9464 684.079 99.5626C684.079 152.311 684.079 205.003 684.079 257.691C687.007 258.25 689.558 258.622 692.048 259.237C695.782 260.16 696.735 261.472 697.172 265.206C697.436 267.471 697.778 269.754 698.398 271.941C699.468 275.723 700.823 279.422 701.949 283.19C702.084 283.645 701.698 284.507 701.287 284.827C699.468 286.239 698.666 289.549 699.771 291.619C701.789 295.392 701.317 296.864 697.449 298.783C695.253 299.87 692.997 300.836 690.857 302.027C686.877 304.245 686.097 305.904 688.085 309.911C690.381 314.532 692.694 319.336 695.972 323.252C706.324 335.609 709.447 349.877 708.416 365.461C707.697 376.268 707.034 387.093 709.122 397.809C709.871 401.659 711.015 405.527 712.63 409.096C714.939 414.199 715.831 419.158 713.891 424.564C713.314 426.171 712.219 427.83 713.176 429.848C713.388 430.295 712.149 431.434 711.703 432.07C708.438 432.828 708.355 429.108 705.908 428.484C704.184 441.981 703.409 455.638 698.558 468.775C697.397 468.086 696.544 467.58 695.656 467.051C700.312 452.251 701.646 437.013 702.716 421.393C705.059 423.174 707.203 424.798 709.503 426.544C711.27 421.632 712.665 417.045 710.122 412.185C705.839 403.998 704.561 395.076 704.401 386.023C704.275 379.041 704.613 372.037 704.999 365.054C705.796 350.444 703.071 337.004 693.239 325.504C689.255 320.843 686.197 315.472 684.252 309.586C682.844 305.319 683.737 302.56 687.514 300.096C689.792 298.61 692.326 297.505 694.747 296.236C695.622 295.781 696.509 295.353 697.566 294.829C694.656 290.943 695.591 287.253 697.467 283.558C697.631 283.233 697.644 282.744 697.545 282.38C696.315 277.797 695.054 273.223 693.807 268.645C693.694 268.233 693.538 267.8 693.568 267.389C693.915 262.754 693.161 262.65 689.229 262.182C683.802 261.533 678.301 260.939 672.861 261.143C663.614 261.485 656.719 270.776 658.131 280.219C659.058 286.413 661.947 291.641 665.901 296.366C666.312 296.856 666.724 297.345 666.888 297.54C666.299 299.199 665.741 300.555 665.338 301.958C663.896 306.983 661.206 310.95 656.251 313.125C653.813 314.194 651.387 315.312 649.005 316.507C643.257 319.392 640.026 324.001 640.317 330.515C640.598 336.909 641.339 343.28 641.768 349.669C641.893 351.558 641.932 353.533 641.534 355.365C640.46 360.285 639.095 365.141 637.904 370.035C637.267 372.647 637.709 375.138 638.783 377.616C641.395 383.623 643.929 389.666 646.402 395.734C648.134 399.983 648.29 404.206 647.121 408.798C645.54 414.987 644.791 421.393 643.751 427.717C643.184 431.161 643.929 434.448 645.219 437.645C648.966 446.919 648.533 456.712 648.732 466.423C648.767 468.078 648.156 469.057 646.224 469.113C626.678 469.676 607.135 470.304 587.589 470.906C587.312 470.915 587.034 470.859 586.64 470.82C586.64 410.192 586.64 349.626 586.64 288.721C610.271 289.471 633.945 290.22 657.503 290.965C656.329 286.763 655.194 282.705 653.96 278.282C632.031 277.282 609.643 276.281 586.974 275.268ZM680.553 257.756C680.553 205.8 680.553 154.338 680.553 102.755C649.365 100.329 618.5 97.9253 587.454 95.5127C588.433 154.511 589.404 213.116 590.378 271.959C611.856 272.916 633.157 273.864 654.497 274.813C654.657 274.35 654.804 274.025 654.878 273.682C656.771 265.132 662.843 259.111 671.38 257.829C674.399 257.379 677.543 257.756 680.553 257.756ZM590.123 292.693C590.123 350.787 590.123 408.971 590.123 467.333C608.586 466.748 626.916 466.168 645.536 465.579C644.717 456.448 645.588 447.49 642.053 439.04C640.503 435.336 639.641 431.464 640.308 427.427C641.408 420.748 642.305 414.017 643.851 407.438C644.674 403.933 644.669 400.758 643.357 397.54C640.828 391.342 638.268 385.157 635.613 379.01C634.279 375.926 633.712 372.795 634.487 369.524C635.596 364.833 636.93 360.194 637.943 355.482C638.355 353.58 638.354 351.54 638.233 349.582C637.835 343.189 637.077 336.813 636.865 330.42C636.605 322.649 640.416 317.097 647.216 313.549C649.512 312.349 651.864 311.236 654.259 310.253C658.928 308.334 661.267 304.665 662.202 299.94C662.839 296.721 660.95 294.478 657.698 294.378C639.957 293.815 622.217 293.222 604.476 292.706C599.733 292.576 594.991 292.693 590.123 292.693Z" fill="#DFE9EE"/>
<path d="M-114.024 254.074C-197.257 252.913 -280.195 251.761 -363.419 250.6C-372.943 167.103 -382.458 83.6749 -392 0C-303.128 8.37702 -214.508 16.7324 -125.719 25.1051C-121.821 101.438 -117.931 177.602 -114.024 254.074ZM-360.326 247.178C-279.419 248.305 -198.656 249.426 -117.676 250.557C-121.47 176.294 -125.247 102.3 -129.028 28.267C-215.578 20.1109 -301.76 11.9851 -388.076 3.84632C-378.803 85.1519 -369.577 166.063 -360.326 247.178Z" fill="#DFE9EE"/>
<path d="M-100.169 491.251C-180.798 493.131 -261.129 495.002 -341.767 496.882C-348.84 419.886 -355.904 342.968 -362.99 265.752C-280.411 267.774 -197.95 269.793 -115.328 271.816C-110.274 345 -105.232 417.989 -100.169 491.251ZM-118.564 275.198C-198.82 273.236 -278.904 271.274 -359.183 269.312C-352.309 344.172 -345.466 418.721 -338.614 493.347C-260.224 491.52 -182.145 489.7 -103.876 487.872C-108.784 416.824 -113.665 346.135 -118.564 275.198Z" fill="#DFE9EE"/>
<path d="M273.344 281.44C267.774 277.403 261.567 274.285 257.314 268.537C251.788 261.069 245.94 253.818 239.825 246.832C238.396 245.199 235.364 244.367 233.016 244.259C228.802 244.064 224.718 243.648 220.69 242.375C219.62 242.037 218.351 242.323 217.173 242.323C216.978 242.539 216.787 242.756 216.592 242.973C213.651 237.324 210.698 231.685 207.783 226.019C207.064 224.62 206.579 223.096 205.812 221.727C204.183 218.82 204.192 216.724 206.786 214.636C208.961 212.891 211.638 211.769 214.093 210.37C214.154 210.608 214.219 210.85 214.279 211.089C214.994 211.587 215.704 212.089 216.753 212.821C217.831 215.23 219.065 218.14 220.425 220.99C221.894 224.061 224.324 226.067 227.529 227.258C230.968 228.536 234.389 229.883 237.737 231.377C241.414 233.019 244.121 235.657 245.754 239.46C247.257 242.964 249.137 246.303 250.731 249.769C255.443 260.017 261.732 269.169 269.619 277.23C270.931 278.568 272.105 280.032 273.344 281.44ZM213.53 214.389C212.153 215.199 210.754 215.892 209.502 216.789C208.259 217.677 207.765 218.773 208.943 220.237C209.649 221.112 210.035 222.251 210.55 223.277C212.902 227.955 215.224 232.646 217.628 237.294C217.909 237.835 218.58 238.411 219.165 238.528C223.934 239.494 228.59 240.824 233.592 240.824C237.867 240.824 241.947 242.301 244.134 246.693C244.671 247.776 245.585 248.673 246.322 249.656C245.36 246.65 243.87 243.951 242.744 241.106C241.367 237.619 238.842 235.518 235.502 234.158C232.107 232.776 228.728 231.343 225.32 229.983C221.816 228.583 219.213 226.193 217.515 222.866C216.177 220.245 215.007 217.547 213.53 214.389Z" fill="#DFE9EE"/>
<path d="M124.559 403.591C124.91 401.17 125.035 399.138 125.52 397.198C126.274 394.188 125.564 391.515 124.186 388.882C119.951 380.786 114.537 373.514 108.633 366.592C105.259 362.637 105.038 359.341 108.139 355.131C108.65 354.434 109.231 353.784 109.716 353.074C110.569 351.826 111.323 350.739 109.222 349.704C107.732 348.967 107.546 346.836 108.815 345.333C109.907 344.043 111.293 342.916 112.748 342.041C117.88 338.944 118.474 337.732 117.594 331.906C117.257 329.662 117.187 327.379 116.975 324.872C117.464 325.101 117.698 325.136 117.785 325.266C125.616 337.026 131.597 349.561 133.455 363.729C135.313 377.91 133.226 391.281 124.559 403.591ZM128.193 389.124C133.299 370.703 129.587 354.135 121.137 337.524C120.098 343.137 115.082 344.073 111.882 346.884C114.649 349.738 114.818 351.731 112.678 354.906C111.834 356.158 110.851 357.323 110.071 358.613C109.079 360.255 109.175 361.901 110.461 363.413C117.083 371.218 123.403 379.24 128.193 389.124Z" fill="#DFE9EE"/>
<path d="M410.283 321.302C411.439 321.376 412.423 321.437 413.497 321.502C415.84 331.568 420.37 340.794 424.81 350.059C425.152 350.774 425.23 351.973 424.857 352.614C423.463 355.036 421.899 357.375 420.227 359.614C419.864 360.103 418.664 360.415 418.079 360.199C416.832 359.727 415.532 359.055 414.61 358.115C411.193 354.611 407.905 350.981 404.622 347.352C404.276 346.971 404.076 346.195 404.198 345.693C406.077 337.866 408.018 330.056 409.954 322.242C410.027 321.969 410.144 321.705 410.283 321.302ZM411.911 329.931C411.452 331.971 411.063 333.786 410.638 335.592C410.209 337.411 410.023 339.356 409.235 341.01C407.476 344.705 408.46 347.443 411.383 350.011C413.735 352.082 415.818 354.46 418.187 356.872C419.322 355.179 420.279 353.914 421.042 352.541C421.336 352.012 421.436 351.129 421.198 350.592C418.187 343.765 415.091 336.974 411.911 329.931Z" fill="#DFE9EE"/>
<path d="M532.847 368.918C532.539 365.955 532.206 363.326 532.011 360.688C531.621 355.391 531.309 350.085 530.98 345.017C532.21 344.454 533.133 344.038 534.133 343.579C541.977 349.734 541.635 360.246 532.847 368.918ZM535.316 358.471C536.624 355.906 536.485 353.442 534.848 351.081C535.004 353.546 535.16 356.01 535.316 358.471Z" fill="#DFE9EE"/>
<path d="M221.365 202.166C222.548 202.361 223.228 202.413 223.864 202.603C224.289 202.729 224.835 202.967 225.008 203.314C226.16 205.605 227.407 207.875 228.265 210.279C228.876 211.981 228.468 213.783 226.658 214.74C224.865 215.684 223.418 214.692 222.288 213.441C221.192 212.224 220.235 210.855 219.412 209.438C217.142 205.527 217.753 203.812 221.365 202.166ZM222.474 205.653C222.18 205.791 221.885 205.934 221.591 206.073C222.461 207.585 223.336 209.092 224.207 210.604C224.423 210.487 224.64 210.37 224.856 210.253C224.064 208.719 223.271 207.186 222.474 205.653Z" fill="#DFE9EE"/>
</svg>
