<svg width="1050" height="570" viewBox="0 0 1050 570" fill="none" xmlns="http://www.w3.org/2000/svg">
<path d="M0 566.921C10.0273 562.492 20.0577 558.067 30.085 553.639C32.979 552.361 35.8637 551.065 38.8624 549.731C38.8624 467.921 38.8624 386.289 38.8624 304.362C40.2847 304.112 41.5501 303.78 42.8308 303.681C51.8268 302.991 60.8258 302.354 69.8248 301.689C83.014 300.713 96.2 299.712 109.392 298.745C121.766 297.836 134.139 296.971 146.512 296.057C159.089 295.127 171.659 294.144 184.235 293.208C193.742 292.503 203.256 291.844 212.766 291.148C221.254 290.529 229.739 289.892 238.223 289.251C238.513 289.23 238.796 289.097 239.35 288.94C239.35 213.815 239.35 138.665 239.35 63.5034C239.947 63.2539 240.298 63.0045 240.668 62.9645C254.627 61.4371 268.589 59.9528 282.547 58.4162C296.503 56.8796 310.453 55.2783 324.411 53.7386C338.367 52.202 352.332 50.727 366.291 49.1903C380.247 47.6537 394.199 46.0555 408.155 44.5158C420.279 43.1793 432.409 41.9076 444.533 40.5711C458.489 39.0314 472.438 37.4363 486.397 35.8996C498.521 34.5632 510.651 33.2914 522.775 31.9549C536.731 30.4152 550.683 28.8201 564.639 27.2835C576.763 25.947 588.893 24.6752 601.017 23.3388C614.973 21.7991 628.922 20.2039 642.881 18.6642C655.005 17.3278 667.135 16.056 679.259 14.7195C693.215 13.1798 707.167 11.5847 721.123 10.045C733.247 8.70854 745.374 7.42751 757.501 6.10337C770.847 4.64989 784.196 3.1995 797.536 1.66903C798.682 1.53662 800.412 2.00161 800.677 0C800.883 0 801.086 0 801.292 0C802.231 0.609721 803.134 1.28103 804.113 1.81685C897.376 52.8055 990.645 103.785 1083.91 154.758C1085.16 155.439 1086.44 156.061 1087.78 156.748C1087.6 166.029 1087.44 175.347 1087.24 184.665C1086.92 199.536 1086.56 214.403 1086.21 229.274C1085.66 253.167 1085.11 277.06 1084.56 300.956C1084.51 303.007 1084.55 305.061 1084.45 307.109C1084.39 308.294 1084.13 309.47 1083.95 310.693C1081 310.909 1078.35 311.146 1075.69 311.284C1062.28 311.986 1048.86 312.636 1035.45 313.35C1013.95 314.493 992.449 315.703 970.944 316.775C968.915 316.876 967.853 317.622 966.889 319.3C962.958 326.145 958.851 332.889 954.919 339.732C953.808 341.669 952.943 343.775 952.192 345.884C945.868 363.643 939.597 381.424 933.313 399.198C932.944 400.242 932.623 401.301 932.112 402.872C1018.33 400.531 1104.17 398.006 1190.21 395.644C1190.5 396.645 1190.73 397.474 1191 398.419C1189.69 399.044 1188.6 399.586 1187.49 400.082C1127.83 426.802 1068.16 453.522 1008.48 480.208C1005.75 481.427 1003.55 483.019 1001.49 485.295C989.779 498.213 977.843 510.928 965.984 523.71C962.635 527.319 959.245 530.892 955.96 534.556C954.981 535.649 954.285 536.995 953.109 538.747C952.463 538.747 951.148 538.747 949.833 538.747C885.836 538.732 821.837 538.719 757.84 538.685C755.666 538.685 753.634 539.003 751.544 539.699C735.214 545.134 718.851 550.461 702.485 555.779C701.343 556.152 700.093 556.361 698.892 556.367C667.612 556.466 636.33 556.528 605.05 556.595C604.133 556.598 603.218 556.595 602.132 556.595C601.861 555.653 601.617 554.806 601.266 553.593C615.564 548.807 629.775 544.053 643.983 539.298C643.956 539.089 643.928 538.88 643.9 538.67C643.044 538.67 642.188 538.67 641.333 538.67C632.614 538.67 623.898 538.624 615.179 538.71C613.483 538.729 611.7 539.027 610.115 539.616C591.581 546.504 573.047 553.393 554.596 560.5C551.456 561.71 548.405 562.277 545.114 562.317C518.453 562.637 491.788 562.988 465.126 563.358C405.751 564.177 346.378 565.008 287.002 565.84C258.494 566.237 229.985 566.643 201.479 567.041C141.796 567.875 82.115 568.704 22.4314 569.553C20.498 569.581 18.5676 569.846 16.6373 570C11.5082 570 6.37906 570 1.25303 570C1.08678 569.058 1.27458 567.937 0.0215509 567.536C0 567.33 0 567.124 0 566.921ZM1081.36 306.594C1081.36 304.916 1081.34 303.697 1081.36 302.477C1081.61 290.785 1081.86 279.095 1082.12 267.403C1082.9 232.227 1083.66 197.051 1084.53 161.878C1084.59 159.451 1083.81 158.275 1081.73 157.142C989.333 106.704 896.963 56.2052 804.611 5.68149C802.804 4.69301 801.117 4.28037 799.067 4.69301C796.865 5.13644 794.593 5.22266 792.349 5.46593C780.222 6.77776 768.095 8.07111 755.971 9.40757C742.015 10.9473 728.063 12.5424 714.107 14.0821C701.983 15.4186 689.853 16.6903 677.729 18.0268C663.773 19.5665 649.821 21.1616 635.865 22.6983C623.741 24.0347 611.611 25.3065 599.487 26.643C585.531 28.1827 571.582 29.7778 557.623 31.3175C545.499 32.654 533.369 33.9227 521.245 35.2591C507.289 36.7988 493.34 38.397 479.381 39.9337C465.425 41.4703 451.46 42.9453 437.501 44.4819C423.546 46.0185 409.596 47.6198 395.637 49.1565C381.681 50.6931 367.716 52.162 353.758 53.7017C336.135 55.6478 318.516 57.6556 300.893 59.5987C285.001 61.3509 269.103 63.0415 253.207 64.7783C249.769 65.1539 246.339 65.6097 242.832 66.0346C242.832 140.378 242.832 214.48 242.832 288.82C244.692 288.734 246.323 288.697 247.949 288.58C256.231 287.979 264.512 287.36 272.794 286.748C281.384 286.113 289.973 285.488 298.56 284.841C313.688 283.702 328.817 282.526 343.949 281.405C356.525 280.472 369.108 279.622 381.681 278.689C396.813 277.568 411.939 276.376 427.071 275.252C439.647 274.319 452.23 273.469 464.803 272.536C479.935 271.415 495.061 270.223 510.192 269.103C522.769 268.169 535.352 267.323 547.928 266.39C565.818 265.059 583.706 263.664 601.599 262.337C616.934 261.201 632.275 260.126 647.613 259.018C650.067 258.839 652.788 259.215 654.897 258.254C657.48 257.081 659.589 257.629 661.929 258.288C672.381 261.225 682.861 264.077 693.286 267.11C697.365 268.296 701.383 268.819 705.665 268.524C718.349 267.646 731.052 267.079 743.745 266.362C760.635 265.404 777.525 264.413 794.415 263.446C806.289 262.768 818.167 262.125 830.041 261.438C846.01 260.514 861.977 259.553 877.946 258.623C891.661 257.826 905.38 257.062 919.096 256.249C922.482 256.049 925.703 256.252 929.034 257.339C973.155 271.714 1017.32 285.959 1061.47 300.229C1067.91 302.299 1074.34 304.343 1081.36 306.594ZM69.8033 362.63C73.7625 362.63 77.0228 362.775 80.2678 362.605C92.3486 361.971 104.426 361.247 116.504 360.527C132.365 359.578 148.227 358.59 164.088 357.635C175.55 356.946 187.015 356.287 198.477 355.594C214.034 354.654 229.585 353.681 245.141 352.742C256.81 352.04 268.478 351.39 280.146 350.685C295.703 349.746 311.253 348.764 326.81 347.824C338.577 347.113 350.35 346.457 362.116 345.752C377.981 344.8 393.842 343.815 409.704 342.86C421.166 342.171 432.631 341.512 444.093 340.819C459.649 339.88 475.2 338.906 490.757 337.97C502.425 337.268 514.093 336.612 525.761 335.913C541.829 334.949 557.897 333.97 573.961 332.988C585.935 332.255 597.908 331.504 609.878 330.771C612.288 330.623 614.702 330.53 617.451 330.395C616.848 399.016 616.25 467.163 615.653 535.317C627.697 535.317 639.331 535.317 651.221 535.317C652.739 443.991 654.288 352.878 655.732 261.675C654.663 261.675 654.051 261.635 653.444 261.681C644.55 262.331 635.656 262.987 626.761 263.652C614.086 264.597 601.411 265.564 588.733 266.504C579.226 267.209 569.713 267.874 560.206 268.576C547.426 269.521 534.65 270.494 521.87 271.443C512.464 272.139 503.056 272.804 493.651 273.5C480.871 274.448 468.094 275.422 455.315 276.367C445.909 277.063 436.501 277.722 427.095 278.424C411.967 279.554 396.838 280.724 381.709 281.842C369.237 282.766 356.759 283.619 344.285 284.543C329.156 285.667 314.03 286.855 298.898 287.976C286.325 288.909 273.742 289.756 261.169 290.692C243.38 292.013 225.598 293.393 207.809 294.726C191.35 295.961 174.888 297.168 158.43 298.388C138.902 299.832 119.376 301.288 99.8483 302.717C81.7517 304.041 63.6521 305.332 45.5555 306.65C44.4533 306.73 43.3604 306.936 42.3352 307.072C41.7071 311.306 41.9103 545.577 42.5938 548.062C51.5713 544.062 60.4995 540.084 69.4 536.117C69.4 534.445 69.4 533.115 69.4 531.785C69.4 494.037 69.4 456.287 69.4 418.54C69.4 400.999 69.3907 383.459 69.4184 365.919C69.4184 364.77 69.6832 363.616 69.8033 362.63ZM614.086 354.796C612.969 354.796 612.171 354.753 611.383 354.802C596.55 355.735 581.717 356.684 566.88 357.614C555.831 358.307 544.779 358.963 533.729 359.665C519.201 360.588 504.678 361.558 490.15 362.476C478.691 363.2 467.229 363.843 455.77 364.57C438.071 365.691 420.378 366.877 402.678 367.994C387.947 368.924 373.209 369.79 358.477 370.698C357.588 370.754 356.71 370.963 355.845 371.095C355.845 425.943 355.845 480.556 355.845 535.317C441.402 535.317 526.756 535.317 612.448 535.317C612.993 475.071 613.538 415.029 614.086 354.796ZM703.31 486.317C705.292 486.317 706.706 486.339 708.119 486.314C752.612 485.501 797.108 484.685 841.602 483.866C859.954 483.527 878.306 483.195 896.655 482.838C900.346 482.767 900.346 482.717 901.599 479.179C911.002 452.635 920.407 426.09 929.81 399.543C936.17 381.581 942.534 363.622 948.888 345.656C949.258 344.613 949.556 343.547 949.883 342.519C947.047 341.031 661.701 261.361 658.961 261.389C657.437 352.145 655.926 442.916 654.46 533.688C654.66 533.783 654.86 533.879 655.064 533.971C671.221 518.014 687.381 502.05 703.31 486.317ZM903.909 482.194C905.118 482.262 905.91 482.351 906.704 482.342C936.435 481.994 966.169 481.655 995.9 481.236C997.578 481.212 999.36 480.793 1000.9 480.115C1013.37 474.622 1025.79 469.026 1038.23 463.456C1084.69 442.642 1131.16 421.828 1177.62 401.015C1178.59 400.581 1179.54 400.122 1180.5 399.675C1180.43 399.478 1180.36 399.284 1180.29 399.087C1097.14 401.434 1013.99 403.777 930.844 406.124C921.808 431.618 912.904 456.777 903.909 482.194ZM10.8401 565.738C10.8709 565.984 10.9047 566.231 10.9355 566.474C12.0285 566.474 13.1183 566.486 14.2113 566.471C58.8216 565.849 103.432 565.227 148.045 564.605C191.938 563.992 235.831 563.376 279.724 562.763C338.694 561.941 397.66 561.119 456.629 560.297C486.779 559.875 516.932 559.459 547.081 559.013C548.282 558.994 549.554 558.856 550.665 558.443C567.081 552.324 583.475 546.15 599.872 539.976C600.484 539.745 601.054 539.4 601.645 539.107C600.34 538.652 599.145 538.652 597.951 538.652C524.102 538.636 450.253 538.624 376.408 538.609C275.79 538.584 175.172 538.553 74.5537 538.575C72.8758 538.575 71.081 538.947 69.5416 539.612C61.2599 543.181 53.0398 546.886 44.8135 550.587C43.816 551.037 42.9447 551.758 41.9934 552.315C41.5809 552.558 41.1222 552.743 40.6665 552.894C39.4135 553.31 38.102 553.581 36.8982 554.107C30.1435 557.076 23.4166 560.106 16.6804 563.114C14.7316 563.983 12.7858 564.864 10.8401 565.738ZM72.7558 365.971C72.7558 422.78 72.7558 478.936 72.7558 535.181C94.3344 535.181 115.707 535.181 137.144 535.181C137.144 483.296 137.144 431.63 137.144 379.853C115.697 375.231 94.3928 370.637 72.7558 365.971ZM305.142 369.509C303.661 369.509 302.35 369.445 301.047 369.519C288.154 370.264 275.26 371.04 262.367 371.788C250.597 372.472 238.827 373.122 227.057 373.805C210.275 374.778 193.493 375.773 176.711 376.749C165.455 377.405 154.197 378.036 142.941 378.702C142.162 378.748 141.392 378.991 140.693 379.13C140.031 385.35 140.33 533.016 140.995 535.234C195.682 535.234 250.381 535.234 305.145 535.234C305.142 479.887 305.142 424.76 305.142 369.509ZM756.938 535.56C758.486 535.56 759.281 535.56 760.075 535.56C822.72 535.572 885.369 535.578 948.014 535.631C949.787 535.631 951.053 535.169 952.278 533.839C966.812 518.091 981.405 502.395 995.977 486.681C996.497 486.12 996.944 485.486 997.787 484.43C996.042 484.43 994.85 484.411 993.659 484.433C961.508 484.984 929.354 485.544 897.203 486.096C867.678 486.604 838.157 487.13 808.632 487.561C806.394 487.595 804.83 488.282 803.26 489.837C788.605 504.329 773.877 518.746 759.173 533.189C758.597 533.758 758.064 534.365 756.938 535.56ZM1073.59 308.137C1073.63 307.937 1073.68 307.734 1073.73 307.534C1072.72 307.198 1071.72 306.85 1070.71 306.523C1024.71 291.665 978.699 276.853 932.734 261.9C927.31 260.135 922.042 259.024 916.248 259.581C907.175 260.456 898.034 260.647 888.928 261.161C871.835 262.128 854.745 263.125 837.655 264.105C825.885 264.779 814.115 265.426 802.345 266.106C786.176 267.039 770.01 268.009 753.837 268.933C741.35 269.648 728.863 270.307 716.376 271.015C714.606 271.117 712.841 271.344 711.077 271.514C711.81 272.185 712.561 272.444 713.325 272.659C722.302 275.163 731.292 277.611 740.248 280.191C742.849 280.94 745.423 281.195 748.117 281.131C774.154 280.518 800.19 279.957 826.227 279.428C827.628 279.4 829.087 279.609 830.439 279.997C869.412 291.203 908.373 302.465 947.355 313.643C949.473 314.25 951.785 314.561 953.983 314.465C966.581 313.917 979.17 313.212 991.762 312.547C1014.59 311.343 1037.42 310.133 1060.25 308.916C1064.69 308.679 1069.14 308.399 1073.59 308.137ZM614.074 333.939C613.513 333.859 613.215 333.764 612.922 333.779C602.381 334.401 591.836 335.026 581.295 335.667C565.738 336.612 550.185 337.579 534.628 338.518C522.96 339.221 511.288 339.876 499.623 340.575C483.657 341.533 467.694 342.522 451.728 343.482C440.368 344.166 429.004 344.822 417.644 345.509C401.985 346.457 386.327 347.43 370.669 348.372C359.309 349.056 347.945 349.7 336.585 350.383C335.809 350.43 335.039 350.645 334.128 350.808C334.405 351.279 334.497 351.597 334.71 351.778C340.618 356.862 346.51 361.965 352.492 366.963C353.167 367.526 354.361 367.711 355.3 367.677C358.988 367.539 362.667 367.24 366.353 367.009C385.896 365.777 405.443 364.549 424.986 363.317C447.907 361.876 470.828 360.434 493.752 358.99C509.918 357.974 526.088 356.942 542.254 355.939C563.642 354.614 585.032 353.315 606.42 351.988C608.935 351.831 611.445 351.55 614.077 351.316C614.074 345.398 614.074 339.787 614.074 333.939ZM352.495 535.289C352.495 533.823 352.495 532.518 352.495 531.212C352.495 487.001 352.495 442.79 352.495 398.579C352.495 390.271 352.458 381.96 352.526 373.651C352.539 371.982 352.098 370.8 350.768 369.691C344.94 364.829 339.214 359.849 333.432 354.932C332.875 354.457 332.194 354.134 331.452 353.663C331.452 414.404 331.452 474.776 331.452 535.286C338.478 535.289 345.291 535.289 352.495 535.289ZM964.562 317.052C962.641 317.194 961.428 317.344 960.215 317.363C955.538 317.434 950.926 318.099 946.21 316.719C907.587 305.446 868.919 294.329 830.251 283.212C828.613 282.741 826.836 282.535 825.128 282.56C816.621 282.677 808.118 282.926 799.612 283.105C786.29 283.385 772.965 283.64 759.644 283.939C758.668 283.961 757.544 283.653 756.402 284.687C821.593 302.914 886.437 321.049 951.453 339.227C955.754 331.956 959.959 324.84 964.562 317.052ZM327.724 535.286C328.368 531.588 328.211 353.238 327.567 351.002C324.421 351.172 321.253 351.319 318.088 351.52C314.957 351.72 311.832 351.978 308.667 352.216C308.667 413.4 308.667 474.255 308.667 535.286C315.166 535.286 321.462 535.286 327.724 535.286ZM305.077 366.082C305.077 361.349 305.077 356.909 305.077 352.351C299.511 352.677 294.194 352.989 288.877 353.3C277.212 353.986 265.544 354.658 253.882 355.36C238.226 356.302 222.574 357.278 206.919 358.224C195.254 358.926 183.586 359.588 171.924 360.293C156.475 361.226 141.026 362.199 125.577 363.129C114.013 363.825 102.45 364.475 90.8862 365.168C90.0888 365.214 89.3038 365.445 88.5156 365.592C88.8912 366.122 89.1745 366.236 89.4669 366.298C100.978 368.783 112.48 371.317 124.01 373.725C129.373 374.846 134.588 376.238 140.315 375.795C158.402 374.387 176.529 373.553 194.644 372.518C207.233 371.801 219.825 371.138 232.411 370.415C253.186 369.223 273.958 368.004 294.733 366.787C298.095 366.584 301.46 366.328 305.077 366.082ZM613.683 552.869C613.711 553.014 613.738 553.162 613.766 553.307C614.434 553.347 615.102 553.42 615.77 553.417C643.238 553.365 670.703 553.31 698.172 553.22C699.378 553.217 700.638 553.039 701.783 552.666C714.83 548.429 727.859 544.142 740.888 539.856C741.421 539.68 741.914 539.375 743.083 538.815C741.966 538.744 741.6 538.701 741.23 538.701C713.353 538.689 685.475 538.67 657.597 538.695C656.397 538.695 655.15 538.95 654.005 539.329C641.176 543.57 628.362 547.859 615.545 552.139C614.917 552.352 614.305 552.626 613.683 552.869ZM762.399 525.201C760.684 525.201 759.588 525.201 758.495 525.201C731.421 525.201 704.35 525.198 677.276 525.204C674.407 525.204 671.211 524.483 668.758 525.512C666.196 526.587 664.337 529.355 662.197 531.409C660.99 532.57 659.842 533.786 658.666 534.978C659.98 535.532 660.978 535.529 661.975 535.532C690.995 535.542 720.018 535.551 749.038 535.56C749.653 535.56 750.291 535.662 750.879 535.532C751.639 535.363 752.554 535.209 753.068 534.707C756.054 531.775 758.945 528.742 762.399 525.201ZM800.042 488.593C799.925 488.374 799.808 488.153 799.692 487.934C798.676 487.934 797.656 487.919 796.641 487.937C779.535 488.22 762.433 488.501 745.328 488.793C732.527 489.012 719.722 489.237 706.921 489.492C706.028 489.511 704.883 489.486 704.301 489.991C702.352 491.691 700.296 493.341 698.572 496.008C700.12 496.008 701.213 496.008 702.306 496.008C731.194 496.008 760.081 496.008 788.968 496.008C789.787 496.008 790.615 496.076 791.422 495.974C792.001 495.9 792.691 495.749 793.088 495.374C795.446 493.154 797.733 490.859 800.042 488.593ZM680.155 513.832C680.986 513.964 681.285 514.053 681.583 514.057C711.829 514.066 742.077 514.069 772.322 514.053C773.018 514.053 773.929 514.081 774.369 513.684C776.512 511.75 778.685 509.816 780.874 507.153C779.403 507.153 778.59 507.153 777.777 507.153C748.351 507.153 718.925 507.153 689.499 507.153C688.883 507.153 688.252 507.069 687.658 507.189C687.088 507.303 686.435 507.5 686.035 507.885C684.142 509.715 682.322 511.624 680.155 513.832ZM690.469 503.1C690.629 503.402 690.786 503.707 690.946 504.008C692.042 504.008 693.138 504.008 694.234 504.008C709.298 504.008 724.359 504.008 739.423 504.008C753.462 504.008 767.498 504.018 781.536 503.987C782.626 503.984 783.938 504.012 784.754 503.454C786.216 502.453 787.38 501.015 789.122 499.325C787.478 499.245 786.502 499.155 785.526 499.155C756.322 499.149 727.12 499.149 697.916 499.149C697.3 499.149 696.669 499.063 696.075 499.177C695.407 499.309 694.665 499.485 694.148 499.888C692.861 500.883 691.688 502.019 690.469 503.1ZM770.127 517.884C770.028 517.666 769.927 517.447 769.828 517.228C768.831 517.228 767.83 517.228 766.833 517.228C737.834 517.228 708.836 517.296 679.841 517.145C676.045 517.127 674.324 519.233 672.098 522.057C673.505 522.057 674.413 522.057 675.318 522.057C704.624 522.057 733.927 522.057 763.234 522.057C763.745 522.057 764.277 522.143 764.767 522.029C765.432 521.875 766.198 521.724 766.685 521.302C767.901 520.246 768.988 519.033 770.127 517.884Z" fill="#DFE9EE" fill-opacity="0.1"/>
<path d="M331.726 262.226C331.726 211.173 331.726 160.344 331.726 109.349C334.58 109.054 337.308 108.761 340.039 108.493C355.442 106.975 370.85 105.488 386.253 103.945C403.592 102.208 420.925 100.41 438.265 98.6701C451.525 97.3398 464.791 96.0773 478.051 94.75C493.45 93.2073 508.847 91.6121 524.25 90.0694C535.468 88.9454 546.696 87.883 557.915 86.759C571.277 85.4195 584.632 84.0307 597.994 82.6942C609.212 81.5702 620.437 80.5017 631.659 79.3777C645.021 78.0412 658.376 76.6555 671.738 75.3159C682.956 74.192 694.181 73.1173 705.403 71.9964C716.724 70.8631 728.041 69.6837 739.361 68.5505C750.478 67.4358 761.599 66.3518 772.719 65.2525C781.084 64.4241 789.448 63.5896 797.81 62.7551C800.082 61.2215 802.04 62.5457 804.035 63.4541C887.434 101.374 970.833 139.3 1054.23 177.222C1055.35 177.731 1056.46 178.254 1057.69 178.824C1057.69 211.136 1057.69 243.408 1057.69 276.059C1056.53 275.837 1055.54 275.772 1054.66 275.446C1053.42 274.99 1052.27 274.285 1051.05 273.774C1010.1 256.68 969.149 239.608 928.215 222.493C926.367 221.72 924.57 221.344 922.562 221.492C908.449 222.517 894.334 223.484 880.218 224.46C870.295 225.147 860.372 225.803 850.45 226.493C836.744 227.444 823.04 228.421 809.334 229.375C799.618 230.053 789.898 230.709 780.182 231.383C766.167 232.356 752.156 233.348 738.145 234.318C728.429 234.992 718.709 235.642 708.99 236.316C695.08 237.283 681.171 238.269 667.258 239.235C657.437 239.916 647.616 240.569 637.798 241.252C623.99 242.213 610.182 243.196 596.374 244.153C586.452 244.843 576.529 245.499 566.606 246.189C552.9 247.14 539.197 248.116 525.49 249.071C515.774 249.749 506.055 250.401 496.338 251.079C482.324 252.055 468.313 253.047 454.302 254.017C444.277 254.709 434.25 255.362 424.226 256.058C410.621 257.004 397.019 257.983 383.418 258.931C373.701 259.609 363.982 260.268 354.265 260.933C347.923 261.367 341.581 261.801 335.236 262.214C334.208 262.282 333.183 262.226 331.726 262.226ZM353.323 257.73C354.072 257.73 354.481 257.755 354.884 257.727C363.169 257.158 371.451 256.579 379.736 256.003C389.246 255.344 398.759 254.691 408.269 254.026C421.766 253.08 435.263 252.113 448.763 251.174C458.889 250.469 469.015 249.81 479.141 249.108C492.945 248.153 506.75 247.171 520.555 246.21C530.373 245.527 540.194 244.88 550.009 244.19C566.166 243.057 582.32 241.881 598.477 240.76C611.771 239.836 625.071 238.98 638.365 238.065C658.613 236.67 678.862 235.254 699.107 233.837C702.657 233.588 706.201 233.286 709.664 233.015C710.363 229.061 710.181 94.4791 709.427 92.0463C590.802 104.543 472.112 117.048 353.326 129.563C353.323 172.391 353.323 214.917 353.323 257.73ZM350.091 126.767C353.761 126.357 357.101 125.963 360.444 125.612C371.047 124.5 381.65 123.413 392.25 122.298C403.26 121.14 414.266 119.961 425.273 118.8C435.771 117.692 446.272 116.601 456.771 115.493C467.574 114.353 478.377 113.193 489.18 112.053C499.78 110.935 510.383 109.842 520.986 108.724C531.789 107.585 542.592 106.424 553.396 105.285C563.996 104.17 574.602 103.077 585.202 101.962C596.109 100.813 607.011 99.6432 617.919 98.4946C628.417 97.3891 638.919 96.3051 649.42 95.1996C660.43 94.0418 671.436 92.8654 682.442 91.7045C690.903 90.8115 699.4 90.1679 707.808 88.9238C710.929 88.4619 713.531 88.8807 716.336 89.9801C790.052 118.933 863.781 147.845 937.509 176.767C938.636 177.21 939.738 177.718 941.114 178.313C941.114 193.688 941.114 209.039 941.114 224.464C978.431 240.021 1015.5 255.473 1052.57 270.919C1053.03 271.113 1053.53 271.233 1054.02 271.369C1054.1 271.391 1054.21 271.301 1054.3 271.249C1054.38 271.2 1054.45 271.135 1054.52 271.076C1054.52 241.052 1054.52 211.028 1054.52 180.921C1053.33 180.342 1052.24 179.791 1051.13 179.286C969.223 142.053 887.308 104.838 805.439 67.522C802.179 66.0346 799.1 65.6713 795.652 66.0808C788.426 66.94 781.176 67.5836 773.935 68.3072C764.856 69.2126 755.777 70.0994 746.701 71.0079C735.279 72.1503 723.857 73.3174 712.435 74.4599C701.318 75.5715 690.198 76.6586 679.08 77.7733C667.862 78.9004 656.649 80.0644 645.43 81.1853C634.211 82.3062 622.986 83.3717 611.768 84.4987C598.511 85.829 585.257 87.2178 572 88.5451C558.639 89.8815 545.271 91.1502 531.912 92.4898C516.614 94.0233 501.323 95.6184 486.024 97.152C472.663 98.4915 459.295 99.751 445.934 101.094C428.598 102.833 411.264 104.638 393.928 106.372C376.488 108.118 359.041 109.805 341.6 111.533C339.383 111.751 337.173 112.056 334.928 112.324C334.928 161.32 334.928 210.092 334.928 259.088C340.023 258.713 344.888 258.352 350.091 257.967C350.091 214.12 350.091 170.559 350.091 126.767ZM713.371 232.488C715.237 232.488 716.954 232.587 718.66 232.473C729.399 231.749 740.134 230.967 750.872 230.222C760.792 229.532 770.718 228.886 780.637 228.187C796.693 227.059 812.745 225.886 828.8 224.771C842.199 223.842 855.601 222.982 868.999 222.062C886.181 220.879 903.36 219.669 920.543 218.468C924.326 216.996 927.565 218.677 930.872 220.18C933.076 221.181 935.36 222.009 937.848 223.01C937.848 208.602 937.848 194.578 937.848 180.327C863.125 151.017 788.38 121.701 713.371 92.2773C713.371 139.238 713.371 185.836 713.371 232.488Z" fill="#DFE9EE" fill-opacity="0.1"/>
<path d="M710.311 329.53C715.428 329.53 720.129 329.511 724.827 329.539C726.363 329.548 727.9 329.681 729.436 329.764C732.936 329.952 733.09 330.099 733.106 333.496C733.14 340.779 733.17 348.061 733.189 355.344C733.297 395.86 733.398 436.372 733.503 476.888C733.503 477.402 733.527 477.913 733.5 478.428C733.404 480.343 732.401 481.476 730.507 481.449C724.765 481.359 719.024 481.211 713.288 480.993C710.887 480.9 710.751 480.654 710.674 478.224C710.65 477.405 710.668 476.583 710.668 475.764C710.668 429.299 710.674 382.834 710.653 336.372C710.656 334.139 710.437 331.916 710.311 329.53ZM713.993 332.378C713.993 381.063 713.993 429.318 713.993 477.843C719.439 478.012 724.716 478.178 729.981 478.345C729.981 429.718 729.981 381.47 729.981 332.997C724.541 332.785 719.452 332.587 713.993 332.378Z" fill="#DFE9EE" fill-opacity="0.1"/>
<path d="M845.044 360.573C847.547 360.056 874.917 364.062 878.183 365.365C878.242 366.258 878.356 367.262 878.365 368.265C878.697 403.74 879.027 439.215 879.344 474.689C879.372 477.775 878.214 479.099 875.135 479.228C866.124 479.607 857.109 479.915 848.092 480.205C846.075 480.269 845.17 479.33 845.05 477.313C845.007 476.599 845.041 475.878 845.041 475.161C845.041 438.146 845.041 401.132 845.041 364.117C845.044 362.91 845.044 361.7 845.044 360.573ZM848.415 363.563C848.415 401.708 848.415 439.261 848.415 477.091C857.725 476.716 866.795 476.352 876.16 475.977C875.609 439.649 875.883 403.648 875.068 367.64C866.016 366.255 857.34 364.927 848.415 363.563Z" fill="#DFE9EE" fill-opacity="0.1"/>
<path d="M144.129 383.114C147.048 382.88 149.785 382.622 152.525 382.452C163.882 381.753 175.243 381.103 186.597 380.401C201.839 379.459 217.082 378.486 232.325 377.531C238.873 377.122 245.421 376.721 251.97 376.333C253.866 376.219 255.489 377.753 255.553 379.788C255.652 382.966 255.692 386.144 255.717 389.325C256.068 434.14 256.412 478.957 256.757 523.772C256.76 524.182 256.782 524.594 256.754 525.004C256.619 527.162 255.532 528.262 253.315 528.317C248.703 528.437 244.088 528.533 239.476 528.582C209.539 528.893 179.599 529.186 149.662 529.484C148.843 529.493 148.015 529.549 147.202 529.481C145.145 529.306 144.576 528.681 144.493 526.583C144.459 525.764 144.483 524.942 144.483 524.123C144.483 479.407 144.489 434.694 144.468 389.978C144.468 387.755 144.255 385.532 144.129 383.114ZM147.848 385.966C147.848 432.933 147.848 479.536 147.848 526.402C183.179 525.992 218.289 525.586 253.666 525.176C253.251 476.463 252.841 428.203 252.425 379.53C217.396 381.685 182.748 383.819 147.848 385.966Z" fill="#DFE9EE" fill-opacity="0.1"/>
</svg>
