<svg width="370" height="302" viewBox="0 0 370 302" fill="none" xmlns="http://www.w3.org/2000/svg">
<path d="M91.915 300C132.838 300 167.42 268.343 167.42 224.599C167.42 177.401 132.838 149.198 91.915 149.198C75.2 149.198 59.6378 155.529 48.1102 164.738C45.8047 157.831 44.652 150.349 44.652 139.988C44.652 93.9419 86.1512 44.4419 134.567 24.2965L123.616 3C40.0409 42.1395 2 108.331 2 184.884C2 203.878 5.45827 236.686 22.1732 262.587C36.5827 285.035 57.3323 300 91.915 300ZM292.494 300C333.994 300 368 268.343 368 224.599C368 177.401 333.994 149.198 292.494 149.198C275.78 149.198 260.794 155.529 248.69 164.738C246.384 157.831 245.231 150.349 245.231 139.988C245.231 93.9419 286.731 44.4419 335.146 24.2965L324.195 3C240.62 42.1395 202.58 108.331 202.58 184.884C202.58 203.878 206.038 236.686 222.753 262.587C237.162 285.035 258.488 300 292.494 300Z" fill="white" stroke="#DFE9EE" stroke-width="4"/>
</svg>
