<svg width="729" height="730" viewBox="0 0 729 730" fill="none" xmlns="http://www.w3.org/2000/svg">
<path d="M675.617 1.99994C575.77 1.99994 491.392 79.2771 491.392 186.06C491.392 301.273 575.77 370.12 675.617 370.12C716.4 370.12 754.37 354.665 782.496 332.184C788.121 349.045 790.934 367.31 790.934 392.601C790.934 505.004 689.68 625.837 571.551 675.014L598.271 727C802.184 631.457 895 469.878 895 283.008C895 236.641 886.562 156.554 845.78 93.3275C810.622 38.5309 759.995 1.99994 675.617 1.99994ZM186.225 1.99994C84.9717 1.99994 2 79.2771 2 186.06C2 301.273 84.9717 370.12 186.225 370.12C227.008 370.12 263.572 354.665 293.104 332.184C298.729 349.045 301.542 367.31 301.542 392.601C301.542 505.004 200.288 625.837 82.1591 675.014L108.879 727C312.792 631.457 405.608 469.878 405.608 283.008C405.608 236.641 397.17 156.554 356.387 93.3275C321.23 38.5309 269.197 1.99994 186.225 1.99994Z" fill="white" stroke="#DFE9EE" stroke-width="4"/>
</svg>
