<?xml version="1.0" encoding="utf-8"?>
<!-- Generator: Adobe Illustrator 22.0.0, SVG Export Plug-In . SVG Version: 6.00 Build 0)  -->
<svg version="1.1" id="Слой_1" xmlns="http://www.w3.org/2000/svg" xmlns:xlink="http://www.w3.org/1999/xlink" x="0px" y="0px"
	 viewBox="0 0 1920 1001" style="enable-background:new 0 0 1920 1001;" xml:space="preserve">
<style type="text/css">
	.st0{fill:#FFFFFF;filter:url(#Adobe_OpacityMaskFilter);}
	.st1{mask:url(#path-1-inside-1_1_);fill:none;stroke:#DFE9EE;stroke-width:8;}
	.st2{fill:#FFFFFF;filter:url(#Adobe_OpacityMaskFilter_1_);}
	.st3{mask:url(#path-2-inside-2_1_);fill:none;stroke:#DFE9EE;stroke-width:8;}
	.st4{fill:#FFFFFF;filter:url(#Adobe_OpacityMaskFilter_2_);}
	.st5{mask:url(#path-3-inside-3_1_);fill:none;stroke:#DFE9EE;stroke-width:8;}
	.st6{fill:#FFFFFF;filter:url(#Adobe_OpacityMaskFilter_3_);}
	.st7{mask:url(#path-4-inside-4_1_);fill:none;stroke:#DFE9EE;stroke-width:8;stroke-opacity:0.4;}
	.st8{fill:#FFFFFF;filter:url(#Adobe_OpacityMaskFilter_4_);}
	.st9{mask:url(#path-5-inside-5_1_);fill:none;stroke:#DFE9EE;stroke-width:8;stroke-opacity:0.36;}
	.st10{fill:#FFFFFF;}
	.st11{fill:#DFE9EE;}
</style>
<defs>
	<filter id="Adobe_OpacityMaskFilter" filterUnits="userSpaceOnUse" x="-285" y="574" width="653" height="330.5">
		<feColorMatrix  type="matrix" values="1 0 0 0 0  0 1 0 0 0  0 0 1 0 0  0 0 0 1 0"/>
	</filter>
</defs>
<mask maskUnits="userSpaceOnUse" x="-285" y="574" width="653" height="330.5" id="path-1-inside-1_1_">
	<path class="st0" d="M364,900.5c0-42.4-8.3-84.3-24.5-123.4c-16.2-39.1-40-74.7-69.9-104.6c-29.9-29.9-65.5-53.7-104.6-69.9
		C125.8,586.3,83.9,578,41.5,578s-84.3,8.3-123.4,24.5c-39.1,16.2-74.7,40-104.6,69.9s-53.7,65.5-69.9,104.6
		c-16.2,39.1-24.5,81.1-24.5,123.4H41.5H364z"/>
</mask>
<path class="st1" d="M364,900.5c0-42.4-8.3-84.3-24.5-123.4c-16.2-39.1-40-74.7-69.9-104.6c-29.9-29.9-65.5-53.7-104.6-69.9
	C125.8,586.3,83.9,578,41.5,578s-84.3,8.3-123.4,24.5c-39.1,16.2-74.7,40-104.6,69.9s-53.7,65.5-69.9,104.6
	c-16.2,39.1-24.5,81.1-24.5,123.4H41.5H364z"/>
<defs>
	<filter id="Adobe_OpacityMaskFilter_1_" filterUnits="userSpaceOnUse" x="-129" y="730" width="341" height="174.5">
		<feColorMatrix  type="matrix" values="1 0 0 0 0  0 1 0 0 0  0 0 1 0 0  0 0 0 1 0"/>
	</filter>
</defs>
<mask maskUnits="userSpaceOnUse" x="-129" y="730" width="341" height="174.5" id="path-2-inside-2_1_">
	<path class="st2" d="M208,900.5c0-21.9-4.3-43.5-12.7-63.7c-8.4-20.2-20.6-38.6-36.1-54s-33.8-27.7-54-36.1
		C85,738.3,63.4,734,41.5,734s-43.5,4.3-63.7,12.7s-38.6,20.6-54,36.1c-15.5,15.5-27.7,33.8-36.1,54c-8.4,20.2-12.7,41.9-12.7,63.7
		H41.5H208z"/>
</mask>
<path class="st3" d="M208,900.5c0-21.9-4.3-43.5-12.7-63.7c-8.4-20.2-20.6-38.6-36.1-54s-33.8-27.7-54-36.1
	C85,738.3,63.4,734,41.5,734s-43.5,4.3-63.7,12.7s-38.6,20.6-54,36.1c-15.5,15.5-27.7,33.8-36.1,54c-8.4,20.2-12.7,41.9-12.7,63.7
	H41.5H208z"/>
<defs>
	<filter id="Adobe_OpacityMaskFilter_2_" filterUnits="userSpaceOnUse" x="-474" y="385" width="1031" height="519.5">
		<feColorMatrix  type="matrix" values="1 0 0 0 0  0 1 0 0 0  0 0 1 0 0  0 0 0 1 0"/>
	</filter>
</defs>
<mask maskUnits="userSpaceOnUse" x="-474" y="385" width="1031" height="519.5" id="path-3-inside-3_1_">
	<path class="st4" d="M553,900.5c0-67.2-13.2-133.7-38.9-195.7c-25.7-62.1-63.4-118.4-110.9-165.9s-103.9-85.2-165.9-110.9
		C175.2,402.2,108.7,389,41.5,389c-67.2,0-133.7,13.2-195.7,38.9c-62.1,25.7-118.4,63.4-165.9,110.9s-85.2,103.9-110.9,165.9
		c-25.7,62.1-38.9,128.6-38.9,195.7H41.5H553z"/>
</mask>
<path class="st5" d="M553,900.5c0-67.2-13.2-133.7-38.9-195.7c-25.7-62.1-63.4-118.4-110.9-165.9s-103.9-85.2-165.9-110.9
	C175.2,402.2,108.7,389,41.5,389c-67.2,0-133.7,13.2-195.7,38.9c-62.1,25.7-118.4,63.4-165.9,110.9s-85.2,103.9-110.9,165.9
	c-25.7,62.1-38.9,128.6-38.9,195.7H41.5H553z"/>
<defs>
	<filter id="Adobe_OpacityMaskFilter_3_" filterUnits="userSpaceOnUse" x="-654" y="205" width="1391" height="699.5">
		<feColorMatrix  type="matrix" values="1 0 0 0 0  0 1 0 0 0  0 0 1 0 0  0 0 0 1 0"/>
	</filter>
</defs>
<mask maskUnits="userSpaceOnUse" x="-654" y="205" width="1391" height="699.5" id="path-4-inside-4_1_">
	<path class="st6" d="M733,900.5c0-90.8-17.9-180.7-52.6-264.6c-34.8-83.9-85.7-160.1-149.9-224.3
		C466.3,347.3,390,296.4,306.1,261.6C222.2,226.9,132.3,209,41.5,209c-90.8,0-180.7,17.9-264.6,52.6
		c-83.9,34.8-160.1,85.7-224.3,149.9c-64.2,64.2-115.1,140.4-149.9,224.3c-34.8,83.9-52.6,173.8-52.6,264.6H41.5H733z"/>
</mask>
<path class="st7" d="M733,900.5c0-90.8-17.9-180.7-52.6-264.6c-34.8-83.9-85.7-160.1-149.9-224.3C466.3,347.3,390,296.4,306.1,261.6
	C222.2,226.9,132.3,209,41.5,209c-90.8,0-180.7,17.9-264.6,52.6c-83.9,34.8-160.1,85.7-224.3,149.9
	c-64.2,64.2-115.1,140.4-149.9,224.3c-34.8,83.9-52.6,173.8-52.6,264.6H41.5H733z"/>
<defs>
	<filter id="Adobe_OpacityMaskFilter_4_" filterUnits="userSpaceOnUse" x="-863" y="-4" width="1809" height="908.5">
		<feColorMatrix  type="matrix" values="1 0 0 0 0  0 1 0 0 0  0 0 1 0 0  0 0 0 1 0"/>
	</filter>
</defs>
<mask maskUnits="userSpaceOnUse" x="-863" y="-4" width="1809" height="908.5" id="path-5-inside-5_1_">
	<path class="st8" d="M942,900.5c0-118.3-23.3-235.4-68.5-344.6c-45.3-109.3-111.6-208.5-195.2-292.1
		c-83.6-83.6-182.9-149.9-292.1-195.2C276.9,23.3,159.8,0,41.5,0C-76.8,0-193.9,23.3-303.1,68.5
		c-109.3,45.3-208.5,111.6-292.1,195.2c-83.6,83.6-149.9,182.9-195.2,292.1C-835.7,665.1-859,782.2-859,900.5H41.5H942z"/>
</mask>
<path class="st9" d="M942,900.5c0-118.3-23.3-235.4-68.5-344.6c-45.3-109.3-111.6-208.5-195.2-292.1
	c-83.6-83.6-182.9-149.9-292.1-195.2C276.9,23.3,159.8,0,41.5,0C-76.8,0-193.9,23.3-303.1,68.5c-109.3,45.3-208.5,111.6-292.1,195.2
	c-83.6,83.6-149.9,182.9-195.2,292.1C-835.7,665.1-859,782.2-859,900.5H41.5H942z"/>
<path class="st10" d="M959,404l230-25l159-19l252-29c94.7,188,254.2,242.8,275,306c26,79-3,273-26,385s-221,9-238,19
	c-13.6,8-158.3,34.7-229,47L728,959V680l231-16V404z"/>
<rect y="897" class="st11" width="728" height="4"/>
<rect y="897" class="st11" width="728" height="4"/>
<path class="st11" d="M682,978.5c11.5-5.1,23-10.1,34.5-15.2c3.3-1.5,6.6-3,10.1-4.5c0-93.7,0-187.2,0-281.1
	c1.6-0.3,3.1-0.7,4.5-0.8c10.3-0.8,20.6-1.5,30.9-2.3c15.1-1.1,30.2-2.3,45.3-3.4c14.2-1,28.4-2,42.5-3.1
	c14.4-1.1,28.8-2.2,43.2-3.3c10.9-0.8,21.8-1.6,32.7-2.4c9.7-0.7,19.5-1.4,29.2-2.2c0.3,0,0.7-0.2,1.3-0.4c0-86.1,0-172.2,0-258.3
	c0.7-0.3,1.1-0.6,1.5-0.6c16-1.8,32-3.4,48-5.2c16-1.8,32-3.6,48-5.4c16-1.8,32-3.4,48-5.2c16-1.8,32-3.6,48-5.4
	c13.9-1.5,27.8-3,41.7-4.5c16-1.8,32-3.6,48-5.4c13.9-1.5,27.8-3,41.7-4.5c16-1.8,32-3.6,48-5.4c13.9-1.5,27.8-3,41.7-4.5
	c16-1.8,32-3.6,48-5.4c13.9-1.5,27.8-3,41.7-4.5c16-1.8,32-3.6,48-5.4c13.9-1.5,27.8-3,41.7-4.5c15.3-1.7,30.6-3.3,45.9-5.1
	c1.3-0.2,3.3,0.4,3.6-1.9c0.2,0,0.5,0,0.7,0c1.1,0.7,2.1,1.5,3.2,2.1c106.9,58.4,213.8,116.8,320.7,175.2c1.4,0.8,2.9,1.5,4.4,2.3
	c-0.2,10.6-0.4,21.3-0.6,32c-0.4,17-0.8,34.1-1.2,51.1c-0.6,27.4-1.3,54.7-1.9,82.1c-0.1,2.4,0,4.7-0.1,7c-0.1,1.4-0.4,2.7-0.6,4.1
	c-3.4,0.2-6.4,0.5-9.5,0.7c-15.4,0.8-30.8,1.5-46.1,2.4c-24.6,1.3-49.3,2.7-73.9,3.9c-2.3,0.1-3.5,1-4.6,2.9
	c-4.5,7.8-9.2,15.6-13.7,23.4c-1.3,2.2-2.3,4.6-3.1,7c-7.2,20.3-14.4,40.7-21.6,61.1c-0.4,1.2-0.8,2.4-1.4,4.2
	c98.8-2.7,197.2-5.6,295.8-8.3c0.3,1.1,0.6,2.1,0.9,3.2c-1.5,0.7-2.8,1.3-4,1.9c-68.4,30.6-136.8,61.2-205.2,91.8
	c-3.1,1.4-5.7,3.2-8,5.8c-13.4,14.8-27.1,29.4-40.7,44c-3.8,4.1-7.7,8.2-11.5,12.4c-1.1,1.3-1.9,2.8-3.3,4.8c-0.7,0-2.2,0-3.8,0
	c-73.3,0-146.7,0-220-0.1c-2.5,0-4.8,0.4-7.2,1.2c-18.7,6.2-37.5,12.3-56.2,18.4c-1.3,0.4-2.7,0.7-4.1,0.7
	c-35.8,0.1-71.7,0.2-107.6,0.3c-1.1,0-2.1,0-3.3,0c-0.3-1.1-0.6-2-1-3.4c16.4-5.5,32.7-10.9,49-16.4c0-0.2-0.1-0.5-0.1-0.7
	c-1,0-2,0-2.9,0c-10,0-20-0.1-30,0c-1.9,0-4,0.4-5.8,1c-21.2,7.9-42.5,15.8-63.6,23.9c-3.6,1.4-7.1,2-10.9,2.1
	c-30.6,0.4-61.1,0.8-91.7,1.2c-68,0.9-136.1,1.9-204.1,2.8c-32.7,0.5-65.3,0.9-98,1.4c-68.4,1-136.8,1.9-205.2,2.9
	c-2.2,0-4.4,0.3-6.6,0.5c-5.9,0-11.8,0-17.6,0c-0.2-1.1,0-2.4-1.4-2.8C682,978.9,682,978.7,682,978.5z M1921.3,680.2
	c0-1.9,0-3.3,0-4.7c0.3-13.4,0.6-26.8,0.9-40.2c0.9-40.3,1.8-80.6,2.8-120.9c0.1-2.8-0.8-4.1-3.2-5.4
	c-105.9-57.8-211.8-115.6-317.6-173.5c-2.1-1.1-4-1.6-6.3-1.1c-2.5,0.5-5.1,0.6-7.7,0.9c-13.9,1.5-27.8,3-41.7,4.5
	c-16,1.8-32,3.6-48,5.4c-13.9,1.5-27.8,3-41.7,4.5c-16,1.8-32,3.6-48,5.4c-13.9,1.5-27.8,3-41.7,4.5c-16,1.8-32,3.6-48,5.4
	c-13.9,1.5-27.8,3-41.7,4.5c-16,1.8-32,3.6-48,5.4c-16,1.8-32,3.5-48,5.2c-16,1.8-32,3.6-48,5.4c-16,1.8-32,3.4-48,5.2
	c-20.2,2.2-40.4,4.5-60.6,6.8c-18.2,2-36.4,3.9-54.6,5.9c-3.9,0.4-7.9,1-11.9,1.4c0,85.2,0,170.1,0,255.2c2.1-0.1,4-0.1,5.9-0.3
	c9.5-0.7,19-1.4,28.5-2.1c9.8-0.7,19.7-1.4,29.5-2.2c17.3-1.3,34.7-2.7,52-3.9c14.4-1.1,28.8-2,43.2-3.1c17.4-1.3,34.7-2.7,52-3.9
	c14.4-1.1,28.8-2,43.3-3.1c17.3-1.3,34.7-2.6,52-3.9c14.4-1.1,28.8-2,43.3-3.1c20.5-1.5,41-3.1,61.5-4.6c17.6-1.3,35.2-2.5,52.7-3.8
	c2.8-0.2,5.9,0.2,8.3-0.9c3-1.3,5.4-0.7,8.1,0c12,3.4,24,6.6,35.9,10.1c4.7,1.4,9.3,2,14.2,1.6c14.5-1,29.1-1.7,43.6-2.5
	c19.4-1.1,38.7-2.2,58.1-3.3c13.6-0.8,27.2-1.5,40.8-2.3c18.3-1.1,36.6-2.2,54.9-3.2c15.7-0.9,31.4-1.8,47.2-2.7
	c3.9-0.2,7.6,0,11.4,1.2c50.6,16.5,101.2,32.8,151.8,49.1C1905.9,675.3,1913.3,677.7,1921.3,680.2z M762,744.4c4.5,0,8.3,0.2,12,0
	c13.8-0.7,27.7-1.6,41.5-2.4c18.2-1.1,36.4-2.2,54.5-3.3c13.1-0.8,26.3-1.5,39.4-2.3c17.8-1.1,35.7-2.2,53.5-3.3
	c13.4-0.8,26.7-1.5,40.1-2.4c17.8-1.1,35.7-2.2,53.5-3.3c13.5-0.8,27-1.6,40.5-2.4c18.2-1.1,36.4-2.2,54.5-3.3
	c13.1-0.8,26.3-1.5,39.4-2.3c17.8-1.1,35.7-2.2,53.5-3.3c13.4-0.8,26.8-1.6,40.1-2.4c18.4-1.1,36.8-2.2,55.2-3.4
	c13.7-0.8,27.4-1.7,41.2-2.5c2.8-0.2,5.5-0.3,8.7-0.4c-0.7,78.6-1.4,156.7-2.1,234.8c13.8,0,27.1,0,40.8,0
	c1.7-104.6,3.5-209,5.2-313.5c-1.2,0-1.9,0-2.6,0c-10.2,0.7-20.4,1.5-30.6,2.3c-14.5,1.1-29.1,2.2-43.6,3.3
	c-10.9,0.8-21.8,1.6-32.7,2.4c-14.7,1.1-29.3,2.2-43.9,3.3c-10.8,0.8-21.6,1.6-32.3,2.4c-14.7,1.1-29.3,2.2-43.9,3.3
	c-10.8,0.8-21.6,1.6-32.3,2.4c-17.3,1.3-34.7,2.6-52,3.9c-14.3,1.1-28.6,2-42.9,3.1c-17.3,1.3-34.7,2.6-52,3.9
	c-14.4,1.1-28.8,2-43.2,3.1c-20.4,1.5-40.8,3.1-61.2,4.6c-18.9,1.4-37.7,2.8-56.6,4.2c-22.4,1.7-44.8,3.3-67.1,5
	c-20.7,1.5-41.5,3-62.2,4.5c-1.3,0.1-2.5,0.3-3.7,0.5c-0.7,4.9-0.5,273.2,0.3,276.1c10.3-4.6,20.5-9.1,30.7-13.7c0-1.9,0-3.4,0-5
	c0-43.2,0-86.5,0-129.7c0-20.1,0-40.2,0-60.3C761.6,746.9,761.9,745.6,762,744.4z M1385.8,735.5c-1.3,0-2.2,0-3.1,0
	c-17,1.1-34,2.2-51,3.2c-12.7,0.8-25.3,1.5-38,2.3c-16.6,1.1-33.3,2.2-49.9,3.2c-13.1,0.8-26.3,1.6-39.4,2.4
	c-20.3,1.3-40.6,2.6-60.8,3.9c-16.9,1.1-33.8,2.1-50.7,3.1c-1,0.1-2,0.3-3,0.5c0,62.8,0,125.4,0,188.1c98.1,0,195.9,0,294.1,0
	C1384.6,873.2,1385.2,804.5,1385.8,735.5z M1488.1,886.1c2.3,0,3.9,0,5.5,0c51-0.9,102-1.9,153-2.8c21-0.4,42.1-0.8,63.1-1.2
	c4.2-0.1,4.2-0.1,5.7-4.2c10.8-30.4,21.6-60.8,32.3-91.2c7.3-20.6,14.6-41.2,21.9-61.7c0.4-1.2,0.8-2.4,1.1-3.6
	c-3.3-1.7-330.3-93-333.4-92.9c-1.7,104-3.5,208-5.2,311.9c0.2,0.1,0.5,0.2,0.7,0.3C1451.3,922.4,1469.8,904.2,1488.1,886.1z
	 M1718,881.4c1.4,0.1,2.3,0.2,3.2,0.2c34.1-0.4,68.1-0.8,102.2-1.3c1.9,0,4-0.5,5.7-1.3c14.3-6.3,28.5-12.7,42.8-19.1
	c53.3-23.8,106.5-47.7,159.8-71.5c1.1-0.5,2.2-1,3.3-1.5c-0.1-0.2-0.2-0.4-0.3-0.7c-95.3,2.7-190.6,5.4-285.9,8.1
	C1738.5,823.5,1728.3,852.3,1718,881.4z M694.4,977.1c0,0.3,0.1,0.6,0.1,0.8c1.3,0,2.5,0,3.8,0c51.1-0.7,102.3-1.4,153.4-2.1
	c50.3-0.7,100.6-1.4,150.9-2.1c67.6-0.9,135.2-1.9,202.7-2.8c34.6-0.5,69.1-1,103.7-1.5c1.4,0,2.8-0.2,4.1-0.7
	c18.8-7,37.6-14.1,56.4-21.2c0.7-0.3,1.4-0.7,2-1c-1.5-0.5-2.9-0.5-4.2-0.5c-84.6,0-169.3,0-253.9,0c-115.3,0-230.6-0.1-346,0
	c-1.9,0-4,0.4-5.7,1.2c-9.5,4.1-18.9,8.3-28.3,12.6c-1.1,0.5-2.1,1.3-3.2,2c-0.5,0.3-1,0.5-1.5,0.7c-1.4,0.5-2.9,0.8-4.3,1.4
	c-7.7,3.4-15.5,6.9-23.2,10.3C698.9,975.1,696.7,976.1,694.4,977.1z M765.4,748.3c0,65.1,0,129.4,0,193.8c24.7,0,49.2,0,73.8,0
	c0-59.4,0-118.6,0-177.9C814.6,758.9,790.2,753.6,765.4,748.3z M1031.7,752.3c-1.7,0-3.2-0.1-4.7,0c-14.8,0.9-29.6,1.7-44.3,2.6
	c-13.5,0.8-27,1.5-40.5,2.3c-19.2,1.1-38.5,2.3-57.7,3.4c-12.9,0.8-25.8,1.5-38.7,2.2c-0.9,0.1-1.8,0.3-2.6,0.5
	c-0.8,7.1-0.4,176.3,0.3,178.8c62.7,0,125.4,0,188.1,0C1031.7,878.8,1031.7,815.6,1031.7,752.3z M1549.5,942.5c1.8,0,2.7,0,3.6,0
	c71.8,0,143.6,0,215.4,0.1c2,0,3.5-0.5,4.9-2.1c16.7-18,33.4-36,50.1-54c0.6-0.6,1.1-1.4,2.1-2.6c-2,0-3.4,0-4.7,0
	c-36.8,0.6-73.7,1.3-110.5,1.9c-33.8,0.6-67.7,1.2-101.5,1.7c-2.6,0-4.4,0.8-6.2,2.6c-16.8,16.6-33.7,33.1-50.5,49.7
	C1551.4,940.5,1550.8,941.2,1549.5,942.5z M1912.4,682c0.1-0.2,0.1-0.5,0.2-0.7c-1.2-0.4-2.3-0.8-3.4-1.2
	c-52.7-17-105.5-34-158.1-51.1c-6.2-2-12.3-3.3-18.9-2.7c-10.4,1-20.9,1.2-31.3,1.8c-19.6,1.1-39.2,2.3-58.8,3.4
	c-13.5,0.8-27,1.5-40.5,2.3c-18.5,1.1-37.1,2.2-55.6,3.2c-14.3,0.8-28.6,1.6-42.9,2.4c-2,0.1-4.1,0.4-6.1,0.6
	c0.8,0.8,1.7,1.1,2.6,1.3c10.3,2.9,20.6,5.7,30.9,8.6c3,0.9,5.9,1.1,9,1.1c29.8-0.7,59.7-1.3,89.5-2c1.6,0,3.3,0.2,4.8,0.7
	c44.7,12.8,89.3,25.7,134,38.5c2.4,0.7,5.1,1.1,7.6,0.9c14.4-0.6,28.9-1.4,43.3-2.2c26.2-1.4,52.3-2.8,78.5-4.2
	C1902.2,682.6,1907.3,682.3,1912.4,682z M1385.8,711.6c-0.6-0.1-1-0.2-1.3-0.2c-12.1,0.7-24.2,1.4-36.3,2.2
	c-17.8,1.1-35.7,2.2-53.5,3.3c-13.4,0.8-26.7,1.6-40.1,2.4c-18.3,1.1-36.6,2.2-54.9,3.3c-13,0.8-26,1.5-39.1,2.3
	c-18,1.1-35.9,2.2-53.8,3.3c-13,0.8-26,1.5-39.1,2.3c-0.9,0.1-1.8,0.3-2.8,0.5c0.3,0.5,0.4,0.9,0.7,1.1c6.8,5.8,13.5,11.7,20.4,17.4
	c0.8,0.6,2.1,0.9,3.2,0.8c4.2-0.2,8.4-0.5,12.7-0.8c22.4-1.4,44.8-2.8,67.2-4.2c26.3-1.7,52.5-3.3,78.8-5
	c18.5-1.2,37.1-2.3,55.6-3.5c24.5-1.5,49-3,73.6-4.5c2.9-0.2,5.8-0.5,8.8-0.8C1385.8,724.7,1385.8,718.3,1385.8,711.6z M1086,942.2
	c0-1.7,0-3.2,0-4.7c0-50.6,0-101.3,0-151.9c0-9.5,0-19,0-28.6c0-1.9-0.5-3.3-2-4.5c-6.7-5.6-13.2-11.3-19.9-16.9
	c-0.6-0.5-1.4-0.9-2.3-1.5c0,69.6,0,138.7,0,208.1C1069.9,942.2,1077.7,942.2,1086,942.2z M1787.5,692.2c-2.2,0.2-3.6,0.3-5,0.4
	c-5.4,0.1-10.7,0.8-16.1-0.7c-44.3-12.9-88.6-25.7-132.9-38.4c-1.9-0.5-3.9-0.8-5.9-0.7c-9.8,0.1-19.5,0.4-29.3,0.6
	c-15.3,0.3-30.5,0.6-45.8,1c-1.1,0-2.4-0.3-3.7,0.9c74.7,20.9,149,41.7,223.5,62.5C1777.4,709.3,1782.2,701.1,1787.5,692.2z
	 M1057.6,942.2c0.7-4.2,0.6-208.6-0.2-211.1c-3.6,0.2-7.2,0.4-10.9,0.6c-3.6,0.2-7.2,0.5-10.8,0.8c0,70.1,0,139.8,0,209.7
	C1043.2,942.2,1050.4,942.2,1057.6,942.2z M1031.7,748.4c0-5.4,0-10.5,0-15.7c-6.4,0.4-12.5,0.7-18.6,1.1
	c-13.4,0.8-26.7,1.6-40.1,2.4c-17.9,1.1-35.9,2.2-53.8,3.3c-13.4,0.8-26.7,1.6-40.1,2.4c-17.7,1.1-35.4,2.2-53.1,3.2
	c-13.3,0.8-26.5,1.5-39.8,2.3c-0.9,0.1-1.8,0.3-2.7,0.5c0.4,0.6,0.8,0.7,1.1,0.8c13.2,2.8,26.4,5.8,39.6,8.5
	c6.1,1.3,12.1,2.9,18.7,2.4c20.7-1.6,41.5-2.6,62.3-3.8c14.4-0.8,28.9-1.6,43.3-2.4c23.8-1.4,47.6-2.8,71.4-4.2
	C1023.7,749,1027.5,748.7,1031.7,748.4z M1385.3,962.4c0,0.2,0.1,0.3,0.1,0.5c0.8,0,1.5,0.1,2.3,0.1c31.5-0.1,63-0.1,94.4-0.2
	c1.4,0,2.8-0.2,4.1-0.6c14.9-4.9,29.9-9.8,44.8-14.7c0.6-0.2,1.2-0.5,2.5-1.2c-1.3-0.1-1.7-0.1-2.1-0.1c-32,0-63.9,0-95.8,0
	c-1.4,0-2.8,0.3-4.1,0.7c-14.7,4.9-29.4,9.8-44.1,14.7C1386.8,961.8,1386.1,962.1,1385.3,962.4z M1555.8,930.7c-2,0-3.2,0-4.5,0
	c-31,0-62.1,0-93.1,0c-3.3,0-6.9-0.8-9.8,0.4c-2.9,1.2-5.1,4.4-7.5,6.8c-1.4,1.3-2.7,2.7-4,4.1c1.5,0.6,2.7,0.6,3.8,0.6
	c33.3,0,66.5,0,99.8,0c0.7,0,1.4,0.1,2.1,0c0.9-0.2,1.9-0.4,2.5-0.9C1548.5,938.2,1551.8,934.7,1555.8,930.7z M1598.9,888.7
	c-0.1-0.3-0.3-0.5-0.4-0.8c-1.2,0-2.3,0-3.5,0c-19.6,0.3-39.2,0.6-58.8,1c-14.7,0.3-29.3,0.5-44,0.8c-1,0-2.3,0-3,0.6
	c-2.2,1.9-4.6,3.8-6.6,6.9c1.8,0,3,0,4.3,0c33.1,0,66.2,0,99.3,0c0.9,0,1.9,0.1,2.8,0c0.7-0.1,1.4-0.3,1.9-0.7
	C1593.7,894,1596.3,891.3,1598.9,888.7z M1461.5,917.7c1,0.2,1.3,0.3,1.6,0.3c34.7,0,69.3,0,104,0c0.8,0,1.8,0,2.3-0.4
	c2.5-2.2,4.9-4.4,7.5-7.5c-1.7,0-2.6,0-3.5,0c-33.7,0-67.5,0-101.2,0c-0.7,0-1.4-0.1-2.1,0c-0.7,0.1-1.4,0.4-1.9,0.8
	C1466.1,912.9,1464,915.1,1461.5,917.7z M1473.3,905.4c0.2,0.3,0.4,0.7,0.6,1c1.3,0,2.5,0,3.8,0c17.3,0,34.5,0,51.8,0
	c16.1,0,32.2,0,48.3,0c1.2,0,2.8,0,3.7-0.6c1.7-1.1,3-2.8,5-4.7c-1.9-0.1-3-0.2-4.1-0.2c-33.5,0-66.9,0-100.4,0
	c-0.7,0-1.4-0.1-2.1,0c-0.8,0.2-1.6,0.4-2.2,0.8C1476.1,902.8,1474.7,904.1,1473.3,905.4z M1564.6,922.3c-0.1-0.3-0.2-0.5-0.3-0.8
	c-1.2,0-2.3,0-3.4,0c-33.2,0-66.5,0.1-99.7-0.1c-4.3,0-6.3,2.4-8.9,5.6c1.6,0,2.6,0,3.7,0c33.6,0,67.2,0,100.8,0
	c0.6,0,1.2,0.1,1.8,0c0.8-0.2,1.6-0.3,2.2-0.8C1562.1,925,1563.3,923.6,1564.6,922.3z"/>
<path class="st11" d="M1062.2,629.4c0-58.5,0-116.7,0-175.1c3.3-0.3,6.4-0.7,9.5-1c17.7-1.7,35.3-3.4,53-5.2c19.9-2,39.7-4,59.6-6
	c15.2-1.5,30.4-3,45.6-4.5c17.7-1.8,35.3-3.6,52.9-5.4c12.9-1.3,25.7-2.5,38.6-3.8c15.3-1.5,30.6-3.1,45.9-4.7
	c12.9-1.3,25.7-2.5,38.6-3.8c15.3-1.5,30.6-3.1,45.9-4.7c12.8-1.3,25.7-2.5,38.6-3.8c13-1.3,25.9-2.6,38.9-3.9
	c12.7-1.3,25.5-2.5,38.2-3.8c9.6-0.9,19.2-1.9,28.8-2.9c2.6-1.8,4.8-0.2,7.1,0.8c95.6,43.4,191.2,86.9,286.8,130.3
	c1.3,0.6,2.6,1.2,4,1.8c0,37,0,74,0,111.4c-1.3-0.3-2.5-0.3-3.5-0.7c-1.4-0.5-2.7-1.3-4.1-1.9c-46.9-19.6-93.9-39.1-140.8-58.7
	c-2.1-0.9-4.2-1.3-6.5-1.1c-16.2,1.2-32.3,2.3-48.5,3.4c-11.4,0.8-22.7,1.5-34.1,2.3c-15.7,1.1-31.4,2.2-47.1,3.3
	c-11.1,0.8-22.3,1.5-33.4,2.3c-16.1,1.1-32.1,2.3-48.2,3.4c-11.1,0.8-22.3,1.5-33.4,2.3c-15.9,1.1-31.9,2.2-47.8,3.3
	c-11.3,0.8-22.5,1.5-33.8,2.3c-15.8,1.1-31.7,2.2-47.5,3.3c-11.4,0.8-22.7,1.5-34.1,2.3c-15.7,1.1-31.4,2.2-47.1,3.3
	c-11.1,0.8-22.3,1.5-33.4,2.3c-16.1,1.1-32.1,2.3-48.2,3.4c-11.5,0.8-23,1.5-34.5,2.3c-15.6,1.1-31.2,2.2-46.8,3.3
	c-11.1,0.8-22.3,1.5-33.4,2.3c-7.3,0.5-14.5,1-21.8,1.5C1065,629.5,1063.9,629.4,1062.2,629.4z M1086.9,624.3c0.9,0,1.3,0,1.8,0
	c9.5-0.7,19-1.3,28.5-2c10.9-0.8,21.8-1.5,32.7-2.3c15.5-1.1,30.9-2.2,46.4-3.3c11.6-0.8,23.2-1.6,34.8-2.4
	c15.8-1.1,31.6-2.2,47.5-3.3c11.3-0.8,22.5-1.5,33.8-2.3c18.5-1.3,37-2.6,55.6-3.9c15.2-1.1,30.5-2,45.7-3.1
	c23.2-1.6,46.4-3.2,69.6-4.8c4.1-0.3,8.1-0.6,12.1-0.9c0.8-4.5,0.6-158.7-0.3-161.5c-135.9,14.3-272,28.6-408.1,43
	C1086.9,526.5,1086.9,575.2,1086.9,624.3z M1083.2,474.2c4.2-0.5,8-0.9,11.9-1.3c12.2-1.3,24.3-2.5,36.5-3.8
	c12.6-1.3,25.2-2.7,37.8-4c12-1.3,24.1-2.5,36.1-3.8c12.4-1.3,24.8-2.6,37.2-3.9c12.2-1.3,24.3-2.5,36.4-3.8
	c12.4-1.3,24.8-2.6,37.1-3.9c12.2-1.3,24.3-2.5,36.5-3.8c12.5-1.3,25-2.7,37.5-4c12-1.3,24.1-2.5,36.1-3.8c12.6-1.3,25.2-2.7,37.8-4
	c9.7-1,19.4-1.8,29.1-3.2c3.6-0.5,6.6,0,9.8,1.2c84.5,33.2,169,66.3,253.5,99.4c1.3,0.5,2.6,1.1,4.1,1.8c0,17.6,0,35.2,0,52.9
	c42.8,17.8,85.3,35.5,127.7,53.2c0.5,0.2,1.1,0.4,1.7,0.5c0.1,0,0.2-0.1,0.3-0.1c0.1-0.1,0.2-0.1,0.3-0.2c0-34.4,0-68.8,0-103.3
	c-1.4-0.7-2.6-1.3-3.9-1.9c-93.9-42.7-187.8-85.3-281.6-128c-3.7-1.7-7.3-2.1-11.2-1.7c-8.3,1-16.6,1.7-24.9,2.6
	c-10.4,1-20.8,2.1-31.2,3.1c-13.1,1.3-26.2,2.6-39.3,4c-12.7,1.3-25.5,2.5-38.2,3.8c-12.9,1.3-25.7,2.6-38.6,3.9
	c-12.8,1.3-25.7,2.5-38.6,3.8c-15.2,1.5-30.4,3.1-45.6,4.6c-15.3,1.5-30.6,3-45.9,4.5c-17.5,1.8-35.1,3.6-52.6,5.3
	c-15.3,1.5-30.6,3-46,4.5c-19.9,2-39.7,4.1-59.6,6c-20,2-40,3.9-60,5.9c-2.5,0.3-5.1,0.6-7.7,0.9c0,56.1,0,112,0,168.1
	c5.8-0.4,11.4-0.8,17.4-1.3C1083.2,574.3,1083.2,524.4,1083.2,474.2z M1499.6,595.3c2.1,0,4.1,0.1,6.1,0c12.3-0.8,24.6-1.7,36.9-2.6
	c11.4-0.8,22.8-1.5,34.1-2.3c18.4-1.3,36.8-2.6,55.2-3.9c15.4-1.1,30.7-2,46.1-3.1c19.7-1.4,39.4-2.7,59.1-4.1c4.3-1.7,8,0.2,11.8,2
	c2.5,1.1,5.1,2.1,8,3.2c0-16.5,0-32.6,0-48.9c-85.6-33.6-171.3-67.2-257.3-100.9C1499.6,488.5,1499.6,541.9,1499.6,595.3z"/>
<path class="st11" d="M1496.1,706.5c5.9,0,11.3,0,16.6,0c1.8,0,3.5,0.2,5.3,0.3c4,0.2,4.2,0.4,4.2,4.3c0,8.3,0.1,16.7,0.1,25
	c0.1,46.4,0.2,92.8,0.4,139.2c0,0.6,0,1.2,0,1.8c-0.1,2.2-1.3,3.5-3.4,3.5c-6.6-0.1-13.2-0.3-19.7-0.5c-2.8-0.1-2.9-0.4-3-3.2
	c0-0.9,0-1.9,0-2.8c0-53.2,0-106.5,0-159.7C1496.5,711.8,1496.2,709.2,1496.1,706.5z M1500.3,709.8c0,55.8,0,111.1,0,166.6
	c6.3,0.2,12.3,0.4,18.3,0.6c0-55.7,0-111,0-166.5C1512.4,710.2,1506.6,710,1500.3,709.8z"/>
<path class="st11" d="M1650.5,742.1c2.9-0.6,34.2,4,38,5.5c0.1,1,0.2,2.2,0.2,3.3c0.4,40.6,0.8,81.3,1.1,121.9
	c0,3.5-1.3,5.1-4.8,5.2c-10.3,0.4-20.7,0.8-31,1.1c-2.3,0.1-3.3-1-3.5-3.3c-0.1-0.8,0-1.6,0-2.5c0-42.4,0-84.8,0-127.2
	C1650.5,744.8,1650.5,743.4,1650.5,742.1z M1654.4,745.5c0,43.7,0,86.7,0,130.1c10.7-0.4,21.1-0.8,31.8-1.3
	c-0.6-41.6-0.3-82.9-1.3-124.1C1674.5,748.6,1664.6,747.1,1654.4,745.5z"/>
<path class="st11" d="M847.2,767.9c3.3-0.3,6.5-0.6,9.6-0.8c13-0.8,26-1.5,39-2.3c17.5-1.1,34.9-2.2,52.4-3.3
	c7.5-0.5,15-0.9,22.5-1.4c2.2-0.1,4,1.6,4.1,4c0.1,3.6,0.2,7.3,0.2,10.9c0.4,51.3,0.8,102.7,1.2,154c0,0.5,0,0.9,0,1.4
	c-0.2,2.5-1.4,3.7-3.9,3.8c-5.3,0.1-10.6,0.2-15.9,0.3c-34.3,0.4-68.6,0.7-102.9,1c-0.9,0-1.9,0.1-2.8,0c-2.4-0.2-3-0.9-3.1-3.3
	c0-0.9,0-1.9,0-2.8c0-51.2,0-102.5,0-153.7C847.6,773.2,847.3,770.7,847.2,767.9z M851.4,771.2c0,53.8,0,107.2,0,160.9
	c40.5-0.5,80.7-0.9,121.3-1.4c-0.5-55.8-0.9-111.1-1.4-166.9C931.2,766.3,891.4,768.7,851.4,771.2z"/>
</svg>
