<svg width="22" height="22" viewBox="0 0 22 22" fill="none" xmlns="http://www.w3.org/2000/svg">
<path d="M16.4505 0H5.5498C2.48943 0 0 2.48977 0 5.5498V16.4505C0 19.5109 2.48943 22 5.5498 22H16.4505C19.5109 22 22 19.5109 22 16.4505V5.5498C22 2.48977 19.5109 0 16.4505 0ZM19.6061 16.4505C19.6061 18.1907 18.1903 19.6064 16.4505 19.6064H5.5498C3.81003 19.6064 2.39427 18.1907 2.39427 16.4505V5.5498C2.39427 3.81003 3.81003 2.39461 5.5498 2.39461H16.4505C18.1903 2.39461 19.6061 3.81003 19.6061 5.5498V16.4505Z" fill="#DB3229"/>
<path d="M16.7039 6.51852C16.0299 6.51852 15.4815 5.9703 15.4815 5.29614C15.4815 4.62229 16.0299 4.07407 16.7039 4.07407C17.3778 4.07407 17.9259 4.62229 17.9259 5.29614C17.9259 5.9703 17.3778 6.51852 16.7039 6.51852Z" fill="#DB3229"/>
<path d="M10.9997 5.7037C8.07975 5.7037 5.7037 8.0795 5.7037 10.9998C5.7037 13.9202 8.07975 16.2963 10.9997 16.2963C13.9202 16.2963 16.2963 13.9202 16.2963 10.9998C16.2963 8.07982 13.9202 5.7037 10.9997 5.7037ZM10.9997 14.0589C9.31416 14.0589 7.94139 12.6864 7.94139 10.9998C7.94139 9.31395 9.31416 7.9421 10.9997 7.9421C12.6862 7.9421 14.058 9.31395 14.058 10.9998C14.058 12.6864 12.6862 14.0589 10.9997 14.0589Z" fill="#DB3229"/>
</svg>
