<svg width="21" height="20" viewBox="0 0 21 20" fill="none" xmlns="http://www.w3.org/2000/svg">
<path d="M0 6.48649H4.42105V20H0V6.48649Z" fill="#DB3229"/>
<path d="M2.44375 4.86486H2.4729C4.01486 4.86486 4.97369 3.78354 4.97369 2.43203C4.94453 1.05073 4.01486 0 2.5018 0C0.989008 0 0 1.05073 0 2.43203C0 3.78354 0.961131 4.86486 2.44375 4.86486Z" fill="#DB3229"/>
<path d="M11.7106 20V12.3309C11.7106 11.9195 11.7417 11.5117 11.8609 11.2183C12.1884 10.3969 12.9316 9.54886 14.1826 9.54886C15.8204 9.54886 16.4744 10.8084 16.4744 12.6534V19.9997H21V12.1255C21 7.90798 18.7676 5.94595 15.7895 5.94595C13.3854 5.94595 12.3119 7.28073 11.7106 8.21407V8.25897H11.681C11.6888 8.24418 11.7017 8.22913 11.7106 8.21407V6.26842H7.1842C7.24494 7.55645 7.1842 19.9997 7.1842 19.9997L11.7106 20Z" fill="#DB3229"/>
</svg>
