<svg viewBox="0 0 50 47" fill="none" xmlns="http://www.w3.org/2000/svg">
<path d="M49.137 19.1621C48.8152 20.2933 48.0131 21.0025 47.0874 21.6647C43.6404 24.1289 40.2294 26.6414 36.7923 29.118C36.4198 29.3865 36.3257 29.5994 36.4792 30.0623C37.8889 34.3298 39.2665 38.6085 40.6502 42.8847C41.1131 44.3142 40.7418 45.6373 39.6712 46.422C38.5684 47.2302 37.1797 47.1844 35.9495 46.2908C32.1721 43.5469 28.3959 40.8017 24.5715 38.0206C23.4774 38.8127 22.382 39.6048 21.2879 40.3982C18.5415 42.3921 15.8062 44.3996 13.0487 46.3774C11.2144 47.6931 8.81455 46.8304 8.35166 44.6645C8.23408 44.1137 8.30958 43.4639 8.48162 42.9181C9.83564 38.6333 11.2355 34.3633 12.6217 30.0883C12.6848 29.8952 12.743 29.7009 12.811 29.4781C10.8369 28.0412 8.87767 26.6129 6.91595 25.1871C5.08542 23.8566 3.25365 22.5298 1.42312 21.1993C0.20277 20.3119 -0.262598 19.0544 0.143361 17.7573C0.541895 16.4837 1.68551 15.7003 3.17692 15.699C7.66351 15.6953 12.1501 15.6879 16.6367 15.7114C17.1689 15.7139 17.3731 15.5394 17.5291 15.0505C18.9103 10.731 20.3077 6.41767 21.7236 2.11054C22.304 0.343128 24.1469 -0.471266 25.7931 0.278768C26.626 0.657499 27.1458 1.31347 27.4268 2.18356C28.8105 6.45975 30.2153 10.7285 31.578 15.0109C31.755 15.5691 32.0025 15.7151 32.5669 15.7114C36.848 15.6854 41.1279 15.6978 45.4091 15.6978C47.6319 15.6978 48.3114 16.1496 49.1345 18.1732C49.137 18.5036 49.137 18.8328 49.137 19.1621ZM10.5374 17.6756C8.15116 17.6756 5.76367 17.6818 3.37742 17.6719C2.81056 17.6694 2.28702 17.7226 2.07414 18.3514C1.85879 18.9851 2.24866 19.3353 2.71031 19.6695C6.60529 22.4939 10.4904 25.3319 14.3891 28.1501C14.9423 28.5499 15.0908 29.0091 14.8792 29.6403C14.4559 30.9052 14.0512 32.175 13.639 33.4437C12.5424 36.8201 11.4508 40.1977 10.3431 43.5691C10.1822 44.058 10.2255 44.4776 10.6278 44.7895C11.0585 45.1237 11.509 45.0494 11.9298 44.7251C12.0598 44.6249 12.1971 44.5333 12.3296 44.4367C16.1231 41.6817 19.9153 38.9254 23.71 36.1715C24.4056 35.6665 24.7225 35.6653 25.423 36.174C27.5704 37.731 29.7153 39.2917 31.8602 40.8499C33.64 42.1433 35.416 43.4416 37.202 44.7264C37.8864 45.219 38.6538 45.0147 38.8184 44.2758C38.884 43.9825 38.7862 43.6298 38.6897 43.329C37.2367 38.8189 35.7712 34.3125 34.3095 29.8049C34.0026 28.8568 34.0657 28.6477 34.843 28.0808C36.7379 26.7008 38.6365 25.3245 40.5326 23.9469C42.529 22.4964 44.5254 21.0471 46.518 19.5903C47.1443 19.1324 47.3337 18.4999 46.8893 18.0902C46.6232 17.8452 46.169 17.6929 45.7989 17.6917C41.0054 17.6657 36.2106 17.6744 31.4171 17.6744C30.542 17.6744 30.3056 17.5048 30.0334 16.6719C29.7326 15.756 29.4405 14.8364 29.1422 13.9192C27.9503 10.252 26.7535 6.58599 25.5703 2.91503C25.402 2.39396 25.1334 2.00286 24.5579 2.0041C23.9823 2.00533 23.6853 2.39025 23.5553 2.92245C23.5269 3.04127 23.4774 3.15638 23.4402 3.27272C21.9959 7.72218 20.5515 12.1716 19.1059 16.6211C18.8138 17.5209 18.5984 17.6744 17.6343 17.6744C15.2703 17.6768 12.9039 17.6756 10.5374 17.6756Z" fill="#0472B6"/>
</svg>
