<svg viewBox="0 0 90 53" fill="none" xmlns="http://www.w3.org/2000/svg">
<path d="M9.86578 52.9959C10.3825 50.4883 10.8992 47.9793 11.4283 45.4152C12.7105 45.4152 13.9638 45.4152 15.2158 45.4152C16.2904 45.4152 17.3651 45.4359 18.4384 45.4055C18.9001 45.3917 19.1558 45.4842 19.2107 46.0058C19.2574 46.4557 19.4141 46.896 19.5735 47.546C19.9624 46.9263 20.2978 46.4378 20.5822 45.9203C20.7952 45.5339 21.0577 45.3986 21.5057 45.4041C23.7224 45.4317 25.9391 45.4152 28.1571 45.4179C28.3591 45.4179 28.5625 45.4345 28.8882 45.4497C28.3481 48.0014 27.8204 50.4993 27.2927 52.9986C25.8291 52.9986 24.3656 52.9986 22.902 52.9986C23.3184 51.0155 23.7361 49.0323 24.1525 47.0492C24.1127 47.034 24.0728 47.0188 24.033 47.005C22.7865 49.0033 21.5401 51.0017 20.295 53C19.1063 53 17.9162 53 16.7274 53C16.5062 51.8614 16.2918 50.7229 16.0623 49.5857C15.8988 48.7756 15.716 47.9697 15.5428 47.1623C15.3175 47.6026 15.2185 48.0193 15.1374 48.4389C14.842 49.9583 14.5506 51.4792 14.2593 53C12.7929 52.9959 11.3294 52.9959 9.86578 52.9959Z" fill="white"/>
<path d="M64.4773 0.00138006C65.1273 0.186309 65.7911 0.332596 66.426 0.563066C68.6372 1.36764 69.9881 3.5026 69.6473 5.69967C68.1617 5.69967 66.6624 5.70933 65.1645 5.68311C65.0298 5.68035 64.8195 5.47196 64.781 5.32291C64.546 4.41759 63.9001 3.98701 63.0591 3.88074C62.2483 3.77862 61.421 3.7731 60.6033 3.7938C60.4288 3.79794 60.1649 4.07671 60.1072 4.27682C59.7032 5.69691 59.7169 5.70105 58.2794 5.70105C57.235 5.70105 56.1906 5.70105 55.0431 5.70105C55.4567 3.74135 55.8511 1.87137 56.2469 0C58.9885 0.00138006 61.7329 0.00138006 64.4773 0.00138006Z" fill="white"/>
<path d="M85.4718 0.00138006C83.9409 1.82031 82.4155 3.64337 80.8708 5.44849C80.7458 5.59478 80.4833 5.69001 80.284 5.69139C77.8213 5.70795 75.3601 5.70933 72.8974 5.68863C72.6967 5.68725 72.3903 5.5451 72.3133 5.38087C71.5149 3.68753 70.7522 1.97763 69.9853 0.269113C69.951 0.193209 69.9716 0.0910843 69.9661 0.00138006C71.6125 0.00138006 73.2588 0.00138006 74.9065 0.00138006C75.4521 1.51669 75.9977 3.03338 76.5941 4.6867C77.8749 3.04994 79.0664 1.52497 80.2593 0.00138006C81.9963 0.00138006 83.7334 0.00138006 85.4718 0.00138006Z" fill="white"/>
<path d="M90 24.0145C89.8983 24.7887 89.383 24.8412 88.7398 24.8218C87.4246 24.7818 86.1067 24.8094 84.6308 24.8094C84.8438 24.6217 84.9853 24.5569 85.0169 24.4575C85.1516 24.0242 85.399 23.5508 85.3165 23.1506C85.2616 22.8815 84.7531 22.6193 84.4013 22.5199C83.9959 22.4053 83.541 22.4647 83.1067 22.4647C81.1223 22.4619 79.1379 22.4633 77.027 22.4633C77.2565 21.2972 77.4695 20.2152 77.6922 19.078C79.0623 19.078 80.383 19.0684 81.705 19.0808C83.0284 19.0932 84.3559 19.0656 85.6738 19.165C87.8081 19.3278 89.4008 20.2773 90 22.4951C90 23.0029 90 23.508 90 24.0145Z" fill="white"/>
<path d="M17.4132 0.00138006C18.1429 0.234611 18.9125 0.387798 19.5955 0.719014C21.3353 1.56223 22.1022 3.4474 21.5195 5.30221C21.4686 5.46506 21.2364 5.68035 21.0852 5.68311C19.5584 5.71071 18.0302 5.69967 16.4072 5.55752C16.5653 5.44159 16.7577 5.35189 16.8759 5.20422C17.4489 4.48521 17.1136 3.57437 16.2066 3.4612C15.4851 3.3715 14.7499 3.36736 14.0215 3.36184C12.29 3.34942 10.5584 3.3577 8.75263 3.3577C8.94778 2.18602 9.13193 1.09439 9.31608 0.00138006C12.0151 0.00138006 14.7142 0.00138006 17.4132 0.00138006Z" fill="white"/>
<path d="M49.2464 0.00138006C49.6532 1.87275 50.06 3.74274 50.486 5.69967C49.1228 5.69967 47.8255 5.71209 46.5309 5.68173C46.3866 5.67759 46.1654 5.44298 46.1255 5.27875C46.0169 4.83713 45.9867 4.37618 45.9015 3.74136C45.5538 4.34444 45.2996 4.83575 44.9918 5.29117C44.8708 5.4692 44.6358 5.68035 44.4475 5.68449C43.0362 5.71761 41.6235 5.70243 40.0884 5.70243C41.2565 3.74136 42.371 1.87275 43.4842 0.00276013C45.404 0.00138006 47.3252 0.00138006 49.2464 0.00138006Z" fill="white"/>
<path d="M36.76 0.00138006C36.5717 1.12613 36.3834 2.25089 36.191 3.40186C32.1961 3.40186 28.2712 3.40186 24.2075 3.40186C24.4631 2.24675 24.7119 1.12337 24.9606 0.00138006C28.8923 0.00138006 32.8268 0.00138006 36.76 0.00138006Z" fill="white"/>
<path d="M29.2125 52.9959C29.4008 52.0105 29.5726 51.021 29.7925 50.0425C29.8282 49.8852 30.0756 49.6616 30.2254 49.6602C34.076 49.6451 37.9267 49.6561 41.776 49.6644C41.8172 49.6644 41.8571 49.7003 41.9313 49.7348C41.7169 50.8167 41.5011 51.907 41.2854 52.9959C37.2629 52.9959 33.2377 52.9959 29.2125 52.9959Z" fill="white"/>
<path d="M43.2616 7.18738C42.8479 7.91743 42.5016 8.5288 42.1113 9.21607C43.0609 9.21607 43.9501 9.21607 44.9052 9.21607C44.8323 8.57296 44.7595 7.92571 44.6812 7.23016C46.1159 7.23016 47.4998 7.23016 48.951 7.23016C49.4704 9.706 49.9913 12.186 50.5245 14.7212C48.9469 14.7212 47.4283 14.7212 45.8383 14.7212C45.7311 14.1291 45.6184 13.5108 45.4961 12.8346C43.7824 12.8346 42.0715 12.8222 40.3619 12.8539C40.1832 12.8567 39.907 13.0982 39.8507 13.2831C39.4453 14.6204 38.541 14.9323 37.2533 14.7888C36.2377 14.6756 35.1988 14.7612 34.1709 14.7543C34.1365 14.7543 34.1008 14.7156 34.0032 14.6577C34.5831 13.7068 35.1631 12.7559 35.7416 11.8037C36.5758 10.4333 37.4196 9.06979 38.2332 7.68834C38.4407 7.33504 38.6592 7.16668 39.0893 7.17634C40.4361 7.20532 41.7829 7.18738 43.2616 7.18738Z" fill="white"/>
<path d="M44.3239 33.853C42.7971 33.853 41.3623 33.8668 39.9276 33.8309C39.7847 33.8268 39.5634 33.5328 39.525 33.3424C39.235 31.9264 39.246 31.9237 37.7893 31.9237C36.6926 31.9237 35.5946 31.9444 34.4979 31.914C34.0293 31.9002 33.6981 32.0065 33.5497 32.4826C33.1883 33.6474 32.4214 34.0145 31.2245 33.882C30.1223 33.7605 28.9954 33.8557 27.771 33.8557C27.9043 33.5894 27.9785 33.4086 28.0788 33.243C29.3871 31.0887 30.7091 28.9427 32.0023 26.7802C32.229 26.4006 32.4682 26.2337 32.923 26.2447C34.2231 26.2764 35.5245 26.2557 36.9647 26.2557C36.5868 26.9816 36.2515 27.6289 35.8791 28.3465C36.8562 28.3465 37.7329 28.3465 38.7018 28.3465C38.6193 27.6717 38.5396 27.0258 38.4448 26.2557C39.4013 26.2557 40.3248 26.2557 41.2483 26.2557C42.65 26.2557 42.6555 26.2544 42.9592 27.6248C43.4114 29.6576 43.8525 31.6932 44.3239 33.853Z" fill="white"/>
<path d="M51.995 14.7377C52.5117 12.1956 53.0133 9.72808 53.5218 7.2274C55.0953 7.2274 56.6427 7.2274 58.2712 7.2274C58.0307 8.48188 57.7929 9.7267 57.5277 11.1123C58.6464 11.0322 59.7073 11.0626 60.7215 10.8597C62.5025 10.5023 63.3917 9.22435 63.3779 7.24396C64.9597 7.24396 66.5415 7.24396 68.1892 7.24396C68.24 9.40652 67.421 11.1647 65.8213 12.5627C64.2011 13.9773 62.2263 14.6052 60.1539 14.706C57.4631 14.8357 54.7627 14.7377 51.995 14.7377Z" fill="white"/>
<path d="M9.54833 14.7446C8.06001 14.7446 6.62529 14.7446 5.09849 14.7446C5.60559 12.2219 6.10719 9.72808 6.61429 7.21084C10.9982 7.21084 15.3477 7.21084 19.7769 7.21084C19.2932 8.51776 18.2858 9.18985 17.1273 9.7819C17.8914 11.449 18.6445 13.0968 19.4567 14.8688C17.7444 14.8688 16.1777 14.8812 14.6125 14.8481C14.4695 14.8454 14.2785 14.5762 14.2029 14.3927C13.7288 13.2514 13.3 12.0907 12.8081 10.9591C12.7187 10.7521 12.4178 10.5368 12.1938 10.512C11.6331 10.4457 11.06 10.4899 10.4691 10.4899C10.1585 11.9238 9.85891 13.3052 9.54833 14.7446Z" fill="white"/>
<path d="M73.4086 33.8116C73.8937 31.3772 74.3651 29.0214 74.8296 26.6629C74.8956 26.3275 75.0289 26.1702 75.4123 26.1715C79.5268 26.1867 83.6427 26.1812 87.7586 26.184C87.8465 26.184 87.9331 26.2116 88.0967 26.2378C87.6033 27.5102 86.6248 28.2113 85.432 28.795C86.1878 30.4415 86.9368 32.0713 87.7174 33.7743C87.5085 33.8074 87.3655 33.8502 87.2226 33.8516C85.8731 33.8571 84.525 33.8406 83.1755 33.864C82.792 33.8709 82.6079 33.7357 82.4746 33.3824C82.0458 32.248 81.5703 31.1329 81.1498 29.9957C81.0151 29.6286 80.8296 29.4989 80.4503 29.5182C79.9061 29.5472 79.3591 29.5251 78.7778 29.5251C78.4686 30.9673 78.1663 32.3694 77.8571 33.8102C76.3853 33.8116 74.934 33.8116 73.4086 33.8116Z" fill="white"/>
<path d="M20.4366 29.9916C22.6477 29.9916 24.8081 29.9916 27.044 29.9916C26.7801 31.3068 26.5328 32.535 26.2771 33.8061C22.4746 33.8061 18.6912 33.8061 14.8378 33.8061C15.3477 31.2902 15.8507 28.8089 16.3591 26.2958C17.9409 26.2958 19.4869 26.2958 21.1539 26.2958C20.9162 27.5212 20.6839 28.715 20.4366 29.9916Z" fill="white"/>
<path d="M5.46404 29.8825C5.18782 31.1453 4.89922 32.455 4.60238 33.8088C3.07421 33.8088 1.55841 33.8088 0 33.8088C0.5071 31.3882 0.996335 29.0159 1.51443 26.6504C1.54879 26.4945 1.80027 26.2751 1.95007 26.2751C6.08108 26.2544 10.2121 26.2585 14.5025 26.2585C14.2978 26.6449 14.1754 26.9527 13.9899 27.2121C12.9043 28.7329 11.3335 29.4271 9.56207 29.6479C8.23454 29.8135 6.88365 29.8066 5.46404 29.8825Z" fill="white"/>
<path d="M45.6967 19.0808C47.3568 19.0808 48.8589 19.0628 50.361 19.1042C50.5382 19.1084 50.7801 19.4037 50.8681 19.6149C51.3463 20.7783 51.7833 21.9582 52.2368 23.1326C52.3 23.2969 52.3743 23.457 52.4691 23.6792C53.6235 22.2356 54.7297 20.8348 55.8635 19.4548C56.0147 19.2712 56.2978 19.0987 56.5231 19.0946C57.9853 19.0628 59.4489 19.0794 60.9111 19.0822C60.9922 19.0822 61.0747 19.1167 61.2671 19.1594C60.5662 19.9889 59.923 20.7507 59.2785 21.5124C58.4498 22.4923 57.6335 23.4846 56.7787 24.4409C56.6083 24.6328 56.2895 24.7901 56.038 24.7929C53.5918 24.8191 51.1457 24.8136 48.7009 24.797C48.5098 24.7956 48.2116 24.6907 48.1457 24.5486C47.3321 22.7876 46.5529 21.0087 45.6967 19.0808Z" fill="white"/>
<path d="M10.1557 24.7418C10.4773 24.6093 10.8085 24.5113 11.1026 24.3443C11.6028 24.0587 11.8049 23.5398 11.6166 23.0485C11.4998 22.7435 11.082 22.4385 10.7467 22.3598C10.1557 22.2218 9.52634 22.2315 8.91205 22.2259C7.17774 22.2121 5.44343 22.2204 3.62391 22.2204C3.84517 21.1191 4.04306 20.073 4.27668 19.0339C4.30417 18.911 4.5213 18.7427 4.64773 18.7454C7.38525 18.7868 10.1434 18.6599 12.8548 18.9579C16.1145 19.3168 16.6848 21.8133 16.153 24.3071C16.076 24.6673 15.8795 24.826 15.4796 24.8205C13.7206 24.7984 11.9601 24.8094 10.2011 24.8094C10.1791 24.8094 10.1557 24.8025 10.1338 24.7984C10.1434 24.7749 10.1516 24.7528 10.1557 24.7418Z" fill="white"/>
<path d="M33.8149 24.8067C34.454 23.762 35.0215 22.8318 35.5918 21.9044C36.0948 21.0846 36.5896 20.2607 37.1145 19.4562C37.2217 19.2919 37.4443 19.0987 37.6175 19.096C39.3958 19.0697 41.1741 19.0794 43.0307 19.0794C43.4251 20.9742 43.8126 22.8415 44.2139 24.7666C42.7696 24.7666 41.4118 24.7666 39.9908 24.7666C39.8727 24.1691 39.7545 23.5729 39.6088 22.8359C39.2721 23.4225 39.0096 23.9179 38.7087 24.3871C38.5987 24.5583 38.3981 24.7846 38.2345 24.7887C36.8053 24.8205 35.3775 24.8067 33.8149 24.8067Z" fill="white"/>
<path d="M70.7687 33.9054C66.7201 33.9054 62.7306 33.9054 58.6683 33.9054C58.8937 32.7641 59.1081 31.6711 59.3294 30.5477C63.3532 30.5477 67.3399 30.5477 71.4269 30.5477C71.2043 31.6863 70.9872 32.7917 70.7687 33.9054Z" fill="white"/>
<path d="M46.8497 33.8544C47.1205 32.5129 47.3087 31.2626 47.6386 30.0523C47.8667 29.2118 47.754 28.5011 47.3472 27.7697C47.1067 27.3363 46.9418 26.8588 46.7082 26.3178C49.465 26.3178 52.1365 26.3178 54.9441 26.3178C54.4851 26.8837 54.1223 27.4315 53.6647 27.8787C52.8016 28.7205 52.4114 29.7432 52.2506 30.9135C52.1324 31.7732 51.9207 32.622 51.7105 33.4666C51.672 33.6225 51.4356 33.835 51.2872 33.8378C49.8484 33.8654 48.4123 33.8544 46.8497 33.8544Z" fill="white"/>
<path d="M70.9913 7.21222C73.6546 7.21222 76.3193 7.21222 79.1255 7.21222C78.7806 7.64004 78.5305 8.04164 78.1965 8.34939C76.9693 9.48242 76.4801 10.9343 76.2671 12.5379C76.1709 13.261 75.9812 13.9732 75.8259 14.7267C74.2524 14.7267 72.6858 14.7267 71.0284 14.7267C71.2057 13.8434 71.3074 12.9588 71.5657 12.1239C72.0275 10.6348 72.044 9.22573 71.1823 7.87327C71.0861 7.72146 71.0366 7.53929 70.9748 7.36679C70.9597 7.3309 70.983 7.27984 70.9913 7.21222Z" fill="white"/>
<path d="M45.3243 38.2775C45.088 39.4146 44.8626 40.5063 44.6289 41.6338C40.6793 41.6338 36.7627 41.6338 32.7375 41.6338C32.9519 40.5159 33.1622 39.4119 33.3793 38.2775C37.3633 38.2775 41.3032 38.2775 45.3243 38.2775Z" fill="white"/>
<path d="M20.7004 14.7667C20.9038 13.7109 21.0618 12.7394 21.3023 11.7885C21.3449 11.6188 21.7297 11.4311 21.9579 11.4297C24.8603 11.4049 27.7627 11.4131 30.6651 11.4131C31.5749 11.4131 32.4847 11.4131 33.448 11.4131C33.2501 12.4592 33.0852 13.4239 32.8708 14.3761C32.8365 14.5307 32.585 14.7487 32.4338 14.7501C28.5502 14.7708 24.6665 14.7667 20.7004 14.7667Z" fill="white"/>
<path d="M62.2043 22.4302C62.3981 21.4628 62.5836 20.4774 62.8062 19.5017C62.8392 19.3595 63.0563 19.1594 63.1883 19.1581C67.0183 19.1401 70.8497 19.1429 74.8021 19.1429C74.5602 20.2511 74.3431 21.2875 74.0957 22.317C74.0724 22.4136 73.8594 22.5268 73.7343 22.5268C69.9469 22.5323 66.158 22.524 62.3706 22.5158C62.3321 22.5158 62.2923 22.4771 62.2043 22.4302Z" fill="white"/>
<path d="M31.5268 38.2388C31.1448 40.1599 30.7806 41.9954 30.4068 43.8778C27.7819 43.8778 25.1695 43.8778 22.4457 43.8778C22.891 43.1795 23.3032 42.5322 23.7169 41.8863C24.4082 40.8057 25.0898 39.7196 25.8016 38.6528C25.9226 38.4707 26.1672 38.2595 26.3582 38.2554C28.0458 38.2264 29.7348 38.2388 31.5268 38.2388Z" fill="white"/>
<path d="M19.2781 38.2719C19.7178 40.1378 20.1521 41.9816 20.6015 43.8847C18.0344 43.8847 15.5346 43.8847 12.951 43.8847C13.3468 41.9747 13.7316 40.1226 14.115 38.2719C15.8672 38.2719 17.552 38.2719 19.2781 38.2719Z" fill="white"/>
<path d="M17.8804 24.808C18.2913 22.829 18.6761 20.9756 19.0609 19.1249C20.6592 19.1249 22.2011 19.1249 23.8227 19.1249C23.4599 20.9521 23.115 22.72 22.7412 24.481C22.7137 24.6135 22.4718 24.7901 22.3275 24.7929C20.8914 24.8177 19.4553 24.808 17.8804 24.808Z" fill="white"/>
<path d="M38.7526 43.9316C38.5286 45.0425 38.317 46.0942 38.0957 47.1927C35.9753 47.1927 33.8658 47.1927 31.6587 47.1927C31.8759 46.0942 32.0875 45.0315 32.3046 43.9316C34.4416 43.9316 36.5538 43.9316 38.7526 43.9316Z" fill="white"/>
<path d="M61.1654 28.1133C61.3729 27.0023 61.568 25.948 61.7728 24.8494C63.9015 24.8494 66.0124 24.8494 68.2125 24.8494C68.0078 25.9563 67.8099 27.023 67.6079 28.1133C65.4654 28.1133 63.3697 28.1133 61.1654 28.1133Z" fill="white"/>
<path d="M30.3284 5.51474C30.1264 6.54979 29.9478 7.51721 29.7375 8.47498C29.7087 8.60884 29.5204 8.80481 29.4036 8.80619C27.3752 8.82689 25.3481 8.82137 23.2332 8.82137C23.4613 7.67178 23.6729 6.60499 23.8901 5.51474C26.0421 5.51474 28.1338 5.51474 30.3284 5.51474Z" fill="white"/>
</svg>
