<svg viewBox="0 0 111 47" fill="none" xmlns="http://www.w3.org/2000/svg">
<path d="M86.6998 11.6313C86.0813 14.1452 85.5313 16.4762 84.9073 18.7851C84.8462 19.0142 84.3295 19.258 84.0221 19.2635C81.5537 19.3023 79.0835 19.3171 76.6169 19.2672C75.8855 19.2525 75.5762 19.4944 75.4281 20.1816C75.1836 21.3175 74.8651 22.4369 74.5392 23.7114C77.9002 23.7114 81.1186 23.7114 84.4628 23.7114C84.1962 24.7716 84.0055 25.7007 83.7055 26.5929C83.6388 26.7924 83.1925 26.966 82.9111 26.9808C78.9057 27.1877 74.8966 27.3631 70.8894 27.5479C69.1358 27.6273 67.384 27.7049 65.4507 27.7917C66.3507 24.1399 67.2229 20.599 68.1154 16.9768C67.4821 17.5624 66.9618 18.074 66.41 18.5487C63.7304 20.8502 60.5324 21.687 57.0844 21.8163C56.2345 21.8477 55.1549 21.6112 54.5994 22.0398C54.079 22.4424 54.1124 23.5581 53.905 24.3616C53.6068 25.5234 53.3365 26.6908 53.0013 27.8415C52.9346 28.0724 52.6439 28.3938 52.4421 28.4068C49.9237 28.5527 47.4034 28.6487 44.7609 28.7633C44.8535 28.3255 44.9109 28.0022 44.9887 27.6845C47.1738 18.883 49.3626 10.0815 51.5403 1.27818C51.6662 0.770228 51.8421 0.485773 52.4476 0.495008C55.8715 0.544881 59.301 0.472843 62.7212 0.613224C64.9804 0.707427 67.171 1.35207 68.6765 3.16594C69.5283 4.19109 70.0431 5.49515 70.6875 6.63297C70.9301 5.67247 71.2097 4.51987 71.5116 3.37466C71.7542 2.45664 71.7542 1.20984 72.3578 0.725898C72.9541 0.249342 74.1726 0.511633 75.1188 0.509786C79.7797 0.496856 84.4388 0.504243 89.0997 0.504243C89.4589 0.504243 89.8182 0.504243 90.3052 0.504243C89.7885 2.66167 89.3108 4.6584 88.8312 6.65514C88.4738 8.14206 88.4738 8.14206 86.9424 8.14206C84.4425 8.14206 81.9426 8.14206 79.4427 8.14206C79.1075 8.14206 78.7724 8.14206 78.389 8.14206C78.1113 9.30944 77.8502 10.4103 77.5595 11.6331C80.6056 11.6313 83.5721 11.6313 86.6998 11.6313ZM56.3437 14.6273C57.6752 14.4721 58.8307 14.4758 59.901 14.1784C61.7139 13.676 62.7972 11.5297 62.4398 9.48676C62.2231 8.25289 61.3009 7.78557 59.0918 7.78742C58.9066 7.78742 58.6955 7.73016 58.5436 7.80219C58.3048 7.91487 57.9677 8.07557 57.914 8.2806C57.3844 10.2958 56.9067 12.3239 56.3437 14.6273Z" fill="white"/>
<path d="M35.8391 0.628001C35.6632 1.39455 35.4984 2.13894 35.3188 2.87963C34.0244 8.22518 32.7115 13.5652 31.4467 18.9181C31.2449 19.7752 31.1727 20.6858 31.1912 21.5687C31.2116 22.5643 31.393 23.5673 32.567 23.9367C33.7929 24.3228 35.028 24.0623 35.6836 22.9652C36.415 21.7424 37.0317 20.3995 37.4187 19.0308C38.3705 15.6598 39.1649 12.2464 40.0167 8.84766C40.6445 6.34482 41.287 3.84383 41.8759 1.33175C42.0222 0.711121 42.2666 0.47469 42.9258 0.48762C45.022 0.528257 47.1201 0.50055 49.2181 0.506091C49.457 0.506091 49.6978 0.548575 50.0329 0.579976C49.2848 3.52797 48.5534 6.40947 47.8238 9.29282C46.9571 12.7192 46.1349 16.1567 45.2109 19.5665C44.3535 22.7324 43.1406 25.7469 40.9759 28.2959C40.5482 28.8002 40.1 29.0366 39.4093 29.0625C35.1558 29.2213 30.9042 29.4227 26.6544 29.6462C25.9599 29.6831 25.497 29.4725 25.0766 28.9387C23.8915 27.4333 23.3508 25.7081 23.1582 23.8315C22.8267 20.5824 23.5563 17.47 24.3285 14.3613C25.4174 9.9781 26.5118 5.59489 27.6432 1.22277C27.7173 0.938317 28.1228 0.541187 28.3802 0.535645C30.7227 0.483926 33.0689 0.507939 35.4132 0.515327C35.5299 0.515327 35.6447 0.574435 35.8391 0.628001Z" fill="white"/>
<path d="M105.682 25.9095C103.023 26.0332 100.532 26.1625 98.04 26.2364C97.8326 26.2419 97.4863 25.9058 97.4215 25.6675C97.0789 24.4225 96.7827 23.1646 96.5197 21.9012C96.4179 21.408 96.1975 21.2326 95.7086 21.2584C95.2679 21.2824 94.8994 21.2326 94.7716 21.8495C94.492 23.2034 94.1365 24.5426 93.7643 25.8744C93.6995 26.1053 93.4217 26.4322 93.2236 26.4451C90.7052 26.6095 88.183 26.724 85.5795 26.8552C85.6109 26.5264 85.6035 26.2881 85.6591 26.0665C87.7108 17.832 89.7774 9.60313 91.8088 1.36315C91.9755 0.690803 92.244 0.47469 92.9236 0.485773C96.2253 0.537492 99.5288 0.476537 102.827 0.598447C104.036 0.642778 105.277 0.953093 106.423 1.36315C109.627 2.50836 111.454 5.88304 110.902 9.49969C110.399 12.8042 109.284 15.8242 106.604 18.0389C105.99 18.5469 105.327 19.0123 104.63 19.4002C104.127 19.681 104.012 19.9654 104.171 20.5048C104.682 22.2448 105.151 23.994 105.682 25.9095ZM96.7512 14.1138C97.9678 13.9753 99.0214 13.9771 100.003 13.7185C101.847 13.2309 102.94 11.6664 102.773 9.77676C102.725 9.23556 102.355 8.38404 101.966 8.27506C100.842 7.96105 99.6214 7.83175 98.4604 7.92226C98.1937 7.94258 97.9937 9.12658 97.8085 9.78784C97.5937 10.5562 97.4271 11.3376 97.24 12.1134C97.0956 12.6971 96.953 13.2826 96.7512 14.1138Z" fill="white"/>
<path d="M19.9528 10.6061C19.0547 9.79338 18.2936 9.03053 17.4548 8.36556C16.6548 7.732 15.7067 7.61379 14.7382 7.97398C13.4809 8.4413 13.2272 9.7195 14.266 10.5433C15.4234 11.4613 16.6344 12.3147 17.8418 13.1718C22.3323 16.3617 23.3989 21.3434 20.5805 26.1163C20.1917 26.7758 19.7324 27.4038 19.2362 27.9875C18.0677 29.3636 16.74 30.2779 14.7456 30.2594C11.7569 30.2299 8.76812 30.5088 5.77752 30.6215C5.37383 30.6362 4.91089 30.5236 4.56461 30.3185C2.77765 29.2601 1.38512 27.788 0.351836 26C0.205546 25.7451 0.205546 25.1577 0.383316 25.0062C2.24249 23.3974 4.15166 21.844 6.06269 20.2628C6.66451 21.0405 7.17745 21.8089 7.79594 22.4757C8.86997 23.6357 10.1699 24.3302 11.8291 24.0901C12.6179 23.9755 13.2401 23.6504 13.4975 22.8396C13.7623 22.0047 13.2883 21.4967 12.6883 21.0534C11.6698 20.3035 10.6903 19.4926 9.61808 18.8295C3.44799 15.0226 4.6035 7.35334 8.20333 3.59816C10.8328 0.855194 14.0531 -0.367595 17.8214 0.0960305C21.0083 0.487619 23.2656 2.40123 25.0303 4.95025C25.1452 5.11649 25.0952 5.56719 24.947 5.71495C23.2989 7.36997 21.6157 8.98989 19.9528 10.6061Z" fill="white"/>
<path d="M86.6053 28.0041C86.8127 31.3492 87.009 34.5503 87.2072 37.7532C87.2738 37.7661 87.3405 37.7772 87.4072 37.7901C88.2664 36.2422 89.1293 34.6962 89.9848 33.1465C90.8774 31.5302 91.7347 29.8937 92.6773 28.307C92.8699 27.9838 93.3624 27.6735 93.7346 27.6513C95.0772 27.5737 96.4253 27.6199 97.8567 27.6199C97.8141 27.86 97.7808 28.1574 97.7085 28.4437C96.2586 34.288 94.8087 40.1341 93.3328 45.9728C93.2662 46.237 92.9699 46.6341 92.7643 46.6452C91.481 46.708 90.1922 46.6766 88.7349 46.6766C89.5163 43.9539 90.257 41.3754 90.9977 38.7968C90.9403 38.7691 90.8848 38.7395 90.8274 38.7118C90.6589 38.9723 90.4774 39.2272 90.3237 39.495C89.0775 41.6524 87.8349 43.8135 86.5905 45.9728C86.235 46.5898 85.0239 47.0017 84.4666 46.6119C84.2536 46.4623 84.1721 46.0393 84.1406 45.729C83.9092 43.5272 83.7092 41.3236 83.4925 39.12C83.4684 38.8836 83.4055 38.6509 83.2055 38.4033C82.7685 40.304 82.3407 42.2084 81.8907 44.1072C81.6945 44.9384 81.7019 46.0707 81.1648 46.4974C80.6241 46.9259 79.5186 46.6544 78.6613 46.6784C78.1724 46.6914 77.6817 46.6803 77.1373 46.6803C77.1373 46.394 77.0965 46.1834 77.1428 45.9931C78.5557 40.2966 79.9705 34.602 81.4167 28.9147C81.4871 28.6395 81.8315 28.2535 82.0759 28.2331C83.5425 28.1112 85.0184 28.0743 86.6053 28.0041Z" fill="white"/>
<path d="M26.1488 46.684C26.5007 43.132 26.8395 39.7203 27.1765 36.3069C27.1414 36.2939 27.1043 36.2792 27.0691 36.2662C26.5914 37.3893 26.1062 38.5105 25.6359 39.6372C24.76 41.7374 23.873 43.8339 23.0341 45.947C22.8212 46.4826 22.5545 46.7098 21.9583 46.695C20.3657 46.6563 18.7732 46.6821 17.1196 46.6821C17.3751 44.1645 17.6066 41.7836 17.8622 39.4063C18.1251 36.9608 18.4529 34.5226 18.6658 32.0733C18.7306 31.3289 19.0325 31.1331 19.6861 31.1405C20.912 31.1553 22.1379 31.1442 23.4804 31.1442C23.2489 33.1409 23.0119 35.1986 22.7749 37.2544C22.8323 37.2729 22.8897 37.2932 22.9471 37.3117C23.7008 35.7232 24.5804 34.179 25.1711 32.5314C25.684 31.0999 26.5229 30.5974 27.9691 30.7138C29.0376 30.8006 30.119 30.7304 31.3412 30.7304C31.219 32.8712 31.0949 35.0656 30.9708 37.26C31.0227 37.2803 31.0745 37.3006 31.1264 37.3191C31.2615 37.0365 31.4134 36.7594 31.5319 36.4694C32.2559 34.7054 32.9911 32.947 33.68 31.17C33.8725 30.6732 34.1188 30.4423 34.6762 30.433C35.9039 30.4164 37.1298 30.3315 38.5168 30.2668C38.3742 30.6732 38.2927 30.9521 38.1816 31.2218C36.191 36.0871 34.1836 40.9468 32.2171 45.8214C31.9597 46.4623 31.6393 46.7172 30.9356 46.6932C29.3746 46.6489 27.8099 46.684 26.1488 46.684Z" fill="white"/>
<path d="M78.5798 34.855C78.4279 38.5881 77.2095 42.286 73.9004 45.0585C72.0819 46.5805 69.9857 47.2104 67.6192 46.9333C65.1415 46.6433 63.1453 44.7704 62.712 41.9904C62.0065 37.4706 63.0564 33.3866 66.1507 29.9085C66.7933 29.1862 67.5118 28.8168 68.5488 28.8094C70.9209 28.791 73.293 28.6321 75.6632 28.4769C76.3373 28.4326 76.7484 28.6727 77.1298 29.1899C78.2835 30.7581 78.5779 32.548 78.5798 34.855ZM73.7578 34.9825C73.7578 34.8901 73.7633 34.7978 73.7578 34.7054C73.6744 33.5066 73.693 32.2266 72.343 31.6503C71.4079 31.2513 70.1653 31.9126 69.1784 33.2425C67.7655 35.1469 67.2062 37.3228 67.3025 39.652C67.3488 40.7547 67.4988 41.9738 68.7691 42.3857C70.0154 42.7902 70.8838 41.959 71.6208 41.1112C73.1411 39.362 73.7059 37.2563 73.7578 34.9825Z" fill="white"/>
<path d="M94.7939 46.7006C95.6438 43.3296 96.4456 40.1489 97.2474 36.9681C97.99 34.0201 98.7381 31.0721 99.4677 28.1205C99.5788 27.6716 99.6788 27.3484 100.266 27.3243C103.655 27.1895 107.041 27.014 110.428 26.857C110.547 26.8515 110.669 26.8792 110.871 26.8995C110.528 28.2922 110.223 29.6573 109.834 30.9983C109.778 31.1904 109.321 31.3732 109.047 31.3788C107.414 31.4139 105.779 31.4194 104.145 31.3843C103.543 31.3714 103.242 31.5487 103.158 32.1693C103.073 32.801 102.892 33.4217 102.725 34.1735C104.649 34.1735 106.479 34.1735 108.467 34.1735C108.115 35.6733 107.819 37.0402 107.451 38.3886C107.404 38.5604 106.977 38.7229 106.723 38.7284C105.275 38.7617 103.823 38.7765 102.377 38.7303C101.755 38.71 101.495 38.9445 101.384 39.519C101.221 40.3594 101.005 41.1906 100.782 42.1493C102.912 42.1493 104.96 42.1493 107.119 42.1493C106.793 43.6214 106.508 44.968 106.179 46.3016C106.138 46.466 105.849 46.684 105.675 46.684C102.099 46.7061 98.527 46.7006 94.7939 46.7006Z" fill="white"/>
<path d="M15.9178 46.6747C14.5864 46.6747 13.1142 46.6932 11.6458 46.647C11.4884 46.6415 11.2513 46.2647 11.2143 46.0338C11.1458 45.5923 11.1939 45.1305 11.1939 44.5653C9.54586 44.5653 7.95149 44.5284 6.36267 44.6023C6.10343 44.6152 5.75344 45.0844 5.64419 45.4095C5.29606 46.442 4.6609 46.8059 3.57206 46.7061C2.45359 46.6045 1.31846 46.684 0 46.684C0.551827 45.6367 0.996251 44.7741 1.45734 43.9207C3.53132 40.0768 5.6016 36.2311 7.69595 32.3965C7.85335 32.1084 8.17185 31.7205 8.43666 31.7039C10.8588 31.5506 13.2864 31.4674 15.9197 31.3548C15.9178 36.4916 15.9178 41.5176 15.9178 46.6747ZM11.8143 32.7807C11.7569 32.7641 11.6995 32.7456 11.6402 32.729C10.5847 35.0287 9.53105 37.3265 8.45147 39.6816C9.56808 39.6816 10.5032 39.6816 11.481 39.6816C11.5958 37.332 11.705 35.0564 11.8143 32.7807Z" fill="white"/>
<path d="M35.3836 46.527C35.4188 46.2924 35.4354 46.0245 35.5002 45.7678C36.702 40.9357 37.9335 36.1092 39.0945 31.2679C39.3001 30.409 39.6741 30.1689 40.5241 30.143C43.5462 30.0544 46.5646 29.8771 49.5848 29.7348C49.8551 29.7219 50.1274 29.733 50.5496 29.733C50.357 30.5254 50.2385 31.2439 49.9866 31.9144C49.9126 32.1139 49.4663 32.2746 49.1867 32.2802C47.583 32.3153 45.9776 32.3263 44.3739 32.2839C43.7258 32.2672 43.4091 32.463 43.3258 33.1188C43.2573 33.6581 43.0925 34.1845 42.9332 34.8735C44.8369 34.8735 46.6331 34.8735 48.5848 34.8735C48.2237 36.342 47.9275 37.6497 47.5571 38.9372C47.5053 39.1163 47.0868 39.2863 46.8349 39.2937C45.4479 39.3288 44.0573 39.3435 42.6703 39.2973C42.0129 39.2752 41.7277 39.4987 41.6185 40.1378C41.5018 40.8212 41.2796 41.4843 41.0704 42.2878C43.2277 42.2878 45.2498 42.2878 47.4386 42.2878C47.0886 43.7212 46.7849 45.0234 46.4331 46.3108C46.3886 46.4715 46.0794 46.6673 45.8924 46.6673C42.4685 46.6803 39.0427 46.6655 35.6188 46.6526C35.5651 46.6507 35.5132 46.5971 35.3836 46.527Z" fill="white"/>
<path d="M51.4847 40.232C52.0495 40.836 52.4791 41.3624 52.9791 41.8113C53.7124 42.4688 54.6216 42.7459 55.5567 42.4356C55.9882 42.2934 56.4845 41.8427 56.6067 41.4308C56.7067 41.0946 56.4011 40.4869 56.0901 40.2098C55.3105 39.5172 54.442 38.9168 53.5791 38.3258C50.3903 36.1369 51.1125 31.8424 52.6569 29.9399C52.8346 29.7201 53.2235 29.5778 53.5217 29.5631C56.416 29.4079 59.3121 29.2564 62.2102 29.1918C62.6212 29.1826 63.0934 29.6018 63.4212 29.9362C63.5064 30.0248 63.2064 30.5864 62.986 30.8523C62.2601 31.726 61.4917 32.5646 60.738 33.4161C60.6565 33.3386 60.575 33.2628 60.4936 33.1852C60.1102 32.8306 59.7843 32.3411 59.3325 32.1527C58.6603 31.8701 57.8955 31.6743 57.177 31.6983C56.8493 31.7094 56.3937 32.2912 56.2771 32.6958C56.1919 32.9895 56.4771 33.5196 56.7567 33.7597C57.5252 34.421 58.377 34.9843 59.1973 35.5847C61.488 37.26 62.1083 39.0037 61.3991 41.7799C60.7158 44.4545 58.4381 46.5085 55.6827 46.9001C52.6217 47.336 50.1662 46.3552 48.3941 43.7711C48.0719 43.3019 48.0756 42.9879 48.5552 42.6185C49.5552 41.8556 50.5088 41.0336 51.4847 40.232Z" fill="white"/>
</svg>
