<svg viewBox="0 0 167 33" fill="none" xmlns="http://www.w3.org/2000/svg">
<path d="M15.4851 25.8215C15.4569 25.9191 15.4287 26.0185 15.3953 26.1145C15.0301 27.1151 14.3214 27.9566 13.3932 28.4917C12.465 29.0269 11.3764 29.2216 10.3179 29.0418C9.25941 28.8619 8.29845 28.3191 7.60319 27.5082C6.90792 26.6972 6.52263 25.6699 6.51474 24.6059V22.548H2.67737V24.6059C2.65942 26.7197 3.45386 28.7611 4.89947 30.3158C6.34508 31.8706 8.33358 32.8221 10.4614 32.9775C12.5893 33.1328 14.6971 32.4803 16.3571 31.1523C18.0171 29.8243 19.1049 27.9203 19.3999 25.8267L15.4851 25.8215Z" fill="white"/>
<path d="M11.5245 0H10.6443C7.82128 0 5.11385 1.11109 3.11765 3.08882C1.12145 5.06656 0 7.74895 0 10.5459V20.4238H22.1688V10.5459C22.1688 7.74895 21.0473 5.06656 19.0511 3.08882C17.0549 1.11109 14.3475 0 11.5245 0Z" fill="white"/>
<path d="M30.5987 0.702826H36.5379C42.8396 0.702826 46.8724 4.75237 46.8724 10.5808C46.8724 16.3813 42.9804 20.4046 36.6206 20.4046H30.5987V0.702826ZM36.4815 18.2107C41.3275 18.2107 44.3517 15.0192 44.3517 10.579C44.3517 6.08477 41.2149 2.89328 36.566 2.89328H33.0367V18.2107H36.4815Z" fill="white"/>
<path d="M48.8562 13.7444C48.8562 9.74889 51.6286 6.72482 55.4942 6.72482C57.5114 6.72482 59.277 7.66657 60.2574 9.30592L60.312 9.27801V6.89049H62.581V20.4046H60.3965V17.9631H60.3683C59.3879 19.5728 57.7086 20.579 55.4942 20.579C51.7413 20.5721 48.8562 17.8515 48.8562 13.7444ZM60.3965 13.7444C60.3965 10.9697 58.5201 8.77749 55.8321 8.77749C53.2551 8.77749 51.1533 10.7482 51.1533 13.7444C51.1533 16.465 53.0298 18.5177 55.8321 18.5177C58.3511 18.5177 60.3965 16.6028 60.3965 13.7444Z" fill="white"/>
<path d="M66.3726 16.3813V8.8333H64.6123V6.89049H66.3726V2.28462L68.6416 2.03349V6.89049H73.1514V8.8333H68.6416V16.0482C68.6416 17.6858 69.006 18.4618 70.2945 18.4618C71.106 18.4618 71.9474 18.1287 72.618 17.7643L73.206 19.7332C72.4508 20.1779 71.5267 20.5668 69.9019 20.5668C67.4921 20.5721 66.3726 19.1001 66.3726 16.3813Z" fill="white"/>
<path d="M74.0984 13.7444C74.0984 9.74889 76.8708 6.72482 80.7364 6.72482C82.7536 6.72482 84.5174 7.66657 85.4979 9.30592L85.5542 9.27801V6.89049H87.8215V20.4046H85.637V17.9631H85.6123C84.6319 19.5728 82.9526 20.579 80.7399 20.579C76.987 20.5721 74.0984 17.8515 74.0984 13.7444ZM85.637 13.7444C85.637 10.9697 83.7605 8.77749 81.0726 8.77749C78.4956 8.77749 76.3938 10.7482 76.3938 13.7444C76.3938 16.465 78.272 18.5177 81.0726 18.5177C83.5933 18.5177 85.637 16.6028 85.637 13.7444Z" fill="white"/>
<path d="M111.58 15.021V6.83469H115.222V14.0775C115.222 16.5469 115.979 17.3806 117.686 17.3806C119.283 17.3806 120.712 16.0482 120.712 13.4392V6.83469H124.409V20.4046H120.712V18.795L120.656 18.767C120.169 19.3608 119.554 19.8385 118.856 20.1648C118.158 20.4912 117.395 20.6578 116.623 20.6523C113.653 20.6523 111.58 19.156 111.58 15.021Z" fill="white"/>
<path d="M126.556 13.6607C126.556 9.55531 129.329 6.63936 132.997 6.63936C134.595 6.63936 136.051 7.2515 137.031 8.41648L137.086 8.38858V6.83469H140.756V20.4046H137.255V18.795L137.2 18.767C136.246 19.9878 134.875 20.654 133.081 20.654C129.329 20.6523 126.556 17.8515 126.556 13.6607ZM137.255 13.6886C137.255 11.4964 135.743 9.88841 133.782 9.88841C131.793 9.88841 130.281 11.3586 130.281 13.6886C130.281 15.8546 131.708 17.3806 133.782 17.3806C135.658 17.3806 137.255 15.9087 137.255 13.6886Z" fill="white"/>
<path d="M143.64 6.83469H147.31V8.80539H147.364C148.401 7.4102 149.887 6.63936 151.482 6.63936H151.763V10.6087C151.371 10.5808 151.006 10.5808 150.783 10.5808C148.514 10.5808 147.31 12.0806 147.31 14.1333V20.4116H143.64V6.83469Z" fill="white"/>
<path d="M152.687 13.6607C152.687 9.55531 155.488 6.63936 159.158 6.63936C160.839 6.63936 162.295 7.2515 163.303 8.41648H163.36V2.03349H167V20.4046H163.499V18.7339H163.471C162.518 19.9547 161.091 20.6523 159.246 20.6523C155.461 20.6523 152.687 17.8515 152.687 13.6607ZM163.499 13.6886C163.499 11.4964 162.015 9.88841 159.915 9.88841C157.952 9.88841 156.412 11.3586 156.412 13.6886C156.412 15.8546 157.87 17.3806 159.915 17.3806C161.93 17.3806 163.499 15.9087 163.499 13.6886Z" fill="white"/>
<path d="M101.18 9.66518V12.8044H104.931V15.9086C103.735 16.6617 102.344 17.0571 100.927 17.0475C97.2019 17.0475 94.9048 14.217 94.9048 10.5808C94.9048 6.55739 97.4818 4.14197 100.758 4.14197C101.708 4.12478 102.651 4.2979 103.532 4.65092C104.413 5.00395 105.213 5.52962 105.884 6.19639L108.658 3.81061C106.612 1.56261 103.588 0.451697 100.758 0.451697C94.5404 0.451697 90.7875 4.81166 90.7875 10.5808C90.7875 16.9097 95.1882 20.5982 100.927 20.5982C103.979 20.5982 106.949 19.6007 108.769 18.1567V9.66518H101.18Z" fill="white"/>
</svg>
