<svg viewBox="0 0 100 45" fill="none" xmlns="http://www.w3.org/2000/svg">
<path d="M100 45C66.666 45 33.334 45 0 45C0 30.0007 0 14.9993 0 0C33.334 0 66.666 0 100 0C100 14.9993 100 30.0007 100 45ZM47.438 40.4961C47.96 40.4961 48.35 40.4961 48.742 40.4961C63.908 40.4961 79.074 40.4961 94.242 40.4961C95.544 40.4961 95.546 40.4941 95.546 39.2168C95.546 28.0808 95.546 16.9467 95.546 5.8107C95.546 4.48035 95.544 4.47838 94.188 4.47838C83.288 4.47838 72.388 4.47838 61.488 4.47838C57.154 4.47838 52.822 4.49803 48.488 4.46266C47.66 4.45677 47.386 4.69454 47.416 5.5179C47.476 7.08799 47.474 8.66201 47.416 10.2321C47.386 11.0397 47.614 11.4052 48.464 11.6509C55.05 13.5629 58.47 20.6921 55.802 26.9155C54.386 30.2188 51.882 32.3745 48.402 33.4611C48.036 33.5751 47.488 33.9465 47.478 34.2157C47.402 36.2397 47.438 38.2677 47.438 40.4961ZM4.552 40.5177C5.034 40.5177 5.458 40.5177 5.882 40.5177C14.614 40.5177 23.346 40.5177 32.078 40.5177C35.344 40.5177 38.61 40.4941 41.876 40.5334C42.672 40.5432 42.914 40.2838 42.894 39.5234C42.848 37.855 42.86 36.1828 42.89 34.5144C42.9 33.9269 42.678 33.693 42.108 33.4827C40.932 33.0485 39.696 32.626 38.686 31.9225C34.816 29.2245 33.066 25.483 33.776 20.8552C34.492 16.1882 37.302 13.1148 41.86 11.6489C42.63 11.4013 42.936 11.1223 42.9 10.3107C42.834 8.77402 42.812 7.22948 42.904 5.69672C42.966 4.65917 42.574 4.4607 41.598 4.46266C29.634 4.4941 17.67 4.48231 5.704 4.48231C5.344 4.48231 4.984 4.48231 4.55 4.48231C4.552 16.5242 4.552 28.4561 4.552 40.5177ZM38.148 22.5138C38.142 26.3633 41.284 29.4721 45.172 29.4662C49.046 29.4603 52.23 26.3103 52.212 22.502C52.194 18.7271 49.066 15.6419 45.21 15.6007C41.34 15.5574 38.154 18.6779 38.148 22.5138Z" fill="white"/>
<path d="M70.822 15.9367C70.822 21.6688 70.822 27.283 70.822 33.0386C69.388 33.0386 68.066 33.0779 66.752 32.9954C66.558 32.9836 66.25 32.398 66.248 32.0758C66.214 28.0179 66.224 23.9581 66.224 19.8983C66.224 18.6269 66.224 17.3574 66.224 15.9347C64.568 15.9347 63.016 15.9347 61.462 15.9347C58.916 15.9347 58.916 15.9347 58.916 13.4175C58.916 11.417 58.916 11.417 61.002 11.417C66.332 11.417 71.664 11.4347 76.994 11.3993C77.892 11.3934 78.27 11.6214 78.19 12.5509C78.116 13.3959 78.144 14.2526 78.182 15.1015C78.21 15.748 77.948 15.9544 77.304 15.9426C75.538 15.9111 73.772 15.9328 72.008 15.9328C71.65 15.9367 71.292 15.9367 70.822 15.9367Z" fill="white"/>
<path d="M85.934 32.9993C84.516 32.9993 83.13 32.9993 81.63 32.9993C81.608 32.626 81.568 32.2821 81.568 31.9362C81.564 25.4614 81.58 18.9865 81.546 12.5135C81.542 11.6568 81.776 11.3365 82.664 11.4072C83.556 11.4779 84.464 11.3738 85.356 11.4583C85.614 11.4819 86.046 11.8828 86.046 12.1107C86.074 18.9766 86.056 25.8426 86.044 32.7085C86.046 32.7675 86.002 32.8264 85.934 32.9993Z" fill="white"/>
<path d="M11.178 14.1406C12.332 13.0893 13.376 12.1343 14.522 11.0908C17.002 13.726 19.434 16.312 21.994 19.0317C24.492 16.3729 26.938 13.7692 29.458 11.0889C30.596 12.1245 31.66 13.0932 32.79 14.1229C32.508 14.4472 32.284 14.7203 32.044 14.9758C29.676 17.5048 27.282 20.0142 24.954 22.5806C24.58 22.9932 24.322 23.6574 24.308 24.2135C24.242 26.831 24.254 29.4524 24.292 32.0699C24.304 32.8362 24.07 33.1271 23.274 33.0721C22.412 33.0131 21.54 33.017 20.676 33.0701C19.93 33.1172 19.696 32.852 19.706 32.1229C19.742 29.4721 19.754 26.8192 19.692 24.1683C19.68 23.6417 19.43 23.0129 19.074 22.6218C16.742 20.0594 14.35 17.55 11.98 15.0229C11.738 14.7616 11.5 14.4943 11.178 14.1406Z" fill="white"/>
</svg>
