<svg width="34" height="43" viewBox="0 0 34 43" fill="none" xmlns="http://www.w3.org/2000/svg">
<path d="M18.955 27.9552C18.9126 27.8231 18.8479 27.6994 18.7637 27.5896L18.5087 27.267C18.3112 27.0654 18.0762 26.9054 17.8172 26.7962C17.5583 26.687 17.2805 26.6308 17 26.6308C16.7195 26.6308 16.4417 26.687 16.1828 26.7962C15.9238 26.9054 15.6888 27.0654 15.4913 27.267C15.3899 27.3602 15.3039 27.4691 15.2363 27.5896C15.1521 27.6994 15.0874 27.8231 15.045 27.9552C14.9835 28.0846 14.9405 28.2222 14.9175 28.3638C14.9071 28.4998 14.9071 28.6365 14.9175 28.7725C14.9101 29.0615 14.9683 29.3485 15.0875 29.6112C15.3037 30.1343 15.7153 30.5497 16.2326 30.7672C16.75 30.9847 17.3312 30.9866 17.85 30.7726C18.1083 30.6557 18.3453 30.4958 18.5512 30.2994C18.7424 30.1013 18.8939 29.8676 18.9975 29.6112C19.1091 29.346 19.167 29.0608 19.1675 28.7725C19.1779 28.6365 19.1779 28.4998 19.1675 28.3638C19.1178 28.2174 19.0462 28.0796 18.955 27.9552ZM17 11.5241C16.4364 11.5241 15.8959 11.7507 15.4974 12.154C15.0989 12.5573 14.875 13.1043 14.875 13.6747V20.1268C14.875 20.6972 15.0989 21.2442 15.4974 21.6475C15.8959 22.0508 16.4364 22.2774 17 22.2774C17.5636 22.2774 18.1041 22.0508 18.5026 21.6475C18.9011 21.2442 19.125 20.6972 19.125 20.1268V13.6747C19.125 13.1043 18.9011 12.5573 18.5026 12.154C18.1041 11.7507 17.5636 11.5241 17 11.5241ZM33.2137 3.54507C32.9669 3.34296 32.6784 3.1994 32.3695 3.12497C32.0606 3.05053 31.7391 3.0471 31.4287 3.11494C29.158 3.59657 26.814 3.6027 24.5408 3.13297C22.2677 2.66323 20.1136 1.72757 18.2112 0.383584C17.8555 0.133832 17.4329 0 17 0C16.5671 0 16.1445 0.133832 15.7888 0.383584C13.8864 1.72757 11.7323 2.66323 9.45916 3.13297C7.18603 3.6027 4.84196 3.59657 2.57126 3.11494C2.26088 3.0471 1.93942 3.05053 1.63052 3.12497C1.32163 3.1994 1.03313 3.34296 0.786261 3.54507C0.539718 3.74749 0.341119 4.00324 0.205058 4.29354C0.0689976 4.58384 -0.00106715 4.9013 1.22856e-05 5.2226V21.2451C-0.00187691 24.3286 0.724154 27.368 2.11765 30.1101C3.51114 32.8522 5.53176 35.2177 8.01126 37.0095L15.7675 42.6013C16.1274 42.8606 16.5582 43 17 43C17.4418 43 17.8726 42.8606 18.2325 42.6013L25.9887 37.0095C28.4682 35.2177 30.4889 32.8522 31.8824 30.1101C33.2758 27.368 34.0019 24.3286 34 21.2451V5.2226C34.0011 4.9013 33.931 4.58384 33.7949 4.29354C33.6589 4.00324 33.4603 3.74749 33.2137 3.54507ZM29.75 21.2451C29.7516 23.6426 29.1875 26.0058 28.1045 28.1381C27.0215 30.2703 25.451 32.11 23.5237 33.504L17 38.2139L10.4763 33.504C8.54896 32.11 6.97847 30.2703 5.8955 28.1381C4.81252 26.0058 4.24838 23.6426 4.25001 21.2451V7.69587C8.70492 8.08177 13.1666 7.03567 17 4.70644C20.8334 7.03567 25.2951 8.08177 29.75 7.69587V21.2451Z" fill="#FFEFB4"/>
</svg>
