<svg width="45" height="44" viewBox="0 0 45 44" fill="none" xmlns="http://www.w3.org/2000/svg">
<path d="M44.5 22C44.5 10.1519 34.645 0.5 22.5 0.5C10.355 0.5 0.5 10.1519 0.5 22C0.5 33.8481 10.355 43.5 22.5 43.5C34.645 43.5 44.5 33.8481 44.5 22Z" stroke="#F5FBFF"/>
<path d="M25.5555 14.3334C25.801 14.0879 25.801 13.6899 25.5555 13.4445C25.3101 13.199 24.9121 13.199 24.6666 13.4445L16.6663 21.4448C16.4208 21.6903 16.4208 22.0883 16.6663 22.3337C16.9117 22.5792 17.3097 22.5792 17.5552 22.3337L25.5555 14.3334Z" fill="white"/>
<path d="M25.5555 29.4768C25.801 29.7222 25.801 30.1202 25.5555 30.3657C25.3101 30.6111 24.9121 30.6111 24.6666 30.3657L16.6663 22.3653C16.4208 22.1199 16.4208 21.7219 16.6663 21.4764C16.9117 21.2309 17.3097 21.2309 17.5552 21.4764L25.5555 29.4768Z" fill="white"/>
</svg>
