<svg width="15" height="15" viewBox="0 0 15 15" fill="none" xmlns="http://www.w3.org/2000/svg">
<path d="M0.5 7.5C0.5 3.64056 3.64056 0.5 7.5 0.5C11.3594 0.5 14.5 3.64056 14.5 7.5C14.5 11.3594 11.3594 14.5 7.5 14.5C3.64056 14.5 0.5 11.3594 0.5 7.5ZM0.951613 7.5C0.951613 11.1113 3.88874 14.0484 7.5 14.0484C11.1113 14.0484 14.0484 11.1113 14.0484 7.5C14.0484 3.88874 11.1113 0.951613 7.5 0.951613C3.88874 0.951613 0.951613 3.88874 0.951613 7.5ZM7.27419 6.58424C7.27419 6.45957 7.37531 6.35843 7.5 6.35843C7.62469 6.35843 7.72581 6.45957 7.72581 6.58424V11.2113C7.72581 11.3359 7.62469 11.4371 7.5 11.4371C7.37531 11.4371 7.27419 11.3359 7.27419 11.2113V6.58424ZM7.27419 3.78875C7.27419 3.66408 7.37531 3.56294 7.5 3.56294C7.62469 3.56294 7.72581 3.66408 7.72581 3.78875V4.44556C7.72581 4.57023 7.62469 4.67137 7.5 4.67137C7.37531 4.67137 7.27419 4.57023 7.27419 4.44556V3.78875Z" stroke="#FF3C2B"/>
</svg>
