<svg width="15" height="15" viewBox="0 0 15 15" fill="none" xmlns="http://www.w3.org/2000/svg">
<path d="M7.5 0C3.36442 0 0 3.36442 0 7.5C0 11.6356 3.36442 15 7.5 15C11.6356 15 15 11.6356 15 7.5C15 3.36441 11.6356 0 7.5 0ZM7.5 13.5484C4.16488 13.5484 1.45161 10.8351 1.45161 7.5C1.45161 4.16488 4.16488 1.45161 7.5 1.45161C10.8351 1.45161 13.5484 4.16488 13.5484 7.5C13.5484 10.8351 10.8351 13.5484 7.5 13.5484Z" fill="#8DA5B5"/>
<path d="M7.5 5.85843C7.09906 5.85843 6.77419 6.18353 6.77419 6.58424V11.2113C6.77419 11.612 7.09906 11.9371 7.5 11.9371C7.90094 11.9371 8.22581 11.612 8.22581 11.2113V6.58424C8.22581 6.18353 7.90094 5.85843 7.5 5.85843ZM7.5 3.06294C7.09906 3.06294 6.77419 3.38805 6.77419 3.78875V4.44556C6.77419 4.84627 7.09906 5.17137 7.5 5.17137C7.90094 5.17137 8.22581 4.84627 8.22581 4.44556V3.78875C8.22581 3.38804 7.90094 3.06294 7.5 3.06294Z" fill="#8DA5B5"/>
</svg>
