<svg width="11" height="11" viewBox="0 0 11 11" fill="none" xmlns="http://www.w3.org/2000/svg">
<path d="M0.690397 11H0.752273L3.61918 10.7378C3.93323 10.7064 4.22696 10.5675 4.45106 10.3445L10.6386 4.13459C10.8788 3.87996 11.0086 3.54017 10.9996 3.18967C10.9905 2.83917 10.8434 2.50656 10.5905 2.26471L8.70674 0.374141C8.46088 0.14237 8.13871 0.00938355 7.80152 0.000477996C7.46432 -0.00842756 7.13563 0.107369 6.87797 0.325842L0.690397 6.53575C0.468171 6.76066 0.329802 7.05546 0.298518 7.37064L0.00288956 10.2479C-0.00637188 10.349 0.00669446 10.4508 0.0411571 10.5462C0.0756197 10.6417 0.13063 10.7283 0.202267 10.7999C0.266508 10.8638 0.342694 10.9144 0.426459 10.9488C0.510223 10.9831 0.599917 11.0005 0.690397 11ZM7.7511 1.34013L9.628 3.2238L8.25298 4.56928L6.41046 2.72011L7.7511 1.34013ZM1.63228 7.48794L5.50295 3.63089L7.35922 5.49387L3.50918 9.35781L1.44666 9.55101L1.63228 7.48794Z" fill="#656F86"/>
</svg>
