<svg width="36" height="36" viewBox="0 0 36 36" fill="none" xmlns="http://www.w3.org/2000/svg">
<path d="M34.5781 25.3097L32.8011 23.5327C31.8632 22.5948 31.8632 21.0724 32.8011 20.1345L32.8849 20.0508C33.9936 18.9421 33.9936 17.1433 32.8849 16.0346L32.7157 15.8655C31.7778 14.9276 31.7778 13.4052 32.7157 12.4673L34.4927 10.6903C36.3886 8.79442 36.3886 5.71947 34.4927 3.82359L32.091 1.42191C30.1951 -0.473971 27.1202 -0.473971 25.2243 1.42191L23.4473 3.19888C22.5094 4.13678 20.987 4.13678 20.0491 3.19888C18.9404 2.09016 17.1417 2.09016 16.0329 3.19888L15.9492 3.28262C15.0113 4.22052 13.4889 4.22052 12.551 3.28262L10.774 1.50565C8.87816 -0.39023 5.80321 -0.39023 3.90733 1.50565L1.50565 3.90733C-0.39023 5.80321 -0.39023 8.87816 1.50565 10.774L3.28263 12.551C4.22052 13.4889 4.22052 15.0113 3.28263 15.9492L3.19889 16.0329C2.09017 17.1417 2.09017 18.9404 3.19889 20.0491C4.13678 20.987 4.13678 22.5094 3.19889 23.4473L1.42191 25.2243C-0.473971 27.1202 -0.473971 30.1951 1.42191 32.091L3.82359 34.4927C5.71947 36.3886 8.79442 36.3886 10.6903 34.4927L12.4673 32.7157C13.4052 31.7778 14.9276 31.7778 15.8655 32.7157L16.0346 32.8849C17.1433 33.9936 18.9421 33.9936 20.0508 32.8849L20.1345 32.8011C21.0724 31.8632 22.5948 31.8632 23.5327 32.8011L25.3097 34.5781C27.2056 36.474 30.2805 36.474 32.1764 34.5781L34.5781 32.1764C36.474 30.2805 36.474 27.2056 34.5781 25.3097ZM14.8706 27.0013L9.08583 21.2165C8.63531 20.7659 8.63531 20.0374 9.08583 19.5886C9.93831 18.7361 9.93831 17.3527 9.08583 16.5002C8.63531 16.0497 8.63531 15.3211 9.08583 14.8706L14.8706 9.08583C15.3211 8.63531 16.0497 8.63531 16.4985 9.08583C17.351 9.93831 18.7344 9.93831 19.5869 9.08583C20.0374 8.63531 20.766 8.63531 21.2148 9.08583L26.9996 14.8706C27.4501 15.3211 27.4501 16.0497 26.9996 16.4985C26.1471 17.351 26.1471 18.7344 26.9996 19.5869C27.4501 20.0374 27.4501 20.7659 26.9996 21.2165L21.2148 27.0013C20.7643 27.4518 20.0357 27.4518 19.5869 27.0013C18.7344 26.1488 17.351 26.1488 16.4985 27.0013C16.048 27.4518 15.3195 27.4518 14.8706 27.0013Z" fill="#DD3E47"/>
</svg>
