<svg width="37" height="28" viewBox="0 0 37 28" fill="none" xmlns="http://www.w3.org/2000/svg">
<path d="M35.7218 17.7117H30.0838C29.0008 17.7117 28.408 16.437 29.1002 15.5975L32.9142 10.97C33.6063 10.1289 33.0152 8.85584 31.9306 8.85584H26.2925C25.2096 8.85584 24.6168 7.5811 25.3089 6.74167L29.123 2.11417C29.8151 1.2731 29.2239 0 28.1393 0H9.88658C8.08052 0 6.36729 0.80985 5.21102 2.21108L0.297701 8.17084C-0.381403 8.99548 0.175555 10.2324 1.21945 10.2817H16.4675C17.1483 10.2817 17.759 10.7959 17.7948 11.4825C17.8323 12.2152 17.2557 12.8197 16.5392 12.8197H8.8378C8.02678 12.8197 7.25973 13.1827 6.74023 13.8119L4.08895 17.0283C3.40008 17.8645 3.98147 19.1261 5.05306 19.1425H21.985C22.6658 19.1425 23.2765 19.6567 23.3123 20.3433C23.3498 21.076 22.7733 21.6805 22.0567 21.6805H12.6242C11.8131 21.6805 11.0461 22.0435 10.5266 22.6727L7.87695 25.8858C7.18482 26.7269 7.77599 28 8.8606 28H27.1133C28.9194 28 30.6326 27.1902 31.7889 25.7889L36.7022 19.8292C37.3943 18.9881 36.8032 17.715 35.7186 17.715L35.7218 17.7117Z" fill="#E2822B"/>
</svg>
