<svg width="35" height="36" viewBox="0 0 35 36" fill="none" xmlns="http://www.w3.org/2000/svg">
<path d="M29.6704 12.3565H31.2437C33.3167 12.3565 35 10.6875 35 8.63213V4.22437C35 2.16904 33.3167 0.5 31.2437 0.5H26.7982C24.7253 0.5 23.042 2.16904 23.042 4.22437V5.78439C23.042 7.30979 22.4326 8.77085 21.3437 9.85052C19.2208 11.9554 15.7792 11.9554 13.6563 9.85052C12.5674 8.77085 11.958 7.30979 11.958 5.78439V4.22437C11.958 2.16904 10.2747 0.5 8.20177 0.5H3.75626C1.68333 0.5 0 2.16904 0 4.22437V8.63213C0 10.6875 1.68333 12.3565 3.75626 12.3565H5.32964C6.8681 12.3565 8.34167 12.9607 9.43058 14.0404L9.58039 14.189C11.7033 16.2939 11.7033 19.7062 9.58039 21.8111L9.43058 21.9596C8.34167 23.0393 6.8681 23.6435 5.32964 23.6435H3.75626C1.68333 23.6435 0 25.3125 0 27.3679V31.7757C0 33.831 1.68333 35.5 3.75626 35.5H8.20177C10.2747 35.5 11.958 33.831 11.958 31.7757V30.2156C11.958 28.6902 12.5674 27.2292 13.6563 26.1495C15.7792 24.0446 19.2208 24.0446 21.3437 26.1495C22.4326 27.2292 23.042 28.6902 23.042 30.2156V31.7757C23.042 33.831 24.7253 35.5 26.7982 35.5H31.2437C33.3167 35.5 35 33.831 35 31.7757V27.3679C35 25.3125 33.3167 23.6435 31.2437 23.6435H29.6704C28.1319 23.6435 26.6583 23.0393 25.5694 21.9596L25.4196 21.8111C23.2967 19.7062 23.2967 16.2939 25.4196 14.189L25.5694 14.0404C26.6583 12.9607 28.1319 12.3565 29.6704 12.3565ZM19.5505 18.7157L18.2268 20.0281C17.8272 20.4243 17.1778 20.4243 16.7732 20.0281L15.4495 18.7157C15.0499 18.3195 15.0499 17.6756 15.4495 17.2745L16.7732 15.962C17.1728 15.5658 17.8222 15.5658 18.2268 15.962L19.5505 17.2745C19.9501 17.6707 19.9501 18.3145 19.5505 18.7157Z" fill="#1971F2"/>
</svg>
