<svg width="34" height="34" viewBox="0 0 34 34" fill="none" xmlns="http://www.w3.org/2000/svg">
<path d="M24.3159 0.5H32.5162C33.3344 0.5 34 1.16505 34 1.98669V11.1739C34 11.9937 33.3363 12.6606 32.5162 12.6606H26.822C26.0038 12.6606 25.3382 13.3257 25.3382 14.1473V19.8527C25.3382 20.6725 26.002 21.3394 26.822 21.3394H32.5162C33.3344 21.3394 34 22.0044 34 22.8261V32.0133C34 32.8331 33.3363 33.5 32.5162 33.5H24.3159C23.4977 33.5 22.8321 32.8349 22.8321 32.0133V27.0706C22.8321 26.2508 22.1684 25.5839 21.3484 25.5839H19.3976C18.5794 25.5839 17.9138 26.249 17.9138 27.0706V27.1866C17.9138 28.0064 17.2501 28.6733 16.43 28.6733H11.497C10.6788 28.6733 10.0132 28.0083 10.0132 27.1866V24.0235C10.0132 23.2037 9.34944 22.5368 8.52941 22.5368H7.24421C6.42602 22.5368 5.76043 23.2019 5.76043 24.0235C5.76043 24.8433 5.09668 25.5102 4.27665 25.5102H1.48378C0.665587 25.5102 0 24.8452 0 24.0235V9.982C0 9.16221 0.663748 8.49532 1.48378 8.49532H4.27665C5.09484 8.49532 5.76043 9.16036 5.76043 9.982C5.76043 10.8018 6.42418 11.4687 7.24421 11.4687H8.52941C9.3476 11.4687 10.0132 10.8036 10.0132 9.982V6.81887C10.0132 5.99908 10.6769 5.3322 11.497 5.3322H16.43C17.2482 5.3322 17.9138 5.99723 17.9138 6.81887V6.93493C17.9138 7.75473 18.5775 8.42162 19.3976 8.42162H21.3484C22.1666 8.42162 22.8321 7.75657 22.8321 6.93493V1.99222C22.8321 1.17242 23.4959 0.505532 24.3159 0.505532V0.5Z" fill="#2F9F9E"/>
</svg>
