<svg width="44" height="42" viewBox="0 0 44 42" fill="none" xmlns="http://www.w3.org/2000/svg">
<path d="M31.4641 0.00545421H42.0811C43.1428 0.00545421 44 0.850016 44 1.8962V13.5895C44 14.6357 43.1428 15.4802 42.0811 15.4802H34.71C33.6483 15.4802 32.7913 16.3249 32.7913 17.3711V24.6344C32.7913 25.6806 33.6483 26.5251 34.71 26.5251H42.0811C43.1428 26.5251 44 27.3697 44 28.4159V40.1093C44 41.1554 43.1428 42 42.0811 42H31.4641C30.4024 42 29.5453 41.1554 29.5453 40.1093V33.8158C29.5453 32.7696 28.6882 31.925 27.6264 31.925H25.0994C24.0377 31.925 23.1806 32.7696 23.1806 33.8158V33.9629C23.1806 35.0091 22.3234 35.8536 21.2617 35.8536H14.875C13.8132 35.8536 12.9562 35.0091 12.9562 33.9629V29.9362C12.9562 28.89 12.099 28.0454 11.0373 28.0454H9.37284C8.31114 28.0454 7.45405 28.89 7.45405 29.9362C7.45405 30.9823 6.59696 31.8269 5.53525 31.8269H1.9188C0.85709 31.8269 0 30.9823 0 29.9362V12.0638C0 11.0177 0.85709 10.173 1.9188 10.173H5.53525C6.59696 10.173 7.45405 11.0177 7.45405 12.0638C7.45405 13.11 8.31114 13.9546 9.37284 13.9546H11.0373C12.099 13.9546 12.9562 13.11 12.9562 12.0638V8.03711C12.9562 6.99092 13.8132 6.14629 14.875 6.14629H21.2617C22.3234 6.14629 23.1806 6.99092 23.1806 8.03711V8.18417C23.1806 9.23036 24.0377 10.075 25.0994 10.075H27.6264C28.6882 10.075 29.5453 9.23036 29.5453 8.18417V1.89075C29.5453 0.844562 30.4024 0 31.4641 0V0.00545421Z" fill="#843CEA"/>
</svg>
