<svg width="34" height="34" viewBox="0 0 34 34" fill="none" xmlns="http://www.w3.org/2000/svg">
<rect x="0.5" y="0.5" width="33" height="33" rx="16.5" stroke="#F5F5F5"/>
<path d="M12.8892 12.8891C13.0845 12.6938 13.4011 12.6938 13.5963 12.8891L20.6674 19.9602C20.8627 20.1554 20.8627 20.472 20.6674 20.6673C20.4721 20.8625 20.1556 20.8625 19.9603 20.6673L12.8892 13.5962C12.694 13.4009 12.694 13.0843 12.8892 12.8891Z" fill="#F5F5F5"/>
<path d="M20.6674 12.8891C20.8627 13.0843 20.8627 13.4009 20.6674 13.5962L13.5963 20.6673C13.4011 20.8625 13.0845 20.8625 12.8892 20.6673C12.694 20.472 12.694 20.1554 12.8892 19.9602L19.9603 12.8891C20.1556 12.6938 20.4721 12.6938 20.6674 12.8891Z" fill="#F5F5F5"/>
</svg>
