<svg width="151"  viewBox="0 0 151 122" fill="none" xmlns="http://www.w3.org/2000/svg">
<g clip-path="url(#clip0_54_24249)">
<path d="M56.3613 0.842529L42.8243 30.5001L70.0013 30.311L56.3613 0.842529Z" fill="white"/>
<path d="M42.8243 31.3424C42.5327 31.3424 42.2753 31.2049 42.1209 30.9642C41.9665 30.7235 41.9493 30.414 42.0694 30.1561L55.6064 0.498591C55.7437 0.189121 56.0353 0 56.3613 0C56.6873 0 56.9961 0.189121 57.1334 0.481398L70.7562 29.9498C70.8763 30.2077 70.8591 30.5172 70.7047 30.7579C70.5503 30.9986 70.2929 31.1533 70.0012 31.1533L42.8243 31.3424ZM56.3785 2.87119L44.1454 29.6576L68.6801 29.4856L56.3785 2.87119Z" fill="black"/>
<path d="M40.5938 37.0334C51.7974 37.2913 72.386 36.7583 72.386 36.7583L83.8126 59.7107L29.7505 60.8454L40.5938 37.0334Z" fill="white"/>
<path d="M29.7333 61.6878C29.4417 61.6878 29.1843 61.5502 29.0299 61.3095C28.8755 61.0688 28.8412 60.7593 28.9613 60.5015L39.8217 36.7066C39.959 36.3972 40.285 36.2081 40.611 36.2081C51.6602 36.4488 72.1458 35.933 72.3517 35.933C72.6948 35.9158 72.9865 36.1049 73.1237 36.3972L84.5504 59.3495C84.6877 59.6074 84.6705 59.9169 84.5161 60.1576C84.3617 60.3983 84.1043 60.553 83.8126 60.5702L29.7505 61.705C29.7333 61.6878 29.7333 61.6878 29.7333 61.6878ZM41.1257 37.8929L31.0544 59.9685L82.4401 58.9025L71.8541 37.6351C68.5943 37.7038 51.2999 38.0993 41.1257 37.8929Z" fill="black"/>
<path d="M27.1426 66.2095L86.7122 66.5018L98.4305 89.4541L16.1792 89.1618L27.1426 66.2095Z" fill="#FF7050"/>
<path d="M98.4306 90.2965L16.1621 90.0042C15.8704 90.0042 15.6131 89.8495 15.4587 89.6088C15.3042 89.3681 15.2871 89.0586 15.4072 88.8007L26.3706 65.8483C26.5079 65.5561 26.7995 65.3669 27.1255 65.3669L86.6951 65.6592C87.0039 65.6592 87.2956 65.8311 87.45 66.1234L99.1683 89.0758C99.3056 89.3337 99.2884 89.6603 99.134 89.901C98.9968 90.1417 98.7223 90.2965 98.4306 90.2965ZM17.5175 88.3193L97.058 88.5944L86.1975 67.3269L27.6745 67.0518L17.5175 88.3193Z" fill="black"/>
<path d="M13.76 96.3657L100.421 96.5377L114.095 121.158L0.840698 120.969L13.76 96.3657Z" fill="white"/>
<path d="M114.095 122L0.840725 121.811C0.549054 121.811 0.27454 121.656 0.120125 121.398C-0.0342891 121.14 -0.0342891 120.831 0.102968 120.573L13.0051 95.9702C13.1596 95.6951 13.4341 95.5232 13.7601 95.5232L100.421 95.6951C100.73 95.6951 101.004 95.867 101.159 96.1249L114.85 120.745C114.987 121.003 114.987 121.33 114.833 121.587C114.678 121.845 114.404 122 114.095 122ZM2.23045 120.126L112.654 120.315L99.9061 97.38L14.2576 97.2081L2.23045 120.126Z" fill="black"/>
<path d="M38.3977 59.2806C38.2948 59.2806 38.209 59.229 38.1575 59.1431L35.3094 54.5182C35.2237 54.3807 35.2751 54.2087 35.3952 54.1228C35.5325 54.0368 35.7041 54.0884 35.7898 54.2087L38.6379 58.8336C38.7237 58.9711 38.6722 59.1431 38.5521 59.229C38.5007 59.2806 38.4492 59.2806 38.3977 59.2806Z" fill="black"/>
<path d="M44.54 58.5759C44.4542 58.5759 44.3684 58.5415 44.317 58.4727C41.8806 55.4468 39.6674 52.1286 37.7286 48.5697C37.66 48.4321 37.7115 48.2602 37.8316 48.1914C37.9688 48.1227 38.1404 48.1743 38.209 48.2946C40.1306 51.8191 42.3267 55.1201 44.7459 58.1117C44.8488 58.232 44.8317 58.404 44.7116 58.5071C44.6601 58.5587 44.5915 58.5759 44.54 58.5759Z" fill="black"/>
<path d="M50.0646 58.1805C49.9789 58.1805 49.8931 58.1461 49.8416 58.0773C46.4788 53.6588 43.2876 48.9651 40.3537 44.0996C40.2679 43.962 40.3194 43.7901 40.4566 43.7041C40.5939 43.6182 40.7655 43.6697 40.8513 43.8073C43.7851 48.6557 46.9592 53.3493 50.3048 57.7335C50.3906 57.8538 50.3735 58.0257 50.2534 58.1289C50.1847 58.1633 50.1333 58.1805 50.0646 58.1805Z" fill="black"/>
<path d="M55.7265 58.0601C55.6407 58.0601 55.5378 58.0085 55.4863 57.9398L43.9224 40.4203C43.8366 40.2828 43.8709 40.1109 44.0082 40.0249C44.1454 39.9389 44.317 39.9733 44.4028 40.1109L55.9667 57.6303C56.0525 57.7678 56.0182 57.9398 55.8809 58.0257C55.8294 58.0429 55.778 58.0601 55.7265 58.0601Z" fill="black"/>
<path d="M60.9766 57.0285C60.8908 57.0285 60.805 56.977 60.7364 56.9082C57.1334 51.5956 53.599 46.0595 50.2534 40.4547C50.1676 40.3172 50.2191 40.1452 50.3563 40.0765C50.4936 39.9905 50.6651 40.0421 50.7338 40.1796C54.0794 45.7673 57.5966 51.2861 61.1996 56.5987C61.2854 56.7191 61.2511 56.9082 61.131 56.9942C61.0795 57.0113 61.0281 57.0285 60.9766 57.0285Z" fill="black"/>
<path d="M66.6728 57.166C66.587 57.166 66.484 57.1144 66.4326 57.0456L56.1211 41.297C56.0353 41.1595 56.0696 40.9876 56.2069 40.9016C56.3442 40.8156 56.5157 40.85 56.6015 40.9876L66.8958 56.7362C66.9816 56.8737 66.9473 57.0456 66.81 57.1316C66.7757 57.1488 66.7242 57.166 66.6728 57.166Z" fill="black"/>
<path d="M71.5796 56.2891C71.4938 56.2891 71.4081 56.2547 71.3394 56.1688C67.8908 51.1313 64.5109 45.9047 61.2682 40.6437C61.1824 40.5061 61.2339 40.3342 61.354 40.2483C61.4912 40.1623 61.6628 40.2139 61.7486 40.3342C64.9741 45.5952 68.3541 50.8046 71.8027 55.8421C71.8885 55.9625 71.8541 56.1516 71.734 56.2375C71.6826 56.2719 71.6311 56.2891 71.5796 56.2891Z" fill="black"/>
<path d="M77.2758 56.3236C77.19 56.3236 77.1042 56.2892 77.0528 56.2033C73.5184 51.1658 70.1728 45.8016 67.1188 40.2827C67.0502 40.1452 67.0845 39.9733 67.2217 39.9045C67.359 39.8357 67.5306 39.8701 67.5992 40.0077C70.6532 45.5094 73.9816 50.8391 77.4989 55.8766C77.5846 55.997 77.5503 56.1861 77.4302 56.272C77.3788 56.3064 77.3273 56.3236 77.2758 56.3236Z" fill="black"/>
<g opacity="0.1294">
<path d="M67.8223 26.1845C64.957 20.6141 62.2977 14.8545 59.7241 9.04332C58.9692 7.30685 58.2486 5.5188 57.4594 3.79952C57.1848 3.21497 56.9275 2.56164 56.3613 2.38971C55.2804 1.95989 54.2681 3.6104 54.8686 4.84828C56.3613 8.09772 57.6481 11.4847 59.1064 14.7513C61.4227 19.7372 64.6654 26.494 66.6727 29.9669C67.2046 31.2048 68.7831 30.9469 69.0404 29.5715C69.2635 28.282 68.2683 27.2505 67.8223 26.1845Z" fill="black"/>
</g>
<g opacity="0.1294">
<path d="M82.9549 57.0629C82.9892 57.0973 82.3887 56.1001 81.9426 55.1545C80.1926 51.4237 78.494 47.6757 76.6582 44.0136C75.1655 41.0908 74.1876 39.6638 72.9866 37.4975C72.6263 36.1221 71.4596 35.9674 70.739 36.5863C69.8297 36.2768 68.7316 37.4975 69.3321 38.873C71.1679 42.5866 71.6483 42.6726 73.5013 46.3002C74.891 48.9823 76.0062 51.8879 77.396 54.5872C78.1166 55.911 78.8028 57.252 79.472 58.6275C79.7465 59.1776 80.0038 59.8138 80.5529 59.9685C80.8789 60.106 81.2048 60.0373 81.4794 59.8481C82.1485 60.2092 83.075 59.7966 83.2637 58.7822C83.401 58.1461 83.2122 57.5787 82.9549 57.0629Z" fill="black"/>
</g>
<g opacity="0.1294">
<path d="M96.9379 87.7004C96.8006 87.3566 96.629 87.0299 96.4575 86.7204C95.2222 84.279 93.9354 81.8549 92.6657 79.4479C91.4304 77.1097 90.2466 74.7199 88.9941 72.3988C88.2735 70.7655 87.6215 69.0806 86.8666 67.4473C86.1632 64.9028 83.418 66.1579 84.2931 68.5992C85.0994 70.3873 85.7514 72.2785 86.5921 74.015C88.222 76.783 89.7147 79.6886 91.1388 82.6457C92.1682 84.5713 93.0604 86.5829 94.0555 88.5257C94.3643 89.0758 94.6388 89.6948 95.0849 90.0558C95.2908 90.2106 95.531 90.3137 95.7712 90.3137C96.8521 90.3653 97.4697 88.7492 96.9379 87.7004Z" fill="black"/>
</g>
<g opacity="0.1294">
<path d="M95.1021 90.0559C95.0163 89.9871 94.8962 89.8324 94.8447 89.8152C94.9305 89.9183 95.0163 89.9871 95.1021 90.0559Z" fill="black"/>
</g>
<g opacity="0.1294">
<path d="M95.1192 90.0731H95.1021V90.0559L95.1192 90.0731Z" fill="black"/>
</g>
<g opacity="0.1294">
<path d="M112.465 118.579C111.933 117.444 110.578 115.656 110.406 115.312C108.588 111.891 106.906 108.383 105.019 105.014C103.904 102.744 102.703 100.543 101.467 98.3772C101.141 97.8098 100.815 97.2596 100.472 96.7095C100.455 96.7095 100.438 96.7267 100.438 96.7267C100.335 96.761 100.249 96.7954 100.146 96.8126C99.2713 97.0533 98.3791 97.0705 97.4869 97.1565C97.4869 97.4488 97.5556 97.741 97.6928 98.0333C100.524 103.294 105.293 112.785 106.941 115.209C107.112 115.484 107.369 115.914 107.472 116.086C107.592 116.309 108.056 117.049 108.244 117.358C108.999 118.63 109.617 120.212 110.749 120.968C110.767 120.986 110.784 121.003 110.801 121.02C110.629 120.865 110.921 121.209 111.144 121.278C111.453 121.467 111.83 121.467 112.139 121.278C112.62 121.072 112.928 120.418 112.928 119.782C112.894 119.318 112.74 118.888 112.465 118.579Z" fill="black"/>
</g>
<path d="M112.225 70.0606C118.11 75.8718 123.995 81.6657 129.897 87.4769C133.002 90.5372 136.125 93.6147 139.522 96.2796C141.358 97.7066 143.382 99.0648 145.613 99.0648C147.843 99.0648 150.194 97.1908 150.177 94.6635C150.159 92.7035 148.804 91.1218 147.534 89.7807C138.149 79.8777 128.353 70.4904 118.178 61.6533C116.308 64.387 114.438 67.1206 112.225 70.0606Z" fill="white"/>
<path d="M145.596 99.9245C143.108 99.9245 140.946 98.4975 138.99 96.9502C135.559 94.2681 132.385 91.1218 129.296 88.0959L111.624 70.6624C111.316 70.3701 111.281 69.8887 111.539 69.5449C113.735 66.6393 115.622 63.854 117.441 61.1892C117.578 60.9829 117.801 60.8453 118.041 60.8109C118.281 60.7765 118.522 60.8453 118.71 61C128.867 69.8199 138.767 79.3104 148.118 89.1962C149.49 90.6576 150.966 92.3941 150.983 94.6635C151 95.9702 150.451 97.2424 149.473 98.2224C148.461 99.2884 147.002 99.9245 145.596 99.9245ZM113.34 69.9919L130.48 86.8924C133.517 89.9011 136.674 92.9958 140.019 95.6263C141.752 96.9845 143.622 98.2396 145.578 98.2396C146.539 98.2396 147.551 97.7926 148.289 97.0533C148.941 96.3828 149.301 95.5575 149.301 94.6979C149.284 93.0474 148.101 91.672 146.9 90.3825C137.806 80.7717 128.181 71.522 118.316 62.9256C116.772 65.1951 115.159 67.5333 113.34 69.9919Z" fill="black"/>
<path d="M89.2343 5.86279C68.9545 5.86279 52.5009 22.3335 52.5009 42.6725C52.5009 63.0116 68.9374 79.4823 89.2343 79.4823C109.514 79.4823 125.968 63.0116 125.968 42.6725C125.968 22.3335 109.531 5.86279 89.2343 5.86279ZM89.2343 70.628C73.8272 70.628 61.3368 58.1117 61.3368 42.6725C61.3368 27.2334 73.8443 14.7171 89.2343 14.7171C104.641 14.7171 117.132 27.2334 117.132 42.6725C117.132 58.1117 104.641 70.628 89.2343 70.628ZM89.2343 70.628C73.8272 70.628 61.3368 58.1117 61.3368 42.6725C61.3368 27.2334 73.8443 14.7171 89.2343 14.7171C104.641 14.7171 117.132 27.2334 117.132 42.6725C117.132 58.1117 104.641 70.628 89.2343 70.628Z" fill="white"/>
<path d="M89.2343 80.3247C68.5256 80.3247 51.6602 63.4413 51.6602 42.6725C51.6602 21.9208 68.5085 5.02026 89.2343 5.02026C109.943 5.02026 126.808 21.9036 126.808 42.6725C126.808 63.4242 109.96 80.3247 89.2343 80.3247ZM89.2343 6.70516C69.4521 6.70516 53.3587 22.832 53.3587 42.6553C53.3587 62.4786 69.4521 78.6054 89.2343 78.6054C109.016 78.6054 125.11 62.4786 125.11 42.6553C125.127 22.8492 109.034 6.70516 89.2343 6.70516ZM89.2343 71.4704C73.3811 71.4704 60.4961 58.5586 60.4961 42.6725C60.4961 26.7863 73.3811 13.8745 89.2343 13.8745C105.087 13.8745 117.973 26.7863 117.973 42.6725C117.973 58.5414 105.087 71.4704 89.2343 71.4704ZM62.1946 42.6725C62.1946 57.613 74.3247 69.7855 89.2515 69.7855C104.161 69.7855 116.308 57.6302 116.308 42.6725C116.308 27.7319 104.178 15.5594 89.2515 15.5594C74.3247 15.5594 62.1946 27.7147 62.1946 42.6725Z" fill="black"/>
<path d="M116.96 71.1266C116.926 71.1266 116.909 71.1266 116.874 71.1094C116.72 71.075 116.634 70.9031 116.686 70.7656L117.338 68.4961C117.372 68.3414 117.544 68.2554 117.681 68.307C117.835 68.3414 117.921 68.5133 117.87 68.6508L117.218 70.9203C117.2 71.0406 117.08 71.1266 116.96 71.1266Z" fill="black"/>
<path d="M120.048 75.0981C120.031 75.0981 120.031 75.0981 120.014 75.0981C119.86 75.081 119.757 74.9434 119.774 74.7887C120.117 72.141 120.529 69.4589 121.009 66.8456C121.044 66.6909 121.181 66.5877 121.335 66.6221C121.49 66.6565 121.593 66.794 121.558 66.9488C121.078 69.5621 120.666 72.227 120.323 74.8746C120.306 74.995 120.186 75.0981 120.048 75.0981Z" fill="black"/>
<path d="M124.063 78.9492C123.909 78.9492 123.789 78.8288 123.789 78.6741C123.789 77.3502 123.995 75.1324 124.166 73.1724C124.269 71.9689 124.372 70.9373 124.406 70.3012C124.406 70.1465 124.544 70.0261 124.698 70.0261C124.853 70.0261 124.973 70.1637 124.973 70.3184C124.938 70.9717 124.853 72.0205 124.732 73.224C124.561 75.1668 124.355 77.3846 124.355 78.6913C124.338 78.8116 124.218 78.9492 124.063 78.9492Z" fill="black"/>
<path d="M128.164 82.7316C128.009 82.7316 127.889 82.6112 127.889 82.4565L127.683 73.052C127.683 72.8973 127.804 72.7598 127.958 72.7598C128.112 72.7598 128.232 72.8801 128.232 73.0348L128.438 82.4393C128.456 82.6112 128.335 82.7316 128.164 82.7316Z" fill="black"/>
<path d="M132.076 86.8924C131.921 86.8924 131.801 86.772 131.801 86.6173L131.441 76.783C131.441 76.6283 131.561 76.4907 131.715 76.4907C131.87 76.4907 132.007 76.6111 132.007 76.7658L132.367 86.6001C132.367 86.7548 132.247 86.8924 132.076 86.8924Z" fill="black"/>
<path d="M136.056 90.3996C135.902 90.3996 135.782 90.2793 135.782 90.1417L135.284 80.9436C135.284 80.7888 135.387 80.6513 135.541 80.6513C135.679 80.6341 135.833 80.7545 135.833 80.9092L136.331 90.1073C136.348 90.2621 136.228 90.3824 136.056 90.3996Z" fill="black"/>
<path d="M139.985 93.6319C139.848 93.6319 139.711 93.5116 139.711 93.374L139.024 84.4166C139.007 84.2618 139.127 84.1243 139.282 84.1071C139.419 84.0899 139.573 84.2103 139.591 84.365L140.277 93.3224C140.294 93.4772 140.174 93.6147 140.019 93.6319C140.002 93.6319 140.002 93.6319 139.985 93.6319Z" fill="black"/>
<path d="M143.725 96.5545C143.588 96.5545 143.468 96.4514 143.451 96.2966L142.644 88.4395C142.627 88.2848 142.747 88.1472 142.902 88.1301C143.039 88.1129 143.193 88.2332 143.211 88.388L144.017 96.2451C144.034 96.3998 143.914 96.5373 143.76 96.5545C143.743 96.5545 143.725 96.5545 143.725 96.5545Z" fill="black"/>
<path d="M147.38 96.1248C147.243 96.1248 147.123 96.0216 147.105 95.8841L146.539 92.3768C146.522 92.222 146.625 92.0845 146.779 92.0501C146.934 92.0157 147.071 92.1361 147.105 92.2908L147.672 95.7981C147.689 95.9529 147.586 96.0904 147.431 96.1248C147.397 96.1248 147.38 96.1248 147.38 96.1248Z" fill="black"/>
<g opacity="0.1294">
<path d="M115.227 51.5782C114.301 52.3519 113.872 53.6242 113.1 54.5354C112.963 54.8105 111.075 56.9252 110.012 57.9396C109.085 58.7648 108.21 59.4869 107.301 60.1746C107.146 60.209 106.975 60.2606 106.838 60.3638C102.239 63.6992 98.7908 64.9027 92.9917 65.9858C90.2294 66.5016 87.0553 66.9314 82.7146 65.8655C79.6778 65.1605 78.2023 64.3181 75.0282 62.1862C73.6728 61.2406 70.6703 58.5929 68.6286 56.1171C66.4325 53.1084 65.6776 50.4779 65.2315 49.2744C64.7682 48.0365 64.4251 46.7815 64.0648 45.5092C63.5329 43.7727 63.3613 43.171 63.3785 41.6924C63.0354 40.7468 62.7265 39.8012 62.452 38.8384C62.1775 38.718 61.8858 38.6493 61.577 38.6837C61.0794 42.4833 61.1481 46.3001 61.6285 50.0825C62.452 53.3491 63.4643 56.908 66.604 60.4325C69.1261 63.2178 70.859 64.1806 71.9399 65.0746C74.462 66.897 77.1557 68.5819 80.141 69.5447C81.7709 70.0261 83.4695 70.2152 85.1509 70.4215C85.1681 70.4215 85.1681 70.4215 85.1852 70.4215C87.021 70.7482 88.874 70.7654 90.727 70.5591C92.1682 70.4387 93.5579 70.0089 94.9648 69.6307C97.8643 68.9258 100.747 68.0317 103.389 66.6219C104.47 65.9514 104.83 65.6935 105.345 65.3153C108.588 63.2865 111.95 60.4669 113.666 58.5069C114.112 57.5785 114.541 56.6501 114.953 55.7045C115.468 54.2947 115.965 52.8849 116.463 51.4751C116.051 51.3375 115.605 51.3375 115.227 51.5782Z" fill="black"/>
</g>
<path class="done" d="M80.6215 36.1736L76.2635 40.2483L88.1706 53.5212L101.347 34.2996L96.4575 30.4141L87.2613 43.4118L80.6215 36.1736Z" fill="#FF7050"/>
<path class="done" d="M88.1706 54.3635C87.9304 54.3635 87.7074 54.2603 87.5358 54.0884L75.6287 40.8156C75.3199 40.4717 75.3371 39.9388 75.6802 39.6293L80.0553 35.5374C80.2268 35.3827 80.4327 35.2967 80.6558 35.3139C80.8788 35.3311 81.0847 35.4171 81.2391 35.589L87.1755 42.0535L95.7712 29.9154C95.9085 29.7262 96.1144 29.6059 96.3374 29.5715C96.5604 29.5371 96.8006 29.6059 96.9894 29.7434L101.862 33.629C102.205 33.9041 102.291 34.4027 102.034 34.7637L88.8569 53.9853C88.7025 54.1916 88.4794 54.3291 88.2221 54.3463C88.2049 54.3635 88.1878 54.3635 88.1706 54.3635ZM77.4302 40.2998L88.0677 52.1456L100.181 34.4714L96.6119 31.6346L87.9304 43.8931C87.776 44.0994 87.5529 44.2369 87.2956 44.2541C87.0382 44.2713 86.798 44.1682 86.6265 43.9791L80.57 37.3598L77.4302 40.2998Z" fill="black"/>
</g>
<defs>
<clipPath id="clip0_54_24249">
<rect width="151" height="122" fill="white"/>
</clipPath>
</defs>
</svg>
