<svg width="114"  viewBox="0 0 114 124" fill="none" xmlns="http://www.w3.org/2000/svg">
<g clip-path="url(#clip0_54_24222)">
<path d="M0.849609 53.0764C16.8183 37.8698 33.6365 21.7657 49.6052 6.55913C52.5354 3.76292 55.899 0.794101 59.9562 0.845883C62.4356 0.880404 64.7416 2.05412 66.8396 3.36593C85.9638 15.3448 100.962 42.6165 113.168 52.386C112.925 71.131 99.3837 90.4801 85.4783 103.115C80.6583 107.499 75.318 111.555 69.1109 113.54C64.4642 115.025 59.4707 115.284 54.6333 114.61C40.4158 112.643 28.2269 102.89 20.0779 91.136C11.8942 79.3815 6.31121 66.5569 0.849609 53.0764Z" fill="#FF7050"/>
<path d="M59.5749 115.818C57.893 115.818 56.1939 115.698 54.4774 115.473C41.3869 113.661 28.5911 104.979 19.3498 91.6364C10.9233 79.4677 5.20163 66.0735 0.0694661 53.387C-0.0692411 53.059 0.0174509 52.6966 0.277527 52.4549C8.28787 44.8257 16.5063 36.9722 24.742 29.1186C32.9084 21.3168 41.0748 13.515 49.0331 5.93764C52.1714 2.9343 55.6217 0 59.8523 0C59.887 0 59.9216 0 59.9563 0C62.7305 0.0345212 65.2098 1.36359 67.2731 2.65813C78.7858 9.87305 88.7554 22.4733 97.546 33.5891C103.337 40.9248 108.816 47.8463 113.671 51.7472C113.879 51.9026 114 52.1615 113.983 52.4204C113.74 71.7868 99.3665 91.6364 86.0159 103.771C81.8374 107.568 76.1677 112.194 69.3364 114.369C66.3022 115.335 62.9905 115.818 59.5749 115.818ZM1.85532 53.3007C6.9008 65.7283 12.5531 78.8291 20.7542 90.6698C29.7355 103.615 42.1151 112.056 54.7201 113.799C59.6789 114.489 64.551 114.127 68.8162 112.763C75.3355 110.675 80.8318 106.204 84.8716 102.528C97.8754 90.7216 111.85 71.5106 112.284 52.8174C107.36 48.7611 101.933 41.9087 96.2109 34.6592C87.507 23.6297 77.6415 11.1503 66.3715 4.09076C64.499 2.91704 62.2797 1.72606 59.939 1.69154C56.3153 1.63976 53.125 4.36693 50.1948 7.16314C42.2365 14.7405 34.0701 22.5423 25.9037 30.3441C17.824 38.0596 9.7443 45.7923 1.85532 53.3007Z" fill="black"/>
<path class="mail" d="M21.6556 11.3402C22.9387 41.4081 23.6842 71.5106 23.8923 101.596C23.8923 101.596 92.6391 100.232 92.6911 99.3864C91.9975 69.6809 91.8762 39.9755 92.3096 10.27L21.6556 11.3402Z" fill="white"/>
<path class="mail" d="M23.8923 102.459C23.6669 102.459 23.4589 102.373 23.3028 102.217C23.1468 102.062 23.0427 101.837 23.0427 101.613C22.8347 71.666 22.0718 41.3046 20.8061 11.3748C20.7887 11.1504 20.8754 10.926 21.0315 10.7534C21.1875 10.5808 21.4129 10.4945 21.6383 10.4945L92.3097 9.42432C92.5177 9.42432 92.7605 9.51062 92.9165 9.66596C93.0725 9.82131 93.1766 10.0457 93.1592 10.2701C92.7258 39.8202 92.8472 69.7846 93.5407 99.3519C93.5407 99.3865 93.5407 99.4037 93.5407 99.4382C93.4713 100.405 93.4713 100.491 81.9413 100.923C76.237 101.147 68.2613 101.389 58.2917 101.648C41.2827 102.114 24.083 102.442 23.8923 102.459ZM22.5399 12.186C23.7883 41.5635 24.5165 71.3553 24.7419 100.75C49.8826 100.249 86.64 99.3347 91.8242 98.7306C91.1653 69.6637 91.0266 40.1999 91.4601 11.1504L22.5399 12.186Z" fill="black"/>
<path d="M0.849609 53.0762C2.86086 71.4587 0.762917 112.211 2.23668 117.061C3.20763 120.237 6.15516 122.377 9.48413 122.308C9.48413 122.308 69.0762 123.655 103.129 122.912C107.515 122.826 113.133 121.221 113.133 112.901C113.133 91.8262 112.301 78.2766 113.133 52.3857C98.7249 66.6775 83.9699 80.6241 68.8855 94.2254C66.5101 96.3657 63.3372 98.6614 60.251 97.7638C51.235 94.5879 43.7448 88.2532 36.4974 82.0567C24.6032 71.9075 12.7091 61.741 0.849609 53.0762Z" fill="white"/>
<path d="M78.7337 124C46.675 124 9.93491 123.189 9.46678 123.171C5.82571 123.223 2.49674 120.841 1.42176 117.32C0.710882 114.973 0.780236 105.514 0.866928 93.5522C0.970958 79.9854 1.09233 63.1218 7.73836e-06 53.1625C-0.0346691 52.8345 0.121377 52.5066 0.416129 52.334C0.710882 52.1614 1.07499 52.1786 1.3524 52.3858C13.2292 61.0678 25.3488 71.4069 37.0522 81.418C43.8488 87.2176 51.5644 93.8111 60.5457 96.9698C63.2678 97.7638 66.2847 95.4164 68.3133 93.604C83.311 80.089 98.1874 66.0389 112.526 51.7989C112.769 51.5572 113.15 51.4882 113.463 51.6263C113.775 51.7644 113.983 52.0923 113.983 52.4375C113.428 69.5428 113.601 81.1074 113.792 93.3279C113.879 99.4554 113.983 105.773 113.983 112.919C113.983 119.875 110.238 123.637 103.129 123.793C95.9161 123.931 87.4896 124 78.7337 124ZM9.46678 121.48C10.1083 121.497 69.475 122.809 103.111 122.084C109.284 121.946 112.284 118.96 112.284 112.919C112.284 105.79 112.179 99.4726 112.093 93.3624C111.919 81.6252 111.746 70.5094 112.214 54.5088C98.3261 68.2482 83.9526 81.815 69.4577 94.864C67.1343 96.9698 63.6146 99.628 60.0256 98.5923C50.6975 95.2956 42.8605 88.6157 35.9425 82.7126C24.7766 73.1502 13.2292 63.2944 1.88989 54.8885C2.79149 65.0723 2.67012 80.7794 2.58343 93.5522C2.49674 104.444 2.42738 114.731 3.05157 116.819C3.91849 119.616 6.55392 121.566 9.46678 121.48Z" fill="black"/>
<g opacity="0.1294">
<path d="M22.9214 64.4165C20.2513 60.8608 16.5929 58.2027 12.8651 55.8207C11.4434 54.8541 9.90024 54.0946 8.3918 53.2834C6.814 52.4376 5.27088 51.5573 3.53704 51.0395C0.624191 50.3146 -0.537481 54.5262 2.32336 55.4064C5.35758 56.4076 6.1378 56.8909 8.40913 57.7884C8.40913 57.7884 8.42647 57.7884 8.42647 57.8057C8.66921 57.9092 8.91195 58.0301 9.13735 58.1681C8.87727 58.8413 9.06799 59.7043 9.77887 60.1013C12.2929 61.3613 13.7494 62.1726 15.2751 63.7088C16.1074 64.5546 16.905 65.4176 17.7719 66.2461C18.1186 66.6258 18.5521 66.9538 19.0896 66.9365C19.4017 66.9365 19.6964 66.8329 19.9392 66.6603C19.9912 66.7121 20.0432 66.7639 20.0952 66.7984C20.3033 66.971 20.8581 67.6269 20.9621 67.7478C20.9795 67.765 20.9795 67.7823 20.9968 67.7995C21.1008 67.9894 21.2396 68.1448 21.4303 68.2656C22.2972 69.0423 23.823 68.49 24.0831 67.3853C24.3951 66.2461 23.4935 65.2968 22.9214 64.4165Z" fill="black"/>
</g>
<g opacity="0.1294">
<path d="M111 52.0925C110.411 52.2479 110.029 52.7657 109.544 53.1109C110.255 52.5586 108.59 53.8531 107.88 54.4227C105.244 56.2868 102.73 58.2891 100.233 60.3086C98.4995 61.6721 97.2684 62.6042 94.8931 64.5201C94.1302 65.1588 93.3499 65.7974 92.6217 66.4706C92.2923 66.7985 91.8762 67.092 91.7375 67.558C90.8185 69.5257 93.4887 71.3035 95.0144 69.7501C98.118 66.7813 101.447 64.0196 104.672 61.1716C107.151 59.0313 108.348 58.3754 111.104 56.1315C111.711 55.5274 112.63 55.1649 112.977 54.3537C113.584 53.1454 112.283 51.7128 111 52.0925Z" fill="black"/>
</g>
<g opacity="0.1294">
<path d="M87.7843 73.7889C86.1545 75.2216 83.6578 77.5517 82.6348 78.3975C81.6639 79.1915 79.1671 80.9866 76.4624 83.0061C73.4455 85.5434 72.1624 86.5963 69.0589 89.0473C67.377 90.2728 65.0017 92.5339 61.8287 93.0863C59.2106 93.1381 59.0199 93.0172 56.5579 92.5167C54.6333 91.9471 54.616 91.8435 52.57 90.7561C50.6281 89.6514 48.7556 88.4087 46.8137 87.2695C46.0681 86.8379 45.3226 86.1303 44.4037 86.4064C43.0166 86.7344 42.7392 88.7711 44.0049 89.4615C47.0738 91.3084 50.004 93.4315 53.2462 94.9677C55.0494 95.7962 56.9913 96.2622 58.9332 96.6247C63.944 97.7984 68.3306 94.7433 71.8503 91.5328C75.1273 88.7711 78.1962 85.7505 81.4732 83.0061C83.9005 80.9003 86.2759 78.7427 88.6513 76.5679C89.0674 76.1191 89.6916 75.8084 89.9343 75.2388C90.5238 73.9615 88.7726 72.7706 87.7843 73.7889Z" fill="black"/>
</g>
<path d="M8.37448 117.942C8.23577 117.942 8.1144 117.838 8.09707 117.7C7.54224 112.988 7.54224 108.207 8.13174 103.494C8.14908 103.339 8.30513 103.236 8.44383 103.253C8.59988 103.27 8.70391 103.408 8.68657 103.564C8.1144 108.224 8.09707 112.971 8.65189 117.631C8.66923 117.786 8.5652 117.924 8.40916 117.942C8.40916 117.942 8.39182 117.942 8.37448 117.942Z" fill="black"/>
<path d="M13.0558 118.736C12.9171 118.736 12.7957 118.632 12.7784 118.494C12.4663 116.647 12.3103 114.783 12.3623 112.919C12.3623 112.763 12.4836 112.643 12.6397 112.643C12.7957 112.643 12.9171 112.781 12.9171 112.936C12.8824 114.766 13.0211 116.613 13.3332 118.408C13.3679 118.563 13.2639 118.701 13.1078 118.736C13.0905 118.736 13.0731 118.736 13.0558 118.736Z" fill="black"/>
<path class="mail" d="M54.6853 70.9065C53.9051 70.9065 53.1075 70.872 52.2753 70.8202C47.5419 70.4922 42.6178 66.9365 39.7396 61.7411C37.6937 58.0473 35.0236 50.47 40.1037 41.0284C43.8315 34.1069 53.3503 29.6192 60.459 31.4143C68.8855 33.5546 72.4572 39.0952 71.0528 47.8809C69.5444 57.4087 65.1924 58.6342 63.7533 59.0312C63.6493 59.0657 63.5799 59.083 63.5279 59.1002C62.8691 59.4455 62.0542 59.4972 61.2739 59.2383C60.303 58.9104 59.4361 58.1164 59.0026 57.1843C58.3091 55.6826 58.5171 54.0084 58.6905 52.662L58.8292 51.5746C57.3208 54.3191 55.2748 56.7873 52.8301 58.7378C52.1886 59.2383 51.4257 59.7389 50.4894 59.7044C48.9117 59.6181 47.8887 58.1164 47.7673 55.6826C47.6286 53.0073 47.5766 50.1765 48.5475 47.5357C49.6745 44.4978 52.1713 42.323 54.8934 42.0295C56.5406 41.8397 58.3264 42.4956 59.5574 43.7383C59.6094 43.7901 59.6788 43.8592 59.7308 43.9109C59.7308 43.8764 59.7482 43.8419 59.7482 43.8074L59.9909 41.7879C60.0429 41.3391 60.459 40.9939 60.9272 41.0457C61.3953 41.0975 61.7247 41.4944 61.6901 41.9605C61.638 42.6682 61.5513 43.3586 61.43 44.049L60.355 52.8692C60.1816 54.3018 60.0776 55.4928 60.5284 56.4939C60.7711 57.0117 61.2566 57.4605 61.7941 57.6331C62.0368 57.7194 62.4009 57.7712 62.7304 57.5986C62.8864 57.5123 63.0598 57.4605 63.2679 57.4087C64.4469 57.0808 68.0012 56.0796 69.3363 47.622C70.5847 39.7339 67.5331 34.97 59.9909 33.0713C53.6797 31.4661 44.8891 35.6431 41.5428 41.8397C36.8441 50.5563 39.2888 57.5468 41.1614 60.9299C43.7275 65.5557 48.2181 68.8525 52.3273 69.1286C62.0368 69.8018 68.0359 66.4533 71.7983 58.289C71.9891 57.8575 72.4919 57.6849 72.9253 57.8747C73.3588 58.0646 73.5322 58.5824 73.3415 58.9967C69.7004 67.0746 63.7187 70.9065 54.6853 70.9065ZM55.4829 43.7038C55.3615 43.7038 55.2228 43.7038 55.1015 43.7211C53.0035 43.9627 51.079 45.6888 50.16 48.1398C49.2931 50.47 49.3451 53.1108 49.4838 55.5963C49.5358 56.4766 49.8132 57.961 50.5935 58.0128C50.9402 58.0301 51.391 57.7194 51.7725 57.426C55.3095 54.6125 57.9276 50.6253 59.2107 46.2584C59.0546 45.7923 58.7772 45.3436 58.3784 44.9293C57.5982 44.1526 56.5059 43.7038 55.4829 43.7038Z" fill="black"/>
<path class="mail" d="M86.8134 27.6859C86.6573 27.6859 86.536 27.5651 86.536 27.3925C86.5706 23.1981 86.536 18.9348 86.4493 14.7404C86.4493 14.5851 86.5706 14.447 86.7267 14.447C86.8827 14.4298 87.0041 14.5678 87.0214 14.7232C87.1081 18.9175 87.1428 23.1809 87.1081 27.3925C87.0908 27.5651 86.9694 27.6859 86.8134 27.6859Z" fill="black"/>
<path class="mail" d="M81.9066 21.6621C81.7679 21.6621 81.6465 21.5586 81.6292 21.4032C81.4211 19.2802 81.3518 17.1226 81.4385 14.9996C81.4385 14.8442 81.5772 14.7234 81.7159 14.7234C81.7159 14.7234 81.7159 14.7234 81.7332 14.7234C81.8893 14.7234 82.0106 14.8615 82.0106 15.0168C81.924 17.1226 81.9933 19.2457 82.2014 21.3342C82.2187 21.4895 82.0973 21.6276 81.9413 21.6449C81.9239 21.6621 81.9066 21.6621 81.9066 21.6621Z" fill="black"/>
</g>
<defs>
<clipPath id="clip0_54_24222">
<rect width="114" height="124" fill="white"/>
</clipPath>
</defs>
</svg>
