<svg width="156" viewBox="0 0 156 145" fill="none" xmlns="http://www.w3.org/2000/svg">
<g clip-path="url(#clip0_54_24325)">
<path d="M82.7587 113.083C82.1358 120.943 81.5273 128.802 80.9044 136.675C85.0474 138.917 89.0601 141.041 92.9278 143.37C76.9063 143.719 60.6095 143.996 44.3127 144.272C48.7455 141.871 53.323 139.979 57.8861 138.087C57.495 130.475 56.7273 122.587 56.3072 114.946C58.3352 114.262 60.5516 114.379 62.71 114.452C69.3011 114.641 75.9068 114.233 82.7587 113.083Z" fill="white"/>
<path d="M44.3128 145C43.9941 145 43.7044 144.782 43.6175 144.462C43.5305 144.141 43.6754 143.807 43.9651 143.647C48.282 141.303 52.7726 139.426 57.1329 137.621C56.9301 133.837 56.6404 129.937 56.3507 126.153C56.0754 122.471 55.7857 118.672 55.5829 114.99C55.5684 114.67 55.7712 114.379 56.0754 114.277C58.1035 113.607 60.2474 113.666 62.3189 113.724L62.7245 113.738C69.4895 113.928 76.0082 113.491 82.6428 112.385C82.8601 112.341 83.0774 112.414 83.2367 112.56C83.3961 112.705 83.483 112.923 83.4685 113.142L81.6578 136.268L82.976 136.981C86.5685 138.917 89.9582 140.75 93.29 142.759C93.5653 142.919 93.6956 143.254 93.6087 143.559C93.5218 143.865 93.2466 144.083 92.9424 144.083C76.9063 144.432 60.3488 144.724 44.3128 145ZM57.046 115.485C57.2488 118.978 57.524 122.573 57.7848 126.051C58.089 130.01 58.3932 134.099 58.596 138.058C58.6105 138.364 58.4367 138.64 58.1614 138.756C54.5834 140.241 50.9184 141.755 47.3548 143.516C61.5801 143.268 76.182 143.021 90.4073 142.715C87.7853 141.202 85.1054 139.746 82.3096 138.247L80.5713 137.316C80.325 137.185 80.1802 136.908 80.1947 136.632L81.9765 113.957C75.5591 114.975 69.2432 115.368 62.6811 115.179L62.2755 115.165C60.5082 115.106 58.6974 115.048 57.046 115.485Z" fill="black"/>
<path d="M139.095 25.8622C137.255 65.274 136.647 90.7141 136.647 116.897C93.6812 116.227 43.4871 116.897 0.796755 116.897C1.7818 93.5813 2.15844 59.2487 0.709839 24.3049C47.0651 25.2364 94.5503 25.0908 139.095 25.8622Z" fill="white"/>
<path d="M0.796718 117.61C0.6084 117.61 0.420082 117.537 0.289707 117.391C0.159333 117.246 0.0869031 117.057 0.0869031 116.867C1.27476 88.8513 1.2313 54.2713 -1.30493e-05 24.334C-0.0144991 24.1303 0.0724171 23.9411 0.202791 23.8101C0.347652 23.6646 0.53597 23.6064 0.724288 23.5918C25.5823 24.0866 51.0342 24.2904 75.646 24.465C96.6942 24.6251 118.438 24.7852 139.095 25.1491C139.283 25.1491 139.471 25.2364 139.602 25.3819C139.732 25.5275 139.805 25.7167 139.79 25.9059C138.037 63.4402 137.356 88.9531 137.356 116.897C137.356 117.086 137.284 117.275 137.139 117.406C137.009 117.537 136.82 117.624 136.632 117.61C107.718 117.158 75.6025 117.319 44.5445 117.464C29.2328 117.537 14.7612 117.61 0.796718 117.61ZM1.44859 25.0326C2.63644 54.5624 2.6799 88.502 1.53551 116.169C15.2538 116.169 29.479 116.096 44.53 116.023C75.3418 115.878 107.182 115.718 135.922 116.154C135.937 88.6475 136.618 63.382 138.327 26.5608C117.902 26.2115 96.4045 26.0514 75.617 25.8913C51.266 25.7167 26.0748 25.5275 1.44859 25.0326Z" fill="black"/>
<path d="M112.136 104.526C92.5077 104.438 72.8936 104.235 53.265 104.031C36.6641 103.856 17.8757 103.9 1.26022 103.652C1.26022 109.052 1.24574 113.069 0.811157 116.882C43.5015 116.882 93.6955 116.169 136.661 116.882C136.907 113.549 136.734 108.819 136.734 104.671C129.491 104.686 119.35 104.569 112.136 104.526Z" fill="#FF7050"/>
<path d="M0.796723 117.61C0.593918 117.61 0.4056 117.522 0.26074 117.377C0.130366 117.231 0.0579356 117.027 0.0869076 116.824C0.507002 113.171 0.535974 109.416 0.535974 103.667C0.535974 103.478 0.608404 103.289 0.753265 103.158C0.883639 103.027 1.08644 102.954 1.26028 102.954C10.7341 103.099 21.0482 103.143 31.0291 103.187C38.4604 103.216 46.138 103.259 53.2651 103.332C71.4451 103.521 92.0442 103.74 112.136 103.827C115.077 103.842 118.496 103.871 122.001 103.9C127.129 103.944 132.446 103.987 136.719 103.987C137.11 103.987 137.429 104.307 137.429 104.7C137.429 105.923 137.443 107.189 137.458 108.455C137.487 111.468 137.53 114.568 137.356 116.955C137.327 117.333 137.009 117.624 136.632 117.624C107.718 117.144 75.6025 117.304 44.5445 117.464C29.2328 117.522 14.7612 117.61 0.796723 117.61ZM1.97009 104.38C1.97009 109.372 1.92663 112.85 1.59345 116.169C15.2972 116.169 29.508 116.096 44.5445 116.009C75.3708 115.849 107.226 115.688 135.98 116.154C136.096 113.927 136.067 111.148 136.038 108.455C136.024 107.422 136.009 106.403 136.009 105.399C131.852 105.399 126.84 105.355 121.987 105.312C118.481 105.282 115.062 105.253 112.122 105.239C92.0297 105.151 71.4306 104.933 53.2506 104.744C46.1235 104.671 38.4604 104.628 31.0291 104.598C21.3089 104.569 11.2556 104.511 1.97009 104.38Z" fill="black"/>
<g opacity="0.1294">
<path d="M81.3825 120.142C81.3245 120.186 81.2811 120.23 81.2231 120.259C81.5853 119.997 81.5708 120.011 81.3825 120.142Z" fill="black"/>
</g>
<g opacity="0.1294">
<path d="M80.9914 116.46C79.3834 116.067 77.6741 116.344 76.0227 116.285C73.8208 116.285 71.6334 116.023 69.446 115.761C66.9399 115.456 64.4194 115.529 61.8988 115.456C61.667 115.441 61.131 115.383 60.8413 115.354C60.8268 115.354 60.8123 115.354 60.7979 115.354C60.653 115.325 60.5226 115.31 60.3778 115.296C60.3633 115.296 60.3633 115.296 60.3488 115.296C59.639 115.107 58.7843 115.339 58.3787 115.936C58.06 116.285 57.9296 116.78 58.0021 117.246C57.8282 117.333 57.6689 117.421 57.5095 117.581C56.2782 118.672 57.2053 120.797 58.9002 120.739C63.1591 121.015 67.4469 121.175 71.7203 121.248C75.4577 121.394 77.254 121.321 80.1946 120.71C80.5278 120.593 80.8755 120.477 81.1942 120.302C81.2811 120.244 81.3535 120.186 81.4115 120.142C81.7012 119.953 81.9475 119.72 82.1503 119.429C82.9035 118.352 82.3096 116.824 80.9914 116.46Z" fill="black"/>
</g>
<path d="M40.7636 84.5871C40.3725 84.5871 40.0538 84.2669 40.0538 83.874C40.0538 83.481 40.3725 83.1608 40.7636 83.1608C53.323 83.1608 81.31 82.928 81.5853 82.928C81.9764 82.928 82.2951 83.2482 82.2951 83.6411C82.2951 84.0341 81.9764 84.3543 81.5853 84.3688C81.3245 84.3543 53.3375 84.5871 40.7636 84.5871Z" fill="black"/>
<path d="M61.4497 66.9333L42.0384 66.9187C41.6473 66.9187 41.3286 66.5985 41.3286 66.2056C41.3286 65.8126 41.6473 65.4924 42.0384 65.4924H61.4497C61.8408 65.4924 62.1595 65.8126 62.1595 66.2056C62.1595 66.6131 61.8408 66.9333 61.4497 66.9333Z" fill="black"/>
<path d="M52.845 49.7159C52.8305 49.7159 52.8015 49.7159 52.787 49.7159C51.237 49.5849 48.731 49.614 46.08 49.6577C44.8197 49.6723 43.5305 49.7014 42.3426 49.7014C41.9515 49.7014 41.6328 49.3812 41.6328 48.9882C41.6328 48.5953 41.9515 48.2751 42.3426 48.2751C43.5305 48.2751 44.8053 48.2605 46.0655 48.2314C48.7454 48.1878 51.295 48.1587 52.9174 48.2896C53.3085 48.3188 53.5983 48.668 53.5693 49.061C53.5258 49.4248 53.2216 49.7159 52.845 49.7159Z" fill="black"/>
<path d="M25.5968 52.452C25.3216 52.452 25.0898 52.2919 24.9594 52.059C23.8006 49.7886 22.3809 47.6201 20.744 45.6262C20.4977 45.3206 20.5412 44.8694 20.8454 44.622C21.1496 44.3746 21.5987 44.4183 21.8449 44.7239C23.2646 46.4558 24.5249 48.3187 25.6113 50.2544L30.4786 41.5803C30.6669 41.231 31.1015 41.1146 31.4492 41.3038C31.7968 41.493 31.9127 41.9296 31.7244 42.2789L26.2197 52.0882C26.0894 52.3065 25.8576 52.452 25.5968 52.452Z" fill="black"/>
<path d="M25.5968 70.8482C25.3216 70.8482 25.0898 70.6881 24.9594 70.4553C23.8006 68.1849 22.3809 66.0164 20.744 64.0225C20.4977 63.7169 20.5412 63.2657 20.8454 63.0183C21.1496 62.7709 21.5987 62.8145 21.8449 63.1201C23.2646 64.8521 24.5249 66.7149 25.6113 68.6506L30.4786 59.9765C30.6669 59.6272 31.1015 59.5108 31.4492 59.7C31.7968 59.8892 31.9127 60.3258 31.7244 60.6751L26.2197 70.4844C26.0894 70.7173 25.8576 70.8482 25.5968 70.8482Z" fill="black"/>
<path d="M25.5968 89.2589C25.3216 89.2589 25.0898 89.0988 24.9594 88.8659C23.8006 86.5955 22.3809 84.427 20.744 82.4331C20.4977 82.1275 20.5412 81.6763 20.8454 81.4289C21.1496 81.1815 21.5987 81.2252 21.8449 81.5308C23.2646 83.2627 24.5249 85.1256 25.6113 87.0613L30.4786 78.3872C30.6669 78.0379 31.1015 77.9214 31.4492 78.1106C31.7968 78.2998 31.9127 78.7365 31.7244 79.0857L26.2197 88.895C26.0894 89.1134 25.8576 89.2589 25.5968 89.2589Z" fill="black"/>
<path d="M139.978 26.0515C144.875 21.9036 149.988 17.9886 155.276 14.3065C150.756 13.7389 146.367 13.4333 141.948 13.2004C143.064 9.00892 143.904 4.86108 144.73 0.727783C139.616 4.03151 135.241 7.34978 129.606 11.8033C128.853 15.5873 127.839 19.5896 128.027 23.7811C131.548 24.9017 136.183 25.0764 139.978 26.0515Z" fill="white"/>
<path d="M139.978 26.7646C139.92 26.7646 139.863 26.75 139.805 26.7355C138.139 26.3134 136.256 26.0223 134.43 25.7603C132.156 25.4256 129.824 25.0763 127.839 24.4359C127.549 24.3486 127.361 24.0867 127.347 23.781C127.187 20.0843 127.912 16.606 128.607 13.244C128.708 12.7201 128.824 12.1816 128.926 11.6431C128.955 11.483 129.056 11.3229 129.186 11.221C134.894 6.70935 139.211 3.43474 144.368 0.116458C144.614 -0.0436343 144.918 -0.0290805 145.15 0.131012C145.382 0.291104 145.498 0.582181 145.44 0.858704C144.672 4.68637 143.89 8.61591 142.876 12.5309C146.584 12.7346 150.901 13.0403 155.377 13.5933C155.667 13.637 155.913 13.8407 155.985 14.1318C156.058 14.4229 155.942 14.7285 155.696 14.8886C150.437 18.5416 145.309 22.4857 140.442 26.5899C140.312 26.7063 140.138 26.7646 139.978 26.7646ZM128.737 23.228C130.519 23.7374 132.605 24.0575 134.633 24.3486C136.371 24.6106 138.153 24.8726 139.805 25.2655C144.136 21.6125 148.685 18.0905 153.349 14.7867C149.235 14.3356 145.309 14.0882 141.934 13.899C141.717 13.8844 141.528 13.7825 141.398 13.6079C141.268 13.4332 141.224 13.2149 141.282 12.9966C142.238 9.40181 143.006 5.77791 143.716 2.24132C139.283 5.1812 135.328 8.19384 130.273 12.1816C130.186 12.6328 130.084 13.0985 129.983 13.5497C129.331 16.6787 128.665 19.8951 128.737 23.228Z" fill="black"/>
<path d="M106.689 19.6186C99.5624 18.105 91.8413 19.1092 85.453 22.3984C79.0646 25.673 74.067 31.1889 71.7202 37.578C70.1702 41.8132 69.7501 46.3394 69.9384 50.8075C70.1992 56.9929 73.6903 63.2219 78.7894 67.1078C85.0908 71.9106 91.146 74.3411 98.3166 74.7922C108.037 75.4035 117.873 70.8481 123.421 63.4693C128.954 56.0905 130.142 46.1794 126.796 37.7672C123.45 29.326 116.047 21.6125 106.689 19.6186Z" fill="white"/>
<path d="M100.084 75.5491C99.4899 75.5491 98.896 75.5346 98.3021 75.4909C91.0156 75.0397 84.8591 72.6238 78.3838 67.6609C73.0095 63.5567 69.5184 57.1094 69.2431 50.8221C69.0258 45.6555 69.6198 41.2457 71.0684 37.3161C73.4731 30.7815 78.6011 25.1055 85.1343 21.7581C91.653 18.4107 99.5769 17.3774 106.849 18.9201C115.627 20.783 123.725 28.0745 127.477 37.4762C130.968 46.2668 129.635 56.3817 124.015 63.8769C118.597 71.0956 109.355 75.5491 100.084 75.5491ZM100.069 19.6478C95.1007 19.6478 90.103 20.7975 85.7717 23.0243C79.5427 26.2116 74.6754 31.611 72.3866 37.811C71.0104 41.5513 70.4455 45.7865 70.6483 50.7639C70.8945 56.6291 74.1829 62.669 79.224 66.5257C85.4675 71.2994 91.3778 73.628 98.3745 74.0646C107.761 74.6468 117.38 70.3243 122.856 63.0182C128.187 55.916 129.447 46.3395 126.13 38.0147C122.566 29.035 114.874 22.0928 106.53 20.3173C104.43 19.8661 102.257 19.6478 100.069 19.6478Z" fill="black"/>
<path class="blick" d="M103.749 31.9312C99.9101 31.1307 95.7526 31.6692 92.3049 33.3866C88.8572 35.1185 86.1773 38.0292 84.917 41.3912C84.0768 43.6179 83.8596 46.0047 83.961 48.3625C84.1058 51.6225 85.989 54.8971 88.7269 56.9492C92.1166 59.4816 95.376 60.7623 99.2437 60.9952C104.488 61.3154 109.775 58.914 112.759 55.0281C115.743 51.1423 116.381 45.9174 114.57 41.4785C112.774 37.0541 108.79 32.979 103.749 31.9312Z" fill="#FF7050"/>
<path d="M100.185 61.7521C99.8521 61.7521 99.5334 61.7375 99.2003 61.723C95.2021 61.4756 91.8414 60.1803 88.2923 57.5315C85.3227 55.3047 83.3815 51.8118 83.2367 48.3917C83.1208 45.6264 83.454 43.2541 84.2362 41.1293C85.5544 37.6073 88.3792 34.5509 91.9717 32.7463C95.5498 30.9561 99.8811 30.3885 103.879 31.2181C108.79 32.2369 113.136 36.0645 115.222 41.2021C117.148 45.9466 116.41 51.4043 113.31 55.4648C110.355 59.3507 105.27 61.7521 100.185 61.7521ZM100.185 32.2805C97.5489 32.2805 94.9269 32.8773 92.6236 34.027C89.3498 35.6716 86.7713 38.4514 85.5834 41.6387C84.8591 43.5743 84.5549 45.7574 84.6708 48.3334C84.8012 51.3315 86.5105 54.417 89.147 56.3817C92.4643 58.8559 95.5788 60.0638 99.2872 60.2821C104.241 60.5878 109.312 58.3465 112.194 54.5916C114.99 50.9386 115.656 46.0194 113.918 41.7551C112.035 37.127 107.993 33.5467 103.604 32.6298C102.474 32.397 101.33 32.2805 100.185 32.2805Z" fill="black"/>
<path d="M100.156 46.5432C99.9535 46.5432 99.7507 46.4559 99.6058 46.2813C99.3595 45.9756 99.3885 45.5245 99.6927 45.2771C115.946 31.5673 133.054 18.4107 150.553 6.17087C150.872 5.93801 151.321 6.02533 151.538 6.34551C151.77 6.6657 151.683 7.11687 151.364 7.33518C133.894 19.5604 116.83 32.688 100.605 46.3686C100.489 46.485 100.316 46.5432 100.156 46.5432Z" fill="black"/>
<g opacity="0.1294">
<path d="M143.788 14.1172C143.064 13.0693 141.934 13.3895 141.094 14.1172C140.312 14.6703 139.529 15.2379 138.733 15.7618C135.299 18.1777 131.823 20.2735 129.259 22.3838C128.332 23.4462 129.751 24.9598 130.997 24.2612C134.083 21.9908 137.328 19.9388 140.514 17.8139C141.355 17.2754 142.166 16.7078 143.021 16.1693C143.817 15.7909 144.295 14.874 143.788 14.1172Z" fill="black"/>
</g>
<g opacity="0.1294">
<path d="M113.121 44.782C113.15 44.5201 113.165 44.5055 113.121 44.782V44.782Z" fill="black"/>
</g>
<g opacity="0.1294">
<path d="M96.0278 56.9346C96.0858 56.9346 96.1292 56.9491 96.1872 56.9637C96.1727 56.9491 96.1003 56.9491 96.0278 56.9346Z" fill="black"/>
</g>
<g opacity="0.1294">
<path d="M116.337 44.622C116.279 43.9089 116.41 43.0648 115.917 42.4681C115.468 41.8422 114.425 41.7258 113.831 42.2206C112.962 42.8173 113.31 43.9962 113.107 44.8694C113.107 44.8403 113.121 44.7967 113.121 44.7676C113.121 44.7967 113.107 44.8258 113.107 44.8694C112.933 45.7863 112.716 46.7032 112.368 47.591C111.687 49.3229 109.934 51.9281 108.124 53.4999C105.994 55.1299 104.27 55.9304 101.301 56.7599C99.49 57.2402 97.5778 57.182 95.9554 56.92C95.9844 56.92 95.9989 56.92 96.0278 56.92C92.6236 56.4689 91.1895 55.7557 89.2629 54.0675C87.9301 52.8595 85.989 54.6787 87.2638 55.9595C90.0741 58.681 94.0288 59.9618 97.9545 60.3111C98.7222 60.3402 99.461 60.3111 100.185 60.2383C100.171 60.3693 100.185 60.5148 100.2 60.6895C100.837 62.0139 101.634 61.5336 102.547 61.4172C103.778 61.1698 103.343 61.2716 104.777 60.966C107.226 60.5294 109.181 58.9721 110.919 57.3712C113.165 55.3628 114.744 52.8013 115.656 50.0215C116.265 48.275 116.352 46.4267 116.337 44.622Z" fill="black"/>
</g>
<g opacity="0.1294">
<path d="M97.2445 75.2288C97.2301 75.2288 97.2301 75.2288 97.2156 75.2288C97.2735 75.2288 97.3025 75.2433 97.2445 75.2288Z" fill="black"/>
</g>
<g opacity="0.1294">
<path d="M128.288 45.67C128.23 44.8841 128.143 44.0982 127.969 43.3268C127.911 42.8465 127.709 42.3517 127.231 42.1188C126.188 41.5076 124.797 42.5118 125.159 43.6324C125.521 45.2479 125.492 47.431 125.145 48.9737C124.667 51.1713 123.783 53.2671 122.957 55.3628C122.783 55.7704 122.61 56.1779 122.436 56.5999C122.146 57.0511 122.334 56.9783 121.972 57.5896C121.306 58.9431 120.567 60.282 119.683 61.5191C117.815 64.2407 114.063 67.6317 111.847 69.0726C109.804 70.5134 110.137 69.8876 108.254 70.9355C108.457 70.8336 108.645 70.7172 108.848 70.6153C108.544 70.7172 108.239 70.819 107.935 70.9209C105.357 71.8524 102.735 72.6674 100.011 73.0894C99.91 73.104 99.8231 73.1185 99.7652 73.1185C99.6638 73.1331 99.5768 73.1331 99.4754 73.1476C98.6352 73.1913 97.7951 73.1913 96.9549 73.1476C96.6072 73.1331 96.2595 73.104 95.9264 73.0603C95.6801 73.0312 95.4338 73.0458 95.231 73.1768C94.4488 73.5697 94.6226 74.8068 95.5063 74.9523C96.0133 75.0542 96.5203 75.1561 97.0273 75.2143H97.0128C97.0273 75.2143 97.0563 75.2143 97.0708 75.2288C97.1142 75.2288 97.1577 75.2434 97.2156 75.2434C97.2011 75.2434 97.1722 75.2288 97.1577 75.2288C99.2437 75.5199 101.344 75.2289 103.372 74.7486C105.444 74.3702 107.399 73.657 109.413 73.0749C109.732 72.9876 109.311 73.0749 109.196 73.0749C110.007 72.9876 110.818 72.6965 111.586 72.4054C115.946 70.4115 119.712 67.2679 122.566 63.5712C123.566 62.3341 124.333 60.937 125.014 59.5107C125.304 58.783 125.811 58.0699 125.869 57.284C125.854 57.4295 125.826 57.5896 125.811 57.7351C126.68 55.4938 127.578 53.2234 127.984 50.8657C127.969 50.9967 127.94 51.1422 127.926 51.2732C128.288 49.4394 128.534 47.5474 128.288 45.67Z" fill="black"/>
</g>
<path d="M132.822 18.0905C132.808 18.0905 132.808 18.0905 132.793 18.0905C132.663 18.0759 132.576 17.9595 132.591 17.8285L133.387 10.9009C133.402 10.7699 133.532 10.6826 133.648 10.6971C133.778 10.7117 133.865 10.8281 133.851 10.9591L133.054 17.8867C133.04 18.0032 132.938 18.0905 132.822 18.0905Z" fill="black"/>
<path d="M137.979 14.2047C137.849 14.2047 137.748 14.1028 137.748 13.9718C137.748 11.7305 137.907 9.47465 138.24 7.26246C138.255 7.13148 138.385 7.04416 138.515 7.05871C138.646 7.07326 138.733 7.20425 138.718 7.33523C138.385 9.53286 138.226 11.7596 138.226 13.9718C138.211 14.1028 138.11 14.2047 137.979 14.2047Z" fill="black"/>
<path d="M133.213 100.582H133.199C128.94 100.261 124.623 100.13 120.364 100.16C120.234 100.16 120.133 100.058 120.133 99.9267C120.133 99.7957 120.234 99.6938 120.364 99.6792C124.638 99.6501 128.969 99.7811 133.242 100.101C133.373 100.116 133.474 100.232 133.46 100.363C133.445 100.48 133.344 100.582 133.213 100.582Z" fill="black"/>
<path d="M130.287 96.3029C128.882 96.3029 127.462 96.2156 126.072 96.0264C125.941 96.0118 125.855 95.8954 125.869 95.7644C125.883 95.6334 125.999 95.5461 126.13 95.5607C128.448 95.8663 130.794 95.91 133.127 95.7062C133.257 95.6916 133.373 95.7935 133.387 95.9245C133.402 96.0555 133.3 96.1719 133.17 96.1865C132.199 96.2592 131.243 96.3029 130.287 96.3029Z" fill="black"/>
<path d="M6.09863 30.4758C5.96826 30.4758 5.86686 30.3739 5.86686 30.2575C5.85237 30.1265 5.95377 30.0101 6.08415 30.0101C9.1407 29.8063 12.2407 29.719 15.3262 29.7481C15.4566 29.7481 15.558 29.85 15.558 29.9955C15.558 30.1265 15.4566 30.2284 15.3262 30.2284C12.2697 30.1993 9.16967 30.2866 6.12761 30.4904C6.11312 30.4758 6.09863 30.4758 6.09863 30.4758Z" fill="black"/>
</g>
<defs>
<clipPath id="clip0_54_24325">
<rect width="156" height="145" fill="white"/>
</clipPath>
</defs>
</svg>
