<svg width="665" height="628" viewBox="0 0 665 628" fill="none" xmlns="http://www.w3.org/2000/svg">
<g clip-path="url(#clip0_54_24905)">
<path d="M340.791 374.948C339.246 297.202 340.314 211.813 343.948 134.157C230.397 134.157 122.342 133.202 23.8506 133.202C24.691 212.358 25.5542 292.22 25.5542 374.948C119.526 374.948 233.713 370.558 340.791 374.948Z" fill="white"/>
<path d="M340.791 376.063C340.768 376.063 340.768 376.063 340.745 376.063C268.081 373.083 193.53 374.13 121.456 375.153C87.6566 375.631 55.7422 376.063 25.5769 376.063C24.9636 376.063 24.4639 375.563 24.4639 374.948C24.4639 292.994 23.6007 212.859 22.783 135.385L22.7603 133.202C22.7603 132.906 22.8738 132.61 23.0783 132.406C23.2827 132.201 23.578 132.064 23.8733 132.064C71.37 132.064 120.525 132.292 172.565 132.519C227.921 132.77 285.162 133.02 343.971 133.02C344.266 133.02 344.561 133.134 344.789 133.361C344.993 133.588 345.107 133.884 345.107 134.18C341.518 210.744 340.382 296.247 341.949 374.88C341.949 375.199 341.836 375.494 341.609 375.699C341.359 375.949 341.086 376.063 340.791 376.063ZM24.9863 134.316V135.363C25.804 212.495 26.6672 292.243 26.6672 373.834C56.5145 373.834 88.0427 373.379 121.411 372.924C193.122 371.923 267.286 370.877 339.632 373.788C338.111 295.814 339.224 211.221 342.767 135.294C284.367 135.294 227.512 135.044 172.519 134.794C120.911 134.544 72.1196 134.316 24.9863 134.316Z" fill="black"/>
<path d="M108.941 250.163C108.373 261.581 108.191 268.951 108.191 276.548C95.1072 276.344 79.7974 276.548 66.7817 276.548C67.077 269.793 67.1906 259.853 66.759 249.708C80.8877 249.981 95.3797 249.935 108.941 250.163Z" fill="white"/>
<path d="M66.8044 277.663C66.5091 277.663 66.2138 277.549 65.9866 277.322C65.7822 277.094 65.6686 276.799 65.6686 276.503C66.0321 268.405 66.0094 258.42 65.6459 249.776C65.6232 249.458 65.7368 249.162 65.9639 248.957C66.1684 248.73 66.4637 248.593 66.7817 248.616C74.3684 248.752 82.1142 248.821 89.6328 248.866C96.0384 248.912 102.671 248.957 108.963 249.071C109.258 249.071 109.554 249.207 109.758 249.435C109.963 249.662 110.076 249.958 110.053 250.254C109.508 261.126 109.304 268.496 109.304 276.594C109.304 276.89 109.19 277.185 108.963 277.39C108.759 277.595 108.486 277.731 108.168 277.708C99.3548 277.572 89.5874 277.617 80.1153 277.663C75.5496 277.64 71.0521 277.663 66.8044 277.663ZM67.9401 250.845C68.2581 258.852 68.2581 267.859 67.9628 275.411C71.8698 275.411 75.9585 275.388 80.1153 275.366C89.1785 275.32 98.537 275.275 107.078 275.388C107.101 267.996 107.305 261.013 107.759 251.232C101.831 251.141 95.6068 251.095 89.6101 251.05C82.5003 251.027 75.1407 250.982 67.9401 250.845Z" fill="black"/>
<path d="M108.941 299.795C108.373 311.214 108.191 318.583 108.191 326.181C95.1072 325.976 79.7974 326.181 66.7817 326.181C67.077 319.425 67.1906 309.485 66.759 299.34C80.8877 299.613 95.3797 299.568 108.941 299.795Z" fill="white"/>
<path d="M66.8044 327.295C66.5091 327.295 66.2138 327.181 65.9866 326.954C65.7822 326.727 65.6686 326.431 65.6686 326.135C66.0321 318.038 66.0094 308.052 65.6459 299.408C65.6232 299.09 65.7368 298.794 65.9639 298.59C66.1684 298.362 66.4409 298.271 66.7817 298.248C74.3457 298.385 82.0915 298.453 89.6101 298.499C96.0157 298.544 102.671 298.59 108.963 298.703C109.258 298.703 109.554 298.84 109.758 299.067C109.963 299.295 110.076 299.59 110.053 299.886C109.508 310.759 109.304 318.128 109.304 326.226C109.304 326.522 109.19 326.818 108.963 327.022C108.759 327.227 108.486 327.363 108.168 327.341C99.3548 327.204 89.5874 327.25 80.1153 327.295C75.5496 327.272 71.0521 327.295 66.8044 327.295ZM67.9401 300.477C68.2581 308.484 68.2581 317.492 67.9628 325.043C71.8698 325.043 75.9585 325.021 80.1153 324.998C89.1785 324.952 98.537 324.907 107.078 325.021C107.101 317.628 107.305 310.645 107.759 300.864C101.808 300.773 95.6068 300.728 89.5874 300.682C82.4776 300.659 75.1407 300.614 67.9401 300.477Z" fill="black"/>
<path d="M160.458 170.005C159.14 194.639 158.731 210.539 158.731 226.893C128.225 226.484 92.5858 226.893 62.2615 226.893C62.9657 212.336 63.2155 190.863 62.1934 169.027C95.1072 169.619 128.816 169.528 160.458 170.005Z" fill="white"/>
<path d="M158.709 228.031C138.174 227.758 115.369 227.849 93.3126 227.94C82.4322 227.985 72.1424 228.031 62.2387 228.031C61.9434 228.031 61.6481 227.894 61.421 227.69C61.2166 227.462 61.103 227.166 61.103 226.871C61.9434 209.379 61.9207 187.793 61.0348 169.095C61.0121 168.777 61.1257 168.481 61.3528 168.254C61.5573 168.026 61.8753 167.913 62.1706 167.913C79.82 168.231 97.8783 168.345 115.346 168.459C130.292 168.549 145.761 168.663 160.435 168.891C160.73 168.891 161.026 169.027 161.23 169.255C161.434 169.482 161.548 169.778 161.525 170.073C160.276 193.525 159.799 209.447 159.799 226.916C159.799 227.212 159.685 227.508 159.458 227.712C159.299 227.917 159.004 228.031 158.709 228.031ZM63.3517 170.187C64.1468 188.248 64.1922 208.833 63.4199 225.802C72.9601 225.802 82.8638 225.756 93.3126 225.711C114.96 225.62 137.357 225.529 157.596 225.779C157.618 209.015 158.095 193.479 159.277 171.12C144.966 170.915 129.929 170.801 115.369 170.71C98.2872 170.597 80.6377 170.483 63.3517 170.187Z" fill="black"/>
<path d="M224.968 332.049C204.116 329.865 183.059 329.843 162.207 332.026C159.299 332.322 156.278 332.709 153.734 334.164C151.19 335.62 149.191 338.441 149.577 341.329C149.918 343.9 152.053 345.97 154.438 346.971C156.823 347.971 159.481 348.108 162.093 348.244C180.765 349.154 199.459 350.087 218.153 349.336C221.129 349.222 224.196 349.04 226.921 347.812C229.647 346.584 232.009 344.082 232.191 341.102C232.441 336.871 228.625 332.436 224.968 332.049Z" fill="#FF7050"/>
<path d="M203.661 350.746C189.692 350.746 175.699 350.064 162.025 349.382C159.481 349.245 156.596 349.109 154.007 348.017C150.963 346.743 148.828 344.241 148.464 341.489C147.987 337.895 150.486 334.733 153.189 333.186C155.846 331.662 158.913 331.23 162.093 330.912C182.991 328.728 204.184 328.728 225.081 330.935C229.511 331.412 233.577 336.462 233.281 341.17C233.077 344.287 230.76 347.312 227.353 348.836C224.513 350.11 221.402 350.337 218.176 350.451C213.36 350.655 208.522 350.746 203.661 350.746ZM193.508 331.526C183.082 331.526 172.678 332.072 162.32 333.141C159.276 333.459 156.573 333.823 154.302 335.143C152.326 336.28 150.349 338.645 150.69 341.193C150.94 343.126 152.598 344.992 154.87 345.947C157.118 346.88 159.663 347.016 162.138 347.13C180.492 348.04 199.459 348.972 218.085 348.222C221.197 348.085 223.968 347.903 226.444 346.789C229.102 345.606 230.919 343.331 231.055 341.034C231.282 337.235 227.784 333.482 224.831 333.164C214.451 332.072 203.979 331.526 193.508 331.526Z" fill="black"/>
<path d="M146.215 216.976C146.147 216.976 146.079 216.953 146.011 216.908C123.796 202.873 100.4 190.204 76.4808 179.285C76.2991 179.194 76.2082 178.99 76.2991 178.785C76.3899 178.603 76.6171 178.512 76.7988 178.603C100.74 189.521 124.182 202.214 146.42 216.294C146.602 216.407 146.647 216.635 146.533 216.817C146.465 216.93 146.329 216.976 146.215 216.976Z" fill="black"/>
<path d="M72.9829 218.523C72.8466 218.523 72.733 218.454 72.6649 218.341C72.5513 218.159 72.6195 217.931 72.8012 217.84C96.7881 203.283 121.684 189.59 146.829 177.125C147.011 177.034 147.238 177.102 147.329 177.284C147.419 177.466 147.351 177.693 147.17 177.784C122.047 190.249 97.1742 203.942 73.1873 218.477C73.1192 218.5 73.0511 218.523 72.9829 218.523Z" fill="black"/>
<path d="M72.0289 272.863C71.9153 272.863 71.779 272.795 71.7108 272.704C71.5973 272.522 71.6427 272.295 71.8244 272.181C81.2965 266.04 91.2456 260.421 101.376 255.463C101.558 255.372 101.785 255.44 101.876 255.645C101.967 255.827 101.899 256.054 101.694 256.145C91.5863 261.081 81.66 266.699 72.2106 272.818C72.1651 272.841 72.097 272.863 72.0289 272.863Z" fill="black"/>
<path d="M100.604 272.09C100.536 272.09 100.468 272.067 100.422 272.045L72.483 255.576C72.3013 255.463 72.2558 255.235 72.3467 255.076C72.4603 254.894 72.6874 254.849 72.8464 254.94L100.786 271.408C100.967 271.522 101.013 271.749 100.922 271.908C100.877 272.022 100.74 272.09 100.604 272.09Z" fill="black"/>
<path d="M71.1655 323.156C71.0292 323.156 70.9157 323.087 70.8475 322.974C70.7339 322.792 70.8021 322.564 70.9838 322.473C81.0465 316.582 91.4953 310.986 101.99 305.891C102.171 305.8 102.398 305.868 102.489 306.073C102.58 306.255 102.512 306.483 102.308 306.573C91.836 311.669 81.4099 317.241 71.3472 323.133C71.2791 323.133 71.2337 323.156 71.1655 323.156Z" fill="black"/>
<path d="M101.535 322.155C101.49 322.155 101.445 322.155 101.399 322.132C90.8595 317.765 80.8649 312.123 71.6881 305.322C71.5291 305.209 71.4837 304.958 71.62 304.799C71.7336 304.64 71.9834 304.594 72.1424 304.731C81.2511 311.487 91.2002 317.105 101.694 321.449C101.876 321.518 101.967 321.745 101.899 321.927C101.808 322.064 101.672 322.155 101.535 322.155Z" fill="black"/>
<path d="M186.353 181.56C186.148 181.56 185.989 181.401 185.989 181.196C185.989 180.991 186.148 180.832 186.353 180.832L278.734 180.446C278.938 180.446 279.097 180.605 279.097 180.809C279.097 181.014 278.938 181.173 278.734 181.173H278.53L186.353 181.56Z" fill="black"/>
<path d="M204.684 199.598C201.345 199.598 197.96 199.484 194.598 199.371C190.714 199.234 187.034 199.098 183.513 199.143C183.309 199.12 183.15 198.984 183.127 198.779C183.127 198.574 183.286 198.415 183.491 198.392C187.034 198.347 190.714 198.483 194.621 198.62C200.595 198.825 206.773 199.029 212.338 198.574C212.543 198.552 212.725 198.711 212.747 198.916C212.77 199.12 212.611 199.302 212.407 199.325C209.931 199.53 207.341 199.598 204.684 199.598Z" fill="black"/>
<path d="M266.127 199.598C261.221 199.598 256.36 199.439 251.84 199.302C245.548 199.098 239.596 198.916 234.576 199.143C234.372 199.166 234.19 198.984 234.19 198.779C234.19 198.574 234.349 198.392 234.554 198.392C239.596 198.142 245.57 198.324 251.862 198.529C260.244 198.802 269.762 199.098 278.711 198.392C278.916 198.392 279.097 198.529 279.12 198.734C279.143 198.938 278.984 199.12 278.779 199.143C274.623 199.484 270.352 199.598 266.127 199.598Z" fill="black"/>
<path d="M254.701 218.614C243.344 218.614 231.941 218.568 220.152 218.523C208.409 218.455 196.256 218.409 183.99 218.409C183.786 218.409 183.627 218.25 183.627 218.045C183.627 217.84 183.786 217.681 183.99 217.681C196.256 217.681 208.409 217.727 220.152 217.772C240.255 217.863 259.244 217.931 278.734 217.772C278.938 217.772 279.097 217.931 279.097 218.136C279.097 218.341 278.938 218.5 278.734 218.523C270.693 218.591 262.697 218.614 254.701 218.614Z" fill="black"/>
<path d="M219.062 256.259C207.705 256.259 196.302 256.213 184.513 256.168C172.769 256.122 160.617 256.077 148.351 256.077C148.146 256.077 147.987 255.918 147.987 255.713C147.987 255.508 148.146 255.349 148.351 255.349C160.617 255.349 172.769 255.394 184.513 255.44C204.615 255.531 223.605 255.599 243.094 255.44C243.299 255.44 243.458 255.599 243.458 255.804C243.458 256.009 243.299 256.168 243.094 256.19C235.053 256.236 227.058 256.259 219.062 256.259Z" fill="black"/>
<path d="M219.062 272.955C207.705 272.955 196.302 272.909 184.513 272.864C172.769 272.818 160.617 272.773 148.351 272.773C148.146 272.773 147.987 272.613 147.987 272.409C147.987 272.204 148.146 272.045 148.351 272.045C160.617 272.045 172.769 272.09 184.513 272.136C204.615 272.227 223.605 272.295 243.094 272.136C243.299 272.136 243.458 272.295 243.458 272.5C243.458 272.704 243.299 272.864 243.094 272.886C235.053 272.932 227.058 272.955 219.062 272.955Z" fill="black"/>
<path d="M219.062 306.687C207.705 306.687 196.302 306.642 184.513 306.596C172.769 306.551 160.617 306.505 148.351 306.505C148.146 306.505 147.987 306.346 147.987 306.141C147.987 305.937 148.146 305.777 148.351 305.777C160.617 305.777 172.769 305.823 184.513 305.868C204.615 305.959 223.605 306.028 243.094 305.868C243.299 305.868 243.458 306.028 243.458 306.232C243.458 306.437 243.299 306.596 243.094 306.619C235.053 306.664 227.058 306.687 219.062 306.687Z" fill="black"/>
<path d="M19.3758 536.174C19.1032 536.174 18.8306 536.083 18.6035 535.855C18.1492 535.423 18.1492 534.718 18.558 534.263L69.6437 480.423C70.0526 479.99 70.7341 479.945 71.1883 480.354L110.735 515.338L172.497 454.151C172.724 453.946 172.996 453.81 173.314 453.832C173.61 453.832 173.905 453.969 174.109 454.196L221.129 506.854C221.538 507.309 221.493 508.014 221.038 508.423C220.584 508.833 219.88 508.787 219.471 508.332L173.223 456.562L111.553 517.658C111.144 518.068 110.462 518.09 110.031 517.704L70.5069 482.743L20.1935 535.81C19.9664 536.037 19.6711 536.174 19.3758 536.174Z" fill="black"/>
<path d="M19.3757 546.091C24.0048 546.091 27.7575 542.333 27.7575 537.698C27.7575 533.062 24.0048 529.304 19.3757 529.304C14.7465 529.304 10.9939 533.062 10.9939 537.698C10.9939 542.333 14.7465 546.091 19.3757 546.091Z" fill="white"/>
<path d="M19.3757 547.228C14.1285 547.228 9.88086 542.952 9.88086 537.72C9.88086 532.466 14.1513 528.212 19.3757 528.212C24.6228 528.212 28.8705 532.489 28.8705 537.72C28.8932 542.952 24.6228 547.228 19.3757 547.228ZM19.3757 530.419C15.3779 530.419 12.1069 533.694 12.1069 537.698C12.1069 541.701 15.3779 544.976 19.3757 544.976C23.3735 544.976 26.6444 541.701 26.6444 537.698C26.6444 533.694 23.3962 530.419 19.3757 530.419Z" fill="black"/>
<path d="M71.529 492.046C76.1581 492.046 79.9108 488.288 79.9108 483.653C79.9108 479.017 76.1581 475.259 71.529 475.259C66.8999 475.259 63.1472 479.017 63.1472 483.653C63.1472 488.288 66.8999 492.046 71.529 492.046Z" fill="white"/>
<path d="M71.529 493.183C66.2819 493.183 62.0342 488.907 62.0342 483.675C62.0342 478.421 66.3046 474.167 71.529 474.167C76.7761 474.167 81.0238 478.444 81.0238 483.675C81.0465 488.907 76.7761 493.183 71.529 493.183ZM71.529 476.374C67.5312 476.374 64.2602 479.649 64.2602 483.653C64.2602 487.656 67.5312 490.931 71.529 490.931C75.5268 490.931 78.7977 487.656 78.7977 483.653C78.7977 479.649 75.5495 476.374 71.529 476.374Z" fill="black"/>
<path d="M100.331 515.679C100.331 511.039 104.079 507.286 108.713 507.286C113.347 507.286 117.095 511.039 117.095 515.679C117.095 520.32 113.347 524.073 108.713 524.073C104.102 524.073 100.331 520.32 100.331 515.679Z" fill="white"/>
<path d="M108.736 525.187C103.489 525.187 99.241 520.911 99.241 515.679C99.241 510.425 103.511 506.171 108.736 506.171C113.983 506.171 118.231 510.448 118.231 515.679C118.231 520.934 113.96 525.187 108.736 525.187ZM108.736 508.401C104.738 508.401 101.467 511.676 101.467 515.679C101.467 519.683 104.738 522.958 108.736 522.958C112.734 522.958 116.005 519.683 116.005 515.679C116.005 511.676 112.734 508.401 108.736 508.401Z" fill="black"/>
<path d="M173.314 464.569C177.943 464.569 181.696 460.811 181.696 456.175C181.696 451.54 177.943 447.782 173.314 447.782C168.685 447.782 164.932 451.54 164.932 456.175C164.932 460.811 168.685 464.569 173.314 464.569Z" fill="white"/>
<path d="M173.314 465.683C168.067 465.683 163.819 461.407 163.819 456.175C163.819 450.921 168.09 446.667 173.314 446.667C178.561 446.667 182.809 450.944 182.809 456.175C182.809 461.407 178.561 465.683 173.314 465.683ZM173.314 448.896C169.316 448.896 166.045 452.172 166.045 456.175C166.045 460.179 169.316 463.454 173.314 463.454C177.312 463.454 180.583 460.179 180.583 456.175C180.583 452.149 177.312 448.896 173.314 448.896Z" fill="black"/>
<path d="M212.27 507.286C212.27 502.646 216.018 498.893 220.652 498.893C225.286 498.893 229.034 502.646 229.034 507.286C229.034 511.926 225.286 515.679 220.652 515.679C216.018 515.679 212.27 511.926 212.27 507.286Z" fill="white"/>
<path d="M220.652 516.794C215.405 516.794 211.157 512.518 211.157 507.286C211.157 502.032 215.428 497.778 220.652 497.778C225.899 497.778 230.147 502.054 230.147 507.286C230.147 512.54 225.876 516.794 220.652 516.794ZM220.652 500.007C216.654 500.007 213.383 503.283 213.383 507.286C213.383 511.289 216.654 514.565 220.652 514.565C224.65 514.565 227.921 511.289 227.921 507.286C227.921 503.283 224.65 500.007 220.652 500.007Z" fill="black"/>
<path d="M492.526 92.8955C503.406 91.2806 515.014 77.5418 515.763 67.7155C517.081 50.2236 520.079 22.0183 508.495 12.6014C502.248 7.50627 493.684 2.8433 485.235 2.45661C450.231 0.864376 426.176 0.477691 389.378 2.45661C358.327 4.11708 359.758 35.5068 359.758 48.4494C359.758 77.6101 365.55 88.642 393.921 91.8492C430.832 96.0118 457.25 94.0556 460.339 95.1247C465.904 97.0126 490.345 132.474 494.956 129.835C499.091 127.424 491.527 106.157 492.526 92.8955Z" fill="white"/>
<path d="M494.389 131.086C491.072 131.086 485.257 124.604 474.173 111.343C468.517 104.564 462.088 96.8989 459.976 96.171C459.113 95.8753 454.978 95.8526 449.754 95.8526C438.01 95.8071 418.317 95.7388 393.785 92.9638C378.975 91.2806 370.457 87.573 365.3 80.5444C360.576 74.1072 358.645 64.804 358.645 48.4495V46.8118C358.622 39.7377 358.577 29.0242 362.347 19.6528C366.936 8.21145 376.022 2.06998 389.333 1.3421C426.698 -0.659568 450.958 -0.227391 485.28 1.3421C492.776 1.68329 501.499 5.48191 509.199 11.7371C520.556 20.9721 518.58 46.1749 517.149 64.5765C517.058 65.6911 516.967 66.7829 516.899 67.8293C516.172 77.5419 504.883 91.5535 493.616 93.8737C493.344 99.6967 494.616 106.998 495.729 113.481C497.296 122.557 498.432 129.13 495.524 130.813C495.161 130.973 494.798 131.086 494.389 131.086ZM435.739 2.2292C421.588 2.2292 406.959 2.63863 389.446 3.57123C360.712 5.11797 360.825 33.255 360.894 46.789V48.4495C360.894 76.8822 365.914 87.5502 394.057 90.7347C418.476 93.487 438.056 93.5552 449.777 93.6007C456.523 93.6235 459.544 93.6462 460.725 94.0556C463.292 94.92 468.176 100.652 475.922 109.91C479.942 114.709 484.099 119.691 487.62 123.375C492.98 128.994 494.321 128.88 494.457 128.835C496.001 127.947 494.639 120.123 493.548 113.845C492.344 106.907 490.982 99.0598 491.459 92.8273C491.504 92.3042 491.89 91.872 492.413 91.8038C502.861 90.2343 514.014 76.6548 514.696 67.6473C514.764 66.601 514.855 65.5091 514.946 64.3946C516.263 47.4941 518.285 21.9729 507.836 13.4658C500.499 7.50632 492.254 3.88967 485.235 3.57123C467.017 2.75236 451.685 2.2292 435.739 2.2292Z" fill="black"/>
<path  class="mess-1" d="M402.53 48.2448C402.53 44.2642 405.71 41.0115 409.64 41.0115C413.569 41.0115 416.749 44.2414 416.749 48.2448C416.749 52.2254 413.569 55.4781 409.64 55.4781C405.71 55.4553 402.53 52.2254 402.53 48.2448Z" fill="white"/>
<path class="mess-1" d="M409.64 56.57C405.097 56.57 401.417 52.8169 401.417 48.2221C401.417 43.6274 405.119 39.8743 409.64 39.8743C414.182 39.8743 417.862 43.6274 417.862 48.2221C417.862 52.8169 414.182 56.57 409.64 56.57ZM409.64 42.1261C406.323 42.1261 403.643 44.8557 403.643 48.2221C403.643 51.5886 406.323 54.3181 409.64 54.3181C412.956 54.3181 415.636 51.5886 415.636 48.2221C415.636 44.8557 412.956 42.1261 409.64 42.1261Z" fill="black"/>
<path  d="M401.667 81.7499L381.019 80.8173C380.815 80.8173 380.656 80.6353 380.656 80.4306C380.656 80.2259 380.837 80.0667 381.042 80.0667L401.667 80.9992C401.871 80.9992 402.03 81.1812 402.03 81.3859C402.03 81.5906 401.871 81.7499 401.667 81.7499Z" fill="black"/>
<path d="M387.742 73.1291L374.341 72.7196C374.136 72.7196 373.977 72.5376 373.977 72.3329C373.977 72.1282 374.182 71.9917 374.363 71.969L387.765 72.3784C387.97 72.3784 388.129 72.5604 388.129 72.7651C388.106 72.9698 387.947 73.1291 387.742 73.1291Z" fill="black"/>
<path d="M492.708 13.6022L477.444 13.0336C477.239 13.0336 477.08 12.8516 477.08 12.6469C477.08 12.4422 477.262 12.283 477.466 12.283L492.731 12.8516C492.935 12.8516 493.094 13.0336 493.094 13.2383C493.071 13.443 492.912 13.6022 492.708 13.6022Z" fill="black"/>
<path d="M440.668 55.4781C444.595 55.4781 447.778 52.2396 447.778 48.2448C447.778 44.2499 444.595 41.0115 440.668 41.0115C436.742 41.0115 433.558 44.2499 433.558 48.2448C433.558 52.2396 436.742 55.4781 440.668 55.4781Z" fill="white"/>
<path class="mess-2" d="M440.668 56.57C436.125 56.57 432.445 52.8169 432.445 48.2221C432.445 43.6274 436.148 39.8743 440.668 39.8743C445.188 39.8743 448.891 43.6274 448.891 48.2221C448.891 52.8169 445.211 56.57 440.668 56.57ZM440.668 42.1261C437.352 42.1261 434.671 44.8557 434.671 48.2221C434.671 51.5886 437.352 54.3181 440.668 54.3181C443.984 54.3181 446.665 51.5886 446.665 48.2221C446.665 44.8557 443.984 42.1261 440.668 42.1261Z" fill="black"/>
<path d="M471.697 55.4781C475.623 55.4781 478.806 52.2396 478.806 48.2448C478.806 44.2499 475.623 41.0115 471.697 41.0115C467.77 41.0115 464.587 44.2499 464.587 48.2448C464.587 52.2396 467.77 55.4781 471.697 55.4781Z" fill="white"/>
<path class="mess-3" d="M471.697 56.57C467.154 56.57 463.474 52.8169 463.474 48.2221C463.474 43.6274 467.176 39.8743 471.697 39.8743C476.24 39.8743 479.919 43.6274 479.919 48.2221C479.919 52.8169 476.217 56.57 471.697 56.57ZM471.697 42.1261C468.38 42.1261 465.7 44.8557 465.7 48.2221C465.7 51.5886 468.38 54.3181 471.697 54.3181C475.013 54.3181 477.693 51.5886 477.693 48.2221C477.693 44.8557 474.99 42.1261 471.697 42.1261Z" fill="black"/>
<g opacity="0.1294">
<path d="M496.797 126.697C496.592 126.333 496.274 126.105 495.933 125.9C495.161 125.377 495.456 125.559 494.23 124.513C492.708 123.057 491.345 121.465 490.005 119.85C484.44 113.322 476.353 102.29 468.426 95.3068C466.154 93.3961 463.542 91.8721 460.748 90.9168C457.682 90.0069 454.479 89.8022 451.299 89.5975C439.124 89.1653 426.926 88.7104 414.751 88.2327C401.008 87.5048 389.878 86.9362 377.067 81.9775C374.386 81.0677 370.843 79.3162 369.207 77.9742C368.185 77.2918 367.549 75.836 366.186 75.7905C364.687 75.7451 363.801 77.7695 364.937 78.8158C372.069 86.3448 382.586 89.2108 393.126 90.5983C397.033 91.167 405.165 92.0768 411.025 92.3725C421.906 93.1004 432.786 93.4871 443.667 94.1467C449.141 94.3742 456.455 94.8519 458.068 95.284C463.179 96.4214 465.973 99.3784 470.561 104.269C474.672 108.704 478.761 113.14 482.577 117.826C484.758 120.146 492.98 130.199 495.706 129.403C496.819 129.13 497.41 127.72 496.797 126.697Z" fill="black"/>
</g>
<path d="M562.056 270.02C560.171 267.95 558.308 265.858 556.446 263.765C553.22 260.103 550.063 256.395 546.928 252.642C546.61 252.71 546.224 252.688 546.02 252.892C544.066 251.232 540.954 250.527 538.16 251.027C536.661 252.574 534.889 253.962 533.072 255.326C532.391 255.849 531.732 256.373 530.96 256.828C530.46 257.1 530.006 257.396 529.529 257.692L529.506 257.715C529.37 257.851 529.233 257.942 529.074 257.988C528.961 258.056 528.847 258.147 528.734 258.215C527.189 259.261 525.713 260.33 524.191 261.377C523.805 261.65 523.328 261.741 522.941 261.604V262.173C522.533 263.515 521.76 269.338 525.417 277.436C528.961 285.238 534.231 301.342 534.435 309.258C541.863 311.578 544.043 317.969 551.835 316.582C554.765 316.059 560.262 309.03 562.67 307.915C564.941 299.545 563.692 281.598 564.918 273.068C563.942 272.067 563.01 271.044 562.056 270.02Z" fill="white"/>
<path d="M532.731 263.583C532.504 260.33 533.504 256.987 535.457 254.371C536.684 252.733 538.297 251.346 539.228 249.526C540.159 247.706 540.159 245.136 538.501 243.908C537.456 243.134 536.048 243.134 534.776 243.384C531.459 244.09 528.756 246.455 526.394 248.889C524.918 250.413 523.487 252.005 522.578 253.916C521.783 255.622 521.442 257.51 521.283 259.398C521.17 260.558 521.147 261.786 521.624 262.855C522.283 264.334 523.759 265.266 525.19 265.994C526.689 266.745 528.37 267.427 530.028 267.131C531.664 266.836 532.845 265.266 532.731 263.583Z" fill="white"/>
<g opacity="0.1294">
<path d="M554.469 261.581C554.81 261.331 554.924 261.217 554.469 261.581V261.581Z" fill="black"/>
</g>
<g opacity="0.1294">
<path d="M539.341 268.451C539.205 268.428 539.069 268.405 539.001 268.405C539.114 268.428 539.228 268.451 539.341 268.451Z" fill="black"/>
</g>
<g opacity="0.1294">
<path d="M539.569 268.496C539.501 268.496 539.432 268.473 539.342 268.473C539.501 268.473 539.637 268.496 539.569 268.496Z" fill="black"/>
</g>
<path d="M512.356 239.29C523.395 251.437 533.526 264.402 542.635 278.05C547.45 285.283 552.516 293.153 560.602 296.315C562.351 296.997 564.259 297.452 566.122 297.134C568.87 296.656 571.142 294.495 572.3 291.925C573.459 289.377 573.618 286.466 573.391 283.668C573.209 281.507 572.8 279.346 571.755 277.436C570.779 275.684 569.438 274.115 567.871 272.864C563.26 269.224 565.009 267.45 564.078 263.606C561.42 252.438 545.02 252.438 538.455 242.861C540.091 241.724 541.749 240.587 543.089 239.108C544.429 237.63 545.429 235.765 545.497 233.786C545.61 230.76 543.657 228.099 541.953 225.506C563.351 217.886 585.679 212.882 608.19 210.152C603.261 200.531 599.263 190.454 595.288 180.4C589.882 166.753 584.498 153.105 578.683 140.185C564.464 154.492 547.201 165.32 530.096 176.01C518.353 183.357 506.564 190.704 494.025 196.573C487.324 199.689 479.828 202.965 476.83 209.72C474.922 213.996 475.24 218.978 476.739 223.413C478.238 227.849 480.805 231.807 483.417 235.674C485.552 238.858 488.142 242.293 492.094 243.271C499.159 243.521 506.291 241.997 512.356 239.29Z" fill="white"/>
<path d="M604.669 151.399C608.122 162.772 612.619 173.804 618.048 184.381C621.433 183.812 624.113 180.992 625.431 177.83C626.748 174.668 626.93 171.142 626.998 167.708C627.021 166.298 627.043 164.842 626.634 163.5C626.271 162.294 625.59 161.202 624.908 160.156C623.227 157.563 621.342 155.038 618.82 153.241C614.732 150.352 609.121 149.829 604.669 151.399Z" fill="white"/>
<path d="M607.622 211.335C598.037 187.156 588.451 162.977 578.865 138.411C584.158 133.452 588.36 127.22 591.04 120.373C591.04 120.373 629.769 213.473 629.815 213.087C622.728 210.63 615.095 209.879 607.622 211.335Z" fill="#FF7050"/>
<path d="M529.029 231.329C528.597 231.329 528.211 231.079 528.007 230.669C521.487 216.544 515.809 201.804 511.107 186.906C510.948 186.428 511.152 185.905 511.584 185.632C516.286 182.652 521.192 179.65 525.917 176.761C553.265 160.042 581.545 142.755 589.882 118.781C590.041 118.349 590.45 118.053 590.904 118.03C591.381 118.007 591.79 118.28 591.972 118.713L631.268 212.927C631.495 213.496 631.246 214.156 630.678 214.383C630.451 214.474 630.201 214.497 629.973 214.429C629.678 214.633 629.292 214.679 628.951 214.542C601.921 203.943 530.142 230.942 529.415 231.215C529.301 231.306 529.165 231.329 529.029 231.329ZM513.514 187.065C518.035 201.258 523.441 215.293 529.619 228.781C538.592 225.46 601.33 202.873 628.497 212.017L591.018 122.17C581.341 145.508 553.788 162.362 527.098 178.672C522.6 181.424 517.967 184.244 513.514 187.065Z" fill="black"/>
<path d="M607.191 210.516C606.759 210.516 606.327 210.243 606.146 209.811L578.434 140.867C578.206 140.299 578.479 139.639 579.047 139.412C579.615 139.184 580.273 139.457 580.501 140.026L608.213 208.97C608.44 209.538 608.167 210.198 607.599 210.425C607.463 210.494 607.327 210.516 607.191 210.516Z" fill="black"/>
<path d="M619.116 185.859C618.753 185.859 618.389 185.677 618.185 185.359C617.844 184.836 618.003 184.153 618.503 183.812C622.273 181.355 625.045 177.193 625.953 172.689C626.862 168.163 625.862 163.227 623.341 159.474C622.114 157.654 620.502 156.039 618.571 154.697C615.3 152.4 610.28 150.716 606.078 152.9C605.532 153.173 604.851 152.968 604.578 152.422C604.306 151.876 604.51 151.194 605.055 150.921C610.144 148.283 616.049 150.216 619.866 152.877C622.023 154.378 623.818 156.198 625.204 158.245C628.066 162.476 629.179 168.049 628.156 173.144C627.134 178.239 624 182.925 619.729 185.7C619.525 185.791 619.32 185.859 619.116 185.859Z" fill="black"/>
<path d="M495.842 244.863C493.934 244.863 492.072 244.522 490.255 243.68C485.78 241.633 483.099 237.22 480.533 232.489C478.466 228.668 476.103 224.346 475.126 219.546C474.013 214.156 474.945 208.992 477.693 205.421C479.897 202.555 483.145 200.804 485.734 199.416C494.139 194.912 502.475 190.5 512.356 185.905C512.924 185.655 513.583 185.882 513.833 186.451C514.082 187.019 513.855 187.679 513.287 187.929C503.475 192.479 495.161 196.891 486.802 201.372C484.394 202.669 481.373 204.284 479.465 206.763C477.125 209.834 476.33 214.315 477.307 219.069C478.216 223.55 480.487 227.712 482.486 231.397C484.871 235.765 487.324 239.859 491.163 241.61C496.388 244.021 502.498 241.588 508.313 238.881C511.97 237.175 515.309 235.56 518.534 233.99C521.76 232.421 525.076 230.806 528.756 229.1C529.324 228.85 529.983 229.077 530.233 229.646C530.482 230.214 530.255 230.874 529.687 231.124C526.053 232.83 522.714 234.445 519.511 235.992C516.286 237.561 512.947 239.176 509.267 240.905C505.042 242.907 500.363 244.863 495.842 244.863Z" fill="black"/>
<path d="M563.941 299.022C558.013 299.022 552.857 294.245 550.699 291.925C546.587 287.467 543.316 282.235 540.159 277.163C539.432 276.002 538.728 274.865 538.001 273.705C530.301 261.581 521.328 250.277 511.357 240.109C510.925 239.677 510.925 238.972 511.379 238.517C511.811 238.085 512.515 238.085 512.969 238.54C523.055 248.821 532.118 260.239 539.909 272.5C540.636 273.66 541.363 274.82 542.09 275.98C545.179 280.961 548.382 286.102 552.357 290.401C554.628 292.835 560.534 298.317 566.576 296.383C572.028 294.632 574.345 287.262 572.778 281.826C571.369 276.958 568.076 274.365 563.487 270.794C562.624 270.111 561.715 269.406 560.784 268.655L560.511 268.428C553.538 262.81 546.292 255.372 538.955 246.319C537.07 243.976 535.253 240.291 533.322 236.379C532.277 234.24 531.187 232.034 530.096 230.101C529.801 229.555 529.983 228.872 530.528 228.577C531.073 228.281 531.754 228.463 532.05 229.009C533.163 231.011 534.253 233.24 535.321 235.401C537.183 239.199 538.932 242.77 540.681 244.931C547.905 253.87 555.037 261.195 561.897 266.699L562.17 266.927C563.101 267.677 563.987 268.383 564.827 269.042C569.552 272.75 573.3 275.661 574.89 281.234C576.73 287.649 574.05 296.338 567.212 298.544C566.145 298.862 565.032 299.022 563.941 299.022Z" fill="black"/>
<path d="M539.25 244.021C538.955 244.021 538.66 243.908 538.455 243.68C538.024 243.248 538.024 242.52 538.478 242.088L542.453 238.198C542.976 237.675 543.498 237.175 543.839 236.629C544.611 235.378 544.679 233.558 544.021 231.761C543.385 230.032 542.181 228.486 541.022 227.007C540.636 226.53 540.727 225.824 541.227 225.438C541.704 225.051 542.408 225.142 542.794 225.642C543.998 227.189 545.361 228.918 546.11 230.988C546.996 233.422 546.86 235.969 545.724 237.789C545.224 238.585 544.588 239.222 543.998 239.791L540.023 243.68C539.818 243.908 539.546 244.021 539.25 244.021Z" fill="black"/>
<path d="M486.484 213.701C486.075 213.701 485.689 213.473 485.484 213.109C485.189 212.563 485.416 211.881 485.961 211.608C493.276 207.787 500.862 204.284 508.495 201.236C509.062 201.008 509.721 201.281 509.948 201.85C510.176 202.418 509.903 203.078 509.335 203.306C501.771 206.331 494.252 209.788 487.006 213.587C486.825 213.655 486.643 213.701 486.484 213.701Z" fill="black"/>
<path d="M490.845 222.958C490.413 222.958 490.005 222.708 489.823 222.299C489.573 221.73 489.823 221.07 490.391 220.82C497.909 217.522 505.587 214.337 513.196 211.358C513.764 211.13 514.423 211.426 514.65 211.995C514.877 212.563 514.582 213.223 514.014 213.45C506.427 216.43 498.795 219.592 491.299 222.89C491.14 222.936 490.981 222.958 490.845 222.958Z" fill="black"/>
<path d="M495.115 233.035C494.707 233.035 494.32 232.808 494.116 232.421C493.843 231.875 494.071 231.193 494.616 230.92C502.021 227.212 509.698 223.914 517.444 221.093C518.012 220.889 518.671 221.184 518.875 221.753C519.08 222.344 518.784 222.981 518.216 223.186C510.562 225.984 502.952 229.259 495.615 232.921C495.456 232.99 495.297 233.035 495.115 233.035Z" fill="black"/>
<path class="horn" d="M626.566 148.101C626.271 148.101 625.976 147.987 625.749 147.759C625.317 147.305 625.34 146.599 625.794 146.19C632.699 139.685 637.401 130.859 639.082 121.374C639.196 120.76 639.764 120.35 640.377 120.464C640.99 120.578 641.399 121.146 641.286 121.761C639.537 131.723 634.585 140.981 627.339 147.828C627.112 148.01 626.839 148.101 626.566 148.101Z" fill="black"/>
<path class="horn"  d="M633.631 157.495C633.267 157.495 632.904 157.313 632.699 156.994C632.359 156.471 632.495 155.789 633.017 155.448C638.469 151.876 644.307 148.851 650.349 146.508C650.917 146.281 651.575 146.577 651.803 147.145C652.03 147.714 651.734 148.374 651.167 148.601C645.261 150.898 639.582 153.833 634.244 157.336C634.04 157.427 633.835 157.495 633.631 157.495Z" fill="black"/>
<path class="horn"  d="M663.887 173.599C663.728 173.599 663.546 173.553 663.387 173.485C655.392 169.573 646.487 167.753 637.606 168.231C636.993 168.254 636.47 167.799 636.425 167.162C636.402 166.548 636.856 166.025 637.492 165.979C646.737 165.501 656.028 167.389 664.364 171.461C664.909 171.734 665.159 172.393 664.886 172.962C664.682 173.372 664.296 173.599 663.887 173.599Z" fill="black"/>
<path d="M595.901 205.944C595.765 205.944 595.629 205.876 595.56 205.74L587.428 190.295C587.338 190.113 587.406 189.886 587.588 189.795C587.769 189.704 587.996 189.772 588.087 189.954L596.219 205.398C596.31 205.58 596.242 205.808 596.06 205.899C596.015 205.944 595.969 205.944 595.901 205.944Z" fill="black"/>
<path d="M588.837 207.9C588.701 207.9 588.587 207.832 588.519 207.696L584.385 199.985C584.294 199.803 584.362 199.575 584.544 199.484C584.726 199.393 584.953 199.461 585.044 199.643L589.178 207.354C589.269 207.536 589.2 207.764 589.019 207.855C588.95 207.9 588.882 207.9 588.837 207.9Z" fill="black"/>
<path d="M580.932 210.835C580.796 210.835 580.682 210.766 580.614 210.63L577.48 204.852C577.389 204.67 577.457 204.443 577.639 204.352C577.82 204.261 578.047 204.329 578.138 204.511L581.296 210.289C581.386 210.471 581.318 210.698 581.137 210.789C581.046 210.835 580.978 210.835 580.932 210.835Z" fill="black"/>
<path d="M572.187 212.654C572.051 212.654 571.914 212.586 571.846 212.45L569.552 207.991C569.461 207.81 569.529 207.582 569.711 207.491C569.893 207.4 570.12 207.468 570.211 207.65L572.505 212.109C572.596 212.291 572.528 212.518 572.346 212.609C572.301 212.632 572.255 212.654 572.187 212.654Z" fill="black"/>
<g opacity="0.1294">
<path d="M627.634 169.3C627.293 167.981 625.499 167.526 624.499 168.413C623.909 168.913 623.841 169.709 623.523 170.392C622.659 172.803 620.706 175.51 619.161 176.874C617.412 178.58 617.821 177.58 616.254 179.217C614.573 181.697 617.776 184.585 620.07 182.652C624.091 179.922 625.067 177.102 626.816 173.644C627.225 172.644 627.543 171.597 627.657 170.528C627.748 170.119 627.816 169.687 627.634 169.3Z" fill="black"/>
</g>
<g opacity="0.1294">
<path d="M626.884 206.558C623.341 205.103 619.434 205.489 615.709 205.08C607.077 204.716 598.377 205.398 589.837 206.695C586.066 207.559 582.227 207.764 578.411 208.196C575.117 208.583 571.96 209.493 568.757 210.334C559.285 212.927 549.586 214.61 540.341 217.954C530.596 221.412 521.419 226.211 512.288 231.033C506.291 234.172 502.566 236.379 497.024 237.22C494.389 237.675 493.253 237.402 489.414 236.97C488.188 236.697 486.62 236.833 486.052 238.153C485.212 239.563 486.325 241.565 487.96 241.633C490.8 242.042 493.616 242.929 496.501 242.747C503.02 242.588 508.631 238.972 514.378 236.333C514.968 236.083 515.536 235.81 516.127 235.537C515.264 236.037 514.423 236.538 513.583 237.061C511.993 237.743 510.812 239.699 511.993 241.269C512.492 242.179 513.56 242.565 514.559 242.452C515.195 242.929 516.059 243.111 516.876 242.679C518.353 241.86 519.92 241.223 521.51 240.678C522.782 240.291 523.1 240.086 525.281 239.927C525.508 239.927 526.099 239.95 526.485 240.018C528.302 240.518 527.916 240.564 528.688 240.996C529.12 241.292 529.529 241.61 529.937 241.951C531.823 243.908 533.844 245.727 535.707 247.683C536.706 248.752 537.638 249.913 538.774 250.845C539.137 251.073 539.796 251.619 540.636 252.346C540.75 252.46 540.886 252.597 541 252.71C541.772 253.461 542.59 254.143 543.43 254.826C544.566 255.849 545.724 256.873 546.724 257.737C546.769 257.783 548.45 259.284 549.518 260.194C550.313 261.013 551.585 261.741 552.652 260.922C553.288 260.558 553.584 259.83 553.561 259.125C553.311 258.92 553.084 258.715 552.857 258.533C551.812 257.601 550.79 256.668 549.768 255.713C547.769 253.802 545.77 251.846 543.998 249.731C540.454 245.477 537.206 240.928 534.708 235.969C534.458 235.469 534.617 235.014 534.957 234.741C534.571 234.127 534.299 233.694 533.958 233.194C537.161 232.216 537.547 231.807 540.909 231.443C540.931 231.443 540.931 231.465 540.954 231.465C542.272 231.966 543.884 231.215 544.339 229.873C545.202 227.576 542.567 225.438 540.477 226.711C540.477 226.711 540.477 226.711 540.454 226.711C540.341 226.734 540.25 226.757 540.136 226.78C539.296 226.916 538.501 227.098 537.683 227.303C540.409 226.256 542.817 225.324 543.68 225.028C551.38 222.708 557.309 220.934 566.031 218.887C571.574 217.522 573.459 216.476 577.979 215.452C584.181 214.337 590.336 212.859 596.606 212.154C598.582 211.904 600.581 211.585 602.58 211.471C604.283 211.312 604.329 211.494 605.124 211.244C605.623 211.13 606.078 210.721 606.282 210.243C606.305 210.198 606.327 210.152 606.35 210.107C610.053 209.856 613.687 209.765 618.321 210.175C622.092 210.402 623.568 210.289 626.271 211.403C626.362 211.449 626.453 211.471 626.544 211.517C626.589 211.54 626.635 211.585 626.703 211.608C627.657 212.199 628.997 211.79 629.61 210.88C630.996 208.674 628.77 207.286 626.884 206.558ZM531.323 230.283C531.164 230.192 531.005 230.101 530.846 230.01C531.096 229.919 531.323 229.828 531.573 229.714C531.482 229.896 531.391 230.101 531.323 230.283Z" fill="black"/>
</g>
<path d="M566.508 271.18C567.349 269.747 567.417 271.112 567.871 269.497C568.326 267.905 568.416 266.131 567.758 264.607C567.099 263.083 565.623 261.832 563.964 261.786C561.92 261.718 560.239 263.287 558.853 264.811C556.491 267.382 554.242 270.088 552.561 273.136C551.925 274.274 551.426 275.798 552.312 276.753C552.766 277.254 553.515 277.413 554.197 277.458C556.173 277.549 558.172 276.708 559.49 275.229C560.057 274.592 560.512 273.842 561.125 273.227C561.738 272.613 562.715 271.84 563.01 271.044C563.851 268.701 563.828 267.131 566.508 271.18Z" fill="white"/>
<path d="M561.579 264.538C562.42 263.105 563.238 261.627 563.692 260.035C564.146 258.442 564.237 256.668 563.578 255.144C562.92 253.62 561.443 252.369 559.785 252.324C557.741 252.255 556.06 253.825 554.674 255.349C552.312 257.919 550.063 260.626 548.382 263.674C547.746 264.811 547.246 266.335 548.132 267.291C548.586 267.791 549.336 267.95 550.017 267.996C551.994 268.087 553.811 268.701 555.128 267.222C555.673 266.54 561.375 261.422 561.579 264.538Z" fill="white"/>
<path d="M557.013 256.714C557.854 255.281 558.672 253.802 559.126 252.21C559.58 250.618 559.671 248.844 559.012 247.32C558.354 245.796 556.877 244.544 555.219 244.499C553.175 244.431 551.494 246 550.108 247.524C547.746 250.095 545.497 252.801 543.816 255.849C543.18 256.987 542.68 258.511 543.566 259.466C544.021 259.966 544.77 261.786 545.452 261.809C547.428 261.9 549.427 259.42 550.744 257.942C551.312 257.26 556.809 253.575 557.013 256.714Z" fill="white"/>
<path d="M555.219 244.476C556.877 244.476 555.265 238.426 554.606 236.879C553.947 235.355 552.471 234.104 550.812 234.059C548.768 233.99 547.087 235.56 545.702 237.084C543.339 239.654 541.091 242.361 539.41 245.409C538.774 246.546 538.274 248.07 539.16 249.026C539.614 249.526 538.319 256.077 539.001 256.1C540.977 256.191 543.407 255.372 544.725 253.916C545.293 253.256 550.812 244.476 555.219 244.476Z" fill="white"/>
<path d="M534.548 251.641C537.206 248.275 543.362 240.951 539.864 238.994C538.092 237.994 533.822 240.132 532.436 241.633C530.074 244.203 525.281 246.614 523.6 249.662C522.964 250.8 520.556 257.282 521.419 258.238C521.874 258.738 521.442 264.88 522.146 264.902C524.122 264.993 532.232 267.245 533.549 265.767C534.094 265.153 528.961 258.693 534.548 251.641Z" fill="white"/>
<path d="M554.197 279.369C553.947 279.369 553.697 279.346 553.447 279.301C551.585 278.96 550.858 277.913 550.585 277.094C549.336 273.5 554.606 266.995 556.264 265.107C558.104 262.969 560.33 260.672 563.396 260.308C566.031 259.989 568.53 261.786 569.325 264.584C570.097 267.268 568.78 269.952 567.712 272.113L567.644 272.249C567.371 272.795 566.713 273.023 566.145 272.75C565.6 272.477 565.373 271.817 565.645 271.249L565.713 271.112C566.645 269.201 567.712 267.041 567.167 265.198C566.758 263.742 565.373 262.332 563.646 262.537C561.375 262.81 559.58 264.698 557.945 266.586C554.878 270.134 552.084 274.638 552.698 276.389C552.743 276.548 552.902 276.958 553.856 277.14C556.605 277.663 560.534 271.749 562.215 269.224C562.42 268.928 562.601 268.633 562.76 268.405C563.101 267.905 563.805 267.768 564.305 268.11C564.805 268.451 564.941 269.156 564.6 269.656C564.441 269.884 564.26 270.157 564.055 270.452C561.965 273.614 558.149 279.369 554.197 279.369Z" fill="black"/>
<path d="M544.157 266.904C543.407 266.904 542.771 266.654 542.294 266.176C541.022 264.902 540.5 260.353 542.499 255.849C544.566 251.209 548.632 245.523 552.743 244.021C555.878 242.884 557.854 243.703 558.944 244.567C560.875 246.114 561.761 249.23 561.307 252.915C561.238 253.529 560.671 253.961 560.057 253.893C559.444 253.825 559.012 253.256 559.081 252.642C559.444 249.776 558.853 247.365 557.536 246.319C556.582 245.568 555.219 245.5 553.493 246.114C550.154 247.32 546.474 252.369 544.52 256.736C542.794 260.649 543.43 264.061 543.884 264.607C543.952 264.652 544.157 264.675 544.407 264.629C545.497 264.425 546.883 263.287 547.201 262.537C547.45 261.968 548.109 261.695 548.677 261.945C549.245 262.196 549.518 262.855 549.268 263.424C548.632 264.925 546.61 266.495 544.861 266.836C544.611 266.881 544.384 266.904 544.157 266.904Z" fill="black"/>
<path d="M549.608 275.457C548.609 275.457 547.587 275.184 546.86 274.456C546.02 273.614 545.565 272.409 545.474 270.771C545.338 268.223 545.951 265.426 547.337 262.264C549.2 258.056 552.062 254.735 555.582 252.642C557.263 251.641 560.807 251.004 563.419 252.733C565.009 253.802 566.758 256.1 566.077 261.058C565.986 261.672 565.441 262.082 564.827 262.014C564.214 261.923 563.783 261.377 563.873 260.763C564.169 258.647 564.101 255.872 562.193 254.598C560.489 253.461 557.922 253.848 556.718 254.553C553.584 256.418 551.04 259.398 549.359 263.174C548.109 266.017 547.541 268.451 547.678 270.634C547.746 271.703 547.973 272.431 548.405 272.864C549.063 273.523 550.858 273.091 551.267 272.818C551.721 272.409 552.425 272.454 552.834 272.932C553.243 273.387 553.175 274.115 552.72 274.524C552.221 274.979 550.949 275.457 549.608 275.457Z" fill="black"/>
<path d="M534.412 312.101C534.39 312.101 534.39 312.101 534.367 312.101C533.754 312.078 533.276 311.555 533.299 310.941C533.708 301.069 529.37 290.196 525.871 281.439C524.236 277.322 522.691 273.455 521.828 270.225L521.556 269.224C520.125 263.856 518.535 257.806 520.738 252.369C522.192 248.798 525.076 246.114 527.893 243.658L528.279 243.316C529.983 241.838 532.3 239.813 534.276 238.767C536.888 237.38 538.842 237.061 540.114 237.834C540.682 238.176 541.386 238.904 541.386 240.382C541.386 245.227 540.091 246.728 537.751 249.435C537.252 250.026 536.684 250.663 536.07 251.437C532.822 255.463 532.459 261.945 535.23 266.904C535.525 267.45 535.344 268.132 534.798 268.428C534.253 268.724 533.572 268.542 533.277 267.996C530.074 262.287 530.505 254.735 534.321 250.026C534.957 249.23 535.525 248.571 536.048 247.979C538.296 245.386 539.137 244.408 539.137 240.382C539.137 240.177 539.114 239.836 538.955 239.745C538.637 239.563 537.524 239.563 535.321 240.746C533.572 241.679 531.368 243.612 529.756 245.022L529.37 245.363C526.644 247.729 524.077 250.117 522.805 253.234C520.874 257.965 522.305 263.424 523.714 268.678L523.986 269.702C524.804 272.795 526.326 276.617 527.939 280.643C531.505 289.582 535.957 300.705 535.525 311.055C535.503 311.646 535.026 312.101 534.412 312.101Z" fill="black"/>
<path d="M540.659 259.375C539.796 259.375 539.114 259.102 538.796 258.943C535.912 257.578 536.025 253.666 537.002 250.754L537.32 249.799C538.501 246.251 539.705 242.588 541.817 239.381C543.907 236.174 548.814 231.693 553.039 233.263C557.127 234.787 556.809 239.449 556.605 242.543C556.559 243.294 556.514 244.021 556.537 244.522C556.582 245.136 556.105 245.659 555.492 245.705C554.878 245.727 554.356 245.273 554.311 244.658C554.265 244.021 554.311 243.271 554.379 242.407C554.606 239.086 554.583 236.242 552.244 235.378C549.563 234.377 545.543 237.766 543.68 240.632C541.749 243.589 540.568 247.115 539.432 250.527L539.114 251.482C538.592 253.029 538.069 256.145 539.75 256.941C539.977 257.055 540.614 257.283 541.25 257.055C541.84 256.85 542.34 256.282 542.726 255.417C542.976 254.849 543.657 254.621 544.202 254.871C544.77 255.122 544.998 255.804 544.748 256.35C544.089 257.783 543.158 258.738 541.999 259.17C541.522 259.307 541.068 259.375 540.659 259.375Z" fill="black"/>
<path d="M352.852 576.412C338.701 554.12 298.496 566.039 314.669 581.143C336.498 601.546 403.961 599.795 445.37 593.585C456.091 591.97 459.181 573.204 460.316 563.833C464.882 526.006 457.386 478.717 455.955 440.662C478.534 461.02 531.005 499.666 559.58 492.819C577.139 488.611 581.727 469.118 583.067 461.793C592.29 411.479 580.342 369.262 569.825 301.524C554.151 304.89 541.34 309.03 525.417 304.822C528.983 355.819 531.686 381.135 529.483 413.321C496.865 392.327 474.218 372.606 436.511 359.595C410.071 350.474 321.529 359.208 306.128 363.007C250.181 376.859 213.701 475.873 202.866 507.627C171.134 600.705 271.851 589.627 332.386 573.819C336.112 564.538 344.062 581.439 352.852 576.412Z" fill="white"/>
<path d="M388.537 598.862C358.418 598.862 327.753 594.904 313.896 581.939C313.079 581.166 312.397 580.415 311.852 579.687C277.916 586.511 227.603 591.606 206.115 568.428C193.917 555.258 192.463 534.672 201.821 507.24C218.449 458.473 254.088 374.721 305.878 361.892C321.438 358.025 410.457 349.382 436.875 358.503C465.473 368.352 485.893 382.364 507.495 397.194C514.196 401.789 521.101 406.52 528.484 411.32C530.119 385.162 528.529 363.166 525.894 327.295C525.394 320.38 524.849 312.942 524.281 304.867C524.259 304.504 524.395 304.162 524.69 303.935C524.963 303.707 525.326 303.616 525.69 303.707C539.16 307.279 550.335 304.754 563.283 301.82C565.35 301.342 567.44 300.887 569.575 300.409C569.87 300.341 570.188 300.409 570.438 300.591C570.688 300.773 570.87 301.046 570.915 301.342C573.073 315.308 575.276 328.023 577.411 340.306C585.589 387.664 591.517 421.874 584.158 461.998C580.932 479.581 572.301 490.909 559.83 493.911C557.468 494.48 554.946 494.753 552.289 494.753C523.35 494.753 479.442 462.908 457.159 443.255C457.659 454.651 458.658 466.707 459.703 479.422C462.088 508.31 464.541 538.175 461.407 563.992C459.09 583.145 453.752 593.494 445.506 594.722C430.946 596.883 409.889 598.862 388.537 598.862ZM314.328 579.209C314.692 579.619 315.055 579.983 315.418 580.324C324.936 589.218 344.743 594.722 372.728 596.224C394.602 597.406 421.678 595.996 445.211 592.493C452.321 591.424 457.045 581.734 459.226 563.697C462.315 538.107 459.862 508.355 457.5 479.581C456.364 465.865 455.319 452.923 454.842 440.685C454.819 440.23 455.069 439.821 455.478 439.639C455.887 439.457 456.364 439.525 456.705 439.821C483.667 464.114 533.231 497.983 559.33 491.728C574.141 488.179 579.819 473.394 581.977 461.589C589.269 421.851 583.385 387.823 575.231 340.693C573.164 328.751 571.029 316.4 568.916 302.866C567.19 303.253 565.486 303.639 563.805 304.003C551.062 306.892 540 309.417 526.667 306.255C527.189 313.739 527.689 320.653 528.166 327.136C530.846 363.962 532.482 386.208 530.619 413.367C530.596 413.754 530.369 414.118 530.006 414.299C529.642 414.481 529.233 414.459 528.893 414.231C520.851 409.068 513.424 403.973 506.246 399.037C483.826 383.66 464.451 370.377 436.148 360.618C410.071 351.611 321.847 360.232 306.401 364.053C282.8 369.899 259.971 391.804 238.551 429.13C225.876 451.217 214.224 477.739 203.934 507.946C194.871 534.559 196.143 554.393 207.75 566.904C228.398 589.15 277.189 584.327 310.626 577.663C309.513 575.343 309.672 573.364 310.126 571.908C311.534 567.495 317.099 564.174 324.618 563.196C333.658 562.036 346.719 564.629 353.784 575.775C353.943 576.025 353.988 576.343 353.92 576.639C353.852 576.935 353.647 577.185 353.398 577.344C348.468 580.165 343.903 577.049 340.246 574.524C338.179 573.113 336.225 571.749 335.044 572.113C334.453 572.295 333.886 573 333.409 574.183C333.272 574.501 333 574.751 332.659 574.842C327.662 576.207 321.392 577.731 314.328 579.209ZM328.707 565.221C327.389 565.221 326.117 565.312 324.913 565.448C318.349 566.29 313.397 569.11 312.261 572.613C311.739 574.228 312.125 575.82 312.92 577.208C320.075 575.729 326.458 574.183 331.591 572.863C332.318 571.294 333.25 570.361 334.408 569.997C336.611 569.315 338.883 570.884 341.518 572.704C344.652 574.842 347.855 577.071 351.194 575.934C345.538 567.973 336.316 565.221 328.707 565.221Z" fill="black"/>
<path d="M374.409 400.174C380.519 427.583 386.289 455.129 391.718 482.766C392.626 487.451 393.558 492.228 393.239 497.027C392.785 503.783 389.969 509.834 387.197 515.611C383.813 522.685 380.451 529.736 375.863 536.765C369.957 524.027 364.619 510.88 360.053 497.505C357.941 466.82 367.322 436.727 367.481 405.952C367.481 404.041 367.481 402.039 368.208 400.379C368.935 398.718 370.684 397.604 374.409 400.174Z" fill="white"/>
<path d="M375.863 537.88C375.84 537.88 375.817 537.88 375.772 537.88C375.363 537.857 374.999 537.607 374.84 537.243C368.844 524.323 363.506 511.085 358.985 497.869C358.963 497.778 358.94 497.687 358.917 497.573C357.736 480.445 360.144 463.272 362.484 446.667C364.346 433.361 366.277 419.577 366.345 405.929V405.792C366.345 403.814 366.368 401.744 367.163 399.924C367.685 398.764 368.503 397.99 369.571 397.672C371.047 397.263 372.887 397.786 375.022 399.242C375.249 399.401 375.408 399.651 375.476 399.924C381.564 427.242 387.402 455.015 392.808 482.538C393.694 486.996 394.67 492.069 394.352 497.096C393.875 504.193 390.854 510.516 388.197 516.089C384.858 523.072 381.405 530.282 376.794 537.379C376.589 537.698 376.226 537.88 375.863 537.88ZM361.143 497.278C365.414 509.743 370.411 522.23 376.022 534.445C380.042 528.031 383.154 521.48 386.198 515.133C388.765 509.743 391.695 503.624 392.126 496.959C392.444 492.228 391.468 487.315 390.627 482.993C385.267 455.652 379.474 428.015 373.409 400.879C372.046 400.015 370.933 399.651 370.207 399.856C370.048 399.901 369.593 400.038 369.23 400.856C368.617 402.267 368.594 404.086 368.594 405.838V405.974C368.526 419.781 366.572 433.611 364.71 447.009C362.393 463.431 360.008 480.423 361.143 497.278Z" fill="black"/>
<path d="M365.55 381.272C367.663 379.384 370.729 379.225 373.273 379.998C377.021 381.136 380.292 382.955 381.337 386.754C381.61 387.732 380.11 392.031 379.293 393.6C378.316 395.466 375.681 398.991 373.16 399.446C371.002 399.833 368.866 398.741 367.095 397.467C363.892 395.124 361.098 391.462 361.666 387.527C362.007 385.184 363.46 383.137 365.55 381.272Z" fill="white"/>
<path d="M372.251 400.652C370.456 400.652 368.548 399.901 366.459 398.354C362.234 395.261 360.03 391.167 360.575 387.368C360.916 384.934 362.302 382.66 364.823 380.43C367.004 378.474 370.297 377.928 373.614 378.929C376.771 379.884 381.11 381.704 382.427 386.458C382.881 388.073 380.86 393.032 380.292 394.146C379.451 395.739 376.589 399.969 373.364 400.561C373 400.629 372.637 400.652 372.251 400.652ZM366.3 382.114C364.21 383.979 363.051 385.821 362.779 387.686C362.143 392.076 366.436 395.579 367.753 396.557C369.775 398.036 371.479 398.627 372.955 398.354C374.909 397.99 377.294 395.011 378.293 393.1C379.156 391.462 380.337 387.777 380.247 387.027C379.474 384.229 377.203 382.387 372.932 381.09C370.979 380.476 368.185 380.43 366.3 382.114Z" fill="black"/>
<path d="M392.967 306.551C392.036 325.294 392.717 344.128 395.011 362.78C395.193 364.326 395.397 365.964 394.829 367.42C394.262 368.921 392.967 370.013 391.672 370.968C382.813 377.633 371.456 381.386 360.53 379.634C349.604 377.883 339.451 370.058 337.293 358.299C340.291 342.672 345.72 320.767 349.127 295.837C362.779 300.341 376.862 303.389 392.967 306.551Z" fill="white"/>
<path d="M365.982 381.181C364.096 381.181 362.211 381.045 360.371 380.749C347.991 378.77 338.292 369.831 336.202 358.503C336.18 358.367 336.18 358.23 336.202 358.094C337.088 353.522 338.179 348.358 339.337 342.899C342.131 329.729 345.629 313.329 348.037 295.701C348.082 295.382 348.264 295.087 348.559 294.905C348.832 294.723 349.195 294.677 349.491 294.791C362.529 299.09 375.885 302.07 393.194 305.459C393.739 305.573 394.125 306.05 394.103 306.619C393.171 325.271 393.853 344.128 396.147 362.643C396.351 364.258 396.578 366.1 395.897 367.829C395.238 369.558 393.807 370.809 392.376 371.878C384.312 377.906 374.954 381.181 365.982 381.181ZM338.451 358.298C340.745 370.172 351.262 377.019 360.734 378.52C370.729 380.112 381.768 377.019 391.036 370.058C392.126 369.239 393.33 368.261 393.807 366.987C394.284 365.782 394.102 364.303 393.921 362.893C391.649 344.56 390.945 325.908 391.808 307.438C375.431 304.208 362.574 301.342 350.058 297.293C347.651 314.489 344.266 330.457 341.518 343.331C340.382 348.722 339.314 353.817 338.451 358.298Z" fill="black"/>
<path d="M326.662 388.573C326.299 388.573 325.935 388.391 325.731 388.073C323.051 383.956 320.507 379.702 318.19 375.381C317.894 374.835 318.099 374.152 318.644 373.857C319.189 373.561 319.871 373.766 320.166 374.312C322.46 378.565 324.981 382.796 327.616 386.845C327.957 387.368 327.798 388.05 327.298 388.391C327.071 388.505 326.867 388.573 326.662 388.573Z" fill="black"/>
<path d="M314.669 385.457C314.26 385.457 313.851 385.23 313.669 384.82L310.012 377.178C309.74 376.632 309.99 375.949 310.535 375.676C311.08 375.403 311.761 375.654 312.034 376.2L315.691 383.842C315.963 384.388 315.714 385.071 315.168 385.344C314.987 385.412 314.828 385.457 314.669 385.457Z" fill="black"/>
<path d="M366.391 379.884C361.575 387.368 356.782 394.829 350.876 402.585C341.336 387.755 331.66 372.424 326.322 355.614C329.592 353.681 336.543 348.017 339.814 346.106C339.178 349.859 337.475 353.362 338.065 354.454C338.451 355.159 357.032 372.674 366.391 379.884Z" fill="white"/>
<path d="M350.876 403.7C350.854 403.7 350.853 403.7 350.831 403.7C350.467 403.677 350.127 403.495 349.945 403.177C340.973 389.233 330.819 373.425 325.277 355.933C325.118 355.432 325.322 354.886 325.776 354.636C327.366 353.704 329.933 351.793 332.432 349.95C335.089 347.972 337.588 346.129 339.269 345.128C339.632 344.901 340.109 344.924 340.473 345.174C340.836 345.424 341.018 345.856 340.95 346.288C340.677 347.926 340.223 349.473 339.814 350.838C339.496 351.929 339.042 353.408 339.11 353.908C340.655 355.614 358.145 372.082 367.117 378.997C367.572 379.361 367.685 379.998 367.367 380.499C362.62 387.868 357.736 395.488 351.808 403.29C351.558 403.541 351.217 403.7 350.876 403.7ZM327.662 356.115C333 372.424 342.426 387.368 350.967 400.629C356.191 393.646 360.644 386.777 364.914 380.135C355.942 373.061 337.724 356.16 337.088 355C336.52 353.954 336.952 352.453 337.633 350.201C337.792 349.678 337.951 349.132 338.11 348.563C336.793 349.496 335.248 350.633 333.749 351.747C331.546 353.385 329.297 355.046 327.662 356.115Z" fill="black"/>
<path d="M295.043 221.207C298.496 235.378 302.017 248.025 308.536 266.336C311.648 275.047 316.531 284.555 321.96 292.266C324.504 295.883 326.412 297.589 331.046 299.272C330.955 295.382 334.794 293.108 335.09 289.195C335.43 284.396 332.023 280.506 334.499 276.048C339.201 267.587 342.108 258.511 343.062 249.367C343.835 241.861 343.199 234.104 339.11 227.599C335.021 221.093 327.003 216.112 317.962 216.294C311.103 216.453 300.018 216.408 295.043 221.207Z" fill="#FF7050"/>
<path d="M331.069 300.387C330.933 300.387 330.819 300.364 330.683 300.318C325.64 298.476 323.641 296.542 321.074 292.903C315.646 285.192 310.694 275.639 307.514 266.699C300.926 248.275 297.451 235.719 293.976 221.48C293.885 221.093 293.998 220.684 294.294 220.411C299.336 215.543 309.899 215.361 316.895 215.225L317.985 215.202C326.799 215.043 335.476 219.66 340.087 227.03C343.789 232.944 345.129 240.291 344.198 249.503C343.244 258.852 340.314 267.973 335.498 276.617C334.226 278.891 334.794 281.052 335.43 283.532C335.907 285.329 336.384 287.194 336.225 289.286C336.066 291.447 334.976 293.153 333.999 294.677C333 296.224 332.137 297.589 332.182 299.249C332.182 299.613 332.023 299.977 331.728 300.182C331.523 300.296 331.296 300.387 331.069 300.387ZM296.293 221.594C299.7 235.514 303.152 247.888 309.603 265.949C312.738 274.706 317.576 284.055 322.892 291.606C324.981 294.563 326.571 296.201 330.092 297.68C330.433 296.087 331.273 294.745 332.114 293.449C333.022 292.039 333.863 290.697 333.976 289.104C334.09 287.376 333.658 285.692 333.25 284.077C332.545 281.371 331.819 278.573 333.522 275.502C338.179 267.132 341.018 258.283 341.949 249.253C342.835 240.564 341.609 233.672 338.179 228.19C333.976 221.48 326.049 217.204 318.008 217.408L316.918 217.431C310.489 217.568 300.904 217.75 296.293 221.594Z" fill="black"/>
<path d="M405.278 234.013C406.437 246.751 410.798 258.966 412.706 271.613C414.614 284.237 413.774 297.975 405.483 309.03C398.191 318.766 385.312 325.453 372.024 326.408C358.736 327.364 345.357 322.564 337.293 313.943C329.706 305.823 325.686 286.307 323.3 276.594C317.576 278.346 310.807 277.481 306.696 273.956C302.585 270.43 301.699 264.266 305.219 260.012C308.74 255.759 313.806 254.417 320.484 259.057C318.894 251.005 319.144 242.861 319.234 239.131C319.484 228.986 317.554 214.292 323.823 209.061C327.366 206.104 335.294 202.828 339.723 200.963C347.378 197.733 359.167 201.168 367.481 199.939C375.794 198.711 384.88 201.441 392.195 204.625C400.94 208.424 404.415 224.482 405.278 234.013Z" fill="white"/>
<path d="M368.662 327.659C356.192 327.659 344.107 322.86 336.475 314.717C329.456 307.211 325.572 290.924 323.005 280.143C322.823 279.392 322.642 278.664 322.483 277.982C316.486 279.46 309.967 278.232 305.969 274.797C301.244 270.748 300.517 263.947 304.356 259.284C308.195 254.621 313.329 253.78 318.962 256.782C317.872 249.64 318.031 242.793 318.121 239.313V239.063C318.167 236.97 318.121 234.718 318.099 232.33C317.94 223.095 317.735 212.655 323.119 208.174C326.662 205.216 334.249 202.032 338.792 200.121L339.292 199.917C344.062 197.915 350.172 198.347 356.101 198.757C360.167 199.052 364.028 199.303 367.322 198.825C374.432 197.779 382.95 199.371 392.649 203.602C403.529 208.333 406.028 229.691 406.414 233.922C407.073 241.019 408.754 248.139 410.412 255.008C411.684 260.376 413.001 265.903 413.842 271.453C416.204 287.103 413.706 299.977 406.414 309.713C398.918 319.721 385.789 326.545 372.137 327.523C370.956 327.614 369.798 327.659 368.662 327.659ZM323.3 275.457C323.482 275.457 323.687 275.502 323.846 275.593C324.118 275.753 324.3 276.003 324.368 276.298C324.618 277.299 324.868 278.414 325.163 279.597C327.525 289.514 331.478 306.096 338.088 313.17C345.97 321.586 358.94 326.226 371.933 325.294C384.949 324.361 397.464 317.878 404.574 308.371C411.502 299.136 413.842 286.83 411.593 271.772C410.775 266.313 409.458 260.831 408.186 255.508C406.528 248.571 404.824 241.383 404.143 234.104C403.12 223.027 399.259 208.924 391.718 205.626C382.405 201.577 374.295 200.03 367.617 201.031C364.096 201.554 359.94 201.259 355.919 200.986C350.263 200.599 344.403 200.167 340.132 201.987L339.632 202.191C335.203 204.056 327.821 207.173 324.527 209.902C319.984 213.701 320.166 223.573 320.325 232.307C320.37 234.718 320.416 237.016 320.348 239.131V239.381C320.257 243.18 320.052 251.05 321.574 258.807C321.665 259.261 321.461 259.716 321.097 259.967C320.711 260.217 320.234 260.217 319.848 259.944C314.305 256.1 309.672 256.35 306.083 260.695C303.039 264.402 303.629 269.838 307.423 273.068C311.125 276.23 317.372 277.208 322.982 275.502C323.073 275.48 323.187 275.457 323.3 275.457Z" fill="black"/>
<path d="M363.937 218.841C365.686 224.369 375.113 231.534 380.633 231.602C386.152 231.67 387.992 228.963 389.741 223.482C394.988 227.371 399.032 231.466 404.165 232.921C412.002 235.128 420.974 229.532 422.769 221.298C424.563 213.064 418.862 203.761 410.912 201.986C416.204 202.76 420.929 197.05 420.52 191.478C420.134 185.905 415.795 181.196 410.775 179.172C405.778 177.148 400.236 177.352 394.784 177.057C396.329 171.484 393.194 165.206 388.401 162.135C383.631 159.064 377.634 158.769 372.183 159.929C368.617 160.702 365.05 162.112 362.415 164.728C359.78 167.344 358.168 171.302 358.69 175.373C353.329 169.71 345.22 166.32 338.042 168.731C330.864 171.143 326.14 180.605 326.14 186.837C322.187 182.766 317.213 179.581 311.739 180.355C300.904 181.902 299.268 191.409 305.219 202.919C299.177 200.576 290.75 203.829 288.751 212.541C287.252 219.023 290.455 228.827 295.248 233.353C300.063 237.88 315.827 240.723 325.935 232.034C331.546 227.212 333.863 221.093 335.112 215.452C338.792 220.661 341.45 224.232 349.672 226.166C355.737 227.53 362.461 224.596 363.937 218.841Z" fill="#FF7050"/>
<path d="M309.717 238.767C303.152 238.767 297.224 236.674 294.543 234.15C289.342 229.259 286.162 219.023 287.729 212.268C288.706 207.991 291.272 204.58 294.907 202.646C297.496 201.281 300.472 200.781 303.243 201.213C300.427 194.89 299.995 189.271 302.062 185.268C303.743 181.97 307.082 179.877 311.67 179.218C316.191 178.558 320.756 180.309 325.299 184.358C326.299 177.694 331.137 169.869 337.77 167.64C344.084 165.524 351.626 167.503 357.6 172.689C357.872 169.437 359.326 166.275 361.711 163.932C364.187 161.498 367.662 159.77 372.024 158.837C378.497 157.449 384.54 158.291 389.06 161.18C394.103 164.41 397.01 170.574 396.192 175.988C396.76 176.01 397.328 176.033 397.896 176.056C402.348 176.215 406.982 176.397 411.23 178.126C417.09 180.491 421.27 185.814 421.656 191.387C421.883 194.753 420.452 198.302 417.908 200.667C417.067 201.441 416.159 202.055 415.205 202.464C421.542 206.058 425.472 214.11 423.859 221.525C422.905 225.847 420.066 229.714 416.068 232.125C412.252 234.423 407.8 235.105 403.87 233.99C399.804 232.83 396.397 230.124 392.785 227.258C391.99 226.621 391.172 225.961 390.309 225.324C388.537 230.192 386.266 232.808 380.633 232.739C375.363 232.671 367.299 227.03 364.028 221.639C361.439 226.188 355.487 228.645 349.513 227.235C341.881 225.461 338.724 222.208 335.703 218.068C334.453 222.595 332.091 228.281 326.753 232.876C321.71 237.152 315.464 238.767 309.717 238.767ZM301.244 203.283C299.45 203.283 297.587 203.738 295.929 204.625C292.863 206.24 290.727 209.152 289.887 212.768C288.501 218.75 291.454 228.167 296.065 232.512C300.699 236.879 315.85 239.268 325.254 231.147C331.092 226.12 333.091 219.615 334.067 215.157C334.158 214.724 334.499 214.383 334.93 214.292C335.362 214.201 335.816 214.383 336.066 214.747C339.496 219.615 341.995 223.14 349.968 225.006C355.078 226.188 361.461 223.868 362.824 218.523C362.938 218.045 363.369 217.704 363.869 217.681C364.369 217.636 364.823 217.977 364.959 218.455C366.572 223.527 375.499 230.374 380.61 230.442C385.494 230.487 386.97 228.327 388.628 223.095C388.742 222.754 389.014 222.481 389.355 222.367C389.696 222.253 390.082 222.322 390.355 222.526C391.672 223.504 392.921 224.482 394.103 225.438C397.669 228.281 400.758 230.738 404.415 231.761C407.754 232.717 411.57 232.125 414.864 230.146C418.339 228.054 420.815 224.71 421.633 220.98C423.291 213.36 417.953 204.625 410.639 203.01C410.048 202.874 409.662 202.305 409.776 201.714C409.889 201.122 410.435 200.713 411.048 200.804C412.888 201.077 414.773 200.417 416.363 198.938C418.43 197.028 419.589 194.162 419.384 191.455C418.998 185.996 414.569 181.833 410.344 180.127C406.437 178.558 402.235 178.399 397.76 178.217C396.738 178.171 395.715 178.148 394.716 178.08C394.375 178.057 394.057 177.898 393.875 177.625C393.671 177.352 393.626 177.011 393.716 176.67C395.034 171.871 392.513 166.002 387.811 162.999C383.79 160.429 378.316 159.701 372.433 160.952C368.48 161.794 365.391 163.318 363.21 165.456C360.666 167.958 359.372 171.689 359.803 175.146C359.871 175.624 359.621 176.101 359.167 176.306C358.736 176.511 358.213 176.42 357.872 176.056C352.239 170.119 344.607 167.617 338.383 169.71C331.478 172.03 327.253 181.196 327.253 186.747C327.253 187.201 326.98 187.611 326.549 187.793C326.117 187.975 325.64 187.861 325.322 187.543C320.756 182.834 316.236 180.764 311.875 181.378C307.968 181.947 305.31 183.562 303.947 186.223C301.994 190.022 302.789 195.731 306.196 202.328C306.401 202.737 306.355 203.238 306.037 203.579C305.719 203.92 305.242 204.034 304.811 203.874C303.743 203.51 302.516 203.283 301.244 203.283Z" fill="black"/>
<path d="M395.148 253.484C395.193 251.892 393.876 250.595 392.195 250.55C390.514 250.504 389.151 251.755 389.105 253.347C389.06 254.94 390.377 256.236 392.058 256.282C393.739 256.327 395.102 255.076 395.148 253.484Z" fill="black"/>
<path d="M353.488 259.466C353.534 257.874 352.216 256.577 350.535 256.532C348.877 256.486 347.492 257.738 347.446 259.33C347.401 260.922 348.718 262.219 350.399 262.264C352.057 262.287 353.443 261.036 353.488 259.466Z" fill="black"/>
<path d="M368.912 307.734C364.823 307.734 360.712 306.164 357.759 303.275C357.327 302.843 357.305 302.138 357.736 301.683C358.168 301.251 358.872 301.228 359.326 301.66C362.961 305.209 368.594 306.437 373.387 304.708C373.977 304.504 374.613 304.799 374.818 305.391C375.022 305.982 374.727 306.619 374.136 306.824C372.455 307.438 370.684 307.734 368.912 307.734Z" fill="black"/>
<path d="M374.772 291.333C374.477 291.333 374.182 291.334 373.909 291.311C370.706 291.106 367.822 289.696 366.027 287.467C365.641 286.989 365.709 286.284 366.186 285.897C366.663 285.51 367.367 285.579 367.753 286.056C369.139 287.785 371.501 288.9 374.045 289.082C376.294 289.218 378.747 288.695 381.36 287.489C382.246 287.08 383.222 286.557 383.79 285.761C384.494 284.805 384.631 283.304 384.154 281.803C383.767 280.506 383.041 279.323 382.268 278.072L381.905 277.481C377.475 270.111 374.75 261.672 374.023 253.097C373.977 252.483 374.432 251.937 375.045 251.892C375.658 251.846 376.203 252.301 376.249 252.915C376.93 261.149 379.542 269.247 383.813 276.321L384.176 276.912C384.971 278.232 385.812 279.596 386.289 281.143C386.97 283.372 386.72 285.533 385.585 287.08C384.721 288.285 383.427 288.991 382.291 289.514C379.656 290.719 377.135 291.333 374.772 291.333Z" fill="black"/>
<path d="M322.096 266.813C321.597 266.813 321.142 266.472 321.006 265.972C320.279 263.219 319.939 261.718 319.325 259.011C319.189 258.397 319.575 257.806 320.166 257.669C320.756 257.533 321.37 257.92 321.506 258.511C322.119 261.195 322.437 262.673 323.164 265.403C323.323 265.994 322.96 266.609 322.369 266.768C322.278 266.813 322.187 266.813 322.096 266.813Z" fill="black"/>
<path d="M310.239 232.853C310.148 232.853 310.058 232.853 309.967 232.83C303.993 231.352 299.245 225.802 298.655 219.66C298.587 219.046 299.041 218.5 299.654 218.432C300.267 218.364 300.813 218.819 300.881 219.433C301.381 224.665 305.424 229.373 310.512 230.624C311.102 230.783 311.466 231.375 311.33 231.989C311.216 232.512 310.762 232.853 310.239 232.853Z" fill="black"/>
<g opacity="0.1294">
<path d="M404.461 231.761C401.735 230.146 398.964 228.622 396.351 226.802C394.625 225.893 393.171 224.073 391.218 223.732C388.56 223.277 386.925 225.847 387.402 228.008C386.97 228.326 386.493 228.577 385.971 228.736C385.925 228.804 385.857 228.895 385.812 228.963C385.766 229.032 385.721 229.077 385.675 229.123C385.494 229.305 385.335 229.464 385.13 229.623C385.062 229.691 384.971 229.737 384.88 229.805C384.699 229.896 384.494 229.987 384.335 230.055C383.699 230.237 383.063 230.374 382.427 230.419C382.404 230.419 382.404 230.419 382.382 230.419C379.588 230.419 376.271 229.054 374.591 228.167C374.522 228.122 374.454 228.099 374.386 228.054C374.25 227.963 373.432 227.485 373.137 227.28C371.592 226.257 370.048 225.233 368.617 224.05C368.276 223.732 367.935 223.391 367.617 223.027C367.322 221.821 366.322 220.684 365.028 220.797C363.71 220.752 362.597 222.185 362.892 223.459C362.938 223.641 362.983 223.8 363.051 223.959C363.051 224.005 363.051 224.027 363.029 224.073C363.006 224.164 362.983 224.209 362.983 224.232C362.892 224.278 362.802 224.323 362.711 224.391C362.302 224.391 361.893 224.505 361.552 224.755C361.371 224.846 361.189 224.96 361.098 225.028C359.917 225.642 358.531 226.234 357.577 226.552C357.1 226.052 356.419 225.733 355.578 225.756C352.057 225.529 350.922 225.278 346.674 223.686C345.084 223.231 345.493 222.845 342.813 222.299C342.086 222.299 341.472 222.549 341.018 222.913C340.768 222.64 340.496 222.367 340.268 222.094C339.837 221.525 339.655 221.275 339.542 221.116C338.633 220.479 337.77 219.819 336.907 219.114C335.907 219.251 334.999 220.024 335.112 221.207C335.067 221.73 335.385 222.162 335.657 222.594C336.112 223.322 336.589 224.027 337.111 224.71C336.929 224.46 336.702 224.027 336.975 224.528C338.224 226.416 339.928 227.963 341.722 229.305C344.63 231.397 347.991 232.785 351.467 233.626C353.852 234.195 356.305 234.582 358.736 234.286C358.917 234.263 359.122 234.24 359.303 234.195C359.235 234.195 359.145 234.195 359.054 234.195C360.984 234.013 362.847 233.103 364.278 231.807C365.3 230.829 366.118 229.623 366.709 228.349C368.344 229.85 370.161 231.147 372.047 232.284C373.955 233.331 375.272 234.218 378.52 235.059C381.882 235.969 385.812 235.787 388.56 233.422C389.264 232.739 389.855 231.966 390.4 231.17C392.535 232.716 394.693 234.24 396.919 235.651C398.85 236.743 400.826 238.085 403.052 238.358C406.914 238.312 407.754 233.467 404.461 231.761Z" fill="black"/>
</g>
<g opacity="0.1294">
<path d="M298.836 238.995C299.382 237.425 301.063 237.675 302.403 237.789C304.379 237.948 306.355 237.812 308.309 237.926C309.762 238.017 311.216 238.176 312.67 238.108C312.647 238.108 312.647 238.108 312.624 238.108C313.079 238.085 313.442 238.085 312.624 238.108C313.397 238.108 314.192 237.948 314.964 237.994C315.078 237.607 315.282 237.266 315.6 236.993C317.031 235.674 319.507 236.948 319.28 238.881C319.121 240.359 318.939 241.815 318.962 243.294C319.257 245.432 319.598 248.821 316.554 248.707C315.941 248.662 315.441 248.343 314.987 247.934C315.078 248.093 313.533 247.092 313.147 246.933C311.534 246.023 308.513 244.704 305.537 243.407C303.993 242.771 302.448 242.202 300.858 241.701C300.745 241.679 300.608 241.633 300.495 241.611C300.381 241.588 300.222 241.542 300.063 241.52C299.064 241.224 298.473 240.018 298.836 238.995Z" fill="black"/>
</g>
<g opacity="0.1294">
<path d="M345.902 321.722C347.787 322.814 349.809 323.656 351.921 324.293C352.012 324.338 352.103 324.384 352.194 324.452C352.216 324.429 352.239 324.429 352.262 324.406C356.623 325.68 361.302 326.181 365.732 326.499C366.595 326.59 367.481 326.681 368.344 326.727C368.344 326.727 369.275 326.772 370.229 326.772C371.865 326.772 380.383 324.884 391.74 321.177C391.763 322.064 391.854 325.748 391.877 326.613C392.149 336.507 392.263 341.489 392.422 342.103C393.035 344.673 393.875 346.539 392.967 348.745C392.331 350.292 391.172 351.27 390.264 351.861C389.628 351.634 389.037 351.156 388.469 350.86C385.312 349.359 382.109 347.79 378.884 346.106C366.618 339.76 355.556 332.982 345.629 326.135C343.494 325.271 343.925 322.223 345.902 321.722Z" fill="black"/>
</g>
<g opacity="0.1294">
<path d="M371.024 400.015C371.706 399.287 372.433 398.514 373.296 398.309C375.749 397.626 377.294 401.061 375.227 402.517C373.705 403.836 372.864 404.564 372.455 405.11C371.933 405.77 371.479 406.634 370.547 406.748C369.116 407.18 367.685 405.838 367.731 404.405C367.39 402.38 367.64 402.062 367.163 400.993C366.322 398.195 370.32 397.24 371.024 400.015Z" fill="black"/>
</g>
<g opacity="0.1294">
<path d="M351.648 400.834C352.148 399.81 353.284 399.173 353.965 398.263C355.624 396.444 357.418 394.055 357.85 393.191C358.236 392.554 358.622 391.94 358.94 391.28C359.213 390.598 359.599 389.87 360.348 389.62C362.006 388.915 363.778 390.803 362.983 392.418C362.801 392.781 362.597 393.145 362.393 393.509C362.574 393.418 362.733 393.327 362.938 393.305C365.118 392.713 366.504 395.738 364.664 397.058C362.461 398.582 360.326 400.219 358.213 401.857C356.146 403.29 354.556 404.268 353.42 404.655C351.194 405.292 349.786 402.198 351.648 400.834Z" fill="black"/>
</g>
<g opacity="0.1294">
<path d="M379.406 392.076C379.86 391.03 380.224 389.938 380.746 388.915C380.996 388.392 381.087 387.732 381.587 387.368C382.722 386.231 384.381 386.822 384.994 388.005C385.062 388.005 385.13 388.005 385.198 388.028C386.107 388.164 386.72 388.915 387.379 389.461C388.492 390.439 388.401 390.689 388.583 391.03C388.583 391.053 388.606 391.053 388.606 391.076C388.787 391.326 388.924 391.576 389.014 391.849C389.946 392.099 390.854 392.395 391.763 392.713C393.126 393.236 394.761 393.441 395.874 394.442C397.464 396.012 395.534 398.673 393.512 397.74C392.013 397.103 390.309 396.739 387.629 395.943C386.107 395.557 384.517 395.534 382.972 395.329C382.563 395.261 382.245 395.124 381.95 394.942C380.405 395.488 378.588 393.873 379.406 392.076Z" fill="black"/>
</g>
<path d="M393.353 345.333C390.014 356.592 382.018 372.537 372.978 379.27C378.679 383.342 385.971 389.916 397.782 397.035C399.736 377.2 402.848 367.533 403.688 352.089C400.962 350.474 396.692 346.925 393.353 345.333Z" fill="white"/>
<path d="M397.782 398.15C397.578 398.15 397.374 398.104 397.215 397.99C388.81 392.941 382.722 388.187 377.816 384.365C375.749 382.751 373.977 381.363 372.319 380.18C372.024 379.975 371.865 379.634 371.842 379.27C371.842 378.906 372.001 378.565 372.296 378.36C380.792 372.037 388.787 356.797 392.285 344.992C392.376 344.673 392.603 344.423 392.899 344.287C393.194 344.15 393.535 344.15 393.83 344.287C395.988 345.31 398.487 347.084 400.69 348.654C402.007 349.609 403.279 350.496 404.279 351.088C404.642 351.293 404.847 351.702 404.824 352.111C404.37 360.391 403.302 366.874 402.053 374.38C401.008 380.703 399.827 387.846 398.918 397.103C398.873 397.49 398.646 397.831 398.305 397.99C398.123 398.127 397.964 398.15 397.782 398.15ZM374.818 379.248C376.158 380.248 377.589 381.363 379.202 382.614C383.745 386.162 389.355 390.53 396.874 395.17C397.76 386.708 398.873 380.021 399.849 374.061C401.053 366.828 402.098 360.55 402.553 352.703C401.599 352.089 400.531 351.338 399.395 350.519C397.669 349.291 395.761 347.926 394.034 346.948C390.423 358.344 382.95 372.424 374.818 379.248Z" fill="black"/>
<path d="M365.437 390.484C365.346 390.484 365.255 390.461 365.187 390.393C365.028 390.257 365.028 390.029 365.164 389.87C367.117 387.686 368.98 385.344 370.661 382.932C370.775 382.773 371.002 382.728 371.183 382.841C371.342 382.955 371.388 383.183 371.274 383.365C369.571 385.798 367.708 388.164 365.732 390.37C365.641 390.439 365.55 390.484 365.437 390.484Z" fill="black"/>
<path d="M368.162 393.76C368.072 393.76 367.958 393.714 367.89 393.646C367.754 393.487 367.754 393.259 367.913 393.123C370.525 390.757 372.705 388.005 374.386 384.889C374.477 384.707 374.704 384.638 374.886 384.729C375.068 384.82 375.136 385.048 375.045 385.23C373.319 388.414 371.093 391.235 368.412 393.646C368.344 393.714 368.253 393.76 368.162 393.76Z" fill="black"/>
<path d="M372.455 395.557C372.365 395.557 372.251 395.511 372.183 395.443C372.047 395.284 372.046 395.056 372.206 394.92C373.682 393.555 374.999 392.008 376.09 390.302C376.203 390.12 376.43 390.075 376.612 390.188C376.794 390.302 376.839 390.53 376.726 390.712C375.59 392.463 374.25 394.055 372.705 395.466C372.637 395.534 372.546 395.557 372.455 395.557Z" fill="black"/>
<path d="M369.73 411.456C369.661 411.456 369.571 411.433 369.502 411.388C369.343 411.274 369.298 411.024 369.434 410.865C370.593 409.318 371.819 407.794 373.069 406.338C373.205 406.179 373.432 406.156 373.591 406.293C373.75 406.429 373.773 406.657 373.636 406.816C372.387 408.272 371.183 409.796 370.025 411.32C369.934 411.411 369.82 411.456 369.73 411.456Z" fill="black"/>
<path d="M369.412 419.668C369.344 419.668 369.253 419.645 369.184 419.599C369.025 419.486 368.98 419.235 369.116 419.076L373.546 413.117C373.659 412.957 373.909 412.912 374.068 413.048C374.227 413.162 374.273 413.412 374.136 413.572L369.707 419.531C369.639 419.622 369.525 419.668 369.412 419.668Z" fill="black"/>
<path d="M368.957 429.039C368.889 429.039 368.844 429.016 368.776 428.994C368.594 428.903 368.526 428.675 368.639 428.493C370.593 425.013 372.728 421.578 374.954 418.28C375.068 418.121 375.295 418.075 375.476 418.189C375.635 418.303 375.681 418.53 375.567 418.712C373.341 421.988 371.229 425.4 369.275 428.857C369.23 428.971 369.094 429.039 368.957 429.039Z" fill="black"/>
<path d="M367.39 441.367C367.322 441.367 367.277 441.345 367.208 441.322C367.027 441.231 366.958 441.003 367.049 440.822C369.934 435.499 373.001 430.176 376.158 425.013C376.272 424.831 376.499 424.785 376.68 424.899C376.862 425.013 376.908 425.24 376.794 425.422C373.637 430.563 370.57 435.886 367.708 441.208C367.663 441.299 367.526 441.367 367.39 441.367Z" fill="black"/>
<path d="M366.345 453.468C366.3 453.468 366.232 453.446 366.186 453.423C366.004 453.332 365.936 453.104 366.027 452.922C369.593 445.917 373.546 439.002 377.771 432.36C377.884 432.178 378.111 432.132 378.293 432.246C378.475 432.36 378.52 432.587 378.407 432.769C374.204 439.389 370.252 446.281 366.709 453.264C366.595 453.4 366.481 453.468 366.345 453.468Z" fill="black"/>
<path d="M364.71 465.569C364.641 465.569 364.573 465.547 364.528 465.524C364.346 465.41 364.301 465.183 364.392 465.024L378.861 440.822C378.975 440.64 379.202 440.594 379.361 440.685C379.542 440.799 379.588 441.026 379.497 441.186L365.028 465.388C364.959 465.501 364.846 465.569 364.71 465.569Z" fill="black"/>
<path d="M363.96 476.51C363.892 476.51 363.824 476.488 363.756 476.442C363.596 476.328 363.551 476.101 363.665 475.919C369.593 467.23 375.317 458.222 380.633 449.147C380.746 448.965 380.973 448.919 381.132 449.01C381.314 449.124 381.36 449.351 381.269 449.511C375.931 458.609 370.229 467.617 364.278 476.328C364.187 476.442 364.074 476.51 363.96 476.51Z" fill="black"/>
<path d="M363.71 487.201C363.642 487.201 363.574 487.178 363.506 487.133C363.347 487.019 363.301 486.792 363.415 486.61C370.116 476.92 376.59 466.889 382.654 456.812C382.768 456.63 382.995 456.585 383.177 456.676C383.359 456.789 383.404 457.017 383.313 457.176C377.226 467.275 370.752 477.306 364.051 487.019C363.937 487.156 363.824 487.201 363.71 487.201Z" fill="black"/>
<path d="M363.71 497.642C363.642 497.642 363.551 497.619 363.483 497.573C363.324 497.46 363.279 497.209 363.415 497.05C370.775 487.156 377.566 476.67 383.631 465.911C383.722 465.729 383.949 465.66 384.131 465.774C384.313 465.865 384.381 466.093 384.267 466.275C378.202 477.056 371.388 487.565 364.006 497.482C363.937 497.596 363.824 497.642 363.71 497.642Z" fill="black"/>
<path d="M366.89 505.535C366.822 505.535 366.754 505.512 366.686 505.466C366.527 505.353 366.482 505.125 366.595 504.943L385.63 477.17C385.744 477.011 385.971 476.965 386.153 477.079C386.312 477.193 386.357 477.42 386.243 477.602L367.208 505.375C367.14 505.489 367.027 505.535 366.89 505.535Z" fill="black"/>
<path d="M370.07 513.359C370.002 513.359 369.934 513.337 369.866 513.291C369.684 513.177 369.639 512.95 369.752 512.768C375.386 503.829 381.382 494.958 387.606 486.405C387.72 486.246 387.97 486.2 388.129 486.314C388.288 486.428 388.333 486.678 388.22 486.837C382.018 495.367 376.022 504.238 370.411 513.155C370.32 513.291 370.184 513.359 370.07 513.359Z" fill="black"/>
<path d="M373.023 519.273C372.955 519.273 372.864 519.25 372.796 519.205C372.637 519.091 372.592 518.841 372.728 518.682C378.248 511.289 383.745 503.692 389.014 496.118C389.128 495.958 389.355 495.913 389.537 496.027C389.696 496.14 389.741 496.368 389.628 496.55C384.335 504.124 378.861 511.721 373.319 519.137C373.25 519.228 373.137 519.273 373.023 519.273Z" fill="black"/>
<path d="M375.704 526.779C375.636 526.779 375.567 526.757 375.499 526.711C375.318 526.597 375.272 526.37 375.386 526.188L384.108 512.768C384.222 512.586 384.449 512.54 384.631 512.654C384.812 512.768 384.858 512.995 384.744 513.177L376.022 526.597C375.954 526.734 375.84 526.779 375.704 526.779Z" fill="black"/>
<path d="M561.852 303.799C561.329 303.799 560.875 303.435 560.762 302.911C560.421 301.228 560.353 299.499 560.557 297.794C560.625 297.179 561.193 296.747 561.806 296.815C562.42 296.884 562.851 297.452 562.783 298.066C562.601 299.545 562.67 301.023 562.965 302.479C563.078 303.093 562.692 303.685 562.102 303.799C562.011 303.799 561.943 303.799 561.852 303.799Z" fill="black"/>
<path d="M264.151 591.31L308.445 457.017L410.457 490.636L366.754 626.886L264.151 591.31Z" fill="#FF7050"/>
<path d="M366.754 628C366.64 628 366.504 627.977 366.391 627.932L263.788 592.357C263.22 592.152 262.902 591.538 263.083 590.947L307.377 456.653C307.582 456.062 308.195 455.743 308.786 455.948L410.798 489.567C411.389 489.749 411.707 490.386 411.502 490.977L367.776 627.25C367.685 627.545 367.481 627.773 367.208 627.909C367.095 627.977 366.913 628 366.754 628ZM265.559 590.605L366.027 625.453L409.049 491.341L309.149 458.427L265.559 590.605Z" fill="black"/>
<path d="M354.579 526.416C374.5 524.71 385.925 521.207 402.484 522.844C406.709 523.254 413.842 523.8 413.546 530.487C413.387 534.263 407.118 533.763 402.212 534.809C405.006 535.105 407.277 538.812 406.8 542.315C406.323 545.818 403.211 548.366 400.485 547.456C402.075 549.116 402.552 552.255 401.576 554.553C400.599 556.85 398.259 558.056 396.283 557.282C397.146 559.511 396.124 562.332 394.489 563.719C392.876 565.13 390.831 565.471 388.878 565.766C374.636 567.905 365.277 562.377 346.447 562.377C344.493 562.377 343.017 560.376 341.54 558.897C337.724 555.008 335.952 548.843 334.362 542.998C333.295 539.108 332.227 535.105 332.386 531.01C332.636 524.96 350.308 526.779 354.579 526.416Z" fill="white"/>
<path d="M382.245 567.381C377.225 567.381 372.614 566.585 367.526 565.698C361.643 564.675 354.965 563.515 346.469 563.515C344.334 563.515 342.812 561.877 341.472 560.444C341.245 560.194 340.995 559.943 340.768 559.693C336.634 555.485 334.794 548.73 333.318 543.293C332.295 539.54 331.137 535.309 331.296 530.965C331.5 525.096 342.903 525.233 350.445 525.324C352.148 525.346 353.647 525.369 354.465 525.301C361.121 524.732 366.708 523.982 372.115 523.254C382.495 521.844 391.445 520.638 402.575 521.73L402.848 521.753C407.095 522.162 414.977 522.935 414.637 530.533C414.478 534.286 410.276 534.809 406.21 535.309C406.005 535.332 405.801 535.355 405.596 535.377C405.778 535.559 405.96 535.764 406.119 535.992C407.527 537.789 408.186 540.2 407.868 542.452C407.55 544.703 406.3 546.728 404.483 547.865C403.847 548.252 403.188 548.525 402.53 548.639C403.347 550.572 403.416 552.983 402.552 554.962C401.621 557.168 399.668 558.533 397.646 558.601C397.782 560.899 396.669 563.242 395.17 564.538C393.262 566.199 390.9 566.563 388.992 566.836C386.675 567.245 384.426 567.381 382.245 567.381ZM347.583 527.553C341.79 527.553 333.636 527.94 333.522 531.056C333.386 535.036 334.431 538.949 335.453 542.702C336.861 547.888 338.61 554.325 342.335 558.101C342.585 558.351 342.835 558.624 343.085 558.897C344.175 560.057 345.288 561.263 346.447 561.263C355.147 561.263 361.916 562.445 367.89 563.492C374.999 564.743 381.155 565.812 388.696 564.675C390.741 564.356 392.422 564.038 393.739 562.9C395.011 561.809 395.897 559.466 395.216 557.714C395.057 557.305 395.147 556.827 395.465 556.509C395.783 556.19 396.238 556.099 396.669 556.259C398.055 556.804 399.804 555.849 400.531 554.12C401.349 552.232 400.94 549.594 399.668 548.229C399.304 547.865 399.259 547.297 399.531 546.864C399.804 546.432 400.349 546.227 400.826 546.409C401.598 546.66 402.484 546.523 403.325 546C404.574 545.227 405.46 543.771 405.687 542.179C405.914 540.541 405.415 538.698 404.392 537.402C403.711 536.538 402.893 536.014 402.075 535.923C401.53 535.855 401.099 535.423 401.076 534.877C401.053 534.331 401.417 533.831 401.962 533.717C403.257 533.444 404.62 533.262 405.96 533.103C409.935 532.602 412.343 532.193 412.411 530.442C412.638 525.369 407.913 524.505 402.643 523.982L402.348 523.959C391.468 522.89 382.632 524.073 372.41 525.46C367.231 526.165 361.37 526.961 354.647 527.53C353.693 527.621 352.239 527.598 350.399 527.576C349.581 527.553 348.627 527.553 347.583 527.553Z" fill="black"/>
<path d="M238.756 582.712C238.756 582.712 249.568 590.992 304.833 577.504C346.969 567.222 358.145 567.131 358.145 567.131C358.145 567.131 355.033 555.371 354.579 545.136C354.034 532.875 355.124 522.708 355.124 522.708C355.124 522.708 285.957 522.844 264.265 517.613C242.572 512.381 238.483 509.606 238.483 509.606L238.756 582.712Z" fill="white"/>
<path d="M257.359 585.783C245.025 585.783 238.892 583.941 238.415 583.804C237.825 583.622 237.507 582.985 237.688 582.394C237.87 581.802 238.506 581.484 239.097 581.666C239.324 581.734 261.312 588.262 307.196 576.161C325.549 571.316 350.808 567.177 356.714 566.244C356.078 563.924 354.783 558.192 353.625 546.91C352.375 534.832 353.284 526.916 353.784 523.868C342.404 524.027 268.808 524.596 249.273 513.973C248.728 513.678 248.523 512.995 248.819 512.449C249.114 511.903 249.795 511.699 250.34 511.994C270.557 522.981 354.284 521.593 355.124 521.593C355.465 521.593 355.805 521.73 356.01 522.003C356.237 522.276 356.305 522.617 356.237 522.958C356.214 523.049 354.306 531.647 355.851 546.66C357.396 561.649 359.19 566.699 359.213 566.744C359.326 567.063 359.304 567.404 359.122 567.7C358.94 567.996 358.668 568.178 358.327 568.246C358.032 568.291 328.457 572.84 307.764 578.3C285.412 584.214 268.739 585.783 257.359 585.783Z" fill="black"/>
<path d="M290.682 509.697C290.046 509.697 289.569 509.174 289.569 508.56L290.205 448.282C290.205 447.668 290.705 447.168 291.318 447.168C291.318 447.168 291.318 447.168 291.341 447.168C291.954 447.168 292.454 447.691 292.454 448.305L291.818 508.582C291.795 509.197 291.295 509.697 290.682 509.697Z" fill="black"/>
<path d="M268.876 519.273C268.739 519.273 268.603 519.25 268.489 519.205C267.922 519 267.626 518.341 267.831 517.772C273.805 501.759 281.437 486.314 290.546 471.87C290.886 471.347 291.568 471.188 292.09 471.529C292.613 471.87 292.772 472.552 292.431 473.076C283.39 487.383 275.826 502.691 269.92 518.545C269.761 519 269.33 519.273 268.876 519.273Z" fill="black"/>
<path d="M525.622 438.706C525.531 438.706 525.463 438.706 525.372 438.683C524.781 438.547 524.395 437.933 524.531 437.341C526.576 428.539 527.87 419.486 528.438 410.478C528.484 409.864 529.006 409.409 529.619 409.432C530.233 409.477 530.71 410 530.664 410.615C530.096 419.759 528.756 428.925 526.712 437.842C526.576 438.365 526.121 438.706 525.622 438.706Z" fill="black"/>
<path d="M456.614 458.586C456.023 458.586 455.524 458.109 455.501 457.517C455.046 447.145 453.502 436.818 450.935 426.764C450.776 426.173 451.14 425.559 451.73 425.4C452.321 425.24 452.934 425.604 453.093 426.196C455.705 436.386 457.273 446.895 457.727 457.404C457.75 458.018 457.273 458.541 456.659 458.564C456.637 458.586 456.614 458.586 456.614 458.586Z" fill="black"/>
<path d="M15.1508 439.138C15.1508 435.249 12.0162 432.11 8.13193 432.11C4.24769 432.11 1.11304 435.249 1.11304 439.138C1.11304 443.028 4.24769 446.167 8.13193 446.167C12.0162 446.167 15.1508 443.005 15.1508 439.138Z" fill="white"/>
<path d="M8.13192 447.281C3.65709 447.281 0 443.619 0 439.138C0 434.657 3.65709 430.995 8.13192 430.995C12.6067 430.995 16.2638 434.657 16.2638 439.138C16.2638 443.619 12.6295 447.281 8.13192 447.281ZM8.13192 433.224C4.88369 433.224 2.22606 435.886 2.22606 439.138C2.22606 442.391 4.88369 445.052 8.13192 445.052C11.3801 445.052 14.0378 442.391 14.0378 439.138C14.0378 435.863 11.3801 433.224 8.13192 433.224Z" fill="black"/>
</g>
<defs>
<clipPath id="clip0_54_24905">
<rect width="665" height="628" fill="white"/>
</clipPath>
</defs>
</svg>
