<svg width="598"  viewBox="0 0 598 574" fill="none" xmlns="http://www.w3.org/2000/svg">
<g class="view">
<path class="lamp lamp-mob" d="M499.498 128.396C499.069 123.442 497.578 118.562 495.137 114.055C493.87 111.727 492.361 109.492 490.348 107.592C488.28 105.637 485.764 104.054 483.491 102.266C476.317 96.6228 471.639 88.7261 470.633 80.4569C469.832 73.9571 468.695 66.7681 470.503 60.4172C471.826 55.7425 480.435 42.7055 485.559 38.6827C493.833 32.2014 506.094 28.1972 517.219 26.9121C528.344 25.6271 540.047 27.5454 549.587 32.5926C561.886 39.1297 570.067 50.7512 571.837 62.9874C573.607 75.2421 569.135 87.9253 560.395 97.7775C556.78 101.856 552.457 105.469 548.861 109.567C543.811 115.284 540.214 121.915 538.314 128.545C533.692 129.253 528.978 129.234 524.3 129.215C520.331 129.197 516.381 129.178 512.412 129.178C508.144 129.178 503.914 129.159 499.498 128.396Z" fill="white"/>
<path  class="lamp-mob" d="M497.168 129.234C511.405 130.407 525.772 130.388 540.009 129.197C540.811 139.44 541.593 145.679 538.351 155.568C536.767 160.392 533.934 165.309 528.754 167.712C522.623 170.561 515.076 169.146 508.331 167.581C505.722 166.967 503.02 166.315 500.951 164.825C496.721 161.77 496.479 156.388 496.572 151.657C496.777 142.494 496.963 137.54 497.168 129.234Z" fill="#FF7050"/>
<g opacity="0.1294">
<path class="lamp-mob"  d="M572.899 67.513C571.781 66.5073 569.694 66.7122 568.874 67.9227C568.278 69.1333 568.483 68.5373 568.222 70.2694C568.185 70.4929 568.166 70.7164 568.129 70.9399C567.961 71.629 567.402 73.9384 567.197 74.4599C567.551 73.7894 567.532 73.808 567.16 74.553C565.185 79.0228 564.775 80.3265 562.296 83.9396C561.663 84.9826 560.47 87.3851 558.178 89.8063C555.457 92.991 547.948 98.9321 543.624 104.11C542.357 105.581 539.562 108.915 539.171 109.492C539.152 109.511 539.152 109.511 539.133 109.529C537.512 111.28 535.891 113.031 534.661 115.005C532.257 119.009 532.481 118.935 530.953 121.821C530.077 123.758 528.642 126.217 528.773 128.209C528.791 128.358 528.829 128.507 528.866 128.656C528.046 129.811 527.711 131.245 528.214 132.828C529.574 136.739 529.555 141.284 529.22 148.454C528.829 155.904 529.35 153.054 527.077 159.778C525.773 163 526.686 161.063 524.804 164.21C524.356 164.974 523.667 165.7 523.63 166.594C523.22 168.512 524.487 169.965 526.201 170.617C526.63 170.393 527.058 170.17 527.45 169.891C529.22 168.699 530.972 167.488 532.779 166.352C533.692 165.775 534.587 165.216 535.481 164.639C536.99 161.994 537.978 159.126 538.761 156.295C539.991 150.186 540.307 149.031 541.537 142.308C542.04 139.403 541.854 136.441 541.556 133.517C541.258 131.674 541.239 129.55 539.73 128.079C539.338 128.116 538.929 128.172 538.537 128.209C537.848 128.284 537.158 128.34 536.45 128.396C539.506 119.81 541.929 115.061 547.37 108.747C550.948 105.078 554.917 101.689 558.7 98.1685C562.296 95.021 565.464 91.4824 567.924 87.6086C569.265 84.9081 569.042 85.1688 569.918 83.1946C570.067 82.878 569.843 83.2878 569.713 83.5299C570.216 82.5614 570.682 81.5929 571.129 80.6059C571.856 79.0973 572.266 77.4956 572.564 75.8753C572.564 75.8753 572.582 75.838 572.582 75.8008C573.291 72.5974 574.632 69.2451 572.899 67.513Z" fill="black"/>
</g>
<g opacity="0.1294">
<path d="M530.655 122.361C530.767 122.157 530.86 121.97 530.953 121.803C530.99 121.728 531.028 121.654 531.046 121.598C530.916 121.84 530.785 122.101 530.655 122.361Z" fill="black"/>
</g>
<path class="lamp-mob" d="M519.996 171.12C517.871 171.12 516.027 170.934 514.741 170.766C510.474 170.189 500.169 168.065 496.87 160.69C495.659 158.008 495.659 155.066 495.641 152.477C495.622 147.802 495.585 144.189 495.566 140.576C495.547 136.963 495.51 133.35 495.491 128.675C495.491 128.396 495.603 128.116 495.827 127.93C496.032 127.744 496.33 127.651 496.591 127.669C504.921 128.526 532.574 128.899 540.102 128.247C540.662 128.209 541.127 128.601 541.183 129.141C542.245 140.595 541.612 144.841 539.637 155.475C539.003 158.921 538.09 162.869 535.295 165.849C531.27 170.151 524.915 171.12 519.996 171.12ZM497.485 129.774C497.504 133.927 497.523 137.242 497.56 140.576C497.579 144.189 497.616 147.802 497.634 152.477C497.653 154.991 497.672 157.58 498.697 159.889C500.709 164.378 506.803 167.712 515.02 168.81C523.257 169.909 530.301 168.307 533.841 164.527C536.264 161.938 537.065 158.474 537.68 155.159C539.543 145.046 540.196 140.818 539.283 130.351C530.86 130.854 506.598 130.537 497.485 129.774Z" fill="black"/>
<path class="lamp-mob" d="M537.289 130.035C537.233 130.035 537.158 130.035 537.102 130.016C536.562 129.923 536.208 129.401 536.301 128.861C538.183 118.73 546.14 110.703 553.818 102.918C560.955 95.6914 568.334 88.2231 570.626 79.2462C571.856 74.4225 571.707 62.6147 567.458 52.6135C564.309 45.201 559.799 39.6324 554.078 36.0565C543.289 29.3518 524.71 24.5467 510.082 28.3461C496.144 31.9592 484.777 38.7571 478.031 47.4546C471.863 55.4258 469.18 65.3711 470.503 75.4469C471.733 84.8894 476.354 94.1456 483.882 102.229C484.926 103.346 486.025 104.445 487.106 105.525C489.361 107.779 491.69 110.107 493.572 112.677C496.964 117.333 498.827 122.715 498.958 128.209C498.976 128.768 498.529 129.215 497.989 129.234C497.467 129.252 496.982 128.805 496.964 128.265C496.852 123.181 495.119 118.19 491.951 113.85C490.162 111.392 487.889 109.12 485.69 106.922C484.609 105.842 483.491 104.724 482.429 103.57C474.621 95.1886 469.813 85.5598 468.546 75.689C467.167 65.0731 469.981 54.6063 476.484 46.2068C483.491 37.1554 495.249 30.1154 509.617 26.3905C524.804 22.4422 544.034 27.3962 555.178 34.3431C561.271 38.1425 566.042 44.0091 569.359 51.8127C573.775 62.2236 573.924 74.6274 572.62 79.7118C570.197 89.2102 562.632 96.8834 555.308 104.277C547.836 111.839 540.103 119.661 538.332 129.178C538.183 129.699 537.755 130.035 537.289 130.035Z" fill="black"/>
<path class="lamp-mob" d="M525.605 129.494C525.046 129.494 524.599 129.029 524.599 128.489V128.321C524.692 118.711 525.195 108.673 526.071 98.485C526.443 94.2387 526.891 90.0855 528.307 86.2116C524.953 85.4108 521.934 83.567 519.959 81.4252C519.604 81.0527 519.269 80.643 518.971 80.2333C518.542 80.9782 518.076 81.7046 517.592 82.4123C514.89 86.4351 511.946 88.521 508.573 88.7818C507.529 88.8563 506.504 88.7445 505.517 88.521C506.43 91.2402 507.082 93.9593 507.641 96.5481C509.877 106.903 510.846 117.5 510.567 128.042C510.548 128.6 510.101 129.029 509.542 129.01C508.983 128.992 508.554 128.545 508.573 127.986C508.871 117.612 507.902 107.164 505.703 96.9578C505.07 93.9966 504.287 90.8863 503.15 87.7947C502.666 87.6085 502.2 87.4222 501.753 87.236C496.889 85.2059 491.485 82.524 488.448 78.0356C487.05 75.9869 486.92 74.0127 488.056 72.6532C489.305 71.1632 491.597 70.9956 493.199 71.4985C494.858 72.0013 496.106 73.1002 497.094 74.1059C500.672 77.719 503.02 81.9281 504.697 86.2303C505.927 86.6214 507.175 86.8821 508.424 86.789C511.144 86.5841 513.604 84.7962 515.933 81.3135C516.586 80.345 517.182 79.3765 517.741 78.3894C516.045 75.4654 515.058 71.8523 514.76 67.4943C514.517 64.1233 514.573 59.1878 517.722 55.3326C518.673 54.1593 519.865 53.6378 520.965 53.9172C521.803 54.122 522.344 54.7553 522.661 55.2022C525.363 58.9643 524.841 63.5832 524.207 66.7307C523.406 70.7535 522.008 74.6273 520.07 78.3149C520.499 78.9482 520.965 79.5255 521.468 80.0843C523.257 82.0398 526.052 83.6974 529.089 84.3678C529.164 84.2188 529.239 84.0512 529.313 83.9022C531.456 79.4697 535.164 75.5399 539.786 72.8208C540.662 72.2993 541.724 71.7965 542.898 71.9455C543.941 72.0758 544.78 72.6345 545.208 73.5285C545.954 75.0371 545.451 77.123 544.687 78.4081C542.301 82.3937 539.301 84.9824 535.779 86.0813C533.99 86.64 532.146 86.7704 530.338 86.5841C528.922 90.309 528.475 94.2946 528.102 98.6713C527.226 108.821 526.723 118.804 526.63 128.358V128.526C526.611 129.066 526.164 129.494 525.605 129.494ZM491.504 73.2492C490.702 73.2492 489.976 73.4913 489.603 73.9382C488.858 74.8508 489.715 76.3408 490.125 76.9368C492.808 80.9037 497.895 83.4552 502.144 85.2432C500.616 81.7604 498.566 78.4267 495.696 75.5213C494.877 74.6832 493.87 73.7893 492.64 73.4168C492.249 73.305 491.876 73.2492 491.504 73.2492ZM531.158 84.6286C532.5 84.7031 533.841 84.5541 535.164 84.1443C538.202 83.1945 540.829 80.9223 542.954 77.3465C543.55 76.3594 543.736 75.0557 543.401 74.3666C543.308 74.1617 543.14 73.9382 542.637 73.8824C542.059 73.8265 541.407 74.1431 540.773 74.497C536.543 77.0113 533.133 80.6057 531.158 84.6286ZM520.369 55.8355C520.014 55.8355 519.567 56.2266 519.269 56.5804C517.219 59.1133 516.418 62.5216 516.753 67.3453C516.996 70.828 517.704 73.7893 518.878 76.229C520.424 73.0443 521.561 69.7478 522.251 66.3209C523.145 61.907 522.754 58.7408 521.039 56.3383C520.816 56.0217 520.629 55.8541 520.48 55.8168C520.443 55.8355 520.406 55.8355 520.369 55.8355Z" fill="black"/>
<path class="blick lamp-mob" d="M579.198 38.0493C578.844 38.0493 578.49 37.8445 578.303 37.5092C578.061 37.025 578.229 36.4476 578.713 36.1869L591.161 29.3146C592.298 28.6813 593.043 28.9234 593.453 29.2587C593.77 29.5008 593.938 29.8733 593.882 30.2458C593.789 31.177 593.77 31.2142 579.608 37.9562C579.496 38.0121 579.347 38.0493 579.198 38.0493Z" fill="black"/>
<path class="blick lamp-mob" d="M499.964 15.1974C499.591 15.1974 499.218 14.9739 499.051 14.62L492.976 1.41541C492.752 0.912559 492.957 0.316582 493.46 0.0930912C493.963 -0.1304 494.56 0.074467 494.783 0.577322L500.858 13.7819C501.082 14.2848 500.877 14.8808 500.374 15.1043C500.243 15.1601 500.094 15.1974 499.964 15.1974Z" fill="black"/>
<path class="blick lamp-mob" d="M459.061 44.6422C459.005 44.6422 458.931 44.6422 458.875 44.6236L445.197 41.9045C444.843 41.83 443.762 41.6251 443.483 40.6566C443.371 40.2655 443.464 39.8558 443.762 39.5764C444.358 38.9804 444.675 38.6638 459.34 42.6867C459.862 42.8357 460.179 43.3571 460.049 43.8786C459.918 44.3256 459.508 44.6422 459.061 44.6422Z" fill="black"/>
<path class="blick lamp-mob" d="M440.836 95.8964C440.445 95.8964 440.072 95.6729 439.923 95.2818C439.7 94.779 439.942 94.183 440.464 93.9781L454.645 87.9997C455.148 87.7762 455.744 88.0184 455.949 88.5398C456.173 89.0427 455.93 89.6387 455.409 89.8435L441.228 95.8219C441.097 95.8778 440.967 95.8964 440.836 95.8964Z" fill="black"/>
<path class="blick lamp-mob" d="M541.724 14.9366C541.593 14.9366 541.481 14.918 541.351 14.8621C540.848 14.6573 540.587 14.0799 540.792 13.5584L545.805 1.06154C546.01 0.558687 546.587 0.297947 547.109 0.502814C547.612 0.707681 547.873 1.28503 547.668 1.80651L542.655 14.3034C542.506 14.6945 542.115 14.9366 541.724 14.9366Z" fill="black"/>
<path class="blick lamp-mob" d="M597.012 86.249C596.9 86.249 596.77 86.2303 596.658 86.1745L582.869 80.9038C582.347 80.6989 582.105 80.1216 582.291 79.6187C582.496 79.0972 583.074 78.8551 583.577 79.0414L597.366 84.312C597.888 84.5169 598.13 85.0942 597.944 85.5971C597.795 86.0068 597.403 86.249 597.012 86.249Z" fill="black"/>
<path d="M525.493 325.086C521.766 312.832 512.449 303.147 502.051 297.671C490.181 291.414 458.595 288.545 444.806 287.354C445.327 320.393 445.178 353.432 445.383 387.757C448.048 397.516 451.645 407.219 457.887 415.172C464.13 423.124 473.372 429.177 483.472 429.717C498.38 430.5 511.741 419.064 517.946 405.487C524.151 391.929 524.71 376.564 525.176 361.646C525.568 349.484 529.052 336.82 525.493 325.086Z" fill="white"/>
<path d="M484.982 430.723C484.46 430.723 483.957 430.705 483.435 430.686C473.764 430.183 464.167 424.745 457.123 415.768C451.701 408.858 447.787 400.31 444.433 387.999C444.414 387.906 444.396 387.832 444.396 387.738C444.321 375.949 444.303 364.16 444.265 352.762C444.209 330.264 444.154 309.032 443.818 287.354C443.818 287.074 443.93 286.795 444.135 286.609C444.34 286.422 444.619 286.311 444.899 286.348C457.291 287.428 490.218 290.296 502.517 296.778C514.201 302.942 522.922 313.148 526.444 324.77C528.978 333.114 528.027 341.941 527.096 350.49C526.704 354.178 526.294 357.977 526.183 361.646C525.735 375.838 525.251 391.91 518.859 405.878C513.12 418.431 500.504 430.723 484.982 430.723ZM446.39 387.608C449.651 399.565 453.452 407.871 458.688 414.539C465.378 423.069 474.435 428.228 483.547 428.693C498.883 429.513 511.405 417.407 517.07 405.059C523.294 391.463 523.779 375.595 524.207 361.609C524.319 357.865 524.748 354.01 525.139 350.304C526.034 341.96 526.965 333.337 524.561 325.384C521.189 314.247 512.822 304.469 501.604 298.565C489.994 292.438 458.875 289.589 445.849 288.453C446.166 309.759 446.222 330.674 446.278 352.781C446.278 364.123 446.315 375.875 446.39 387.608Z" fill="black"/>
<path d="M345.186 479.817C344.18 454.283 342.801 428.749 341.142 403.253C229.13 416.644 114.304 409.808 4.15566 382.282C5.88867 438.378 4.91967 494.549 0.987793 550.515C16.9948 556.735 184.687 586.907 330.11 565.358C335.813 564.52 341.515 563.664 347.217 562.807C346.956 535.131 346.285 507.474 345.186 479.817Z" fill="white"/>
<path d="M216.813 574C179.32 574 144.678 571.858 116.932 569.344C56.7981 563.887 9.26146 554.798 0.633687 551.446C0.223727 551.278 -0.0371557 550.887 0.000113277 550.44C3.83882 495.648 4.90099 439.086 3.14935 382.3C3.13071 381.984 3.27979 381.686 3.52204 381.499C3.76428 381.295 4.08107 381.239 4.39786 381.313C114.286 408.765 227.546 415.805 341.012 402.247C341.291 402.21 341.552 402.303 341.776 402.47C341.981 402.638 342.111 402.899 342.13 403.178C343.844 429.457 345.204 455.233 346.173 479.78C347.273 507.493 347.962 535.429 348.205 562.807C348.205 563.31 347.85 563.719 347.347 563.794C341.645 564.651 335.943 565.507 330.241 566.345C292.208 571.988 253.169 574 216.813 574ZM2.04991 549.844C12.1871 553.346 58.6243 562.062 117.118 567.37C171.68 572.324 252.889 575.807 329.98 564.39C335.384 563.589 340.807 562.788 346.211 561.969C345.95 534.889 345.279 507.269 344.179 479.854C343.229 455.661 341.887 430.258 340.21 404.351C284.53 410.944 227.9 412.528 171.885 409.082C115.534 405.618 59.4628 397.032 5.19914 383.548C6.87625 439.7 5.81408 495.648 2.04991 549.844Z" fill="black"/>
<path d="M528.475 476.39C526.779 448.323 525.065 420.219 525.81 392.115C526.406 369.747 528.531 347.249 525.493 325.086C526.649 337.509 518.58 350.117 508.349 358.927C489.957 374.776 465.117 381.76 440.967 387.31C417.786 392.637 394.362 397.051 370.79 400.589C370.79 400.645 370.808 400.682 370.808 400.738C371.572 415.358 372.467 429.96 373.156 444.58C374.386 470.616 375.392 496.672 376.063 522.746C376.38 535.019 376.622 547.274 376.79 559.547C402.133 555.338 427.327 550.366 452.017 543.363C480.882 535.168 510.306 523.267 529.276 500.006C529.388 491.327 528.922 483.858 528.475 476.39Z" fill="white"/>
<path d="M376.808 560.534C376.585 560.534 376.343 560.46 376.175 560.311C375.951 560.125 375.821 559.845 375.821 559.566C375.653 547.349 375.392 534.963 375.094 522.783C374.46 498.069 373.51 472.516 372.187 444.636C371.758 435.733 371.255 426.682 370.771 417.928C370.454 412.211 370.137 406.512 369.839 400.794C369.839 400.775 369.82 400.738 369.82 400.701C369.765 400.161 370.137 399.695 370.659 399.602C394.232 396.082 417.823 391.612 440.762 386.342C463.384 381.146 489.063 374.255 507.716 358.163C519.232 348.236 525.512 335.907 524.506 325.161C524.45 324.621 524.841 324.137 525.381 324.081C525.922 324.025 526.406 324.397 526.481 324.937C528.829 342.109 528.083 359.709 527.375 376.732C527.17 381.779 526.947 387.012 526.798 392.134C526.052 420.219 527.785 448.733 529.462 476.334L528.475 476.39L529.481 476.353C529.928 483.709 530.394 491.308 530.301 500.006C530.301 500.229 530.226 500.453 530.077 500.62C509.766 525.539 477.845 537.049 452.315 544.294C430.904 550.366 406.978 555.525 376.976 560.516C376.92 560.534 376.864 560.534 376.808 560.534ZM371.852 401.446C372.131 406.903 372.448 412.36 372.746 417.817C373.231 426.57 373.734 435.622 374.162 444.543C375.485 472.423 376.436 497.994 377.069 522.727C377.367 534.535 377.61 546.51 377.777 558.374C407.145 553.457 430.681 548.373 451.738 542.394C476.894 535.261 508.293 523.956 528.27 499.652C528.344 491.178 527.897 483.709 527.45 476.483L528.437 476.39L527.45 476.446C525.773 448.807 524.04 420.238 524.785 392.078C524.915 386.938 525.139 381.704 525.363 376.638C525.94 363.005 526.518 349 525.53 335.199C523.276 343.673 517.518 352.334 509.002 359.672C489.994 376.061 464.037 383.027 441.191 388.279C418.494 393.512 395.182 397.926 371.852 401.446Z" fill="black"/>
<path d="M154.331 149.329C160.108 166.873 154.778 188.198 139.852 199.075C131.727 204.997 121.627 207.586 113.056 212.838C104.484 218.09 97.123 227.98 99.9741 237.627C100.701 240.067 102.043 242.358 102.285 244.89C102.937 251.707 95.8931 256.326 90.7127 260.814C79.0475 270.89 74.4821 290.315 84.6006 301.937C92.5762 311.1 106.123 312.459 118.273 312.701C134.746 313.037 151.797 312.366 166.648 305.233C181.314 298.193 192.625 285.268 199.781 270.666C206.936 256.065 210.197 239.843 211.669 223.64C213.365 204.997 212.508 185.237 203.042 169.071C193.575 152.905 173.431 141.824 154.331 149.329Z" fill="#FF7050"/>
<path d="M124.329 313.744C122.298 313.744 120.267 313.726 118.255 313.67C105.807 313.428 91.9986 311.9 83.8553 302.57C79.5694 297.653 77.5755 291.227 78.0973 283.964C78.7309 274.913 83.2218 265.973 90.0606 260.05C90.7874 259.417 91.57 258.784 92.334 258.132C96.9927 254.296 101.8 250.31 101.279 244.983C101.13 243.512 100.571 242.097 99.9742 240.607C99.6201 239.731 99.2661 238.837 98.9866 237.906C95.9491 227.663 103.85 217.289 112.497 211.981C116.354 209.616 120.547 207.772 124.609 205.984C129.622 203.787 134.802 201.496 139.237 198.255C153.325 187.993 159.251 167.544 153.362 149.627C153.194 149.124 153.455 148.584 153.94 148.379C163.164 144.766 173.096 145.12 182.674 149.404C191.395 153.315 198.923 160.113 203.862 168.549C211.986 182.443 214.781 199.969 212.62 223.715C210.905 242.618 206.992 258.114 200.638 271.076C192.83 287.018 180.904 299.459 167.04 306.108C153.902 312.441 138.939 313.744 124.329 313.744ZM155.561 149.925C161.226 168.419 154.946 189.297 140.43 199.875C135.808 203.246 130.535 205.556 125.429 207.809C121.441 209.56 117.304 211.385 113.559 213.676C105.546 218.593 98.1666 228.091 100.925 237.329C101.167 238.167 101.502 238.986 101.856 239.862C102.471 241.426 103.123 243.028 103.291 244.797C103.906 251.185 98.4462 255.692 93.6198 259.678C92.8558 260.311 92.0918 260.944 91.3651 261.559C84.992 267.053 80.6688 275.695 80.0725 284.113C79.588 290.836 81.4142 296.759 85.3461 301.266C92.9676 310.001 105.676 311.435 118.292 311.696C134.523 312.012 151.573 311.36 166.22 304.32C179.674 297.876 191.265 285.752 198.886 270.219C205.129 257.48 208.986 242.208 210.682 223.547C212.787 200.229 210.104 183.095 202.184 169.574C193.557 154.842 174.4 143.127 155.561 149.925Z" fill="black"/>
<path d="M237.665 79.9353C240.143 106.605 243.385 135.119 260.79 155.475C266.455 162.087 273.424 167.562 278.567 174.584C284.68 182.946 287.866 193.059 289.972 203.191C293.941 222.336 294.164 243.158 285.108 260.498C276.052 277.837 255.889 290.315 236.845 285.808C220.13 281.841 208.259 266.048 204.16 249.379C200.06 232.71 202.39 215.203 205.315 198.293C212.359 157.673 222.794 117.649 237.665 79.9353Z" fill="#FF7050"/>
<path d="M244.69 287.708C241.969 287.708 239.267 287.41 236.621 286.776C220.95 283.07 207.831 268.487 203.21 249.621C198.998 232.487 201.477 214.794 204.346 198.125C211.819 154.991 222.72 115.098 236.733 79.5628C236.901 79.1344 237.348 78.8737 237.795 78.9482C238.261 79.0041 238.596 79.3766 238.652 79.8422C241.41 109.455 245.025 135.529 261.554 154.823C263.902 157.561 266.53 160.169 269.082 162.683C272.66 166.203 276.35 169.853 279.369 173.988C284.661 181.233 288.332 190.433 290.941 202.986C295.73 226.005 294.053 245.505 285.984 260.963C277.505 277.241 260.753 287.708 244.69 287.708ZM237.068 84.2189C223.819 118.637 213.477 157.058 206.303 198.479C203.452 214.943 201.011 232.394 205.129 249.155C209.583 267.295 222.124 281.301 237.068 284.84C254.417 288.955 274.691 278.284 284.214 260.032C292.059 245.002 293.661 225.931 288.984 203.396C286.431 191.141 282.872 182.164 277.748 175.161C274.822 171.138 271.188 167.562 267.666 164.098C265.095 161.547 262.43 158.921 260.026 156.109C243.926 137.298 239.826 112.435 237.068 84.2189Z" fill="black"/>
<path d="M241.615 224.646C237.087 211.404 234.031 197.715 230.919 181.978C224.695 180.916 218.285 180.804 212.023 181.661C209.21 182.052 206.135 182.797 204.57 185.032C203.582 186.448 203.377 188.198 203.191 189.874C201.942 201.421 200.675 212.95 199.426 224.497C199.333 225.391 199.24 226.303 199.557 227.142C200.004 228.333 201.197 229.134 202.352 229.786C214.427 236.603 231.198 234.815 241.615 224.646Z" fill="white"/>
<path d="M218.341 234.889C212.638 234.889 206.936 233.511 201.868 230.661C200.582 229.935 199.203 229.004 198.625 227.495C198.215 226.415 198.346 225.298 198.439 224.385L202.203 189.763C202.389 188.142 202.594 186.112 203.75 184.455C205.595 181.829 209.061 181.046 211.893 180.655C218.285 179.799 224.732 179.892 231.087 180.991C231.496 181.065 231.813 181.382 231.906 181.773C235.093 197.92 238.13 211.348 242.565 224.311C242.696 224.683 242.603 225.074 242.323 225.354C235.894 231.611 227.117 234.889 218.341 234.889ZM220.409 182.089C217.651 182.089 214.893 182.276 212.154 182.648C209.731 182.983 206.787 183.617 205.39 185.609C204.532 186.839 204.346 188.515 204.178 189.986L200.414 224.609C200.34 225.372 200.246 226.173 200.489 226.806C200.824 227.719 201.868 228.389 202.837 228.929C214.576 235.522 230.639 233.548 240.478 224.366C236.174 211.665 233.192 198.535 230.08 182.853C226.875 182.35 223.651 182.089 220.409 182.089Z" fill="black"/>
<path d="M245.323 84.3306C247.448 97.2186 248.901 110.982 255.852 122.343C259.653 128.545 269.884 162.795 245.379 180.879C232.503 190.377 215.601 194.363 197.973 189.856C186.01 186.801 167.972 171.511 164.673 151.881C157.015 156.742 147.045 153.613 144.66 146.126C143.281 141.805 146.412 134.933 151.536 133.648C155.505 132.661 155.971 132.549 159.642 133.908C158.971 124.429 157.462 115.042 154.201 104.91C160.518 91.5755 174.121 81.6115 188.656 74.7019C193.464 72.4111 198.495 70.3811 203.787 69.4685C218.974 66.8611 243.143 71.1074 245.323 84.3306Z" fill="white"/>
<path d="M212.62 192.724C207.719 192.724 202.725 192.091 197.731 190.824C185.954 187.826 167.99 173.243 163.947 153.445C160.089 155.419 155.561 155.755 151.573 154.321C147.735 152.924 144.865 150.056 143.728 146.443C142.945 144.003 143.43 140.743 144.995 137.931C146.505 135.231 148.797 133.312 151.312 132.698C154.909 131.804 155.915 131.618 158.543 132.474C157.76 122.622 156.064 113.925 153.269 105.227C153.194 104.985 153.213 104.724 153.325 104.501C160.443 89.4709 176.245 79.5255 188.265 73.8079C192.364 71.8709 197.805 69.5057 203.657 68.4999C214.409 66.6561 230.733 68.1647 239.808 74.6273C243.516 77.272 245.715 80.4754 246.33 84.1816C246.591 85.746 246.833 87.3291 247.094 88.9121C248.883 100.273 250.727 112.006 256.728 121.821C261.368 129.401 270.48 163.614 245.994 181.68C236.099 188.98 224.602 192.724 212.62 192.724ZM164.655 150.894C164.785 150.894 164.934 150.931 165.065 150.987C165.363 151.117 165.586 151.397 165.642 151.732C168.903 171.138 186.979 186.038 198.215 188.906C214.8 193.134 231.348 190.005 244.783 180.097C269.753 161.677 257.604 127.148 254.995 122.883C248.771 112.733 246.907 100.794 245.081 89.2288C244.839 87.6457 244.578 86.0626 244.336 84.4982C243.814 81.3507 241.895 78.5757 238.634 76.2476C229.987 70.1016 214.316 68.6676 203.973 70.4555C198.364 71.424 193.072 73.7147 189.084 75.6144C177.475 81.1272 162.214 90.7001 155.263 105.004C158.188 114.185 159.884 123.367 160.63 133.871C160.648 134.206 160.499 134.542 160.238 134.746C159.959 134.951 159.605 135.007 159.288 134.877C155.896 133.61 155.654 133.666 151.778 134.635C149.803 135.138 147.958 136.683 146.71 138.918C145.405 141.246 144.977 143.91 145.592 145.847C146.561 148.864 148.964 151.266 152.225 152.458C156.083 153.855 160.518 153.333 164.114 151.061C164.301 150.95 164.468 150.894 164.655 150.894Z" fill="black"/>
<path d="M368.926 173.522C368.702 172.312 369.41 171.082 370.398 170.337C371.386 169.593 372.597 169.239 373.79 168.922C387.765 165.234 402.449 164.545 416.835 165.961C418.233 166.091 420.022 166.65 420.04 168.065C420.059 168.699 419.649 169.276 419.221 169.76C416.537 172.796 412.568 174.304 408.673 175.441C397.567 178.718 385.567 179.966 374.405 176.837C372.485 176.297 369.355 175.888 368.926 173.522Z" fill="white"/>
<path d="M194.302 150.409C185.283 150.409 177.121 143.165 175.425 133.089C173.562 121.97 180.233 111.559 190.333 109.864C200.414 108.17 210.142 115.824 212.024 126.943C212.918 132.307 211.893 137.67 209.098 142.047C206.284 146.461 202.036 149.348 197.135 150.167C196.166 150.335 195.215 150.409 194.302 150.409ZM193.128 111.634C192.308 111.634 191.488 111.708 190.65 111.839C181.649 113.347 175.686 122.734 177.382 132.772C179.078 142.792 187.761 149.72 196.762 148.212C201.104 147.485 204.868 144.915 207.384 140.986C209.918 137.019 210.85 132.158 210.03 127.278C208.502 118.189 201.197 111.634 193.128 111.634Z" fill="black"/>
<path d="M244.615 137.615C235.596 137.615 227.434 130.37 225.738 120.294C223.875 109.175 230.546 98.7643 240.646 97.0695C250.727 95.3747 260.455 103.029 262.337 114.148C263.231 119.512 262.206 124.876 259.411 129.252C256.597 133.666 252.348 136.553 247.448 137.372C246.479 137.54 245.547 137.615 244.615 137.615ZM243.46 98.8388C242.64 98.8388 241.82 98.9133 240.981 99.0436C231.981 100.552 226.037 109.939 227.714 119.977C229.409 129.997 238.093 136.925 247.094 135.417C251.435 134.69 255.2 132.12 257.715 128.191C260.25 124.224 261.181 119.363 260.361 114.483C258.833 105.376 251.529 98.8388 243.46 98.8388Z" fill="black"/>
<path d="M388.921 104.389C385.064 92.1528 388.809 78.3149 384.076 66.3954C383.666 65.3524 383.07 64.235 381.989 63.937C380.219 63.4528 378.84 65.4642 378.243 67.1962C375.709 74.7018 376.454 82.8593 376.473 90.7932C376.492 102.377 374.852 113.98 371.46 125.621C369.317 131.45 371.572 137.875 373.361 143.816C376.417 153.985 378.113 164.545 378.337 175.683C386.592 178.96 395.89 177.135 404.555 175.198C407.816 174.472 411.133 173.708 413.798 172.125C416.593 159.051 418.68 145.828 420.041 132.53C420.413 128.917 420.73 125.267 420.544 121.635C420.395 118.841 419.873 115.899 418.028 113.776C416.183 111.652 412.68 110.796 410.332 112.733C410.127 110.572 408.487 108.728 406.493 107.853C404.499 106.978 402.245 106.959 400.102 107.313C399.561 107.406 398.965 107.555 398.611 107.983C396.337 105.562 392.666 104.538 389.461 105.45C389.424 104.91 389.35 104.389 388.921 104.389Z" fill="white"/>
<path d="M151.703 73.1001C169.94 73.1001 184.724 58.3245 184.724 40.0979C184.724 21.8713 169.94 7.0957 151.703 7.0957C133.467 7.0957 118.683 21.8713 118.683 40.0979C118.683 58.3245 133.467 73.1001 151.703 73.1001Z" fill="#FF7050"/>
<path d="M151.704 74.0872C132.957 74.0872 117.696 58.834 117.696 40.0979C117.696 21.3619 132.957 6.10864 151.704 6.10864C170.45 6.10864 185.712 21.3619 185.712 40.0979C185.712 58.834 170.468 74.0872 151.704 74.0872ZM151.704 8.10144C134.057 8.10144 119.689 22.4608 119.689 40.0979C119.689 57.7351 134.057 72.0944 151.704 72.0944C169.35 72.0944 183.718 57.7351 183.718 40.0979C183.718 22.4608 169.369 8.10144 151.704 8.10144Z" fill="black"/>
<path d="M412.661 177.229C412.587 177.229 412.531 177.229 412.456 177.21C411.916 177.098 411.562 176.577 411.674 176.037C415.177 158.809 417.599 141.191 418.923 123.665C419.128 120.927 419.239 118.488 418.457 116.29C417.767 114.372 415.978 112.304 413.668 112.304C413.668 112.304 413.668 112.304 413.649 112.304C411.879 112.304 410.108 113.459 408.077 115.955C404.947 119.81 402.524 124.149 400.847 128.824C400.325 130.277 399.897 131.823 400.195 133.201C400.456 134.355 401.499 135.529 402.655 135.398C403.27 135.324 403.903 134.896 404.499 134.449C407.481 132.139 409.959 129.122 411.655 125.751C411.897 125.267 412.512 125.062 412.997 125.304C413.481 125.546 413.686 126.142 413.444 126.645C411.618 130.295 408.934 133.536 405.711 136.032C404.891 136.665 403.978 137.279 402.86 137.391C400.549 137.633 398.704 135.678 398.238 133.648C397.81 131.767 398.331 129.886 398.946 128.154C400.679 123.255 403.232 118.73 406.493 114.707C408.021 112.826 410.425 110.312 413.612 110.312C413.612 110.312 413.612 110.312 413.63 110.312C416.891 110.312 419.37 113.068 420.301 115.619C421.289 118.376 421.065 121.393 420.898 123.814C419.575 141.433 417.134 159.126 413.612 176.428C413.537 176.912 413.127 177.229 412.661 177.229Z" fill="black"/>
<path d="M396.3 135.864C395.667 135.864 395.033 135.696 394.455 135.342C393.374 134.691 392.592 133.554 392.051 131.878C391.213 129.196 391.101 126.049 391.753 122.268C392.536 117.631 394.138 113.217 396.505 109.138C397.008 108.263 397.642 107.276 398.685 106.661C399.449 106.214 400.362 105.991 401.574 106.009C405.394 106.028 409.158 108.132 411.152 111.392C411.431 111.857 411.282 112.472 410.816 112.77C410.351 113.049 409.736 112.9 409.437 112.435C407.798 109.753 404.704 108.021 401.555 108.002H401.536C400.716 108.002 400.139 108.132 399.692 108.374C399.077 108.728 398.629 109.436 398.238 110.125C395.983 113.98 394.474 118.171 393.729 122.585C393.132 126.049 393.225 128.88 393.971 131.245C394.343 132.437 394.847 133.219 395.499 133.61C396.132 134.001 396.729 133.815 397.008 133.685C397.605 133.405 398.014 132.847 398.126 132.176C398.219 131.636 398.723 131.264 399.263 131.338C399.803 131.431 400.176 131.934 400.102 132.474C399.897 133.797 399.058 134.933 397.865 135.491C397.362 135.752 396.822 135.864 396.3 135.864Z" fill="black"/>
<path d="M389.853 135.007C389.815 135.007 389.797 135.007 389.759 135.007C388.231 134.97 386.778 133.946 385.977 132.362C385.324 131.096 385.157 129.736 385.045 128.34C384.654 123.833 384.598 119.232 384.896 114.707C385.008 112.919 385.213 110.833 385.995 108.952C386.908 106.773 388.511 105.171 390.412 104.575C393.673 103.532 396.971 105.506 399.151 107.071C399.598 107.387 399.692 108.021 399.375 108.468C399.058 108.915 398.424 109.008 397.977 108.691C396.151 107.369 393.43 105.693 391.027 106.475C389.685 106.903 388.53 108.095 387.84 109.734C387.169 111.336 387.001 113.142 386.89 114.856C386.592 119.288 386.647 123.758 387.039 128.172C387.151 129.364 387.281 130.519 387.765 131.468C388.231 132.381 389.051 132.996 389.834 133.014C390.374 133.014 391.362 132.623 391.865 132.064C392.033 131.878 392.051 131.748 392.051 131.729C391.977 131.189 392.35 130.668 392.89 130.593C393.43 130.519 393.952 130.891 394.027 131.431C394.101 131.897 394.045 132.623 393.356 133.387C392.517 134.318 391.027 135.007 389.853 135.007Z" fill="black"/>
<path d="M371.647 126.105C371.554 126.105 371.46 126.086 371.367 126.068C370.845 125.919 370.529 125.36 370.678 124.838C373.902 113.776 375.504 102.322 375.486 90.8118C375.486 89.3591 375.448 87.9064 375.43 86.4537C375.299 79.9352 375.187 73.1932 377.312 66.8982C378.113 64.4957 379.976 62.3725 382.268 63.0058C383.815 63.4341 384.579 64.9613 385.008 66.0601C387.561 72.5228 387.859 79.8607 388.138 86.9566C388.381 93.1398 388.641 99.528 390.43 105.171C390.598 105.693 390.3 106.251 389.778 106.419C389.256 106.587 388.697 106.289 388.53 105.767C386.666 99.8818 386.405 93.3447 386.144 87.0311C385.865 80.1028 385.567 72.9325 383.144 66.7865C382.697 65.6504 382.25 65.0731 381.728 64.9241C380.647 64.6261 379.604 66.3581 379.194 67.5315C377.181 73.5098 377.293 80.0656 377.423 86.4165C377.442 87.8878 377.479 89.3591 377.479 90.8118C377.498 102.526 375.858 114.167 372.579 125.397C372.467 125.807 372.075 126.105 371.647 126.105Z" fill="black"/>
<path d="M161.133 134.877C165.381 119.996 167.58 109.548 165.623 93.6055C200.563 102.098 227.788 90.5511 255.833 80.8292C254.976 75.8193 252.46 71.1819 249.069 67.2149C240.758 57.5117 231.683 49.6895 212.228 47.2497C198.607 45.5549 181.37 46.8958 168.94 52.7252C156.586 58.5174 147.604 68.8725 141.119 79.9911C135.957 88.8377 133.181 101.614 134.317 113.068C135.286 122.864 139.628 129.01 146.635 137.168C148.592 135.212 150.38 133.275 153.25 132.977C156.12 132.679 158.263 133.517 161.133 134.877Z" fill="#FF7050"/>
<path d="M146.654 138.173C146.635 138.173 146.635 138.173 146.616 138.173C146.337 138.155 146.076 138.043 145.89 137.819C139.423 130.277 134.373 123.684 133.349 113.18C132.212 101.688 134.858 88.7818 140.281 79.5069C147.977 66.3395 157.48 57.0274 168.549 51.8499C182.264 45.4245 200.191 44.754 212.396 46.2812C233.136 48.87 242.286 57.7351 249.87 66.5816C253.616 70.9397 256.038 75.8193 256.858 80.6802C256.933 81.1645 256.672 81.6301 256.206 81.7977C253.821 82.6171 251.435 83.4739 249.069 84.312C230.528 90.8677 211.52 97.5724 189.96 97.5724C182.581 97.5724 174.904 96.7902 166.835 94.9278C168.568 110.926 165.978 121.747 162.139 135.175C162.064 135.454 161.859 135.696 161.598 135.808C161.338 135.92 161.021 135.92 160.76 135.808C158.151 134.579 156.101 133.722 153.418 134.002C151.033 134.262 149.467 135.845 147.66 137.67L147.418 137.913C147.175 138.08 146.914 138.173 146.654 138.173ZM200.843 47.5849C190.612 47.5849 178.929 49.1866 169.388 53.6564C158.692 58.6663 149.467 67.7177 141.995 80.5126C136.852 89.3033 134.243 102.042 135.324 112.993C136.2 121.821 139.703 127.483 146.691 135.715C148.443 133.964 150.325 132.288 153.138 131.99C155.934 131.692 158.114 132.418 160.48 133.48C164.189 120.424 166.574 109.697 164.636 93.7358C164.599 93.4192 164.71 93.084 164.971 92.8605C165.214 92.637 165.549 92.5625 165.866 92.637C197.544 100.347 223.391 91.2216 248.361 82.3937C250.466 81.6487 252.591 80.9037 254.696 80.1587C253.802 75.931 251.603 71.7033 248.305 67.8481C240.981 59.2996 232.13 50.7324 212.098 48.2181C208.744 47.827 204.905 47.5849 200.843 47.5849Z" fill="black"/>
<path d="M383.927 134.244C383.685 130.593 384.784 126.887 386.983 123.963C388.362 122.138 390.151 120.592 391.194 118.543C392.238 116.495 392.238 113.627 390.393 112.286C389.219 111.429 387.635 111.41 386.219 111.708C382.511 112.491 379.492 115.154 376.827 117.873C375.169 119.568 373.566 121.356 372.56 123.498C371.665 125.397 371.293 127.52 371.106 129.606C370.995 130.91 370.957 132.27 371.479 133.461C372.206 135.119 373.864 136.143 375.485 136.963C377.163 137.82 379.026 138.565 380.889 138.229C382.734 137.875 384.057 136.125 383.927 134.244Z" fill="white"/>
<path d="M214.986 169.667C214.539 169.667 214.073 169.648 213.607 169.592C209.247 169.145 205.147 167.022 202.054 163.577C201.681 163.167 201.719 162.534 202.129 162.161C202.539 161.789 203.172 161.826 203.545 162.236C206.303 165.309 209.955 167.209 213.812 167.6C217.278 167.954 220.26 166.762 221.807 164.434C222.105 163.968 222.72 163.838 223.186 164.154C223.651 164.452 223.782 165.067 223.465 165.532C221.714 168.177 218.62 169.667 214.986 169.667Z" fill="black"/>
<path class="left-eye" d="M194.228 125.602C193.948 124 195.122 122.455 196.818 122.175C198.514 121.896 200.116 122.957 200.396 124.578C200.675 126.198 199.501 127.725 197.806 128.005C196.091 128.284 194.489 127.204 194.228 125.602Z" fill="black" stroke="#000000" stroke-width="0"/>
<path d="M377.945 179.016C377.405 179.016 376.958 178.588 376.939 178.029C376.734 166.519 375.15 155.047 372.224 143.91L371.926 142.792C370.342 136.851 368.553 130.109 371.013 124.112C372.616 120.182 375.821 117.202 378.97 114.465C381.094 112.621 383.237 110.907 385.939 110.405C388.846 109.846 392.461 111.317 393.207 114.39C393.952 117.482 391.679 119.922 389.666 122.082C389.294 122.473 388.94 122.864 388.585 123.255C384.579 127.837 383.834 135.026 386.815 140.334C387.095 140.818 386.908 141.414 386.442 141.693C385.958 141.973 385.362 141.786 385.082 141.321C381.691 135.287 382.548 127.148 387.095 121.952C387.449 121.542 387.821 121.151 388.213 120.741C389.964 118.86 391.772 116.942 391.269 114.874C390.803 112.937 388.269 112.006 386.312 112.379C384.113 112.788 382.212 114.316 380.293 115.992C377.218 118.674 374.33 121.356 372.877 124.876C370.678 130.258 372.299 136.367 373.883 142.289L374.181 143.425C377.144 154.712 378.765 166.352 378.97 178.011C378.951 178.569 378.523 179.016 377.945 179.016Z" fill="black"/>
<path class="right-eye" d="M238.634 115.135C238.354 113.515 239.528 111.988 241.224 111.708C242.92 111.429 244.522 112.49 244.783 114.111C245.063 115.731 243.889 117.258 242.193 117.538C240.516 117.817 238.913 116.755 238.634 115.135Z" fill="black"/>
<path d="M229.633 145.493C229.335 145.493 229.037 145.362 228.85 145.102C228.515 144.673 228.59 144.04 229.037 143.705L232.596 140.948C232.987 140.65 233.099 140.501 233.118 140.446C233.08 140.371 232.857 140.185 232.466 139.887C227.676 136.348 224.732 130.761 224.62 124.95C224.602 124.391 225.049 123.944 225.589 123.926C226.148 123.926 226.596 124.354 226.614 124.894C226.726 130.09 229.354 135.1 233.658 138.266C234.199 138.658 235.205 139.403 235.112 140.594C235.037 141.582 234.254 142.196 233.826 142.513L230.267 145.269C230.062 145.418 229.838 145.493 229.633 145.493Z" fill="black"/>
<path d="M209.359 121.058C209.172 121.058 208.986 121.002 208.837 120.909C208.371 120.611 208.222 119.996 208.52 119.53C210.943 115.675 215.527 113.031 220.204 112.826C223.055 112.695 226.298 113.794 227.062 116.513C227.211 117.035 226.913 117.594 226.372 117.743C225.85 117.892 225.291 117.594 225.142 117.053C224.695 115.452 222.347 114.725 220.297 114.819C216.254 115.005 212.303 117.258 210.216 120.592C210.03 120.89 209.694 121.058 209.359 121.058Z" fill="black"/>
<path d="M162.195 134.542C161.785 134.542 161.393 134.281 161.244 133.853C161.077 133.331 161.356 132.772 161.878 132.586L175.593 128.023C176.115 127.856 176.674 128.135 176.86 128.656C177.028 129.178 176.748 129.737 176.227 129.923L162.512 134.486C162.418 134.523 162.307 134.542 162.195 134.542Z" fill="black"/>
<path d="M171.046 371.405C168.829 344.996 166.593 326.148 164.375 299.739C161.17 317.655 151.48 352.855 147.492 371.982C185.488 373.193 210.235 374.404 243.05 378.631C236.733 383.623 231.664 390.178 228.757 397.311C225.869 404.445 224.919 412.192 224.136 419.847C183.606 418.487 143.784 417.817 103.999 419.083C99.5456 419.232 94.8125 419.325 91.011 417.016C88.1413 415.284 86.1661 412.36 84.9548 409.231C81.6379 400.664 83.669 391.072 85.7188 382.133C91.8496 355.612 103.701 305.289 114.602 280.351C119.298 269.605 124.963 259.082 133.069 250.589C150.045 232.84 175.276 226.248 199.65 220.511C200.712 226.583 207.123 230.196 213.142 231.518C218.508 232.691 224.266 232.691 229.335 230.606C234.404 228.52 238.689 224.087 241.112 216.824C259.802 215.129 271.617 215.185 279.853 216.395C290.736 217.978 301.301 225.894 308.606 233.846C323.793 250.403 331.676 264.334 347.645 283.536C361.379 248.839 369.336 211.851 368.628 173.206C372.057 181.046 415.904 180.283 420.562 167.842C417.488 213.9 414.32 260.498 400.307 304.469C395.797 318.624 390.02 332.704 380.368 343.99C370.696 355.276 356.553 363.49 341.701 363.061C326.849 362.652 317.327 358.573 307.749 340.228C306.109 342.835 304.451 345.461 303.649 348.553C303.538 368.202 305.382 391.091 305.662 410.386C261.852 417.314 215.899 411.447 171.885 408.616C171.792 395.617 171.997 382.58 171.046 371.405Z" fill="white"/>
<path d="M267.853 439.626C265.598 439.626 263.716 437.689 262.523 434.113L262.318 433.498C260.958 429.457 259.56 425.285 256.784 422.212C254.063 419.214 249.963 416.96 244.615 415.507C238.652 413.906 231.553 413.664 226.857 413.496C225.291 413.44 223.931 413.403 222.962 413.31C222.422 413.254 222.012 412.77 222.049 412.229C222.105 411.671 222.589 411.28 223.13 411.317C224.043 411.391 225.385 411.447 226.913 411.503C231.702 411.671 238.932 411.913 245.118 413.589C250.839 415.135 255.256 417.593 258.237 420.871C261.312 424.261 262.765 428.637 264.182 432.865L264.387 433.48C264.834 434.783 266.064 437.819 268.002 437.614C268.523 437.558 268.952 437.335 269.287 436.907C270.201 435.789 270.387 433.61 270.182 431.971C269.399 425.825 267.331 419.754 264.219 414.409C263.939 413.924 264.107 413.328 264.573 413.049C265.057 412.77 265.654 412.937 265.933 413.403C269.194 418.971 271.337 425.304 272.157 431.71C272.418 433.703 272.213 436.46 270.853 438.136C270.163 438.993 269.25 439.495 268.188 439.589C268.095 439.626 267.964 439.626 267.853 439.626Z" fill="black"/>
<path class="graf-circle" d="M217.483 545.877C212.452 545.877 208.371 542.041 208.371 537.329C208.371 532.617 212.452 528.78 217.483 528.78C222.515 528.78 226.596 532.617 226.596 537.329C226.596 542.041 222.515 545.877 217.483 545.877ZM217.483 530.773C213.551 530.773 210.365 533.716 210.365 537.329C210.365 540.942 213.551 543.885 217.483 543.885C221.415 543.885 224.602 540.942 224.602 537.329C224.602 533.716 221.415 530.773 217.483 530.773Z" fill="black"/>
<path class="graf-circle" d="M241.727 486.205C236.696 486.205 232.615 482.368 232.615 477.656C232.615 472.945 236.696 469.108 241.727 469.108C246.758 469.108 250.839 472.945 250.839 477.656C250.839 482.368 246.74 486.205 241.727 486.205ZM241.727 471.082C237.795 471.082 234.609 474.025 234.609 477.638C234.609 481.251 237.795 484.194 241.727 484.194C245.659 484.194 248.845 481.251 248.845 477.638C248.845 474.025 245.64 471.082 241.727 471.082Z" fill="black"/>
<path class="graf-circle" d="M274.934 507.027C274.934 502.855 278.568 499.466 283.058 499.466C287.549 499.466 291.183 502.855 291.183 507.027C291.183 511.199 287.549 514.588 283.058 514.588C278.568 514.57 274.934 511.199 274.934 507.027Z" fill="#FF7050"/>
<path class="graf-circle" d="M283.04 515.576C278.008 515.576 273.927 511.739 273.927 507.027C273.927 502.315 278.008 498.479 283.04 498.479C288.071 498.479 292.152 502.315 292.152 507.027C292.152 511.739 288.071 515.576 283.04 515.576ZM283.04 500.453C279.108 500.453 275.921 503.395 275.921 507.008C275.921 510.622 279.108 513.564 283.04 513.564C286.972 513.564 290.158 510.622 290.158 507.008C290.158 503.395 286.972 500.453 283.04 500.453Z" fill="black"/>
<path class="graf-circle" d="M310.283 475.31C305.252 475.31 301.171 471.473 301.171 466.761C301.171 462.049 305.252 458.213 310.283 458.213C315.314 458.213 319.395 462.049 319.395 466.761C319.395 471.473 315.296 475.31 310.283 475.31ZM310.283 460.187C306.351 460.187 303.165 463.13 303.165 466.743C303.165 470.356 306.351 473.299 310.283 473.299C314.215 473.299 317.402 470.356 317.402 466.743C317.402 463.13 314.196 460.187 310.283 460.187Z" fill="black"/>
<path d="M276.629 443.127C275.604 443.127 274.58 442.717 273.834 442.14C273.07 441.563 271.188 439.551 270.294 433.517C270.219 432.977 270.592 432.455 271.132 432.381C271.673 432.288 272.194 432.679 272.269 433.219C272.921 437.558 274.17 439.886 275.045 440.538C275.716 441.041 276.76 441.32 277.449 440.873C278.139 440.427 278.418 439.346 278.586 438.341C280.244 428.786 278.791 418.822 274.356 409.529C274.17 409.138 274.263 408.672 274.561 408.374C274.878 408.076 275.344 408.02 275.716 408.225C279.89 410.479 283.394 414.613 285.537 419.884C287.493 424.67 288.22 429.792 288.723 434.634C288.835 435.64 288.928 436.571 289.338 437.316C289.636 437.856 290.288 438.396 290.866 438.285C291.686 438.154 292.189 436.944 292.469 435.957C295.543 425.061 293.065 413.626 285.835 405.357C285.462 404.947 285.518 404.314 285.928 403.942C286.338 403.569 286.972 403.625 287.344 404.035C295.022 412.807 297.668 424.95 294.388 436.497C293.754 438.732 292.692 439.998 291.202 440.24C289.841 440.482 288.351 439.663 287.586 438.266C286.99 437.167 286.86 435.938 286.748 434.858C286.263 430.146 285.555 425.173 283.692 420.629C282.22 417.034 280.095 414.036 277.542 411.875C281.046 420.61 282.071 429.792 280.524 438.676C280.282 440.11 279.835 441.674 278.493 442.55C277.934 442.978 277.282 443.127 276.629 443.127Z" fill="black"/>
<path class="graf" d="M157.741 534.665H157.723L137.933 534.274C137.672 534.274 137.411 534.163 137.225 533.958C137.038 533.772 136.945 533.511 136.945 533.231L138.995 463.297C139.013 462.757 139.461 462.329 140.001 462.329H159.195C159.456 462.329 159.716 462.441 159.903 462.627C160.089 462.813 160.201 463.074 160.182 463.353L158.71 533.678C158.729 534.237 158.282 534.665 157.741 534.665ZM138.976 532.3L156.754 532.654L158.188 464.34H140.97L138.976 532.3Z" fill="black"/>
<path class="graf" d="M123.193 531.63C123.174 531.63 123.156 531.63 123.137 531.63L103.813 530.605C103.552 530.587 103.291 530.475 103.123 530.27C102.937 530.065 102.863 529.805 102.881 529.544L104.931 496.56C104.968 496.02 105.434 495.61 105.975 495.629L124.236 496.579C124.777 496.598 125.205 497.063 125.187 497.603L124.199 530.68C124.199 530.941 124.069 531.201 123.882 531.388C123.677 531.537 123.435 531.63 123.193 531.63ZM104.931 528.668L122.224 529.581L123.156 498.497L106.869 497.659L104.931 528.668Z" fill="black"/>
<path d="M306.799 433.517C306.687 433.517 306.575 433.517 306.445 433.498C305.01 433.312 304.171 432.027 303.854 431.543L303.78 431.431C302.625 429.792 301.6 428.358 300.687 427.073C296.662 421.374 294.817 418.767 291.91 415.507C291.537 415.098 291.574 414.464 291.984 414.092C292.394 413.719 293.028 413.757 293.4 414.166C296.382 417.519 298.357 420.312 302.326 425.9C303.24 427.185 304.246 428.619 305.42 430.258C305.457 430.295 305.494 430.37 305.532 430.425C305.718 430.723 306.184 431.413 306.706 431.487C307.134 431.543 307.619 431.189 307.954 430.872C308.513 430.37 308.811 427.874 308.588 426.626C306.501 414.707 298.283 405.692 286.562 395.822C282.704 392.562 279.071 390.346 275.474 389.005C271.561 387.571 267.312 387.05 263.213 386.547C258.535 385.969 253.746 385.541 249.125 385.113C244.485 384.684 239.677 384.237 234.963 383.679C234.422 383.604 234.031 383.12 234.087 382.561C234.161 382.021 234.646 381.63 235.205 381.686C239.882 382.263 244.671 382.691 249.293 383.12C253.933 383.548 258.74 383.995 263.455 384.554C267.685 385.075 272.045 385.597 276.182 387.124C280.002 388.539 283.822 390.867 287.866 394.276C299.904 404.426 308.383 413.738 310.563 426.254C310.786 427.501 310.731 431.021 309.314 432.325C308.476 433.145 307.637 433.517 306.799 433.517Z" fill="black"/>
<path class="graf" d="M57.003 524.087H56.9844L37.6604 523.584C37.12 523.565 36.6914 523.118 36.6914 522.578L36.8591 507.027C36.8591 506.487 37.3063 506.04 37.8654 506.04H57.0589C57.3198 506.04 57.5807 506.152 57.767 506.338C57.9534 506.524 58.0652 506.785 58.0652 507.046L58.0093 523.1C58.0093 523.36 57.8975 523.621 57.7111 523.807C57.5248 523.975 57.2639 524.087 57.003 524.087ZM38.7039 521.61L56.0154 522.057L56.0527 508.014H38.8344L38.7039 521.61Z" fill="black"/>
<path d="M296.55 356.971C296.345 356.971 296.121 356.897 295.953 356.767C295.506 356.431 295.432 355.798 295.767 355.37C303.258 345.573 310.712 335.535 317.923 325.552C318.687 324.491 319.638 323.168 319.712 321.827C319.768 320.766 319.302 319.63 318.892 318.624L298.376 268.99C298.171 268.487 298.413 267.891 298.916 267.687C299.419 267.482 300.016 267.724 300.221 268.227L320.737 317.86C321.203 318.996 321.799 320.431 321.706 321.939C321.594 323.876 320.402 325.515 319.545 326.707C312.314 336.708 304.861 346.747 297.37 356.562C297.146 356.841 296.848 356.971 296.55 356.971Z" fill="black"/>
<path class="graf" d="M72.1342 486.82L71.0161 525.912L90.3401 527.216L91.8122 487.565L72.1342 486.82Z" fill="#FF7050"/>
<path class="graf" d="M90.3401 528.203C90.3215 528.203 90.3029 528.203 90.2656 528.203L70.9416 526.918C70.4012 526.881 69.9913 526.434 70.0099 525.893L71.128 486.801C71.128 486.54 71.2398 486.28 71.4447 486.093C71.6497 485.907 71.892 485.814 72.1715 485.833L91.8495 486.578C92.4086 486.596 92.8372 487.062 92.8185 487.621L91.3464 527.272C91.3278 527.532 91.216 527.793 91.011 527.979C90.8246 528.128 90.5824 528.203 90.3401 528.203ZM72.041 524.981L89.3711 526.136L90.7687 488.515L73.1032 487.844L72.041 524.981Z" fill="black"/>
<path class="graf-line" d="M407.835 503.023C407.742 503.023 407.63 503.004 407.537 502.985C407.015 502.818 406.717 502.259 406.885 501.738L423.544 449.124C423.656 448.789 423.935 448.528 424.271 448.454C424.625 448.379 424.979 448.491 425.221 448.752C431.874 455.847 437.706 461.23 443.446 465.625C450.061 450.428 455.502 435.957 460.03 421.411C460.142 421.057 460.44 420.778 460.832 420.722C461.204 420.666 461.577 420.815 461.801 421.132C470.261 432.846 478.87 445.604 488.821 461.155L509.635 402.414C509.822 401.893 510.381 401.632 510.903 401.8C511.424 401.986 511.685 402.545 511.517 403.066L490.032 463.744C489.901 464.098 489.585 464.359 489.212 464.396C488.821 464.452 488.467 464.266 488.262 463.949C478.329 448.36 469.739 435.584 461.372 423.907C456.825 438.247 451.384 452.57 444.787 467.581C444.657 467.86 444.415 468.065 444.135 468.139C443.837 468.214 443.52 468.158 443.278 467.972C437.445 463.632 431.594 458.324 424.942 451.34L408.804 502.334C408.655 502.743 408.264 503.023 407.835 503.023Z" fill="black"/>
<path class="graf-line" d="M438.451 493.524C438.34 493.524 438.228 493.506 438.116 493.469C437.203 493.152 436.364 492.612 435.675 492.109L431.221 488.943C430.774 488.626 430.662 487.993 430.979 487.546C431.296 487.099 431.929 486.987 432.377 487.304L436.83 490.47C437.408 490.88 438.097 491.345 438.768 491.569C439.29 491.755 439.57 492.314 439.383 492.835C439.253 493.282 438.861 493.524 438.451 493.524ZM444.228 489.129C444.042 489.129 443.837 489.073 443.669 488.961C443.222 488.645 443.091 488.03 443.408 487.583L447.899 480.99C448.216 480.543 448.831 480.413 449.278 480.73C449.725 481.046 449.856 481.661 449.539 482.108L445.048 488.701C444.862 488.98 444.545 489.129 444.228 489.129ZM425.296 484.51C425.091 484.51 424.886 484.454 424.718 484.324L418.214 479.705C417.767 479.389 417.655 478.755 417.972 478.308C418.289 477.861 418.923 477.75 419.37 478.066L425.873 482.685C426.32 483.002 426.432 483.635 426.115 484.082C425.929 484.361 425.612 484.51 425.296 484.51ZM481.218 479.258C480.994 479.258 480.752 479.184 480.566 479.016C478.553 477.303 476.485 475.608 474.435 473.932C474.006 473.578 473.95 472.963 474.286 472.535C474.64 472.106 475.255 472.032 475.683 472.386C477.752 474.062 479.82 475.775 481.851 477.489C482.28 477.843 482.317 478.476 481.963 478.904C481.795 479.146 481.516 479.258 481.218 479.258ZM453.21 475.924C453.024 475.924 452.819 475.869 452.651 475.757C452.204 475.44 452.073 474.826 452.39 474.379L456.881 467.786C457.198 467.339 457.813 467.208 458.26 467.525C458.707 467.842 458.838 468.456 458.521 468.903L454.03 475.496C453.844 475.775 453.545 475.924 453.21 475.924ZM412.289 475.254C412.084 475.254 411.879 475.198 411.711 475.068L405.208 470.449C404.76 470.132 404.649 469.499 404.965 469.052C405.282 468.605 405.916 468.493 406.363 468.81L412.866 473.429C413.314 473.745 413.425 474.379 413.109 474.826C412.904 475.105 412.605 475.254 412.289 475.254ZM468.826 469.201C468.602 469.201 468.397 469.127 468.211 468.996C466.124 467.376 463.999 465.756 461.875 464.173C461.428 463.837 461.335 463.223 461.67 462.776C462.006 462.329 462.62 462.236 463.068 462.571C465.211 464.173 467.335 465.793 469.441 467.432C469.869 467.767 469.962 468.4 469.608 468.829C469.422 469.071 469.124 469.201 468.826 469.201Z" fill="black"/>
<path d="M74.6313 438.173C60.3759 438.117 46.2882 435.826 32.7596 431.356C32.2378 431.189 31.9583 430.611 32.126 430.09C32.2937 429.569 32.8714 429.289 33.3932 429.457C46.7355 433.852 60.5995 436.124 74.65 436.18C75.209 436.18 75.6562 436.627 75.6376 437.186C75.6376 437.726 75.1904 438.173 74.6313 438.173Z" fill="black"/>
<path d="M55.624 450.838C55.6054 450.838 55.5681 450.838 55.5495 450.838C48.133 450.26 40.7164 449.05 33.4862 447.224C32.9458 447.094 32.6291 446.554 32.7595 446.014C32.8899 445.474 33.4303 445.157 33.9707 445.288C41.0891 447.075 48.3938 448.267 55.6986 448.845C56.2576 448.882 56.6676 449.366 56.6117 449.925C56.5744 450.428 56.1458 450.838 55.624 450.838Z" fill="black"/>
<path d="M47.7231 467.506C47.6859 467.506 47.6672 467.506 47.63 467.506C41.6483 466.947 35.7412 465.644 30.0763 463.595C29.5545 463.409 29.2936 462.832 29.48 462.31C29.6663 461.789 30.244 461.528 30.7657 461.714C36.2629 463.688 42.0023 464.973 47.835 465.513C48.3754 465.569 48.7853 466.054 48.7294 466.594C48.6549 467.115 48.2263 467.506 47.7231 467.506Z" fill="black"/>
<path d="M494.728 328.215C494.579 328.215 494.448 328.178 494.299 328.122C485.001 323.801 474.658 321.604 464.409 321.716C463.832 321.716 463.403 321.287 463.403 320.728C463.403 320.17 463.832 319.723 464.391 319.723C474.938 319.611 485.578 321.865 495.156 326.316C495.659 326.539 495.864 327.135 495.641 327.638C495.454 328.011 495.1 328.215 494.728 328.215Z" fill="black"/>
<path d="M300.463 407.965C299.922 407.965 299.475 407.536 299.457 406.996C299.438 406.437 299.885 405.99 300.426 405.972L304.264 405.897C302.96 397.405 302.997 387.72 303.016 377.495C303.053 368.369 303.072 358.927 302.233 348.982C302.196 348.441 302.587 347.957 303.146 347.901C303.705 347.864 304.171 348.255 304.227 348.814C305.066 358.852 305.047 368.332 305.01 377.514C304.972 388.111 304.935 398.131 306.407 406.717C306.463 406.996 306.37 407.294 306.184 407.518C305.997 407.741 305.718 407.872 305.438 407.872L300.463 407.983C300.482 407.965 300.482 407.965 300.463 407.965Z" fill="black"/>
<path d="M482.746 338.831C482.653 338.831 482.559 338.813 482.466 338.794C476.596 337.118 470.279 336.559 464.186 337.192C463.645 337.248 463.142 336.857 463.086 336.298C463.03 335.758 463.422 335.255 463.981 335.199C470.317 334.548 476.895 335.106 483.007 336.857C483.528 337.006 483.845 337.565 483.696 338.086C483.584 338.552 483.193 338.831 482.746 338.831Z" fill="black"/>
<path d="M494.057 356.636C493.908 356.636 493.759 356.599 493.609 356.524C485.261 352.371 475.571 350.639 466.291 351.663C465.732 351.719 465.248 351.328 465.192 350.788C465.136 350.248 465.527 349.745 466.068 349.689C475.72 348.628 485.802 350.416 494.485 354.755C494.97 354.997 495.175 355.593 494.933 356.096C494.783 356.431 494.429 356.636 494.057 356.636Z" fill="black"/>
<path class="graf-circle" d="M219.869 530.922C219.738 530.922 219.608 530.903 219.496 530.847C218.993 530.643 218.751 530.047 218.956 529.544L237.236 485.069C237.441 484.566 238.037 484.324 238.541 484.529C239.044 484.734 239.286 485.33 239.081 485.833L220.801 530.307C220.633 530.698 220.26 530.922 219.869 530.922Z" fill="black"/>
<path class="graf-circle" d="M276.611 502.781C276.406 502.781 276.201 502.725 276.014 502.594L248.398 482.201C247.951 481.866 247.858 481.251 248.193 480.804C248.528 480.357 249.143 480.264 249.591 480.599L277.188 500.993C277.636 501.328 277.729 501.943 277.393 502.39C277.207 502.65 276.909 502.781 276.611 502.781Z" fill="black"/>
<path class="graf-circle" d="M287.978 501.328C287.773 501.328 287.568 501.272 287.4 501.142C286.953 500.825 286.841 500.192 287.158 499.745L305.792 473.466C306.109 473.019 306.743 472.907 307.19 473.224C307.637 473.541 307.749 474.174 307.432 474.621L288.798 500.9C288.593 501.179 288.295 501.328 287.978 501.328Z" fill="black"/>
<path d="M224.155 420.834C224.136 420.834 224.136 420.834 224.117 420.834C175.519 419.195 138.473 418.971 104.055 420.07C99.8625 420.201 94.6635 420.368 90.5266 417.854C87.0047 415.712 85.0667 412.174 84.0604 409.566C80.5012 400.422 82.8864 390.141 84.7872 381.89C89.5762 361.162 102.285 306.09 113.727 279.941C119.578 266.532 125.336 257.257 132.398 249.9C149.039 232.505 172.63 225.856 199.483 219.543C199.743 219.487 200.042 219.524 200.265 219.673C200.489 219.822 200.657 220.064 200.694 220.344C201.681 226.043 207.905 229.339 213.421 230.55C217.465 231.425 223.447 232.002 229.018 229.693C234.18 227.57 238.056 223.007 240.236 216.526C240.367 216.153 240.702 215.892 241.093 215.855C258.74 214.253 271.114 214.123 280.077 215.427C293.661 217.401 305.122 228.501 309.408 233.194C317.942 242.506 324.185 250.999 330.8 259.995C335.775 266.755 340.9 273.721 347.385 281.617C361.51 245.393 368.33 208.945 367.678 173.243C367.678 172.74 368.032 172.33 368.516 172.237C369.001 172.163 369.485 172.442 369.634 172.908C370.547 175.701 377.759 177.564 387.635 177.564C387.728 177.564 387.822 177.564 387.915 177.564C401.965 177.508 417.693 173.746 419.668 167.544C419.817 167.06 420.32 166.78 420.805 166.873C421.308 166.966 421.643 167.413 421.606 167.916C418.568 213.397 415.438 260.442 401.313 304.786C397.456 316.91 391.679 332.387 381.169 344.642C370.398 357.195 355.658 364.477 341.72 364.067C327.036 363.657 316.768 359.634 307.749 340.358C307.507 339.855 307.73 339.26 308.234 339.036C308.737 338.794 309.333 339.017 309.557 339.52C318.184 357.977 327.539 361.683 341.776 362.074C355.099 362.428 369.28 355.444 379.66 343.338C389.927 331.363 395.611 316.11 399.412 304.171C413.071 261.261 416.407 215.725 419.37 171.511C413.425 177.284 398.201 179.519 387.915 179.556C384.393 179.594 374.218 179.314 369.709 176.036C369.97 211.609 362.889 247.889 348.633 283.908C348.503 284.243 348.205 284.467 347.869 284.523C347.515 284.579 347.161 284.448 346.937 284.169C339.875 275.695 334.452 268.301 329.197 261.149C322.619 252.191 316.395 243.736 307.935 234.517C303.78 229.991 292.73 219.263 279.779 217.382C271.095 216.116 259.057 216.246 241.913 217.773C239.51 224.497 235.317 229.246 229.782 231.537C224.993 233.511 219.179 233.846 212.993 232.505C207.179 231.239 200.619 227.756 198.961 221.722C172.835 227.886 149.915 234.479 133.852 251.278C126.976 258.467 121.329 267.556 115.571 280.742C104.223 306.723 91.5329 361.665 86.7624 382.337C84.9176 390.327 82.6256 400.273 85.9425 408.858C86.837 411.168 88.5513 414.315 91.5888 416.159C95.2225 418.357 99.8997 418.208 104.018 418.077C138.138 416.979 174.792 417.202 222.701 418.785C220.968 413.105 222.962 403.55 225.813 396.548L226.037 395.989C228.478 389.955 231.441 382.635 238.801 379.078C209.135 375.409 186.084 374.199 147.492 372.969C147.194 372.969 146.915 372.82 146.747 372.597C146.561 372.373 146.486 372.057 146.561 371.777C148.312 363.397 151.107 352.129 154.052 340.209C157.779 325.161 161.636 309.61 163.443 299.553C163.537 299.068 163.965 298.714 164.468 298.733C164.971 298.752 165.381 299.143 165.419 299.646C166.537 312.85 167.655 324.341 168.754 335.46C169.854 346.597 170.972 358.089 172.09 371.312C172.108 371.498 172.071 371.684 171.978 371.852C198.681 372.969 218.378 374.441 243.218 377.626C243.702 377.681 244.056 378.072 244.094 378.557C244.112 379.041 243.795 379.469 243.33 379.581C233.901 381.872 230.714 389.769 227.9 396.734L227.677 397.293C224.639 404.798 222.776 414.781 225.086 419.381C225.254 419.698 225.217 420.07 225.03 420.368C224.807 420.666 224.49 420.834 224.155 420.834ZM148.704 371.014C156.4 371.256 163.481 371.517 170.115 371.777C170.077 371.684 170.059 371.591 170.04 371.48C168.922 358.275 167.804 346.784 166.704 335.665C165.81 326.558 164.897 317.19 163.965 306.835C161.934 316.445 158.878 328.737 155.915 340.675C153.139 352.036 150.474 362.801 148.704 371.014Z" fill="black"/>
<path d="M245.472 384.442C245.416 384.442 245.379 384.442 245.323 384.424C244.783 384.349 244.392 383.846 244.485 383.287C244.652 382.189 244.354 381.034 243.702 380.121C243.385 379.693 243.013 379.451 242.826 379.507C242.305 379.656 241.745 379.339 241.596 378.799C241.447 378.259 241.764 377.719 242.305 377.57C243.348 377.29 244.503 377.812 245.323 378.929C246.292 380.252 246.702 381.947 246.46 383.548C246.385 384.088 245.957 384.442 245.472 384.442Z" fill="black"/>
<path d="M226.596 421.746C225.142 421.746 223.484 421.095 222.869 419.549C222.664 419.046 222.906 418.45 223.428 418.245C223.931 418.04 224.527 418.282 224.732 418.804C225.03 419.53 226.074 419.828 226.894 419.735C228.59 419.549 230.099 418.264 231.347 417.016C232.726 415.638 234.012 414.166 235.205 412.639C235.54 412.192 236.174 412.118 236.602 412.453C237.05 412.788 237.124 413.421 236.789 413.85C235.559 415.451 234.199 416.997 232.764 418.431C231.273 419.903 229.447 421.467 227.136 421.709C226.95 421.728 226.763 421.746 226.596 421.746Z" fill="black"/>
<path d="M368.516 173.932C368.013 173.932 367.584 173.541 367.529 173.038C367.454 172.256 367.715 171.436 368.274 170.728C368.74 170.151 369.336 169.741 369.839 169.425C372.075 168.009 374.647 167.134 377.293 166.873C377.833 166.817 378.337 167.227 378.393 167.767C378.448 168.307 378.038 168.81 377.498 168.866C375.169 169.09 372.895 169.872 370.92 171.12C370.547 171.362 370.119 171.641 369.839 171.995C369.616 172.274 369.485 172.61 369.522 172.852C369.578 173.392 369.187 173.895 368.628 173.95C368.591 173.913 368.553 173.932 368.516 173.932Z" fill="black"/>
<path d="M420.488 169.164H420.469C419.91 169.146 419.481 168.699 419.5 168.14C419.5 167.972 419.37 167.767 419.183 167.6C418.904 167.358 418.512 167.209 418.158 167.097C417.04 166.743 415.885 166.575 414.711 166.613C414.171 166.65 413.705 166.203 413.686 165.644C413.667 165.085 414.096 164.638 414.655 164.62C416.071 164.564 417.45 164.769 418.792 165.197C419.295 165.365 419.947 165.607 420.488 166.073C421.159 166.631 421.531 167.414 421.513 168.177C421.475 168.736 421.028 169.164 420.488 169.164Z" fill="black"/>
<path d="M215.378 242.86C206.769 242.86 198.234 237.888 194.134 230.289C193.874 229.805 194.06 229.19 194.544 228.929C195.029 228.669 195.625 228.855 195.905 229.339C199.93 236.807 208.669 241.501 217.111 240.774C217.67 240.719 218.136 241.128 218.192 241.687C218.248 242.227 217.838 242.711 217.279 242.767C216.645 242.842 216.011 242.86 215.378 242.86Z" fill="black"/>
<path d="M194.898 244.09C194.787 244.09 194.656 244.071 194.544 244.015C190.631 242.507 187.594 238.856 186.811 234.722C186.718 234.182 187.072 233.66 187.612 233.548C188.153 233.455 188.674 233.809 188.786 234.349C189.438 237.813 191.991 240.868 195.271 242.134C195.793 242.339 196.035 242.916 195.849 243.419C195.662 243.848 195.29 244.09 194.898 244.09Z" fill="black"/>
<path d="M142.48 66.8983C142.349 66.8983 142.219 66.8796 142.088 66.8238C141.585 66.6003 141.343 66.0229 141.566 65.5201C143.262 61.5531 146.151 57.8841 150.194 54.6249C153.828 51.7009 157.946 49.4287 161.878 47.3987C162.363 47.1379 162.978 47.3428 163.22 47.827C163.481 48.3112 163.276 48.9258 162.791 49.168C158.971 51.1421 154.946 53.3584 151.443 56.1707C147.66 59.2251 144.958 62.6333 143.393 66.2837C143.225 66.6748 142.852 66.8983 142.48 66.8983Z" fill="black"/>
<path d="M341.943 293.816C341.738 293.816 341.515 293.742 341.328 293.611C340.9 293.276 340.807 292.643 341.142 292.215C343.863 288.713 346.024 285.342 347.832 280.314C348.018 279.792 348.596 279.531 349.118 279.718C349.639 279.904 349.9 280.481 349.714 281.003C347.813 286.292 345.54 289.793 342.707 293.462C342.54 293.686 342.241 293.816 341.943 293.816Z" fill="black"/>
<path d="M133.013 374.106C132.529 374.106 132.1 373.752 132.025 373.268C131.932 372.727 132.324 372.206 132.864 372.131C139.162 371.163 144.641 370.865 151.797 371.126C152.356 371.144 152.784 371.61 152.766 372.15C152.747 372.709 152.3 373.156 151.741 373.119C144.716 372.876 139.349 373.156 133.181 374.106C133.106 374.106 133.069 374.106 133.013 374.106Z" fill="black"/>
<path d="M162.624 145.511C162.195 145.511 161.804 145.232 161.673 144.822C160.462 141.004 160.052 136.87 160.481 132.884C160.536 132.344 161.021 131.934 161.58 131.99C162.12 132.046 162.53 132.549 162.474 133.089C162.083 136.814 162.474 140.65 163.593 144.226C163.76 144.748 163.462 145.306 162.94 145.474C162.829 145.493 162.717 145.511 162.624 145.511Z" fill="black"/>
<g opacity="0.1294">
<path d="M179.413 40.1539C178.37 39.8373 177.345 40.1911 176.32 40.396C174.699 40.7871 173.077 41.2341 171.512 41.8114C162.158 44.8658 153.996 50.7697 147.269 57.8842C145.517 59.7839 143.989 61.8698 142.386 63.8998C141.511 65.1663 140.262 66.4141 140.076 68.0158C139.424 71.9641 144.939 73.8452 146.933 70.3811C150.008 65.1849 157.182 57.8469 162.512 54.4946C167.618 51.105 168.922 50.6021 173.935 48.7769C175.351 48.2182 176.804 47.734 178.258 47.3242C179.525 47.0635 180.848 46.5979 181.5 45.3873C182.73 43.4504 181.593 40.7312 179.413 40.1539Z" fill="black"/>
</g>
<g opacity="0.1294">
<path d="M243.404 86.8821C242.621 86.0813 241.392 85.8764 240.385 86.2861C240.031 86.3979 238.186 87.0683 237.776 87.2546C234.925 88.3162 232.112 89.5267 229.205 90.4021C223.577 91.9479 218.043 93.8476 212.266 94.7788C205.371 96.2687 199.073 96.8088 190.78 97.051C183.42 97.0882 177.624 95.859 169.723 93.5123C168.4 93.2144 166.928 92.339 165.624 93.0654C164.002 93.9593 164.319 96.604 166.145 97.051C174.773 99.5839 183.587 102.117 192.681 101.837C197.973 101.8 203.265 101.39 208.502 100.701C212.657 100.012 216.757 98.9879 220.856 98.0008C227.043 96.3991 233.267 94.9278 239.267 92.7115C240.255 92.3763 241.205 91.9665 242.156 91.5568C242.696 91.2961 243.311 91.0353 243.628 90.4952C244.522 89.4709 244.336 87.8319 243.404 86.8821Z" fill="black"/>
</g>
<g opacity="0.1294">
<path d="M236.696 205.612C236.398 204.532 236.081 203.451 235.783 202.352C235.056 200.341 234.441 198.274 234.068 196.169C233.528 194.214 233.006 192.258 232.466 190.303C232.41 190.079 232.428 189.874 232.522 189.707C232.466 189.558 232.41 189.409 232.354 189.278C232.186 188.831 232.354 188.477 232.652 188.291C231.292 187.304 229.503 188.645 228.049 189.315C227.024 189.781 225.832 190.321 223.54 190.861C221.695 191.364 215.825 191.625 214.129 191.997C213.533 192.165 213.123 192.537 212.899 192.984C211.875 192.537 210.868 192.109 209.843 191.662C209.191 191.383 208.52 191.085 207.868 190.787C206.284 190.805 204.719 190.731 203.154 190.601C203.154 190.787 203.154 190.992 203.154 191.159C203.154 191.401 203.172 191.644 203.116 191.867C203.079 192.035 203.023 192.202 202.967 192.37C202.762 193.003 202.539 193.636 202.352 194.27C202.483 194.381 202.632 194.493 202.8 194.586C208.651 197.547 214.67 200.211 220.428 203.377C223.297 204.978 226.186 206.524 229.074 208.051C230.341 208.629 231.59 209.411 232.95 209.69C232.932 209.69 232.932 209.69 232.913 209.69C232.932 209.69 232.969 209.69 232.987 209.709C233.043 209.728 233.099 209.728 233.137 209.746C233.248 209.765 233.341 209.784 233.453 209.802C233.602 209.839 233.751 209.839 233.919 209.858C233.938 209.858 233.956 209.858 233.994 209.858H233.975C234.255 209.858 234.515 209.839 234.776 209.765C235.801 209.523 236.453 208.741 236.714 207.828C236.882 207.623 237.012 207.4 237.106 207.176C236.957 206.636 236.826 206.133 236.696 205.612Z" fill="black"/>
</g>
<g opacity="0.1294">
<path d="M363.317 354.364C362.087 354.215 362.404 354.494 361.584 354.699C357.317 356.152 355.043 356.133 350.441 356.133C345.148 356.357 338.533 354.252 334.844 352.706C334.601 352.576 332.738 351.663 332.402 351.365C331.899 351.105 330.092 349.764 329.607 349.41C328.228 348.311 326.887 347.138 325.769 345.741C325.75 345.722 325.75 345.703 325.731 345.685C323.29 342.109 321.464 338.142 319.675 334.194C319.638 334.101 319.582 333.989 319.545 333.858C319.116 332.964 319.041 331.866 318.389 331.102C318.072 330.674 317.7 330.376 317.308 330.189C316.973 330.543 316.656 330.897 316.321 331.251C316.284 331.456 316.19 331.642 316.004 331.828C315.613 332.182 315.24 332.555 314.849 332.927C312.799 335.367 310.88 337.9 309.072 340.545C309.109 340.843 309.202 341.141 309.389 341.42C310.395 343.077 311.532 344.642 312.724 346.132C315.482 352.166 319.377 357.847 325.955 359.746C330.353 361.013 334.937 361.59 339.484 362.13C342.241 362.372 344.981 361.888 347.72 361.758C349.77 361.702 351.82 361.609 353.869 361.664C355.099 361.59 356.441 361.832 357.596 361.385C358.621 361.031 359.162 359.988 359.124 358.964C360.131 358.722 361.118 358.424 362.069 358.033C362.758 357.698 363.653 357.567 364.137 356.934C364.901 356.077 364.379 354.625 363.317 354.364Z" fill="black"/>
</g>
<g opacity="0.1294">
<path d="M420.451 167.711C420.246 166.966 419.649 166.408 418.922 166.184C418.773 166.147 418.624 166.128 418.475 166.11C418.103 164.843 416.37 164.396 415.438 165.365C414.637 166.389 413.779 167.395 412.829 168.307C412.587 168.549 412.326 168.773 412.084 169.015C410.705 169.537 409.009 170.095 406.903 170.654C404.574 171.473 402.245 172.367 399.785 172.721C397.008 173.131 396.766 173.131 393.337 173.485C390.374 173.895 388.977 174.137 384.672 174.23C381.523 174.23 381.467 173.932 378.15 173.429C378.113 173.429 378.094 173.41 378.057 173.41C378.169 172.665 377.964 171.883 377.442 171.287C377.461 171.269 377.479 171.269 377.498 171.25C379.715 168.922 376.38 165.607 374.051 167.804C373.119 168.549 373.547 168.289 371.814 169.369C371.181 169.779 370.491 170.17 370.1 170.84C370.044 170.933 370.026 171.026 369.988 171.12C369.895 171.12 369.802 171.12 369.709 171.12C367.789 171.287 367.23 174.062 368.926 174.993C373.473 177.377 378.56 178.737 383.703 178.867C385.455 178.867 387.207 178.588 388.958 178.607C390.635 178.588 392.331 178.681 394.008 178.495C397.493 178.104 400.959 177.433 404.388 176.763C404.462 176.744 404.499 176.744 404.537 176.744C404.425 176.763 404.276 176.781 404.145 176.8C404.294 176.781 404.425 176.763 404.574 176.744C404.798 176.707 404.742 176.725 404.593 176.744C406.195 176.539 407.816 176.316 409.344 175.776C413.798 174.211 418.438 172.423 419.631 170.337C419.854 170.039 420.041 169.741 420.208 169.425V169.443C420.544 168.903 420.618 168.27 420.451 167.711Z" fill="black"/>
</g>
<g opacity="0.1294">
<path d="M414.525 128.861C414.45 127.762 413.22 126.999 412.195 127.297C411.003 127.632 410.742 128.973 410.127 129.886C409.847 130.37 409.549 130.835 409.232 131.282C408.804 131.431 408.878 131.599 408.263 132.009C408.226 132.046 408.189 132.065 408.152 132.102C407.052 132.959 407.574 132.642 405.86 133.778C405.636 133.946 405.077 134.225 404.741 134.393C402.095 135.1 403.027 134.709 401.35 134.914C398.816 134.951 398.089 134.225 394.399 134.169C393.561 134.206 392.722 134.337 391.884 134.337C390.877 134.039 391.157 134.169 389.275 133.07C389.256 133.052 389.238 133.052 389.219 133.033C388.38 132.363 387.877 131.245 386.852 130.854C384.244 129.644 381.877 133.182 383.927 135.175C385.734 137.54 388.585 139.309 391.548 139.719C391.846 139.756 392.145 139.794 392.461 139.794C395.666 139.831 395.052 139.719 397.604 140.203C399.375 140.446 398.573 140.464 401.238 140.744C402.673 140.725 404.071 140.334 405.375 139.719C406.978 139.011 408.394 137.95 409.68 136.758C409.847 136.665 410.015 136.553 410.183 136.404C410.332 136.218 410.481 136.032 410.611 135.845C410.63 135.827 410.649 135.808 410.686 135.771C411.245 135.156 412.009 134.56 412.233 133.741C412.773 132.996 413.276 132.214 413.705 131.394C414.04 130.575 414.674 129.755 414.525 128.861Z" fill="black"/>
</g>
<g opacity="0.1294">
<path d="M408.245 132.027C408.618 131.729 408.767 131.618 408.245 132.027V132.027Z" fill="black"/>
</g>
<g opacity="0.1294">
<path d="M391.325 139.701C391.176 139.682 391.008 139.645 390.933 139.645C391.064 139.663 391.194 139.682 391.325 139.701Z" fill="black"/>
</g>
<g opacity="0.1294">
<path d="M391.567 139.738C391.492 139.719 391.399 139.719 391.325 139.701C391.492 139.738 391.642 139.757 391.567 139.738Z" fill="black"/>
</g>
<g opacity="0.1294">
<path d="M389.275 104.221C388.94 102.917 387.337 102.266 386.182 102.973C385.008 103.793 384.71 105.599 383.722 106.661C382.399 108.132 376.138 113.794 373.827 117.109C372.877 119.102 375.635 120.946 377.163 119.344C379.902 116.234 382.79 113.235 385.902 110.479C387.169 109.268 388.12 107.816 388.865 106.233C389.2 105.637 389.499 104.948 389.275 104.221Z" fill="black"/>
</g>
<g opacity="0.1294">
<path d="M246.572 381.015C246.013 380.065 244.876 379.86 243.87 379.767C242.193 379.637 240.497 379.432 238.801 379.6C237.963 379.618 237.087 379.749 236.472 380.401C235.745 381.09 235.578 382.058 235.839 382.933C235.037 383.585 234.292 384.293 233.584 385.057C229.969 389.042 227.36 393.866 225.459 398.876C224.304 402.47 224.397 402.917 223.689 406.344C222.757 411.131 222.478 415.396 223.819 418.524C225.795 421.784 229.298 420.145 231.59 418.189C231.944 417.928 232.298 417.668 232.652 417.388C233.938 416.476 234.907 415.153 234.068 413.589C233.472 412.565 232.279 412.304 231.161 412.472C230.174 412.527 229.037 412.397 228.292 413.198C228.087 413.44 227.919 413.682 227.807 413.924C227.788 413.831 227.77 413.757 227.77 413.701C227.77 413.664 227.751 413.608 227.751 413.57C227.546 410.274 227.919 410.088 228.552 406.679C229.596 401.39 230.994 398.224 233.006 394.536C235.168 390.7 235.876 389.75 238.69 386.751C240.348 385.373 239.565 385.82 241.28 385.094C241.969 384.796 242.789 384.703 243.479 384.386C243.851 384.349 244.243 384.33 244.615 384.293C244.671 384.274 244.69 384.274 244.727 384.274C246.33 384.293 247.429 382.375 246.572 381.015Z" fill="black"/>
</g>
<g opacity="0.1294">
<path d="M157.872 319.425C156.083 319.425 155.896 321.455 155.486 322.777C154.704 325.496 154.07 328.271 153.25 330.99C151.219 338.664 148.163 345.424 146.411 349.54C145.778 351.328 141.548 359.728 139.33 363.751C138.678 364.98 138.026 366.209 137.318 367.401C136.871 368.183 136.218 368.947 136.2 369.878C136.032 370.865 136.256 371.722 136.722 372.411C139.386 371.852 142.163 371.796 144.865 371.778C145.033 371.685 145.182 371.554 145.331 371.405C148.704 368.593 149.971 364.179 150.958 360.082C151.238 358.983 151.443 357.865 151.666 356.748C151.853 356.096 151.946 355.37 151.555 354.755C151.387 354.438 151.107 354.196 150.809 354.047C152.71 348.516 154.517 342.966 156.325 337.397C157.574 333.337 158.244 329.147 159.046 324.993C159.232 323.69 159.717 322.367 159.698 321.045C159.661 320.133 158.766 319.443 157.872 319.425Z" fill="black"/>
</g>
<g opacity="0.1294">
<path d="M252.815 418.413C249.908 417.277 246.348 414.8 241.41 414.371C241.578 414.39 241.708 414.408 241.82 414.427C241.429 414.39 240.684 414.315 240.311 414.371C239.044 414.408 237.721 414.632 236.658 415.377C234.46 417.09 232 420.145 231.348 420.256C231.329 420.275 231.31 420.275 231.292 420.294C230.994 420.48 230.677 420.648 230.341 420.815C229.689 421.057 229 421.244 228.31 421.355C224.881 421.579 221.434 421.001 218.024 420.703C214.427 420.312 210.812 420.312 207.216 420.052C203.154 419.791 199.11 419.344 195.066 418.99C187.799 418.152 180.494 418.394 173.189 418.04C167.413 417.63 161.617 417.966 155.841 417.854C145.89 417.798 135.604 418.264 125.671 418.878C119.019 419.437 104.577 420.014 98.819 418.171C97.2723 417.891 95.6325 416.625 94.1045 417.444C92.5019 418.319 92.8001 420.964 94.6262 421.392C99.1731 423.013 103.85 424.186 108.658 424.559C112.366 425.117 120.491 425.304 126.51 424.875C132.138 424.466 137.765 424.54 143.393 424.223C149.43 423.758 155.487 424.074 161.524 424.298C165.139 424.354 168.773 424.242 172.407 424.428C177.513 424.689 182.637 424.54 187.743 424.708C194.787 425.136 201.812 425.937 208.856 426.291C212.266 426.44 215.676 426.477 219.067 426.887C223.633 427.39 228.441 427.688 232.782 425.937C235.671 424.968 237.534 422.454 239.584 420.35C239.659 420.35 239.733 420.35 239.808 420.368C241.708 420.778 241.038 420.443 244.038 421.318C250.318 423.05 254.1 425.136 258.442 429.159C260.026 430.872 259.393 430.034 260.287 431.58C260.585 432.176 260.809 432.846 261.405 433.182C263.119 434.709 266.101 433.2 266.008 430.928C265.188 425.751 257.231 420.685 252.815 418.413Z" fill="black"/>
</g>
<g opacity="0.1294">
<path d="M517.07 511.776C518.878 509.97 520.667 508.126 522.474 506.319C524.263 504.513 526.052 502.687 527.822 500.862C528.624 500.024 529.406 499.186 530.208 498.348C530.189 498.143 530.152 497.957 530.115 497.752C530.077 497.51 530.04 497.305 530.021 497.175C529.984 496.802 529.965 496.411 529.984 496.02C529.854 491.792 529.574 491.289 529.332 487.769C529.183 486.019 528.605 479.202 527.972 475.049C527.972 474.658 527.878 474.285 527.729 473.95C527.45 469.127 527.226 464.284 527.263 459.442C527.263 458.418 527.282 457.412 527.319 456.388C526.909 451.005 526.779 445.623 526.909 440.24C526.704 436.553 526.611 432.846 526.537 429.159C526.369 421.15 526.332 413.123 526.444 405.096C526.462 403.83 526.462 402.563 526.462 401.316C526.425 400.608 526.406 399.9 526.369 399.155C526.22 392.842 525.922 386.547 526.183 380.233C526.257 378.687 526.332 377.123 526.406 375.577C526.406 369.356 526.425 363.154 526.63 356.934C526.76 353.004 527.152 349.093 527.263 345.163C527.357 341.867 527.338 338.552 527.152 335.255C526.127 334.92 524.971 335.311 524.375 336.652C522.996 340.6 522.512 344.921 521.729 349.093C520.555 356.208 519.735 363.434 519.549 370.697C519.437 374.888 519.12 379.06 518.897 383.231C518.747 387.515 518.729 391.799 518.542 396.082C518.077 411.112 517.294 426.16 517.592 441.227C517.909 450.409 518.319 459.572 518.617 468.754C518.636 475.831 518.524 482.927 518.561 490.004C517.965 496.802 516.325 506.096 514.592 510.826C514.294 511.72 514.163 512.037 513.455 513.937C513.213 514.495 512.915 515.147 512.896 515.78C514.257 514.384 515.636 513.061 517.07 511.776Z" fill="black"/>
</g>
</g>
<defs>
<clipPath id="clip0_54_24709">
<rect width="598" height="574" fill="white"/>
</clipPath>
</defs>
</svg>
