<svg width="619" height="485" viewBox="0 0 619 485" fill="none" xmlns="http://www.w3.org/2000/svg">
<g clip-path="url(#clip0_54_24533)">
<path d="M363.191 1.40079C364.229 93.1979 363.191 186.359 363.191 279.994C88.4259 279.994 84.5291 280.721 2.20334 279.612C0.728356 186.559 0.236696 80.3907 2.64037 2.32859C89.1179 2.32859 248.98 0.0727725 363.191 1.40079Z" fill="white"/>
<path d="M93.3426 281.213C58.7807 281.213 37.8214 281.067 2.18517 280.594C1.6571 280.594 1.23827 280.158 1.22006 279.63C0.200325 214.812 -1.11077 92.5794 1.67531 2.29226C1.69351 1.7647 2.13055 1.34628 2.65863 1.34628C32.7409 1.34628 72.4744 1.0734 114.539 0.764133C196.191 0.181987 288.732 -0.454735 363.209 0.418484C363.737 0.418484 364.174 0.855093 364.174 1.38266C364.866 62.5079 364.63 125.434 364.411 186.305C364.302 216.977 364.174 248.704 364.174 279.994C364.174 280.54 363.737 280.976 363.191 280.976C261.927 280.976 198.558 281.067 152.287 281.14C127.941 281.176 109.203 281.213 93.3426 281.213ZM3.15029 278.648C54.4286 279.339 75.4243 279.303 152.269 279.193C198.394 279.121 261.509 279.03 362.208 279.03C362.208 248.049 362.335 216.667 362.445 186.305C362.663 125.762 362.9 63.181 362.226 2.36503C287.931 1.51001 195.826 2.16492 114.539 2.72887C72.9114 3.01995 33.5604 3.29283 3.58732 3.29283C0.855872 93.016 2.13055 213.829 3.15029 278.648Z" fill="black"/>
<path d="M363.464 34.5467H363.446C278.68 32.3818 113.064 32.4 14.1307 32.4H2.18522C1.63894 32.4 1.2019 31.9634 1.2019 31.4177C1.2019 30.8719 1.63894 30.4353 2.18522 30.4353H14.1125C113.064 30.4171 278.698 30.4171 363.483 32.582C364.029 32.6002 364.448 33.0368 364.429 33.5825C364.429 34.1283 363.992 34.5467 363.464 34.5467Z" fill="black"/>
<path d="M343.343 26.2693C338.408 26.2693 334.384 22.2489 334.384 17.3188C334.384 12.3888 338.408 8.36835 343.343 8.36835C348.277 8.36835 352.302 12.3888 352.302 17.3188C352.302 22.2489 348.277 26.2693 343.343 26.2693ZM343.343 10.3149C339.482 10.3149 336.332 13.4621 336.332 17.3188C336.332 21.1756 339.482 24.3228 343.343 24.3228C347.203 24.3228 350.353 21.1756 350.353 17.3188C350.353 13.4621 347.203 10.3149 343.343 10.3149Z" fill="black"/>
<path d="M308.526 26.2693C303.591 26.2693 299.567 22.2489 299.567 17.3188C299.567 12.3888 303.591 8.36835 308.526 8.36835C313.461 8.36835 317.485 12.3888 317.485 17.3188C317.485 22.2489 313.461 26.2693 308.526 26.2693ZM308.526 10.3149C304.665 10.3149 301.515 13.4621 301.515 17.3188C301.515 21.1756 304.665 24.3228 308.526 24.3228C312.386 24.3228 315.537 21.1756 315.537 17.3188C315.537 13.4621 312.386 10.3149 308.526 10.3149Z" fill="black"/>
<path d="M271.815 26.2693C266.88 26.2693 262.856 22.2489 262.856 17.3188C262.856 12.3888 266.88 8.36835 271.815 8.36835C276.75 8.36835 280.774 12.3888 280.774 17.3188C280.774 22.2489 276.75 26.2693 271.815 26.2693ZM271.815 10.3149C267.955 10.3149 264.804 13.4621 264.804 17.3188C264.804 21.1756 267.955 24.3228 271.815 24.3228C275.676 24.3228 278.826 21.1756 278.826 17.3188C278.826 13.4621 275.676 10.3149 271.815 10.3149Z" fill="black"/>
<path d="M40.8989 142.753C40.735 142.753 40.5712 142.717 40.4073 142.626C39.9338 142.353 39.7881 141.771 40.0431 141.298C53.154 118.539 65.4455 96.2178 77.6278 73.0411C77.7916 72.7318 78.1194 72.5317 78.4654 72.5135C78.8478 72.4953 79.1574 72.6954 79.3213 73.0047L79.4487 73.2412C86.7144 85.7028 94.2167 98.6009 101.792 111.736C115.613 95.6902 129.361 79.9723 143.911 63.3447L147.644 59.0878C147.862 58.8331 148.19 58.7058 148.518 58.7603C148.846 58.8149 149.137 59.0332 149.264 59.3243C155.838 74.2782 162.63 89.7232 169.914 105.769L195.426 82.2463C195.954 81.7733 196.664 81.1184 197.647 80.9546C199.796 80.6272 201.18 82.883 201.635 83.6107C206.971 92.2701 212.015 101.093 216.877 109.643C219.699 114.592 222.376 119.285 225.053 123.851C234.85 106.005 245.229 88.2133 255.955 70.9308C256.246 70.476 256.847 70.3305 257.302 70.6215C257.757 70.9126 257.903 71.513 257.612 71.9678C246.613 89.705 235.942 107.988 225.927 126.307C225.763 126.617 225.435 126.817 225.089 126.817C224.707 126.799 224.416 126.635 224.233 126.344C221.265 121.305 218.297 116.12 215.165 110.626C210.303 102.094 205.277 93.2888 199.96 84.6476C199.195 83.3924 198.503 82.8102 197.921 82.883C197.556 82.9376 197.156 83.2832 196.737 83.6834L170.278 108.152C170.042 108.37 169.732 108.461 169.423 108.388C169.113 108.334 168.858 108.115 168.731 107.842C161.465 91.8335 154.691 76.443 148.135 61.5437L145.422 64.6546C130.563 81.6459 116.524 97.6731 102.411 114.082C102.211 114.319 101.901 114.446 101.573 114.41C101.264 114.373 100.972 114.192 100.827 113.919C93.288 100.82 85.8039 87.9768 78.5564 75.5334C66.6473 98.1643 54.5926 120.013 41.7548 142.28C41.5727 142.589 41.2449 142.753 40.8989 142.753Z" fill="black"/>
<path d="M81.5973 156.051C81.2696 156.051 80.96 155.888 80.7779 155.597C79.394 153.377 78.01 151.176 76.6443 148.993C76.3529 148.538 76.4986 147.938 76.9539 147.647C77.4091 147.356 78.01 147.501 78.3014 147.956C79.6853 150.139 81.0692 152.34 82.4532 154.56C82.7445 155.014 82.5989 155.615 82.1436 155.906C81.9433 156.015 81.7612 156.051 81.5973 156.051ZM108.238 155.96C108.001 155.96 107.765 155.869 107.564 155.688C107.182 155.324 107.164 154.705 107.528 154.305C109.312 152.413 111.097 150.521 112.881 148.629C113.246 148.229 113.865 148.211 114.265 148.593C114.666 148.956 114.684 149.575 114.302 149.975C112.517 151.867 110.733 153.759 108.948 155.651C108.748 155.869 108.493 155.96 108.238 155.96ZM84.9843 152.868C84.8568 152.868 84.7112 152.85 84.5837 152.777C84.092 152.559 83.8735 151.976 84.092 151.485C85.1482 149.12 86.2408 146.737 87.3698 144.39C87.6065 143.899 88.1892 143.699 88.6627 143.935C89.1543 144.172 89.3546 144.754 89.1179 145.227C88.0071 147.556 86.9145 149.939 85.8584 152.286C85.7127 152.649 85.3667 152.868 84.9843 152.868ZM212.142 152.358C211.796 152.358 211.468 152.176 211.286 151.849L209.301 148.247C209.047 147.774 209.21 147.192 209.684 146.919C210.157 146.664 210.74 146.828 211.013 147.301L212.998 150.903C213.253 151.376 213.089 151.958 212.616 152.231C212.47 152.322 212.306 152.358 212.142 152.358ZM104.05 150.503C103.722 150.503 103.412 150.339 103.23 150.048C101.774 147.738 100.335 145.536 99.0057 143.517C98.7144 143.062 98.8418 142.462 99.2789 142.171C99.7341 141.88 100.335 142.007 100.626 142.444C101.956 144.481 103.412 146.682 104.869 149.011C105.161 149.466 105.015 150.066 104.56 150.357C104.414 150.466 104.232 150.503 104.05 150.503ZM118.909 144.59C118.672 144.59 118.435 144.499 118.253 144.336C117.853 143.972 117.834 143.353 118.199 142.953C119.965 141.043 121.731 139.133 123.498 137.241C123.862 136.841 124.481 136.822 124.882 137.186C125.282 137.55 125.3 138.169 124.936 138.569C123.17 140.479 121.404 142.389 119.637 144.299C119.437 144.481 119.164 144.59 118.909 144.59ZM73.2937 142.862C72.966 142.862 72.6564 142.698 72.4743 142.407C71.0721 140.206 69.6882 138.005 68.3043 135.822C68.0129 135.367 68.1404 134.767 68.5956 134.476C69.0509 134.185 69.6518 134.33 69.9432 134.767C71.3271 136.95 72.7292 139.151 74.1314 141.352C74.4227 141.807 74.277 142.407 73.8218 142.698C73.6397 142.808 73.4576 142.862 73.2937 142.862ZM206.388 141.934C206.042 141.934 205.714 141.752 205.532 141.425L201.763 134.603C201.508 134.13 201.672 133.548 202.145 133.275C202.619 133.02 203.219 133.184 203.474 133.657L207.244 140.479C207.499 140.952 207.335 141.534 206.861 141.807C206.716 141.898 206.552 141.934 206.388 141.934ZM91.7219 138.787C91.5762 138.787 91.4123 138.751 91.2848 138.678C90.8114 138.441 90.6111 137.841 90.866 137.368C91.558 136.004 92.2682 134.639 92.9966 133.293C93.1604 132.984 93.47 132.784 93.816 132.784C94.1984 132.766 94.4897 132.947 94.6718 133.239C95.2363 134.148 95.8008 135.04 96.3835 135.931C96.6749 136.386 96.5474 136.986 96.0922 137.277C95.6369 137.568 95.036 137.441 94.7447 136.986C94.4715 136.55 94.1984 136.131 93.9252 135.694C93.4882 136.55 93.033 137.405 92.5959 138.26C92.4138 138.587 92.0679 138.787 91.7219 138.787ZM129.489 133.129C129.252 133.129 129.015 133.038 128.833 132.875C128.432 132.511 128.414 131.892 128.778 131.492C130.545 129.582 132.293 127.654 134.059 125.743C134.423 125.343 135.043 125.325 135.443 125.689C135.844 126.053 135.862 126.671 135.498 127.071C133.75 128.982 131.983 130.91 130.217 132.82C130.017 133.02 129.762 133.129 129.489 133.129ZM64.9173 129.691C64.5895 129.691 64.28 129.527 64.0979 129.236C62.6957 127.035 61.2936 124.852 59.8914 122.669C59.6001 122.214 59.7275 121.614 60.1828 121.323C60.638 121.032 61.239 121.159 61.5303 121.614C62.9324 123.797 64.3346 125.98 65.7367 128.181C66.0281 128.636 65.9006 129.236 65.4454 129.527C65.2815 129.655 65.0994 129.691 64.9173 129.691ZM198.867 128.272C198.521 128.272 198.194 128.09 198.012 127.763L194.242 120.941C193.987 120.468 194.151 119.886 194.625 119.613C195.098 119.358 195.681 119.522 195.954 119.995L199.723 126.817C199.978 127.29 199.814 127.872 199.341 128.145C199.177 128.236 199.013 128.272 198.867 128.272ZM140.032 121.614C139.795 121.614 139.559 121.523 139.376 121.359C138.976 120.995 138.958 120.377 139.322 119.977L144.584 114.21C144.949 113.809 145.568 113.791 145.968 114.155C146.369 114.519 146.387 115.137 146.023 115.538L140.76 121.305C140.56 121.505 140.305 121.614 140.032 121.614ZM56.5044 116.575C56.1767 116.575 55.8671 116.411 55.685 116.12L51.4786 109.553C51.1872 109.098 51.3147 108.497 51.7699 108.206C52.2252 107.915 52.8261 108.043 53.1175 108.497L57.3239 115.065C57.6152 115.52 57.4878 116.12 57.0325 116.411C56.8686 116.52 56.6865 116.575 56.5044 116.575ZM191.329 114.628C190.983 114.628 190.655 114.446 190.473 114.119L186.703 107.297C186.448 106.824 186.612 106.242 187.086 105.969C187.559 105.714 188.142 105.878 188.415 106.351L192.184 113.173C192.439 113.646 192.275 114.228 191.802 114.501C191.656 114.574 191.492 114.628 191.329 114.628ZM150.557 110.098C150.32 110.098 150.084 110.007 149.902 109.844C149.501 109.48 149.483 108.861 149.847 108.461C151.613 106.533 153.361 104.622 155.11 102.694C155.474 102.294 156.093 102.276 156.494 102.64C156.894 103.003 156.912 103.622 156.548 104.022C154.8 105.932 153.034 107.861 151.286 109.789C151.085 109.989 150.812 110.098 150.557 110.098ZM183.79 100.966C183.444 100.966 183.116 100.784 182.934 100.456L179.165 93.6345C178.91 93.1615 179.073 92.5793 179.547 92.3065C180.02 92.0518 180.621 92.2155 180.876 92.6885L184.646 99.5105C184.901 99.9835 184.737 100.566 184.263 100.839C184.118 100.929 183.954 100.966 183.79 100.966ZM161.082 98.5827C160.846 98.5827 160.609 98.4918 160.427 98.328C160.026 97.9642 160.008 97.3457 160.372 96.9454C162.139 95.0171 163.905 93.1069 165.653 91.1967C166.017 90.7965 166.636 90.7783 167.037 91.1422C167.438 91.506 167.456 92.1245 167.092 92.5248C165.325 94.4349 163.577 96.3451 161.811 98.2553C161.61 98.4736 161.356 98.5827 161.082 98.5827ZM176.269 87.3036C175.923 87.3036 175.595 87.1217 175.413 86.7943L174.284 84.7568C173.647 85.4299 173.028 86.1212 172.391 86.7943C172.026 87.1945 171.407 87.2127 171.007 86.8488C170.606 86.485 170.588 85.8665 170.952 85.4662C171.899 84.4475 172.828 83.4469 173.774 82.4464C173.993 82.2099 174.303 82.1007 174.612 82.1371C174.922 82.1735 175.195 82.3554 175.341 82.6283L177.107 85.8483C177.362 86.3213 177.198 86.9034 176.724 87.1763C176.579 87.2673 176.415 87.3036 176.269 87.3036Z" fill="black"/>
<path d="M278.662 179.592H278.644L208.355 178.027C207.808 178.009 207.39 177.573 207.408 177.027C207.426 176.499 207.863 176.081 208.391 176.081H208.409L278.699 177.645C279.245 177.664 279.664 178.1 279.645 178.646C279.627 179.155 279.19 179.592 278.662 179.592Z" fill="black"/>
<path d="M197.247 202.55C196.7 202.55 196.263 202.114 196.263 201.586C196.263 201.04 196.7 200.604 197.229 200.604L246.686 200.476C247.232 200.476 247.669 200.913 247.669 201.441C247.669 201.986 247.232 202.423 246.704 202.423L197.247 202.55Z" fill="black"/>
<path d="M263.111 228.419C244.81 228.419 226.4 228.019 208.209 227.255C207.663 227.237 207.262 226.782 207.28 226.236C207.299 225.691 207.754 225.272 208.3 225.309C231.117 226.291 254.279 226.655 277.133 226.4C277.133 226.4 277.133 226.4 277.151 226.4C277.679 226.4 278.116 226.837 278.134 227.364C278.134 227.91 277.715 228.347 277.169 228.347C272.471 228.383 267.791 228.419 263.111 228.419Z" fill="black"/>
<path class="circle-2" d="M141.926 231.567C143.801 230.348 145.713 229.183 147.625 228.019C133.859 202.932 107.619 195.346 91.3941 194.182C75.9706 194.673 65.3544 194.673 47.0355 205.297C42.4102 207.971 35.1992 214.612 29.1172 224.672C31.3388 226.091 33.5421 227.51 35.7455 228.929C41.1173 232.403 46.5074 235.878 51.8792 239.389C59.3088 225.709 74.0221 218.741 91.4488 218.741C108.948 218.741 120.238 230.202 126.375 242.5C131.437 238.68 136.609 235.005 141.926 231.567Z" fill="white"/>
<path d="M126.393 243.482C126.32 243.482 126.247 243.482 126.175 243.464C125.883 243.391 125.647 243.209 125.519 242.955C121.185 234.277 111.006 219.742 91.467 219.742C73.8219 219.742 59.7094 227.073 52.7533 239.88C52.6259 240.117 52.4074 240.299 52.1342 240.353C51.8793 240.426 51.5879 240.372 51.3694 240.226C46.9627 237.352 42.5377 234.477 38.1128 231.621L35.2357 229.766C33.0323 228.347 30.8107 226.928 28.6074 225.509C28.1703 225.218 28.0247 224.635 28.2978 224.181C34.5619 213.811 41.8458 207.189 46.5621 204.46C64.4986 194.055 75.1512 193.727 89.901 193.254L91.376 193.2C91.4124 193.2 91.4488 193.2 91.4852 193.2C100.809 193.873 132.457 198.311 148.5 227.546C148.755 228.001 148.591 228.583 148.154 228.856C146.059 230.129 144.202 231.294 142.472 232.385C137.665 235.478 132.603 239.043 126.994 243.282C126.812 243.41 126.593 243.482 126.393 243.482ZM91.4488 217.777C111.279 217.777 121.914 231.876 126.721 241.026C132.002 237.061 136.809 233.695 141.38 230.748C142.891 229.766 144.512 228.765 146.296 227.673C130.618 200.094 100.408 195.819 91.3578 195.164L89.9374 195.201C75.479 195.655 65.0448 195.983 47.5272 206.134C43.339 208.572 36.4193 214.775 30.4465 224.363C32.395 225.618 34.3434 226.855 36.2736 228.11L39.1508 229.966C43.2843 232.64 47.4179 235.314 51.5333 238.007C59.0175 225.145 73.4941 217.777 91.4488 217.777Z" fill="black"/>
<path class="circle-1" d="M77.7552 324.437C78.7567 318.579 79.8857 312.758 81.1057 306.954C76.7172 306.5 72.2012 305.736 68.1223 304.062C64.3529 302.516 60.9477 299.896 58.0888 296.967C52.0614 290.764 47.9642 282.559 46.7624 273.863C46.0704 268.915 46.5074 263.985 46.7442 259C46.8716 256.053 47.254 253.27 47.8185 250.65C38.823 248.503 29.9731 245.665 20.9411 243.646C17.1899 257.054 16.498 273.517 22.5254 292.565C30.9564 319.198 55.7215 329.021 75.8978 332.223C76.4623 329.604 77.0814 327.02 77.7552 324.437Z" fill="#FF7050"/>
<path d="M75.8979 333.187C75.8432 333.187 75.7886 333.187 75.7522 333.169C55.8673 330.004 30.3374 320.453 21.5967 292.837C16.1521 275.646 15.624 259 19.9943 243.355C20.14 242.864 20.6316 242.555 21.1415 242.664C26.0945 243.773 31.0475 245.138 35.8367 246.466C39.8246 247.576 43.9582 248.703 48.0371 249.686C48.547 249.813 48.8748 250.323 48.7655 250.832C48.1828 253.506 47.8368 256.253 47.7093 259.018C47.6729 259.782 47.6365 260.565 47.6001 261.329C47.3816 265.586 47.1631 269.606 47.7276 273.718C48.893 282.122 52.808 290.127 58.7808 296.276C61.84 299.423 65.1906 301.806 68.4865 303.152C71.8735 304.535 75.9161 305.444 81.1969 305.972C81.47 306.008 81.7249 306.136 81.8888 306.372C82.0527 306.591 82.1073 306.882 82.0527 307.155C80.7598 313.303 79.6673 319.016 78.7021 324.601C78.7021 324.619 78.6839 324.655 78.6839 324.673C77.9738 327.402 77.3728 329.931 76.8265 332.405C76.7537 332.878 76.3531 333.187 75.8979 333.187ZM21.6332 244.792C17.627 259.801 18.228 275.773 23.4541 292.255C31.7577 318.506 55.9401 327.893 75.1513 331.095C75.6429 328.894 76.1892 326.638 76.8083 324.219C77.7006 318.943 78.7386 313.558 79.9404 307.791C74.9874 307.227 71.0905 306.318 67.7581 304.953C64.1709 303.48 60.6928 301.024 57.3969 297.64C51.151 291.2 47.0356 282.795 45.8155 273.99C45.2146 269.715 45.4514 265.404 45.6699 261.238C45.7063 260.474 45.7427 259.71 45.7791 258.946C45.8884 256.399 46.1979 253.852 46.6896 251.36C42.8838 250.432 39.0416 249.377 35.345 248.34C30.8472 247.121 26.222 245.847 21.6332 244.792Z" fill="black"/>
<path class="circle-3" d="M155.073 249.249C146.897 250.65 138.739 252.087 130.672 254.052C131.383 256.853 131.82 259.51 132.002 261.874C132.147 263.821 131.965 267.059 131.528 269.643C130.709 274.3 129.27 278.957 127.486 283.323C124.281 291.218 119.31 298.932 111.662 302.788C107.273 305.008 102.611 306.154 97.7859 306.754C97.1303 306.845 96.4566 306.9 95.801 306.973C96.1288 309.992 96.4384 313.012 96.7661 316.032C97.4035 321.854 98.059 327.657 98.7146 333.478C99.2244 333.442 99.7161 333.406 100.171 333.369C138.721 330.058 156.749 289.126 156.749 267.66C156.73 260.929 156.13 254.816 155.073 249.249Z" fill="white"/>
<path d="M98.6963 334.424C98.2046 334.424 97.7858 334.061 97.7312 333.551L97.6948 333.169C97.0574 327.475 96.4019 321.799 95.801 316.105C95.5278 313.613 95.2729 311.12 94.9997 308.628L94.8359 307.045C94.7994 306.791 94.8905 306.536 95.0544 306.336C95.2183 306.136 95.455 306.008 95.7099 305.972C96.3655 305.899 97.021 305.845 97.6766 305.754C103.03 305.081 107.346 303.844 111.243 301.879C117.653 298.641 122.824 292.273 126.612 282.923C128.505 278.247 129.835 273.718 130.581 269.442C131 267.059 131.2 263.894 131.055 261.911C130.891 259.546 130.454 256.963 129.762 254.27C129.689 254.016 129.744 253.743 129.871 253.524C129.999 253.306 130.217 253.142 130.472 253.088C138.63 251.105 147.025 249.631 154.928 248.285C155.456 248.194 155.947 248.54 156.057 249.067C157.167 254.889 157.714 261.129 157.714 267.623C157.714 279.903 152.214 295.694 143.71 307.846C135.99 318.87 122.187 332.423 100.244 334.315C99.7889 334.352 99.2972 334.388 98.7691 334.424C98.7509 334.424 98.7145 334.424 98.6963 334.424ZM96.8753 307.809L96.9482 308.41C97.2031 310.902 97.4762 313.394 97.7494 315.887C98.3503 321.399 98.9694 326.893 99.5886 332.405C99.7524 332.387 99.9345 332.387 100.098 332.369C121.294 330.549 134.642 317.415 142.126 306.736C152.196 292.328 155.783 276.665 155.783 267.623C155.783 261.583 155.292 255.798 154.327 250.359C147.043 251.614 139.358 252.979 131.892 254.743C132.475 257.199 132.839 259.564 133.003 261.765C133.149 263.894 132.949 267.259 132.512 269.77C131.747 274.19 130.363 278.848 128.414 283.65C124.445 293.438 118.964 300.169 112.117 303.607C108.02 305.681 103.504 306.973 97.9133 307.664C97.5673 307.737 97.2213 307.773 96.8753 307.809Z" fill="black"/>
<path d="M107.291 328.166C107.2 328.166 107.127 328.13 107.073 328.075L102.156 323.273C102.029 323.145 102.029 322.945 102.156 322.818C102.284 322.69 102.484 322.69 102.611 322.818L107.528 327.621C107.655 327.748 107.655 327.948 107.528 328.075C107.455 328.13 107.364 328.166 107.291 328.166Z" fill="black"/>
<path d="M113.828 326.857C113.756 326.857 113.683 326.838 113.61 326.784C109.167 323.018 104.797 319.052 100.608 314.977C100.481 314.85 100.481 314.65 100.608 314.522C100.736 314.395 100.936 314.395 101.064 314.522C105.234 318.579 109.604 322.545 114.029 326.293C114.174 326.402 114.174 326.62 114.065 326.747C114.011 326.82 113.92 326.857 113.828 326.857Z" fill="black"/>
<path d="M119.728 324.382C119.656 324.382 119.564 324.364 119.51 324.291L103.23 309.665C103.103 309.538 103.085 309.338 103.212 309.21C103.34 309.083 103.54 309.065 103.667 309.192L119.947 323.818C120.074 323.946 120.093 324.146 119.965 324.273C119.91 324.346 119.819 324.382 119.728 324.382Z" fill="black"/>
<path d="M126.156 320.216C126.084 320.216 126.011 320.198 125.956 320.144C120.803 316.16 115.777 311.903 110.988 307.482C110.86 307.355 110.842 307.155 110.97 307.027C111.097 306.9 111.297 306.882 111.425 307.009C116.196 311.411 121.222 315.65 126.357 319.634C126.502 319.743 126.521 319.944 126.411 320.089C126.338 320.18 126.247 320.216 126.156 320.216Z" fill="black"/>
<path d="M131.401 315.359C131.346 315.359 131.273 315.341 131.219 315.305C125.956 311.757 120.803 307.9 115.923 303.862C115.777 303.753 115.759 303.534 115.886 303.407C115.996 303.261 116.214 303.243 116.342 303.371C121.222 307.409 126.357 311.23 131.601 314.777C131.747 314.886 131.783 315.086 131.692 315.232C131.601 315.305 131.51 315.359 131.401 315.359Z" fill="black"/>
<path d="M136.117 310.575C136.044 310.575 135.99 310.556 135.935 310.52C131.019 307.1 126.12 303.516 121.386 299.86C121.24 299.75 121.222 299.55 121.331 299.405C121.44 299.259 121.641 299.241 121.786 299.35C126.521 303.007 131.401 306.572 136.318 309.992C136.463 310.102 136.5 310.302 136.39 310.447C136.318 310.52 136.226 310.575 136.117 310.575Z" fill="black"/>
<path d="M140.087 305.081C140.032 305.081 139.959 305.062 139.905 305.026C134.934 301.897 129.944 298.677 125.046 295.439C124.9 295.348 124.864 295.13 124.955 294.984C125.046 294.838 125.264 294.784 125.41 294.893C130.308 298.131 135.298 301.351 140.269 304.48C140.415 304.571 140.469 304.771 140.378 304.935C140.305 305.026 140.196 305.081 140.087 305.081Z" fill="black"/>
<path d="M143.437 299.023C143.383 299.023 143.328 299.004 143.274 298.986L129.197 290.673C129.052 290.582 128.997 290.381 129.088 290.236C129.179 290.09 129.38 290.036 129.525 290.127L143.601 298.441C143.747 298.531 143.802 298.732 143.711 298.877C143.656 298.968 143.547 299.023 143.437 299.023Z" fill="black"/>
<path d="M146.005 293.456C145.95 293.456 145.896 293.438 145.841 293.42L131.419 285.397C131.255 285.306 131.201 285.106 131.292 284.96C131.383 284.796 131.583 284.742 131.729 284.833L146.151 292.856C146.315 292.947 146.369 293.147 146.278 293.292C146.224 293.401 146.114 293.456 146.005 293.456Z" fill="black"/>
<path d="M148.7 287.289C148.645 287.289 148.591 287.271 148.536 287.252L134.023 279.302C133.859 279.212 133.804 279.011 133.895 278.866C133.986 278.702 134.187 278.648 134.332 278.739L148.846 286.688C149.009 286.779 149.064 286.98 148.973 287.125C148.918 287.234 148.809 287.289 148.7 287.289Z" fill="black"/>
<path d="M150.831 281.322C150.776 281.322 150.721 281.304 150.667 281.285C145.55 278.302 140.305 275.373 135.061 272.571C134.897 272.48 134.842 272.299 134.934 272.135C135.025 271.971 135.225 271.917 135.371 272.007C140.615 274.809 145.859 277.756 150.994 280.74C151.158 280.831 151.195 281.031 151.104 281.176C151.067 281.267 150.958 281.322 150.831 281.322Z" fill="black"/>
<path d="M152.105 274.191C152.051 274.191 152.014 274.172 151.96 274.154L135.626 266.277C135.462 266.204 135.389 266.004 135.48 265.84C135.553 265.677 135.753 265.604 135.917 265.695L152.251 273.572C152.415 273.645 152.488 273.845 152.397 274.009C152.342 274.118 152.233 274.191 152.105 274.191Z" fill="black"/>
<path d="M152.233 267.514C152.178 267.514 152.141 267.496 152.087 267.478C146.551 264.876 140.961 262.184 135.498 259.455C135.334 259.382 135.279 259.182 135.352 259.018C135.425 258.855 135.625 258.8 135.789 258.873C141.27 261.602 146.842 264.294 152.378 266.896C152.542 266.968 152.615 267.168 152.542 267.332C152.487 267.459 152.36 267.514 152.233 267.514Z" fill="black"/>
<path d="M152.233 260.947C152.196 260.947 152.142 260.947 152.105 260.91C148.518 259.309 144.967 257.49 141.562 255.507C141.398 255.416 141.362 255.216 141.453 255.071C141.544 254.907 141.744 254.871 141.89 254.962C145.277 256.926 148.809 258.727 152.378 260.328C152.542 260.401 152.615 260.601 152.542 260.765C152.469 260.874 152.342 260.947 152.233 260.947Z" fill="black"/>
<path d="M151.868 255.289C151.832 255.289 151.777 255.289 151.741 255.253L148.791 253.943C148.627 253.87 148.554 253.67 148.627 253.506C148.7 253.342 148.9 253.27 149.064 253.342L152.014 254.652C152.178 254.725 152.251 254.925 152.178 255.089C152.123 255.216 151.996 255.289 151.868 255.289Z" fill="black"/>
<g opacity="0.1294">
<path d="M161.155 264.622C160.791 260.528 160.19 256.435 158.879 252.524C158.442 251.432 158.351 250.013 157.222 249.377C156.567 248.958 155.82 248.976 155.164 249.249C155.11 249.176 155.073 249.104 155.001 249.049C153.963 247.939 151.978 248.703 151.868 250.177C150.193 250.086 148.755 251.887 149.265 253.543C150.321 257.69 150.248 259.873 150.157 265.04C150.12 270.443 148.5 278.429 145.149 287.034C143.729 290.927 143.456 291.455 141.416 295.493C139.377 299.896 135.971 306.099 134.223 307.919C133.477 308.828 132.73 309.72 131.947 310.611C128.032 314.65 125.319 316.76 120.657 319.562C115.741 322.436 112.59 324.055 107.91 325.456C103.831 326.511 102.484 326.547 100.79 326.62C99.6797 326.329 98.2593 326.747 97.8587 327.875C97.6038 328.385 97.622 329.003 97.8587 329.549C96.8026 331.477 98.7692 334.006 100.936 333.333C102.083 332.933 101.756 332.933 102.52 332.623C103.522 332.26 104.596 332.15 105.634 331.877C106.836 331.532 108.001 331.041 109.222 330.75C109.44 330.695 109.64 330.659 109.859 330.622C111.662 330.459 113.483 330.404 115.231 329.858C120.147 328.312 127.377 323.637 132.384 318.47C135.607 315.268 138.739 311.921 141.289 308.137C143.638 304.662 145.331 300.824 147.243 297.094C149.137 293.547 150.557 289.781 151.905 285.997C153.343 282.086 154.636 278.102 155.31 273.99C156.038 269.879 156.184 265.658 155.875 261.492C155.947 261.347 155.984 261.201 156.038 261.038C156.221 262.529 156.348 264.13 156.439 266.059C156.548 269.461 156.512 274.227 156.075 275.864C155.966 276.028 155.856 276.21 155.784 276.392C155.274 277.356 155.274 278.593 156.02 279.43C157.987 281.904 161.465 279.83 161.046 277.138C161.046 277.119 161.046 277.119 161.046 277.101C161.064 276.792 161.064 276.483 161.064 276.173C161.101 275.901 161.137 275.646 161.174 275.373C161.52 271.807 161.429 268.205 161.155 264.622Z" fill="black"/>
</g>
<g opacity="0.1294">
<path d="M145.586 227.073C143.51 221.434 140.36 215.849 135.808 211.846C133.75 209.845 130.727 212.865 132.712 214.939C135.425 216.922 137.72 222.198 138.466 223.999C139.213 225.927 139.996 227.855 140.56 229.838C141.799 234.004 147.899 231.967 145.586 227.073Z" fill="black"/>
</g>
<g opacity="0.1294">
<path d="M75.3515 325.856C71.4 326.238 71.1997 325.801 67.3028 325.001C63.9887 324.128 60.6381 323.4 57.3422 322.436C54.5379 321.745 50.3315 320.034 49.1114 319.762C47.0537 319.38 46.0522 322.363 47.8732 323.364C49.8944 324.455 51.8611 325.656 53.9916 326.565C55.7579 327.329 57.6335 327.748 59.4363 328.403C63.3331 329.949 67.3939 331.059 71.5821 331.405C72.8386 331.514 74.095 331.459 75.3333 331.259C75.916 331.186 76.5533 331.113 76.9904 330.677C79.048 329.24 77.8462 325.783 75.3515 325.856Z" fill="black"/>
</g>
<g opacity="0.1294">
<path d="M51.9886 275.246C51.588 273.154 51.0781 270.079 51.0963 269.915C50.6047 264.021 50.5136 258.091 50.7321 252.16C50.6775 249.431 46.6714 249.431 46.5803 252.16C46.4347 257.436 46.1251 262.73 46.1797 268.005C46.3436 271.534 47.072 275.009 47.6911 278.484C48.2192 280.558 51.1874 280.94 52.2253 279.084C52.9901 277.829 52.1889 276.519 51.9886 275.246Z" fill="black"/>
</g>
<path d="M475.508 480.725C506.555 480.725 548.001 478.76 587.097 478.76C595.273 412.596 599.68 361.913 618.017 291.437C579.103 289.708 495.757 290.254 483.921 293.347C481.554 356.71 479.186 419.054 475.508 480.725Z" fill="white"/>
<path d="M475.508 481.707C475.235 481.707 474.98 481.598 474.798 481.398C474.616 481.198 474.525 480.943 474.543 480.67C478.294 417.635 480.771 351.598 482.956 293.329C482.974 292.892 483.265 292.528 483.684 292.419C495.848 289.235 580.341 288.799 618.071 290.472C618.363 290.491 618.636 290.636 618.818 290.873C619 291.109 619.055 291.418 618.982 291.691C603.249 352.143 597.749 398.26 591.376 451.672C590.32 460.459 589.245 469.537 588.098 478.887C588.044 479.379 587.625 479.742 587.133 479.742C566.465 479.742 545.415 480.288 525.057 480.798C507.084 481.271 490.149 481.707 475.508 481.707ZM484.868 294.147C482.701 351.925 480.243 417.289 476.546 479.761C490.914 479.743 507.466 479.324 524.966 478.869C545.069 478.36 565.828 477.814 586.241 477.814C587.352 468.773 588.408 459.986 589.428 451.472C595.765 398.333 601.246 352.416 616.778 292.401C579.267 290.8 498.999 291.182 484.868 294.147Z" fill="black"/>
<path d="M322.511 482.926C324.569 443.031 320.635 400.662 304.665 364.041C295.488 384.489 284.653 403.954 272.471 422.565C268.556 415.87 265.078 408.812 261.6 401.771C260.707 399.952 259.815 398.151 258.923 396.332C254.043 386.417 249.144 376.484 244.701 366.37C250.674 342.265 257.248 318.324 264.914 294.729C265.97 291.473 267.063 288.198 268.884 285.306C272.653 279.321 279.099 275.609 285.418 272.444C302.845 263.748 321.418 257.345 340.138 253.706C341.886 250.959 344.435 248.703 347.385 247.321C349.971 257.181 356.089 265.768 363.209 273.063C366.487 276.41 370.803 279.757 375.228 279.284C387.319 275.137 394.239 262.639 404.381 254.852C407.914 252.142 412.23 249.904 417.037 250.341C427.489 252.36 437.924 254.361 448.376 256.38C465.62 259.71 483.448 263.257 497.779 273.39C500.911 275.591 503.861 278.138 506.847 281.649C523.363 319.089 535.982 358.147 546.089 397.805C551.005 417.089 555.357 437.282 551.042 457.166C548.438 463.024 544.104 467.99 539.187 472.138C536.201 474.667 532.923 476.959 529.208 478.233C525.002 479.688 520.468 479.797 516.006 479.87C506.556 480.052 497.123 480.234 487.672 480.416L322.511 482.926Z" fill="white"/>
<path d="M322.42 420.345C311.257 427.349 302.626 438.228 298.146 450.599C297.546 452.273 296.999 454.092 297.491 455.82C297.964 457.53 299.876 458.967 301.898 458.258C301.497 460.168 302.753 462.26 304.629 462.806C306.486 463.351 308.69 462.278 309.4 460.459C309.91 461.587 311.385 462.023 312.587 461.751C313.807 461.478 314.826 460.695 315.792 459.931C318.323 457.93 320.872 455.929 323.403 453.928C326.681 451.345 329.995 448.743 333.728 446.888C335.768 445.887 337.953 445.105 339.792 443.759C343.579 440.993 345.455 435.791 344.108 431.315C342.906 427.313 339.537 424.348 336.15 421.892C334.384 420.618 332.49 419.363 330.323 419.108C327.136 418.763 324.041 420.582 322.42 420.345Z" fill="white"/>
<path d="M292.465 482.926C313.789 482.617 335.112 482.289 356.417 481.98L356.144 467.754L287.494 469.373L292.465 482.926Z" fill="white"/>
<path d="M292.465 483.89C292.064 483.89 291.682 483.636 291.555 483.254L286.601 469.7C286.492 469.409 286.529 469.082 286.711 468.809C286.893 468.554 287.184 468.391 287.494 468.391L356.144 466.772C356.417 466.79 356.654 466.863 356.836 467.044C357.018 467.226 357.127 467.463 357.127 467.736L357.401 481.962C357.401 482.217 357.309 482.471 357.127 482.653C356.945 482.835 356.709 482.944 356.435 482.944L292.465 483.89ZM288.896 470.301L293.139 481.926L355.434 480.998L355.197 468.736L288.896 470.301Z" fill="black"/>
<path d="M344.071 207.408C346.875 226.145 348.059 245.12 347.586 264.058C347.549 265.64 347.513 267.296 348.223 268.697C348.951 270.152 350.353 271.116 351.756 271.953C361.334 277.756 373.134 280.412 383.968 277.556C394.803 274.718 404.236 265.84 405.237 253.834C400.667 238.443 393.019 216.995 387.119 192.308C373.844 198.166 359.968 202.623 344.071 207.408Z" fill="white"/>
<path d="M374.864 279.685C366.979 279.685 358.73 277.32 351.246 272.79C349.716 271.862 348.186 270.77 347.349 269.133C346.511 267.496 346.566 265.64 346.602 264.021C347.057 245.174 345.874 226.182 343.088 207.553C343.015 207.08 343.306 206.607 343.78 206.48C360.879 201.35 374.008 197.038 386.718 191.417C386.991 191.308 387.283 191.308 387.537 191.435C387.792 191.562 387.993 191.799 388.047 192.09C392.217 209.554 397.371 225.672 401.486 238.625C403.198 243.992 404.818 249.067 406.148 253.561C406.184 253.67 406.202 253.797 406.184 253.925C405.219 265.44 396.387 275.318 384.187 278.52C381.201 279.302 378.068 279.685 374.864 279.685ZM345.164 208.099C347.877 226.582 349.024 245.411 348.569 264.076C348.532 265.549 348.496 267.059 349.097 268.26C349.734 269.515 351.064 270.407 352.265 271.116C362.335 277.21 373.789 279.23 383.713 276.61C393.146 274.136 403.125 266.168 404.236 253.925C402.925 249.504 401.322 244.483 399.629 239.189C395.586 226.491 390.56 210.737 386.427 193.654C374.19 199.003 361.461 203.187 345.164 208.099Z" fill="black"/>
<path d="M431.641 118.976C427.908 133.202 424.121 145.9 417.201 164.238C413.905 172.97 408.788 182.484 403.161 190.143C400.521 193.745 398.572 195.437 393.856 197.056C394.02 193.127 390.178 190.762 389.959 186.832C389.686 181.993 393.201 178.118 390.779 173.589C386.172 164.965 383.386 155.76 382.603 146.519C381.965 138.933 382.748 131.11 386.973 124.634C391.198 118.157 399.428 113.245 408.551 113.609C415.489 113.882 426.688 114.028 431.641 118.976Z" fill="#FF7050"/>
<path d="M393.838 198.039C393.638 198.039 393.419 197.966 393.255 197.839C393 197.638 392.855 197.329 392.873 197.02C392.946 195.273 392.053 193.818 391.088 192.29C390.105 190.689 389.085 189.034 388.958 186.887C388.848 184.795 389.358 182.939 389.85 181.138C390.56 178.61 391.161 176.426 389.886 174.043C385.188 165.257 382.402 156.015 381.601 146.61C380.818 137.332 382.293 129.982 386.135 124.106C390.906 116.793 399.701 112.281 408.569 112.627L409.662 112.663C416.709 112.918 427.344 113.3 432.315 118.248C432.57 118.485 432.661 118.849 432.57 119.194C428.8 133.511 425.067 146.082 418.093 164.565C414.706 173.516 409.553 183.03 403.926 190.707C401.286 194.309 399.246 196.219 394.147 197.966C394.056 198.02 393.947 198.039 393.838 198.039ZM407.641 114.574C399.756 114.574 392.035 118.667 387.792 125.179C384.205 130.673 382.821 137.623 383.568 146.446C384.351 155.597 387.064 164.583 391.635 173.134C393.273 176.208 392.509 178.973 391.762 181.666C391.307 183.303 390.833 185.013 390.924 186.778C391.015 188.433 391.871 189.798 392.764 191.253C393.601 192.617 394.475 194.018 394.748 195.692C398.5 194.218 400.175 192.581 402.378 189.561C407.896 182.03 412.976 172.661 416.29 163.874C423.155 145.718 426.852 133.275 430.549 119.267C425.923 115.21 416.145 114.865 409.607 114.61L408.515 114.574C408.205 114.574 407.914 114.574 407.641 114.574Z" fill="black"/>
<path d="M319.961 129.946C318.559 142.771 313.934 155.033 311.785 167.731C309.636 180.447 310.255 194.309 318.432 205.606C325.624 215.558 338.535 222.525 351.956 223.726C365.376 224.926 378.979 220.324 387.3 211.755C395.131 203.696 399.519 184.085 402.105 174.316C407.859 176.19 414.706 175.426 418.949 171.951C423.173 168.477 424.157 162.273 420.679 157.907C417.201 153.541 412.102 152.122 405.255 156.67C407.003 148.574 406.894 140.37 406.858 136.586C406.785 126.362 409.006 111.554 402.76 106.187C399.228 103.149 391.288 99.6924 386.845 97.7459C379.161 94.3621 367.197 97.6185 358.802 96.2177C350.408 94.8351 341.175 97.4366 333.728 100.511C324.805 104.204 320.999 120.359 319.961 129.946Z" fill="white"/>
<path d="M356.198 224.89C354.76 224.89 353.303 224.836 351.865 224.69C338.135 223.471 325.024 216.376 317.649 206.17C310.474 196.256 308.18 183.267 310.838 167.549C311.785 161.964 313.206 156.415 314.608 151.03C316.392 144.117 318.231 136.986 319.014 129.818C319.488 125.58 322.365 104.149 333.364 99.6015C343.215 95.5264 351.828 94.0711 358.966 95.2536C362.299 95.7993 366.196 95.5992 370.329 95.3809C376.302 95.0716 382.493 94.7442 387.246 96.8363L387.756 97.0546C392.308 99.0557 399.902 102.403 403.416 105.441C408.715 110.007 408.333 120.504 408.005 129.782C407.914 132.202 407.841 134.476 407.859 136.586V136.841C407.877 140.388 407.932 147.428 406.657 154.705C412.448 151.631 417.656 152.522 421.462 157.288C425.195 161.982 424.375 168.749 419.586 172.679C415.471 176.063 408.843 177.154 402.815 175.517C402.633 176.245 402.433 177.027 402.214 177.845C399.428 188.67 395.222 205.006 388.029 212.41C380.344 220.306 368.454 224.89 356.198 224.89ZM320.926 130.055C320.125 137.35 318.268 144.572 316.465 151.54C315.081 156.888 313.661 162.4 312.732 167.894C310.165 183.067 312.35 195.565 319.197 205.043C326.262 214.794 338.826 221.579 352.01 222.762C365.176 223.944 378.414 219.469 386.554 211.082C393.401 204.042 397.698 187.36 400.266 177.391C400.575 176.208 400.867 175.098 401.122 174.08C401.194 173.825 401.358 173.607 401.595 173.479C401.832 173.352 402.105 173.334 402.36 173.407C408.041 175.244 414.433 174.371 418.275 171.205C422.245 167.949 422.937 162.382 419.878 158.526C416.272 154.014 411.519 153.65 405.765 157.489C405.437 157.707 405 157.707 404.673 157.489C404.345 157.27 404.181 156.87 404.272 156.47C405.947 148.647 405.893 140.679 405.856 136.859V136.604C405.838 134.457 405.929 132.147 406.002 129.709C406.311 120.886 406.676 110.881 402.087 106.933C398.791 104.095 391.343 100.82 386.9 98.8556L386.39 98.6373C382.074 96.7271 376.12 97.0364 370.366 97.3457C366.305 97.564 362.117 97.7823 358.584 97.1819C351.81 96.054 343.543 97.473 334.037 101.402C326.335 104.622 322.146 118.849 320.926 130.055Z" fill="black"/>
<path d="M362.026 115.356C360.168 120.886 350.499 127.963 344.909 127.926C339.318 127.908 337.516 125.125 335.858 119.576C330.487 123.415 326.317 127.453 321.109 128.836C313.133 130.928 304.174 125.125 302.498 116.793C300.823 108.443 306.759 99.1649 314.826 97.5276C309.455 98.2189 304.793 92.361 305.285 86.7397C305.776 81.1184 310.256 76.4612 315.354 74.5146C320.453 72.5681 326.043 72.8774 331.561 72.659C330.104 67.0013 333.382 60.7251 338.262 57.7234C343.142 54.7217 349.206 54.5216 354.687 55.795C358.293 56.6319 361.844 58.1236 364.484 60.7978C367.106 63.4721 368.654 67.5107 368.071 71.5857C373.589 65.9826 381.856 62.6898 389.067 65.2367C396.278 67.7836 400.885 77.4254 400.776 83.7016C404.837 79.663 409.935 76.534 415.435 77.4254C426.36 79.19 427.854 88.7954 421.626 100.311C427.781 98.0551 436.248 101.493 438.124 110.298C439.526 116.848 436.121 126.689 431.186 131.183C426.251 135.676 410.245 138.241 400.193 129.309C394.603 124.343 392.363 118.139 391.198 112.409C387.392 117.593 384.624 121.159 376.284 122.942C370.147 124.27 363.41 121.195 362.026 115.356Z" fill="#FF7050"/>
<path d="M417.037 136.277C411.101 136.277 404.618 134.603 399.501 130.055C394.075 125.234 391.817 119.34 390.669 114.719C387.483 118.94 384.296 122.232 376.429 123.924C370.311 125.234 364.302 122.578 361.898 117.866C358.62 123.288 350.299 128.927 344.927 128.927C344.909 128.927 344.909 128.927 344.89 128.927C339.227 128.909 337.006 126.198 335.312 121.195C334.383 121.887 333.491 122.56 332.617 123.233C328.939 126.053 325.442 128.727 321.345 129.8C317.376 130.837 312.932 130.091 309.163 127.726C305.193 125.252 302.407 121.341 301.533 116.993C300.022 109.443 304.246 101.33 310.82 97.9278C309.782 97.4912 308.781 96.8363 307.87 95.9631C305.375 93.5799 304.01 90.0142 304.301 86.6669C304.866 80.2633 310.074 75.497 314.99 73.605C319.306 71.9495 323.949 71.8586 328.465 71.7676C329.103 71.7494 329.722 71.7494 330.359 71.7312C329.558 66.2736 332.562 60.0883 337.734 56.9047C342.323 54.085 348.423 53.3573 354.887 54.849C359.258 55.8678 362.718 57.6324 365.158 60.1247C367.58 62.5988 368.982 65.8916 369.127 69.2571C375.264 64.0178 382.985 62.0895 389.358 64.3453C396.059 66.7284 400.812 74.8421 401.613 81.5913C406.311 77.4617 410.991 75.7517 415.58 76.4794C420.151 77.2071 423.447 79.3537 425.067 82.6647C427.089 86.7579 426.506 92.4338 423.465 98.8374C426.324 98.3826 429.401 98.9102 432.06 100.366C435.665 102.348 438.16 105.805 439.071 110.098C440.509 116.902 437.14 127.09 431.841 131.892C429.146 134.33 423.429 136.277 417.037 136.277ZM391.161 111.444C391.234 111.444 391.307 111.444 391.361 111.463C391.744 111.554 392.035 111.845 392.108 112.227C393.037 116.757 394.949 123.397 400.794 128.6C410.227 136.986 425.687 134.839 430.494 130.473C435.265 126.125 438.433 116.629 437.14 110.517C436.339 106.787 434.209 103.804 431.095 102.094C428.236 100.511 424.812 100.202 421.935 101.257C421.553 101.402 421.134 101.293 420.861 100.984C420.588 100.675 420.551 100.238 420.733 99.8743C424.321 93.2524 425.231 87.4492 423.301 83.5379C421.954 80.7909 419.24 79.0626 415.252 78.4259C410.827 77.7164 406.166 79.7357 401.431 84.4293C401.158 84.7022 400.721 84.7931 400.357 84.6294C399.993 84.4657 399.756 84.12 399.756 83.7198C399.847 78.0803 395.677 68.675 388.685 66.1827C382.384 63.9451 374.554 66.3464 368.709 72.2952C368.417 72.6045 367.962 72.6772 367.58 72.4771C367.197 72.2952 366.979 71.8768 367.052 71.4584C367.561 67.9291 366.287 64.0906 363.737 61.4891C361.57 59.2697 358.438 57.687 354.432 56.741C348.459 55.3584 342.887 55.9951 338.736 58.5602C333.892 61.5437 331.197 67.4925 332.471 72.4225C332.544 72.7136 332.49 73.0047 332.308 73.2412C332.125 73.4777 331.852 73.6232 331.561 73.6414C330.541 73.6778 329.503 73.696 328.483 73.7142C323.949 73.8051 319.67 73.8961 315.664 75.4242C311.312 77.0797 306.705 81.2639 306.231 86.8306C305.995 89.5958 307.124 92.5611 309.2 94.5441C310.82 96.0904 312.769 96.7999 314.662 96.5634C315.19 96.4906 315.664 96.8545 315.755 97.3638C315.846 97.8732 315.5 98.3826 314.99 98.4736C307.488 100.002 301.861 108.807 303.427 116.593C304.192 120.413 306.65 123.851 310.183 126.053C313.515 128.127 317.394 128.8 320.835 127.89C324.568 126.908 327.737 124.47 331.415 121.65C332.635 120.704 333.91 119.74 335.257 118.776C335.512 118.594 335.84 118.539 336.132 118.649C336.423 118.758 336.66 118.994 336.751 119.285C338.335 124.561 339.883 126.908 344.872 126.944H344.89C350.117 126.944 359.312 120.177 361.042 115.028C361.188 114.61 361.589 114.337 362.007 114.373C362.444 114.392 362.809 114.701 362.918 115.119C364.229 120.631 370.73 123.124 375.992 121.996C384.169 120.249 386.754 116.72 390.323 111.827C390.56 111.59 390.851 111.444 391.161 111.444Z" fill="black"/>
<path d="M329.867 149.775C329.849 148.174 331.215 146.883 332.89 146.864C334.565 146.846 335.949 148.138 335.968 149.739C335.986 151.34 334.62 152.631 332.945 152.649C331.251 152.649 329.867 151.358 329.867 149.775Z" fill="black"/>
<path d="M371.877 156.524C371.859 154.923 373.225 153.632 374.9 153.614C376.575 153.595 377.959 154.887 377.977 156.488C377.996 158.089 376.63 159.381 374.955 159.399C373.261 159.417 371.877 158.125 371.877 156.524Z" fill="black"/>
<path d="M355.707 204.806C353.831 204.806 351.974 204.479 350.208 203.806C349.698 203.605 349.443 203.041 349.643 202.55C349.843 202.041 350.39 201.786 350.9 201.986C355.743 203.842 361.552 202.678 365.322 199.112C365.704 198.748 366.323 198.766 366.706 199.148C367.07 199.549 367.052 200.149 366.669 200.531C363.737 203.314 359.713 204.806 355.707 204.806Z" fill="black"/>
<path d="M350.044 188.142C347.585 188.142 345 187.487 342.305 186.196C341.176 185.65 339.919 184.94 339.063 183.721C337.989 182.175 337.77 180.047 338.481 177.864C338.99 176.317 339.846 174.971 340.666 173.661L341.048 173.061C345.491 165.966 348.277 157.834 349.133 149.52C349.188 148.993 349.661 148.593 350.208 148.647C350.736 148.702 351.136 149.175 351.082 149.721C350.208 158.344 347.312 166.767 342.723 174.098L342.341 174.698C341.54 175.953 340.793 177.136 340.356 178.446C339.846 180.01 339.974 181.557 340.684 182.594C341.267 183.43 342.268 183.994 343.16 184.431C345.783 185.704 348.277 186.287 350.59 186.177C353.212 186.05 355.652 184.94 357.127 183.194C357.473 182.776 358.092 182.721 358.493 183.067C358.912 183.412 358.966 184.031 358.62 184.431C356.781 186.614 353.886 187.96 350.681 188.106C350.463 188.142 350.244 188.142 350.044 188.142Z" fill="black"/>
<path d="M512.383 479.906C491.405 479.906 460.503 475.686 430.294 471.538C413.268 469.209 397.207 467.008 383.604 465.68C383.076 465.625 382.675 465.152 382.73 464.607C382.785 464.079 383.258 463.679 383.804 463.734C397.443 465.08 413.541 467.281 430.567 469.61C473.505 475.486 522.179 482.144 534.088 474.521C544.049 468.136 550.878 458.585 551.479 450.18C552.171 440.484 550.259 418.181 548.401 409.23C540.826 372.919 512.82 290.545 502.932 279.43C493.262 268.551 478.403 264.13 465.256 260.819C445.754 255.926 425.759 252.251 405.783 249.904C402.761 259.364 396.169 272.353 381.801 282.068C378.906 284.032 375.483 282.377 372.46 280.903C371.895 280.631 371.349 280.358 370.803 280.121C370.548 280.012 369.583 279.848 368.636 279.685C363.592 278.811 353.085 276.974 347.968 269.206C345.255 265.095 344.49 259.91 345.692 253.779C327.518 256.799 310.329 261.947 293.157 269.497C285.8 272.735 277.569 276.956 272.216 283.76C267.39 289.872 265.114 297.713 263.093 304.644C251.566 344.194 240.877 384.562 231.353 424.621C231.226 425.148 230.698 425.476 230.17 425.348C229.642 425.221 229.314 424.693 229.441 424.184C238.983 384.089 249.672 343.684 261.217 304.116C263.293 297.022 265.624 288.999 270.686 282.577C276.313 275.446 284.817 271.062 292.374 267.732C310.146 259.91 327.937 254.652 346.802 251.651C347.13 251.596 347.458 251.705 347.676 251.942C347.895 252.178 347.986 252.506 347.913 252.833C346.438 259.055 347.003 264.203 349.607 268.169C354.25 275.227 364.211 276.956 368.982 277.793C370.439 278.047 371.149 278.175 371.604 278.375C372.15 278.611 372.733 278.902 373.316 279.175C375.992 280.467 378.742 281.813 380.709 280.485C395.003 270.825 401.34 257.818 404.145 248.594C404.29 248.14 404.727 247.848 405.182 247.903C425.504 250.268 445.863 253.979 465.711 258.964C479.15 262.329 494.337 266.877 504.37 278.156C515.314 290.472 543.157 374.702 550.295 408.866C552.189 417.926 554.119 440.539 553.409 450.362C552.772 459.367 545.597 469.519 535.126 476.213C530.938 478.833 522.908 479.906 512.383 479.906Z" fill="black"/>
<path d="M372.442 293.037C367.197 319.07 362.263 345.23 357.674 371.463C356.891 375.902 356.126 380.45 356.527 384.98C357.091 391.347 359.895 397.023 362.627 402.426C365.959 409.03 369.31 415.652 373.789 422.201C379.143 410.049 383.914 397.496 387.993 384.762C389.377 355.709 379.889 327.439 379.125 298.35C379.07 296.549 379.052 294.657 378.323 293.11C377.613 291.546 375.92 290.527 372.442 293.037Z" fill="#FF7050"/>
<path d="M373.807 423.165C373.48 423.165 373.188 423.001 373.006 422.747C368.472 416.143 365.067 409.376 361.771 402.863C359.149 397.66 356.162 391.748 355.579 385.053C355.161 380.323 355.998 375.52 356.745 371.281C361.316 345.158 366.287 318.761 371.513 292.837C371.568 292.601 371.695 292.383 371.895 292.237C373.862 290.818 375.555 290.291 376.958 290.654C377.959 290.909 378.742 291.619 379.234 292.674C380.035 294.384 380.071 296.312 380.126 298.186V298.313C380.472 311.23 382.566 324.2 384.606 336.753C387.137 352.398 389.759 368.589 388.994 384.798C388.994 384.889 388.976 384.962 388.958 385.053C384.933 397.624 380.144 410.267 374.718 422.601C374.572 422.929 374.263 423.147 373.917 423.183C373.862 423.165 373.826 423.165 373.807 423.165ZM373.334 293.601C368.144 319.398 363.191 345.649 358.657 371.627C357.929 375.739 357.127 380.414 357.51 384.889C358.056 391.202 360.951 396.932 363.501 401.99C366.523 407.975 369.637 414.142 373.625 420.182C378.724 408.466 383.24 396.496 387.046 384.58C387.792 368.625 385.188 352.58 382.675 337.08C380.636 324.455 378.505 311.411 378.178 298.368V298.24C378.141 296.567 378.087 294.839 377.467 293.492C377.213 292.947 376.885 292.637 376.466 292.528C375.719 292.346 374.627 292.728 373.334 293.601Z" fill="black"/>
<path d="M383.695 465.68C383.276 465.68 382.894 465.425 382.766 465.007C382.602 464.498 382.876 463.952 383.404 463.788C390.032 461.66 392.709 456.329 392.363 445.923C391.58 423.038 387.993 420.655 386.9 420.473C386.408 420.382 386.062 419.945 386.099 419.454C386.135 418.963 386.536 418.563 387.027 418.544L391.07 418.363C425.322 416.853 464.091 415.143 488.146 412.214C484.103 399.588 480.243 388.036 476.491 376.866C472.576 365.187 468.534 353.089 464.327 339.882C464.163 339.373 464.455 338.827 464.965 338.663C465.475 338.499 466.021 338.79 466.185 339.3C470.391 352.507 474.434 364.587 478.349 376.266C482.209 387.782 486.197 399.679 490.367 412.759C490.458 413.032 490.422 413.341 490.258 413.578C490.094 413.814 489.839 413.978 489.566 414.015C465.547 417.053 426.032 418.799 391.179 420.327L389.923 420.382C391.744 422.965 393.783 429.423 394.348 445.869C394.603 453.455 393.674 462.569 384.041 465.644C383.895 465.662 383.786 465.68 383.695 465.68Z" fill="black"/>
<path d="M73.658 362.222L243.135 363.15L301.552 483.017L130.563 484.018L73.658 362.222Z" fill="white"/>
<path d="M130.563 485C130.181 485 129.835 484.782 129.671 484.436L72.7475 362.64C72.6018 362.331 72.6383 361.985 72.8021 361.694C72.9842 361.421 73.2938 361.24 73.6216 361.24L243.117 362.167C243.481 362.167 243.827 362.386 243.991 362.713L302.407 482.58C302.553 482.89 302.535 483.235 302.353 483.526C302.171 483.818 301.861 483.981 301.533 483.981L130.563 485C130.581 485 130.581 485 130.563 485ZM75.1876 363.204L131.182 483.035L300.004 482.053L242.534 364.114L75.1876 363.204Z" fill="black"/>
<path d="M180.858 411.068C176.051 410.595 170.788 411.886 168.821 416.289C166.855 420.709 168.366 426.24 171.935 429.496C175.504 432.752 180.785 433.808 185.501 432.734C188.051 432.17 190.582 430.933 192.039 428.768C193.058 427.277 193.495 425.439 193.495 423.62C193.55 417.689 190.837 412.05 180.858 411.068Z" fill="white"/>
<path d="M181.896 434.117C177.908 434.117 174.048 432.734 171.28 430.224C167.274 426.567 165.872 420.546 167.929 415.907C169.823 411.668 174.685 409.485 180.949 410.103C192.203 411.213 194.515 418.071 194.479 423.638C194.461 425.821 193.896 427.786 192.858 429.332C191.019 432.025 187.96 433.189 185.72 433.698C184.445 433.989 183.171 434.117 181.896 434.117ZM179.037 411.959C176.196 411.959 171.517 412.614 169.714 416.689C167.984 420.6 169.186 425.676 172.591 428.768C175.778 431.679 180.64 432.825 185.283 431.788C187.96 431.188 190.072 429.914 191.219 428.223C192.276 426.676 192.512 424.857 192.512 423.62C192.567 416.598 188.706 412.814 180.749 412.032C180.348 411.995 179.765 411.959 179.037 411.959Z" fill="black"/>
<path d="M379.106 279.721C376.794 278.047 373.698 278.193 371.203 279.212C367.543 280.721 364.429 282.886 363.755 286.779C363.573 287.78 365.504 291.946 366.505 293.456C367.689 295.239 370.675 298.495 373.261 298.713C375.464 298.895 377.522 297.586 379.179 296.112C382.165 293.438 384.605 289.49 383.659 285.597C383.058 283.268 381.382 281.376 379.106 279.721Z" fill="#FF7050"/>
<path d="M373.662 299.714C373.498 299.714 373.334 299.714 373.152 299.696C369.91 299.423 366.651 295.493 365.668 294.002C364.848 292.746 362.499 288.144 362.772 286.616C363.61 281.795 367.762 279.557 370.803 278.302C373.989 276.974 377.304 277.21 379.653 278.92C382.366 280.885 383.968 282.995 384.551 285.379C385.461 289.09 383.677 293.365 379.78 296.84C377.649 298.768 375.628 299.714 373.662 299.714ZM374.936 279.43C373.716 279.43 372.533 279.721 371.549 280.121C367.325 281.868 365.212 283.978 364.684 286.961C364.648 287.689 366.232 291.327 367.288 292.928C368.508 294.766 371.258 297.586 373.297 297.749C374.863 297.877 376.557 297.113 378.487 295.384C379.744 294.256 383.75 290.272 382.675 285.833C382.202 283.923 380.854 282.177 378.524 280.485C377.449 279.721 376.193 279.43 374.936 279.43Z" fill="black"/>
<path d="M328.356 465.826C327.609 465.826 326.79 465.553 325.898 464.789C324.04 463.224 325.297 460.259 325.697 459.295C326.353 457.748 327.409 456.475 328.465 455.347C331.889 451.654 335.968 448.452 340.593 445.833C338.08 445.505 335.33 446.615 333.273 447.761C329.157 450.053 325.479 453.218 321.928 456.275C320.125 457.821 318.268 459.422 316.338 460.914C315.427 461.623 314.426 462.351 313.224 462.697C311.731 463.115 310.201 462.806 309.254 461.86C308.58 461.205 308.18 460.241 308.107 459.095C307.925 456.293 309.6 453.819 310.893 452.2C318.505 442.576 326.535 437.228 335.44 435.827C335.968 435.736 336.478 436.1 336.55 436.646C336.641 437.173 336.277 437.682 335.731 437.755C327.336 439.083 319.706 444.195 312.404 453.419C311.33 454.783 309.891 456.857 310.037 458.985C310.074 459.64 310.292 460.186 310.602 460.495C311.057 460.932 311.858 461.077 312.678 460.841C313.533 460.604 314.335 460.022 315.118 459.404C316.993 457.948 318.832 456.366 320.635 454.819C324.259 451.709 328.01 448.47 332.308 446.087C335.367 444.377 339.773 442.776 343.506 444.777C343.834 444.941 344.016 445.287 344.016 445.651C344.016 446.014 343.816 446.342 343.488 446.506C338.226 449.216 333.637 452.655 329.886 456.711C328.957 457.712 328.01 458.822 327.482 460.095C326.517 462.369 326.863 463.115 327.136 463.351C328.301 464.334 328.902 463.952 330.286 462.915L330.377 462.842C335.767 458.33 341.194 454.619 346.966 451.508C348.896 450.471 351.409 449.416 353.649 450.508C356.29 451.799 363.865 454.71 377.158 453.873C382.074 453.564 387.191 454.237 392.345 455.875C392.855 456.038 393.146 456.584 392.982 457.093C392.818 457.603 392.272 457.894 391.762 457.73C386.827 456.166 381.965 455.529 377.285 455.82C363.519 456.693 355.561 453.619 352.793 452.272C351.355 451.563 349.406 452.418 347.895 453.237C342.25 456.275 336.915 459.913 331.597 464.37L331.47 464.479C330.687 465.043 329.631 465.826 328.356 465.826Z" fill="black"/>
<path d="M305.102 464.498C304.738 464.498 304.374 464.443 304.028 464.334C302.007 463.697 301.151 461.478 301.005 459.622C300.677 455.201 303.027 451.09 304.829 448.398C310.893 439.32 317.139 433.589 323.44 431.37C323.949 431.188 324.514 431.461 324.678 431.97C324.86 432.48 324.587 433.044 324.077 433.207C318.195 435.281 312.259 440.757 306.45 449.471C304.811 451.927 302.662 455.638 302.935 459.477C303.027 460.641 303.518 462.133 304.593 462.478C305.157 462.66 305.885 462.496 306.541 462.06C307.215 461.623 307.743 460.986 308.38 460.204C308.726 459.786 309.327 459.713 309.746 460.059C310.165 460.404 310.219 461.005 309.892 461.423C309.309 462.151 308.58 463.042 307.597 463.679C306.832 464.225 305.94 464.498 305.102 464.498Z" fill="black"/>
<path d="M299.967 459.586C298.966 459.586 297.928 459.276 297.054 458.658C294.213 456.675 297.746 446.16 300.732 441.212C307.488 430.078 316.101 422.037 325.661 417.962C330.632 414.688 352.247 421.255 361.352 424.239C363.628 424.984 366.651 425.858 369.746 425.967C377.722 426.221 387.974 426.349 390.669 425.93C391.197 425.858 391.707 426.203 391.78 426.749C391.871 427.277 391.507 427.786 390.961 427.859C387.337 428.423 372.587 428.004 369.674 427.913C366.323 427.804 363.136 426.895 360.715 426.094C346.001 421.255 329.776 417.38 326.681 419.618C326.626 419.654 326.553 419.691 326.499 419.727C317.412 423.565 308.853 431.552 302.389 442.23C298.765 448.197 297.199 456.184 298.164 457.075C299.093 457.73 300.35 457.839 301.187 457.33C301.642 457.057 302.243 457.203 302.517 457.676C302.79 458.13 302.644 458.731 302.171 459.004C301.533 459.386 300.75 459.586 299.967 459.586Z" fill="black"/>
<path d="M347.549 246.393C352.029 257.381 361.643 272.571 371.44 278.447C366.123 283.105 359.44 290.418 348.241 298.75C344.308 279.03 340.211 269.643 337.825 254.216C340.393 252.306 344.344 248.303 347.549 246.393Z" fill="white"/>
<path d="M348.241 299.714C348.132 299.714 348.004 299.696 347.895 299.641C347.586 299.514 347.349 299.241 347.294 298.914C345.455 289.727 343.543 282.65 341.868 276.41C339.865 269.006 338.153 262.602 336.878 254.343C336.824 253.979 336.969 253.634 337.261 253.415C338.208 252.706 339.391 251.687 340.629 250.595C342.687 248.794 345.018 246.775 347.076 245.538C347.312 245.393 347.622 245.356 347.895 245.447C348.168 245.538 348.387 245.738 348.496 246.011C353.194 257.527 362.772 272.08 371.986 277.592C372.26 277.756 372.423 278.029 372.46 278.338C372.496 278.648 372.369 278.957 372.132 279.157C370.584 280.521 368.927 282.086 367.015 283.905C362.463 288.217 356.818 293.601 348.878 299.496C348.642 299.641 348.441 299.714 348.241 299.714ZM338.881 254.634C340.138 262.511 341.813 268.733 343.743 275.919C345.346 281.849 347.13 288.508 348.897 297.04C356.108 291.564 361.352 286.579 365.631 282.523C367.179 281.067 368.545 279.757 369.838 278.593C360.915 272.608 351.883 259.037 347.112 247.867C345.437 249.031 343.579 250.65 341.904 252.105C340.812 253.015 339.774 253.925 338.881 254.634Z" fill="black"/>
<path d="M378.123 278.393C383.695 285.415 389.286 292.437 396.005 299.641C404.126 283.796 412.339 267.459 416.036 250.05C412.557 248.431 405 243.446 401.522 241.845C402.524 245.538 404.6 248.885 404.108 250.05C403.78 250.796 386.809 270.225 378.123 278.393Z" fill="white"/>
<path d="M395.987 300.624C395.713 300.624 395.459 300.514 395.276 300.314C388.539 293.092 382.857 285.943 377.376 279.03C377.067 278.629 377.085 278.029 377.449 277.683C385.971 269.679 402.05 251.25 403.198 249.649C403.252 249.213 402.633 247.667 402.16 246.539C401.613 245.211 401.012 243.701 400.557 242.1C400.466 241.736 400.575 241.336 400.867 241.099C401.158 240.863 401.559 240.808 401.905 240.954C403.689 241.772 406.512 243.482 409.261 245.101C411.956 246.702 414.742 248.376 416.418 249.158C416.837 249.358 417.055 249.795 416.964 250.25C413.122 268.333 404.472 285.197 396.842 300.078C396.697 300.369 396.424 300.551 396.114 300.605C396.078 300.624 396.041 300.624 395.987 300.624ZM379.434 278.484C384.478 284.833 389.704 291.364 395.75 297.968C403.052 283.705 411.155 267.66 414.906 250.595C413.14 249.704 410.664 248.212 408.26 246.793C406.494 245.738 404.691 244.647 403.179 243.81C403.434 244.501 403.707 245.174 403.962 245.793C404.836 247.958 405.419 249.377 404.982 250.432C404.545 251.469 388.156 270.134 379.434 278.484Z" fill="black"/>
<path d="M130.363 484.254C129.999 484.254 129.689 483.817 129.707 483.272C129.707 482.726 130.017 482.289 130.381 482.308C281.594 483.072 434.919 481.835 586.095 478.615C586.459 478.615 586.769 479.033 586.769 479.579C586.769 480.125 586.478 480.561 586.095 480.561C434.919 483.781 281.576 485.018 130.363 484.254Z" fill="black"/>
<path d="M320.635 422.656C320.144 422.656 319.725 422.292 319.67 421.801C315.974 393.33 305.558 363.513 291.099 340.009C290.826 339.555 290.954 338.954 291.427 338.663C291.882 338.39 292.483 338.518 292.774 338.991C307.379 362.731 317.886 392.821 321.619 421.564C321.691 422.092 321.309 422.583 320.781 422.656C320.726 422.638 320.672 422.656 320.635 422.656Z" fill="black"/>
<path d="M272.362 424.093C272.179 424.093 271.997 424.038 271.833 423.929C271.378 423.638 271.251 423.038 271.542 422.583C282.067 406.283 295.233 384.853 303.664 363.495C303.864 362.986 304.429 362.749 304.939 362.95C305.448 363.15 305.685 363.714 305.485 364.223C296.999 385.726 283.761 407.284 273.199 423.656C272.999 423.947 272.689 424.093 272.362 424.093Z" fill="black"/>
<path d="M322.511 468.609C321.965 468.609 321.528 468.154 321.528 467.627L321.655 454.401C321.655 453.855 322.128 453.419 322.638 453.437C323.185 453.437 323.603 453.892 323.603 454.419L323.476 467.645C323.494 468.191 323.057 468.609 322.511 468.609Z" fill="black"/>
<path d="M403.871 164.11C403.799 164.11 403.726 164.11 403.635 164.092C403.107 163.965 402.797 163.437 402.925 162.91C403.762 159.471 404.126 157.634 404.8 154.287C404.909 153.759 405.419 153.414 405.947 153.523C406.475 153.632 406.821 154.141 406.712 154.669C406.038 158.034 405.656 159.89 404.818 163.365C404.709 163.801 404.309 164.11 403.871 164.11Z" fill="black"/>
<path d="M488.747 414.069C488.219 414.069 487.8 413.651 487.763 413.141C487.745 412.596 488.164 412.141 488.692 412.123C494.501 411.886 500.383 411.722 506.21 411.65C506.21 411.65 506.21 411.65 506.228 411.65C506.756 411.65 507.193 412.086 507.211 412.614C507.211 413.16 506.792 413.596 506.246 413.596C500.437 413.669 494.574 413.833 488.783 414.069C488.783 414.069 488.765 414.069 488.747 414.069Z" fill="black"/>
<path d="M539.934 344.339C539.424 344.339 538.987 343.939 538.969 343.429C538.932 342.884 539.351 342.429 539.879 342.393C557.415 341.319 575.224 341.01 592.796 341.447C593.343 341.465 593.762 341.901 593.743 342.447C593.725 342.975 593.288 343.393 592.76 343.393H592.742C575.224 342.956 557.47 343.266 539.988 344.339C539.97 344.339 539.952 344.339 539.934 344.339Z" fill="black"/>
<path d="M546.781 360.475C546.253 360.475 545.816 360.057 545.797 359.511C545.779 358.965 546.216 358.529 546.763 358.511L584.438 357.783C584.985 357.783 585.422 358.201 585.44 358.747C585.458 359.293 585.021 359.73 584.475 359.748L546.799 360.475C546.781 360.475 546.781 360.475 546.781 360.475Z" fill="black"/>
<path d="M566.356 430.26C565.828 430.26 565.409 429.842 565.373 429.332C565.354 428.787 565.773 428.332 566.301 428.314L585.713 427.477C586.223 427.459 586.714 427.877 586.733 428.405C586.751 428.95 586.332 429.405 585.804 429.423L566.392 430.26C566.374 430.26 566.374 430.26 566.356 430.26Z" fill="black"/>
<path d="M420.788 276.21C420.715 276.21 420.642 276.21 420.57 276.192C420.041 276.083 419.714 275.555 419.823 275.027C420.897 270.261 421.79 265.386 422.463 260.546C422.536 260.019 423.046 259.637 423.556 259.71C424.084 259.782 424.466 260.274 424.394 260.801C423.702 265.695 422.809 270.625 421.717 275.446C421.644 275.901 421.243 276.21 420.788 276.21Z" fill="black"/>
<path d="M431.04 269.024C431.004 269.024 430.986 269.024 430.949 269.024C430.421 268.969 430.021 268.496 430.057 267.969L430.822 259.455C430.876 258.909 431.35 258.527 431.878 258.564C432.406 258.618 432.807 259.091 432.77 259.619L432.005 268.133C431.969 268.642 431.55 269.024 431.04 269.024Z" fill="black"/>
<path d="M419.878 125.052C419.477 125.052 419.095 124.797 418.967 124.397C418.785 123.888 419.058 123.342 419.568 123.16C424.612 121.359 428.272 116.174 428.236 110.808C428.236 110.262 428.673 109.825 429.201 109.825C429.729 109.825 430.166 110.262 430.184 110.79C430.221 116.938 426.014 122.905 420.224 124.979C420.096 125.034 419.987 125.052 419.878 125.052Z" fill="black"/>
<path d="M382.548 428.113C382.511 428.113 382.475 428.113 382.439 428.113C381.911 428.059 381.51 427.586 381.565 427.04C381.674 425.967 381.856 424.912 382.111 423.856C382.348 422.856 382.73 421.582 383.513 420.509C384.405 419.308 385.716 418.563 387.009 418.526H387.027C387.556 418.526 387.993 418.945 388.011 419.472C388.029 420.018 387.592 420.455 387.064 420.473C386.354 420.491 385.625 420.928 385.079 421.655C384.496 422.438 384.205 423.438 383.986 424.311C383.75 425.275 383.586 426.258 383.477 427.222C383.458 427.75 383.04 428.113 382.548 428.113Z" fill="black"/>
<path d="M383.458 465.425C382.694 465.425 381.947 465.025 381.419 464.37C381 463.843 380.782 463.242 380.599 462.678C379.853 460.277 379.653 457.694 379.999 455.22C380.071 454.692 380.563 454.31 381.091 454.383C381.619 454.456 382.002 454.947 381.929 455.474C381.619 457.675 381.801 459.968 382.475 462.096C382.603 462.478 382.73 462.878 382.949 463.151C383.094 463.351 383.313 463.479 383.458 463.479H383.477C384.005 463.479 384.442 463.897 384.46 464.425C384.478 464.97 384.041 465.407 383.513 465.425C383.477 465.425 383.458 465.425 383.458 465.425Z" fill="black"/>
<g opacity="0.1294">
<path d="M390.378 112.627C389.577 113.409 388.776 114.155 387.92 114.883C387.829 115.065 387.665 115.319 387.301 115.938C386.736 116.757 386.099 117.539 385.425 118.285C382.876 120.741 380.508 122.232 378.214 123.233C377.886 122.487 377.049 121.959 376.175 122.232C376.047 122.269 375.901 122.287 375.756 122.305C375.701 122.305 375.61 122.305 375.519 122.323C373.935 122.287 372.351 122.469 370.784 122.214C370.948 122.232 371.13 122.251 371.294 122.287C370.784 122.323 368.454 121.668 366.651 120.941C366.542 120.904 366.341 120.813 366.159 120.722C365.795 120.504 365.376 120.431 364.957 120.486C364.866 120.45 364.775 120.395 364.684 120.359C364.666 120.322 364.648 120.286 364.63 120.195C364.63 120.158 364.611 120.122 364.611 120.086C364.666 119.922 364.702 119.74 364.721 119.558C364.866 118.248 363.61 116.938 362.299 117.102C360.988 117.102 360.095 118.357 359.913 119.595C359.64 119.995 359.331 120.359 359.021 120.722C357.692 122.05 356.235 123.233 354.778 124.415C354.505 124.652 353.722 125.198 353.595 125.307C353.54 125.343 353.467 125.398 353.413 125.434C351.81 126.489 348.605 128.181 345.801 128.472C345.783 128.472 345.783 128.472 345.764 128.472C345.109 128.472 344.453 128.418 343.798 128.29C343.634 128.236 343.415 128.181 343.233 128.108C343.142 128.054 343.051 128.017 342.978 127.963C342.778 127.817 342.578 127.672 342.396 127.508C342.359 127.472 342.305 127.417 342.25 127.363C342.177 127.29 342.123 127.217 342.068 127.144C341.34 126.999 340.648 126.689 340.101 126.216C339.428 125.889 338.899 125.434 338.462 124.797C338.226 124.452 338.062 124.088 337.916 123.706C337.898 123.651 337.88 123.597 337.861 123.542C337.843 123.524 337.789 123.433 337.77 123.397C337.679 123.251 337.607 123.106 337.516 122.96C336.969 121.978 336.532 120.977 336.241 119.904C336.223 119.904 336.204 119.904 336.186 119.886C335.367 119.831 334.493 120.213 334.037 120.904C333.855 121.232 333.637 121.523 333.418 121.814C333.345 121.905 333.291 121.978 333.218 122.05C333.2 122.069 333.145 122.123 333.072 122.214C333.072 122.214 333.072 122.214 333.091 122.214C333.072 122.232 333.054 122.251 333.036 122.287C332.326 122.833 331.707 123.524 330.96 124.033C330.669 124.233 330.377 124.434 330.068 124.616C329.995 124.67 329.886 124.725 329.795 124.779C329.758 124.797 329.722 124.834 329.667 124.852C328.156 125.798 326.535 126.58 324.878 127.235C323.731 127.817 322.238 127.926 321.345 128.891C319.415 130.874 321.819 134.148 324.314 132.929C327.792 131.656 331.142 130 333.965 127.599C334.438 127.217 334.875 126.799 335.312 126.362C336.459 128.563 337.934 130.619 339.883 132.165C342.869 134.257 346.857 134.039 350.153 132.802C353.358 131.619 354.578 130.619 356.399 129.364C358.183 128.017 359.877 126.544 361.37 124.87C362.098 126.107 363.027 127.235 364.156 128.108C365.74 129.254 367.689 130 369.655 129.982C369.564 129.982 369.473 130 369.401 130C369.601 130.019 369.783 130.037 369.983 130.037C372.478 130.091 374.9 129.455 377.231 128.654C380.636 127.472 383.895 125.725 386.609 123.342C388.266 121.796 389.832 120.086 390.906 118.066C391.143 117.557 390.961 118.012 390.797 118.266C391.27 117.539 391.671 116.775 392.053 115.992C392.29 115.538 392.563 115.065 392.472 114.555C392.381 113.336 391.398 112.663 390.378 112.627Z" fill="black"/>
</g>
<g opacity="0.1294">
<path d="M426.506 135.112C425.796 133.584 424.121 134.003 422.81 134.257C420.843 134.603 418.84 134.676 416.873 134.985C415.416 135.221 413.978 135.531 412.503 135.604C412.521 135.604 412.521 135.604 412.539 135.604C411.72 135.658 412.084 135.64 412.539 135.604C411.756 135.676 410.937 135.585 410.172 135.713C410.008 135.349 409.79 135.021 409.425 134.785C407.859 133.602 405.474 135.131 405.911 137.041C406.221 138.496 406.548 139.97 406.658 141.443C406.567 143.608 406.567 147.065 409.626 146.646C410.227 146.537 410.718 146.155 411.119 145.718C411.028 145.882 412.503 144.718 412.867 144.518C414.415 143.444 417.31 141.825 420.169 140.224C421.662 139.442 423.174 138.696 424.722 138.041C424.849 138.005 424.958 137.95 425.086 137.914C425.195 137.878 425.341 137.823 425.505 137.768C426.506 137.35 426.98 136.113 426.506 135.112Z" fill="black"/>
</g>
<g opacity="0.1294">
<path d="M399.792 239.698C399.064 237.57 398.336 235.442 397.735 233.295C396.387 228.765 395.185 224.199 394.166 219.578C392.891 216.212 391.671 212.811 390.688 209.336C390.633 209.172 390.633 209.008 390.651 208.863C390.014 208.554 389.231 208.554 388.612 208.954C388.703 209.209 388.685 209.481 388.557 209.736C388.138 210.482 387.556 211.137 386.991 211.774C386.481 212.374 385.935 212.956 385.37 213.502C384.241 214.63 383.04 215.703 381.82 216.758C381.71 216.867 381.565 216.94 381.437 216.977C381.364 217.34 381.383 217.704 381.492 218.05C381.419 218.086 381.346 218.141 381.273 218.177C380.763 218.377 379.27 219.342 375.301 221.088C374.153 221.561 373.006 222.016 371.841 222.452C371.404 222.343 370.985 222.343 370.548 222.452C370.766 222.416 370.985 222.398 371.203 222.361C370.93 222.398 370.675 222.434 370.402 222.471C370.402 222.471 370.202 222.489 369.838 222.525C368.69 222.58 367.561 222.616 366.414 222.634C362.936 224.417 359.003 224.253 355.161 224.253C354.687 224.435 354.341 224.763 354.086 225.145C353.303 224.908 352.502 224.672 351.719 224.435C351.664 224.417 351.61 224.399 351.537 224.381C351.227 224.417 350.918 224.435 350.608 224.49C350.117 224.563 349.789 224.217 349.661 223.799C349.079 223.635 348.478 223.544 347.895 223.671C345.382 224.144 345.473 227.91 348.004 228.328C358.347 231.767 378.123 238.279 385.316 240.353C387.792 241.081 390.323 241.645 392.909 241.791C392.673 241.772 392.436 241.772 392.199 241.754C392.418 241.791 392.636 241.827 392.873 241.845C393.091 241.845 393.437 241.9 393.765 241.954C394.457 242.245 395.149 242.555 395.859 242.809C396.497 242.973 397.188 243.3 397.862 243.391C398.354 243.901 399.173 243.974 399.792 243.628C401.286 242.7 400.138 240.954 399.792 239.698Z" fill="black"/>
</g>
<g opacity="0.1294">
<path d="M375.446 299.059C374.681 298.386 373.898 297.695 373.006 297.567C370.457 297.131 369.255 300.715 371.477 301.988C373.134 303.17 374.044 303.807 374.518 304.317C375.1 304.935 375.647 305.754 376.594 305.772C378.068 306.063 379.38 304.571 379.179 303.152C379.325 301.078 379.034 300.787 379.398 299.678C379.999 296.767 375.902 296.221 375.446 299.059Z" fill="black"/>
</g>
<g opacity="0.1294">
<path d="M395.04 297.968C394.439 296.985 393.219 296.476 392.454 295.621C390.615 293.947 388.557 291.746 388.047 290.909C387.61 290.327 387.137 289.745 386.754 289.108C386.408 288.435 385.953 287.762 385.17 287.58C383.44 287.034 381.838 289.126 382.803 290.654C383.021 291 383.258 291.346 383.513 291.691C383.331 291.6 383.149 291.546 382.93 291.546C380.672 291.164 379.598 294.347 381.565 295.475C383.932 296.785 386.226 298.204 388.539 299.641C390.76 300.878 392.472 301.697 393.638 301.988C395.932 302.37 397.043 299.132 395.04 297.968Z" fill="black"/>
</g>
<g opacity="0.1294">
<path d="M366.25 291.928C365.704 290.909 365.212 289.872 364.593 288.89C364.302 288.38 364.12 287.744 363.592 287.416C362.335 286.379 360.715 287.161 360.223 288.399C360.15 288.417 360.077 288.417 360.004 288.435C359.112 288.671 358.566 289.472 357.947 290.09C356.927 291.182 357.036 291.418 356.891 291.782C356.891 291.8 356.872 291.8 356.872 291.819C356.708 292.092 356.599 292.364 356.545 292.637C355.634 292.983 354.742 293.365 353.868 293.783C352.538 294.438 350.918 294.802 349.898 295.93C348.459 297.676 350.663 300.151 352.593 299.005C354.032 298.204 355.725 297.676 358.329 296.621C359.822 296.094 361.425 295.912 362.954 295.53C363.355 295.421 363.683 295.257 363.938 295.039C365.558 295.457 367.234 293.638 366.25 291.928Z" fill="black"/>
</g>
<g opacity="0.1294">
<path d="M392.49 432.589C392.308 430.242 391.962 427.895 391.088 425.694C390.506 424.166 389.941 422.601 389.031 421.219C388.484 420.327 387.92 419.29 386.809 419.036C384.515 418.363 382.475 421 383.732 423.038L383.75 423.056C383.458 423.838 382.876 424.584 383.003 425.421C383.131 426.767 384.587 427.222 385.589 426.731C385.99 427.841 386.299 429.114 386.7 431.061C387.046 434.499 387.41 437.937 387.41 441.394C387.355 443.795 387.374 446.196 387.155 448.58C386.554 451.672 386.153 454.274 385.425 456.293C385.37 456.202 385.316 456.111 385.261 456.02C384.77 455.438 384.387 454.656 383.622 454.419C381.237 453.328 379.106 456.529 380.964 458.349C381.109 458.512 381.31 458.749 381.455 458.913C381.492 458.985 381.546 459.04 381.583 459.113C381.583 459.149 381.601 459.185 381.619 459.204C381.638 459.458 381.619 459.731 381.583 459.986C381.583 459.968 381.583 459.968 381.583 459.95C381.583 459.968 381.583 460.004 381.583 460.022C381.546 460.204 381.528 460.386 381.528 460.55C381.455 461.023 381.565 461.514 381.783 461.932C381.983 462.296 382.293 462.551 382.639 462.715C383.003 463.806 384.241 464.534 385.407 464.206C386.372 463.97 386.827 463.024 387.501 462.405C388.703 461.059 389.85 459.604 390.688 457.985C392.272 454.601 393.037 450.835 393.201 447.124C393.219 442.285 393.037 437.428 392.49 432.589Z" fill="black"/>
</g>
<g opacity="0.1294">
<path d="M579.23 468.409C578.174 465.789 577.409 463.06 576.535 460.386C575.388 457.021 574.04 453.728 572.875 450.362C571.254 445.851 570.125 442.103 568.942 438.41C561.749 421.71 554.884 404.846 548.165 387.945C540.972 369.826 534.107 351.58 527.46 333.26C526.768 333.66 526.313 334.461 526.586 335.316C529.791 345.667 534.161 355.6 537.803 365.788C542.137 379.013 546.143 392.366 549.348 405.919C550.058 408.721 550.878 411.486 551.715 414.251C550.113 414.033 548.365 415.488 548.911 417.38C550.951 428.277 552.662 435.772 552.954 446.233C553.008 447.87 553.026 449.489 553.045 451.126C552.772 451.236 552.517 451.381 552.28 451.563C552.007 451.727 551.806 451.963 551.624 452.2C552.025 450.544 552.407 448.889 552.753 447.233C552.225 447.197 551.661 447.361 551.26 447.761C550.732 448.252 550.732 448.98 550.568 449.635C549.967 451.8 550.077 451.709 549.111 453.2C549.093 453.237 549.057 453.273 549.039 453.291C548.966 453.364 548.893 453.473 548.802 453.564C545.542 457.002 541.809 460.368 539.296 462.096C533.779 466.026 530.519 467.281 524.456 469.246C522.616 469.846 520.759 470.41 518.902 470.901C514.95 470.956 510.999 471.247 507.047 471.119C500.728 470.956 494.446 470.246 488.146 469.828C478.968 469.5 468.734 469.337 461.76 467.99C455.732 466.499 449.523 466.499 443.368 465.862C437.851 465.353 435.939 465.007 431.04 464.407C427.544 464.025 422.409 463.57 421.152 463.297C416.017 462.442 405.82 460.568 403.944 460.441C400.594 460.041 398.536 459.586 394.111 459.549C393.128 459.622 392.072 459.313 391.161 459.713C390.305 460.04 389.85 460.75 389.741 461.496C389.103 461.459 388.466 461.423 387.847 461.387C387.537 461.369 387.246 461.441 386.973 461.587C384.697 462.46 385.425 465.971 387.847 465.935C393.237 466.208 398.572 466.626 402.324 467.245C405.055 467.663 407.786 468.063 410.536 468.354C411.738 468.354 413.031 468.9 414.178 468.445C414.652 468.263 414.997 467.954 415.216 467.572C415.689 467.681 416.181 467.79 416.655 467.881C424.576 469.555 430.949 469.773 437.377 470.792C443.659 471.592 449.978 472.084 456.297 472.629C457.717 472.884 463.708 473.885 468.024 474.176C468.279 475.013 468.989 475.722 470.045 475.722C473.305 475.977 476.528 476.395 479.769 476.723C480.661 478.36 482.155 477.869 484.067 478.269C488.237 478.706 492.407 478.615 496.595 478.742C500.911 478.906 505.208 479.233 509.524 479.16C513.184 479.124 516.826 478.687 520.449 478.324C523.509 478.069 526.677 478.032 529.591 476.941C529.572 478.196 530.465 479.488 531.994 479.47C532.868 479.506 533.979 479.488 535.181 479.433C535.199 479.542 535.254 479.633 535.29 479.742C536.674 479.597 538.058 479.47 539.442 479.342C547.928 478.578 556.395 478.214 564.899 478.178C565.045 478.014 565.191 477.851 565.3 477.669C565.664 477.669 566.028 477.614 566.356 477.505C566.647 477.832 566.975 478.051 567.321 478.178C571.018 478.16 574.696 478.142 578.393 478.014C579.358 477.978 580.305 477.941 581.27 477.887C581.962 477.396 582.435 476.686 582.399 475.722C582.235 474.267 581.397 472.975 580.796 471.665C580.25 470.61 579.722 469.519 579.23 468.409ZM541.263 470.974C539.551 472.993 539.406 473.23 538.131 474.594C537.439 474.631 536.729 474.649 536.037 474.649C535.563 474.703 535.017 474.685 534.489 474.667C537.621 472.811 540.608 470.355 543.12 467.845C543.521 467.499 543.922 467.135 544.322 466.753C543.321 468.172 542.301 469.573 541.263 470.974ZM566.629 449.726C566.52 448.689 566.411 447.67 566.283 446.633C566.447 447.161 566.629 447.706 566.793 448.234C567.012 448.907 567.23 449.562 567.467 450.217C567.212 450.017 566.939 449.817 566.629 449.726ZM574.568 473.939C575.206 473.757 575.752 473.321 576.116 472.739C576.317 473.139 576.535 473.557 576.754 473.976C575.971 473.957 575.26 473.939 574.568 473.939Z" fill="black"/>
</g>
</g>
<defs>
<clipPath id="clip0_54_24533">
<rect width="619" height="485" fill="white"/>
</clipPath>
</defs>
</svg>
