<svg width="1027" viewBox="0 0 1027 135" fill="none" xmlns="http://www.w3.org/2000/svg">
<path class="secong-line" d="M1 75.8138C13.7433 75.9998 317.833 57.3495 330.449 56.805C365.965 55.272 401.953 53.4872 435.67 46.9422C457.879 42.6312 495.412 34.089 497.706 15.3503C497.97 13.193 497.459 11.044 493.625 10.6634C477.659 9.07776 458.418 13.5309 444.814 17.4602C423.286 23.6781 405.02 34.3648 397.275 49.4474C393.066 57.6441 391.964 67.0976 396.72 75.8139C402.601 86.591 416.246 94.7703 431.597 99.8508C478.617 115.413 534.312 110.516 579.798 101.645C616.165 94.5527 649.371 83.4323 680.771 70.1344C707.514 58.8087 735.266 46.1276 756.991 30.735C763.99 25.7763 775.213 15.1736 763.786 8.14726C748.184 -1.44657 718.003 2.13057 701.591 4.4226C666.881 9.26993 638.273 19.2619 611.943 34.5539C589.624 47.5169 568.403 68.562 577.264 90.5324C587.49 115.889 634.773 126.724 668.397 130.521C720.651 136.422 773.837 133.28 824.22 127.694C846.064 125.272 867.713 122.303 889.119 118.866C980.212 104.238 934.872 108.798 1025.95 92.0388" stroke="#FF7050" stroke-width="2" stroke-linecap="round"/>
</svg>
