<svg width="1920" viewBox="0 0 1920 262" fill="none" xmlns="http://www.w3.org/2000/svg">
<path class="first-line" d="M954.18 145.814C966.924 146 1271.01 127.35 1283.63 126.805C1319.15 125.272 1355.13 123.487 1388.85 116.942C1411.06 112.631 1448.59 104.089 1450.89 85.3503C1451.15 83.193 1450.64 81.044 1446.81 80.6634C1430.84 79.0778 1411.6 83.5309 1397.99 87.4602C1376.47 93.6781 1358.2 104.365 1350.46 119.447C1346.25 127.644 1345.14 137.098 1349.9 145.814C1355.78 156.591 1369.43 164.77 1384.78 169.851C1431.8 185.413 1487.49 180.516 1532.98 171.645C1569.35 164.553 1602.55 153.432 1633.95 140.134C1660.69 128.809 1688.45 116.128 1710.17 100.735C1717.17 95.7763 1728.39 85.1736 1716.97 78.1473C1701.36 68.5534 1671.18 72.1306 1654.77 74.4226C1620.06 79.2699 1591.45 89.2619 1565.12 104.554C1542.8 117.517 1521.58 138.562 1530.44 160.532C1540.67 185.889 1587.95 196.724 1621.58 200.521C1673.83 206.422 1727.02 203.28 1777.4 197.694C1799.24 195.272 1820.89 192.303 1842.3 188.866C1933.39 174.238 1888.05 178.798 1979.13 162.039" stroke="#FF7050" stroke-width="4" stroke-linecap="round"/>
<path class="secong-line" d="M-23.9936 166.133C119.797 181.535 265.112 182.68 402.468 179.619C462.022 178.291 520.98 176.073 579.217 173.082C827.047 160.354 703.385 162.366 950.93 146.252" stroke="#FF7050" stroke-width="4" stroke-linecap="round"/>
</svg>
