<svg width="90" height="32" viewBox="0 0 90 32" fill="none" xmlns="http://www.w3.org/2000/svg">
<path d="M30.3622 32C30.463 32 30.5493 31.9624 30.6209 31.8871C30.6926 31.8146 30.7284 31.7254 30.7284 31.6195V29.3826H33.6339V31.6195C33.6339 31.7254 33.6698 31.8146 33.7414 31.8871C33.813 31.9624 33.898 32 33.9961 32C34.097 32 34.1832 31.9624 34.2548 31.8871C34.3265 31.8146 34.3623 31.7254 34.3623 31.6195V26.3805C34.3623 26.2774 34.3265 26.1882 34.2548 26.1129C34.1832 26.0376 34.097 26 33.9961 26C33.898 26 33.813 26.0376 33.7414 26.1129C33.6698 26.1882 33.6339 26.2774 33.6339 26.3805V28.6174H30.7284V26.3805C30.7284 26.2774 30.6926 26.1882 30.6209 26.1129C30.5493 26.0376 30.463 26 30.3622 26C30.2614 26 30.1765 26.0376 30.1075 26.1129C30.0358 26.1882 30 26.2774 30 26.3805V31.6195C30 31.7254 30.0358 31.8146 30.1075 31.8871C30.1765 31.9624 30.2614 32 30.3622 32Z" fill="#FF7050"/>
<path d="M44.5 32C45.0997 32 45.6131 31.7756 46.0403 31.3268C46.4675 30.8808 46.6812 30.3415 46.6812 29.7087V26.3805C46.6812 26.2774 46.6453 26.1882 46.5737 26.1129C46.502 26.0376 46.4158 26 46.315 26C46.2168 26 46.1319 26.0376 46.0602 26.1129C45.9886 26.1882 45.9528 26.2774 45.9528 26.3805V29.7087C45.9528 30.1296 45.8108 30.4892 45.5269 30.7875C45.243 31.0857 44.9007 31.2348 44.5 31.2348C44.0993 31.2348 43.757 31.0857 43.4731 30.7875C43.1892 30.4892 43.0472 30.1296 43.0472 29.7087V26.3805C43.0472 26.2774 43.0114 26.1882 42.9398 26.1129C42.8681 26.0376 42.7819 26 42.681 26C42.5802 26 42.4953 26.0376 42.4263 26.1129C42.3547 26.1882 42.3188 26.2774 42.3188 26.3805V29.7087C42.3188 30.3415 42.5325 30.8808 42.9597 31.3268C43.3842 31.7756 43.8977 32 44.5 32Z" fill="#FF7050"/>
<path d="M55.3661 29.3826H57.388C57.6321 29.3826 57.8404 29.4732 58.0129 29.6544C58.1854 29.8355 58.2716 30.0544 58.2716 30.3108C58.2716 30.5645 58.1854 30.7819 58.0129 30.9631C57.8404 31.1443 57.6321 31.2348 57.388 31.2348H55.3661V29.3826ZM55.3661 26.7652H56.9741C57.2182 26.7652 57.4265 26.8557 57.599 27.0369C57.7714 27.2181 57.8577 27.4355 57.8577 27.6892C57.8577 27.9456 57.7714 28.1645 57.599 28.3456C57.4265 28.5268 57.2182 28.6174 56.9741 28.6174H55.3661V26.7652ZM57.388 32C57.8338 32 58.2132 31.8341 58.5264 31.5024C58.8421 31.1735 59 30.7763 59 30.3108C59 29.9958 58.923 29.7045 58.7691 29.4369C58.6179 29.1777 58.4162 28.9742 58.1642 28.8265C58.4428 28.5059 58.5821 28.1268 58.5821 27.6892C58.5821 27.2237 58.4255 26.8265 58.1124 26.4976C57.7966 26.1659 57.4172 26 56.9741 26H54.9999C54.8991 26 54.8141 26.0376 54.7452 26.1129C54.6735 26.1882 54.6377 26.2774 54.6377 26.3805V31.6195C54.6377 31.7254 54.6735 31.8146 54.7452 31.8871C54.8141 31.9624 54.8991 32 54.9999 32H57.388Z" fill="#FF7050"/>
<path d="M4.06786 12.2146C3.45701 12.2146 2.93342 12.0033 2.4971 11.5805C2.06078 11.1577 1.84262 10.6504 1.84262 10.0585C1.84262 9.81138 1.752 9.6 1.57076 9.42439C1.38952 9.24878 1.17136 9.16098 0.916276 9.16098C0.661195 9.16098 0.446391 9.24878 0.271862 9.42439C0.0906207 9.6 0 9.81138 0 10.0585C0 11.1447 0.399402 12.0715 1.19821 12.839C1.9903 13.613 2.94685 14 4.06786 14H6.57503C7.69604 14 8.65595 13.613 9.45476 12.839C10.2536 12.0715 10.653 11.1447 10.653 10.0585C10.653 8.96585 10.2536 8.03577 9.45476 7.26829C8.65595 6.49431 7.69604 6.10732 6.57503 6.10732H4.06786C3.45701 6.10732 2.93342 5.89594 2.4971 5.47317C2.06078 5.05041 1.84262 4.53984 1.84262 3.94146C1.84262 3.34959 2.06078 2.84228 2.4971 2.41951C2.93342 1.99675 3.45701 1.78537 4.06786 1.78537H6.57503C7.1926 1.78537 7.71954 1.99675 8.15586 2.41951C8.59218 2.84228 8.81034 3.34959 8.81034 3.94146C8.81034 4.18862 8.90096 4.4 9.0822 4.57561C9.25673 4.75122 9.47154 4.83902 9.72662 4.83902C9.9817 4.83902 10.1999 4.75122 10.3811 4.57561C10.5623 4.4 10.653 4.18862 10.653 3.94146C10.653 2.85528 10.2536 1.92846 9.45476 1.16098C8.65595 0.386992 7.69604 0 6.57503 0H4.06786C2.94685 0 1.9903 0.386992 1.19821 1.16098C0.399402 1.92846 0 2.85528 0 3.94146C0 5.03415 0.399402 5.96423 1.19821 6.73171C1.9903 7.50569 2.94685 7.89268 4.06786 7.89268H6.57503C7.1926 7.89268 7.71954 8.10406 8.15586 8.52683C8.59218 8.94959 8.81034 9.46016 8.81034 10.0585C8.81034 10.6504 8.59218 11.1577 8.15586 11.5805C7.71954 12.0033 7.1926 12.2146 6.57503 12.2146H4.06786Z" fill="#FF7050"/>
<path d="M28.4508 4.56585C28.4508 5.33333 28.1688 5.99024 27.605 6.53659C27.0478 7.07642 26.3732 7.34634 25.5811 7.34634H21.624V1.78537H25.5811C26.3732 1.78537 27.0478 2.05528 27.605 2.59512C28.1688 3.14146 28.4508 3.79837 28.4508 4.56585ZM21.624 9.13171H25.5811C26.8766 9.13171 27.9842 8.68618 28.9039 7.79512C29.8302 6.90407 30.2934 5.82764 30.2934 4.56585C30.2934 3.31057 29.8302 2.23415 28.9039 1.33659C27.9842 0.445528 26.8766 0 25.5811 0H20.6977C20.4426 0 20.2278 0.0878049 20.0532 0.263415C19.872 0.439024 19.7814 0.647154 19.7814 0.887805V13.1122C19.7814 13.3593 19.872 13.5675 20.0532 13.7366C20.2278 13.9122 20.4426 14 20.6977 14C20.9527 14 21.1709 13.9122 21.3521 13.7366C21.5334 13.5675 21.624 13.3593 21.624 13.1122V9.13171Z" fill="#FF7050"/>
<path d="M49.0074 14C49.2625 14 49.4807 13.9122 49.6619 13.7366C49.8432 13.5675 49.9338 13.3593 49.9338 13.1122C49.9338 12.865 49.8432 12.6537 49.6619 12.478C49.4807 12.3024 49.2625 12.2146 49.0074 12.2146H41.2644V7.89268H46.9131C47.1615 7.89268 47.3763 7.80488 47.5575 7.62927C47.7388 7.45366 47.8294 7.24553 47.8294 7.00488C47.8294 6.75772 47.7388 6.54634 47.5575 6.37073C47.3763 6.19512 47.1615 6.10732 46.9131 6.10732H41.2644V1.78537H49.0074C49.2625 1.78537 49.4807 1.69756 49.6619 1.52195C49.8432 1.34634 49.9338 1.13496 49.9338 0.887805C49.9338 0.647154 49.8432 0.439024 49.6619 0.263415C49.4807 0.0878049 49.2625 0 49.0074 0H40.3381C40.083 0 39.8682 0.0878049 39.6937 0.263415C39.5124 0.439024 39.4218 0.647154 39.4218 0.887805V13.1122C39.4218 13.3593 39.5124 13.5675 39.6937 13.7366C39.8682 13.9122 40.083 14 40.3381 14H49.0074Z" fill="#FF7050"/>
<path d="M68.6479 14C68.9029 14 69.1211 13.9122 69.3023 13.7366C69.4836 13.5675 69.5742 13.3593 69.5742 13.1122C69.5742 12.865 69.4836 12.6537 69.3023 12.478C69.1211 12.3024 68.9029 12.2146 68.6479 12.2146H60.9048V7.89268H66.5535C66.8019 7.89268 67.0167 7.80488 67.1979 7.62927C67.3792 7.45366 67.4698 7.24553 67.4698 7.00488C67.4698 6.75772 67.3792 6.54634 67.1979 6.37073C67.0167 6.19512 66.8019 6.10732 66.5535 6.10732H60.9048V1.78537H68.6479C68.9029 1.78537 69.1211 1.69756 69.3023 1.52195C69.4836 1.34634 69.5742 1.13496 69.5742 0.887805C69.5742 0.647154 69.4836 0.439024 69.3023 0.263415C69.1211 0.0878049 68.9029 0 68.6479 0H59.9785C59.7234 0 59.5086 0.0878049 59.3341 0.263415C59.1528 0.439024 59.0622 0.647154 59.0622 0.887805V13.1122C59.0622 13.3593 59.1528 13.5675 59.3341 13.7366C59.5086 13.9122 59.7234 14 59.9785 14H68.6479Z" fill="#FF7050"/>
<path d="M80.5452 1.78537H82.7705C84.2607 1.78537 85.5294 2.29593 86.5766 3.31707C87.6304 4.33171 88.1574 5.56098 88.1574 7.00488C88.1574 8.44228 87.6304 9.67155 86.5766 10.6927C85.5294 11.7073 84.2607 12.2146 82.7705 12.2146H80.5452V1.78537ZM82.7705 14C84.7709 14 86.4759 13.3171 87.8855 11.9512C89.2952 10.5854 90 8.93659 90 7.00488C90 5.06667 89.2952 3.41463 87.8855 2.04878C86.4759 0.682927 84.7709 0 82.7705 0H79.6189C79.3638 0 79.149 0.0878049 78.9745 0.263415C78.7932 0.439024 78.7026 0.647154 78.7026 0.887805V13.1122C78.7026 13.3593 78.7932 13.5675 78.9745 13.7366C79.149 13.9122 79.3638 14 79.6189 14H82.7705Z" fill="#FF7050"/>
<path class="white" fill-rule="evenodd" clip-rule="evenodd" d="M29.0937 12.9179C28.4795 13.9236 27.1503 15.2295 24.9446 16.892C22.3972 18.8119 19.6557 20.3039 16.9303 21.4536C16.901 21.6231 16.8774 21.7927 16.8599 21.9624C16.8238 22.313 16.9234 22.4764 17.0995 22.6085C17.3399 22.7888 17.7928 22.9452 18.5215 23.0019C19.9609 23.1139 22.039 22.8092 24.3312 22.2515C26.6036 21.6987 29.0138 20.9157 31.0854 20.1206C33.173 19.3193 34.8602 18.5272 35.7167 17.9684L36.5795 19.3518C35.5749 20.0073 33.7567 20.848 31.649 21.657C29.5254 22.4721 27.0505 23.2768 24.7025 23.848C22.3743 24.4144 20.0967 24.7702 18.3997 24.6382C17.5602 24.5728 16.7496 24.381 16.1508 23.9318C15.5711 23.497 15.257 22.8712 15.2488 22.1217C8.97842 24.464 3.02668 25.0679 0 24.9941L0.0381869 23.3536C3.05614 23.4271 9.20991 22.7783 15.5556 20.2493C15.9968 18.6312 16.8251 17.1205 17.7564 15.8506C18.9675 14.1992 20.4141 12.8719 21.5734 12.187C22.7518 11.376 24.076 10.7574 25.2685 10.3893C25.8695 10.2038 26.4523 10.0773 26.9781 10.0259C27.4901 9.9758 28.0106 9.99043 28.4521 10.1413C28.9154 10.2996 29.3903 10.6546 29.5091 11.2991C29.6128 11.8621 29.3944 12.4256 29.0937 12.9179ZM17.5598 19.3881C17.9465 18.4892 18.4604 17.6252 19.0397 16.8354C20.1605 15.3072 21.4635 14.1412 22.3961 13.5961L22.4224 13.5808L22.4474 13.5634C23.4929 12.8402 24.6797 12.2851 25.7319 11.9604C26.2574 11.7982 26.7341 11.6982 27.1308 11.6594C27.5093 11.6224 27.7642 11.6463 27.9093 11.6871C27.8863 11.7598 27.8375 11.8775 27.7331 12.0484C27.2907 12.7728 26.1766 13.9251 23.9929 15.5709C21.944 17.1151 19.7589 18.3715 17.5598 19.3881Z" fill="black"/>
<path class="white" fill-rule="evenodd" clip-rule="evenodd" d="M61.3674 17.544C63.0239 16.3741 64.4883 16.3702 65.3054 16.6002L65.3618 16.6161L65.4153 16.6402C65.6485 16.7453 65.9389 16.9054 66.1962 17.1229C66.439 17.3282 66.7508 17.668 66.8435 18.1522C66.9487 18.7016 66.733 19.1997 66.3598 19.5863C66.0099 19.9486 65.4834 20.2621 64.7906 20.5502C63.124 21.2781 61.6552 21.8938 60.3634 22.4109C60.4211 22.4753 60.543 22.5684 60.806 22.6398C61.4592 22.8172 62.7109 22.7862 64.891 22.197C73.7695 19.7975 85.0339 18.5516 90 18.9589L89.8729 20.6102C85.146 20.2225 74.0717 21.4282 65.2975 23.7995C63.0645 24.403 61.4717 24.5335 60.3977 24.2419C59.8395 24.0903 59.3705 23.8104 59.0543 23.3732C58.9687 23.2548 58.8991 23.1316 58.8435 23.0054C58.1329 23.2762 57.4868 23.5113 56.9003 23.7141C54.9849 24.3764 53.6605 24.7093 52.7839 24.7929C52.3574 24.8335 51.9457 24.8256 51.6038 24.7011C51.4229 24.6352 51.2251 24.5235 51.0664 24.3331C50.8998 24.1333 50.8177 23.8963 50.8039 23.6617C50.7794 23.2459 50.9691 22.8894 51.111 22.6705C51.2716 22.4228 51.4834 22.1831 51.7027 21.9677L51.723 21.9477L51.7446 21.9292C52.3209 21.4373 53.0635 20.8012 53.5058 20.2182C53.6612 20.0133 53.7357 19.8701 53.7692 19.7853C53.3995 19.5978 52.8013 19.5709 51.9516 19.8072C51.1144 20.04 50.1642 20.4924 49.2141 21.0631C47.3473 22.1845 45.6511 23.6571 44.9799 24.5022L44.9223 24.5763L43.6646 23.5475C43.6856 23.5199 43.7073 23.4918 43.7298 23.4634L46.0689 20.4501C44.446 21.0385 41.9242 21.9563 38.1125 23.3484C35.9151 24.1509 34.3993 24.5228 33.4309 24.5163C32.9642 24.5132 32.4262 24.4233 32.0531 24.0319C31.625 23.5828 31.6489 23.0077 31.7569 22.6078C31.8636 22.2123 32.0885 21.8158 32.3371 21.4556C32.5936 21.0839 32.9141 20.696 33.2631 20.3128C33.9616 19.5458 34.8146 18.7536 35.6019 18.0849L36.6216 19.364C35.8683 20.0039 35.0699 20.7473 34.4324 21.4474C34.1134 21.7976 33.8447 22.1261 33.6442 22.4167C33.5207 22.5956 33.4353 22.7429 33.3793 22.8585C33.3986 22.8592 33.4192 22.8597 33.4414 22.8598C34.1027 22.8643 35.3839 22.5877 37.5773 21.7867C41.9682 20.1831 44.6491 19.2082 46.2164 18.641C46.9999 18.3575 47.5061 18.1755 47.8089 18.0677C47.9596 18.014 48.0627 17.9777 48.1251 17.9563C48.152 17.947 48.184 17.9362 48.2093 17.9285C48.215 17.9268 48.2327 17.9214 48.2545 17.916L48.2548 17.916C48.2628 17.914 48.2927 17.9067 48.3311 17.9011C48.3467 17.8989 48.3965 17.8919 48.4605 17.8934C48.4957 17.895 48.5853 17.9064 48.6391 17.9185C48.7279 17.9474 48.9471 18.0776 49.061 18.194C49.1768 18.3878 49.2416 18.7955 49.2046 18.9804C49.1721 19.0629 49.108 19.174 49.0621 19.2418L49.0627 19.2423L49.0538 19.2537C49.0514 19.2573 49.049 19.2606 49.0466 19.2638C49.8715 18.812 50.7224 18.4334 51.5342 18.2077C52.5339 17.9297 53.6168 17.844 54.5151 18.3184C54.7845 18.4607 55.0313 18.6639 55.198 18.9506C55.3689 19.2443 55.4177 19.5605 55.3914 19.8546C55.3433 20.3917 55.0439 20.8774 54.7693 21.2394C54.2343 21.9446 53.4163 22.6517 52.8741 23.1147C53.5821 23.0135 54.7033 22.7268 56.3906 22.1434C57.088 21.9022 57.8762 21.6125 58.7646 21.2681C58.9358 20.5923 59.2897 19.9298 59.6606 19.3801C60.168 18.6281 60.809 17.9383 61.3674 17.544ZM60.9279 20.4013C61.9114 19.9961 62.99 19.538 64.1717 19.0218L64.1784 19.0189L64.1852 19.0161C64.7773 18.7704 65.0747 18.5637 65.2093 18.4308C65.2004 18.4226 65.1904 18.4138 65.1793 18.4044C65.0842 18.324 64.9573 18.2468 64.8289 18.1845C64.4317 18.0915 63.4851 18.0555 62.2736 18.9111C61.9172 19.1628 61.4068 19.6906 60.9774 20.3269C60.9607 20.3517 60.9442 20.3765 60.9279 20.4013Z" fill="black"/>
<path class="white" fill-rule="evenodd" clip-rule="evenodd" d="M37.6378 18.6498L36.6976 17.1714L38.0445 16.2756L38.9847 17.754L37.6378 18.6498Z" fill="black"/>
</svg>
