<svg width="907"  viewBox="0 0 907 14" fill="none" xmlns="http://www.w3.org/2000/svg">
<path d="M905 9.72343C879.364 8.82006 856.341 2.24298 829.312 3.01906C819.264 3.30756 809.589 6.35067 800.393 7.79258C782.994 10.5206 766.482 12.9154 747.535 11.6543C716.042 9.55806 685.699 2 653.582 2C642.225 2 635.085 4.03775 625.77 6.34443C610.869 10.0347 594.604 10.6908 577.341 11.1179C545.085 11.916 513.746 5.96989 482.142 4.1454C464.67 3.13672 450.801 8.58935 434.267 8.75801C413.546 8.96937 391.784 3.1891 372 4.46721C348.409 5.99126 332.385 10.5961 307.105 8.27529C289.88 6.69392 266.805 3.31373 249.405 5.86172C228.221 8.9638 203.912 11.0441 181.327 9.18709C163.188 7.69563 136.243 1.45283 117.954 4.89629C97.1445 8.81409 67.7092 8.93669 45.7247 6.61261C37.3597 5.7283 27.3075 4.03813 18.4658 4.03813C12.5438 4.03813 7.07717 6.3903 1.99998 7.25623" stroke="#FF7050" stroke-width="4" stroke-linecap="round"/>
</svg>
