<svg width="397" viewBox="0 0 397 14" fill="none" xmlns="http://www.w3.org/2000/svg">
<path d="M395 9.72343C386.031 8.82006 377.976 2.24298 368.519 3.01906C365.004 3.30756 361.619 6.35067 358.401 7.79258C352.314 10.5206 346.537 12.9154 339.908 11.6543C328.89 9.55806 318.274 2 307.037 2C303.064 2 300.566 4.03775 297.307 6.34443C292.093 10.0347 286.403 10.6908 280.363 11.1179C269.078 11.916 258.113 5.96989 247.056 4.1454C240.943 3.13672 236.091 8.58934 230.306 8.758C223.057 8.96937 215.443 3.1891 208.521 4.46721C200.267 5.99126 194.661 10.5961 185.816 8.27529C179.79 6.69392 171.717 3.31373 165.629 5.86172C158.217 8.9638 149.713 11.0441 141.811 9.18708C135.464 7.69563 126.038 1.45283 119.639 4.89629C112.358 8.81409 102.06 8.93669 94.3681 6.61261C91.4414 5.72829 87.9245 4.03813 84.8311 4.03813C82.7592 4.03813 80.8466 6.3903 79.0702 7.25623C70.1159 11.6213 65.3219 7.2206 56.5107 4.46721C49.6113 2.31124 45.4703 5.36681 38.5987 6.61261C26.6854 8.77242 13.8828 5.6707 2 4.89629" stroke="#FF7050" stroke-width="4" stroke-linecap="round"/>
</svg>
