<svg width="335" viewBox="0 0 335 14" fill="none" xmlns="http://www.w3.org/2000/svg">
<path d="M332.519 3.01906C329.004 3.30756 325.619 6.35067 322.401 7.79258C316.314 10.5206 310.537 12.9154 303.908 11.6543C292.89 9.55806 282.274 2 271.037 2C267.064 2 264.566 4.03775 261.307 6.34443C256.093 10.0347 250.403 10.6908 244.363 11.1179C233.078 11.916 222.113 5.96989 211.056 4.1454C204.943 3.13672 200.091 8.58934 194.306 8.758C187.057 8.96937 179.443 3.1891 172.521 4.46721C164.267 5.99126 158.661 10.5961 149.816 8.27529C143.79 6.69392 135.717 3.31373 129.629 5.86172C122.217 8.9638 113.713 11.0441 105.811 9.18708C99.4645 7.69563 90.0376 1.45283 83.6387 4.89629C76.3582 8.81409 66.0598 8.93669 58.3681 6.61261C55.4415 5.72829 51.9246 4.03813 48.8312 4.03813C46.7592 4.03813 44.8466 6.3903 43.0703 7.25623C34.116 11.6213 29.322 7.2206 20.5108 4.46721C13.6114 2.31124 9.4704 5.36681 2.59872 6.61261" stroke="#FF7050" stroke-width="4" stroke-linecap="round"/>
</svg>
