<svg width="435"  viewBox="0 0 435 14" fill="none" xmlns="http://www.w3.org/2000/svg">
<path d="M2 9.72343C14.2361 8.82006 25.2247 2.24298 38.1258 3.01906C42.9215 3.30756 47.5395 6.35067 51.9289 7.79258C60.2334 10.5206 68.1142 12.9154 77.1575 11.6543C92.1892 9.55806 106.672 2 122.001 2C127.422 2 130.83 4.03775 135.276 6.34443C142.388 10.0347 150.151 10.6908 158.391 11.1179C173.787 11.916 188.745 5.96989 203.829 4.1454C212.168 3.13672 218.788 8.58935 226.68 8.75801C236.57 8.96937 246.957 3.1891 256.4 4.46721C267.66 5.99126 275.308 10.5961 287.374 8.27529C295.596 6.69392 306.609 3.31373 314.914 5.86172C325.025 8.9638 336.628 11.0441 347.408 9.18709C356.065 7.69563 368.926 1.45283 377.656 4.89629C387.588 8.81409 401.637 8.93669 412.13 6.61261C416.123 5.7283 420.921 4.03813 425.141 4.03813C427.967 4.03813 430.577 6.3903 433 7.25623" stroke="#FF7050" stroke-width="4" stroke-linecap="round"/>
</svg>
