<svg width="467"  viewBox="0 0 467 14" fill="none" xmlns="http://www.w3.org/2000/svg">
<path d="M465 9.72343C451.855 8.82006 440.051 2.24298 426.192 3.01906C421.04 3.30756 416.079 6.35067 411.364 7.79258C402.443 10.5206 393.977 12.9154 384.262 11.6543C368.115 9.55806 352.556 2 336.089 2C330.266 2 326.605 4.03775 321.829 6.34443C314.189 10.0347 305.849 10.6908 296.998 11.1179C280.459 11.916 264.39 5.96989 248.186 4.1454C239.227 3.13672 232.116 8.58935 223.638 8.75801C213.014 8.96937 201.856 3.1891 191.712 4.46721C179.616 5.99126 171.4 10.5961 158.438 8.27529C149.606 6.69392 137.775 3.31373 128.853 5.86172C117.991 8.9638 105.527 11.0441 93.9473 9.18709C84.6466 7.69563 70.8313 1.45283 61.4535 4.89629C50.7839 8.81409 35.6914 8.93669 24.4192 6.61261C20.1301 5.7283 14.976 4.03813 10.4426 4.03813C7.40616 4.03813 4.60324 6.3903 1.99999 7.25623" stroke="#FF7050" stroke-width="4" stroke-linecap="round"/>
</svg>
