<svg width="443"  viewBox="0 0 443 14" fill="none" xmlns="http://www.w3.org/2000/svg">
<path class="underline-1" d="M2 9.72343C12.0191 8.82006 21.0167 2.24298 31.5803 3.01906C35.5071 3.30756 39.2884 6.35067 42.8825 7.79258C49.6823 10.5206 56.1352 12.9154 63.54 11.6543C75.8482 9.55806 87.707 2 100.259 2C104.697 2 107.488 4.03775 111.128 6.34443C116.952 10.0347 123.308 10.6908 130.055 11.1179C142.661 11.916 154.909 5.96989 167.26 4.1454C174.089 3.13672 179.509 8.58934 185.971 8.758C194.069 8.96937 202.574 3.1891 210.306 4.46721C219.526 5.99126 225.788 10.5961 235.668 8.27529C242.4 6.69392 251.418 3.31373 258.219 5.86172C266.498 8.9638 275.998 11.0441 284.825 9.18708C291.914 7.69563 302.444 1.45283 309.592 4.89629C317.725 8.81409 329.228 8.93669 337.82 6.61261C341.09 5.72829 345.018 4.03813 348.474 4.03813C350.788 4.03813 352.925 6.3903 354.909 7.25623C364.911 11.6213 370.266 7.2206 380.109 4.46721C387.816 2.31124 392.442 5.36681 400.118 6.61261C413.425 8.77242 427.726 5.6707 441 4.89629" stroke="#FF7050" stroke-width="4" stroke-linecap="round"/>
</svg>
