<svg width="99" height="62" viewBox="0 0 99 62" fill="none" xmlns="http://www.w3.org/2000/svg">
<path d="M0.994368 4.89747C0.775548 4.69497 0.620676 4.4224 0.574694 4.10297C0.46446 3.36413 0.974607 2.67336 1.71343 2.56338C24.8549 -0.893607 39.1559 -1.21253 59.6448 10.0884C80.1336 21.3894 86.6892 37.7691 96.1085 59.1857C96.4083 59.8693 96.0994 60.6725 95.4159 60.9721C94.7324 61.2718 93.9292 60.9622 93.6294 60.2786C84.4516 39.3992 78.3069 23.4829 58.342 12.4638C38.3725 1.4496 24.675 1.87487 2.11997 5.24693C1.6956 5.30643 1.28783 5.16906 0.999385 4.90212L0.994368 4.89747Z" fill="#2A7651"/>
<path d="M94.125 61.1896C93.8763 60.9594 93.7147 60.6345 93.691 60.2711C93.617 58.9843 93.9362 57.8122 94.2422 56.6834C94.3388 56.3297 94.4401 55.9712 94.522 55.6133C94.7395 54.67 94.8485 53.6542 94.9591 52.6767L95.9508 43.7836C96.032 43.0374 96.7013 42.5031 97.4476 42.5846C98.1938 42.6661 98.7282 43.336 98.647 44.0822L97.6553 52.9753C97.5381 54.0297 97.4175 55.1272 97.1628 56.2205C97.0727 56.6171 96.9683 57.0096 96.8587 57.3974C96.5988 58.3566 96.3463 59.2674 96.3936 60.1141C96.4372 60.8651 95.8676 61.5009 95.1166 61.5443C94.734 61.5686 94.3786 61.4242 94.12 61.1849L94.125 61.1896Z" fill="#2A7651"/>
<path d="M78.1154 57.8179C77.9463 57.6615 77.814 57.4652 77.7426 57.233C77.5183 56.5177 77.9158 55.7596 78.626 55.5309C80.2031 55.0338 81.8282 55.2825 83.2241 55.5499C87.4218 56.3613 91.5462 57.6216 95.4799 59.287C96.1673 59.5817 96.4902 60.3697 96.2007 61.0616C95.9112 61.7535 95.1133 62.0765 94.4258 61.7818C90.6629 60.1913 86.7234 58.9914 82.7091 58.2113C81.5885 57.9956 80.4113 57.8107 79.4402 58.1118C78.9571 58.2646 78.4585 58.1355 78.1104 57.8133L78.1154 57.8179Z" fill="#2A7651"/>
</svg>
