<svg width="126" height="135" viewBox="0 0 126 135" fill="none" xmlns="http://www.w3.org/2000/svg">
<path d="M62.9988 39.2253C62.9988 49.6738 59.5512 59.1373 53.9725 65.9839C48.397 72.8337 40.6936 77.0665 32.1849 77.0665C23.6763 77.0665 15.9728 72.8304 10.3973 65.9839C4.82184 59.1341 1.37109 49.6738 1.37109 39.2253C1.37109 28.7768 4.81864 19.3133 10.3973 12.4667C15.9728 5.61691 23.6763 1.38086 32.1849 1.38086C40.6936 1.38086 48.397 5.61691 53.9725 12.4635C59.548 19.3133 62.9988 28.7736 62.9988 39.2221V39.2253Z" fill="#8DB475"/>
<path d="M32.1846 78.4474C23.3117 78.4474 15.2631 74.0472 9.43522 66.9464C3.6105 59.8455 0 50.0376 0 39.2253C0 28.4131 3.6105 18.6052 9.43842 11.5011C15.2663 4.40021 23.3117 0 32.1846 0C41.0574 0 49.1028 4.40021 54.9307 11.5011C60.7586 18.6052 64.3691 28.4099 64.3691 39.2221C64.3691 50.0343 60.7586 59.8423 54.9307 66.9431C49.1028 74.044 41.0574 78.4442 32.1846 78.4442V78.4474ZM32.1846 2.7618C24.0657 2.7618 16.7041 6.84979 11.3747 13.4549C6.04199 20.0569 2.74142 29.1727 2.74142 39.2253C2.74142 49.2779 6.04519 58.3938 11.3747 64.9957C16.7073 71.5976 24.0689 75.6856 32.1846 75.6856C40.3002 75.6856 47.6618 71.5976 52.9944 64.9957C58.3271 58.3938 61.6277 49.2779 61.6277 39.2253C61.6277 29.1727 58.3271 20.0569 52.9944 13.4549C47.6618 6.853 40.3034 2.7618 32.1846 2.7618Z" fill="#1D6148"/>
<path d="M29.4402 14.9808C24.7466 14.9808 20.5002 17.6943 17.4233 22.0816C14.3496 26.469 12.4453 32.5301 12.4453 39.2254H24.7338L19.5161 44.7265L14.2985 50.2275C15.7043 54.1546 17.8387 57.4668 20.4459 59.7941C23.0531 62.1213 26.1364 63.4668 29.4402 63.4668C34.1339 63.4668 38.3802 60.7533 41.4571 56.366C44.5308 51.9786 46.4351 45.9175 46.4351 39.2222C46.4351 32.5269 44.534 26.4657 41.4571 22.0784C38.3834 17.6911 34.1339 14.9775 29.4402 14.9775V14.9808Z" fill="#1D6148"/>
<path d="M124.626 39.2252C124.626 49.6737 121.178 59.1373 115.599 65.9838C110.024 72.8336 102.321 77.0664 93.8119 77.0664C85.3033 77.0664 77.5998 72.8304 72.0243 65.9838C66.4488 59.134 62.998 49.6737 62.998 39.2252C62.998 28.7767 66.4456 19.3132 72.0243 12.4667C77.5998 5.61687 85.3033 1.38403 93.8119 1.38403C102.321 1.38403 110.024 5.62008 115.599 12.4667C121.175 19.3164 124.626 28.7767 124.626 39.2252Z" fill="#8DB475"/>
<path d="M93.8125 78.4474C84.9396 78.4474 76.8943 74.0472 71.0663 66.9464C65.2384 59.8455 61.6279 50.0376 61.6279 39.2253C61.6279 28.4131 65.2384 18.6052 71.0663 11.5043C76.8943 4.40022 84.9396 0 93.8125 0C102.685 0 110.734 4.40021 116.562 11.5011C122.39 18.6052 126 28.4099 126 39.2221C126 50.0343 122.39 59.8423 116.562 66.9431C110.734 74.044 102.689 78.4442 93.8125 78.4442V78.4474ZM93.8125 2.7618C85.6937 2.7618 78.3353 6.84979 73.0026 13.4549C67.6699 20.0569 64.3694 29.1727 64.3694 39.2253C64.3694 49.2779 67.6699 58.3938 73.0026 64.9957C78.3353 71.5976 85.6937 75.6856 93.8125 75.6856C101.931 75.6856 109.29 71.5976 114.622 64.9957C119.955 58.3938 123.256 49.2779 123.256 39.2253C123.256 29.1727 119.955 20.0569 114.622 13.4549C109.29 6.853 101.931 2.7618 93.8125 2.7618Z" fill="#1D6148"/>
<path d="M91.0672 14.9808C86.3735 14.9808 82.1272 17.6943 79.0503 22.0816C75.9766 26.469 74.0723 32.5301 74.0723 39.2254H86.3607L81.1431 44.7265L75.9254 50.2275C77.3313 54.1546 79.4656 57.4668 82.0729 59.7941C84.6801 62.1213 87.7634 63.4668 91.0672 63.4668C95.7608 63.4668 100.007 60.7533 103.084 56.366C106.158 51.9786 108.062 45.9175 108.062 39.2222C108.062 32.5269 106.161 26.4657 103.084 22.0784C100.01 17.6911 95.7608 14.9775 91.0672 14.9775V14.9808Z" fill="#1D6148"/>
<path d="M6.04883 77.6911C8.29181 75.5956 10.9917 74.0087 13.8897 73.0205C16.7877 72.0323 19.8869 71.6428 22.9351 71.9357C25.9833 72.2286 28.9515 73.204 31.6131 74.7297C34.2746 76.2555 36.623 78.3252 38.4315 80.8134" fill="#8DB475"/>
<path d="M38.4347 82.1941C38.2238 82.1941 38.0129 82.1458 37.8244 82.0492C37.6359 81.9527 37.4634 81.8143 37.3292 81.6276C35.6357 79.2971 33.4311 77.3561 30.9389 75.9269C28.4467 74.4977 25.6605 73.5836 22.8073 73.3068C19.954 73.0299 17.0465 73.3969 14.3306 74.3239C11.6147 75.251 9.0842 76.7381 6.985 78.7016C6.70702 78.9591 6.35237 79.0814 6.0009 79.0686C5.64944 79.0557 5.30436 78.9076 5.04875 78.6276C4.79314 78.3475 4.67173 77.9902 4.68451 77.6362C4.69729 77.2821 4.84426 76.9344 5.12224 76.6737C7.50581 74.4462 10.3718 72.7628 13.4519 71.7102C16.5321 70.6608 19.8294 70.2456 23.0725 70.5546C26.3092 70.8668 29.4659 71.9033 32.2936 73.5256C35.1213 75.148 37.6231 77.3497 39.5434 79.9924C39.767 80.3014 39.8469 80.6716 39.7926 81.0192C39.7383 81.3668 39.553 81.6984 39.2494 81.9237C39.128 82.0138 38.997 82.0814 38.8596 82.1233C38.7222 82.1683 38.5817 82.1877 38.4411 82.1877L38.4347 82.1941Z" fill="#1D6148"/>
<path d="M119.952 77.6911C117.709 75.5956 115.009 74.0087 112.111 73.0205C109.213 72.0323 106.114 71.6428 103.066 71.9357C100.018 72.2286 97.0493 73.204 94.3877 74.7297C91.7262 76.2555 89.3778 78.3252 87.5693 80.8134" fill="#8DB475"/>
<path d="M87.5659 82.1942C87.4254 82.1942 87.2848 82.1716 87.1474 82.1298C87.01 82.0847 86.879 82.0204 86.7576 81.9302C86.4508 81.7049 86.2655 81.3766 86.2144 81.0257C86.1633 80.6749 86.24 80.3079 86.4636 79.9989C88.3839 77.3562 90.8825 75.1545 93.7134 73.5322C96.5411 71.9131 99.7011 70.8734 102.935 70.5611C106.174 70.2489 109.469 70.6641 112.552 71.7167C115.635 72.7661 118.501 74.4528 120.885 76.6802C121.163 76.941 121.31 77.2886 121.323 77.6427C121.335 77.9968 121.214 78.354 120.958 78.6341C120.699 78.9141 120.354 79.0622 120.003 79.0751C119.651 79.088 119.297 78.9656 119.019 78.7081C116.916 76.7446 114.386 75.2575 111.67 74.3337C108.951 73.4066 106.047 73.0397 103.197 73.3165C100.343 73.5901 97.5603 74.5075 95.0649 75.9367C92.5695 77.3659 90.3681 79.3068 88.6747 81.6373C88.5405 81.8208 88.3679 81.9624 88.1794 82.059C87.9909 82.1556 87.78 82.2038 87.5691 82.2038L87.5659 82.1942Z" fill="#1D6148"/>
<mask id="mask0_1050_14111" style="mask-type:luminance" maskUnits="userSpaceOnUse" x="20" y="89" width="86" height="40">
<path d="M21.1009 99.6887C21.3213 98.1823 21.7047 96.8046 22.2415 95.575C22.7751 94.3454 23.4621 93.2671 24.2864 92.3626C25.1107 91.4581 26.0725 90.7306 27.1652 90.1995C28.2548 89.6684 29.4753 89.34 30.8077 89.2338C32.14 89.1276 33.4596 89.2016 34.7664 89.4076C36.07 89.6136 37.3609 89.9484 38.6357 90.3636C39.9106 90.7789 41.1759 91.2746 42.4284 91.8025C43.6808 92.3272 44.9206 92.8808 46.1507 93.4151C46.7642 93.6823 47.678 94.104 48.809 94.5836C49.9401 95.0632 51.298 95.6072 52.7998 96.1158C54.3015 96.6244 55.9534 97.1008 57.6787 97.4484C59.4041 97.796 61.2029 98.0181 63.0018 98.0181C64.8007 98.0181 66.5995 97.796 68.3249 97.4484C70.0503 97.1008 71.7021 96.6244 73.2039 96.1158C74.7056 95.6072 76.0603 95.0664 77.1946 94.5836C78.3289 94.1008 79.2395 93.6823 79.8529 93.4151C81.0831 92.8808 82.3228 92.3272 83.5753 91.8025C84.8278 91.2778 86.0898 90.7821 87.3679 90.3636C88.6459 89.9452 89.9336 89.6104 91.2372 89.4076C92.5408 89.2016 93.8604 89.1276 95.196 89.2338C96.5315 89.34 97.7457 89.6716 98.8288 90.2027C99.9152 90.7338 100.871 91.4645 101.688 92.3658C102.506 93.2703 103.19 94.3486 103.727 95.5782C104.264 96.8078 104.66 98.1855 104.9 99.6855C105.257 101.919 104.746 104.807 103.296 107.884C101.845 110.961 99.4551 114.228 96.0586 117.216C92.6622 120.203 88.2561 122.91 82.7733 124.873C77.2904 126.834 70.7308 128.05 63.021 128.05C55.3111 128.05 48.7515 126.882 43.2655 124.983C37.7794 123.08 33.3702 120.444 29.9673 117.505C26.5645 114.566 24.1714 111.322 22.7176 108.209C21.2638 105.096 20.7494 102.113 21.1041 99.692L21.1009 99.6887Z" fill="white"/>
</mask>
<g mask="url(#mask0_1050_14111)">
<path d="M21.1009 99.6887C21.3213 98.1823 21.7047 96.8046 22.2415 95.575C22.7751 94.3454 23.4621 93.2671 24.2864 92.3626C25.1107 91.4581 26.0725 90.7306 27.1652 90.1995C28.2548 89.6684 29.4753 89.34 30.8077 89.2338C32.14 89.1276 33.4596 89.2016 34.7664 89.4076C36.07 89.6136 37.3609 89.9484 38.6357 90.3636C39.9106 90.7789 41.1759 91.2746 42.4284 91.8025C43.6808 92.3272 44.9206 92.8808 46.1507 93.4151C46.7642 93.6823 47.678 94.104 48.809 94.5836C49.9401 95.0632 51.298 95.6072 52.7998 96.1158C54.3015 96.6244 55.9534 97.1008 57.6787 97.4484C59.4041 97.796 61.2029 98.0181 63.0018 98.0181C64.8007 98.0181 66.5995 97.796 68.3249 97.4484C70.0503 97.1008 71.7021 96.6244 73.2039 96.1158C74.7056 95.6072 76.0603 95.0664 77.1946 94.5836C78.3289 94.1008 79.2395 93.6823 79.8529 93.4151C81.0831 92.8808 82.3228 92.3272 83.5753 91.8025C84.8278 91.2778 86.0898 90.7821 87.3679 90.3636C88.6459 89.9452 89.9336 89.6104 91.2372 89.4076C92.5408 89.2016 93.8604 89.1276 95.196 89.2338C96.5315 89.34 97.7457 89.6716 98.8288 90.2027C99.9152 90.7338 100.871 91.4645 101.688 92.3658C102.506 93.2703 103.19 94.3486 103.727 95.5782C104.264 96.8078 104.66 98.1855 104.9 99.6855C105.257 101.919 104.746 104.807 103.296 107.884C101.845 110.961 99.4551 114.228 96.0586 117.216C92.6622 120.203 88.2561 122.91 82.7733 124.873C77.2904 126.834 70.7308 128.05 63.021 128.05C55.3111 128.05 48.7515 126.882 43.2655 124.983C37.7794 123.08 33.3702 120.444 29.9673 117.505C26.5645 114.566 24.1714 111.322 22.7176 108.209C21.2638 105.096 20.7494 102.113 21.1041 99.692L21.1009 99.6887Z" fill="#1D6148"/>
<path d="M55.4644 106.242L55.0938 106.201L54.7232 106.159L54.3525 106.117L53.9819 106.075C53.2374 105.991 52.5441 105.76 51.9306 105.412C51.3172 105.064 50.7804 104.601 50.3459 104.054C49.9113 103.506 49.5822 102.879 49.3809 102.196C49.1796 101.517 49.1093 100.783 49.1924 100.033L49.2723 99.3089L49.3522 98.5847L49.432 97.8604L49.5119 97.1362C49.595 96.3862 49.825 95.6877 50.1701 95.0697C50.5152 94.4516 50.9753 93.9109 51.5185 93.4731C52.0616 93.0353 52.6847 92.7038 53.3621 92.501C54.0362 92.2982 54.7647 92.2274 55.5092 92.3111L55.8798 92.3529L56.2505 92.3948L56.6211 92.4366L56.9917 92.4785C57.7362 92.5621 58.4295 92.7939 59.043 93.1415C59.6565 93.4892 60.1932 93.9527 60.6278 94.4999C61.0623 95.0471 61.3914 95.6748 61.5927 96.3572C61.794 97.0396 61.8643 97.7703 61.7812 98.5203L61.7013 99.2446L61.6215 99.9688L61.5416 100.693L61.4617 101.417C61.3786 102.167 61.1486 102.866 60.8035 103.484C60.4584 104.102 59.9983 104.643 59.4552 105.08C58.912 105.518 58.2889 105.85 57.6116 106.052C56.9342 106.255 56.2089 106.326 55.4644 106.242Z" fill="#8DB475"/>
<path d="M56.0807 107.659C55.9529 107.659 55.8251 107.656 55.6973 107.649C55.5695 107.643 55.4417 107.63 55.3139 107.617L54.5694 107.533L53.825 107.449C52.9207 107.346 52.0644 107.073 51.2944 106.645C50.5244 106.217 49.8342 105.634 49.2687 104.919C48.7032 104.205 48.291 103.4 48.045 102.55C47.7989 101.697 47.7223 100.796 47.8213 99.8883L47.9811 98.4398L48.1408 96.9913C48.2399 96.0836 48.5147 95.221 48.9396 94.4452C49.3646 93.6695 49.9429 92.9742 50.6522 92.4044C51.3615 91.8347 52.1603 91.4195 53.007 91.1748C53.8537 90.9302 54.7484 90.8497 55.6494 90.9495L56.3938 91.0332L57.1383 91.1169C58.0425 91.2199 58.8956 91.4935 59.6689 91.9216C60.4389 92.3497 61.129 92.9323 61.6946 93.6469C62.2601 94.3615 62.6723 95.163 62.9183 96.016C63.1643 96.869 63.241 97.7703 63.142 98.6813L62.9822 100.13L62.8225 101.578C62.7202 102.486 62.4454 103.349 62.0205 104.128C61.5955 104.903 61.0172 105.599 60.3079 106.168C59.7008 106.658 59.0266 107.031 58.3109 107.285C57.5984 107.536 56.8444 107.668 56.0775 107.668L56.0807 107.659ZM54.8921 93.663C54.4352 93.663 53.9847 93.7403 53.5598 93.8916C53.1348 94.0428 52.7322 94.2649 52.368 94.5579C51.9462 94.8991 51.6012 95.3111 51.3455 95.7746C51.0899 96.2381 50.9302 96.7531 50.8695 97.2939L50.7097 98.7424L50.55 100.191C50.4892 100.732 50.5372 101.269 50.681 101.781C50.8279 102.29 51.074 102.769 51.4094 103.194C51.7481 103.622 52.1571 103.967 52.6172 104.224C53.0773 104.478 53.5885 104.646 54.1253 104.704L54.8698 104.787L55.6142 104.871C56.151 104.932 56.6846 104.884 57.1894 104.736C57.6943 104.588 58.1735 104.343 58.5953 104.002C59.0171 103.661 59.3621 103.249 59.6145 102.785C59.867 102.322 60.0331 101.807 60.0906 101.263L60.2504 99.8143L60.4101 98.3658C60.4708 97.8218 60.4229 97.2843 60.2791 96.7757C60.1322 96.2671 59.8861 95.7875 59.5506 95.3626C59.212 94.9345 58.803 94.5901 58.3429 94.3325C57.8828 94.075 57.3716 93.9109 56.8348 93.8529L56.0903 93.7692L55.3458 93.6855C55.2692 93.6759 55.1925 93.6694 55.1158 93.6662C55.0391 93.663 54.9624 93.6598 54.8857 93.6598L54.8921 93.663Z" fill="#1D6148"/>
<path d="M40.1507 101.385L39.7928 101.279L39.435 101.173L39.0771 101.067L38.7193 100.96C38.0004 100.748 37.3581 100.4 36.8118 99.9496C36.2654 99.4989 35.8181 98.9517 35.4826 98.3369C35.1503 97.7221 34.933 97.0461 34.85 96.3412C34.7669 95.6362 34.8244 94.9023 35.0353 94.1781L35.2398 93.4796L35.4443 92.7811L35.6488 92.0826L35.8532 91.3841C36.0641 90.6599 36.4092 90.0129 36.8565 89.4624C37.3038 88.912 37.847 88.4614 38.4573 88.1234C39.0675 87.7886 39.7385 87.5697 40.4383 87.486C41.138 87.4056 41.8665 87.4603 42.5854 87.6727L42.9432 87.779L43.3011 87.8852L43.6589 87.9914L44.0168 88.0976C44.7357 88.3101 45.3779 88.6577 45.9243 89.1083C46.4707 89.559 46.918 90.1062 47.2535 90.721C47.5858 91.3358 47.803 92.0118 47.8861 92.7167C47.966 93.4217 47.9117 94.1556 47.7008 94.8798L47.4963 95.5783L47.2918 96.2768L47.0873 96.9753L46.8828 97.6738C46.672 98.3981 46.3269 99.045 45.8796 99.5955C45.4322 100.146 44.8891 100.597 44.2788 100.935C43.6685 101.269 42.9976 101.488 42.2978 101.572C41.5981 101.652 40.8696 101.598 40.1507 101.385Z" fill="#8DB475"/>
<path d="M41.6836 102.991C41.3609 102.991 41.0414 102.969 40.7187 102.921C40.3991 102.875 40.0796 102.805 39.7601 102.711L39.0412 102.499L38.3223 102.286C37.45 102.029 36.6544 101.607 35.9675 101.05C35.2805 100.494 34.7022 99.8014 34.2677 98.9999C33.8331 98.1952 33.5648 97.3326 33.4689 96.4506C33.373 95.5686 33.4529 94.6673 33.7085 93.7918L34.1143 92.3948L34.5201 90.9978C34.7757 90.1223 35.1911 89.3208 35.7438 88.6287C36.2966 87.9366 36.9835 87.354 37.7823 86.9162C38.5779 86.4785 39.4342 86.2081 40.3097 86.1115C41.1851 86.015 42.0798 86.0954 42.952 86.3529L43.671 86.5654L44.3899 86.7778C45.2621 87.0353 46.0545 87.4538 46.7415 88.0107C47.4284 88.5675 48.0067 89.2596 48.4413 90.0611C48.8758 90.8626 49.1442 91.7253 49.2401 92.6072C49.3359 93.4892 49.256 94.3905 49.0036 95.2693L48.5978 96.6663L48.1921 98.0632C47.9365 98.9388 47.5211 99.7403 46.9683 100.432C46.4156 101.124 45.7286 101.707 44.933 102.145C44.425 102.425 43.8946 102.634 43.3482 102.776C42.8019 102.917 42.2427 102.988 41.6804 102.988L41.6836 102.991ZM41.0446 88.8347C40.7091 88.8347 40.3768 88.8765 40.0509 88.9602C39.725 89.0439 39.4086 89.1695 39.1051 89.3369C38.629 89.5976 38.2201 89.9452 37.8878 90.3572C37.5587 90.7693 37.3094 91.2489 37.1561 91.7703L36.7503 93.1673L36.3445 94.5643C36.1912 95.089 36.1464 95.6266 36.2007 96.1544C36.2583 96.6823 36.418 97.1974 36.6768 97.677C36.9356 98.1566 37.2807 98.5686 37.6897 98.9002C38.0986 99.2317 38.5747 99.4828 39.0923 99.6373L39.8112 99.8497L40.5301 100.062C41.0509 100.217 41.5845 100.262 42.1085 100.204C42.6325 100.146 43.1438 99.9849 43.6198 99.7242C44.0959 99.4635 44.5049 99.1158 44.834 98.7038C45.1631 98.2918 45.4123 97.8122 45.5625 97.2907L45.9683 95.8937L46.374 94.4967C46.5274 93.972 46.5721 93.4345 46.5146 92.9098C46.4571 92.3851 46.2974 91.8669 46.0385 91.3905C45.7797 90.9109 45.4347 90.4989 45.0225 90.1673C44.6135 89.8358 44.1374 89.5847 43.6198 89.4302L42.9009 89.2178L42.182 89.0053C41.9935 88.9506 41.8018 88.9087 41.6133 88.8798C41.4216 88.8508 41.2299 88.8379 41.0382 88.8379L41.0446 88.8347Z" fill="#1D6148"/>
<path d="M70.5355 106.242L70.9062 106.201L71.2768 106.159L71.6475 106.117L72.0181 106.075C72.7626 105.991 73.4559 105.76 74.0694 105.412C74.6828 105.064 75.2196 104.601 75.6541 104.054C76.0887 103.506 76.4178 102.879 76.6191 102.196C76.8204 101.517 76.8907 100.783 76.8076 100.033L76.7277 99.3089L76.6478 98.5847L76.568 97.8604L76.4881 97.1362C76.405 96.3862 76.175 95.6877 75.8299 95.0697C75.4848 94.4516 75.0247 93.9109 74.4815 93.4731C73.9384 93.0353 73.3153 92.7038 72.6379 92.501C71.9638 92.2982 71.2353 92.2274 70.4908 92.3111L70.1202 92.3529L69.7495 92.3948L69.3789 92.4366L69.0083 92.4785C68.2638 92.5621 67.5705 92.7939 66.957 93.1415C66.3435 93.4892 65.8068 93.9527 65.3722 94.4999C64.9377 95.0471 64.6086 95.6748 64.4073 96.3572C64.206 97.0364 64.1357 97.7703 64.2188 98.5203L64.2987 99.2446L64.3785 99.9688L64.4584 100.693L64.5383 101.417C64.6214 102.167 64.8514 102.866 65.1965 103.484C65.5416 104.102 66.0017 104.643 66.5448 105.08C67.088 105.518 67.7111 105.85 68.3884 106.052C69.0658 106.255 69.7911 106.326 70.5355 106.242Z" fill="#8DB475"/>
<path d="M69.919 107.659C69.1521 107.659 68.3981 107.53 67.6856 107.276C66.973 107.021 66.2989 106.648 65.6886 106.159C64.9793 105.589 64.401 104.894 63.976 104.118C63.5511 103.342 63.2763 102.479 63.174 101.572L63.0143 100.123L62.8545 98.6747C62.7555 97.7638 62.8321 96.8625 63.0782 96.0095C63.3242 95.1565 63.7364 94.3518 64.3019 93.6404C64.8674 92.9258 65.5544 92.3432 66.3276 91.9151C67.0976 91.4869 67.9539 91.2101 68.8582 91.1103L69.6026 91.0267L70.3471 90.943C71.2449 90.8432 72.1396 90.9204 72.9863 91.1683C73.833 91.4129 74.6318 91.8282 75.3411 92.3979C76.0504 92.9709 76.6287 93.6629 77.0537 94.4387C77.4786 95.2176 77.7534 96.0771 77.8525 96.9848L78.0122 98.4333L78.172 99.8818C78.271 100.79 78.1943 101.694 77.9483 102.547C77.7023 103.4 77.2933 104.205 76.7246 104.919C76.159 105.634 75.4721 106.213 74.6989 106.645C73.9288 107.073 73.0725 107.35 72.1683 107.449L71.4239 107.533L70.6794 107.617C70.5516 107.633 70.4238 107.643 70.2928 107.649C70.1618 107.655 70.0372 107.659 69.9094 107.659H69.919ZM71.1075 93.6629C71.0309 93.6629 70.9542 93.6629 70.8807 93.6694C70.804 93.6726 70.7273 93.679 70.6506 93.6887L69.9062 93.7724L69.1617 93.856C68.6249 93.9172 68.1137 94.0814 67.6536 94.3357C67.1935 94.59 66.7845 94.9376 66.4458 95.3657C66.1072 95.7906 65.8611 96.2702 65.7174 96.7788C65.5736 97.2874 65.5256 97.8249 65.5864 98.3689L65.7461 99.8174L65.9059 101.266C65.9666 101.81 66.1295 102.322 66.3819 102.785C66.6344 103.249 66.9794 103.664 67.4012 104.002C67.8261 104.343 68.3022 104.588 68.807 104.736C69.3119 104.884 69.8455 104.929 70.3854 104.871L71.1299 104.787L71.8744 104.704C72.4112 104.643 72.9224 104.478 73.3825 104.224C73.8426 103.97 74.2515 103.622 74.5902 103.194C74.9289 102.766 75.1749 102.29 75.3187 101.778C75.4657 101.269 75.5104 100.732 75.4497 100.188L75.29 98.7391L75.1302 97.2906C75.0695 96.7498 74.9065 96.2348 74.6541 95.7713C74.4017 95.3078 74.0566 94.8925 73.6317 94.5546C73.2674 94.2616 72.8649 94.0395 72.4399 93.8882C72.015 93.737 71.5644 93.6597 71.1075 93.6597V93.6629Z" fill="#1D6148"/>
<path d="M85.8506 101.385L86.2084 101.279L86.5663 101.173L86.9241 101.067L87.282 100.96C88.0009 100.748 88.6431 100.4 89.1895 99.9496C89.7359 99.4989 90.1832 98.9517 90.5187 98.3369C90.851 97.7221 91.0682 97.0461 91.1513 96.3412C91.2344 95.6362 91.1769 94.9023 90.966 94.1781L90.7615 93.4796L90.557 92.7811L90.3525 92.0826L90.148 91.3841C89.9372 90.6599 89.5921 90.0129 89.1448 89.4624C88.6974 88.912 88.1543 88.4614 87.544 88.1234C86.9337 87.7886 86.2628 87.5697 85.563 87.486C84.8633 87.4056 84.1348 87.4603 83.4159 87.6727L83.058 87.779L82.7002 87.8852L82.3423 87.9914L81.9845 88.0976C81.2656 88.3101 80.6233 88.6577 80.077 89.1083C79.5306 89.559 79.0833 90.1062 78.7478 90.721C78.4155 91.3358 78.1982 92.0118 78.1152 92.7167C78.0353 93.4217 78.0896 94.1556 78.3005 94.8798L78.505 95.5783L78.7095 96.2768L78.914 96.9753L79.1184 97.6738C79.3293 98.3981 79.6744 99.045 80.1217 99.5955C80.569 100.146 81.1122 100.597 81.7225 100.935C82.3327 101.269 83.0037 101.488 83.7035 101.572C84.4032 101.652 85.1317 101.598 85.8506 101.385Z" fill="#8DB475"/>
<path d="M84.3165 102.991C83.7542 102.991 83.1951 102.921 82.6487 102.779C82.1023 102.637 81.5719 102.428 81.0639 102.148C80.2651 101.71 79.5782 101.128 79.0254 100.436C78.4727 99.7436 78.0573 98.9421 77.8017 98.0633L77.3959 96.6663L76.9901 95.2693C76.7345 94.3906 76.6578 93.4893 76.7537 92.6073C76.8495 91.7253 77.1179 90.8627 77.5525 90.0612C77.987 89.2597 78.5653 88.5644 79.2523 88.0107C79.9392 87.4539 80.7348 87.0354 81.6039 86.7779L82.3228 86.5654L83.0417 86.353C83.914 86.0955 84.8086 86.0182 85.6873 86.1148C86.5627 86.2114 87.4222 86.4785 88.2178 86.9195C89.0134 87.3573 89.7035 87.9399 90.2531 88.632C90.8027 89.324 91.2212 90.1255 91.4768 91.0011L91.8826 92.3981L92.2884 93.7951C92.544 94.6706 92.6207 95.5719 92.528 96.4539C92.4322 97.3358 92.167 98.1985 91.7324 99.0032C91.2947 99.8047 90.7196 100.5 90.0326 101.054C89.3457 101.611 88.5501 102.029 87.681 102.286L86.9621 102.499L86.2432 102.711C85.9269 102.805 85.6074 102.876 85.2879 102.921C84.9683 102.966 84.6456 102.991 84.3261 102.991H84.3165ZM84.9524 88.8348C84.7607 88.8348 84.569 88.8476 84.3772 88.8766C84.1855 88.9056 83.997 88.9474 83.8085 89.0021L83.0896 89.2146L82.3707 89.427C81.8531 89.5815 81.377 89.8294 80.968 90.1642C80.5591 90.4957 80.214 90.9109 79.952 91.3873C79.6932 91.867 79.5334 92.382 79.4759 92.9067C79.4184 93.4346 79.4663 93.9721 79.6165 94.4936L80.0223 95.8906L80.4281 97.2876C80.5814 97.8122 80.8275 98.2886 81.1566 98.7006C81.4857 99.1127 81.8978 99.4603 82.3707 99.721C82.8468 99.9818 83.358 100.143 83.8788 100.201C84.4028 100.259 84.9364 100.21 85.4572 100.056L86.1761 99.8433L86.895 99.6309C87.4158 99.4764 87.8887 99.2253 88.2977 98.8938C88.7067 98.5622 89.0517 98.147 89.3137 97.6706C89.5725 97.191 89.7323 96.676 89.7898 96.1513C89.8473 95.6234 89.7994 95.0858 89.646 94.5644L89.2402 93.1674L88.8345 91.7704C88.6811 91.2457 88.4351 90.7693 88.106 90.3573C87.7769 89.9453 87.3647 89.5976 86.8918 89.3369C86.5883 89.1695 86.272 89.044 85.9461 88.9603C85.6202 88.8766 85.2847 88.8348 84.9524 88.8348Z" fill="#1D6148"/>
<path d="M55.4644 133.584L55.0938 133.542L54.7232 133.5L54.3525 133.458L53.9819 133.416C53.2374 133.333 52.5441 133.101 51.9306 132.753C51.3172 132.405 50.7804 131.942 50.3459 131.395C49.9113 130.848 49.5822 130.22 49.3809 129.537C49.1796 128.855 49.1093 128.124 49.1924 127.374L49.2723 126.65L49.3522 125.926L49.432 125.202L49.5119 124.477C49.595 123.727 49.825 123.029 50.1701 122.411C50.5152 121.793 50.9753 121.252 51.5185 120.814C52.0616 120.377 52.6847 120.045 53.3621 119.842C54.0362 119.639 54.7647 119.569 55.5092 119.652L55.8798 119.694L56.2505 119.736L56.6211 119.778L56.9917 119.82C57.7362 119.903 58.4295 120.135 59.043 120.483C59.6565 120.83 60.1932 121.294 60.6278 121.841C61.0623 122.388 61.3914 123.016 61.5927 123.698C61.794 124.381 61.8643 125.111 61.7812 125.861L61.7013 126.586L61.6215 127.31L61.5416 128.034L61.4617 128.758C61.3786 129.508 61.1486 130.207 60.8035 130.825C60.4584 131.443 59.9983 131.984 59.4552 132.422C58.912 132.859 58.2889 133.191 57.6116 133.394C56.9342 133.596 56.2089 133.667 55.4644 133.584Z" fill="#8DB475"/>
<path d="M56.0807 135C55.9529 135 55.8251 134.997 55.6973 134.99C55.5695 134.984 55.4417 134.971 55.3139 134.958L54.5694 134.874L53.825 134.791C52.9207 134.688 52.0676 134.414 51.2944 133.986C50.5244 133.558 49.8342 132.975 49.2687 132.261C48.7032 131.546 48.291 130.741 48.045 129.892C47.7989 129.039 47.7223 128.137 47.8213 127.23L47.9811 125.781L48.1408 124.333C48.2399 123.425 48.5147 122.562 48.9396 121.786C49.3646 121.011 49.9429 120.315 50.6522 119.746C51.3615 119.176 52.1603 118.761 53.007 118.516C53.8537 118.268 54.7484 118.191 55.6494 118.291L56.3938 118.374L57.1383 118.458C58.0425 118.561 58.8956 118.835 59.6689 119.263C60.4389 119.691 61.129 120.274 61.6946 120.988C62.2601 121.703 62.6723 122.504 62.9183 123.357C63.1643 124.21 63.241 125.112 63.142 126.023L62.9822 127.471L62.8225 128.92C62.7202 129.827 62.4454 130.69 62.0205 131.469C61.5955 132.245 61.0172 132.94 60.3079 133.51C59.7008 133.999 59.0266 134.376 58.3109 134.627C57.5984 134.878 56.8444 135.01 56.0775 135.01L56.0807 135ZM54.8921 121.004C54.4352 121.004 53.9847 121.082 53.5598 121.233C53.1348 121.384 52.7322 121.606 52.368 121.899C51.9462 122.24 51.6012 122.652 51.3455 123.116C51.0931 123.579 50.9302 124.094 50.8695 124.635L50.7097 126.084L50.55 127.532C50.4892 128.073 50.5372 128.614 50.681 129.122C50.8247 129.631 51.074 130.11 51.4094 130.535C51.7481 130.96 52.1571 131.308 52.6172 131.565C53.0773 131.82 53.5885 131.987 54.1253 132.045L54.8698 132.129L55.6142 132.212C56.151 132.27 56.6846 132.225 57.1894 132.077C57.6943 131.929 58.1735 131.685 58.5953 131.343C59.0171 131.002 59.3621 130.59 59.6145 130.127C59.867 129.663 60.0331 129.148 60.0906 128.604L60.2504 127.156L60.4101 125.707C60.4708 125.163 60.4229 124.626 60.2791 124.117C60.1322 123.608 59.8861 123.129 59.5506 122.704C59.212 122.279 58.803 121.931 58.3429 121.674C57.8828 121.416 57.3716 121.252 56.8348 121.191L56.0903 121.107L55.3458 121.024C55.2692 121.014 55.1925 121.007 55.1158 121.004C55.0391 121.001 54.9624 120.998 54.8857 120.998L54.8921 121.004Z" fill="#1D6148"/>
<path d="M40.1503 128.73L39.7924 128.623L39.4346 128.517L39.0767 128.411L38.7188 128.305C37.9999 128.092 37.3577 127.745 36.8114 127.294C36.265 126.843 35.8177 126.296 35.4822 125.681C35.1499 125.066 34.9326 124.39 34.8495 123.686C34.7697 122.981 34.824 122.247 35.0349 121.522L35.2394 120.824L35.4438 120.125L35.6483 119.427L35.8528 118.728C36.0637 118.004 36.4088 117.357 36.8561 116.807C37.3034 116.256 37.8466 115.806 38.4568 115.468C39.0671 115.133 39.7381 114.914 40.4378 114.83C41.1376 114.75 41.8661 114.805 42.585 115.017L42.9428 115.123L43.3007 115.23L43.6585 115.336L44.0164 115.442C44.7353 115.654 45.3775 116.002 45.9239 116.453C46.4702 116.903 46.9176 117.451 47.253 118.065C47.5853 118.68 47.8026 119.356 47.8857 120.061C47.9656 120.766 47.9112 121.5 47.7004 122.224L47.4959 122.923L47.2914 123.621L47.0869 124.32L46.8824 125.018C46.6715 125.742 46.3265 126.389 45.8791 126.94C45.4318 127.49 44.8886 127.941 44.2784 128.279C43.6681 128.614 42.9971 128.833 42.2974 128.916C41.5977 128.997 40.8692 128.942 40.1503 128.73Z" fill="#8DB475"/>
<path d="M41.6836 130.333C41.3641 130.333 41.0414 130.31 40.7187 130.262C40.3991 130.217 40.0764 130.146 39.7601 130.053L39.0412 129.84L38.3223 129.628C37.45 129.37 36.6544 128.948 35.9675 128.392C35.2805 127.835 34.7022 127.143 34.2677 126.341C33.8331 125.536 33.5648 124.674 33.4689 123.792C33.373 122.91 33.4529 122.009 33.7085 121.133L34.1143 119.736L34.5201 118.339C34.7757 117.463 35.1911 116.662 35.7438 115.97C36.2966 115.278 36.9835 114.695 37.7823 114.257C38.5779 113.82 39.4342 113.549 40.3097 113.453C41.1851 113.356 42.0798 113.437 42.952 113.694L43.671 113.907L44.3899 114.119C45.2621 114.377 46.0545 114.795 46.7415 115.352C47.4284 115.909 48.0067 116.601 48.4413 117.402C48.8758 118.204 49.1442 119.066 49.2401 119.948C49.3359 120.83 49.256 121.732 49.0036 122.61L48.5978 124.007L48.1921 125.404C47.9365 126.28 47.5211 127.081 46.9683 127.774C46.4156 128.466 45.7286 129.048 44.933 129.486C44.425 129.766 43.8946 129.975 43.3482 130.117C42.8019 130.259 42.2427 130.329 41.6804 130.329L41.6836 130.333ZM40.5333 127.403C41.0541 127.558 41.5877 127.603 42.1117 127.548C42.6357 127.49 43.147 127.329 43.6198 127.069C44.0959 126.808 44.5049 126.46 44.834 126.048C45.1631 125.636 45.4123 125.157 45.5625 124.635L45.9683 123.238L46.374 121.841C46.5274 121.316 46.5721 120.779 46.5146 120.254C46.4571 119.73 46.2974 119.211 46.0385 118.735C45.7797 118.255 45.4347 117.843 45.0225 117.512C44.6135 117.18 44.1374 116.929 43.6198 116.775L42.9009 116.562L42.182 116.35C41.6612 116.198 41.1308 116.15 40.6068 116.208C40.0828 116.266 39.5716 116.427 39.0987 116.688C38.6226 116.948 38.2137 117.296 37.8814 117.708C37.5523 118.12 37.3031 118.6 37.1497 119.121L36.7439 120.518L36.3381 121.915C36.1848 122.44 36.14 122.977 36.1943 123.505C36.2519 124.033 36.4116 124.548 36.6704 125.028C36.9292 125.507 37.2743 125.919 37.6833 126.251C38.0923 126.583 38.5683 126.834 39.0859 126.988L39.8048 127.201L40.5238 127.413L40.5333 127.403Z" fill="#1D6148"/>
<path d="M70.5355 133.584L70.9062 133.542L71.2768 133.5L71.6475 133.458L72.0181 133.416C72.7626 133.333 73.4559 133.101 74.0694 132.753C74.6828 132.405 75.2196 131.942 75.6541 131.395C76.0887 130.848 76.4178 130.22 76.6191 129.537C76.8204 128.858 76.8907 128.124 76.8076 127.374L76.7277 126.65L76.6478 125.926L76.568 125.202L76.4881 124.477C76.405 123.727 76.175 123.029 75.8299 122.411C75.4848 121.793 75.0247 121.252 74.4815 120.814C73.9384 120.377 73.3153 120.045 72.6379 119.842C71.9606 119.639 71.2353 119.569 70.4908 119.652L70.1202 119.694L69.7495 119.736L69.3789 119.778L69.0083 119.82C68.2638 119.903 67.5705 120.135 66.957 120.483C66.3435 120.83 65.8068 121.294 65.3722 121.841C64.9377 122.388 64.6086 123.016 64.4073 123.698C64.206 124.378 64.1357 125.111 64.2188 125.861L64.2987 126.586L64.3785 127.31L64.4584 128.034L64.5383 128.758C64.6214 129.508 64.8514 130.207 65.1965 130.825C65.5416 131.443 66.0017 131.984 66.5448 132.422C67.088 132.859 67.7111 133.191 68.3884 133.394C69.0658 133.596 69.7911 133.667 70.5355 133.584Z" fill="#8DB475"/>
<path d="M69.919 135C69.1521 135 68.3981 134.871 67.6856 134.617C66.973 134.366 66.2989 133.989 65.6886 133.5C64.9793 132.93 64.401 132.238 63.976 131.459C63.5511 130.683 63.2763 129.821 63.174 128.91L63.0143 127.461L62.8545 126.013C62.7555 125.102 62.8321 124.201 63.0782 123.348C63.3242 122.495 63.7364 121.69 64.3019 120.979C64.8674 120.264 65.5544 119.681 66.3276 119.253C67.0976 118.825 67.9539 118.548 68.8582 118.448L69.6026 118.365L70.3471 118.281C71.2449 118.181 72.1396 118.259 72.9863 118.506C73.833 118.754 74.6318 119.166 75.3411 119.736C76.0504 120.309 76.6287 121.001 77.0537 121.777C77.4786 122.556 77.7534 123.415 77.8525 124.323L78.0122 125.771L78.172 127.22C78.271 128.128 78.1943 129.032 77.9483 129.885C77.7023 130.738 77.2933 131.543 76.7246 132.257C76.159 132.972 75.4721 133.555 74.6989 133.983C73.9288 134.411 73.0725 134.688 72.1683 134.788L71.4239 134.871L70.6794 134.955C70.5516 134.971 70.4238 134.981 70.2928 134.987C70.1618 134.994 70.0372 134.997 69.9094 134.997L69.919 135ZM71.1075 121.004C71.0309 121.004 70.9542 121.004 70.8807 121.011C70.804 121.014 70.7273 121.02 70.6506 121.03L69.9062 121.114L69.1617 121.197C68.6249 121.259 68.1137 121.423 67.6536 121.677C67.1935 121.931 66.7845 122.279 66.4458 122.707C66.1072 123.132 65.8611 123.612 65.7174 124.12C65.5704 124.629 65.5256 125.166 65.5864 125.71L65.7461 127.159L65.9059 128.607C65.9666 129.151 66.1295 129.663 66.3819 130.127C66.6344 130.59 66.9794 131.002 67.4012 131.343C67.8261 131.685 68.3022 131.932 68.807 132.077C69.3119 132.222 69.8455 132.27 70.3854 132.209L71.1299 132.126L71.8744 132.042C72.4112 131.981 72.9224 131.817 73.3825 131.562C73.8426 131.308 74.2515 130.96 74.5902 130.532C74.9289 130.104 75.1749 129.628 75.3187 129.116C75.4625 128.604 75.5104 128.07 75.4497 127.526L75.29 126.077L75.1302 124.629C75.0695 124.088 74.9065 123.573 74.6541 123.109C74.4017 122.646 74.0566 122.231 73.6317 121.893C73.2674 121.6 72.8649 121.378 72.4399 121.226C72.015 121.075 71.5644 120.998 71.1075 120.998V121.004Z" fill="#1D6148"/>
<path d="M85.8506 128.73L86.2084 128.623L86.5663 128.517L86.9241 128.411L87.282 128.305C88.0009 128.092 88.6431 127.745 89.1895 127.294C89.7359 126.843 90.1832 126.296 90.5187 125.681C90.851 125.066 91.0682 124.39 91.1513 123.686C91.2312 122.981 91.1769 122.247 90.966 121.522L90.7615 120.824L90.557 120.125L90.3525 119.427L90.148 118.728C89.9372 118.004 89.5921 117.357 89.1448 116.807C88.6974 116.256 88.1543 115.806 87.544 115.468C86.9337 115.133 86.2628 114.914 85.563 114.83C84.8633 114.75 84.1348 114.805 83.4159 115.017L83.058 115.123L82.7002 115.23L82.3423 115.336L81.9845 115.442C81.2656 115.654 80.6233 116.002 80.077 116.453C79.5306 116.903 79.0833 117.451 78.7478 118.065C78.4155 118.68 78.1982 119.356 78.1152 120.061C78.0353 120.766 78.0896 121.5 78.3005 122.224L78.505 122.923L78.7095 123.621L78.914 124.32L79.1184 125.018C79.3293 125.742 79.6744 126.389 80.1217 126.94C80.569 127.49 81.1122 127.941 81.7225 128.279C82.3327 128.614 83.0037 128.833 83.7035 128.916C84.4032 128.997 85.1317 128.942 85.8506 128.73Z" fill="#8DB475"/>
<path d="M84.3165 130.333C83.7542 130.333 83.1951 130.262 82.6487 130.12C82.1023 129.979 81.5719 129.769 81.0639 129.489C80.2651 129.051 79.5782 128.469 79.0254 127.777C78.4727 127.085 78.0573 126.283 77.8017 125.404L77.3959 124.007L76.9901 122.611C76.7345 121.732 76.6578 120.83 76.7537 119.948C76.8495 119.067 77.1179 118.204 77.5525 117.402C77.987 116.601 78.5653 115.906 79.2523 115.352C79.9392 114.798 80.7348 114.377 81.6039 114.119L82.3228 113.907L83.0417 113.694C83.914 113.437 84.8086 113.359 85.6873 113.456C86.5627 113.553 87.4222 113.82 88.2178 114.261C89.0134 114.698 89.7035 115.281 90.2531 115.973C90.8027 116.665 91.2212 117.467 91.4768 118.342L91.8826 119.739L92.2884 121.136C92.544 122.012 92.6207 122.913 92.528 123.795C92.4322 124.677 92.167 125.54 91.7324 126.344C91.2947 127.146 90.7196 127.841 90.0326 128.395C89.3457 128.952 88.5501 129.37 87.681 129.628L86.9621 129.84L86.2432 130.053C85.9269 130.146 85.6074 130.217 85.2879 130.262C84.9683 130.307 84.6456 130.333 84.3261 130.333H84.3165ZM84.9524 116.176C84.7607 116.176 84.569 116.189 84.3772 116.218C84.1855 116.247 83.997 116.289 83.8085 116.343L83.0896 116.556L82.3707 116.768C81.8531 116.923 81.377 117.171 80.968 117.505C80.5591 117.837 80.214 118.252 79.952 118.729C79.6932 119.208 79.5334 119.723 79.4759 120.248C79.4184 120.776 79.4663 121.313 79.6165 121.835L80.0223 123.232L80.4281 124.629C80.5814 125.153 80.8275 125.63 81.1566 126.042C81.4857 126.454 81.8978 126.801 82.3707 127.062C82.8468 127.323 83.3548 127.484 83.8788 127.542C84.3996 127.6 84.9364 127.551 85.4572 127.4L86.1761 127.188L86.895 126.975C87.4158 126.821 87.8887 126.57 88.2977 126.238C88.7067 125.907 89.0517 125.491 89.3137 125.015C89.5725 124.535 89.7323 124.02 89.7898 123.496C89.8473 122.968 89.7994 122.43 89.646 121.909L89.2402 120.512L88.8345 119.115C88.6811 118.59 88.4351 118.114 88.106 117.702C87.7769 117.29 87.3647 116.942 86.8918 116.681C86.5883 116.514 86.272 116.388 85.9461 116.305C85.6202 116.221 85.2847 116.179 84.9524 116.179V116.176Z" fill="#1D6148"/>
</g>
<path d="M63.0175 129.431C54.1925 129.431 47.1409 127.951 41.5814 125.852C36.0218 123.753 31.9448 121.033 29.0724 118.552C25.8038 115.725 23.2541 112.442 21.631 109.124C20.0078 105.805 19.3113 102.451 19.7458 99.4862C19.9855 97.8542 20.4104 96.3413 21.0047 94.9862C21.599 93.631 22.3595 92.4336 23.2765 91.4293C24.235 90.3799 25.3533 89.5463 26.6026 88.9443C27.8519 88.3424 29.229 87.9754 30.6987 87.8563C31.9864 87.7533 33.2932 87.7984 34.6703 87.9948C36.0474 88.1911 37.4916 88.542 39.0572 89.0505C40.1563 89.4078 41.2427 89.8231 42.313 90.2608C43.3834 90.6986 44.441 91.1621 45.4794 91.616L46.4859 92.057L47.4924 92.498C48.1601 92.7941 48.9973 93.1707 49.9654 93.5699C50.9335 93.969 52.039 94.3971 53.2404 94.8027C55.0329 95.4111 56.7518 95.8681 58.3846 96.1739C60.0173 96.4797 61.5605 96.6342 63.0079 96.6342C64.4553 96.6342 65.9986 96.4797 67.6281 96.1739C69.2608 95.8681 70.9766 95.4111 72.7722 94.8059C73.9736 94.4003 75.0759 93.9722 76.0472 93.5699C77.0186 93.1675 77.8525 92.7941 78.5203 92.498L79.5267 92.057L80.5332 91.616C81.5716 91.1621 82.626 90.6986 83.6996 90.2608C84.7699 89.8231 85.8563 89.4078 86.9554 89.0505C88.5178 88.542 89.962 88.1911 91.3391 87.9948C92.7162 87.7984 94.023 87.7533 95.3107 87.8563C96.7773 87.9722 98.148 88.3424 99.3909 88.9443C100.634 89.5463 101.752 90.3832 102.707 91.4357C103.608 92.4304 104.366 93.6214 104.963 94.9733C105.561 96.3252 105.998 97.8349 106.26 99.4669C106.631 101.784 106.171 104.842 104.685 108.142C103.199 111.441 100.691 114.982 96.9658 118.255C94.0678 120.805 89.9684 123.596 84.4025 125.752C78.8366 127.909 71.8009 129.428 63.0271 129.428L63.0175 129.431ZM22.4585 99.8917C22.1582 101.945 22.5959 104.652 23.941 107.562C25.2862 110.472 27.5356 113.585 30.8585 116.456C33.5552 118.787 37.3925 121.339 42.6581 123.309C47.9237 125.279 54.6143 126.67 63.0207 126.67C71.4271 126.67 78.0442 125.244 83.3098 123.219C88.5753 121.194 92.4351 118.571 95.1573 116.179C98.4675 113.269 100.714 110.141 102.059 107.269C103.404 104.398 103.845 101.788 103.545 99.9111C103.327 98.543 102.969 97.2877 102.484 96.1772C102.001 95.0666 101.391 94.0978 100.672 93.3027C99.9468 92.5012 99.1129 91.8735 98.1799 91.4261C97.2469 90.9754 96.2117 90.7051 95.0838 90.6149C93.9815 90.528 92.8504 90.5666 91.6491 90.7437C90.4477 90.9207 89.1728 91.2297 87.7862 91.6804C86.7509 92.0184 85.7125 92.4143 84.6805 92.8392C83.6485 93.2609 82.6228 93.7115 81.6164 94.1525L80.6195 94.5902L79.6226 95.028C78.9324 95.337 78.0666 95.7233 77.0569 96.1385C76.0472 96.5538 74.897 97.0012 73.6349 97.4261C71.7019 98.0795 69.8391 98.572 68.0626 98.9036C66.2861 99.2319 64.5927 99.3993 62.9983 99.3993C61.404 99.3993 59.7105 99.2319 57.934 98.9036C56.1576 98.5752 54.2948 98.0795 52.3617 97.4261C51.1029 97.0012 49.9494 96.5538 48.9397 96.1385C47.9301 95.7233 47.0642 95.3338 46.3741 95.028L45.3772 94.5902L44.3803 94.1525C43.3738 93.7115 42.3482 93.2609 41.3162 92.8392C40.2841 92.4175 39.2457 92.0184 38.2105 91.6836C36.8238 91.2297 35.549 90.9175 34.3476 90.7405C33.1462 90.5634 32.0151 90.5248 30.9128 90.6149C29.7785 90.7051 28.7369 90.9754 27.7976 91.4261C26.8582 91.8735 26.0211 92.5012 25.2894 93.3027C24.5609 94.101 23.9506 95.0699 23.4746 96.1804C22.9985 97.2909 22.6534 98.5398 22.4521 99.895L22.4585 99.8917Z" fill="#1D6148"/>
</svg>
