<svg width="108" height="117" viewBox="0 0 108 117" fill="none" xmlns="http://www.w3.org/2000/svg">
<path d="M37.0287 4.93711C35.4143 3.74857 33.6902 2.82415 31.8804 2.19492C30.0706 1.5657 28.1777 1.23425 26.2287 1.23425C24.2797 1.23425 22.3869 1.5657 20.577 2.19492C18.7672 2.82415 17.0431 3.74857 15.4287 4.93711" fill="#FDF8F1"/>
<path d="M15.3531 6.16873C15.1778 6.16873 15.0052 6.12827 14.846 6.05275C14.6869 5.97722 14.544 5.86124 14.4307 5.71289C14.2365 5.45934 14.1664 5.14915 14.2042 4.85784C14.2419 4.56653 14.3957 4.28601 14.6492 4.09181C16.4076 2.75394 18.2874 1.72897 20.2373 1.04116C22.1845 0.353347 24.1991 0 26.23 0C28.2608 0 30.2754 0.353347 32.2226 1.04116C34.1698 1.72897 36.0496 2.75394 37.8081 4.09181C38.0616 4.28601 38.2153 4.56384 38.2531 4.85784C38.2908 5.15185 38.2207 5.45934 38.0265 5.71558C37.8323 5.96913 37.5546 6.12287 37.2606 6.16064C36.9666 6.2011 36.6591 6.12827 36.4056 5.93406C34.8279 4.73376 33.1827 3.82747 31.4837 3.22327C29.7846 2.61908 28.0288 2.31429 26.2273 2.31429C24.4257 2.31429 22.6727 2.61908 20.9736 3.22327C19.2745 3.82747 17.6293 4.73376 16.0516 5.93406C15.9464 6.01498 15.8331 6.07163 15.7145 6.11208C15.5958 6.15254 15.4744 6.17143 15.3504 6.17143L15.3531 6.16873Z" fill="#725193"/>
<path d="M95.0404 4.93711C93.3799 3.74857 91.6065 2.82415 89.745 2.19492C87.8834 1.5657 85.9365 1.23425 83.9318 1.23425C81.9271 1.23425 79.9802 1.5657 78.1187 2.19492C76.2572 2.82415 74.4837 3.74857 72.8232 4.93711" fill="#FDF8F1"/>
<path d="M95.1177 6.17143C94.9963 6.17143 94.8723 6.15254 94.7536 6.11209C94.6349 6.07163 94.5217 6.01498 94.4165 5.93406C92.8388 4.73376 91.1937 3.82747 89.4947 3.22328C87.7957 2.61908 86.04 2.31429 84.2412 2.31429C82.4424 2.31429 80.6867 2.61908 78.985 3.22328C77.2833 3.82747 75.6409 4.73376 74.0632 5.93406C73.8097 6.12827 73.4996 6.2011 73.2083 6.16064C72.9144 6.12018 72.6366 5.96913 72.4424 5.71558C72.2483 5.46204 72.1781 5.15185 72.2159 4.85784C72.2563 4.56383 72.4074 4.28601 72.6609 4.09181C74.4192 2.75394 76.2989 1.72897 78.2461 1.04116C80.1932 0.353347 82.2105 0 84.2385 0C86.2666 0 88.2838 0.353347 90.2309 1.04116C92.1781 1.72897 94.0578 2.75394 95.8188 4.09181C96.0724 4.28601 96.2261 4.56383 96.2638 4.85784C96.3043 5.15185 96.2315 5.45934 96.0373 5.71288C95.924 5.86393 95.7811 5.97722 95.622 6.05274C95.4629 6.12827 95.2903 6.16873 95.115 6.16873L95.1177 6.17143Z" fill="#725193"/>
<path d="M26.2274 80.8457C19.6767 80.8457 13.7364 77.1767 9.43439 71.2548C5.13239 65.3328 2.46875 57.1554 2.46875 48.1358C2.46875 39.1162 5.13239 30.9415 9.43439 25.0196C13.7364 19.0977 19.6767 15.4286 26.2274 15.4286C32.778 15.4286 38.7184 19.0977 43.0204 25.0196C47.3224 30.9415 49.9888 39.119 49.9888 48.1358C49.9888 57.1526 47.3251 65.3301 43.0204 71.2548C38.7184 77.1767 32.778 80.8457 26.2274 80.8457ZM26.2274 17.7744C20.3196 17.7744 14.9625 21.1783 11.0809 26.6764C7.19932 32.1745 4.79605 39.7642 4.79605 48.1358C4.79605 56.5074 7.19932 64.0971 11.0809 69.5952C14.9625 75.0933 20.3196 78.4972 26.2274 78.4972C32.1352 78.4972 37.495 75.0906 41.3766 69.5952C45.2582 64.0971 47.6615 56.5074 47.6615 48.1358C47.6615 39.7642 45.2582 32.1745 41.3766 26.6764C37.495 21.1783 32.1379 17.7744 26.2274 17.7744Z" fill="#725193"/>
<mask id="mask0_1050_14151" style="mask-type:luminance" maskUnits="userSpaceOnUse" x="3" y="16" width="46" height="64">
<path d="M48.9303 47.9815C48.9303 56.6544 46.3924 64.5076 42.2861 70.1906C38.1824 75.8736 32.5104 79.389 26.2474 79.389C19.9844 79.389 14.3123 75.8736 10.2087 70.1906C6.10505 64.5076 3.56445 56.6544 3.56445 47.9815C3.56445 39.3086 6.10233 31.4554 10.2087 25.7724C14.3123 20.0894 19.9844 16.574 26.2474 16.574C32.5104 16.574 38.1824 20.0894 42.2861 25.7724C46.3897 31.4554 48.9303 39.3086 48.9303 47.9815Z" fill="white"/>
</mask>
<g mask="url(#mask0_1050_14151)">
<path d="M29.7837 -15.4872C26.4207 -9.6381 23.5506 -0.554045 21.3804 9.85613C19.2101 20.2663 17.7424 32.0026 17.1787 43.1643L24.6153 45.5742L32.052 47.9841L24.6153 50.394L17.1787 52.8039C17.7424 63.9629 19.2101 75.6992 21.3804 86.1094C23.5506 96.5195 26.4207 105.604 29.7837 111.453C37.8193 110.832 45.049 103.537 50.2691 92.1109C55.4891 80.6851 58.7023 65.1283 58.7023 47.9814C58.7023 30.8344 55.4891 15.2777 50.2691 3.85183C45.049 -7.57404 37.8193 -14.8663 29.7837 -15.4872Z" fill="#725193"/>
</g>
<path d="M26.2284 18.5143C25.9717 18.5143 25.7408 18.3832 25.5746 18.17C25.4063 17.9569 25.3027 17.6645 25.3027 17.342V8.57811C25.3027 8.25564 25.4063 7.96051 25.5746 7.75009C25.7429 7.53693 25.9738 7.40576 26.2284 7.40576C26.4831 7.40576 26.7161 7.53693 26.8823 7.75009C27.0506 7.96324 27.1542 8.25564 27.1542 8.57811V17.342C27.1542 17.6645 27.0506 17.9596 26.8823 18.17C26.714 18.3832 26.4831 18.5143 26.2284 18.5143Z" fill="#725193"/>
<path d="M35.7939 19.1315L37.9539 15.7372L40.1139 12.3429" fill="#FDF8F1"/>
<path d="M35.7861 20.3657C35.6745 20.3657 35.56 20.3514 35.4513 20.3202C35.3425 20.2889 35.2338 20.2434 35.1308 20.178C34.8446 19.9989 34.6586 19.7202 34.5899 19.416C34.5212 19.1117 34.567 18.7819 34.7502 18.4947L36.9165 15.0854L39.0828 11.6761C39.2631 11.3918 39.5435 11.207 39.8498 11.1387C40.156 11.0705 40.4908 11.116 40.777 11.2951C41.0632 11.4742 41.2491 11.7529 41.3178 12.0571C41.3865 12.3614 41.3407 12.6912 41.1576 12.9784L38.9912 16.3877L36.8249 19.797C36.7076 19.9818 36.5502 20.1211 36.3699 20.2178C36.1896 20.3145 35.9893 20.3657 35.7861 20.3657Z" fill="#725193"/>
<path d="M16.6628 19.1315L14.5014 15.7372L12.3428 12.3429" fill="#FDF8F1"/>
<path d="M16.6708 20.3657C16.4676 20.3657 16.2644 20.3145 16.0869 20.2178C15.9066 20.1211 15.7491 19.979 15.6318 19.797L13.4652 16.3877L11.2985 12.9784C11.1182 12.6941 11.0695 12.3614 11.1382 12.0571C11.2069 11.7529 11.3929 11.4742 11.6792 11.2951C11.9682 11.116 12.3003 11.0705 12.6065 11.1387C12.9128 11.207 13.1932 11.3918 13.3735 11.6761L15.5402 15.0854L17.7069 18.4947C17.8872 18.779 17.9359 19.1117 17.8672 19.416C17.7985 19.7202 17.6124 19.9989 17.3262 20.178C17.2232 20.2406 17.1173 20.2889 17.0057 20.3202C16.8969 20.3514 16.7824 20.3657 16.6708 20.3657Z" fill="#725193"/>
<path d="M84.2405 80.8457C77.6895 80.8457 71.7488 77.1767 67.4465 71.2548C63.1443 65.3328 60.4805 57.1554 60.4805 48.1358C60.4805 39.1162 63.1443 30.9415 67.4465 25.0196C71.7488 19.0977 77.6895 15.4286 84.2405 15.4286C90.7915 15.4286 96.7322 19.0977 101.034 25.0196C105.337 30.9415 108 39.119 108 48.1358C108 57.1526 105.337 65.3301 101.034 71.2548C96.7322 77.1767 90.7915 80.8457 84.2405 80.8457ZM84.2405 17.7744C78.3324 17.7744 72.9749 21.1783 69.0931 26.6764C65.2113 32.1745 62.8079 39.7642 62.8079 48.1358C62.8079 56.5074 65.2113 64.0971 69.0931 69.5952C72.9749 75.0933 78.3324 78.4972 84.2405 78.4972C90.1486 78.4972 95.5061 75.0906 99.3878 69.5952C103.27 64.0971 105.673 56.5074 105.673 48.1358C105.673 39.7642 103.27 32.1745 99.3878 26.6764C95.5061 21.1783 90.1486 17.7744 84.2405 17.7744Z" fill="#725193"/>
<mask id="mask1_1050_14151" style="mask-type:luminance" maskUnits="userSpaceOnUse" x="61" y="16" width="46" height="64">
<path d="M106.778 47.9815C106.778 56.6544 104.24 64.5076 100.134 70.1906C96.0301 75.8736 90.358 79.389 84.095 79.389C77.832 79.389 72.1599 75.8736 68.0563 70.1906C63.9527 64.5076 61.4121 56.6544 61.4121 47.9815C61.4121 39.3086 63.95 31.4554 68.0563 25.7724C72.1627 20.0894 77.832 16.574 84.095 16.574C90.358 16.574 96.0301 20.0894 100.134 25.7724C104.237 31.4554 106.778 39.3086 106.778 47.9815Z" fill="white"/>
</mask>
<g mask="url(#mask1_1050_14151)">
<path d="M87.6342 -15.487C84.2713 -9.63794 81.4012 -0.553885 79.2309 9.85629C77.0607 20.2665 75.593 32.0027 75.0293 43.1645L82.4659 45.5744L89.9025 47.9842L82.4659 50.3941L75.0293 52.804C75.593 63.963 77.0607 75.6993 79.2309 86.1095C81.4012 96.5197 84.2713 105.604 87.6342 111.453C95.6699 110.832 102.9 103.537 108.12 92.1111C113.34 80.6852 116.553 65.1285 116.553 47.9815C116.553 30.8346 113.34 15.2779 108.12 3.85199C102.9 -7.57388 95.6699 -14.8662 87.6342 -15.4897V-15.487Z" fill="#725193"/>
</g>
<path d="M83.9316 18.5143C83.5892 18.5143 83.2813 18.3832 83.0598 18.17C82.8354 17.9569 82.6973 17.6645 82.6973 17.342V8.57811C82.6973 8.25564 82.8354 7.96051 83.0598 7.75009C83.2842 7.53693 83.5921 7.40576 83.9316 7.40576C84.2711 7.40576 84.5818 7.53693 84.8033 7.75009C85.0277 7.96324 85.1658 8.25564 85.1658 8.57811V17.342C85.1658 17.6645 85.0277 17.9596 84.8033 18.17C84.5789 18.3832 84.2711 18.5143 83.9316 18.5143Z" fill="#725193"/>
<path d="M93.8057 19.1315L95.6571 15.7372L97.5085 12.3429" fill="#FDF8F1"/>
<path d="M93.6863 20.3657C93.5849 20.3657 93.4808 20.3514 93.3819 20.3202C93.2831 20.2889 93.1842 20.2434 93.0906 20.178C92.8304 19.9989 92.6613 19.7202 92.5989 19.416C92.5364 19.1117 92.578 18.7819 92.7445 18.4947L94.7139 15.0854L96.6833 11.6761C96.8472 11.3918 97.1022 11.207 97.3806 11.1387C97.6589 11.0705 97.9633 11.116 98.2235 11.2951C98.4836 11.4742 98.6527 11.7529 98.7152 12.0571C98.7776 12.3614 98.736 12.6912 98.5695 12.9784L96.6001 16.3877L94.6307 19.797C94.524 19.9818 94.3809 20.1211 94.217 20.2178C94.0531 20.3145 93.871 20.3657 93.6863 20.3657Z" fill="#725193"/>
<path d="M74.6745 19.1315L72.5145 15.7372L70.3545 12.3429" fill="#FDF8F1"/>
<path d="M74.6825 20.3657C74.4793 20.3657 74.2761 20.3145 74.0986 20.2178C73.9183 20.1211 73.7609 19.979 73.6435 19.797L71.4769 16.3877L69.3102 12.9784C69.1299 12.6941 69.0812 12.3614 69.1499 12.0571C69.2186 11.7529 69.4047 11.4742 69.6909 11.2951C69.98 11.116 70.312 11.0705 70.6182 11.1387C70.9245 11.207 71.205 11.3918 71.3853 11.6761L73.5519 15.0854L75.7186 18.4947C75.8989 18.779 75.9476 19.1117 75.8789 19.416C75.8102 19.7202 75.6241 19.9989 75.3379 20.178C75.2349 20.2406 75.129 20.2889 75.0174 20.3202C74.9086 20.3514 74.7941 20.3657 74.6825 20.3657Z" fill="#725193"/>
<path d="M30.8574 95.0475C30.8574 95.0475 31.0261 96.685 31.7849 99.0065C32.5464 101.331 33.8982 104.339 36.2699 107.084C41.3233 112.939 47.6469 115.573 53.6957 115.397C59.7446 115.222 65.5215 112.238 69.4816 106.85C72.7154 102.449 73.9829 97.9543 74.4398 94.5585C74.8967 91.1627 74.5459 88.8686 74.5459 88.8686C64.4254 94.6986 54.4573 94.6986 47.0213 93.2425C39.5853 91.7836 34.6787 88.8686 34.6787 88.8686" fill="#725193"/>
<path d="M53.1115 116.632C49.8114 116.632 46.5932 115.876 43.5849 114.427C40.5794 112.978 37.7839 110.835 35.3402 108.058C32.8692 105.254 31.4483 102.207 30.6437 99.8267C29.8364 97.4464 29.6455 95.73 29.6291 95.5923C29.5964 95.2739 29.6973 94.9743 29.8855 94.7449C30.0737 94.5155 30.3519 94.3563 30.671 94.3239C30.9901 94.2888 31.2928 94.3887 31.5274 94.5749C31.7619 94.7611 31.9228 95.0364 31.9556 95.3548C31.9583 95.3845 32.1356 96.9228 32.8665 99.0818C33.5974 101.241 34.882 104.021 37.1021 106.539C39.4148 109.162 42.0631 111.167 44.905 112.484C47.7468 113.801 50.7796 114.43 53.8588 114.303C56.7334 114.192 59.5126 113.412 62.0244 112.063C64.5363 110.711 66.7809 108.787 68.5864 106.382C70.8228 103.4 72.0747 100.356 72.762 97.692C73.4492 95.0283 73.572 92.7451 73.5529 91.2878C63.5163 96.3777 53.6842 96.1861 46.3395 94.7071C38.9948 93.2282 34.1347 90.4647 34.0338 90.408C33.7556 90.2461 33.5702 89.987 33.4938 89.7009C33.4174 89.4149 33.4529 89.0991 33.6165 88.8238C33.7801 88.5486 34.042 88.3651 34.3311 88.2895C34.6202 88.2139 34.9393 88.249 35.2175 88.4109C35.3129 88.4649 40.1512 91.2069 47.3977 92.5643C54.6443 93.9191 64.2963 93.8921 74.022 88.4055C74.1884 88.3111 74.3738 88.2598 74.562 88.2544C74.7502 88.249 74.9384 88.2868 75.1102 88.3678C75.2847 88.4514 75.432 88.5729 75.5438 88.7213C75.6556 88.8697 75.7293 89.0451 75.7593 89.2341C75.7893 89.4284 76.1411 91.8276 75.6475 95.2955C75.1538 98.7634 73.8147 103.3 70.4628 107.766C68.4473 110.454 65.9327 112.605 63.1154 114.117C60.298 115.628 57.1807 116.497 53.9488 116.621C53.807 116.626 53.6679 116.632 53.5261 116.635C53.387 116.637 53.2451 116.64 53.106 116.64L53.1115 116.632Z" fill="#725193"/>
<path d="M61.094 113.856C60.1328 110.565 58.0943 107.711 55.3736 105.683C52.6529 103.653 49.2471 102.446 45.5514 102.446C43.5764 102.446 41.6844 102.792 39.9359 103.422C38.1875 104.052 36.5799 104.97 35.1768 106.112C35.3287 106.311 35.4861 106.507 35.6491 106.702C35.812 106.898 35.9778 107.094 36.1518 107.287C39.7592 111.305 44.0073 113.77 48.3467 114.816C52.686 115.865 57.1165 115.497 61.0968 113.856H61.094Z" fill="#FDF8F1"/>
<path d="M52.8134 116.64C49.6166 116.64 46.4389 115.893 43.4454 114.441C40.452 112.99 37.643 110.834 35.1837 108.021C35.0048 107.815 34.8313 107.607 34.6631 107.399C34.495 107.19 34.3323 106.979 34.1751 106.768C33.988 106.522 33.9175 106.224 33.95 105.938C33.9826 105.654 34.1209 105.38 34.3595 105.18C35.8887 103.901 37.6267 102.91 39.4786 102.237C41.3305 101.563 43.299 101.211 45.2919 101.211C49.0771 101.211 52.6534 102.48 55.5438 104.661C58.4315 106.839 60.6332 109.928 61.6689 113.564C61.7503 113.845 61.7177 114.135 61.5984 114.381C61.4791 114.627 61.2731 114.836 61.0046 114.949C59.6679 115.515 58.3095 115.937 56.9402 116.218C55.5709 116.497 54.1935 116.637 52.8188 116.637L52.8134 116.64ZM36.7455 106.273C36.778 106.311 36.8079 106.349 36.8404 106.384C36.873 106.422 36.9055 106.457 36.938 106.495C39.9802 109.977 43.6027 112.347 47.4231 113.499C51.2435 114.652 55.2645 114.589 59.1039 113.204C58.0573 110.334 56.1512 107.918 53.7299 106.219C51.3113 104.52 48.3802 103.538 45.2892 103.538C43.7572 103.538 42.2416 103.779 40.7991 104.241C39.3566 104.704 37.9873 105.388 36.7455 106.273Z" fill="#725193"/>
<path d="M68.5029 76.0435C70.3034 73.9262 72.5406 72.1953 75.0742 70.9924C77.6052 69.7922 80.4326 69.12 83.4164 69.12C88.8422 69.12 93.7531 71.3407 97.3083 74.9304C100.863 78.5201 103.063 83.4786 103.063 88.957C103.063 93.9864 101.211 98.5775 98.1573 102.072C95.1035 105.569 90.8475 107.969 86.0444 108.617" fill="#FDF8F1"/>
<path d="M86.0443 109.851C85.7574 109.851 85.4894 109.745 85.2836 109.565C85.0779 109.385 84.9345 109.131 84.8939 108.836C84.8506 108.517 84.9426 108.208 85.1212 107.971C85.3026 107.733 85.5733 107.564 85.89 107.52C90.4755 106.903 94.4953 104.6 97.3728 101.28C100.248 97.9638 101.977 93.6318 101.977 88.9587C101.977 83.7969 99.8957 79.1155 96.531 75.7226C93.169 72.3323 88.5266 70.2305 83.4051 70.2305C80.6927 70.2305 78.0534 70.8256 75.6497 71.9393C73.2459 73.053 71.0777 74.688 69.31 76.7626C69.0989 77.0082 68.812 77.1447 68.5169 77.1693C68.2219 77.1911 67.916 77.1011 67.6724 76.8881C67.4287 76.678 67.2934 76.3859 67.2717 76.0884C67.2501 75.7908 67.3394 75.4824 67.5478 75.2367C69.5374 72.9001 71.9764 71.0631 74.6806 69.8101C77.3848 68.5572 80.357 67.8857 83.4051 67.8857C89.1654 67.8857 94.3898 70.2496 98.1713 74.063C101.956 77.879 104.297 83.1445 104.297 88.9532C104.297 94.2105 102.351 99.083 99.1161 102.814C95.8813 106.546 91.3553 109.139 86.1959 109.835C86.1688 109.838 86.1444 109.841 86.1174 109.843C86.0903 109.843 86.066 109.843 86.0389 109.843L86.0443 109.851Z" fill="#725193"/>
<path d="M1.23438 76.0435C3.03488 73.9262 5.27204 72.1953 7.80568 70.9924C10.3366 69.7922 13.1641 69.12 16.1478 69.12C21.5736 69.12 26.4846 71.3407 30.0398 74.9304C33.595 78.5201 35.7944 83.4786 35.7944 88.957C35.7944 93.9864 33.9426 98.5775 30.8888 102.072C27.8349 105.569 23.579 107.969 18.7758 108.617" fill="#FDF8F1"/>
<path d="M18.7757 109.851C18.4888 109.851 18.2208 109.745 18.0151 109.565C17.8094 109.385 17.6659 109.131 17.6253 108.836C17.582 108.517 17.674 108.208 17.8526 107.971C18.034 107.733 18.3047 107.564 18.6214 107.52C23.207 106.903 27.2295 104.6 30.1042 101.28C32.979 97.9638 34.7087 93.6318 34.7087 88.9587C34.7087 83.7969 32.6271 79.1155 29.2624 75.7226C25.9004 72.3323 21.258 70.2305 16.1365 70.2305C13.4241 70.2305 10.7849 70.8256 8.3811 71.9393C5.97735 73.053 3.80911 74.688 2.04149 76.7626C1.83305 77.0082 1.5434 77.1447 1.24834 77.1693C0.950581 77.1911 0.647406 77.1011 0.403782 76.8881C0.160158 76.678 0.0248169 76.3859 0.00316145 76.0884C-0.018494 75.7908 0.07084 75.4824 0.279274 75.2367C2.26887 72.9001 4.70781 71.0631 7.41203 69.8101C10.1163 68.5572 13.0885 67.8857 16.1365 67.8857C21.8968 67.8857 27.1212 70.2496 30.9028 74.063C34.6871 77.879 37.0286 83.1445 37.0286 88.9532C37.0286 94.2105 35.0823 99.083 31.8475 102.814C28.6127 106.546 24.0867 109.139 18.9273 109.835C18.9003 109.838 18.8759 109.841 18.8488 109.843C18.8217 109.843 18.7974 109.843 18.7703 109.843L18.7757 109.851Z" fill="#725193"/>
<path d="M60.4797 80.2286C60.4797 81.2523 59.8914 82.1765 58.9428 82.8463C57.9943 83.5161 56.6829 83.9314 55.234 83.9314C53.7851 83.9314 52.4737 83.5161 51.5251 82.8463C50.5766 82.1765 49.9883 81.2523 49.9883 80.2286C49.9883 79.2049 50.5766 78.2806 51.5251 77.6108C52.4737 76.941 53.7851 76.5257 55.234 76.5257C56.6829 76.5257 57.9943 76.941 58.9428 77.6108C59.8914 78.2806 60.4797 79.2049 60.4797 80.2286Z" fill="#725193"/>
<path d="M55.2339 85.1657C53.4177 85.1657 51.7957 84.6578 50.6311 83.8249C49.4665 82.9921 48.7539 81.8342 48.7539 80.5371C48.7539 79.2401 49.4665 78.0822 50.6311 77.2494C51.7957 76.4165 53.4177 75.9086 55.2339 75.9086C57.0501 75.9086 58.6722 76.4165 59.8367 77.2494C61.0041 78.0822 61.7139 79.2401 61.7139 80.5371C61.7139 81.8342 61.0013 82.9921 59.8367 83.8249C58.6694 84.6578 57.0501 85.1657 55.2339 85.1657ZM55.2339 78.2515C54.025 78.2515 53.0018 78.5519 52.2781 78.9888C51.5544 79.4257 51.1329 79.9965 51.1329 80.5371C51.1329 81.0778 51.5544 81.6485 52.2781 82.0855C53.0018 82.5224 54.0277 82.8228 55.2339 82.8228C56.4401 82.8228 57.4688 82.5224 58.1925 82.0855C58.9162 81.6485 59.3376 81.0778 59.3376 80.5371C59.3376 79.9965 58.9162 79.4257 58.1925 78.9888C57.4688 78.5519 56.4428 78.2515 55.2339 78.2515Z" fill="#725193"/>
</svg>
