<svg width="14" height="14" viewBox="0 0 14 14" fill="none" xmlns="http://www.w3.org/2000/svg">
<path d="M1.6802 0C0.777443 0 0.0430899 0.747788 0.0430899 1.66695C0.0430899 2.58611 0.777139 3.33384 1.6802 3.33384C2.58326 3.33384 3.31731 2.58611 3.31731 1.66695C3.31731 0.747788 2.58291 0 1.6802 0Z" fill="#DB3229"/>
<path d="M6.97868 0C6.07598 0 5.34157 0.747788 5.34157 1.66695C5.34157 2.58611 6.07598 3.33384 6.97868 3.33384C7.88144 3.33384 8.61595 2.58611 8.61595 1.66695C8.61595 0.747788 7.88175 0 6.97868 0Z" fill="#DB3229"/>
<path d="M12.3629 3.33389C13.2654 3.33389 14 2.58616 14 1.667C14 0.747839 13.2661 0 12.3629 0C11.4597 0 10.7258 0.747788 10.7258 1.66695C10.7258 2.58611 11.4603 3.33389 12.3629 3.33389Z" fill="#DB3229"/>
<path d="M1.63742 8.67531C2.54012 8.67531 3.27468 7.92773 3.27468 7.00841C3.27468 6.08905 2.54012 5.34131 1.63742 5.34131C0.734708 5.34131 0 6.0891 0 7.00841C0 7.92773 0.734708 8.67531 1.63742 8.67531Z" fill="#DB3229"/>
<path d="M6.9359 8.67531C7.83845 8.67531 8.57301 7.92773 8.57301 7.00841C8.57301 6.08905 7.83906 5.34131 6.9359 5.34131C6.03289 5.34131 5.29879 6.08905 5.29879 7.00841C5.29879 7.92773 6.03319 8.67531 6.9359 8.67531Z" fill="#DB3229"/>
<path d="M12.3206 8.67531C13.2235 8.67531 13.9577 7.92773 13.9577 7.00841C13.9577 6.08905 13.2235 5.34131 12.3206 5.34131C11.4176 5.34131 10.6828 6.08905 10.6828 7.00841C10.6828 7.92773 11.4174 8.67531 12.3206 8.67531Z" fill="#DB3229"/>
<path d="M1.67488 10.6662C0.772171 10.6662 0.0374628 11.4137 0.0374628 12.3331C0.0374628 13.2521 0.772171 14 1.67488 14C2.57759 14 3.31194 13.2525 3.31194 12.3331C3.31194 11.4137 2.57759 10.6662 1.67488 10.6662Z" fill="#DB3229"/>
<path d="M6.97366 10.6662C6.07091 10.6662 5.33625 11.4137 5.33625 12.3331C5.33625 13.2521 6.07065 14 6.97366 14C7.87622 14 8.61072 13.2525 8.61072 12.3331C8.61072 11.4137 7.87622 10.6662 6.97366 10.6662Z" fill="#DB3229"/>
<path d="M12.3577 10.6662C11.4552 10.6662 10.7206 11.4137 10.7206 12.3331C10.7206 13.2521 11.4552 14 12.3577 14C13.2606 14 13.9948 13.2525 13.9948 12.3331C13.9948 11.4137 13.2603 10.6662 12.3577 10.6662Z" fill="#DB3229"/>
</svg>
