<svg width="19" height="26" viewBox="0 0 19 26" fill="none" xmlns="http://www.w3.org/2000/svg">
<path d="M9.5 0C4.2617 0 0 4.10048 0 9.14062C0 10.8435 0.490253 12.5054 1.41809 13.9472L8.95924 25.6399C9.10369 25.8639 9.35819 26 9.63189 26C9.634 26 9.63606 26 9.63817 26C9.91425 25.9979 10.1693 25.8576 10.3111 25.6297L17.66 13.8237C18.5367 12.4124 19 10.793 19 9.14062C19 4.10048 14.7383 0 9.5 0ZM16.3013 13.0415L9.61991 23.7751L2.76381 13.1445C1.99152 11.9445 1.57278 10.56 1.57278 9.14062C1.57278 4.94051 5.13475 1.51328 9.5 1.51328C13.8652 1.51328 17.4219 4.94051 17.4219 9.14062C17.4219 10.5179 17.0308 11.867 16.3013 13.0415Z" fill="#DB3229"/>
<path d="M9.5 4.57031C6.88085 4.57031 4.75 6.62055 4.75 9.14062C4.75 11.6446 6.84618 13.7109 9.5 13.7109C12.1865 13.7109 14.25 11.6171 14.25 9.14062C14.25 6.62055 12.1192 4.57031 9.5 4.57031ZM9.5 12.1977C7.74477 12.1977 6.32278 10.8249 6.32278 9.14062C6.32278 7.46058 7.7539 6.08359 9.5 6.08359C11.2461 6.08359 12.6719 7.46058 12.6719 9.14062C12.6719 10.8003 11.283 12.1977 9.5 12.1977Z" fill="#DB3229"/>
</svg>
