<svg width="36" height="50" viewBox="0 0 36 50" fill="none" xmlns="http://www.w3.org/2000/svg">
<path d="M0 48.537C0.085423 48.1781 0.157256 47.8143 0.259181 47.4602C1.19398 44.2388 4.66623 42.5528 7.73854 43.8379C8.0152 43.9533 8.17828 43.9161 8.41902 43.7352C9.25772 43.1064 10.1275 42.5196 10.9866 41.9181C11.0856 41.8487 11.1933 41.791 11.2797 41.7382C10.4439 41.2893 9.59164 40.9069 8.81701 40.4023C4.84193 37.8146 2.92282 32.8104 4.08865 28.1876C4.22358 27.6507 4.54877 27.3681 5.07975 27.2615C9.84209 26.305 13.7521 27.7035 16.7827 31.5479C16.84 31.6212 16.9002 31.6926 17.0069 31.8246C17.0069 29.6848 17.0069 27.6174 17.0069 25.5168C15.3955 25.3564 13.8337 24.9799 12.397 24.219C8.26856 22.0313 5.84953 18.6124 5.42824 13.9104C4.83805 7.34336 9.08299 1.64088 15.5149 0.270756C18.0388 -0.267122 20.5122 0.00572883 22.9011 1.00618C23.2632 1.15777 23.5496 1.37292 23.6185 1.78757C23.7544 2.61395 23.0341 3.18214 22.2304 2.8555C20.8403 2.29024 19.4065 1.97241 17.9048 1.97632C12.7067 1.98805 8.15595 5.98986 7.43762 11.1828C6.69308 16.5626 9.79355 21.5257 14.8752 23.0924C20.9762 24.973 27.3965 21.069 28.5449 14.7661C28.9176 12.7231 28.7109 10.7242 27.9547 8.78683C27.9139 8.68121 27.8595 8.58048 27.8236 8.4729C27.6402 7.91449 27.8644 7.36976 28.3556 7.17026C28.8603 6.96489 29.4214 7.17026 29.6214 7.73161C29.9456 8.64502 30.2941 9.56626 30.462 10.5149C31.5172 16.4765 28.3595 22.3081 22.8264 24.5662C21.6314 25.0542 20.3355 25.2899 19.0124 25.6625C19.0124 27.5861 19.0124 29.6584 19.0124 31.8236C19.1454 31.6535 19.2425 31.5244 19.3444 31.3992C22.4061 27.6321 26.3132 26.2991 31.0221 27.2781C31.5395 27.3857 31.8152 27.7172 31.9356 28.2267C33.2616 33.847 30.3727 39.4097 25.0212 41.5338C24.9222 41.5729 24.827 41.6228 24.663 41.6981C24.9862 41.8888 25.2706 42.0306 25.5269 42.2125C26.2375 42.7171 26.948 43.2237 27.6324 43.7626C27.8421 43.9278 27.9886 43.9523 28.2304 43.8565C31.5793 42.5186 35.069 44.3621 35.8641 47.8817C35.9068 48.0705 35.9097 48.269 35.9514 48.4587C36.0961 49.1159 35.9252 49.6411 35.3379 50C23.5748 50 11.8117 50 0.0485358 50C0.0330043 50 0.0174729 50 0.00194143 50C0 49.512 0 49.024 0 48.537ZM33.8566 48.0353C33.2548 45.7723 30.6416 44.6652 28.6526 45.8574C27.8333 46.3483 27.381 46.2221 26.7452 45.6236C23.8 42.8501 20.2918 41.7196 16.3032 42.2194C13.5153 42.5695 11.1157 43.7958 9.0956 45.7703C8.54036 46.3141 8.19963 46.3591 7.5512 45.9464C6.80957 45.475 6.00485 45.3312 5.14479 45.4085C3.77803 45.5317 2.4297 46.716 2.17246 48.0343C12.7261 48.0353 23.2748 48.0353 33.8566 48.0353ZM15.4606 40.2859C15.5052 40.2282 15.5489 40.1715 15.5936 40.1138C15.447 40.0199 15.2781 39.9495 15.1577 39.8292C13.9657 38.639 12.7669 37.4557 11.6088 36.2323C11.3797 35.9897 11.2205 35.5917 11.204 35.2563C11.1846 34.87 11.4768 34.5883 11.8748 34.4612C12.3038 34.3243 12.631 34.4935 12.9193 34.783C14.1424 36.0103 15.3616 37.2425 16.5827 38.4718C16.6973 38.5872 16.8225 38.6928 16.9419 38.8024C16.9972 38.7769 17.0516 38.7525 17.1069 38.7271C16.9807 37.8 16.938 36.8523 16.7148 35.9497C15.5645 31.2936 11.0157 28.2844 6.31548 29.0159C6.01844 29.0619 5.84759 29.1841 5.82235 29.4922C5.78838 29.9127 5.7214 30.3332 5.7146 30.7538C5.64665 35.1194 8.47532 38.8894 12.663 40.0043C13.5793 40.2497 14.5132 40.3749 15.4606 40.2859ZM18.9843 38.8806C19.1862 38.6977 19.2939 38.6087 19.393 38.51C20.6034 37.2924 21.813 36.0739 23.0205 34.8534C23.3049 34.5658 23.636 34.2852 24.0339 34.4524C24.3261 34.5756 24.6173 34.8446 24.7717 35.1243C24.9979 35.533 24.7532 35.9056 24.4543 36.2078C23.2583 37.4176 22.0624 38.6263 20.8558 39.8253C20.7345 39.9456 20.5452 39.9965 20.3879 40.0786C20.4394 40.1471 20.4899 40.2155 20.5413 40.284C20.6957 40.2947 20.8519 40.328 21.0034 40.3114C21.7382 40.2292 22.4886 40.2077 23.202 40.0326C28.1799 38.8092 30.8804 34.0534 30.1922 29.4961C30.1465 29.1968 30.0038 29.058 29.7 29.0169C27.1364 28.6668 24.7833 29.2223 22.7206 30.7899C20.1152 32.7713 18.9581 35.4783 18.9843 38.8806Z" fill="white"/>
<path d="M18.9746 7.77855C18.9746 9.01665 18.9639 10.1384 18.9882 11.2591C18.9911 11.397 19.1697 11.5359 19.2804 11.662C19.3182 11.7051 19.3959 11.7148 19.4561 11.7373C21.2461 12.3994 22.2488 13.7167 22.2566 15.4174C22.2643 17.2051 21.1063 18.895 19.4376 19.5297C19.3017 19.5815 19.1629 19.6236 18.9746 19.6881C18.9746 19.9747 18.9823 20.2798 18.9726 20.584C18.9552 21.1531 18.5242 21.5893 17.9971 21.5825C17.47 21.5756 17.0555 21.1365 17.0409 20.5634C17.0351 20.3219 17.0399 20.0793 17.0399 19.7889C16.01 19.7322 15.1063 19.3801 14.2802 18.8178C13.8861 18.5488 13.6657 18.1928 13.8084 17.698C14.0045 17.0193 14.6588 16.7993 15.3247 17.1454C15.844 17.4154 16.3837 17.6452 17.039 17.9503C17.039 17.5102 17.039 17.2432 17.039 16.9753C17.039 15.7714 17.0283 14.5675 17.0458 13.3647C17.0506 13.0341 16.9885 12.817 16.6439 12.7016C16.3876 12.6165 16.1585 12.4512 15.9178 12.3202C14.5549 11.5789 13.9511 10.4112 14.1647 8.88462C14.3782 7.35705 15.2344 6.30574 16.7235 5.82948C16.8147 5.80014 16.9079 5.77765 16.8769 5.78645C17.0535 5.22217 17.1661 4.71167 17.3855 4.25203C17.4583 4.09947 17.802 4.02612 18.0272 4.01243C18.4572 3.98602 18.796 4.21878 18.9066 4.63246C19.0008 4.98452 18.9785 5.36788 19.0018 5.67105C19.6279 5.96248 20.2394 6.20697 20.8112 6.52481C21.3926 6.84851 21.5402 7.43138 21.2393 7.9272C20.9364 8.42792 20.3811 8.53549 19.8075 8.21179C19.5589 8.07487 19.3036 7.95067 18.9746 7.77855ZM18.9901 17.5376C19.9268 17.0623 20.3928 16.1127 20.2404 15.08C20.1414 14.4121 19.6114 13.8507 18.9901 13.7558C18.9901 15.0008 18.9901 16.2457 18.9901 17.5376ZM17.0011 10.6401C17.0011 9.6934 17.0011 8.78389 17.0011 7.83723C16.3459 8.2069 16.0906 8.7614 16.078 9.42739C16.0673 10.0337 16.4313 10.4024 17.0011 10.6401Z" fill="white"/>
<path d="M27.2363 4.47598C27.2247 5.02657 26.7772 5.45296 26.2307 5.43145C25.7113 5.41189 25.2833 4.97083 25.2823 4.45447C25.2813 3.93419 25.7618 3.45401 26.2773 3.46086C26.8092 3.46771 27.247 3.93126 27.2363 4.47598Z" fill="white"/>
</svg>
