<svg width="49" height="49" viewBox="0 0 49 49" fill="none" xmlns="http://www.w3.org/2000/svg">
<path d="M35.4114 0C35.8515 0.27562 35.9637 0.690006 35.9637 1.18382C35.9589 15.0902 35.9599 28.9965 35.9599 42.9038C35.9599 42.9354 35.9599 42.9679 35.9599 42.9995C35.9484 43.7077 35.6339 44.1164 35.1084 44.1078C34.582 44.0991 34.2789 43.6943 34.2789 42.9794C34.278 32.6609 34.278 22.3424 34.278 12.0249C34.278 8.77102 34.278 5.51813 34.278 2.26429C34.278 2.0748 34.278 1.88531 34.278 1.6652C27.7603 1.6652 21.2791 1.6652 14.725 1.6652C14.725 1.86522 14.725 2.06523 14.725 2.26429C14.725 15.7725 14.725 29.2798 14.7221 42.788C14.7221 43.0397 14.7049 43.3 14.6426 43.5422C14.5486 43.9125 14.2532 44.0963 13.8946 44.0991C13.513 44.102 13.2186 43.9068 13.1179 43.5163C13.0671 43.3192 13.046 43.1086 13.046 42.9038C13.0431 28.9975 13.0441 15.0911 13.0393 1.18382C13.0393 0.690006 13.1515 0.27562 13.5916 0.000957013C20.8639 0 28.1372 0 35.4114 0Z" fill="white"/>
<path d="M39.5261 48.999C38.6803 48.7043 37.9966 48.2363 37.7003 47.3329C37.1758 45.7308 38.313 44.1183 39.994 44.1154C40.2893 44.1145 40.4715 44.0589 40.6576 43.8015C41.9252 42.0483 44.5047 42.0004 45.8395 43.7115C46.0706 44.0082 46.2796 44.1594 46.6555 44.1202C46.8693 44.0982 47.0927 44.1633 47.3401 44.1929C47.3401 33.2954 47.3401 22.4018 47.3401 11.4583C47.1263 11.4583 46.9384 11.4583 46.7514 11.4583C44.1048 11.4583 41.4582 11.4583 38.8117 11.4583C37.9822 11.4583 37.5565 11.1655 37.5661 10.6056C37.5756 10.0448 37.9851 9.77684 38.8337 9.77684C41.8313 9.77684 44.8278 9.78258 47.8253 9.7711C48.3259 9.76918 48.7296 9.89647 49 10.3367C49 22.5865 49 34.8362 49 47.086C48.6721 48.0334 48.0334 48.6717 47.086 49C44.567 48.999 42.047 48.999 39.5261 48.999ZM43.283 47.3673C44.3033 47.3673 45.3226 47.3712 46.3429 47.3654C46.7427 47.3626 47.158 47.2793 47.2606 46.8419C47.32 46.5902 47.2548 46.2314 47.1033 46.0256C46.8482 45.6782 46.4608 45.7136 46.0667 45.8859C45.5796 46.0993 45.196 45.9691 44.9649 45.5624C44.8786 45.4112 44.8163 45.2466 44.7425 45.0877C44.4548 44.4647 43.9629 44.1221 43.283 44.1231C42.6032 44.124 42.1074 44.4666 41.8255 45.0925C41.3969 46.0419 41.2588 46.0792 40.2692 45.8189C40.0208 45.7538 39.5999 45.8744 39.4426 46.0639C39.2844 46.2534 39.2633 46.6649 39.3496 46.9242C39.48 47.3166 39.8914 47.3664 40.2721 47.3673C41.2751 47.3683 42.2791 47.3673 43.283 47.3673Z" fill="white"/>
<path d="M3.73313 48.999C3.31793 48.6555 3.23642 48.2076 3.24888 47.6898C3.27573 46.4802 3.25751 45.2705 3.25751 44.0379C2.3993 43.8006 1.6456 43.4139 1.05492 42.7498C0.453686 42.0741 0.0336873 41.2903 0.0260161 40.3926C0.000125719 37.5647 0.246563 34.7616 1.26492 32.0925C1.51998 31.4235 1.89875 30.7526 2.38012 30.2282C3.52984 28.9755 5.066 29.1315 6.07285 30.5134C6.98668 31.768 7.41531 33.2217 7.63778 34.7175C7.88517 36.3818 8.02805 38.0642 8.15271 39.7438C8.29654 41.6693 7.11997 43.3364 5.26737 43.9144C4.99217 44.0006 4.89148 44.1144 4.89628 44.4083C4.91354 45.5394 4.88861 46.6706 4.9097 47.8018C4.91929 48.2918 4.83011 48.7091 4.40436 49C4.17998 48.999 3.95655 48.999 3.73313 48.999ZM1.68683 38.9829C1.67053 39.2854 1.64081 39.5878 1.63985 39.8902C1.63601 41.3429 2.71478 42.4579 4.10231 42.4416C5.486 42.4253 6.51586 41.342 6.5149 39.8998C6.51299 37.9341 6.30778 35.9856 5.81011 34.0878C5.5723 33.1796 5.17436 32.2944 4.72176 31.4685C4.40053 30.8818 3.83094 30.8991 3.44546 31.4551C3.12423 31.9183 2.86724 32.4456 2.68601 32.9806C2.02628 34.9243 1.7693 36.9407 1.68683 38.9829Z" fill="white"/>
<path d="M11.9634 48.999C11.5242 48.7253 11.3775 48.3186 11.4063 47.819C11.4226 47.5329 11.4091 47.2448 11.4091 46.9577C11.4111 45.9873 11.6604 45.7337 12.6164 45.7328C18.2471 45.7318 23.8777 45.7328 29.5074 45.7328C31.2459 45.7328 32.9844 45.7328 34.7229 45.7337C34.8821 45.7337 35.0432 45.7299 35.2004 45.7471C35.6099 45.7911 35.9024 46.1003 35.9292 46.5022C35.9561 46.9089 35.6655 47.2831 35.2474 47.352C35.0758 47.3807 34.8974 47.3693 34.722 47.3693C27.7201 47.3702 20.7172 47.3702 13.7153 47.3702C13.5264 47.3702 13.3384 47.3702 13.1074 47.3702C13.0834 47.9913 13.1735 48.6354 12.5358 48.9981C12.3469 48.999 12.1552 48.999 11.9634 48.999Z" fill="white"/>
<path d="M19.6001 35.9578C18.8569 35.9578 18.1876 35.9636 17.5202 35.955C17.315 35.9521 17.1041 35.9358 16.9075 35.8813C16.545 35.7798 16.3571 35.5147 16.3465 35.1405C16.336 34.7664 16.5076 34.4831 16.8624 34.3673C17.0839 34.2955 17.3313 34.2802 17.5672 34.2792C22.1929 34.2744 26.8177 34.2754 31.4435 34.2754C31.5394 34.2754 31.6352 34.2716 31.7302 34.2773C32.3026 34.3118 32.6507 34.6218 32.6584 35.1003C32.6661 35.5836 32.3352 35.9215 31.7599 35.9492C31.1874 35.977 30.6121 35.9569 30.0377 35.9578C29.8479 35.9578 29.659 35.9578 29.401 35.9578C29.401 36.1674 29.401 36.3368 29.401 36.5062C29.401 38.6116 29.401 40.7171 29.4 42.8225C29.4 42.9976 29.402 43.1737 29.3847 43.3479C29.3416 43.7776 29.0098 44.0953 28.6042 44.1078C28.2292 44.1192 27.861 43.8293 27.7814 43.4378C27.7498 43.2838 27.7575 43.1211 27.7565 42.9612C27.7555 40.7764 27.7555 38.5915 27.7555 36.4057C27.7555 36.2803 27.7555 36.155 27.7555 35.9942C25.5827 35.9942 23.4414 35.9942 21.2427 35.9942C21.2427 36.1693 21.2427 36.3397 21.2427 36.51C21.2427 38.7274 21.2456 40.9439 21.2398 43.1613C21.2388 43.6685 20.9962 44.0006 20.5753 44.0838C20.1831 44.1613 19.8676 44.0025 19.7065 43.6522C19.6125 43.4474 19.6039 43.1909 19.602 42.9574C19.5943 41.2664 19.5972 39.5763 19.5972 37.8853C19.6001 37.2661 19.6001 36.6478 19.6001 35.9578Z" fill="white"/>
<path d="M1.63314 11.4583C1.63314 11.7081 1.63314 11.8957 1.63314 12.0842C1.63314 16.9611 1.63409 21.8381 1.63218 26.715C1.63218 27.3926 1.36848 27.7381 0.852589 27.7553C0.409577 27.7706 0.0538242 27.4672 0.00875584 27.0241C-0.00562768 26.8825 0.00204353 26.738 0.00204353 26.5944C0.00204353 21.3825 0.00204353 16.1706 0.00204353 10.9597C0.00204353 10.041 0.267659 9.7778 1.19971 9.77684C4.21162 9.77588 7.22449 9.77684 10.2364 9.77684C10.3476 9.77684 10.4608 9.7711 10.5711 9.78162C11.0965 9.83522 11.4398 10.174 11.435 10.6257C11.4302 11.0612 11.1119 11.3808 10.5998 11.4468C10.4426 11.4669 10.2815 11.4583 10.1223 11.4583C7.50833 11.4593 4.89436 11.4583 2.28039 11.4583C2.08957 11.4583 1.89971 11.4583 1.63314 11.4583Z" fill="white"/>
<path d="M44.1154 37.5627C44.1154 38.3284 44.1221 39.093 44.1134 39.8586C44.1058 40.5094 43.7932 40.8405 43.1488 40.8501C42.1448 40.8654 41.1399 40.8654 40.1359 40.8491C39.5356 40.8396 39.201 40.541 39.1914 39.9371C39.1665 38.359 39.1655 36.7809 39.1904 35.2028C39.2 34.5855 39.5443 34.2888 40.1762 34.2802C41.1648 34.2668 42.1534 34.2649 43.1411 34.2811C43.7912 34.2917 44.1048 34.6209 44.1125 35.2678C44.123 36.0315 44.1154 36.7971 44.1154 37.5627ZM40.8973 35.9779C40.8973 37.0737 40.8973 38.114 40.8973 39.1466C41.4276 39.1466 41.9156 39.1466 42.42 39.1466C42.42 38.0767 42.42 37.0364 42.42 35.9779C41.8936 35.9779 41.4055 35.9779 40.8973 35.9779Z" fill="white"/>
<path d="M9.82311 18.0004C9.82311 18.7182 9.83079 19.435 9.8212 20.1528C9.81065 20.9519 9.51243 21.2409 8.71462 21.2428C7.77394 21.2447 6.83326 21.2476 5.89354 21.2419C5.20984 21.238 4.89148 20.9289 4.88861 20.2513C4.88189 18.7211 4.88094 17.1908 4.88861 15.6606C4.89148 15.0337 5.18682 14.7045 5.81874 14.6873C6.83805 14.6605 7.85928 14.6595 8.8786 14.6863C9.51818 14.7035 9.80489 15.0318 9.81832 15.7046C9.83558 16.4702 9.82311 17.2358 9.82311 18.0004ZM8.11723 19.5747C8.11723 18.4837 8.11723 17.4396 8.11723 16.3869C7.58791 16.3869 7.08833 16.3869 6.57819 16.3869C6.57819 17.4636 6.57819 18.5077 6.57819 19.5747C7.09983 19.5747 7.58791 19.5747 8.11723 19.5747Z" fill="white"/>
<path d="M44.1154 18.0004C44.1154 18.7498 44.1211 19.4991 44.1134 20.2485C44.1058 20.928 43.7932 21.2371 43.1104 21.2419C42.1381 21.2476 41.1658 21.2476 40.1934 21.2419C39.5318 21.238 39.1972 20.9547 39.1876 20.2992C39.1655 18.7373 39.1655 17.1745 39.1885 15.6127C39.1972 15.0079 39.5126 14.7016 40.1196 14.6863C41.1389 14.6605 42.1602 14.6595 43.1795 14.6873C43.8277 14.7045 44.1086 15.0395 44.1134 15.7055C44.1201 16.4702 44.1154 17.2358 44.1154 18.0004ZM42.4191 19.5738C42.4191 18.4943 42.4191 17.4396 42.4191 16.3927C41.8782 16.3927 41.3777 16.3927 40.8925 16.3927C40.8925 17.475 40.8925 18.5182 40.8925 19.5738C41.416 19.5738 41.9032 19.5738 42.4191 19.5738Z" fill="white"/>
<path d="M44.1154 27.7983C44.1154 28.5477 44.1211 29.297 44.1134 30.0454C44.1067 30.7086 43.8171 31.0244 43.1613 31.0359C42.1573 31.0541 41.1533 31.0531 40.1493 31.0359C39.5107 31.0254 39.1962 30.7364 39.1876 30.1C39.1655 28.5381 39.1645 26.9763 39.1895 25.4144C39.1991 24.778 39.5299 24.5033 40.1647 24.5005C41.1533 24.4957 42.141 24.4957 43.1296 24.5005C43.8066 24.5033 44.1086 24.8086 44.1144 25.5025C44.1202 26.2681 44.1154 27.0327 44.1154 27.7983ZM42.4239 29.3678C42.4239 28.2969 42.4239 27.2394 42.4239 26.158C41.9022 26.158 41.4026 26.158 40.8877 26.158C40.8877 27.2404 40.8877 28.296 40.8877 29.3678C41.395 29.3678 41.8696 29.3678 42.4239 29.3678Z" fill="white"/>
<path d="M22.8728 8.16427C22.8728 8.91362 22.8757 9.66296 22.8718 10.4113C22.868 11.1071 22.589 11.4353 21.9139 11.4507C20.9099 11.4736 19.905 11.4746 18.902 11.4497C18.2701 11.4344 17.9709 11.1214 17.9642 10.4879C17.9498 8.94232 17.9488 7.39579 17.9642 5.85022C17.9709 5.18892 18.2873 4.89321 18.9442 4.88842C19.9319 4.87981 20.9205 4.87885 21.9091 4.88938C22.5583 4.89608 22.8661 5.21572 22.8709 5.87032C22.8776 6.63401 22.8728 7.39866 22.8728 8.16427ZM21.1976 9.75196C21.1976 8.66288 21.1976 7.62452 21.1976 6.57372C20.6587 6.57372 20.1572 6.57372 19.6403 6.57372C19.6403 7.64557 19.6403 8.6868 19.6403 9.75196C20.1668 9.75196 20.6683 9.75196 21.1976 9.75196Z" fill="white"/>
<path d="M26.1292 8.17193C26.1292 7.40728 26.1244 6.64167 26.1302 5.87701C26.135 5.21859 26.4399 4.89512 27.0843 4.88842C28.0883 4.87789 29.0922 4.87789 30.0962 4.88842C30.7013 4.89512 31.0254 5.19084 31.0331 5.79375C31.0513 7.37187 31.0513 8.94998 31.035 10.5271C31.0283 11.1262 30.7205 11.4334 30.1077 11.4487C29.0884 11.4736 28.0672 11.4755 27.0479 11.4468C26.4169 11.4296 26.1359 11.0985 26.1302 10.4659C26.1244 9.70219 26.1292 8.93658 26.1292 8.17193ZM27.7968 6.57755C27.7968 7.65227 27.7968 8.69255 27.7968 9.73665C28.3405 9.73665 28.8525 9.73665 29.3483 9.73665C29.3483 8.65714 29.3483 7.61878 29.3483 6.57755C28.8094 6.57755 28.3088 6.57755 27.7968 6.57755Z" fill="white"/>
<path d="M22.8728 17.9478C22.8728 18.7287 22.8786 19.5097 22.8709 20.2906C22.8642 20.9174 22.5544 21.2342 21.9302 21.2399C20.9262 21.2495 19.9223 21.2485 18.9183 21.2399C18.2893 21.2342 17.9719 20.9404 17.9661 20.303C17.9498 18.7412 17.9508 17.1793 17.9671 15.6175C17.9738 15.0069 18.2662 14.7035 18.8828 14.6863C19.9021 14.6595 20.9234 14.6586 21.9427 14.6863C22.5976 14.7035 22.869 15.0299 22.8738 15.6998C22.8766 16.4501 22.8728 17.1985 22.8728 17.9478ZM21.2139 16.385C20.6577 16.385 20.1543 16.385 19.6432 16.385C19.6432 17.4607 19.6432 18.5048 19.6432 19.5556C20.185 19.5556 20.698 19.5556 21.2139 19.5556C21.2139 18.4809 21.2139 17.4492 21.2139 16.385Z" fill="white"/>
<path d="M26.1292 17.9698C26.1292 17.2052 26.1254 16.4396 26.1302 15.6749C26.135 15.0509 26.391 14.715 26.9913 14.6959C28.0576 14.6605 29.1268 14.6624 30.1931 14.6978C30.754 14.716 31.0292 15.028 31.035 15.5964C31.0513 17.1736 31.0532 18.7517 31.034 20.3298C31.0263 20.9567 30.7022 21.238 30.0579 21.2419C29.0702 21.2486 28.0816 21.2495 27.0939 21.2419C26.4418 21.2361 26.135 20.9232 26.1302 20.2667C26.1244 19.5001 26.1292 18.7354 26.1292 17.9698ZM27.8025 16.3793C27.8025 17.4722 27.8025 18.5153 27.8025 19.569C28.3405 19.569 28.842 19.569 29.3627 19.569C29.3627 18.4943 29.3627 17.4492 29.3627 16.3793C28.8362 16.3793 28.3338 16.3793 27.8025 16.3793Z" fill="white"/>
<path d="M22.8728 27.7687C22.8728 28.5496 22.8795 29.3305 22.8709 30.1114C22.8642 30.6962 22.5851 31.0168 22.006 31.0302C20.955 31.0551 19.9021 31.0541 18.8512 31.033C18.2787 31.0216 17.9795 30.7383 17.9728 30.1775C17.9527 28.5687 17.9527 26.959 17.9728 25.3493C17.9795 24.7905 18.3036 24.5081 18.855 24.5033C19.8906 24.4947 20.9262 24.4957 21.9628 24.5033C22.5545 24.5072 22.8642 24.8239 22.8709 25.4269C22.8795 26.2068 22.8728 26.9878 22.8728 27.7687ZM21.211 26.1647C20.651 26.1647 20.1486 26.1647 19.6538 26.1647C19.6538 27.2538 19.6538 28.3103 19.6538 29.3516C20.1946 29.3516 20.6961 29.3516 21.211 29.3516C21.211 28.2759 21.211 27.2327 21.211 26.1647Z" fill="white"/>
<path d="M26.1292 27.7629C26.1292 26.9983 26.1244 26.2327 26.1312 25.468C26.1369 24.8086 26.4399 24.5053 27.0939 24.5014C28.0816 24.4966 29.0702 24.4976 30.0579 24.5014C30.707 24.5043 31.0273 24.7732 31.034 25.4029C31.0532 26.9801 31.0522 28.5582 31.034 30.1354C31.0273 30.7297 30.7358 31.0206 30.1451 31.033C29.1095 31.0551 28.0729 31.0551 27.0383 31.034C26.4092 31.0206 26.135 30.7038 26.1302 30.0578C26.1244 29.2922 26.1292 28.5276 26.1292 27.7629ZM27.7881 29.3554C28.3453 29.3554 28.8477 29.3554 29.3492 29.3554C29.3492 28.2701 29.3492 27.2146 29.3492 26.1638C28.8113 26.1638 28.3098 26.1638 27.7881 26.1638C27.7881 27.2385 27.7881 28.2816 27.7881 29.3554Z" fill="white"/>
<path d="M8.14695 26.1513C7.58696 26.1513 7.09792 26.1513 6.57244 26.1513C6.55518 26.4499 6.5523 26.7341 6.51874 27.0136C6.46312 27.4777 6.17066 27.7457 5.73819 27.7543C5.29902 27.7639 4.93176 27.472 4.90395 27.0088C4.86847 26.4222 4.86655 25.8288 4.90587 25.2422C4.93751 24.7713 5.28943 24.5053 5.79764 24.5014C6.80161 24.4947 7.80463 24.4967 8.8086 24.5005C9.49229 24.5024 9.79051 24.7876 9.81928 25.4814C9.83558 25.8786 9.82311 26.2776 9.82311 26.6758C9.82311 27.7754 9.82599 28.874 9.8212 29.9736C9.81928 30.4282 9.71859 30.8455 9.21421 30.9929C8.62832 31.1632 8.15846 30.7546 8.14983 30.0588C8.13641 28.9439 8.146 27.828 8.146 26.7131C8.14695 26.5408 8.14695 26.3676 8.14695 26.1513Z" fill="white"/>
<path d="M24.502 40.8424C24.082 40.8434 23.6812 40.4443 23.6773 40.0204C23.6735 39.5706 24.0312 39.2222 24.4991 39.2212C24.967 39.2203 25.3257 39.5677 25.3238 40.0175C25.3218 40.4414 24.9229 40.8415 24.502 40.8424Z" fill="white"/>
</svg>
