<svg width="49" height="49" viewBox="0 0 49 49" fill="none" xmlns="http://www.w3.org/2000/svg">
<path d="M0.598128 48.9989C0.389257 48.7183 0.0400159 48.4535 0.00520409 48.1527C-0.0475751 47.7005 0.307281 47.3459 0.789031 47.4233C1.89739 47.6029 2.38476 47.2067 2.75421 46.098C3.32468 44.3866 4.70592 43.38 6.47346 42.9513C6.5633 42.93 6.65313 42.9042 6.74185 42.875C6.77554 42.8638 6.80473 42.8357 6.85414 42.8032C6.85414 34.9455 6.85414 27.0766 6.85414 19.1235C6.00743 19.1235 5.17419 19.1235 4.34096 19.1235C3.92995 19.1235 3.51895 19.1347 3.10907 19.1179C2.52962 19.0943 2.28145 18.8194 2.28145 18.2302C2.2792 16.7231 3.63349 15.3439 5.17419 15.2979C5.71322 15.2822 6.25336 15.2957 6.87323 15.2957C6.87323 15.0488 6.87323 14.8333 6.87323 14.619C6.87323 10.1593 6.87323 5.70079 6.87323 1.24114C6.87323 1.09188 6.87436 0.942631 6.87436 0.793377C6.87436 0.318684 7.14499 0.0684318 7.58295 0.00671044C7.99395 -0.0516443 8.37239 0.277162 8.41394 0.737267C8.44763 1.10647 8.42068 1.48129 8.42068 1.8808C8.54869 1.93691 8.65874 1.99414 8.77553 2.03454C15.5324 4.39005 20.7092 8.72625 24.5835 14.6773C24.8822 15.1352 25.1741 15.3562 25.7322 15.3057C26.3431 15.2508 26.963 15.2867 27.5795 15.2957C29.1696 15.3181 30.5037 16.594 30.6003 18.1764C30.6351 18.752 30.3353 19.1067 29.7547 19.1179C28.8473 19.1347 27.94 19.1224 26.9439 19.1224C30.5194 27.879 30.0994 36.7287 28.0152 45.6637C28.4891 45.1217 28.8709 44.5583 29.3718 44.1364C31.1213 42.664 33.073 42.4429 35.1719 43.3261C35.365 43.408 35.6469 43.4518 35.8243 43.3733C39.1898 41.8706 42.671 43.5764 43.5031 47.154C43.5188 47.2235 43.5402 47.292 43.5716 47.4076C44.9933 47.4076 46.4093 47.4267 47.8243 47.3986C48.3947 47.3874 48.8046 47.5411 49 48.1045C49 48.403 49 48.7015 49 49C32.8664 48.9989 16.7328 48.9989 0.598128 48.9989ZM8.42741 3.57196C8.42741 3.83792 8.42741 4.02196 8.42741 4.20601C8.42741 16.878 8.42741 29.551 8.42741 42.223C8.42741 42.3532 8.39597 42.4957 8.43752 42.6113C8.48019 42.7291 8.57564 42.8784 8.68233 42.9154C9.06526 43.0489 9.46278 43.1398 9.90748 43.2622C9.90748 43.0063 9.90748 42.7695 9.90748 42.5327C9.90748 30.7754 9.90748 19.0169 9.9086 7.25953C9.9086 6.22598 10.424 5.91737 11.3404 6.39319C13.4538 7.48846 15.4055 8.82276 17.1753 10.4152C23.5369 16.1429 26.4408 23.4148 26.6913 31.8493C26.8226 36.2742 26.205 40.6194 25.1506 44.9084C24.9518 45.7153 24.7497 46.521 24.5475 47.329C25.8457 47.5782 25.9355 47.5299 26.2342 46.346C27.0192 43.2363 27.5952 40.0942 27.867 36.8925C28.1769 33.2465 28.068 29.6184 27.3437 26.034C25.5941 17.3818 20.972 10.6823 13.4987 5.96675C11.9389 4.98257 10.3106 4.12521 8.42741 3.57196ZM19.5762 15.2833C17.319 12.3398 14.652 10.0594 11.5111 8.2583C11.5111 10.6475 11.5111 12.9615 11.5111 15.2833C14.1837 15.2833 16.8103 15.2833 19.5762 15.2833ZM23.4863 45.1755C19.6649 45.1755 15.9142 45.1755 12.1848 45.1755C12.4723 45.924 12.7486 46.6434 13.0417 47.4053C16.1904 47.4053 19.3763 47.4098 22.5621 47.3919C22.7047 47.3908 22.9282 47.2134 22.9731 47.0732C23.1663 46.475 23.3067 45.8589 23.4863 45.1755ZM21.7839 36.1047C21.7749 36.0744 21.7659 36.043 21.757 36.0127C18.3375 36.0127 14.9193 36.0127 11.5122 36.0127C11.5122 37.4951 11.5122 38.9304 11.5122 40.4286C14.9799 38.9686 18.3813 37.5367 21.7839 36.1047ZM24.187 24.6852C20.9125 26.1407 17.7559 27.5445 14.5981 28.9484C14.6116 28.9765 14.625 29.0045 14.6396 29.0326C18.0489 29.0326 21.4583 29.0326 24.9799 29.0326C24.7137 27.5748 24.4566 26.1631 24.187 24.6852ZM11.5055 30.6452C11.5055 31.1569 11.5055 31.6125 11.5055 32.0513C16.0703 32.0513 20.5947 32.0513 25.1517 32.0513C25.118 31.5587 25.0877 31.1143 25.0551 30.6452C20.5206 30.6452 16.0276 30.6452 11.5055 30.6452ZM11.4875 42.0793C11.4875 42.5855 11.4875 43.0456 11.4875 43.5371C15.6233 43.5371 19.7356 43.5371 23.8726 43.5371C23.9748 43.0478 24.0714 42.581 24.1758 42.0793C19.9265 42.0793 15.7345 42.0793 11.4875 42.0793ZM11.4841 28.6252C14.5408 27.2662 17.5593 25.9252 20.5767 24.583C20.5633 24.5583 20.5498 24.5337 20.5374 24.509C17.5256 24.509 14.5139 24.509 11.4841 24.509C11.4841 25.8814 11.4841 27.2169 11.4841 28.6252ZM15.6177 40.3904C15.6256 40.4174 15.6335 40.4443 15.6424 40.4712C18.5767 40.4712 21.5099 40.4712 24.5026 40.4712C24.6688 39.1493 24.8316 37.8475 25.0079 36.438C21.794 37.7914 18.7059 39.0909 15.6177 40.3904ZM11.4909 20.616C15.2415 20.616 18.9395 20.616 22.7126 20.616C22.5677 20.294 22.4218 20.0359 22.3353 19.7598C22.1691 19.2267 21.8311 19.1044 21.2898 19.11C18.232 19.1392 15.173 19.1246 12.1141 19.1246C11.9153 19.1246 11.7154 19.1246 11.492 19.1246C11.4909 19.6521 11.4909 20.111 11.4909 20.616ZM41.8984 47.3874C41.5873 45.4707 39.8254 44.2216 37.7389 44.4012C36.1904 44.5347 34.6048 46.0351 34.6036 47.3874C37.0214 47.3874 39.4391 47.3874 41.8984 47.3874ZM3.98498 47.3874C6.44314 47.3874 8.86312 47.3874 11.2853 47.3874C11.1124 45.7636 9.48973 44.4068 7.71209 44.3844C5.86482 44.3619 4.20732 45.6738 3.98498 47.3874ZM11.4864 34.3518C16.0568 34.3518 20.5779 34.3518 25.1112 34.3518C25.1112 34.1027 25.1112 33.9052 25.1112 33.6852C20.5599 33.6852 16.0332 33.6852 11.4864 33.6852C11.4864 33.9142 11.4864 34.1139 11.4864 34.3518ZM29.1865 47.4053C30.2117 47.4053 31.1999 47.3739 32.1848 47.4177C32.7171 47.4413 32.9315 47.2931 33.0921 46.7545C33.3145 46.0082 33.721 45.318 34.0489 44.6043C32.0657 43.7806 29.6806 45.1003 29.1865 47.4053ZM11.4807 22.8627C15.5402 22.8627 19.5447 22.8627 23.5526 22.8627C23.5065 22.3656 23.2977 22.1972 22.8227 22.1995C19.2247 22.2197 15.6267 22.2096 12.0287 22.2118C11.8502 22.2118 11.6705 22.2298 11.4796 22.2399C11.4807 22.4755 11.4807 22.6573 11.4807 22.8627ZM11.4864 17.512C14.6632 17.512 17.8434 17.512 21.0371 17.512C20.9001 16.9958 20.6093 16.8331 20.0961 16.8387C17.4313 16.8645 14.7665 16.851 12.1029 16.851C11.9041 16.851 11.7053 16.851 11.4864 16.851C11.4864 17.0979 11.4864 17.2797 11.4864 17.512ZM6.85302 16.8364C5.89177 16.9576 4.87212 16.529 4.09166 17.5131C5.07313 17.5131 5.96364 17.5131 6.85302 17.5131C6.85302 17.282 6.85302 17.1013 6.85302 16.8364ZM25.9984 16.832C25.958 16.8802 25.9175 16.9285 25.8771 16.9767C26.0444 17.1697 26.1983 17.5154 26.3802 17.53C27.1427 17.5928 27.9142 17.5569 28.8035 17.5569C27.958 16.5009 26.9069 16.9823 25.9984 16.832Z" fill="white"/>
</svg>
