<svg width="44" height="49" viewBox="0 0 44 49" fill="none" xmlns="http://www.w3.org/2000/svg">
<path d="M42.4046 0C42.8576 0.3065 42.9244 0.4855 42.7912 1.0275C42.2938 3.047 41.7945 5.066 41.3026 7.087C41.2093 7.471 41.0162 7.772 40.6884 7.9915C40.4191 8.172 40.1532 8.3575 39.8902 8.5475C39.6089 8.751 39.3021 8.8005 38.9678 8.7285C37.9302 8.504 36.892 8.281 35.8244 8.051C35.7386 8.514 35.6543 8.9615 35.573 9.4095C35.4672 9.991 35.3674 10.573 35.2592 11.154C35.1469 11.758 34.7832 11.986 34.1961 11.8205C33.2612 11.5565 32.3278 11.2875 31.3934 11.0215C31.2831 10.99 31.1709 10.963 30.9863 10.915C30.9863 11.4725 30.9873 11.993 30.9858 12.5135C30.9848 13.0135 30.9848 13.5135 30.9783 14.013C30.9703 14.644 30.6465 14.889 30.0409 14.73C29.0851 14.4785 28.1292 14.228 27.1729 13.978C27.111 13.962 27.0471 13.9535 26.9628 13.9375C26.8531 14.619 26.7458 15.283 26.6396 15.947C26.5263 16.654 26.4201 17.3625 26.2953 18.0675C26.2769 18.1735 26.1981 18.2955 26.1098 18.3585C25.1484 19.044 24.1816 19.7215 23.2113 20.3945C23.0861 20.4815 23.0392 20.5655 23.0596 20.7215C23.4113 23.39 22.9419 25.908 21.546 28.208C19.6293 31.3665 16.8127 33.1925 13.1429 33.626C11.0372 33.8745 9.0232 33.4785 7.11399 32.55C6.98628 32.488 6.91594 32.419 6.9329 32.268C6.98678 31.7845 7.03367 31.3 7.08755 30.774C8.11624 31.377 9.13894 31.7885 10.237 31.98C13.315 32.5165 16.0519 31.7615 18.3692 29.6665C20.6351 27.618 21.6682 25.0065 21.6298 21.962C21.6248 21.58 21.5814 21.197 21.5271 20.818C21.4293 20.139 21.6533 19.608 22.21 19.216C23.0332 18.637 23.8613 18.0655 24.6785 17.4785C24.7782 17.407 24.8666 17.266 24.887 17.145C25.0826 15.9875 25.2557 14.8265 25.4482 13.669C25.5984 12.7665 26.447 12.2105 27.3365 12.428C27.9656 12.582 28.5902 12.7545 29.2173 12.9175C29.2806 12.934 29.3455 12.945 29.4717 12.9715C29.4717 12.6525 29.4707 12.357 29.4722 12.061C29.4742 11.678 29.4767 11.2945 29.4812 10.9115C29.4931 9.8835 30.4196 9.1655 31.4108 9.43C32.1407 9.6245 32.8651 9.842 33.5919 10.0485C33.6777 10.073 33.7645 10.092 33.8773 10.12C33.9776 9.5765 34.0738 9.055 34.1701 8.534C34.2215 8.2555 34.2659 7.976 34.3253 7.6995C34.4929 6.9195 35.2647 6.3825 36.0459 6.534C36.9913 6.7175 37.9317 6.9295 38.872 7.1375C39.0546 7.178 39.1923 7.142 39.3569 7.046C39.6987 6.847 39.8558 6.5695 39.9441 6.1865C40.2864 4.703 40.6615 3.227 41.0242 1.748C41.0377 1.6925 41.0456 1.636 41.0626 1.545C40.9658 1.545 40.886 1.545 40.8067 1.545C39.4348 1.545 38.0629 1.5335 36.6914 1.556C36.4425 1.56 36.1576 1.6475 35.9541 1.7895C30.2489 5.776 24.5513 9.773 18.8551 13.773C18.2115 14.225 17.5829 14.25 16.906 13.84C12.5637 11.209 6.94138 12.458 4.09129 16.6755C2.94438 18.373 2.37017 20.252 2.3577 22.2935C2.34772 23.9625 2.74732 25.543 3.53904 27.016C3.61088 27.149 3.60788 27.249 3.54502 27.3835C3.32053 27.8655 3.1125 28.3545 2.88451 28.872C2.83811 28.8145 2.78523 28.759 2.74383 28.696C1.59142 26.948 0.941881 25.0295 0.840609 22.9355C0.701921 20.061 1.48715 17.4615 3.26715 15.1995C5.08905 12.8845 7.47019 11.4815 10.3891 11.0455C12.9748 10.659 15.3954 11.169 17.6488 12.486C17.789 12.568 17.8773 12.573 18.018 12.474C22.1876 9.542 26.3617 6.6165 30.5353 3.6905C32.0808 2.607 33.6199 1.5135 35.1788 0.4495C35.4862 0.2405 35.8703 0.147 36.2185 0C38.2804 0 40.3427 0 42.4046 0Z" fill="white"/>
<path d="M0 38.05C0.0424046 37.874 0.0828137 37.6975 0.127214 37.522C0.253929 37.024 0.467947 36.5685 0.77326 36.154C1.32502 35.405 1.87079 34.651 2.45198 33.8545C2.52282 34.214 2.58319 34.526 2.64655 34.837C2.6665 34.9345 2.67648 35.0395 2.72038 35.1265C2.97381 35.628 2.86256 36.051 2.48291 36.442C2.32776 36.6015 2.22849 36.8145 2.07932 36.9805C1.36892 37.7715 1.35695 39.4 2.15016 40.358C3.54053 42.037 4.85208 43.781 6.22499 45.475C7.28112 46.7775 8.68296 47.426 10.3522 47.4655C11.3994 47.49 12.447 47.468 13.4946 47.468C22.4989 47.468 31.5031 47.468 40.5069 47.4665C40.7558 47.4665 41.0107 47.476 41.2517 47.427C41.9741 47.28 42.459 46.664 42.459 45.9195C42.46 40.828 42.46 35.737 42.4585 30.6455C42.458 29.794 41.8329 29.1425 40.9828 29.1005C40.8167 29.0925 40.6505 29.0935 40.4839 29.0935C34.6889 29.093 28.894 29.093 23.099 29.093C23.0092 29.093 22.9189 29.093 22.7957 29.093C22.9878 28.7245 23.2028 28.3955 23.336 28.0355C23.4802 27.647 23.7007 27.5485 24.1088 27.5495C29.6872 27.566 35.2662 27.5605 40.8451 27.5605C42.4106 27.5605 43.5914 28.5045 43.9446 30.0375C43.9576 30.093 43.981 30.1455 44 30.1995C44 35.5995 44 40.9995 44 46.3995C43.9711 46.4825 43.9361 46.5645 43.9137 46.6495C43.6159 47.779 42.9035 48.514 41.8034 48.88C41.6722 48.9235 41.5385 48.96 41.4058 49C30.7962 49 20.1871 49 9.57745 49C9.51509 48.9825 9.45323 48.9605 9.38937 48.9485C7.70766 48.6245 6.2215 47.9205 5.12297 46.5725C3.67224 44.7925 2.2689 42.974 0.843103 41.174C0.47992 40.7155 0.245947 40.1975 0.108755 39.6325C0.0713395 39.4725 0.0364181 39.311 0 39.15C0 38.7835 0 38.4165 0 38.05Z" fill="white"/>
<path d="M7.71265 26.818C5.57047 28.8555 4.88052 32.171 5.81841 34.845C6.14118 34.845 6.45348 34.8305 6.76428 34.8475C8.57072 34.945 9.97406 36.423 9.99451 38.2415C10.015 40.048 8.65802 41.5535 6.86705 41.7125C5.38488 41.844 3.9995 41.031 3.40434 39.6805C2.80718 38.3265 3.14542 36.7185 4.24944 35.726C4.39212 35.598 4.4016 35.499 4.35021 35.323C3.31305 31.75 3.97805 28.562 6.52033 25.808C6.63258 25.6865 6.65952 25.604 6.58319 25.448C5.39187 22.9945 6.92841 20.2125 9.63382 19.9145C12.02 19.6515 14.1232 21.819 13.788 24.1945C13.3774 27.102 10.2514 28.503 7.81093 26.8735C7.78349 26.8555 7.75355 26.841 7.71265 26.818ZM12.2185 23.3455C12.1676 22.575 11.4892 21.8025 10.661 21.5435C9.77052 21.265 8.79571 21.571 8.19955 22.3155C7.67274 22.9735 7.54951 23.9955 7.92966 24.649C9.23173 23.817 10.6555 23.3715 12.2185 23.3455ZM7.62933 39.8385C6.53729 39.146 5.77551 38.162 5.113 37.0845C4.4904 37.708 4.49588 38.806 5.11649 39.5265C5.75954 40.274 6.85907 40.4095 7.62933 39.8385ZM8.41457 38.5455C8.67448 37.449 7.58344 36.255 6.51933 36.415C7.01422 37.2535 7.63981 37.961 8.41457 38.5455ZM9.04166 25.78C9.99202 26.3425 11.4877 25.867 11.9032 24.909C10.888 24.9755 9.94363 25.255 9.04166 25.78Z" fill="white"/>
<path d="M31.6797 39.8255C31.6797 38.464 31.6767 37.1815 31.6827 35.8995C31.6837 35.702 31.7012 35.498 31.7521 35.308C31.8364 34.993 32.0808 34.8305 32.4026 34.8325C32.7199 34.8345 32.9678 35.0075 33.0536 35.313C33.0955 35.463 33.1165 35.624 33.117 35.7805C33.121 37.671 33.12 39.5615 33.119 41.4525C33.119 41.5275 33.117 41.6025 33.108 41.6765C33.0656 42.023 32.9663 42.341 32.5872 42.451C32.1781 42.5695 31.795 42.4915 31.5281 42.1495C31.2427 41.7835 30.9923 41.388 30.7433 40.9955C30.0349 39.8795 29.3345 38.758 28.5947 37.5815C28.5847 37.707 28.5752 37.773 28.5752 37.839C28.5737 39.03 28.5772 40.221 28.5697 41.412C28.5682 41.6175 28.5478 41.8305 28.4884 42.0255C28.3901 42.349 28.1282 42.5105 27.8059 42.495C27.4772 42.479 27.2242 42.2745 27.1514 41.9455C27.1195 41.8005 27.1065 41.6485 27.106 41.4995C27.1025 39.667 27.1025 37.835 27.105 36.0025C27.105 35.8535 27.1185 35.7025 27.1444 35.5555C27.2048 35.214 27.4058 34.983 27.7351 34.8805C28.0604 34.779 28.3647 34.828 28.6071 35.0825C28.7149 35.1955 28.8022 35.3305 28.8865 35.463C29.772 36.8515 30.6545 38.2415 31.5385 39.631C31.568 39.6775 31.6029 39.72 31.6797 39.8255Z" fill="white"/>
<path d="M13.8219 39.2825C13.8219 40.0345 13.8239 40.775 13.8204 41.5155C13.8199 41.6475 13.8114 41.783 13.7815 41.911C13.6922 42.294 13.4318 42.4965 13.0526 42.4955C12.6745 42.4945 12.4091 42.2865 12.3273 41.905C12.2928 41.7435 12.2794 41.575 12.2789 41.4095C12.2754 39.6265 12.2764 37.843 12.2759 36.06C12.2759 36.01 12.2754 35.96 12.2774 35.91C12.3048 35.222 12.5607 34.955 13.2477 34.956C14.2699 34.9575 15.2951 34.936 16.3128 35.0075C17.8668 35.1165 18.6984 36.939 17.784 38.209C17.5904 38.478 17.2602 38.6545 16.9768 38.85C16.8451 38.941 16.674 38.975 16.4904 39.0465C16.6056 39.1495 16.7119 39.235 16.8077 39.3315C17.4383 39.969 17.8873 40.7225 18.1971 41.56C18.3213 41.8965 18.2335 42.1725 17.9771 42.3595C17.7186 42.548 17.2941 42.5525 17.0447 42.344C16.9134 42.234 16.7982 42.0945 16.7089 41.948C16.4056 41.451 16.1177 40.9445 15.8219 40.4425C15.7376 40.299 15.6518 40.156 15.558 40.019C15.0856 39.3285 14.6994 39.161 13.8219 39.2825ZM13.8304 38.0675C14.2584 38.0675 14.664 38.08 15.0686 38.063C15.3569 38.051 15.6513 38.029 15.9292 37.9575C16.3901 37.839 16.5937 37.5185 16.5627 37.047C16.5353 36.624 16.2504 36.277 15.8144 36.2475C15.1704 36.204 14.5223 36.2185 13.8758 36.21C13.8633 36.21 13.8508 36.229 13.8299 36.246C13.8304 36.837 13.8304 37.4345 13.8304 38.0675Z" fill="white"/>
<path d="M21.5046 36.2175C21.5046 36.782 21.5046 37.313 21.5046 37.8705C21.5994 37.875 21.6882 37.882 21.7765 37.8825C22.5827 37.8835 23.3894 37.882 24.1956 37.8835C24.3283 37.884 24.4625 37.8855 24.5937 37.9045C24.902 37.949 25.093 38.178 25.0955 38.491C25.098 38.8255 24.9149 39.0575 24.5967 39.103C24.4495 39.124 24.2983 39.124 24.1492 39.124C23.2766 39.126 22.4046 39.125 21.5131 39.125C21.5131 39.777 21.5131 40.413 21.5131 41.0795C21.5999 41.0795 21.6812 41.0795 21.762 41.0795C22.7598 41.079 23.757 41.079 24.7548 41.077C25.2128 41.076 25.4827 41.305 25.4906 41.708C25.4976 42.0575 25.3021 42.2965 24.9573 42.351C24.8675 42.365 24.7753 42.367 24.684 42.367C23.4288 42.368 22.1736 42.3695 20.9179 42.367C20.222 42.3655 19.9556 42.116 19.9521 41.425C19.9431 39.592 19.9431 37.759 19.9501 35.926C19.9526 35.22 20.2195 34.957 20.9199 34.9535C22.1502 34.947 23.3804 34.9475 24.6111 34.954C25.1654 34.957 25.4622 35.2745 25.3604 35.7285C25.3001 35.998 25.1245 36.164 24.8496 36.2005C24.7428 36.2145 24.6341 36.217 24.5263 36.217C23.6119 36.218 22.6974 36.2175 21.783 36.2175C21.6937 36.2175 21.6044 36.2175 21.5046 36.2175Z" fill="white"/>
<path d="M38.2724 36.296C38.2724 36.433 38.2724 36.5235 38.2724 36.614C38.2724 38.2305 38.2739 39.847 38.2704 41.4635C38.2699 41.6205 38.2589 41.7815 38.223 41.933C38.1382 42.289 37.8773 42.49 37.5256 42.494C37.1584 42.498 36.8845 42.3005 36.7927 41.941C36.7543 41.79 36.7428 41.6285 36.7423 41.4715C36.7388 39.855 36.7403 38.2385 36.7403 36.622C36.7403 36.524 36.7403 36.4255 36.7403 36.2955C36.2425 36.2955 35.7715 36.298 35.3001 36.294C35.1769 36.293 35.0496 36.2865 34.9309 36.256C34.6201 36.177 34.4684 35.9635 34.4689 35.6325C34.4694 35.3005 34.6196 35.0805 34.9239 35.0015C35.0586 34.9665 35.2028 34.954 35.3425 34.9535C36.7892 34.95 38.236 34.95 39.6822 34.9535C39.8219 34.954 39.9656 34.968 40.1003 35.0035C40.4011 35.083 40.5617 35.315 40.5602 35.635C40.5587 35.945 40.4066 36.1745 40.1117 36.2465C39.9297 36.291 39.7346 36.291 39.5445 36.294C39.132 36.3005 38.7184 36.296 38.2724 36.296Z" fill="white"/>
</svg>
