<svg viewBox="0 0 1440 35" fill="none" xmlns="http://www.w3.org/2000/svg">
<path d="M54 13.699C43.3333 5.69897 28.6667 5.69897 18 13.699L1.36424e-10 27.199L0 34.199H1440V27.199L1422 13.699C1411.33 5.69897 1396.67 5.69897 1386 13.699C1375.33 21.699 1360.67 21.699 1350 13.699C1339.33 5.69897 1324.67 5.69897 1314 13.699C1303.33 21.699 1288.67 21.699 1278 13.699C1267.33 5.69897 1252.67 5.69897 1242 13.699C1231.33 21.699 1216.67 21.699 1206 13.699C1195.33 5.69897 1180.67 5.69897 1170 13.699C1159.33 21.699 1144.67 21.699 1134 13.699C1123.33 5.69897 1108.67 5.69897 1098 13.699C1087.33 21.699 1072.67 21.699 1062 13.699C1051.33 5.69897 1036.67 5.69897 1026 13.699C1015.33 21.699 1000.67 21.699 990 13.699C979.333 5.69897 964.667 5.69897 954 13.699C943.333 21.699 928.667 21.699 918 13.699C907.333 5.69897 892.667 5.69897 882 13.699C871.333 21.699 856.667 21.699 846 13.699C835.333 5.69897 820.667 5.69897 810 13.699C799.333 21.699 784.667 21.699 774 13.699C763.333 5.69897 748.667 5.69897 738 13.699C727.333 21.699 712.667 21.699 702 13.699C691.333 5.69897 676.667 5.69897 666 13.699C655.333 21.699 640.667 21.699 630 13.699C619.333 5.69897 604.667 5.69897 594 13.699C583.333 21.699 568.667 21.699 558 13.699C547.333 5.69897 532.667 5.69897 522 13.699C511.333 21.699 496.667 21.699 486 13.699C475.333 5.69897 460.667 5.69897 450 13.699C439.333 21.699 424.667 21.699 414 13.699C403.333 5.69897 388.667 5.69897 378 13.699C367.333 21.699 352.667 21.699 342 13.699C331.333 5.69897 316.667 5.69897 306 13.699C295.333 21.699 280.667 21.699 270 13.699C259.333 5.69897 244.667 5.69897 234 13.699C223.333 21.699 208.667 21.699 198 13.699C187.333 5.69897 172.667 5.69897 162 13.699C151.333 21.699 136.667 21.699 126 13.699C115.333 5.69897 100.667 5.69897 90 13.699C79.3333 21.699 64.6667 21.699 54 13.699Z" fill="#F5EFE7"/>
</svg>
