<svg width="32" height="32" viewBox="0 0 32 32" fill="none" xmlns="http://www.w3.org/2000/svg">
<rect width="32" height="32.008" fill="#1D6148"/>
<path d="M23.6694 8.13477L20.6469 8.05351C20.1431 8.039 19.7184 8.41916 19.6804 8.91829L19.1854 15.2358C19.1532 15.6392 18.6113 15.7582 18.4122 15.4041L14.6662 8.25665C14.4056 7.79234 13.9194 7.49054 13.3834 7.46442C12.6307 7.42669 9.78095 7.33964 9.49686 7.32222H9.48807C8.98431 7.2903 8.54499 7.66175 8.49813 8.16089C8.4337 8.83704 8.38391 9.46095 8.34583 10.0355C8.29311 10.8394 8.22575 11.7535 8.14082 12.7779C8.05295 13.8023 7.9768 14.8586 7.90651 15.9439C7.73078 18.129 7.53748 20.6073 7.32367 23.3816C7.27388 24.02 7.7835 24.5684 8.42784 24.5684L13.0524 24.583C13.6236 24.583 14.0892 24.139 14.1097 23.5731L14.3323 17.3339C14.347 16.9247 14.8888 16.7883 15.0997 17.1395L19.0243 24.1157C19.2293 24.4582 19.6042 24.67 20.0055 24.6729L22.3895 24.6874C23.0866 24.6903 23.6694 24.1564 23.7163 23.4657L24.6769 9.24041C24.7179 8.65421 24.2552 8.15508 23.6636 8.13767L23.6694 8.13477Z" fill="white"/>
</svg>
