<svg width="232" height="53" viewBox="0 0 232 53" fill="none" xmlns="http://www.w3.org/2000/svg">
<path d="M32.5459 19.1793L31.5219 46.3673C31.4815 47.4128 30.629 48.2532 29.5696 48.2733L26.0182 48.3533C24.4393 48.3883 22.9511 47.6029 22.1036 46.2773L14.5973 34.5567C14.1836 33.9114 13.1797 34.2015 13.1747 34.9619L13.1091 46.5274C13.1041 47.6329 12.2112 48.5384 11.0963 48.5684L2.72229 48.7885C1.18368 48.8285 -0.0724199 47.5629 0.003249 46.0372C0.2353 41.0948 0.447173 36.6627 0.648957 32.7358C0.719581 30.7048 0.805339 28.7289 0.906231 26.813C1.00712 24.897 1.08784 23.1862 1.13828 21.6805C1.17359 20.605 1.23413 19.4344 1.31484 18.1688C1.37538 17.2334 2.17242 16.518 3.11576 16.548H3.13594C3.66562 16.568 4.27602 16.5881 4.95704 16.6081C5.63806 16.6281 6.32413 16.6181 7.01019 16.563C8.13009 16.548 9.35593 16.553 10.6978 16.5831C11.8026 16.6081 12.8165 17.1983 13.3815 18.1388L21.1956 31.17C21.584 31.8204 22.5929 31.5702 22.6283 30.8149L23.1983 19.0492C23.2437 18.0888 24.0407 17.3334 25.0143 17.3284L30.745 17.3134C31.7741 17.3134 32.5964 18.1538 32.556 19.1743L32.5459 19.1793Z" fill="white"/>
<path fill-rule="evenodd" clip-rule="evenodd" d="M66.0269 44.8866C66.1732 47.0026 64.5438 48.8285 62.4099 48.9436L58.1321 49.1737C56.7852 49.2437 55.63 48.2332 55.5341 46.9026C55.4837 46.1672 54.5807 45.8321 54.0611 46.3573C53.3902 47.0327 52.5931 47.5679 51.6649 47.9531C50.0305 48.6284 48.3052 48.9336 46.4841 48.8585C44.663 48.7835 42.8974 48.3333 41.1873 47.5029C39.4772 46.6775 38.0546 45.5469 36.9196 44.1163C35.6282 42.4605 34.8109 40.4845 34.473 38.1884C34.1299 35.8923 34.2258 33.6162 34.7555 31.3551C35.2851 29.0941 36.2739 27.0481 37.7166 25.2022C39.1594 23.3563 40.9805 22.0207 43.1799 21.1953C45.6871 20.2898 47.8664 20.0097 49.7278 20.3499C51.0344 20.585 52.1795 20.9451 53.1632 21.4254C53.6878 21.6805 54.2932 21.2803 54.2629 20.7C54.2427 20.2848 54.5555 19.9297 54.9691 19.8996L62.1426 19.3344C63.2978 19.2443 64.3067 20.1047 64.3874 21.2553L66.0269 44.9066V44.8866ZM54.6412 31.8454C54.6665 31.6053 54.5807 31.3551 54.3991 31.1951C53.5567 30.4297 52.6032 29.8594 51.5489 29.4842C50.3735 29.069 49.2334 28.939 48.1337 29.0891C47.034 29.2391 46.1007 29.7093 45.3441 30.4997C44.5823 31.2901 44.204 32.4407 44.204 33.9414C44.204 36.5026 44.6983 38.2735 45.682 39.2489C46.6708 40.2294 47.7907 40.5646 49.0417 40.2644C50.2928 39.9643 51.4884 39.0438 52.6285 37.4981C53.708 36.0374 54.3789 34.1515 54.6412 31.8404V31.8454Z" fill="white"/>
<path d="M99.8004 23.9666C99.7147 23.7465 99.7349 23.5014 99.8559 23.3013L105.531 13.7867C106.031 12.9513 105.743 11.8758 104.895 11.3906L100.058 8.62424C98.9681 7.99894 97.5758 8.35411 96.925 9.42462L86.0186 27.2982C85.605 27.9735 84.5557 27.6584 84.591 26.868L85.2115 12.8413C85.267 11.5356 84.2328 10.4401 82.9162 10.4151C81.4583 10.3851 80.1164 10.3401 78.8856 10.29C77.3066 10.22 75.8386 10.175 74.4867 10.155H74.4514C73.4778 10.14 72.6454 10.9203 72.595 11.8858C72.5193 13.4115 72.4386 14.8172 72.3579 16.1078C72.2368 17.9137 72.0905 19.9797 71.9139 22.3058C71.8309 23.4027 71.7467 24.5073 71.6619 25.6198C71.5665 26.8714 71.4703 28.1329 71.3742 29.4042C70.9605 34.3016 70.5267 39.7792 70.0626 45.8421C69.9365 47.5129 71.2178 48.9636 72.9077 49.0536L79.9197 49.4238C81.0093 49.4838 82.0536 48.9736 82.6741 48.0832L91.0481 36.1074C91.4012 35.6022 92.1781 35.6972 92.4 36.2675L95.563 44.3514C96.0422 45.5019 96.4862 46.6525 96.8948 47.798C97.2983 48.9436 97.6716 49.9441 98.0147 50.7845C98.1458 51.1146 98.2921 51.4548 98.4485 51.8049C98.8622 52.7454 99.9316 53.2206 100.91 52.9005L100.946 52.8905C102.06 52.5253 103.276 52.1451 104.588 51.7499C105.355 51.5198 106.192 51.2747 107.09 51.0146C108.659 50.5593 109.506 48.8685 108.916 47.3578L99.8105 23.9666H99.8004Z" fill="white"/>
<path fill-rule="evenodd" clip-rule="evenodd" d="M142.801 28.3287C142.876 30.0995 142.821 31.8704 142.629 33.6362C142.437 35.4071 142.115 37.1179 141.66 38.7737C141.206 40.4295 140.596 41.8602 139.839 43.0658C138.699 45.0267 137.05 46.2273 134.886 46.6775C132.721 47.1277 130.31 47.3528 127.657 47.3528C125.911 47.3528 124.166 47.2027 122.42 46.9026C120.675 46.6025 119.041 46.1672 117.522 45.602C116.004 45.0367 114.677 44.3814 113.537 43.626C112.397 42.8757 111.6 42.0453 111.146 41.1398C110.465 39.7842 109.95 38.2434 109.607 36.5126C109.264 34.7818 109.093 32.9959 109.093 31.15C109.093 29.3042 109.264 27.4983 109.607 25.7324C109.95 23.9666 110.46 22.3658 111.146 20.9351C111.6 19.9597 112.417 19.0893 113.592 18.3389C114.768 17.5885 116.135 16.9682 117.694 16.478C119.247 15.9878 120.902 15.6326 122.647 15.4075C124.393 15.1824 126.103 15.0673 127.773 15.0673C131.339 15.0673 134.492 15.7827 137.226 17.2134C139.96 18.644 141.63 20.7551 142.236 23.5364C142.538 24.9671 142.73 26.5678 142.806 28.3337L142.801 28.3287ZM132.721 28.894C132.378 27.7284 131.813 26.7479 131.016 25.9576C130.219 25.1672 129.271 24.6569 128.171 24.4318C127.072 24.2067 125.836 24.3968 124.469 24.9971C123.787 25.2972 123.157 26.1076 122.592 27.4233C122.022 28.7389 121.664 30.1546 121.512 31.6553C121.361 33.161 121.472 34.5517 121.855 35.8323C122.234 37.1129 123.031 37.8633 124.247 38.0884C127.359 38.6937 129.483 38.5036 130.623 37.5231C131.763 36.5476 132.52 34.8518 132.903 32.4407C133.13 31.2351 133.075 30.0495 132.732 28.884L132.721 28.894Z" fill="white"/>
<path d="M161.713 13.7467C161.688 13.3215 162.015 12.9563 162.444 12.9363L169.991 12.5611C170.425 12.5411 170.753 12.1709 170.722 11.7457L170.379 6.97845C170.349 6.55324 169.971 6.23309 169.542 6.27311C169.331 6.29082 169.118 6.30917 168.904 6.32769C168.512 6.36147 168.113 6.39588 167.706 6.42818C166.868 6.50322 165.9 6.55825 164.8 6.59827C163.932 6.62828 163.029 6.6683 162.096 6.72333C161.672 6.74834 161.309 6.43319 161.279 6.01299L160.986 1.6609C160.921 0.720447 160.129 -0.00990323 159.18 0.000101564C157.586 0.0151088 156.138 0.0501256 154.837 0.105152C153.319 0.180188 151.931 0.235214 150.68 0.275234H150.645C149.681 0.305248 148.915 1.09062 148.915 2.04608V6.72333C148.915 7.12852 148.597 7.46368 148.188 7.48869C146.064 7.61876 144.223 7.7138 142.649 7.78383C141.847 7.81885 141.227 7.83886 140.793 7.83886C140.369 7.83886 140.031 8.18403 140.031 8.60423V8.62924C140.031 9.26455 140.071 9.98989 140.142 10.8053V10.8553C140.142 11.5556 140.167 12.346 140.213 13.2214C140.233 13.6466 140.596 13.9718 141.025 13.9518L148.102 13.5816C148.541 13.5566 148.915 13.9018 148.915 14.342C148.915 17.7236 148.894 21.3153 148.859 25.1121C148.819 29.2141 148.804 33.0359 148.804 36.5726V46.0122C148.804 47.5179 150.06 48.7285 151.578 48.6835L161.117 48.3983C162.606 48.3533 163.761 47.0977 163.67 45.622L161.718 13.7417L161.713 13.7467Z" fill="white"/>
<path d="M200.753 19.7446L195.118 19.5295C194.18 19.4945 193.378 20.1948 193.292 21.1202L192.238 32.9059C192.172 33.6612 191.153 33.8663 190.79 33.201L183.44 19.7196C182.966 18.8441 182.063 18.2739 181.064 18.2138C179.661 18.1238 178.38 18.0638 177.22 18.0338C176.534 18.0588 175.848 18.0438 175.167 17.9937C174.486 17.9437 173.88 17.8987 173.351 17.8587H173.33C172.392 17.7886 171.56 18.474 171.464 19.4044C171.328 20.665 171.222 21.8306 171.141 22.9061C171.03 24.4068 170.879 26.1126 170.697 28.0235C170.516 29.9345 170.349 31.9054 170.193 33.9314C169.819 38.0083 169.406 42.6356 168.947 47.808C168.841 48.9986 169.779 50.0341 170.985 50.0491L180.075 50.1792C181.139 50.1942 182.022 49.3688 182.073 48.3183L182.623 36.6677C182.658 35.9073 183.672 35.6622 184.06 36.3225L191.748 49.4838C192.127 50.1291 192.818 50.5343 193.569 50.5443L198.019 50.6194C199.32 50.6444 200.42 49.6539 200.521 48.3683L202.619 21.8206C202.705 20.73 201.858 19.7846 200.753 19.7396V19.7446Z" fill="white"/>
<path fill-rule="evenodd" clip-rule="evenodd" d="M231.389 43.0157C230.405 43.8461 229.351 44.5765 228.226 45.2118C226.909 45.9171 225.315 46.5074 223.448 46.9826C221.582 47.4629 219.559 47.4429 217.39 46.9276C215.14 46.4174 213.268 45.577 211.775 44.4064C210.277 43.2358 209.107 41.8902 208.269 40.3645C207.427 38.8437 206.902 37.1829 206.69 35.3871C206.478 33.5912 206.494 31.8154 206.741 30.0595C206.988 28.3037 207.477 26.4928 208.209 24.6269C208.94 22.761 209.939 21.1002 211.2 19.6445C212.461 18.1888 213.99 17.0783 215.801 16.2979C217.607 15.5225 219.7 15.2674 222.081 15.5426C224.311 15.8277 226.087 16.433 227.414 17.3534C228.74 18.2739 229.734 19.3494 230.4 20.585C231.066 21.8206 231.505 23.0912 231.717 24.3918C231.807 24.9471 231.878 25.4823 231.933 25.9876C232.05 27.1131 231.338 28.1586 230.254 28.5088L218.802 32.1855C218.152 32.3956 217.738 33.0209 217.788 33.6963C217.849 34.4666 218.005 35.192 218.258 35.8773C218.641 36.9078 219.267 37.6532 220.139 38.1134C221.249 38.7087 222.329 38.8938 223.378 38.6636C224.427 38.4335 225.35 38.0634 226.147 37.5481C226.495 37.328 226.838 37.0879 227.187 36.8278C228.14 36.1024 229.532 36.4376 230.077 37.4981L231.802 40.8497C232.181 41.58 232.004 42.4805 231.374 43.0107L231.389 43.0157ZM217.405 26.4978C217.506 26.4528 217.778 26.3577 218.227 26.2077C218.888 25.9876 219.61 25.7074 220.396 25.3773C221.047 25.1021 221.905 24.722 222.969 24.2367C223.393 24.0416 223.63 23.5514 223.489 23.0962C223.433 22.9211 223.368 22.766 223.292 22.631C223.116 22.3258 222.899 22.0707 222.646 21.8706C222.394 21.6705 221.996 21.6005 221.451 21.6705C220.467 21.8856 219.705 22.2358 219.171 22.726C218.631 23.2162 218.237 23.7315 217.985 24.2767C217.728 24.822 217.587 25.3323 217.551 25.8025C217.521 26.2177 217.466 26.4428 217.395 26.5028L217.405 26.4978Z" fill="white"/>
<path d="M71.7979 10.8003C71.7726 10.8154 71.7777 10.8254 71.7979 10.8354V10.8003Z" fill="white"/>
<path d="M63.2322 6.94348L63.8224 12.296L63.8173 12.291C63.9384 13.3716 63.1111 14.322 62.0215 14.372L41.9692 15.2525C40.7989 15.3025 39.7597 14.5271 39.4822 13.4016L39.0787 11.7558C38.8365 10.7603 39.4671 9.75483 40.4811 9.53472L60.7099 5.14762C61.9206 4.88249 63.096 5.71789 63.2322 6.94348Z" fill="white"/>
</svg>
