<svg width="184" height="42" viewBox="0 0 184 42" fill="none" xmlns="http://www.w3.org/2000/svg">
<path d="M58.493 7.69425V7.6665C58.473 7.67839 58.477 7.68632 58.493 7.69425Z" fill="white"/>
<path d="M54.272 34.6784L52.9718 15.9358C52.9077 15.028 52.1076 14.3422 51.1914 14.4136L45.5021 14.8615C45.17 14.8893 44.922 15.1707 44.942 15.4958C44.966 15.9556 44.4859 16.2728 44.0698 16.0706C43.2856 15.69 42.3774 15.4086 41.3452 15.2183C39.8689 14.9487 38.1405 15.1747 36.152 15.8883C34.4036 16.5463 32.9593 17.6047 31.8191 19.0635C30.6748 20.5263 29.8906 22.1516 29.4706 23.9395C29.0505 25.7273 28.9744 27.535 29.2465 29.3545C29.5186 31.1741 30.1627 32.7399 31.1869 34.0521C32.0911 35.1858 33.2194 36.0817 34.5717 36.7358C35.928 37.3938 37.3243 37.7506 38.7726 37.8101C40.2169 37.8695 41.5852 37.6317 42.8815 37.0926C43.6177 36.7873 44.2498 36.3671 44.7819 35.828C45.194 35.4118 45.9102 35.6813 45.9502 36.2601C46.0262 37.3185 46.9424 38.1193 48.0107 38.0598L51.4034 37.8775C53.0958 37.7863 54.3881 36.3394 54.272 34.6625V34.6784ZM43.6457 28.8233C42.7415 30.0482 41.7933 30.7777 40.8011 31.0155C39.8088 31.2534 38.9166 30.9878 38.1365 30.2108C37.3523 29.4378 36.9642 28.0345 36.9642 26.0048C36.9642 24.8116 37.2643 23.9038 37.8684 23.2775C38.4685 22.6511 39.2087 22.2785 40.0809 22.1596C40.9531 22.0406 41.8573 22.1437 42.7895 22.4727C43.6297 22.7661 44.3818 23.218 45.05 23.8285C45.194 23.9593 45.262 24.1535 45.242 24.3438C45.034 26.1713 44.5019 27.6658 43.6457 28.8273V28.8233Z" fill="white"/>
<path d="M80.5058 18.1002C80.4378 17.9258 80.4538 17.7315 80.5499 17.5729L85.0508 10.0331C85.4469 9.37108 85.2189 8.51879 84.5467 8.13427L80.7099 5.94208C79.8457 5.44656 78.7414 5.72802 78.2253 6.57635L69.5754 20.7403C69.2473 21.2755 68.4152 21.0257 68.4432 20.3994L68.9353 9.28387C68.9793 8.24923 68.1591 7.38107 67.1149 7.36125C65.9586 7.33747 64.8944 7.30179 63.9182 7.26215C62.6659 7.20665 61.1256 7.17097 60.0533 7.15512H60.0253C59.2531 7.14322 58.593 7.76163 58.553 8.52672C58.493 9.73579 58.3809 30.6309 58.0129 35.4355C57.9128 36.7595 58.9291 37.9091 60.2694 37.9805L64.7343 38.2738C65.5985 38.3214 66.4267 37.917 66.9188 37.2114L72.8681 27.7133C73.2042 27.1742 74.0124 27.2336 74.2645 27.8124C75.4367 30.508 77.9453 36.2917 78.1933 36.9894C78.5134 37.8972 78.8095 38.6901 79.0815 39.356C79.1895 39.6177 79.3016 39.8872 79.4256 40.1687C79.7537 40.91 80.5979 41.2866 81.378 41.0329L81.406 41.0249C82.2902 40.7356 83.2544 40.4343 84.2947 40.1211C84.9028 39.9388 85.567 39.7445 86.2791 39.5384C87.5234 39.1776 88.1955 37.8378 87.7274 36.6406L80.5058 18.1041V18.1002Z" fill="white"/>
<path d="M114.865 22.3856C114.805 20.9862 114.653 19.7177 114.413 18.5839C113.929 16.3759 112.605 14.707 110.441 13.5732C108.272 12.4395 105.775 11.8726 102.943 11.8726C101.619 11.8726 100.262 11.9638 98.8779 12.1422C97.4936 12.3206 96.1814 12.606 94.9491 12.9905C93.7128 13.379 92.6326 13.8706 91.6964 14.4652C90.7642 15.0638 90.116 15.7496 89.7559 16.5226C89.2158 17.6563 88.8077 18.9249 88.5357 20.3242C88.2636 21.7275 88.1276 23.1586 88.1276 24.6174C88.1276 26.0762 88.2636 27.4954 88.5357 28.867C88.8077 30.2386 89.2118 31.4635 89.7559 32.5338C90.116 33.2514 90.7482 33.9054 91.6524 34.504C92.5565 35.1026 93.6088 35.6219 94.813 36.0699C96.0173 36.5178 97.3096 36.8627 98.6979 37.1006C100.082 37.3384 101.467 37.4573 102.851 37.4573C104.959 37.4573 106.868 37.2789 108.584 36.9222C110.3 36.5654 111.609 35.61 112.513 34.06C113.113 33.1047 113.597 31.9709 113.957 30.6588C114.317 29.3467 114.573 27.9909 114.725 26.5876C114.873 25.1882 114.921 23.7849 114.861 22.3816L114.865 22.3856ZM107.008 25.6521C106.704 27.5628 106.104 28.9027 105.199 29.6796C104.295 30.4566 102.611 30.6033 100.142 30.1276C99.178 29.9492 98.5459 29.3546 98.2458 28.3398C97.9457 27.3249 97.8537 26.2229 97.9737 25.0297C98.0938 23.8365 98.3818 22.7186 98.8299 21.676C99.282 20.6334 99.7782 19.9912 100.318 19.7534C101.403 19.2777 102.379 19.127 103.255 19.3054C104.127 19.4838 104.879 19.8882 105.511 20.5145C106.144 21.1408 106.596 21.9178 106.864 22.8415C107.136 23.7651 107.18 24.7086 107 25.66L107.008 25.6521Z" fill="white"/>
<path d="M157.507 14.929L153.378 14.818C152.69 14.7981 152.11 15.3174 152.058 15.9993L151.382 24.6293C151.337 25.1803 150.597 25.3428 150.325 24.8592L145.208 15.0954C144.852 14.4612 144.188 14.0489 143.456 14.0132C142.428 13.9617 138.535 13.8428 138.147 13.819H138.135C137.446 13.7754 136.846 14.2828 136.782 14.9646C136.694 15.8883 136.626 16.7406 136.574 17.5255C136.502 18.6236 136.41 19.8723 136.294 21.2716C136.174 22.671 136.07 24.1139 135.974 25.5965C135.734 28.5815 135.47 31.9669 135.178 35.7567C135.11 36.6288 135.806 37.378 136.686 37.378L143.004 37.3978C143.784 37.3978 144.42 36.7913 144.448 36.0183L144.752 27.4954C144.772 26.9364 145.512 26.7501 145.8 27.2298L151.161 36.7596C151.442 37.2274 151.954 37.5168 152.502 37.5207L155.758 37.5405C156.711 37.5445 157.507 36.8151 157.571 35.8716L158.883 16.4393C158.939 15.6385 158.307 14.9567 157.499 14.9329L157.507 14.929Z" fill="white"/>
<path d="M25.5337 14.929L21.4048 14.818C20.7167 14.7981 20.1365 15.3174 20.0845 15.9993L19.4084 24.6293C19.3644 25.1803 18.6242 25.3428 18.3521 24.8592L13.235 15.0954C12.8789 14.4612 12.2148 14.0489 11.4826 14.0132C10.4544 13.9617 6.56153 13.8428 6.17344 13.819H6.16144C5.47329 13.7754 4.87316 14.2828 4.80914 14.9646C4.72112 15.8883 4.65311 16.7406 4.6011 17.5255C4.52908 18.6236 4.43706 19.8723 4.32103 21.2716C4.20101 22.671 4.09699 24.1139 4.00096 25.5965C3.76091 28.5815 3.49685 31.9669 3.20479 35.7567C3.13677 36.6288 3.83293 37.378 4.71312 37.378L11.0305 37.3978C11.8107 37.3978 12.4468 36.7913 12.4748 36.0183L12.7789 27.4954C12.7989 26.9364 13.5391 26.7501 13.8271 27.2298L19.1883 36.7596C19.4684 37.2274 19.9805 37.5168 20.5286 37.5207L23.7853 37.5405C24.7376 37.5445 25.5337 36.8151 25.5977 35.8716L26.91 16.4393C26.966 15.6385 26.3339 14.9567 25.5257 14.9329L25.5337 14.929Z" fill="white"/>
<path d="M180.816 32.4982L179.448 29.8422C179.012 29.0018 177.911 28.7362 177.155 29.311C176.883 29.5171 176.607 29.7074 176.331 29.8818C175.695 30.2901 174.967 30.5835 174.135 30.7658C173.302 30.9482 172.446 30.8015 171.566 30.3298C170.874 29.9651 170.374 29.3744 170.074 28.5578C169.87 28.0147 169.746 27.4399 169.702 26.8294C169.662 26.2942 169.99 25.7987 170.506 25.6322L179.588 22.7186C180.448 22.4411 181.012 21.6126 180.92 20.7206C180.88 20.3163 180.82 19.8961 180.748 19.4561C180.58 18.4214 180.232 17.4185 179.704 16.4393C179.176 15.4641 178.387 14.6079 177.335 13.8785C176.283 13.1491 174.875 12.6734 173.106 12.4434C171.218 12.2254 169.558 12.4276 168.125 13.042C166.693 13.6565 165.477 14.5405 164.476 15.6941C163.476 16.8476 162.688 18.1598 162.104 19.6424C161.52 21.121 161.132 22.556 160.94 23.9475C160.744 25.3389 160.732 26.7462 160.9 28.1693C161.068 29.5924 161.484 30.9085 162.152 32.1136C162.816 33.3187 163.744 34.3891 164.933 35.3167C166.121 36.2443 167.605 36.9103 169.386 37.3146C171.106 37.7229 172.706 37.7388 174.191 37.3582C175.671 36.9777 176.935 36.5099 177.979 35.9549C178.868 35.4515 179.704 34.8687 180.488 34.2146C180.988 33.7944 181.128 33.0809 180.828 32.5021L180.816 32.4982ZM169.51 20.57C169.538 20.1974 169.65 19.793 169.854 19.3609C170.054 18.9288 170.37 18.5205 170.794 18.132C171.218 17.7475 171.822 17.47 172.602 17.2956C173.03 17.2401 173.346 17.2956 173.55 17.4541C173.75 17.6167 173.923 17.8149 174.063 18.0567C174.123 18.1598 174.175 18.2827 174.219 18.4254C174.331 18.7861 174.143 19.1746 173.807 19.3292C172.962 19.7137 172.282 20.015 171.766 20.233C171.142 20.4947 170.57 20.7167 170.046 20.8911C169.686 21.01 169.47 21.0893 169.394 21.121C169.45 21.0734 169.494 20.895 169.518 20.566L169.51 20.57Z" fill="white"/>
<path d="M52.5237 8.85177L52.0556 4.61011C51.9476 3.63889 51.0154 2.97687 50.0552 3.18698L34.0116 6.66355C33.2074 6.83797 32.7073 7.63477 32.8994 8.42364L33.2194 9.72785C33.4395 10.6198 34.2637 11.2342 35.1919 11.1946L51.0954 10.4969C51.9596 10.4573 52.6157 9.70406 52.5197 8.8478L52.5237 8.85177Z" fill="white"/>
<path d="M135.354 0.824367L112.133 2.81438C110.953 3.01259 110.148 4.19787 110.348 5.43866L110.681 7.48417C110.909 8.88352 112.037 9.90231 113.381 9.92213L118.91 9.99348C119.334 9.99745 119.675 10.3423 119.671 10.7625C119.635 14.8337 119.506 25.7748 119.478 28.0304L119.39 35.5108C119.378 36.704 120.363 37.6753 121.567 37.6515L129.133 37.5088C130.313 37.485 131.241 36.5019 131.185 35.3324L129.977 10.9449C129.957 10.5049 130.313 10.1402 130.757 10.1441L135.858 10.2115C137.114 10.2274 138.135 9.1174 138.083 7.78941L138.099 3.19097C138.043 1.68459 136.762 0.578589 135.354 0.816439V0.824367Z" fill="white"/>
</svg>
