<svg width="128" height="129" viewBox="0 0 128 129" fill="none" xmlns="http://www.w3.org/2000/svg">
<path d="M55.7044 14.7424C59.4075 8.38469 68.5923 8.38467 72.2954 14.7424L82.5608 32.3671C83.9173 34.696 86.1903 36.3475 88.8245 36.9179L108.759 41.2346C115.95 42.7918 118.788 51.527 113.886 57.0135L100.296 72.2228C98.5 74.2326 97.6317 76.9048 97.9032 79.5863L99.9578 99.8787C100.699 107.199 93.2683 112.598 86.5355 109.631L67.8711 101.406C65.4047 100.319 62.5951 100.319 60.1287 101.406L41.4643 109.631C34.7315 112.598 27.3008 107.199 28.042 99.8787L30.0966 79.5863C30.3681 76.9048 29.4998 74.2326 27.704 72.2228L14.1142 57.0135C9.21193 51.527 12.0502 42.7918 19.2411 41.2346L39.1753 36.9179C41.8095 36.3475 44.0825 34.696 45.439 32.3671L55.7044 14.7424Z" fill="#FFC700"/>
<path d="M77.5211 79.7612H77.8211V79.713C77.9222 79.681 78.0175 79.6331 78.1031 79.5715C78.2732 79.4492 78.4023 79.2723 78.4664 79.0615L78.4671 79.0591C78.5433 78.801 78.5084 78.5354 78.3888 78.3144L78.387 78.3111C78.266 78.0941 78.0615 77.9186 77.8017 77.8412L74.0826 76.7405L74.0808 76.74C73.8242 76.6658 73.5572 76.6967 73.3326 76.8182C73.1131 76.937 72.934 77.1375 72.8549 77.4C72.6251 78.0775 73.2016 78.4954 73.5185 78.6196L74.5072 78.9123C74.2484 79.9851 73.6702 81.9111 72.5376 83.8053C70.9147 86.5221 68.1713 89.147 63.6016 89.147C62.5911 89.147 61.67 89.0186 60.8306 88.7893C57.8741 87.9816 55.931 85.9215 54.6657 83.8054C54.5974 83.691 54.5312 83.5766 54.4669 83.4623C53.6125 81.9422 53.105 80.437 52.823 79.4019C52.7749 79.2251 52.7333 79.062 52.6977 78.9148L53.6889 78.6215C53.9488 78.5447 54.1549 78.3715 54.2757 78.1489C54.396 77.9285 54.4306 77.6602 54.3522 77.4016C54.2735 77.1406 54.097 76.9396 53.8762 76.8201C53.6529 76.6993 53.3852 76.6654 53.1246 76.7424L51.314 77.2783C51.2808 77.2863 51.2482 77.296 51.2164 77.3072L49.4055 77.8431C49.1456 77.92 48.9395 78.0931 48.8187 78.3157C48.6983 78.5362 48.6638 78.8048 48.7424 79.0635C48.8064 79.2742 48.9356 79.4512 49.1057 79.5735C49.1913 79.635 49.2866 79.6829 49.3877 79.715C49.4888 79.747 49.6455 79.7631 49.6877 79.7631C49.7298 79.7631 49.7764 79.761 49.8274 79.7538C49.8804 79.7463 49.9273 79.7343 49.9664 79.7232L49.9914 79.7158L50.8165 79.4716C50.9074 79.8206 51.0271 80.241 51.1812 80.7118C51.5585 81.8644 52.1419 83.3198 53.0119 84.773C54.8999 87.9268 58.1669 91.1037 63.6048 91.1062C69.0427 91.1037 72.3033 87.9284 74.1913 84.773C75.4175 82.7238 76.075 80.6717 76.388 79.4689L77.2334 79.7191C77.2875 79.7366 77.3366 79.7458 77.3798 79.7519C77.4313 79.7592 77.4796 79.7612 77.5211 79.7612Z" fill="#2C2C2C"/>
<ellipse cx="11.907" cy="11.907" rx="11.907" ry="11.907" transform="matrix(-1 0 0 1 92.2793 46.1282)" fill="white"/>
<path fill-rule="evenodd" clip-rule="evenodd" d="M84.8376 69.0768C80.474 67.3104 77.3958 63.0324 77.3958 58.0354C77.3958 53.0384 80.474 48.7603 84.8376 46.994C89.2011 48.7603 92.2793 53.0384 92.2793 58.0354C92.2793 63.0324 89.2011 67.3104 84.8376 69.0768Z" fill="#2C2C2C"/>
<ellipse cx="11.907" cy="11.907" rx="11.907" ry="11.907" transform="matrix(-1 0 0 1 59.5352 46.1282)" fill="white"/>
<path fill-rule="evenodd" clip-rule="evenodd" d="M52.092 69.077C47.7281 67.3107 44.6498 63.0325 44.6498 58.0354C44.6498 53.0382 47.7281 48.7601 52.092 46.9938C56.4558 48.7601 59.5342 53.0382 59.5342 58.0354C59.5342 63.0325 56.4558 67.3107 52.092 69.077Z" fill="#2C2C2C"/>
</svg>
