<svg width="128" height="129" viewBox="0 0 128 129" fill="none" xmlns="http://www.w3.org/2000/svg">
<path d="M55.7044 14.7424C59.4075 8.38469 68.5923 8.38467 72.2954 14.7424L82.5608 32.3671C83.9173 34.696 86.1903 36.3475 88.8245 36.9179L108.759 41.2346C115.95 42.7918 118.788 51.527 113.886 57.0135L100.296 72.2228C98.5 74.2326 97.6317 76.9048 97.9032 79.5863L99.9578 99.8787C100.699 107.199 93.2683 112.598 86.5355 109.631L67.8711 101.406C65.4047 100.319 62.5951 100.319 60.1287 101.406L41.4643 109.631C34.7315 112.598 27.3008 107.199 28.042 99.8787L30.0966 79.5863C30.3681 76.9048 29.4998 74.2326 27.704 72.2228L14.1142 57.0135C9.21193 51.527 12.0502 42.7918 19.2411 41.2346L39.1753 36.9179C41.8095 36.3475 44.0825 34.696 45.439 32.3671L55.7044 14.7424Z" fill="#FFC700"/>
<path fill-rule="evenodd" clip-rule="evenodd" d="M83.2078 51.005C83.4697 51.2294 83.6848 51.5033 83.8407 51.8109C83.9967 52.1185 84.0906 52.4539 84.1169 52.7978C84.1432 53.1416 84.1015 53.4874 83.9942 53.8151C83.8868 54.1429 83.716 54.4463 83.4913 54.708L62.4913 79.208C62.2558 79.4827 61.9662 79.7057 61.6404 79.8631C61.3147 80.0206 60.9599 80.1089 60.5984 80.1227C60.2369 80.1365 59.8764 80.0755 59.5396 79.9434C59.2028 79.8112 58.897 79.6109 58.6413 79.355L46.3913 67.105C45.9134 66.6097 45.6491 65.9465 45.6554 65.2582C45.6617 64.57 45.9381 63.9117 46.425 63.4252C46.9119 62.9388 47.5704 62.663 48.2587 62.6574C48.947 62.6517 49.6099 62.9166 50.1048 63.395L60.3528 73.6395L79.5083 51.292C79.9615 50.7641 80.6057 50.4378 81.2994 50.3846C81.9931 50.3315 82.6795 50.5524 83.2078 51.005Z" fill="white"/>
</svg>
