<svg width="344" height="89" viewBox="0 0 344 89" fill="none" xmlns="http://www.w3.org/2000/svg">
<g clip-path="url(#clip0_33_312)">
<path d="M144.899 87.1229L140.056 76.1191H140.968L145.277 86.1718L149.603 76.1191H150.469L145.625 87.1229H144.899Z" fill="white"/>
<path d="M155.417 87.042V76.1191H156.235V87.042H155.417Z" fill="white"/>
<path d="M162.128 87.042V76.1191H166.124C167.349 76.1191 168.337 76.4189 169.086 77.0183C169.835 77.6178 170.212 78.4419 170.212 79.491C170.212 80.5919 169.8 81.4509 168.981 82.0561C168.157 82.6672 167.14 82.9669 165.921 82.9669H162.947V87.042H162.128ZM162.947 82.2234H165.967C166.995 82.2234 167.826 81.9755 168.453 81.4799C169.08 80.9839 169.394 80.327 169.394 79.5084C169.394 78.6669 169.092 78.0155 168.488 77.5601C167.884 77.1047 167.076 76.8743 166.06 76.8743H162.947V82.2234Z" fill="white"/>
<path d="M187.368 87.2327C185.806 87.2327 184.505 86.691 183.46 85.6013C182.414 84.5119 181.897 83.1748 181.897 81.5839C181.897 80.0218 182.42 78.6903 183.471 77.5894C184.517 76.4884 185.829 75.9351 187.403 75.9351C188.303 75.9351 189.07 76.0849 189.708 76.3905C190.347 76.696 190.986 77.1398 191.637 77.7335L191.102 78.281C189.993 77.2088 188.756 76.6728 187.391 76.6728C186.073 76.6728 184.97 77.1456 184.081 78.0851C183.193 79.0246 182.751 80.1948 182.751 81.5897C182.751 82.973 183.198 84.1374 184.093 85.0827C184.987 86.028 186.091 86.5005 187.403 86.5005C188.17 86.5005 188.843 86.3622 189.43 86.0799C190.016 85.7973 190.603 85.3709 191.19 84.8001L191.741 85.3306C191.102 85.9529 190.44 86.4257 189.761 86.7484C189.075 87.0713 188.28 87.2327 187.368 87.2327Z" fill="white"/>
<path d="M196.503 87.042V76.1191H197.322V86.2927H203.786V87.042H196.503Z" fill="white"/>
<path d="M212.775 87.2151C211.422 87.2151 210.33 86.8058 209.505 85.9813C208.675 85.1572 208.263 83.9986 208.263 82.4999V76.1191H209.082V82.4251C209.082 83.7047 209.413 84.7018 210.075 85.4109C210.737 86.1257 211.648 86.4773 212.81 86.4773C213.954 86.4773 214.848 86.137 215.499 85.457C216.149 84.7769 216.474 83.791 216.474 82.4999V76.1191H217.293V82.4077C217.293 83.9351 216.887 85.1227 216.068 85.9585C215.243 86.7942 214.146 87.2151 212.775 87.2151Z" fill="white"/>
<path d="M222.898 87.042V76.1191H227.44C228.52 76.1191 229.385 76.367 230.036 76.8627C230.686 77.3584 231.011 78.0155 231.011 78.8338C231.011 80.0618 230.39 80.9265 229.142 81.4222C230.797 81.8486 231.627 82.7304 231.627 84.0621C231.627 84.9671 231.267 85.6874 230.553 86.2292C229.838 86.7713 228.88 87.042 227.684 87.042H222.898ZM223.717 81.1627H227.347C228.195 81.1627 228.88 80.9668 229.397 80.5691C229.914 80.1713 230.175 79.6122 230.175 78.8857C230.175 78.275 229.931 77.7848 229.449 77.4219C228.967 77.0586 228.288 76.8743 227.422 76.8743H223.712V81.1627H223.717ZM223.717 86.2927H227.713C228.654 86.2927 229.408 86.0909 229.96 85.6816C230.518 85.2784 230.791 84.725 230.791 84.0276C230.791 83.353 230.5 82.8287 229.925 82.4596C229.35 82.0906 228.52 81.9063 227.44 81.9063H223.712V86.2927H223.717Z" fill="white"/>
<path d="M148.22 34.0709V39.5952H162.428V47.6498H148.22V60.8219H139.717V26.0161H163.826V34.0709H148.22Z" fill="white"/>
<path d="M195.302 33.4693L195.257 60.8192H186.755V57.8823C185.004 60.0174 182.504 61.4632 179.003 61.4632C172.001 61.4632 166.59 55.6001 166.59 47.1389C166.59 38.6319 172.092 32.814 178.946 32.814C182.447 32.814 185.05 34.3053 186.8 36.542V33.4583H195.302V33.4693ZM186.8 47.1499C186.8 43.3654 184.299 40.8802 180.991 40.8802C177.695 40.8802 175.195 43.3654 175.195 47.1499C175.195 50.9796 177.741 53.4196 180.991 53.4196C184.288 53.4086 186.8 50.9796 186.8 47.1499Z" fill="white"/>
<path d="M211.922 25.3721C211.922 28.2078 209.774 30.2411 206.773 30.2411C203.875 30.2411 201.625 28.2078 201.625 25.3721C201.625 22.5931 203.875 20.5483 206.773 20.5483C209.763 20.5483 211.922 22.5819 211.922 25.3721ZM202.511 33.4721H211.013V60.822H202.511V33.4721Z" fill="white"/>
<path d="M236.29 32.9701V41.6684C235.746 41.6236 235.393 41.5671 234.585 41.5671C230.585 41.5671 226.732 42.7645 226.732 48.978V60.8059H218.23V33.467H226.732V37.6922C228.436 34.3595 231.233 32.8232 234.734 32.8232C235.382 32.8232 235.882 32.8684 236.29 32.9701Z" fill="white"/>
<path d="M239.27 52.1673H247.876C248.227 53.6583 249.329 55.1048 253.274 55.1048C256.126 55.1048 257.026 54.3591 257.026 53.2179C257.026 52.1221 256.173 51.8736 251.48 50.8795C243.624 49.1849 240.418 47.095 240.418 42.2825C240.418 36.3629 245.17 32.8833 253.125 32.8833C260.878 32.8833 264.687 36.2161 265.527 41.4352H256.923C256.57 40.1474 255.468 39.2436 252.774 39.2436C250.272 39.2436 249.024 39.9893 249.024 41.1867C249.024 42.1357 249.829 42.226 253.125 42.9265C261.334 44.7112 265.776 46.3606 265.776 52.0205C265.776 58.3353 260.23 61.4645 253.171 61.4645C245.715 61.4645 240.272 57.94 239.27 52.1673Z" fill="white"/>
<path d="M299.227 47.1476C299.227 55.5978 293.83 61.4722 286.815 61.4722C283.316 61.4722 280.814 60.026 279.008 57.891V71.1464H270.503V33.467H279.008V36.5513C280.758 34.3143 283.36 32.8232 286.861 32.8232C293.727 32.8232 299.227 38.6412 299.227 47.1476ZM290.623 47.1476C290.623 43.3634 288.122 40.8779 284.826 40.8779C281.52 40.8779 279.018 43.3634 279.018 47.1476C279.018 50.9776 281.52 53.4176 284.826 53.4176C288.065 53.406 290.623 50.9776 290.623 47.1476Z" fill="white"/>
<path d="M313.142 25.3721C313.142 28.2078 310.991 30.2411 307.993 30.2411C305.094 30.2411 302.841 28.2078 302.841 25.3721C302.841 22.5931 305.094 20.5483 307.993 20.5483C310.982 20.5483 313.142 22.5819 313.142 25.3721ZM303.728 33.4721H312.231V60.822H303.728V33.4721Z" fill="white"/>
<path d="M343.65 43.7135V60.8169H335.151V45.5998C335.151 42.6177 334.249 40.8779 330.794 40.8779C327.444 40.8779 325.738 42.516 325.738 46.3006V60.8169H317.235V33.467H325.738V36.5513C327.738 34.111 330.294 32.8232 333.694 32.8232C339.901 32.8232 343.65 37.0482 343.65 43.7135Z" fill="white"/>
<path d="M36.9458 67.1848C39.2427 71.1842 41.5344 73.9099 43.5304 77.5836C44.5966 79.4071 42.3211 84.4491 40.2835 84.5932H32.8039L33.4988 81.6715C34.3733 80.6609 35.1656 79.7492 35.932 78.879C35.5184 78.1443 35.1165 77.4881 34.6633 76.7769L36.9458 67.1848ZM87.4915 3.07939C87.1089 5.45091 85.8917 7.89902 84.2014 9.69834C82.3303 11.6885 79.5787 13.3906 74.5325 15.6773C63.7585 20.5604 54.6665 24.9855 51.6276 26.3202C48.5882 27.6547 46.6794 28.8342 45.9344 30.4449C46.2191 31.2785 46.5054 32.1108 46.792 32.9429C48.3102 32.1755 50.28 31.2504 53.1946 29.9196C68.7598 22.8105 78.9626 18.1337 82.3355 16.5634C84.4481 15.5804 86.2255 14.7791 86.2826 14.7857C86.3409 14.7912 86.2946 15.381 86.1792 16.0963C85.7984 18.4675 84.5797 20.9159 82.8906 22.7136C81.0183 24.7054 78.2667 26.4078 73.2205 28.6945C66.0637 31.9384 58.9041 35.2364 54.5078 37.3064L55.8076 37.6416C57.208 38.0023 58.608 38.3631 60.0099 38.7257C68.8166 34.6964 74.6872 32.0016 77.0887 30.8811C79.2028 29.8982 80.979 29.097 81.037 29.1036C81.0953 29.1105 81.0493 29.6989 80.9342 30.4142C80.5516 32.7854 79.3344 35.2336 77.645 37.0329C76.1854 38.5856 74.1907 39.9619 70.9926 41.5765C75.4662 42.7483 79.9395 43.9347 84.402 45.1477C85.5606 45.4832 86.9039 46.3491 87.5538 47.3563C91.3732 53.1886 95.0883 59.0951 98.7893 64.9774C99.3524 65.8745 99.9166 66.77 100.48 67.6653C101.314 68.961 101.963 69.5387 103.398 68.3374C104.134 67.7355 105.098 67.0337 106.12 67.031C107.142 67.0286 112.326 69.7002 113.407 70.2106C112.046 71.0066 107.774 74.3073 105.795 74.2802C104.363 74.2615 101.028 73.1557 99.0732 70.9352C96.088 67.5456 89.7762 59.3255 86.8116 55.1818C86.3722 57.7542 85.5214 61.6675 86.7656 64.0163C88.1659 66.6275 90.3404 68.7293 92.0016 71.1708C92.4656 71.8429 92.696 73.0913 92.4177 73.8104C90.859 77.8721 88.7373 81.6279 87.0439 85.6218C86.8116 86.1498 86.0666 86.8998 85.6027 86.8998C82.6789 86.8998 79.679 86.8998 76.7291 86.8998C77.637 84.83 77.1121 82.2069 79.8622 81.5403C81.7157 81.1078 84.0317 77.076 83.291 75.2996C82.8811 74.2383 72.2657 68.906 70.7812 68.1933C68.9737 67.3286 68.9807 66.2286 69.1124 64.4012C69.2412 62.6086 69.3581 60.7772 69.4827 58.9754C60.3027 61.0614 51.1253 63.1638 41.9155 65.1203C41.0349 65.3129 39.784 64.8807 39.0893 64.2571C37.993 63.3051 36.9906 62.2343 35.9142 61.0842C35.3079 60.4366 34.6768 59.7632 33.9919 59.071C32.825 65.8824 31.2808 72.7586 29.9311 79.5511C29.4874 81.7799 28.0544 83.7111 26.9038 85.7173C26.5782 86.2454 25.9068 86.8998 25.3967 86.8998C22.8187 86.8998 20.2 86.8998 17.5951 86.8998C18.0715 83.7999 18.2707 82.4895 19.0508 81.8122C19.6342 81.3047 20.5419 81.163 22.131 80.9167C20.0238 73.3929 17.9016 65.8717 15.7837 58.3506C14.2804 58.9135 13.2654 59.3405 10.9806 60.1847C10.1258 52.4912 9.81097 47.2782 9.11106 39.3868C9.035 36.6731 10.484 33.9504 11.963 32.9014C12.7907 32.3138 13.6142 32.1389 14.7822 31.7055C11.8979 31.7055 8.06897 31.7055 6.4246 31.7055C4.78027 31.7055 4.5711 31.3203 4.06096 30.1203C2.94998 27.3839 1.69872 24.6947 0.400445 22.0066C-0.248004 20.6142 -0.2018 19.8454 1.2348 18.9338C5.17501 16.484 9.05129 13.9845 12.929 11.4839C15.663 9.72114 18.3996 7.95695 21.158 6.21038C21.8067 5.82649 22.7794 5.82652 23.5216 5.97068C27.2281 6.78671 30.9337 7.65111 34.5482 8.70687C34.9376 8.82026 35.3322 8.91167 35.7258 9.00449C37.6754 9.45974 39.5695 9.904 40.3402 12.7401C41.2779 16.177 42.3294 19.5909 43.4352 22.9898C44.6221 20.8525 51.0072 18.5013 54.5051 16.903C70.0703 9.7939 80.2746 5.11812 83.6463 3.54641C85.7601 2.56371 87.5363 1.76358 87.5946 1.76907C87.6529 1.77566 87.6069 2.3641 87.4915 3.07939ZM65.5114 64.5721C64.3065 68.7964 67.0406 70.3818 69.727 71.9183C70.2332 72.1729 71.0132 72.7882 70.8395 74.2707C70.5802 76.9588 70.2019 79.6482 69.8233 82.336C69.7282 83.0081 69.6346 83.6799 69.5422 84.352C69.4026 85.4576 69.2044 86.271 67.7813 86.2738C65.0772 86.2695 62.3774 86.271 59.6746 86.271C60.6012 83.2938 61.3879 82.2887 63.8886 81.2802C64.6633 80.9301 64.9416 80.4293 65.0134 79.8878C65.1613 78.7823 64.7339 75.8035 63.7042 75.422C61.711 74.6547 59.627 74.1739 57.5415 73.7903C53.6966 73.0696 51.4711 71.1021 50.6844 67.3555C55.6259 66.4212 60.5742 65.5296 65.5114 64.5721Z" fill="#EBBE7D"/>
</g>
<defs>
<clipPath id="clip0_33_312">
<rect width="343.65" height="88.516" fill="white"/>
</clipPath>
</defs>
</svg>
