<svg width="174" height="50" viewBox="0 0 174 50" fill="none" xmlns="http://www.w3.org/2000/svg">
<g clip-path="url(#clip0_608_8219)">
<path d="M164.802 0H9.19828C4.11821 0 0 4.11692 0 9.19541V40.8046C0 45.8831 4.11821 50 9.19828 50H164.802C169.882 50 174 45.8831 174 40.8046V9.19541C174 4.11692 169.882 0 164.802 0Z" fill="black"/>
<path d="M41.3386 24.5461C41.3386 21.9284 42.8258 19.659 45.0008 18.5328C43.7899 16.5734 41.6232 15.2673 39.15 15.2673H38.4983C37.7547 15.2673 37.0311 15.4749 36.3813 15.8364C35.3143 16.4296 34.0861 16.7678 32.7792 16.7678C31.4722 16.7678 30.2436 16.4296 29.1771 15.8364C28.5273 15.4749 27.8032 15.2673 27.06 15.2673H27.0045C25.2121 15.2673 23.5805 15.9538 22.3564 17.0769C22.3564 17.0769 13.8535 23.7121 23.9584 37.108C24.7927 38.3863 26.2349 39.2321 27.8756 39.2321H27.9198C28.4353 39.2321 28.9344 39.0742 29.3711 38.8006C30.4317 38.1359 31.6849 37.7508 33.0287 37.7508C34.3726 37.7508 35.6258 38.1359 36.6864 38.8006C37.1231 39.0742 37.6222 39.2321 38.1377 39.2321H38.1819C39.5995 39.2321 40.8695 38.6007 41.7265 37.6046H41.727C41.727 37.6046 44.5221 34.87 45.8669 30.934C43.2307 30.008 41.3399 27.4987 41.3399 24.5465L41.3386 24.5461Z" fill="white"/>
<path d="M38.6245 8.98962C38.6245 8.66594 38.6003 8.34773 38.558 8.03589C34.8689 8.21389 31.9326 11.2599 31.9326 14.992C31.9326 15.3156 31.9568 15.6334 31.9991 15.9457C35.6882 15.7677 38.6245 12.7217 38.6245 8.98962Z" fill="white"/>
<path d="M70.2695 37.5592H67.7394L66.3532 33.2053H61.5357L60.2156 37.5592H57.752L62.5253 22.7366H65.4734L70.27 37.5592H70.2695ZM65.9352 31.3784L64.6815 27.508C64.549 27.1123 64.3004 26.1814 63.9338 24.7155H63.8892C63.743 25.346 63.508 26.277 63.1851 27.508L61.9538 31.3784H65.9347H65.9352Z" fill="white"/>
<path d="M82.5448 32.084C82.5448 33.9018 82.0534 35.3385 81.0707 36.3933C80.1904 37.3325 79.0975 37.8014 77.7929 37.8014C76.3844 37.8014 75.3729 37.2956 74.7568 36.2845H74.7122V41.915H72.3369V30.3901C72.3369 29.2474 72.3069 28.0743 72.249 26.8715H74.3383L74.4708 28.5655H74.5155C75.3078 27.289 76.51 26.6521 78.123 26.6521C79.3844 26.6521 80.4373 27.1501 81.2793 28.1467C82.124 29.1445 82.5448 30.4565 82.5448 32.084ZM80.1249 32.171C80.1249 31.1308 79.8908 30.2731 79.4208 29.598C78.9072 28.8942 78.2177 28.5423 77.353 28.5423C76.7669 28.5423 76.2345 28.7385 75.7587 29.125C75.2819 29.5147 74.9699 30.0236 74.8238 30.6541C74.75 30.9482 74.7136 31.1886 74.7136 31.378V33.1602C74.7136 33.9378 74.9522 34.5938 75.429 35.1296C75.9057 35.6654 76.5255 35.9326 77.2874 35.9326C78.1822 35.9326 78.8785 35.5876 79.3767 34.8988C79.8758 34.2095 80.1253 33.3004 80.1253 32.171H80.1249Z" fill="white"/>
<path d="M94.8417 32.084C94.8417 33.9018 94.3504 35.3385 93.3667 36.3933C92.4878 37.3325 91.3945 37.8014 90.0898 37.8014C88.6813 37.8014 87.6699 37.2956 87.0547 36.2845H87.01V41.915H84.6348V30.3901C84.6348 29.2474 84.6047 28.0743 84.5469 26.8715H86.6362L86.7687 28.5655H86.8133C87.6043 27.289 88.8065 26.6521 90.4209 26.6521C91.6809 26.6521 92.7337 27.1501 93.5785 28.1467C94.4196 29.1445 94.8422 30.4565 94.8422 32.084H94.8417ZM92.4218 32.171C92.4218 31.1308 92.1868 30.2731 91.7164 29.598C91.2028 28.8942 90.5151 28.5423 89.6494 28.5423C89.0625 28.5423 88.531 28.7385 88.0538 29.125C87.577 29.5147 87.266 30.0236 87.1202 30.6541C87.0478 30.9482 87.01 31.1886 87.01 31.378V33.1602C87.01 33.9378 87.2487 34.5938 87.7232 35.1296C88.2 35.664 88.8197 35.9326 89.5839 35.9326C90.4787 35.9326 91.175 35.5876 91.6732 34.8988C92.1723 34.2095 92.4218 33.3004 92.4218 32.171Z" fill="white"/>
<path d="M108.59 33.4023C108.59 34.6633 108.152 35.689 107.273 36.4811C106.307 37.3465 104.963 37.7785 103.235 37.7785C101.639 37.7785 100.36 37.4712 99.3916 36.8553L99.9422 34.8759C100.985 35.5064 102.129 35.8228 103.376 35.8228C104.271 35.8228 104.967 35.6202 105.467 35.2169C105.966 34.8136 106.214 34.2723 106.214 33.5976C106.214 32.9962 106.009 32.4895 105.598 32.0785C105.189 31.6674 104.506 31.2854 103.552 30.9322C100.956 29.9643 99.6589 28.5463 99.6589 26.682C99.6589 25.4634 100.113 24.4646 101.024 23.687C101.931 22.9086 103.141 22.5198 104.654 22.5198C106.003 22.5198 107.124 22.7547 108.018 23.2236L107.425 25.1593C106.589 24.7049 105.644 24.4778 104.587 24.4778C103.751 24.4778 103.098 24.684 102.63 25.0937C102.235 25.4602 102.036 25.9068 102.036 26.4358C102.036 27.0217 102.263 27.506 102.717 27.8871C103.113 28.239 103.832 28.62 104.874 29.0311C106.15 29.5446 107.087 30.1451 107.69 30.8334C108.291 31.5194 108.59 32.3785 108.59 33.4028V33.4023Z" fill="white"/>
<path d="M116.444 28.6532H113.826V33.8424C113.826 35.1622 114.287 35.8218 115.212 35.8218C115.636 35.8218 115.988 35.785 116.267 35.7117L116.333 37.5149C115.864 37.6897 115.248 37.7775 114.485 37.7775C113.547 37.7775 112.814 37.4912 112.285 36.9199C111.758 36.3472 111.492 35.3871 111.492 34.0382V28.6504H109.933V26.8682H111.492V24.9111L113.825 24.2073V26.8682H116.444V28.6527L116.444 28.6532Z" fill="white"/>
<path d="M128.258 32.1271C128.258 33.7701 127.788 35.1189 126.849 36.1737C125.865 37.2599 124.559 37.8012 122.931 37.8012C121.303 37.8012 120.114 37.2809 119.182 36.2407C118.251 35.2004 117.785 33.8871 117.785 32.3042C117.785 30.7213 118.264 29.2914 119.226 28.2366C120.185 27.1809 121.48 26.6528 123.108 26.6528C124.735 26.6528 125.939 27.1732 126.891 28.2143C127.803 29.2245 128.258 30.5288 128.258 32.1271ZM125.793 32.204C125.793 31.2184 125.583 30.3731 125.156 29.6679C124.658 28.8148 123.946 28.3891 123.023 28.3891C122.101 28.3891 121.343 28.8157 120.845 29.6679C120.419 30.374 120.208 31.233 120.208 32.2487C120.208 33.2643 120.419 34.0796 120.845 34.7839C121.359 35.637 122.077 36.0627 123.002 36.0627C123.928 36.0627 124.621 35.6284 125.135 34.7616C125.573 34.0432 125.794 33.1887 125.794 32.204H125.793Z" fill="white"/>
<path d="M135.979 28.9597C135.744 28.9165 135.493 28.8942 135.23 28.8942C134.395 28.8942 133.748 29.2092 133.294 29.8411C132.898 30.3978 132.7 31.1021 132.7 31.9516V37.5597H130.326L130.348 30.2376C130.348 29.0057 130.318 27.884 130.259 26.8729H132.328L132.415 28.9178H132.48C132.731 28.2149 133.126 27.6491 133.668 27.2248C134.197 26.8428 134.768 26.6521 135.385 26.6521C135.604 26.6521 135.803 26.6676 135.978 26.6953V28.9597H135.979Z" fill="white"/>
<path d="M146.603 31.7096C146.603 32.1353 146.575 32.4935 146.516 32.7867H139.389C139.417 33.8424 139.761 34.65 140.424 35.2072C141.024 35.7053 141.801 35.9547 142.754 35.9547C143.809 35.9547 144.772 35.7868 145.638 35.449L146.01 37.0974C144.998 37.5385 143.804 37.758 142.425 37.758C140.767 37.758 139.466 37.2699 138.519 36.2957C137.574 35.321 137.101 34.0122 137.101 32.3706C137.101 30.729 137.54 29.4166 138.422 28.3463C139.345 27.2036 140.592 26.6323 142.16 26.6323C143.729 26.6323 144.868 27.2036 145.66 28.3463C146.287 29.2541 146.603 30.3767 146.603 31.7101V31.7096ZM144.338 31.0937C144.353 30.3899 144.198 29.7817 143.876 29.2682C143.465 28.6076 142.833 28.278 141.983 28.278C141.207 28.278 140.575 28.5999 140.092 29.2459C139.697 29.7594 139.462 30.3753 139.389 31.0928H144.338V31.0937Z" fill="white"/>
<path d="M65.1499 13.6176C65.1499 14.9287 64.7565 15.9152 63.971 16.578C63.2433 17.1894 62.2095 17.4958 60.8703 17.4958C60.2063 17.4958 59.638 17.4666 59.1621 17.4088V10.2456C59.7828 10.1454 60.4513 10.094 61.1731 10.094C62.4486 10.094 63.4104 10.3712 64.0588 10.9262C64.7852 11.553 65.1495 12.4499 65.1495 13.6171L65.1499 13.6176ZM63.9186 13.6499C63.9186 12.7999 63.6936 12.1485 63.2433 11.6942C62.7933 11.2407 62.1358 11.0136 61.2701 11.0136C60.9026 11.0136 60.5893 11.0382 60.3297 11.0892V16.5347C60.4736 16.557 60.7364 16.5671 61.1184 16.5671C62.0119 16.5671 62.7018 16.3185 63.1872 15.8218C63.6731 15.3252 63.9181 14.6009 63.9181 13.6499H63.9186Z" fill="#E5E5E5"/>
<path d="M71.6782 14.7626C71.6782 15.5702 71.4478 16.2317 70.9865 16.7507C70.5028 17.2842 69.8621 17.5505 69.0625 17.5505C68.2628 17.5505 67.6776 17.2956 67.2195 16.783C66.7628 16.2717 66.5342 15.6267 66.5342 14.8496C66.5342 14.0725 66.7692 13.3691 67.2418 12.8515C67.7141 12.3335 68.3493 12.074 69.1494 12.074C69.9495 12.074 70.5397 12.3289 71.0088 12.8401C71.4546 13.3368 71.6782 13.9782 71.6782 14.7626ZM70.4669 14.8004C70.4669 14.316 70.3621 13.9004 70.1536 13.554C69.9086 13.1351 69.5597 12.9257 69.1062 12.9257C68.6526 12.9257 68.2806 13.1351 68.0356 13.554C67.8261 13.9004 67.7223 14.3224 67.7223 14.8214C67.7223 15.3203 67.827 15.7214 68.0356 16.0678C68.2883 16.4866 68.6408 16.696 69.0953 16.696C69.5497 16.696 69.8908 16.4834 70.1426 16.0569C70.3589 15.7036 70.4669 15.2848 70.4669 14.8004Z" fill="#E5E5E5"/>
<path d="M80.4312 12.1809L78.7877 17.4317H77.718L77.0372 15.1518C76.8646 14.5828 76.7239 14.0169 76.6151 13.4556H76.5941C76.4926 14.0324 76.3523 14.5973 76.172 15.1518L75.4489 17.4317H74.3669L72.8213 12.1809H74.0212L74.615 14.677C74.7589 15.2674 74.8769 15.8297 74.9716 16.3623H74.993C75.08 15.9234 75.2234 15.3644 75.4265 14.6884L76.172 12.1823H77.1233L77.8373 14.6351C78.0099 15.2333 78.1506 15.8092 78.2586 16.3637H78.2909C78.3701 15.8233 78.4894 15.2474 78.6475 14.6351L79.285 12.1823H80.4316V12.1814L80.4312 12.1809Z" fill="#E5E5E5"/>
<path d="M86.4843 17.4315H85.3167V14.4242C85.3167 13.4973 84.9647 13.0343 84.2584 13.0343C83.9119 13.0343 83.6323 13.1613 83.415 13.4163C83.2001 13.6712 83.0908 13.9721 83.0908 14.3163V17.4306H81.9232V13.6817C81.9232 13.2205 81.9086 12.7207 81.8809 12.1789H82.9068L82.9615 12.9997H82.9938C83.13 12.7448 83.3326 12.534 83.599 12.366C83.9155 12.1698 84.2698 12.071 84.6573 12.071C85.1478 12.071 85.5553 12.229 85.8796 12.5468C86.283 12.9355 86.4848 13.516 86.4848 14.2867V17.432L86.4843 17.4315Z" fill="#E5E5E5"/>
<path d="M89.7038 17.4316H88.5371V9.77173H89.7038V17.4316Z" fill="#E5E5E5"/>
<path d="M96.5786 14.7626C96.5786 15.5702 96.3481 16.2317 95.8868 16.7507C95.4032 17.2842 94.7616 17.5505 93.9629 17.5505C93.1641 17.5505 92.5767 17.2956 92.1199 16.783C91.6632 16.2717 91.4346 15.6267 91.4346 14.8496C91.4346 14.0725 91.6695 13.3691 92.1422 12.8515C92.6145 12.3335 93.2497 12.074 94.0485 12.074C94.8472 12.074 95.4388 12.3289 95.9092 12.8401C96.355 13.3368 96.5786 13.9782 96.5786 14.7626ZM95.3663 14.8004C95.3663 14.316 95.2616 13.9004 95.053 13.554C94.809 13.1351 94.4592 12.9257 94.007 12.9257C93.5548 12.9257 93.1805 13.1351 92.9364 13.554C92.7269 13.9004 92.6231 14.3224 92.6231 14.8214C92.6231 15.3203 92.7279 15.7214 92.9364 16.0678C93.1892 16.4866 93.5416 16.696 93.9961 16.696C94.4506 16.696 94.7903 16.4834 95.0421 16.0569C95.2593 15.7036 95.3663 15.2848 95.3663 14.8004Z" fill="#E5E5E5"/>
<path d="M102.229 17.4317H101.181L101.094 16.8267H101.061C100.703 17.3088 100.191 17.5505 99.5272 17.5505C99.0313 17.5505 98.6301 17.3912 98.3282 17.0748C98.0541 16.7875 97.917 16.4297 97.917 16.0054C97.917 15.364 98.1843 14.8751 98.7226 14.5364C99.2595 14.1977 100.015 14.032 100.988 14.0397V13.9418C100.988 13.2503 100.624 12.9048 99.897 12.9048C99.3788 12.9048 98.922 13.035 98.5277 13.2936L98.2904 12.5274C98.7786 12.2256 99.381 12.074 100.092 12.074C101.464 12.074 102.153 12.7978 102.153 14.2459V16.1793C102.153 16.7038 102.178 17.1217 102.229 17.4312L102.229 17.4317ZM101.017 15.6271V14.8173C99.729 14.7949 99.0846 15.1482 99.0846 15.8752C99.0846 16.1493 99.1579 16.3541 99.3086 16.4912C99.4589 16.6282 99.6506 16.696 99.8792 16.696C100.136 16.696 100.375 16.6145 100.593 16.4534C100.813 16.2909 100.948 16.0846 100.998 15.832C101.01 15.7751 101.017 15.7063 101.017 15.6271Z" fill="#E5E5E5"/>
<path d="M108.865 17.4316H107.829L107.774 16.5885H107.742C107.411 17.2299 106.847 17.5509 106.055 17.5509C105.422 17.5509 104.895 17.3023 104.478 16.8057C104.06 16.309 103.852 15.6639 103.852 14.8722C103.852 14.0223 104.078 13.334 104.532 12.8082C104.972 12.3179 105.512 12.073 106.154 12.073C106.859 12.073 107.353 12.3102 107.633 12.7859H107.655V9.77173H108.824V16.0167C108.824 16.528 108.838 16.9991 108.865 17.4312L108.865 17.4316ZM107.655 15.2173V14.3419C107.655 14.1903 107.644 14.0678 107.623 13.9745C107.557 13.6936 107.415 13.4578 107.2 13.2671C106.983 13.0768 106.721 12.9807 106.419 12.9807C105.984 12.9807 105.643 13.1533 105.392 13.4997C105.143 13.8461 105.018 14.2882 105.018 14.8285C105.018 15.3689 105.137 15.7686 105.377 16.0927C105.629 16.4378 105.97 16.6108 106.397 16.6108C106.781 16.6108 107.087 16.467 107.32 16.1788C107.545 15.9125 107.655 15.592 107.655 15.2178V15.2173Z" fill="#E5E5E5"/>
<path d="M118.851 14.7626C118.851 15.5702 118.621 16.2317 118.159 16.7507C117.676 17.2842 117.036 17.5505 116.235 17.5505C115.434 17.5505 114.851 17.2956 114.392 16.783C113.936 16.2717 113.707 15.6267 113.707 14.8496C113.707 14.0725 113.942 13.3691 114.415 12.8515C114.887 12.3335 115.522 12.074 116.323 12.074C117.124 12.074 117.713 12.3289 118.182 12.8401C118.627 13.3368 118.851 13.9782 118.851 14.7626ZM117.641 14.8004C117.641 14.316 117.536 13.9004 117.328 13.554C117.081 13.1351 116.734 12.9257 116.279 12.9257C115.825 12.9257 115.455 13.1351 115.209 13.554C114.999 13.9004 114.896 14.3224 114.896 14.8214C114.896 15.3203 115 15.7214 115.209 16.0678C115.462 16.4866 115.814 16.696 116.269 16.696C116.723 16.696 117.065 16.4834 117.317 16.0569C117.532 15.7036 117.641 15.2848 117.641 14.8004Z" fill="#E5E5E5"/>
<path d="M125.129 17.4315H123.962V14.4242C123.962 13.4973 123.61 13.0343 122.902 13.0343C122.556 13.0343 122.276 13.1613 122.06 13.4163C121.844 13.6712 121.736 13.9721 121.736 14.3163V17.4306H120.567V13.6817C120.567 13.2205 120.554 12.7207 120.525 12.1789H121.55L121.605 12.9997H121.637C121.775 12.7448 121.977 12.534 122.243 12.366C122.56 12.1698 122.913 12.071 123.302 12.071C123.791 12.071 124.199 12.229 124.524 12.5468C124.928 12.9355 125.129 13.516 125.129 14.2867V17.432V17.4315Z" fill="#E5E5E5"/>
<path d="M132.988 13.0555H131.702V15.6062C131.702 16.2544 131.931 16.5786 132.383 16.5786C132.592 16.5786 132.766 16.5608 132.903 16.524L132.933 17.4094C132.703 17.4963 132.4 17.5396 132.026 17.5396C131.565 17.5396 131.206 17.3994 130.947 17.1185C130.686 16.8376 130.557 16.3655 130.557 15.7027V13.055H129.789V12.1805H130.557V11.2181L131.701 10.873V12.1796H132.987V13.055H132.988V13.0555Z" fill="#E5E5E5"/>
<path d="M139.168 17.4316H138V14.4466C138 13.5056 137.647 13.0344 136.942 13.0344C136.401 13.0344 136.031 13.3071 135.828 13.853C135.793 13.9677 135.773 14.1079 135.773 14.2727V17.4302H134.606V9.77173H135.773V12.9361H135.795C136.163 12.3602 136.69 12.073 137.373 12.073C137.857 12.073 138.256 12.2309 138.574 12.5487C138.97 12.9443 139.168 13.532 139.168 14.3096V17.4316H139.168Z" fill="#E5E5E5"/>
<path d="M145.545 14.5577C145.545 14.7672 145.53 14.9433 145.502 15.0867H142C142.016 15.6057 142.183 16.0013 142.507 16.2754C142.804 16.5203 143.186 16.6427 143.654 16.6427C144.172 16.6427 144.644 16.5603 145.07 16.3942L145.253 17.205C144.754 17.4212 144.168 17.5291 143.49 17.5291C142.677 17.5291 142.036 17.2896 141.572 16.8107C141.106 16.3318 140.876 15.689 140.876 14.8828C140.876 14.0766 141.091 13.4315 141.524 12.9057C141.977 12.3444 142.589 12.0635 143.361 12.0635C144.132 12.0635 144.69 12.3444 145.077 12.9057C145.391 13.3514 145.545 13.9026 145.545 14.5573V14.5577ZM144.431 14.2559C144.44 13.9095 144.363 13.6108 144.205 13.3591C144.002 13.035 143.693 12.8724 143.275 12.8724C142.894 12.8724 142.584 13.0304 142.346 13.3482C142.152 13.6008 142.037 13.9026 141.999 14.2559H144.431H144.431Z" fill="#E5E5E5"/>
</g>
<defs>
<clipPath id="clip0_608_8219">
<rect width="174" height="50" fill="white"/>
</clipPath>
</defs>
</svg>
