<svg width="120" height="110" viewBox="0 0 120 110" fill="none" xmlns="http://www.w3.org/2000/svg">
<path d="M68.6031 99.253C68.3656 99.253 68.1362 99.113 68.0175 98.868C66.265 95.2409 65.108 91.3076 64.5768 87.1709C64.0476 83.0363 64.1724 78.9062 64.947 74.8985C65.0215 74.5113 65.3716 74.2619 65.7298 74.3428C66.0859 74.4238 66.3153 74.8044 66.2409 75.1938C64.7559 82.8701 65.8304 91.2551 69.1866 98.1986C69.3556 98.5508 69.2328 98.9839 68.9089 99.1677C68.8103 99.2245 68.7057 99.2508 68.6031 99.2508V99.253Z" fill="black"/>
<path d="M59.7817 100.8C59.5443 100.8 59.3149 100.66 59.1962 100.415C57.4436 96.7876 56.2867 92.8542 55.7575 88.7175C55.2283 84.5829 55.3531 80.4528 56.1277 76.4451C56.2022 76.0579 56.5523 75.8085 56.9104 75.8895C57.2666 75.9704 57.4959 76.351 57.4215 76.7404C55.9366 84.4167 57.011 92.8017 60.3672 99.7452C60.5362 100.097 60.4135 100.531 60.0896 100.714C59.991 100.771 59.8863 100.797 59.7837 100.797L59.7817 100.8Z" fill="black"/>
<path class="tail" d="M20.5656 96.8029C20.0948 97.2207 19.7104 97.5926 19.3 97.9229C15.9337 100.633 12.2394 102.554 8.10651 103.414C7.74031 103.49 7.36202 103.563 6.99179 103.556C6.20908 103.543 5.7745 102.832 6.12662 102.086C6.38015 101.548 6.71612 101.038 7.08635 100.587C8.24131 99.1786 9.40834 97.7807 10.6116 96.4222C11.849 95.0265 13.1368 93.6855 14.3984 92.3183C14.7284 91.9595 15.0484 91.5876 15.3763 91.2201C15.1671 90.9248 14.9397 91.0954 14.7566 91.1567C11.5654 92.2505 8.30373 92.9527 4.96562 93.2086C3.88914 93.2918 2.81063 93.3443 1.73213 93.353C1.32166 93.3574 0.891045 93.2546 0.504718 93.0971C-0.0727606 92.863 -0.171362 92.0317 0.295449 91.5942C0.436298 91.4629 0.597285 91.3426 0.766303 91.266C3.90521 89.8222 6.63366 87.6368 9.43453 85.5871C14.7707 81.6822 20.1088 77.7839 25.4289 73.855C27.8354 72.0765 30.2378 70.2892 32.4632 68.2372C33.755 67.0472 35.0025 65.8178 36.0871 64.4024C36.1776 64.2843 36.2702 64.1705 36.3728 64.0655C36.7873 63.6477 37.3386 63.8161 37.4432 64.4089C37.5217 64.8596 37.57 65.319 37.5962 65.7762C37.6968 67.4453 38.2099 68.9679 39.0087 70.3767C39.9443 72.0283 40.89 73.6734 42.1496 75.0713C42.3427 75.2857 42.4917 75.5526 42.6446 75.8085C42.8921 76.222 42.9424 76.6617 42.7391 77.1189C42.556 77.5323 42.383 77.9523 42.1919 78.3614C41.2361 80.4156 40.0972 82.3472 38.8719 84.2176C35.6303 89.1594 32.266 94.0027 28.8172 98.7761C26.4872 102.001 23.8252 104.864 20.8855 107.426C19.8895 108.294 18.7989 108.988 17.5856 109.438C17.3663 109.522 17.1389 109.602 16.9095 109.635C16.2697 109.729 15.8089 109.147 16.0343 108.471C16.2073 107.949 16.4528 107.446 16.7224 106.971C18.4689 103.91 19.5354 100.533 20.64 97.1704C20.6521 97.131 20.6219 97.0763 20.5636 96.8051L20.5656 96.8029Z" fill="#E0E0E0"/>
<path d="M74.0137 29.6349C74.4081 30.1709 74.8044 30.7134 75.2008 31.2538C75.2873 31.3719 75.3678 31.5009 75.4705 31.6016C75.8528 31.9735 76.4624 31.8007 76.6133 31.2691C76.6677 31.0788 76.6958 30.8665 76.6797 30.6718C76.6596 30.4203 76.6234 30.1534 76.5248 29.9303C75.8689 28.4515 75.8829 26.8676 75.8588 25.2816C75.8487 24.6844 76.0037 24.1922 76.2874 23.7044C78.2774 20.2852 80.5652 17.1306 83.2232 14.2911C84.9113 12.4886 86.8067 10.9966 88.8289 9.68844C90.4567 8.63402 92.2415 7.99743 94.1047 7.64085C95.1671 7.43741 96.2355 7.24709 97.308 7.12239C98.145 7.02395 98.9942 6.98458 99.8352 7.00208C102.006 7.04583 103.992 7.74586 105.759 9.13498C108.173 11.0338 110.355 13.1864 111.942 15.9625C113.735 19.0995 114.874 22.5209 114.896 26.2092C114.94 33.9926 110.029 40.9514 103.564 43.8784C101.022 45.029 98.3523 45.5388 95.5635 45.8844C95.4971 46.1425 95.3844 46.4204 95.3623 46.7047C95.149 49.4546 94.2918 51.9659 93.0544 54.3548C86.4747 67.0559 74.4745 77.8364 61.5365 81.8003C54.0253 84.1017 45.4456 82.3407 40.3288 75.5591C38.2785 72.8421 36.8639 69.7423 36.3086 66.2356C36.0812 64.7984 36.1999 63.3873 36.6305 62.007C37.4615 59.3534 38.6748 56.9689 40.697 55.151C41.5421 53.9391 42.8238 53.3353 43.9124 52.4691C46.4134 50.4805 48.9507 48.5401 51.659 46.8907C54.5665 45.1187 57.4962 43.3949 60.4963 41.8111C62.3535 40.8311 64.2308 39.8816 66.0216 38.7703C67.4019 37.915 68.7259 36.9131 69.9553 35.8193C71.1545 34.7495 72.0639 33.3648 72.7923 31.8553C73.1404 31.1356 73.5087 30.4268 73.8749 29.7159C73.893 29.6787 73.9574 29.6699 74.0177 29.6393L74.0137 29.6349Z" fill="#E0E0E0"/>
<path d="M83.9352 10.2988C87.2451 7.87494 90.7543 5.81204 93.9535 3.21099C94.8228 2.5044 95.5873 1.68624 96.2755 0.776196C96.4525 0.542123 96.6256 0.277426 96.855 0.122107C97.026 0.00616401 97.3258 -0.0419599 97.4948 0.0433563C97.6679 0.133048 97.7967 0.408674 97.8651 0.633996C97.9194 0.813379 97.861 1.03433 97.8369 1.23559C97.7021 2.36876 98.1126 3.21755 98.9738 3.83883C101.066 5.34608 103.223 6.74396 105.427 8.05214C107.7 9.3997 109.431 11.1301 110.988 13.4052C111.24 13.7727 111.483 14.1512 111.71 14.5362C111.835 14.7484 111.936 14.9824 112.018 15.2165C112.113 15.49 111.99 15.8947 111.797 16.0456C111.598 16.2031 111.207 16.2119 111.002 16.0215C110.648 15.689 110.306 15.339 109.972 14.9824C108.926 13.858 107.733 12.9742 106.382 12.342C106.296 12.3026 106.207 12.2654 106.125 12.2195C98.8369 8.26434 89.5932 13.0267 84.2672 18.6729C81.8828 21.2018 80.7459 24.33 79.8807 27.7361C79.6936 28.4712 79.595 29.2324 79.4441 29.9784C79.3033 30.6741 79.1825 31.3785 78.9874 32.0566C78.8143 32.6538 78.4723 32.7982 77.8807 32.6845C77.4924 32.6101 77.1865 32.4176 76.933 32.0851C76.3193 31.2778 75.9913 30.3284 75.7498 29.3374C75.6432 28.8955 75.5929 28.4362 75.4943 27.9899C74.2348 22.2125 77.0638 16.3934 81.0055 12.7008C81.9351 11.8301 82.9191 11.0404 83.9352 10.2988Z" fill="#343233"/>
<path d="M93.7725 30.5362C94.4244 30.1009 95.1911 29.869 95.9577 29.9281C97.0583 30.0112 98.0845 30.6325 98.8672 31.4791C99.3038 31.9516 99.6821 32.5073 99.8592 33.1482C100.187 34.3383 99.7686 35.653 99.0463 36.6156C98.4145 37.4578 97.5332 38.1009 96.5492 38.2934C93.851 38.8185 91.3258 35.5393 92.1468 32.7391C92.4164 31.8182 93.02 31.0416 93.7745 30.5362H93.7725Z" fill="#CDA598"/>
<path d="M113.117 21.1077C113.002 20.8474 112.807 20.4405 112.638 20.0204C112.224 18.9945 111.831 17.9619 111.26 17.0169C110.743 16.1637 111.051 15.5796 112.012 15.4724C112.479 15.4199 112.948 15.3937 113.415 15.3653C114.92 15.2712 116.395 15.0021 117.827 14.4836C118.137 14.3721 118.459 14.2736 118.781 14.2386C119.337 14.1774 119.773 14.8512 119.51 15.3784C119.335 15.7306 119.097 16.0587 118.84 16.3497C118.059 17.2313 117.258 18.091 116.461 18.9529C115.827 19.6354 115.2 20.3223 114.789 21.2018C114.747 21.2914 114.69 21.3746 114.634 21.4555C114.208 22.0637 113.664 22.0374 113.27 21.3899C113.244 21.3483 113.222 21.3024 113.119 21.1099L113.117 21.1077Z" fill="#4F3428"/>
<path d="M60.9327 64.6277C61.488 64.6058 61.9508 64.5774 62.4136 64.573C62.6913 64.5708 62.977 64.573 63.2486 64.6321C63.4901 64.6868 63.6853 64.8946 63.6571 65.1724C63.635 65.4043 63.5223 65.6449 63.3975 65.8418C63.3311 65.9425 63.1501 65.9906 63.0173 65.9993C62.1782 66.054 61.3371 66.1459 60.4981 66.1218C59.5926 66.0934 59.1358 65.3737 59.4075 64.4505C59.5483 63.9736 59.7837 63.523 60.0111 63.0833C60.331 62.4664 60.6832 61.8691 61.0212 61.2632C61.2043 60.9372 61.5363 60.8344 61.8683 61.0029C62.1138 61.1276 62.2929 61.4819 62.1842 61.762C62.0232 62.1798 61.8059 62.5692 61.6148 62.9739C61.3874 63.4552 60.9548 63.827 60.9307 64.6277H60.9327Z" fill="#4F3428"/>
<path d="M60.5663 74.9597C61.2605 74.8919 61.6268 74.8504 61.995 74.8219C62.1801 74.8088 62.3672 74.8022 62.5503 74.8306C62.8018 74.87 62.9688 75.0494 63.0453 75.3076C63.1238 75.5723 62.9588 75.977 62.7354 76.0907C62.6509 76.1345 62.5624 76.1716 62.4738 76.1957C61.4678 76.456 60.4476 76.5479 59.4154 76.4626C59.0331 76.432 58.6508 76.316 58.4899 75.8938C58.3309 75.4738 58.5019 75.1019 58.7715 74.7869C59.4074 74.0453 60.0352 73.295 60.6851 72.5665C60.84 72.3915 61.0553 72.2405 61.2686 72.1815C61.4175 72.1399 61.6569 72.2143 61.7656 72.3346C61.8722 72.4549 61.9427 72.724 61.8944 72.8771C61.8058 73.155 61.6247 73.4 61.4658 73.6472C61.2303 74.0103 60.9788 74.3603 60.5663 74.9619V74.9597Z" fill="#4F3428"/>
<path d="M72.6031 55.9736C73.253 56.0129 73.6232 56.0239 73.9894 56.0654C74.2188 56.0917 74.4502 56.1442 74.6675 56.2229C74.9069 56.3105 75.0378 56.5183 75.0337 56.8027C75.0297 57.0783 74.915 57.2927 74.6897 57.413C74.5669 57.4786 74.426 57.5355 74.2932 57.5333C73.4079 57.5289 72.5206 57.5355 71.6372 57.4874C70.9712 57.4502 70.6433 56.8464 70.9149 56.1967C71.0477 55.8773 71.2268 55.5732 71.42 55.291C71.8928 54.6019 72.3798 53.9216 72.8808 53.2544C73.0236 53.064 73.2168 52.8869 73.42 52.795C73.5669 52.7293 73.7922 52.7687 73.9431 52.8475C74.1846 52.9765 74.2249 53.2762 74.1363 53.5081C74.0136 53.8297 73.8204 54.1229 73.6373 54.4138C73.3536 54.8623 73.0518 55.2976 72.6031 55.9736Z" fill="#4F3428"/>
<path d="M48.9525 69.2064C49.3751 69.1823 49.7453 69.1386 50.1155 69.1473C50.2926 69.1517 50.4858 69.2173 50.6407 69.3158C50.854 69.4492 50.9827 69.6899 50.9083 69.9567C50.86 70.1317 50.7292 70.3855 50.5984 70.4139C49.6869 70.6108 48.7714 70.8077 47.8479 70.904C47.3106 70.9608 46.9323 70.3461 47.037 69.7467C47.0631 69.598 47.0974 69.447 47.1557 69.3114C47.6366 68.1957 48.3408 67.255 49.1115 66.3647C49.1739 66.2925 49.2704 66.205 49.3449 66.2094C49.5622 66.2269 49.8137 66.2312 49.9807 66.3537C50.0914 66.4347 50.1457 66.7278 50.1095 66.8985C50.0592 67.1325 49.9184 67.3535 49.7856 67.5591C49.5179 67.9726 49.2201 68.3641 48.9586 68.7842C48.9042 68.8717 48.9505 69.0379 48.9505 69.2108L48.9525 69.2064Z" fill="#4F3428"/>
<path d="M72.3594 67.5569C72.7839 67.9091 73.1562 67.7188 73.5143 67.721C73.8383 67.721 74.1663 67.7013 74.4822 67.7604C74.7196 67.8041 74.9168 68.0207 74.8725 68.3051C74.8363 68.5348 74.7076 68.7535 74.5908 68.9592C74.5526 69.027 74.4259 69.0598 74.3373 69.0664C73.3614 69.1386 72.3835 69.2086 71.4056 69.2633C71.2708 69.2698 71.13 69.213 70.9972 69.1626C70.5304 68.9898 70.2668 68.397 70.5022 67.9266C70.9972 66.9335 71.6853 66.1065 72.5103 65.4218C72.7135 65.2534 72.963 65.3037 73.1703 65.4503C73.3775 65.5968 73.4339 66.0278 73.2669 66.2816C72.9932 66.6928 72.6974 67.0844 72.3574 67.5569H72.3594Z" fill="#4F3428"/>
<path d="M62.0676 53.1254C62.625 53.1932 62.9872 53.215 63.3413 53.2872C63.611 53.3419 63.8907 53.4229 64.1261 53.5694C64.2589 53.6526 64.3615 53.8867 64.3836 54.066C64.4178 54.3329 64.2729 54.5539 64.0436 54.6698C63.9208 54.7311 63.778 54.7726 63.6411 54.777C62.8041 54.8033 61.9671 54.8273 61.13 54.8339C60.5183 54.8383 60.1703 54.3526 60.3554 53.716C60.466 53.3332 60.633 52.9635 60.8222 52.6178C61.132 52.0513 61.4761 51.5087 61.8142 50.9618C61.9168 50.7956 62.0455 50.6446 62.1783 50.5068C62.3755 50.3056 62.7538 50.3121 62.947 50.5177C63.126 50.7102 63.1944 50.9553 63.0898 51.209C62.9952 51.4387 62.8665 51.6509 62.7478 51.8697C62.5606 52.2153 62.3715 52.561 62.0657 53.1232L62.0676 53.1254Z" fill="#4F3428"/>
<path d="M82.4844 53.576C83.0659 53.6307 83.6615 53.6766 84.2551 53.7488C84.7722 53.8122 85.0257 54.0398 85.0579 54.4204C85.0941 54.8295 84.732 55.1729 84.1927 55.1883C83.2651 55.2123 82.3355 55.2211 81.4079 55.2123C80.9733 55.2079 80.6292 54.7529 80.6815 54.287C80.7037 54.0879 80.7279 53.8713 80.8164 53.7029C81.251 52.8694 81.7057 52.0491 82.1605 51.2265C82.2067 51.1434 82.2852 51.0493 82.3637 51.0318C82.5367 50.9903 82.7299 50.9399 82.8929 50.9902C83.1444 51.0668 83.253 51.3315 83.2168 51.5918C83.1826 51.8325 83.0619 52.0622 82.9633 52.2875C82.8043 52.6485 82.6313 53.0028 82.4703 53.3616C82.4522 53.401 82.4764 53.46 82.4865 53.5803L82.4844 53.576Z" fill="#4F3428"/>
<path d="M77.2089 45.4993C77.8085 45.4512 78.225 45.3965 78.6435 45.3922C78.9856 45.39 79.2673 45.7247 79.2773 46.0747C79.2854 46.3656 79.0983 46.6675 78.7985 46.7441C77.9795 46.9497 77.1586 47.1663 76.3276 47.3019C75.6475 47.4135 75.231 46.8535 75.4905 46.1491C75.8729 45.1121 76.3376 44.1124 76.7763 43.1018C76.8145 43.0142 76.891 42.9202 76.9694 42.8895C77.1364 42.8239 77.3316 42.7342 77.4906 42.7714C77.7361 42.8283 77.895 43.0908 77.8628 43.3446C77.8185 43.6902 77.6817 44.0227 77.5791 44.3574C77.4765 44.6878 77.3678 45.0137 77.2109 45.5015L77.2089 45.4993Z" fill="#4F3428"/>
<path d="M48.6928 58.7147C49.0168 59.0078 49.3649 58.8306 49.6727 58.9094C49.8961 58.9662 50.1255 59.0319 50.3287 59.1456C50.552 59.2703 50.6708 59.5197 50.5963 59.7844C50.548 59.9594 50.4112 60.1257 50.2764 60.2438C50.1778 60.3313 50.0128 60.3728 49.882 60.3663C49.0329 60.3247 48.2099 60.5019 47.3829 60.6747C46.7068 60.8147 46.2582 60.1957 46.5962 59.5547C47.0107 58.7672 47.5097 58.0256 48.0208 57.3058C48.1093 57.1811 48.4634 57.1986 48.6546 57.273C48.7814 57.3211 48.9162 57.5946 48.9061 57.7543C48.884 58.0868 48.7673 58.4106 48.6968 58.7147H48.6928Z" fill="#4F3428"/>
<path d="M99.5938 19.6639C99.6259 19.7427 99.7628 19.9286 99.7608 20.1102C99.7568 20.3399 99.6964 20.6461 99.5535 20.773C99.4087 20.8999 99.0847 20.9393 98.9197 20.8452C98.6421 20.6877 98.4066 20.4164 98.1893 20.1605C97.7647 19.6573 97.2537 19.3183 96.6541 19.1476C95.1872 18.7254 94.0302 19.5873 93.8612 21.2237C93.829 21.5255 93.8552 21.8362 93.7969 22.1293C93.7466 22.3853 93.5614 22.5581 93.3059 22.6084C93.0262 22.6653 92.7123 22.4925 92.6097 22.2278C92.5916 22.1818 92.5634 22.1381 92.5513 22.0899C92.169 20.5302 93.0685 18.5329 94.4327 17.9073C96.2054 17.0935 98.3845 17.8044 99.5918 19.6661L99.5938 19.6639Z" fill="black"/>
<path class="wing" d="M24.7849 52.1868C24.2013 52.2218 23.8371 52.2591 23.475 52.2634C22.7244 52.2744 21.9678 52.3378 21.2274 52.2547C19.8068 52.0928 19.1791 51.3053 19.0744 49.7367C19.0141 48.8333 19.2535 48.0217 19.658 47.256C20.0825 46.451 20.6338 45.7619 21.2918 45.1712C21.6821 44.8212 22.0564 44.4493 22.4467 44.0796C22.1027 43.7209 21.7647 43.8762 21.4608 43.9199C19.7385 44.1584 18.1046 43.7712 16.4808 43.1914C14.4808 42.4783 13.4184 40.9492 13.0643 38.7572C12.8993 37.7334 12.9596 36.7227 13.2353 35.7296C13.6739 34.1479 14.36 32.7107 15.358 31.4528C16.6579 29.8165 18.1529 28.4361 19.8692 27.3423C22.7586 25.5004 25.813 24.085 29.0485 23.1334C32.0043 22.2649 35.0165 21.823 38.0689 21.5758C44.2561 21.0727 50.3589 21.7727 56.4113 23.0525C60.9326 24.0084 65.3371 25.461 69.6028 27.3773C70.2105 27.6508 70.8161 27.933 71.4378 28.1627C73.9852 29.099 76.3293 30.5078 78.6915 31.8685C79.7358 32.4701 80.6534 33.2598 81.4099 34.2595C82.2168 35.3271 82.2691 36.189 81.5689 37.3112C81.1101 38.0462 80.4823 38.5713 79.8063 39.0438C78.4159 40.0151 76.8786 40.6516 75.3695 41.3561C71.2729 43.268 67.0776 44.9021 62.9065 46.6063C59.0855 48.166 55.363 49.9905 51.6346 51.7975C48.8498 53.1472 46.0348 54.4248 43.24 55.7483C41.6062 56.5227 39.9804 57.3211 38.3546 58.1174C36.1251 59.209 33.8575 60.165 31.4631 60.7513C29.7568 61.1691 28.0344 61.3266 26.2939 61.3529C25.4328 61.366 24.6178 61.1647 23.8552 60.7228C22.9176 60.1781 22.3683 59.349 22.2516 58.1896C22.0805 56.4789 22.4468 54.9476 23.5253 53.6547C23.8874 53.2194 24.2617 52.7972 24.7808 52.1934L24.7849 52.1868Z" fill="#996439"/>
<path class="wing" d="M46.1353 41.4523C45.6021 41.2117 45.2118 41.0651 44.8476 40.866C43.2319 39.9801 42.926 38.1141 44.1755 36.6877C44.4612 36.3618 44.8174 36.0862 45.1816 35.8696C45.8375 35.478 46.5277 35.1521 47.1997 34.7889C47.4392 34.6598 47.6666 34.5045 48.0529 34.2661C47.6384 34.1151 47.3869 34.0123 47.1293 33.9314C46.4532 33.717 45.7571 33.5639 45.1052 33.2882C44.5438 33.052 43.9844 32.7457 43.5035 32.3519C42.6987 31.6935 42.5196 30.5669 42.9884 29.6021C43.2339 29.0968 43.5679 28.6658 44.0347 28.3924C44.3627 28.1999 44.7047 28.0161 45.0589 27.898C47.7048 27.012 50.391 26.767 53.1174 27.373C53.4353 27.443 53.7492 27.572 54.0349 27.7361C54.1778 27.8192 54.2925 28.0293 54.3468 28.2064C54.4675 28.6133 54.0953 29.0815 53.7311 28.994C53.2743 28.8846 52.8317 28.6943 52.3729 28.6243C50.1052 28.2764 47.8839 28.5893 45.6886 29.2346C45.1776 29.3856 44.7268 29.6393 44.3647 30.0593C44.0528 30.4225 44.081 30.9869 44.4693 31.2625C44.8576 31.536 45.2782 31.7897 45.7168 31.945C46.4734 32.2141 47.2521 32.4154 48.0268 32.6144C49.2139 32.9185 50.4091 33.1898 51.5983 33.4829C51.8719 33.5507 52.1436 33.6317 52.4051 33.7389C52.6667 33.8461 52.8176 34.1742 52.7834 34.4848C52.7492 34.7999 52.5238 35.0471 52.2341 35.0864C52.1878 35.093 52.1395 35.1083 52.0953 35.1039C49.8316 34.9486 47.908 36.0402 45.9723 37.0815C45.6826 37.2368 45.411 37.4622 45.1755 37.705C44.6162 38.2825 44.7108 39.1182 45.3969 39.4725C45.8154 39.6869 46.2782 39.8248 46.7349 39.9166C47.9825 40.1682 49.242 40.3038 50.5157 40.2382C50.9805 40.2141 51.4513 40.2514 51.9141 40.3104C52.22 40.3498 52.4011 40.6342 52.4111 40.9601C52.4232 41.3451 52.2039 41.6667 51.8437 41.7061C51.3789 41.7564 50.9081 41.7761 50.4393 41.7761C48.228 41.7761 46.4814 42.8611 44.9743 44.515C44.9421 44.5522 44.91 44.5894 44.8818 44.6309C44.1152 45.751 44.5196 46.1382 45.3949 46.3941C46.5539 46.731 47.7229 46.7857 48.8618 46.3416C50.2723 45.7925 51.6646 45.1822 53.0651 44.5981C53.2381 44.5259 53.4152 44.3925 53.5862 44.399C53.7492 44.4056 53.9585 44.5194 54.051 44.6615C54.1416 44.8016 54.1717 45.0553 54.1214 45.2216C54.0007 45.6284 53.7049 45.9063 53.3508 46.0638C51.7472 46.7747 50.1777 47.5995 48.4674 47.9911C47.0992 48.3017 45.751 48.1573 44.4552 47.617C43.1514 47.0745 42.7228 45.8997 43.3506 44.5303C43.5961 43.9965 43.9683 43.5065 44.3606 43.0799C44.8536 42.5439 45.4251 42.0933 46.1333 41.4523H46.1353Z" fill="white"/>
<path class="wing" d="M30.0806 44.154C29.5776 43.9024 29.2195 43.7712 28.9076 43.5568C28.314 43.1521 27.6923 42.7692 27.1812 42.2595C25.8552 40.9295 25.9015 38.9957 27.2516 37.7072C27.6018 37.3725 28.0021 37.0968 28.3905 36.8124C28.6983 36.5871 29.0243 36.3902 29.3121 36.2021C29.3221 35.793 29.0505 35.7624 28.8613 35.6508C28.5334 35.4561 28.1953 35.2789 27.8673 35.0799C27.4025 34.7998 27.0665 34.3776 26.7969 33.8898C26.3784 33.1307 26.3321 32.3344 26.7144 31.5578C26.9096 31.1597 27.1711 30.7747 27.475 30.4728C28.3482 29.6087 29.3241 28.9021 30.477 28.5389C32.1732 28.0052 33.8977 27.9352 35.6301 28.2524C35.94 28.3092 36.2438 28.4843 36.5154 28.668C36.7247 28.8102 36.781 29.0902 36.6885 29.3484C36.5959 29.6087 36.3887 29.7487 36.1351 29.729C35.9037 29.7115 35.6784 29.6131 35.447 29.5868C33.3564 29.3352 31.3141 29.4512 29.467 30.7025C28.9962 31.0219 28.5635 31.4331 28.1732 31.8663C27.7506 32.3344 27.7909 32.8529 28.1691 33.3779C28.471 33.7979 28.8815 34.0364 29.3161 34.2333C30.3664 34.708 31.465 34.9617 32.5958 35.0405C33.4852 35.1017 34.3765 35.1149 35.2679 35.1674C35.5456 35.1827 35.8273 35.2264 36.0909 35.3095C36.3404 35.3883 36.447 35.6246 36.443 35.9046C36.439 36.1758 36.3524 36.4252 36.119 36.5324C35.9078 36.6287 35.6703 36.6702 35.441 36.6987C34.2297 36.8496 33.0163 36.9874 31.8051 37.1296C30.7628 37.2521 29.7829 37.589 28.9076 38.219C28.5595 38.4706 28.2275 38.766 27.9418 39.0985C27.5192 39.5885 27.5052 40.2229 27.8412 40.7851C28.2114 41.4042 28.7446 41.8308 29.3442 42.1283C30.8111 42.8589 32.3262 43.3424 33.9761 43.0493C34.4349 42.9683 34.9097 42.953 35.3745 42.9661C35.8112 42.9793 36.119 43.3205 36.1351 43.7121C36.1512 44.0906 35.8776 44.48 35.449 44.5522C34.8957 44.644 34.3303 44.6943 33.7709 44.6987C33.0586 44.7053 32.3745 44.8212 31.7004 45.0728C30.6964 45.4469 30.0988 46.2782 29.6098 47.2276C29.4187 47.5995 29.4207 48.0107 29.6219 48.4001C30.0786 49.2839 30.7044 49.9315 31.6562 50.1305C32.8735 50.3843 34.0787 50.3755 35.2699 49.9533C35.5335 49.8592 35.8092 49.7543 36.0808 49.7455C36.2297 49.7411 36.443 49.8921 36.5214 50.0386C36.5999 50.1874 36.612 50.4521 36.5416 50.603C36.443 50.8174 36.2699 51.0406 36.0748 51.1434C35.6985 51.3425 35.2981 51.5131 34.8896 51.6028C33.6804 51.8675 32.465 51.8543 31.2578 51.5568C29.9298 51.2287 29.0122 50.334 28.3744 49.0717C28.0162 48.3629 27.9699 47.5863 28.2677 46.8557C28.4931 46.3044 28.8271 45.8013 29.1511 45.3069C29.3925 44.9415 29.6943 44.6221 30.0806 44.1474V44.154Z" fill="white"/>
<path class="wing" d="M62.6912 34.5811C62.3632 34.347 62.0212 34.0998 61.6791 33.8592C61.0835 33.4413 60.5241 32.9776 60.1237 32.3278C59.6147 31.4987 59.7595 30.7528 60.5644 30.2737C60.9286 30.0571 61.3371 29.8777 61.7435 29.799C64.6329 29.2433 67.4539 29.4358 70.136 30.8534C70.5103 31.0525 70.8524 31.3303 71.1944 31.595C71.2991 31.6781 71.3977 31.8335 71.4158 31.9691C71.4419 32.155 71.4459 32.4 71.3534 32.5357C71.2628 32.6691 71.0395 32.7588 70.8745 32.7566C70.7014 32.7544 70.5204 32.6385 70.3614 32.5379C67.7396 30.8994 64.9226 30.7703 62.0252 31.2472C61.8924 31.2691 61.7697 31.3653 61.6469 31.4353C61.6107 31.455 61.5886 31.5053 61.5584 31.5425C61.5101 31.8422 61.6932 32.0325 61.8783 32.166C62.3833 32.5335 62.8904 32.9119 63.4337 33.2051C64.4417 33.7498 65.478 34.2333 66.4981 34.7561C66.7919 34.907 67.0817 35.0798 67.3473 35.2811C67.5706 35.4495 67.6129 35.8346 67.4901 36.1168C67.3754 36.3837 67.1601 36.4996 66.9187 36.4646C66.5484 36.4143 66.1863 36.3027 65.818 36.2196C63.7013 35.7471 61.9387 36.5346 60.3893 38.044C60.0211 38.4028 60.1237 38.9869 60.6086 39.1313C61.2827 39.3325 61.9809 39.5141 62.6731 39.5382C63.8904 39.5819 65.1138 39.4988 66.3332 39.4791C66.7074 39.4725 67.0897 39.4528 67.4498 39.536C67.649 39.5819 67.8362 39.8029 67.9811 39.9888C68.1441 40.201 68.0012 40.6867 67.7698 40.772C67.5947 40.8376 67.4076 40.8989 67.2245 40.9054C65.6289 40.9557 64.0333 41.0454 62.4397 41.0126C61.7012 40.9973 60.9527 40.7982 60.2364 40.5729C59.8521 40.4526 59.4779 40.1573 59.1881 39.8444C58.6509 39.2647 58.5462 38.429 58.9225 37.7268C59.1539 37.2959 59.4678 36.889 59.8199 36.5674C60.4296 36.0074 61.1017 35.5349 61.8642 35.233C62.1218 35.1302 62.3532 34.9508 62.5906 34.7977C62.6228 34.7758 62.6308 34.708 62.6852 34.5745L62.6912 34.5811Z" fill="white"/>
</svg>
