<svg width="108" height="159" viewBox="0 0 108 159" fill="none" xmlns="http://www.w3.org/2000/svg">
<g clip-path="url(#clip0_608_8321)">
<path d="M6.937 102.445C3.78808 90.7454 1.33892 75.6221 1.21219 60.9285C1.08546 46.2376 3.27841 31.9791 9.41096 22.0063C13.6013 15.1918 18.6539 10.9799 23.8662 9.30504C29.0814 7.63014 34.4591 8.48675 39.305 11.8064C41.6798 13.4321 43.4513 15.6297 44.6056 18.1885C45.7599 20.7474 46.2971 23.6675 46.2062 26.7436C46.0712 31.2784 45.2861 35.4328 44.3328 39.5462C43.3769 43.6623 42.2501 47.7373 41.4319 52.1134C40.2555 58.4024 39.9469 67.8169 40.3382 77.2422C40.7294 86.6676 41.8148 96.104 43.4237 102.445C43.4237 102.445 41.5173 100.8 38.1149 99.2978C34.7098 97.7953 29.8087 96.4351 23.8194 97.0016C17.8301 97.5709 13.6095 98.931 10.8849 100.149C8.16296 101.367 6.937 102.445 6.937 102.445Z" fill="#FDF8F1"/>
<path d="M43.4239 103.619C43.2861 103.619 43.1456 103.594 43.0161 103.548C42.8866 103.501 42.7599 103.427 42.6497 103.334C42.6139 103.304 40.7571 101.747 37.4952 100.332C34.2361 98.9173 29.5747 97.642 23.9298 98.1729C18.2435 98.712 14.202 99.9928 11.5765 101.142C8.95103 102.292 7.73884 103.313 7.7168 103.332C7.56252 103.463 7.3807 103.553 7.18785 103.594C6.995 103.635 6.79113 103.63 6.59553 103.57C6.39993 103.51 6.22637 103.403 6.09137 103.263C5.95363 103.124 5.85169 102.949 5.79935 102.751C3.11326 92.7897 0.399624 77.9209 0.0414788 62.8058C-0.319421 47.6934 1.67242 32.3348 8.40279 21.3932C10.7417 17.5891 13.381 14.5021 16.2379 12.195C19.0948 9.88791 22.1721 8.36354 25.3871 7.68482C27.8831 7.15663 30.3929 7.16484 32.8476 7.69577C35.3022 8.2267 37.7018 9.27761 39.9774 10.8348C42.4321 12.5152 44.3358 14.8086 45.6003 17.5289C46.8648 20.2465 47.4902 23.3911 47.391 26.7737C47.3001 29.8306 46.9282 32.6823 46.4075 35.4711C45.8868 38.2599 45.2146 40.9829 44.5258 43.7854C44.187 45.1619 43.8426 46.5632 43.512 47.9863C43.1842 49.4094 42.8701 50.8544 42.5946 52.324C41.4513 58.4297 41.1235 67.6553 41.4954 76.9685C41.8645 86.2817 42.9307 95.6852 44.5727 102.155C44.636 102.404 44.614 102.658 44.5203 102.883C44.4267 103.107 44.2641 103.307 44.0465 103.441C43.9501 103.499 43.8509 103.542 43.7462 103.573C43.6415 103.603 43.5341 103.616 43.4266 103.616L43.4239 103.619ZM29.0788 9.64707C28.5443 9.64707 28.0098 9.67444 27.4781 9.73191C26.9437 9.78665 26.4092 9.87149 25.8775 9.9837C22.9876 10.594 20.205 11.9925 17.6071 14.1162C15.0064 16.2427 12.5876 19.0944 10.4222 22.6166C4.86817 31.6479 2.554 44.8116 2.4383 58.8704C2.32259 72.9318 4.40809 87.8882 7.65344 100.51C8.81052 99.7985 10.6591 98.8352 13.3039 97.9458C15.9459 97.0563 19.3841 96.2408 23.7094 95.8302C27.8721 95.4334 31.5224 95.926 34.5446 96.7607C37.5668 97.5954 39.9581 98.775 41.6083 99.7575C40.2116 92.8992 39.3355 83.8323 39.0793 75.0282C38.8258 66.2268 39.1895 57.6908 40.2749 51.8971C40.5559 50.3946 40.8728 48.925 41.2061 47.4827C41.5395 46.0404 41.8893 44.6228 42.231 43.2298C42.9059 40.4903 43.5616 37.8247 44.0713 35.1126C44.5809 32.4005 44.9418 29.6391 45.03 26.7053C45.1182 23.7277 44.5782 20.969 43.49 18.5935C42.4018 16.218 40.7571 14.2202 38.6385 12.7697C37.1288 11.7352 35.5584 10.9552 33.9578 10.4325C32.3572 9.9098 30.7235 9.64707 29.0815 9.64707H29.0788Z" fill="#1D6148"/>
<path d="M39.3051 11.8064C38.5833 11.3111 37.856 10.8814 37.1287 10.5147C36.4014 10.1479 35.6741 9.84416 34.944 9.60059C29.6325 13.1173 25.2438 18.5142 21.891 25.0605C18.5382 31.6068 16.2213 39.3053 15.056 47.4225L23.9407 51.9628L32.8255 56.5031L23.2299 58.2382L13.6344 59.9733C13.3506 68.9471 14.4168 76.3747 15.7915 82.5406C17.1663 88.7065 18.8468 93.6135 19.789 97.5407C20.4061 97.4313 21.048 97.33 21.7175 97.237C22.3897 97.1466 23.0867 97.0646 23.8167 96.9961C29.806 96.4269 34.7099 97.7898 38.1122 99.2923C41.5146 100.795 43.421 102.44 43.421 102.44C41.8122 96.1012 40.7267 86.6649 40.3355 77.2368C39.9443 67.8114 40.2528 58.3969 41.4292 52.1079C42.2474 47.7318 43.3742 43.654 44.3302 39.5407C45.2862 35.4246 46.0713 31.2702 46.2063 26.7381C46.2972 23.6648 45.76 20.7419 44.6057 18.1831C43.4514 15.6242 41.6799 13.4266 39.3051 11.8009V11.8064Z" fill="#1D6148"/>
<path d="M43.4239 103.619C43.2861 103.619 43.1456 103.594 43.0161 103.548C42.8866 103.501 42.7599 103.427 42.6497 103.334C42.6139 103.304 40.7571 101.747 37.4952 100.332C34.2361 98.9173 29.5747 97.642 23.9297 98.1729C23.2575 98.2358 22.5881 98.3152 21.9324 98.4028C21.274 98.4904 20.6293 98.5916 19.9957 98.7038C19.6871 98.7586 19.3841 98.6901 19.1389 98.5314C18.8937 98.3727 18.7091 98.1236 18.6375 97.8199C18.4474 97.0344 18.227 96.1942 17.9818 95.313C17.7393 94.4345 17.4749 93.5149 17.2021 92.568C16.1029 88.7393 14.7998 84.2018 13.8301 78.8131C12.8603 73.4244 12.2212 67.1819 12.4498 59.9404C12.4581 59.664 12.5628 59.4095 12.7363 59.2097C12.9071 59.0127 13.1468 58.8704 13.4196 58.8211L21.3043 57.3952L29.189 55.9694L21.8497 52.22L14.5105 48.4707C14.2874 48.3557 14.1111 48.1779 14.0009 47.9644C13.8907 47.7509 13.8466 47.5074 13.8824 47.2583C15.1497 38.435 17.6429 30.5012 21.1224 23.9138C24.602 17.3237 29.0677 12.0773 34.2829 8.62627C34.4344 8.52501 34.608 8.46206 34.7843 8.44017C34.9606 8.41828 35.1424 8.4347 35.316 8.48943C36.1067 8.75216 36.8918 9.08057 37.6715 9.47466C38.4511 9.86876 39.217 10.3231 39.9719 10.8403C42.4266 12.5207 44.3302 14.8141 45.5948 17.5344C46.8593 20.252 47.4847 23.3965 47.3855 26.7792C47.2946 29.8361 46.9226 32.6878 46.402 35.4766C45.8813 38.2653 45.2091 40.9884 44.5203 43.7908C44.1815 45.1674 43.8371 46.5686 43.5065 47.9918C43.1787 49.4149 42.8646 50.8599 42.5891 52.3295C41.4458 58.4352 41.118 67.6608 41.4899 76.974C41.859 86.2872 42.9252 95.6907 44.5672 102.16C44.6305 102.409 44.6085 102.664 44.5148 102.888C44.4212 103.113 44.2586 103.313 44.041 103.447C43.9445 103.504 43.8454 103.548 43.7407 103.578C43.636 103.608 43.5285 103.622 43.4211 103.622L43.4239 103.619ZM26.6186 95.6934C30.0595 95.6934 33.079 96.2791 35.6025 97.0782C38.1261 97.8773 40.151 98.8954 41.6028 99.7575C40.2061 92.8992 39.33 83.8323 39.0738 75.0282C38.8176 66.2268 39.184 57.6908 40.2694 51.8971C40.5504 50.3946 40.8672 48.925 41.2006 47.4827C41.5339 46.0405 41.8838 44.6228 42.2254 43.2298C42.9004 40.4903 43.5561 37.8247 44.0658 35.1126C44.5754 32.4005 44.9363 29.6391 45.0245 26.7053C45.1126 23.7277 44.5727 20.969 43.4845 18.5935C42.3962 16.218 40.7515 14.2202 38.633 12.7697C38.0572 12.3756 37.4731 12.0226 36.8863 11.7106C36.2995 11.3986 35.7044 11.1304 35.1121 10.906C30.4507 14.1381 26.3817 19.0807 23.1639 25.2247C19.9488 31.3687 17.5878 38.7196 16.3481 46.763L24.8582 51.1117L33.3682 55.4604C33.5942 55.5753 33.7677 55.7559 33.8779 55.9694C33.9881 56.1829 34.0322 56.4292 33.9964 56.6782C33.9578 56.9273 33.8449 57.1517 33.6768 57.3214C33.5087 57.491 33.2883 57.6142 33.0404 57.6607L23.916 59.311L14.7915 60.9612C14.6455 67.7758 15.2929 73.6817 16.2351 78.7994C17.1773 83.9171 18.4253 88.2522 19.4777 91.9249C19.6954 92.6775 19.9047 93.4137 20.1059 94.1307C20.307 94.8477 20.4971 95.5401 20.6706 96.2079C21.1665 96.1313 21.6679 96.0629 22.1721 95.9999C22.679 95.937 23.1887 95.8822 23.7038 95.833C24.2052 95.7865 24.6984 95.7509 25.1833 95.729C25.6681 95.7071 26.1475 95.6961 26.6186 95.6961V95.6934Z" fill="#1D6148"/>
<path d="M61.5928 102.445C58.4438 90.7454 55.9947 75.6221 55.868 60.9285C55.7412 46.2376 57.9342 31.9791 64.0667 22.0063C68.257 15.1918 73.3096 10.9799 78.522 9.30504C83.7371 7.63014 89.1148 8.48675 93.9608 11.8064C96.3356 13.4321 98.107 15.6297 99.2613 18.1885C100.416 20.7474 100.953 23.6675 100.862 26.7436C100.727 31.2784 99.9418 35.4328 98.9886 39.5462C98.0326 43.6623 96.9059 47.7373 96.0876 52.1134C94.9113 58.4024 94.6027 67.8169 94.9939 77.2422C95.3851 86.6676 96.4706 96.104 98.0795 102.445C98.0795 102.445 96.173 100.8 92.7707 99.2978C89.3655 97.7953 84.4645 96.4351 78.4752 97.0016C72.4859 97.5709 68.2653 98.931 65.5406 100.149C62.8187 101.367 61.5928 102.445 61.5928 102.445Z" fill="#FDF8F1"/>
<path d="M98.0793 103.619C97.9416 103.619 97.8011 103.594 97.6716 103.548C97.5421 103.501 97.4154 103.428 97.3052 103.334C97.2694 103.304 95.4125 101.747 92.1534 100.332C88.8943 98.9174 84.2329 97.642 78.5852 98.173C72.899 98.7121 68.8574 99.9929 66.232 101.142C63.6065 102.292 62.3943 103.313 62.3722 103.332C62.218 103.463 62.0361 103.553 61.8433 103.594C61.6504 103.636 61.4466 103.63 61.251 103.57C61.0554 103.51 60.8818 103.403 60.7468 103.263C60.6091 103.124 60.5071 102.949 60.4548 102.752C57.7742 92.7898 55.0606 77.921 54.6997 62.8086C54.3388 47.6963 56.3306 32.3376 63.061 21.396C65.4 17.5919 68.0392 14.5049 70.8961 12.1978C73.753 9.89072 76.8303 8.36634 80.0453 7.68763C82.5413 7.15944 85.0511 7.16765 87.5058 7.69858C89.9604 8.22951 92.36 9.28042 94.6356 10.8376C97.0903 12.518 98.994 14.8114 100.258 17.5317C101.523 20.2493 102.148 23.3939 102.049 26.7765C101.958 29.8335 101.586 32.6852 101.066 35.4739C100.545 38.2627 99.8728 40.9857 99.184 43.7882C98.8452 45.1648 98.5008 46.566 98.1702 47.9891C97.8424 49.4122 97.5283 50.8572 97.2528 52.3268C96.1095 58.4325 95.7817 67.6581 96.1536 76.9713C96.5228 86.2845 97.5889 95.688 99.2309 102.158C99.2942 102.407 99.2722 102.661 99.1785 102.886C99.0849 103.11 98.9223 103.31 98.7047 103.444C98.6083 103.501 98.5091 103.545 98.4044 103.575C98.2997 103.605 98.1923 103.619 98.0848 103.619H98.0793ZM83.7342 9.64715C83.1998 9.64715 82.6653 9.67451 82.1336 9.73199C81.5991 9.78672 81.0647 9.87156 80.533 9.98377C77.643 10.5941 74.8605 11.9925 72.2626 14.1163C69.6619 16.2427 67.243 19.0944 65.0776 22.6166C59.5236 31.6479 57.2095 44.8117 57.0937 58.8704C56.978 72.9319 59.0635 87.8882 62.3089 100.51C63.4632 99.7986 65.3145 98.8353 67.9593 97.9458C70.6013 97.0564 74.0395 96.2408 78.3648 95.8303C82.5276 95.4335 86.1779 95.9261 89.1973 96.7608C92.2167 97.5955 94.6108 98.7751 96.261 99.7576C94.8643 92.8992 93.9882 83.8324 93.732 75.0282C93.4785 66.2268 93.8422 57.6909 94.9276 51.8972C95.2086 50.3947 95.5255 48.9251 95.8588 47.4828C96.1922 46.0405 96.542 44.6229 96.8837 43.2299C97.5586 40.4904 98.2143 37.8248 98.724 35.1127C99.2336 32.4005 99.5945 29.6391 99.6827 26.7053C99.7708 23.7278 99.2309 20.9691 98.1427 18.5936C97.0545 16.2181 95.4098 14.2203 93.2912 12.7698C91.7815 11.7353 90.2111 10.9553 88.6105 10.4326C87.0099 9.90987 85.3762 9.64715 83.7342 9.64715Z" fill="#1D6148"/>
<path d="M93.9609 11.8064C93.2391 11.3111 92.5118 10.8814 91.7845 10.5147C91.0572 10.1479 90.3299 9.84416 89.5998 9.60059C84.2882 13.1173 79.8996 18.5142 76.5468 25.0605C73.194 31.6068 70.8771 39.3053 69.7117 47.4225L78.5965 51.9628L87.4812 56.5031L77.8857 58.2382L68.2902 59.9733C68.0064 68.9471 69.0726 76.3747 70.4473 82.5406C71.822 88.7065 73.5026 93.6135 74.4447 97.5407C75.0619 97.4313 75.7038 97.33 76.3732 97.237C77.0454 97.1466 77.7424 97.0646 78.4725 96.9961C84.4618 96.4269 89.3656 97.7898 92.768 99.2923C96.1731 100.795 98.0768 102.44 98.0768 102.44C96.4679 96.1012 95.3825 86.6649 94.9912 77.2368C94.6 67.8086 94.9086 58.3969 96.085 52.1079C96.9032 47.7318 98.03 43.654 98.9859 39.5407C99.9419 35.4246 100.727 31.2702 100.859 26.7381C100.95 23.6648 100.413 20.7419 99.2587 18.1831C98.1044 15.6242 96.3329 13.4266 93.9581 11.8009L93.9609 11.8064Z" fill="#1D6148"/>
<path d="M98.0796 103.619C97.9419 103.619 97.8014 103.594 97.6719 103.548C97.5424 103.501 97.4157 103.427 97.3055 103.334C97.2697 103.304 95.4128 101.747 92.1537 100.332C88.8946 98.9173 84.2332 97.642 78.5855 98.1729C77.9133 98.2358 77.2438 98.3152 76.5882 98.4028C75.9297 98.4904 75.2851 98.5916 74.6514 98.7038C74.3456 98.7586 74.0426 98.6901 73.7974 98.5314C73.5522 98.3727 73.3676 98.1236 73.2932 97.8199C73.1031 97.0344 72.8827 96.1942 72.6375 95.313C72.3924 94.4318 72.1306 93.5149 71.8579 92.568C70.7587 88.7393 69.4556 84.2018 68.4858 78.8131C67.5161 73.4244 66.8769 67.1819 67.1056 59.9404C67.1138 59.664 67.2185 59.4095 67.3921 59.2097C67.5629 59.0127 67.8026 58.8704 68.0753 58.8211L75.96 57.3952L83.8447 55.9694L76.5055 52.22L69.1663 48.4707C68.9431 48.3557 68.7668 48.1779 68.6566 47.9644C68.5464 47.7509 68.5023 47.5074 68.5382 47.2583C69.8054 38.435 72.2987 30.5012 75.7782 23.9138C79.2577 17.3237 83.7235 12.0773 88.9386 8.62627C89.0902 8.52501 89.2637 8.46206 89.4401 8.44017C89.6164 8.41828 89.7982 8.4347 89.9718 8.48943C90.7624 8.75216 91.5476 9.08057 92.3273 9.47466C93.1069 9.86876 93.8728 10.3231 94.6276 10.8403C97.0823 12.5207 98.986 14.8141 100.251 17.5344C101.515 20.252 102.14 23.3965 102.041 26.7792C101.95 29.8361 101.578 32.6878 101.058 35.4766C100.537 38.2653 99.8648 40.9884 99.1761 43.7908C98.8372 45.1674 98.4929 46.5686 98.1623 47.9918C97.8344 49.4149 97.5204 50.8599 97.2449 52.3295C96.1016 58.4352 95.7737 67.6608 96.1456 76.974C96.5148 86.2872 97.581 95.6907 99.2229 102.16C99.2863 102.409 99.2642 102.664 99.1706 102.888C99.0769 103.113 98.9144 103.313 98.6967 103.447C98.6003 103.504 98.5011 103.548 98.3964 103.578C98.2917 103.608 98.1843 103.622 98.0769 103.622L98.0796 103.619ZM81.2744 95.6934C84.7153 95.6934 87.7347 96.2791 90.2583 97.0782C92.7818 97.8773 94.8067 98.8954 96.2586 99.7575C94.8618 92.8992 93.9857 83.8323 93.7295 75.0282C93.4733 66.2268 93.8397 57.6908 94.9252 51.8971C95.2062 50.3946 95.523 48.925 95.8564 47.4827C96.1897 46.0405 96.5396 44.6228 96.8812 43.2298C97.5562 40.4903 98.2118 37.8247 98.7215 35.1126C99.2312 32.4005 99.5921 29.6391 99.6802 26.7053C99.7684 23.7277 99.2284 20.969 98.1402 18.5935C97.052 16.218 95.4073 14.2202 93.2887 12.7697C92.7129 12.3756 92.1289 12.0226 91.5421 11.7106C90.9553 11.3986 90.3602 11.1304 89.7679 10.906C85.1065 14.1381 81.0374 19.0807 77.8196 25.2247C74.6046 31.3687 72.2436 38.7196 71.0039 46.763L79.5139 51.1117L88.024 55.4604C88.2499 55.5753 88.4235 55.7559 88.5337 55.9694C88.6439 56.1829 88.688 56.4292 88.6521 56.6782C88.6136 56.9273 88.5006 57.1517 88.3326 57.3214C88.1645 57.4938 87.9441 57.6142 87.6962 57.6607L78.5717 59.311L69.4473 60.9612C69.3013 67.7758 69.9487 73.6817 70.8909 78.7994C71.8359 83.9199 73.0811 88.2522 74.1335 91.9249C74.3511 92.6775 74.5605 93.4137 74.7616 94.1307C74.9627 94.845 75.1528 95.5401 75.3264 96.2079C75.8223 96.1313 76.3237 96.0629 76.8278 95.9999C77.3348 95.937 77.8444 95.8822 78.3596 95.833C78.861 95.7865 79.3541 95.7509 79.839 95.729C80.3239 95.7071 80.8033 95.6961 81.2744 95.6961V95.6934Z" fill="#1D6148"/>
<mask id="mask0_608_8321" style="mask-type:luminance" maskUnits="userSpaceOnUse" x="12" y="110" width="73" height="34">
<path d="M12.582 119.043C12.7721 117.763 13.1027 116.591 13.5656 115.546C14.0284 114.5 14.6179 113.584 15.3287 112.815C16.0395 112.046 16.8688 111.427 17.8109 110.975C18.7531 110.524 19.8028 110.245 20.9516 110.154C22.1004 110.064 23.2382 110.127 24.365 110.302C25.489 110.477 26.602 110.762 27.7013 111.115C28.8005 111.468 29.8915 111.89 30.9714 112.338C32.0513 112.784 33.1203 113.255 34.1809 113.709C34.7099 113.937 35.4978 114.295 36.4731 114.703C37.4483 115.111 38.6192 115.573 39.914 116.006C41.2088 116.438 42.6331 116.843 44.1208 117.139C45.6085 117.434 47.1595 117.623 48.7106 117.623C50.2616 117.623 51.8127 117.434 53.3004 117.139C54.788 116.843 56.2124 116.438 57.5072 116.006C58.802 115.573 59.9701 115.113 60.9481 114.703C61.9261 114.292 62.7113 113.937 63.2403 113.709C64.3009 113.255 65.3698 112.784 66.4498 112.338C67.5297 111.892 68.6179 111.471 69.7199 111.115C70.8192 110.762 71.9322 110.475 73.0562 110.302C74.1802 110.127 75.318 110.064 76.4696 110.154C77.6212 110.245 78.6653 110.527 79.602 110.978C80.5359 111.43 81.3624 112.051 82.0677 112.817C82.7729 113.586 83.3625 114.503 83.8253 115.549C84.2882 116.594 84.6298 117.765 84.8364 119.041C85.145 120.94 84.7042 123.395 83.4534 126.011C82.2027 128.628 80.1419 131.405 77.2134 133.945C74.2849 136.485 70.4858 138.786 65.7583 140.456C61.0308 142.122 55.3748 143.157 48.7271 143.157C42.0794 143.157 36.4235 142.164 31.6932 140.549C26.9629 138.931 23.1611 136.69 20.227 134.191C17.293 131.693 15.2295 128.934 13.976 126.288C12.7225 123.641 12.279 121.104 12.5848 119.046L12.582 119.043Z" fill="white"/>
</mask>
<g mask="url(#mask0_608_8321)">
<path d="M12.582 119.043C12.7721 117.763 13.1027 116.591 13.5656 115.546C14.0284 114.5 14.6179 113.584 15.3287 112.815C16.0395 112.046 16.8688 111.427 17.8109 110.975C18.7531 110.524 19.8028 110.245 20.9516 110.154C22.1004 110.064 23.2382 110.127 24.365 110.302C25.489 110.477 26.602 110.762 27.7013 111.115C28.8005 111.468 29.8915 111.89 30.9714 112.338C32.0513 112.784 33.1203 113.255 34.1809 113.709C34.7099 113.937 35.4978 114.295 36.4731 114.703C37.4483 115.111 38.6192 115.573 39.914 116.006C41.2088 116.438 42.6331 116.843 44.1208 117.139C45.6085 117.434 47.1595 117.623 48.7106 117.623C50.2616 117.623 51.8127 117.434 53.3004 117.139C54.788 116.843 56.2124 116.438 57.5072 116.006C58.802 115.573 59.9701 115.113 60.9481 114.703C61.9261 114.292 62.7113 113.937 63.2403 113.709C64.3009 113.255 65.3698 112.784 66.4498 112.338C67.5297 111.892 68.6179 111.471 69.7199 111.115C70.8192 110.762 71.9322 110.475 73.0562 110.302C74.1802 110.127 75.318 110.064 76.4696 110.154C77.6212 110.245 78.6653 110.527 79.602 110.978C80.5359 111.43 81.3624 112.051 82.0677 112.817C82.7729 113.586 83.3625 114.503 83.8253 115.549C84.2882 116.594 84.6298 117.765 84.8364 119.041C85.145 120.94 84.7042 123.395 83.4534 126.011C82.2027 128.628 80.1419 131.405 77.2134 133.945C74.2849 136.485 70.4858 138.786 65.7583 140.456C61.0308 142.122 55.3748 143.157 48.7271 143.157C42.0794 143.157 36.4235 142.164 31.6932 140.549C26.9629 138.931 23.1611 136.69 20.227 134.191C17.293 131.693 15.2295 128.934 13.976 126.288C12.7225 123.641 12.279 121.104 12.5848 119.046L12.582 119.043Z" fill="#1D6148"/>
<path d="M42.209 124.613L41.8894 124.577L41.5698 124.541L41.2502 124.506L40.9307 124.47C40.2888 124.399 39.6909 124.202 39.162 123.907C38.633 123.611 38.1702 123.217 37.7955 122.752C37.4208 122.286 37.1371 121.753 36.9635 121.173C36.79 120.595 36.7293 119.971 36.801 119.333L36.8699 118.718L36.9387 118.102L37.0076 117.486L37.0765 116.87C37.1481 116.233 37.3465 115.639 37.644 115.113C37.9415 114.588 38.3382 114.128 38.8066 113.756C39.2749 113.384 39.8122 113.102 40.3962 112.929C40.9775 112.757 41.6056 112.697 42.2475 112.768L42.5671 112.804L42.8867 112.839L43.2063 112.875L43.5258 112.91C44.1677 112.981 44.7656 113.178 45.2945 113.474C45.8235 113.77 46.2863 114.164 46.661 114.629C47.0357 115.094 47.3194 115.628 47.493 116.208C47.6665 116.788 47.7272 117.409 47.6555 118.047L47.5867 118.663L47.5178 119.279L47.4489 119.894L47.38 120.51C47.3084 121.148 47.11 121.742 46.8125 122.267C46.515 122.793 46.1183 123.252 45.6499 123.625C45.1816 123.997 44.6444 124.279 44.0603 124.451C43.479 124.624 42.8509 124.684 42.209 124.613Z" fill="#FDF8F1"/>
<path d="M42.7408 125.817C42.6306 125.817 42.5204 125.814 42.4102 125.809C42.3 125.803 42.1898 125.792 42.0796 125.781L41.4377 125.71L40.7958 125.639C40.0189 125.551 39.2806 125.316 38.6138 124.952C37.9499 124.588 37.3548 124.093 36.8672 123.485C36.3796 122.878 36.0242 122.193 35.8121 121.468C35.5999 120.743 35.5338 119.977 35.622 119.205L35.7597 117.973L35.8975 116.742C35.9856 115.97 36.2198 115.237 36.5862 114.577C36.9526 113.917 37.4513 113.326 38.0629 112.842C38.6745 112.357 39.366 112.004 40.096 111.796C40.8261 111.588 41.5975 111.52 42.3744 111.605L43.0163 111.676L43.6582 111.747C44.4351 111.832 45.1734 112.067 45.8374 112.431C46.5013 112.795 47.0964 113.291 47.584 113.898C48.0716 114.506 48.427 115.19 48.6392 115.915C48.8513 116.64 48.9174 117.407 48.8292 118.179L48.6915 119.41L48.5538 120.642C48.4683 121.413 48.2314 122.147 47.865 122.806C47.4986 123.469 47 124.057 46.3884 124.542C45.8649 124.957 45.2836 125.275 44.6665 125.491C44.0521 125.705 43.402 125.817 42.7408 125.817ZM41.7159 113.915C41.322 113.915 40.9335 113.98 40.5671 114.109C40.2007 114.238 39.8536 114.426 39.5395 114.675C39.1759 114.966 38.8783 115.316 38.6579 115.71C38.4403 116.104 38.297 116.542 38.2474 117.002L38.1097 118.233L37.9719 119.465C37.9196 119.925 37.9609 120.382 38.0877 120.814C38.2144 121.246 38.4265 121.654 38.7158 122.018C39.0078 122.379 39.3604 122.675 39.7572 122.891C40.1539 123.107 40.5947 123.25 41.0603 123.299L41.7022 123.37L42.3441 123.441C42.8069 123.493 43.2697 123.452 43.705 123.329C44.1403 123.203 44.5508 122.995 44.9172 122.705C45.2809 122.415 45.5784 122.065 45.7988 121.671C46.0164 121.277 46.1597 120.839 46.2093 120.379L46.347 119.147L46.4848 117.916C46.5371 117.456 46.4958 116.999 46.3718 116.567C46.2478 116.134 46.033 115.726 45.7437 115.362C45.4517 115.001 45.099 114.706 44.7023 114.487C44.3056 114.27 43.8648 114.131 43.402 114.079L42.7601 114.008L42.1182 113.937C42.052 113.928 41.9859 113.923 41.9198 113.92C41.8537 113.917 41.7876 113.915 41.7214 113.915H41.7159Z" fill="#1D6148"/>
<path d="M29.0045 120.486L28.696 120.395L28.3874 120.305L28.0789 120.215L27.7703 120.124C27.1505 119.944 26.5967 119.648 26.1256 119.265C25.6545 118.882 25.2688 118.417 24.9795 117.894C24.693 117.371 24.5057 116.797 24.4341 116.197C24.3652 115.598 24.412 114.974 24.5939 114.358L24.7702 113.764L24.9465 113.17L25.1228 112.576L25.2991 111.983C25.481 111.367 25.7785 110.817 26.1642 110.349C26.5499 109.881 27.0182 109.498 27.5444 109.21C28.0706 108.926 28.6492 108.74 29.2525 108.668C29.8558 108.6 30.484 108.646 31.1038 108.827L31.4124 108.917L31.7209 109.008L32.0295 109.098L32.338 109.188C32.9579 109.369 33.5117 109.665 33.9828 110.048C34.4539 110.431 34.8396 110.896 35.1288 111.419C35.4153 111.942 35.6027 112.516 35.6743 113.116C35.7432 113.715 35.6963 114.339 35.5145 114.955L35.3382 115.549L35.1619 116.142L34.9856 116.736L34.8092 117.33C34.6274 117.946 34.3299 118.496 33.9442 118.964C33.5585 119.432 33.0902 119.815 32.564 120.103C32.0378 120.387 31.4592 120.573 30.8559 120.644C30.2525 120.713 29.6244 120.666 29.0045 120.486Z" fill="#FDF8F1"/>
<path d="M30.327 121.849C30.0515 121.849 29.7732 121.829 29.495 121.788C29.2195 121.75 28.944 121.69 28.6712 121.61L28.0514 121.43L27.4315 121.249C26.6794 121.03 25.9934 120.672 25.4011 120.198C24.8088 119.725 24.3101 119.136 23.9354 118.455C23.5608 117.774 23.3294 117.04 23.2467 116.29C23.1641 115.54 23.2329 114.774 23.4533 114.027L23.8032 112.839L24.1531 111.651C24.3735 110.904 24.7316 110.223 25.2082 109.634C25.6848 109.046 26.2772 108.551 26.9631 108.178C27.6491 107.806 28.3875 107.576 29.1423 107.494C29.8972 107.412 30.6686 107.481 31.4207 107.7L32.0405 107.88L32.6604 108.061C33.4125 108.28 34.0985 108.638 34.6908 109.112C35.2831 109.585 35.7818 110.174 36.1565 110.855C36.5311 111.539 36.7625 112.273 36.8452 113.023C36.9278 113.772 36.859 114.539 36.6386 115.286L36.2887 116.474L35.9388 117.661C35.7184 118.408 35.3603 119.087 34.8837 119.676C34.4071 120.264 33.8147 120.759 33.1287 121.132C32.6907 121.37 32.2334 121.55 31.7623 121.668C31.2912 121.788 30.8091 121.849 30.3242 121.849H30.327ZM29.776 109.812C29.4867 109.812 29.2002 109.848 28.9192 109.919C28.6382 109.99 28.3654 110.097 28.1037 110.239C27.6932 110.461 27.3406 110.756 27.0568 111.107C26.7731 111.457 26.5582 111.865 26.4259 112.308L26.076 113.496L25.7262 114.684C25.5939 115.13 25.5554 115.587 25.6022 116.033C25.649 116.479 25.7895 116.92 26.0127 117.325C26.2358 117.732 26.5334 118.083 26.886 118.365C27.2386 118.647 27.6491 118.86 28.0954 118.991L28.7153 119.172L29.3352 119.353C29.7842 119.484 30.2443 119.525 30.6934 119.476C31.1424 119.427 31.5832 119.29 31.9937 119.068C32.4042 118.846 32.7568 118.551 33.0406 118.198C33.3244 117.847 33.5392 117.44 33.6715 116.994L34.0214 115.806L34.3712 114.618C34.5035 114.172 34.542 113.715 34.4952 113.269C34.4456 112.82 34.3079 112.382 34.0847 111.974C33.8616 111.567 33.564 111.216 33.2114 110.934C32.8588 110.652 32.4483 110.439 32.002 110.308L31.3821 110.127L30.7622 109.946C30.5997 109.9 30.4344 109.864 30.2691 109.84C30.1038 109.815 29.9385 109.804 29.7732 109.804L29.776 109.812Z" fill="#1D6148"/>
<path d="M55.207 124.613L55.5266 124.577L55.8462 124.541L56.1657 124.506L56.4853 124.47C57.1272 124.399 57.725 124.202 58.254 123.907C58.783 123.611 59.2458 123.217 59.6205 122.752C59.9951 122.286 60.2789 121.753 60.4525 121.173C60.626 120.595 60.6866 119.971 60.615 119.333L60.5461 118.718L60.4773 118.102L60.4084 117.486L60.3395 116.87C60.2679 116.233 60.0695 115.639 59.772 115.113C59.4744 114.588 59.0777 114.128 58.6094 113.756C58.141 113.384 57.6038 113.102 57.0198 112.929C56.4385 112.757 55.8103 112.697 55.1684 112.768L54.8489 112.804L54.5293 112.839L54.2097 112.875L53.8901 112.91C53.2482 112.981 52.6504 113.178 52.1215 113.474C51.5925 113.77 51.1297 114.164 50.755 114.629C50.3803 115.094 50.0966 115.628 49.923 116.208C49.7494 116.788 49.6888 117.409 49.7605 118.047L49.8293 118.663L49.8982 119.279L49.9671 119.894L50.0359 120.51C50.1076 121.148 50.3059 121.742 50.6035 122.267C50.901 122.793 51.2977 123.252 51.7661 123.625C52.2344 123.997 52.7716 124.279 53.3557 124.451C53.937 124.624 54.5651 124.684 55.207 124.613Z" fill="#FDF8F1"/>
<path d="M54.6753 125.817C54.0141 125.817 53.3639 125.707 52.7496 125.491C52.1352 125.278 51.5539 124.958 51.0277 124.542C50.4161 124.057 49.9175 123.466 49.551 122.806C49.1846 122.147 48.9477 121.413 48.8623 120.639L48.7246 119.407L48.5868 118.176C48.4987 117.404 48.5675 116.638 48.7769 115.913C48.989 115.187 49.3417 114.503 49.8321 113.896C50.3197 113.288 50.9148 112.793 51.5787 112.429C52.2426 112.065 52.981 111.829 53.7579 111.744L54.3998 111.673L55.0417 111.602C55.8213 111.517 56.5927 111.583 57.32 111.794C58.0473 112.004 58.7388 112.355 59.3504 112.839C59.962 113.326 60.4607 113.915 60.8271 114.574C61.1935 115.234 61.4304 115.967 61.5158 116.739L61.6536 117.971L61.7913 119.202C61.8795 119.974 61.8106 120.74 61.6012 121.465C61.3891 122.191 61.0365 122.875 60.5461 123.482C60.0585 124.09 59.4634 124.585 58.7994 124.949C58.1355 125.313 57.3972 125.549 56.6203 125.636L55.9784 125.707L55.3365 125.779C55.2263 125.789 55.1161 125.8 55.0059 125.806C54.8957 125.811 54.7855 125.814 54.6753 125.814V125.817ZM55.7029 113.915C55.6368 113.915 55.5706 113.915 55.5045 113.92C55.4384 113.923 55.3723 113.931 55.3062 113.937L54.6643 114.008L54.0223 114.079C53.5595 114.131 53.1187 114.27 52.722 114.487C52.3253 114.703 51.9727 114.998 51.6806 115.362C51.3886 115.726 51.1765 116.134 51.0525 116.567C50.9258 116.999 50.8872 117.456 50.9395 117.916L51.0773 119.147L51.215 120.379C51.2674 120.839 51.4079 121.277 51.6255 121.671C51.8432 122.065 52.1407 122.418 52.5071 122.705C52.8708 122.995 53.2813 123.206 53.7165 123.329C54.1518 123.452 54.6119 123.493 55.0775 123.441L55.7194 123.37L56.3613 123.299C56.8241 123.247 57.2649 123.107 57.6617 122.891C58.0584 122.675 58.411 122.379 58.703 122.018C58.9951 121.657 59.2072 121.246 59.3312 120.814C59.4579 120.382 59.4965 119.925 59.4469 119.462L59.3091 118.231L59.1714 116.999C59.119 116.539 58.9785 116.101 58.7609 115.707C58.5432 115.313 58.2457 114.96 57.8793 114.673C57.5652 114.424 57.2209 114.235 56.8544 114.106C56.488 113.978 56.0996 113.912 55.7056 113.912L55.7029 113.915Z" fill="#1D6148"/>
<path d="M68.4114 120.486L68.72 120.395L69.0286 120.305L69.3371 120.215L69.6457 120.124C70.2655 119.944 70.8193 119.648 71.2904 119.265C71.7615 118.882 72.1472 118.417 72.4364 117.894C72.723 117.371 72.9103 116.797 72.9819 116.197C73.0508 115.598 73.004 114.974 72.8221 114.358L72.6458 113.764L72.4695 113.17L72.2932 112.576L72.1169 111.983C71.935 111.367 71.6375 110.817 71.2518 110.349C70.8661 109.881 70.3978 109.498 69.8716 109.21C69.3454 108.926 68.7668 108.74 68.1635 108.668C67.5602 108.6 66.932 108.646 66.3122 108.827L66.0036 108.917L65.6951 109.008L65.3865 109.098L65.0779 109.188C64.4581 109.369 63.9043 109.665 63.4332 110.048C62.9621 110.431 62.5764 110.896 62.2872 111.419C62.0006 111.942 61.8133 112.516 61.7417 113.116C61.6728 113.715 61.7196 114.339 61.9015 114.955L62.0778 115.549L62.2541 116.142L62.4304 116.736L62.6067 117.33C62.7886 117.946 63.0861 118.496 63.4718 118.964C63.8575 119.432 64.3258 119.815 64.852 120.103C65.3782 120.387 65.9568 120.573 66.5601 120.644C67.1634 120.713 67.7916 120.666 68.4114 120.486Z" fill="#FDF8F1"/>
<path d="M67.0861 121.849C66.6012 121.849 66.1191 121.788 65.648 121.668C65.1769 121.548 64.7196 121.37 64.2815 121.132C63.5955 120.759 63.0005 120.264 62.5239 119.676C62.0473 119.087 61.6891 118.406 61.4687 117.661L61.1188 116.474L60.7689 115.286C60.5486 114.539 60.4824 113.772 60.5651 113.023C60.6477 112.273 60.8764 111.539 61.2538 110.855C61.6285 110.174 62.1271 109.582 62.7195 109.112C63.3118 108.638 63.9978 108.28 64.7471 108.061L65.367 107.88L65.9868 107.7C66.739 107.483 67.5076 107.415 68.2652 107.497C69.0201 107.579 69.7611 107.806 70.4471 108.181C71.1331 108.553 71.7254 109.049 72.202 109.634C72.6786 110.22 73.0368 110.904 73.2572 111.649L73.6071 112.836L73.957 114.024C74.1774 114.771 74.2435 115.538 74.1636 116.287C74.0837 117.037 73.8523 117.774 73.4748 118.455C73.1002 119.136 72.6015 119.725 72.0092 120.198C71.4169 120.672 70.7309 121.028 69.9788 121.249L69.3589 121.43L68.7391 121.61C68.4663 121.69 68.1908 121.75 67.9153 121.788C67.6398 121.827 67.3616 121.849 67.0833 121.849H67.0861ZM67.6371 109.812C67.4718 109.812 67.3065 109.823 67.1412 109.848C66.9759 109.873 66.8133 109.908 66.6508 109.955L66.0309 110.135L65.4111 110.316C64.962 110.447 64.5543 110.658 64.2016 110.943C63.849 111.224 63.5515 111.578 63.3283 111.983C63.1052 112.39 62.9674 112.828 62.9178 113.274C62.8682 113.72 62.9096 114.18 63.039 114.624L63.3889 115.811L63.7388 116.999C63.871 117.445 64.0859 117.85 64.3697 118.2C64.6534 118.551 65.0088 118.846 65.4166 119.071C65.8271 119.292 66.2679 119.429 66.7169 119.479C67.166 119.528 67.626 119.487 68.0751 119.358L68.695 119.177L69.3148 118.997C69.7639 118.865 70.1716 118.655 70.5243 118.37C70.8769 118.088 71.1744 117.735 71.3976 117.33C71.6207 116.922 71.7585 116.485 71.8081 116.036C71.8577 115.587 71.8163 115.13 71.6869 114.686L71.337 113.499L70.9871 112.311C70.8549 111.865 70.6427 111.46 70.359 111.11C70.0752 110.759 69.7226 110.464 69.3121 110.242C69.0504 110.1 68.7776 109.993 68.4966 109.922C68.2156 109.851 67.9291 109.815 67.6371 109.815V109.812Z" fill="#1D6148"/>
<path d="M82.2523 135.376C83.9246 138.814 83.6271 142.798 81.7923 146.46C79.9574 150.122 76.5854 153.461 72.1141 155.606C67.64 157.755 62.9125 158.305 58.8847 157.459C54.857 156.614 51.529 154.372 49.8567 150.935C48.1845 147.497 48.482 143.513 50.3168 139.851C52.1516 136.189 55.5237 132.85 59.995 130.705C64.4691 128.556 69.1966 128.006 73.2243 128.852C77.2521 129.698 80.5801 131.939 82.2523 135.376Z" fill="#FDF8F1"/>
<path d="M62.6589 159C59.6064 159 56.7302 158.329 54.3251 157.049C51.9173 155.768 49.9778 153.88 48.7932 151.447C47.9033 149.616 47.4983 147.626 47.5782 145.573C47.6581 143.521 48.2201 141.405 49.2588 139.328C50.2753 137.303 51.6886 135.428 53.4215 133.789C55.1544 132.15 57.2013 130.743 59.4824 129.646C64.2402 127.36 69.2928 126.802 73.6099 127.746C77.9269 128.69 81.5056 131.137 83.3183 134.862C85.1311 138.587 84.8391 142.891 82.9024 146.841C80.9656 150.787 77.3897 154.375 72.6291 156.66C70.9816 157.451 69.2983 158.037 67.6206 158.423C65.9428 158.808 64.2761 158.997 62.6589 158.997V159ZM69.494 129.643C68.0448 129.643 66.5461 129.815 65.0364 130.166C63.5267 130.516 62.0032 131.044 60.51 131.761C58.4631 132.744 56.631 134 55.0827 135.458C53.5345 136.917 52.2754 138.578 51.3746 140.374C50.5012 142.117 50.0219 143.882 49.9475 145.584C49.8704 147.287 50.1954 148.926 50.9228 150.423C52.4518 153.565 55.5346 155.598 59.2786 156.345C63.0225 157.092 67.4277 156.553 71.6015 154.55C75.7725 152.547 78.9352 149.451 80.6708 146.072C82.4065 142.692 82.7178 139.03 81.1888 135.888C80.208 133.871 78.5826 132.308 76.5549 131.252C74.5273 130.196 72.0946 129.643 69.494 129.643Z" fill="#1D6148"/>
</g>
<path d="M48.7242 144.328C41.115 144.328 35.0348 143.069 30.2384 141.285C25.442 139.501 21.9294 137.188 19.4527 135.078C16.6344 132.678 14.4359 129.886 13.0364 127.065C11.6369 124.243 11.0363 121.392 11.411 118.871C11.6176 117.483 11.984 116.197 12.4965 115.042C13.0089 113.89 13.6646 112.872 14.4552 112.018C15.2817 111.126 16.2487 110.417 17.3231 109.905C18.3976 109.394 19.5877 109.082 20.855 108.98C21.9653 108.896 23.0948 108.931 24.2822 109.098C25.4696 109.265 26.7148 109.563 28.062 109.996C29.0069 110.3 29.9409 110.65 30.861 111.022C31.7812 111.394 32.6903 111.786 33.5829 112.171L34.4507 112.546L35.3186 112.921C35.8943 113.176 36.6161 113.493 37.4536 113.835C38.2912 114.178 39.2444 114.541 40.283 114.886C41.8285 115.404 43.3107 115.792 44.7185 116.049C46.1263 116.307 47.4569 116.441 48.7049 116.441C49.9529 116.441 51.2836 116.309 52.6913 116.049C54.0991 115.789 55.5785 115.401 57.1268 114.886C58.1655 114.541 59.1187 114.175 59.9562 113.835C60.7937 113.496 61.5155 113.176 62.0913 112.921L62.9591 112.546L63.8269 112.171C64.7195 111.786 65.6286 111.394 66.5488 111.022C67.469 110.65 68.4029 110.3 69.3478 109.996C70.695 109.561 71.9403 109.265 73.1277 109.098C74.315 108.931 75.4418 108.896 76.5521 108.98C77.8166 109.082 78.9985 109.394 80.0702 109.905C81.1418 110.417 82.1061 111.129 82.9298 112.024C83.7067 112.869 84.3596 113.882 84.8748 115.029C85.39 116.178 85.7674 117.462 85.9933 118.852C86.3129 120.822 85.9162 123.422 84.6379 126.227C83.3568 129.033 81.1942 132.043 77.9819 134.826C75.4831 136.994 71.9485 139.367 67.1494 141.2C62.3502 143.034 56.2838 144.326 48.7187 144.326L48.7242 144.328ZM22.0204 111.285C21.8551 111.285 21.6925 111.287 21.53 111.293C21.3674 111.298 21.2049 111.309 21.0451 111.32C20.0671 111.397 19.169 111.63 18.359 112.01C17.5491 112.39 16.8273 112.924 16.1964 113.606C15.5682 114.284 15.0448 115.108 14.6315 116.049C14.2211 116.994 13.9235 118.055 13.75 119.21C13.4882 120.956 13.8684 123.258 15.0283 125.732C16.1881 128.206 18.1276 130.853 20.9928 133.294C23.3179 135.275 26.6267 137.445 31.1641 139.12C35.7043 140.795 41.4731 141.977 48.7242 141.977C55.9753 141.977 61.678 140.765 66.2182 139.044C70.7584 137.322 74.0864 135.092 76.4336 133.058C79.2877 130.582 81.2272 127.924 82.3871 125.483C83.5469 123.042 83.9271 120.822 83.6654 119.227C83.4753 118.064 83.1667 116.996 82.7507 116.052C82.3347 115.108 81.8085 114.281 81.1887 113.606C80.5633 112.924 79.8442 112.39 79.0398 112.01C78.2353 111.627 77.3427 111.397 76.3702 111.32C75.4198 111.246 74.4445 111.282 73.4087 111.433C72.3728 111.583 71.2763 111.846 70.0807 112.229C69.1908 112.516 68.2982 112.853 67.4083 113.211C66.5212 113.57 65.6397 113.95 64.7719 114.325L63.9123 114.697L63.0528 115.07C62.4577 115.332 61.7083 115.661 60.8378 116.017C59.9672 116.372 58.9727 116.753 57.8817 117.114C56.2149 117.67 54.6088 118.088 53.077 118.37C51.5453 118.649 50.0852 118.792 48.7104 118.792C47.3357 118.792 45.8756 118.649 44.3438 118.37C42.8121 118.091 41.2059 117.672 39.5392 117.114C38.4482 116.75 37.4536 116.37 36.5831 116.017C35.7125 115.661 34.9632 115.332 34.3681 115.07L33.5085 114.697L32.649 114.325C31.7812 113.95 30.8996 113.57 30.0125 113.211C29.1254 112.853 28.23 112.516 27.3402 112.229C26.3484 111.909 25.4227 111.673 24.5439 111.517C23.6651 111.361 22.8331 111.285 22.0259 111.285H22.0204Z" fill="#1D6148"/>
<path d="M6.21798 14.2393C6.10227 14.2393 5.98656 14.2229 5.87361 14.1873C5.76066 14.1518 5.65046 14.0998 5.54853 14.0313C5.27854 13.848 5.11049 13.5716 5.05814 13.276C5.00304 12.9804 5.06365 12.663 5.24823 12.3975C7.73321 8.81509 11.0226 5.8676 14.7832 3.73841C18.5409 1.60921 22.7725 0.301044 27.1419 1.02393e-06C27.467 -0.010946 27.7728 0.101261 27.9987 0.295571C28.2274 0.48988 28.3789 0.769029 28.4009 1.09197C28.423 1.4149 28.3128 1.71868 28.1144 1.94583C27.9161 2.17298 27.6295 2.32351 27.3045 2.3454C23.3511 2.61634 19.4473 3.84241 15.9705 5.81287C12.4938 7.7806 9.44129 10.4927 7.19324 13.733C7.07753 13.8972 6.92876 14.0259 6.76071 14.1107C6.59266 14.1955 6.40532 14.2421 6.21798 14.2421V14.2393Z" fill="#1D6148"/>
<path d="M106.821 14.2393C106.634 14.2393 106.446 14.1955 106.278 14.1079C106.11 14.0231 105.962 13.8944 105.846 13.7302C103.595 10.4899 100.545 7.77779 97.0685 5.81006C93.5918 3.84233 89.688 2.61627 85.7346 2.34259C85.4095 2.3207 85.123 2.17018 84.9247 1.94303C84.7263 1.71588 84.6134 1.41483 84.6382 1.08916C84.6602 0.766222 84.8117 0.487073 85.0404 0.292763C85.269 0.0984534 85.5721 -0.0137536 85.8972 -0.00280659C90.2665 0.298236 94.4982 1.60641 98.2559 3.7356C102.016 5.8648 105.306 8.81228 107.791 12.3947C107.975 12.6602 108.036 12.9776 107.981 13.2732C107.926 13.5688 107.758 13.8424 107.491 14.0285C107.389 14.0997 107.278 14.1517 107.165 14.1845C107.053 14.2201 106.937 14.2365 106.821 14.2365V14.2393Z" fill="#1D6148"/>
<path d="M52.0438 98.2303C51.0383 97.7979 50.0327 97.3655 49.0272 96.9358C48.0216 96.5034 47.016 96.071 46.0105 95.6413C44.8589 95.146 43.6329 94.6506 42.4042 94.3906C41.1755 94.1307 39.9413 94.106 38.7732 94.5576C37.718 94.9654 36.864 95.7481 36.28 96.7087C35.6959 97.6693 35.3818 98.8105 35.4094 99.9326C35.4369 101.057 35.7675 102.147 36.3103 103.132C36.853 104.117 37.6051 105.001 38.4812 105.713C39.4289 106.482 40.5198 107.07 41.6797 107.45C42.8395 107.831 44.071 108.006 45.2914 107.949C46.5119 107.891 47.7213 107.604 48.8398 107.114C49.9583 106.627 50.9915 105.94 51.8593 105.083" fill="#FDF8F1"/>
<path d="M44.8423 109.134C43.5612 109.134 42.2774 108.909 41.068 108.482C39.8586 108.055 38.7208 107.429 37.729 106.621C36.6628 105.754 35.8005 104.697 35.1972 103.553C34.5938 102.409 34.2522 101.178 34.2219 99.96C34.1861 98.5314 34.5911 97.1466 35.3184 95.9999C36.0457 94.8532 37.0926 93.9446 38.3406 93.4602C39.6933 92.9375 41.0707 92.9293 42.4372 93.1947C43.8037 93.4602 45.1619 93.9966 46.4787 94.5604L49.4954 95.8549L52.5121 97.1494C52.8124 97.278 53.03 97.5161 53.143 97.7952C53.2532 98.0744 53.2587 98.3973 53.1292 98.6929C52.9997 98.9912 52.7601 99.2074 52.479 99.3196C52.198 99.4291 51.873 99.4345 51.5754 99.3059L48.5587 98.0114L45.5421 96.7169C44.4511 96.249 43.3326 95.8001 42.2554 95.5593C41.1782 95.3185 40.1368 95.2856 39.2001 95.6469C38.4205 95.9479 37.7565 96.5473 37.2937 97.3026C36.8309 98.058 36.5664 98.9693 36.5912 99.8998C36.6132 100.781 36.8722 101.679 37.324 102.522C37.7786 103.365 38.426 104.15 39.2304 104.804C40.0624 105.48 41.0267 105.997 42.0515 106.331C43.0764 106.665 44.1618 106.821 45.2363 106.775C46.3107 106.725 47.3769 106.468 48.3659 106.038C49.3549 105.609 50.2641 105.001 51.0299 104.248C51.2614 104.021 51.5644 103.906 51.8674 103.909C52.1705 103.909 52.4708 104.027 52.7022 104.257C52.9309 104.487 53.0466 104.788 53.0438 105.089C53.0438 105.39 52.9254 105.688 52.6939 105.918C51.7242 106.87 50.5699 107.639 49.3163 108.187C48.0628 108.734 46.7129 109.057 45.3492 109.12C45.2666 109.123 45.1812 109.128 45.0985 109.128C45.0159 109.128 44.9305 109.131 44.8478 109.131L44.8423 109.134Z" fill="#1D6148"/>
<path d="M47.9667 151.556C44.8068 151.556 41.746 151.277 38.8533 150.729C35.9606 150.185 33.2387 149.375 30.7592 148.313C30.4589 148.184 30.2413 147.949 30.1283 147.67C30.0154 147.391 30.0126 147.068 30.1394 146.772C30.2688 146.474 30.5058 146.258 30.7868 146.148C31.0678 146.039 31.3901 146.033 31.6932 146.159C34.0294 147.158 36.597 147.919 39.3216 148.433C42.0463 148.948 44.928 149.211 47.8896 149.211C50.8512 149.211 53.7907 148.948 56.5264 148.433C59.2621 147.919 61.8297 147.158 64.1631 146.159C64.4634 146.033 64.7858 146.036 65.0668 146.148C65.3478 146.26 65.5847 146.477 65.7142 146.775C65.8437 147.073 65.8382 147.393 65.7252 147.673C65.6123 147.952 65.3946 148.19 65.0943 148.316C62.6121 149.375 59.8902 150.185 57.0085 150.732C54.1268 151.277 51.0853 151.559 47.964 151.559L47.9667 151.556Z" fill="#1D6148"/>
</g>
<defs>
<clipPath id="clip0_608_8321">
<rect width="108" height="159" fill="white"/>
</clipPath>
</defs>
</svg>
