<svg width="120" height="80" viewBox="0 0 120 80" fill="none" xmlns="http://www.w3.org/2000/svg">
<g clip-path="url(#clip0_608_8718)">
<path d="M23.499 1.14307C18.0179 1.14307 12.9899 4.226 9.05158 9.37133C5.11331 14.514 2.2622 21.7164 1.14307 29.9527L7.50878 33.8696L13.8745 37.7866L7.50878 41.7035L1.14307 45.6205C2.26486 53.8567 5.11331 61.0565 9.05158 66.1991C12.9899 71.3418 18.0206 74.4274 23.499 74.4274C29.8194 74.4274 35.5403 70.3266 39.6811 63.6971C43.8219 57.0676 46.3852 47.9067 46.3852 37.7892C46.3852 27.6718 43.8245 18.5109 39.6811 11.8814C35.5403 5.25187 29.8168 1.15106 23.499 1.15106V1.14307Z" fill="#1D6148"/>
<path d="M23.4991 75.5652C17.7783 75.5652 12.5024 72.5009 8.35892 67.2464C4.21548 61.9891 1.20449 54.5416 0.0107495 45.7697C-0.0185611 45.5459 0.0187433 45.3221 0.109339 45.1276C0.2026 44.9304 0.351817 44.7625 0.543668 44.6426L6.118 41.2133L11.6923 37.7839L6.118 34.3546L0.543668 30.9253C0.351817 30.808 0.2026 30.6375 0.109339 30.4403C0.0160787 30.2431 -0.0212257 30.022 0.0107495 29.7982C1.20449 21.0236 4.21548 13.5761 8.35892 8.31886C12.5024 3.06428 17.7783 0 23.4991 0C30.1233 0 36.132 4.23671 40.4833 11.0794C44.8345 17.9221 47.5285 27.3654 47.5285 37.7839C47.5285 48.2025 44.8345 57.6458 40.4833 64.4885C36.132 71.3312 30.126 75.5679 23.4991 75.5679V75.5652ZM2.38224 46.1961C3.56265 54.0646 6.35515 60.8354 10.0936 65.6396C13.8347 70.4439 18.5243 73.279 23.4991 73.279C29.4945 73.279 34.9303 69.2981 38.8659 62.8711C42.8041 56.4441 45.2422 47.571 45.2422 37.7839C45.2422 27.9969 42.8041 19.1238 38.8659 12.6968C34.9276 6.26979 29.4918 2.28889 23.4991 2.28889C18.5243 2.28889 13.8347 5.12401 10.0936 9.92828C6.35248 14.7325 3.55999 21.5033 2.38224 29.3718L8.4282 33.0916L14.4742 36.8114C14.642 36.9153 14.7779 37.0592 14.8712 37.2271C14.9645 37.3949 15.0177 37.5868 15.0177 37.7839C15.0177 37.9811 14.9671 38.173 14.8739 38.3408C14.7806 38.5087 14.6447 38.6526 14.4742 38.7565L8.4282 42.4763L2.38224 46.1961Z" fill="#1D6148"/>
<path d="M23.4991 1.14319C22.3107 1.14319 21.1463 1.28974 20.0085 1.56686C18.8707 1.84664 17.7596 2.25965 16.6831 2.7979C21.3382 5.12143 25.3537 9.75782 28.2075 15.8704C31.0613 21.9803 32.7506 29.5664 32.7506 37.7814C32.7506 45.9963 31.0613 53.5824 28.2075 59.6923C25.3537 65.8022 21.3382 70.4413 16.6831 72.7648C17.7596 73.3031 18.8707 73.7161 20.0085 73.9959C21.1463 74.2756 22.3134 74.4195 23.4991 74.4195C29.8196 74.4195 35.5404 70.3187 39.6812 63.6892C43.822 57.0597 46.3853 47.8988 46.3853 37.7814C46.3853 27.6639 43.8247 18.503 39.6812 11.8735C35.5404 5.244 29.8169 1.14319 23.4991 1.14319Z" fill="#A4C988"/>
<path d="M23.4992 75.5652C22.2495 75.5652 21.0078 75.416 19.7821 75.1203C18.559 74.8245 17.352 74.3795 16.1715 73.7906C15.977 73.6947 15.8198 73.5455 15.7106 73.3696C15.6013 73.1911 15.54 72.9859 15.54 72.7674C15.54 72.5489 15.6013 72.3438 15.7106 72.1652C15.8198 71.9867 15.9797 71.8401 16.1715 71.7442C20.7147 69.4767 24.573 64.8509 27.2962 58.8609C30.0194 52.8709 31.6049 45.514 31.6049 37.784C31.6049 30.054 30.0194 22.697 27.2962 16.707C24.573 10.717 20.7147 6.09128 16.1715 3.82371C15.977 3.72779 15.8198 3.57857 15.7106 3.40271C15.6013 3.22418 15.54 3.01901 15.54 2.80051C15.54 2.58201 15.6013 2.37684 15.7106 2.19831C15.8198 2.01978 15.9797 1.87323 16.1715 1.77731C17.352 1.18843 18.559 0.743443 19.7847 0.447673C21.0078 0.151903 22.2495 0.00268555 23.4992 0.00268555C30.1234 0.00268555 36.132 4.23939 40.4833 11.0821C44.8346 17.9247 47.5285 27.3681 47.5285 37.7866C47.5285 48.2052 44.8346 57.6485 40.4833 64.4912C36.132 71.3339 30.126 75.5706 23.4992 75.5706V75.5652ZM19.2571 72.5942C19.9526 72.8207 20.6561 72.9912 21.3648 73.1058C22.0736 73.2204 22.7851 73.2764 23.4992 73.2764C29.4945 73.2764 34.9303 69.2955 38.8659 62.8685C42.8042 56.4415 45.2423 47.5684 45.2423 37.7813C45.2423 27.9942 42.8042 19.1212 38.8659 12.6941C34.9276 6.26715 29.4919 2.28624 23.4992 2.28624C22.7851 2.28624 22.0736 2.34486 21.3648 2.45944C20.6561 2.57402 19.9553 2.74455 19.2571 2.97371C23.675 5.8941 27.3335 10.7517 29.8862 16.803C32.4389 22.8516 33.8884 30.094 33.8884 37.784C33.8884 45.474 32.4389 52.7164 29.8862 58.765C27.3335 64.8136 23.675 69.6712 19.2545 72.5942H19.2571Z" fill="#1D6148"/>
<path d="M95.9707 1.14319C90.4896 1.14319 85.4615 4.22612 81.5233 9.37146C77.585 14.5141 74.7339 21.7165 73.6147 29.9528L79.9805 33.8697L86.3462 37.7867L79.9805 41.7036L73.6147 45.6206C74.7365 53.8569 77.585 61.0566 81.5233 66.1993C85.4615 71.3419 90.4923 74.4275 95.9707 74.4275C102.291 74.4275 108.012 70.3267 112.153 63.6972C116.294 57.0677 118.857 47.9068 118.857 37.7894C118.857 27.6719 116.296 18.511 112.153 11.8815C108.009 5.25199 102.288 1.15118 95.9707 1.15118V1.14319Z" fill="#1D6148"/>
<path d="M95.9708 75.5652C90.2499 75.5652 84.974 72.501 80.8306 67.2464C76.6872 61.9891 73.6762 54.5416 72.4824 45.7698C72.4531 45.5459 72.4904 45.3221 72.581 45.1276C72.6743 44.9304 72.8235 44.7625 73.0153 44.6426L78.5897 41.2133L84.164 37.784L78.5897 34.3546L73.0153 30.9253C72.8235 30.8081 72.6743 30.6375 72.581 30.4403C72.4878 30.2432 72.4505 30.022 72.4824 29.7982C73.6762 21.0263 76.6872 13.5761 80.8306 8.32155C84.974 3.0643 90.2499 0.00268555 95.9708 0.00268555C102.595 0.00268555 108.604 4.23939 112.955 11.0821C117.306 17.9247 120 27.3681 120 37.7866C120 48.2052 117.306 57.6485 112.955 64.4912C108.604 71.3339 102.598 75.5706 95.9708 75.5706V75.5652ZM74.8513 46.1961C76.0317 54.0646 78.8242 60.8354 82.5626 65.6396C86.3037 70.4439 90.9934 73.279 95.9682 73.279C101.963 73.279 107.399 69.2981 111.335 62.8711C115.273 56.4441 117.711 47.571 117.711 37.784C117.711 27.9969 115.273 19.1238 111.335 12.6968C107.397 6.26981 101.961 2.28891 95.9682 2.28891C90.9934 2.28891 86.3037 5.12404 82.5626 9.9283C78.8215 14.7326 76.029 21.5033 74.8513 29.3718L80.8972 33.0916L86.9432 36.8114C87.1111 36.9153 87.2469 37.0592 87.3402 37.2271C87.4335 37.3949 87.4868 37.5868 87.4868 37.784C87.4868 37.9812 87.4361 38.173 87.3429 38.3409C87.2496 38.5087 87.1137 38.6526 86.9432 38.7565L80.8972 42.4763L74.8513 46.1961Z" fill="#1D6148"/>
<path d="M95.9708 1.14319C94.7824 1.14319 93.618 1.28974 92.4802 1.56686C91.3424 1.84664 90.2313 2.25965 89.1548 2.7979C93.8098 5.12143 97.8254 9.75782 100.679 15.8704C103.533 21.9803 105.222 29.5664 105.222 37.7814C105.222 45.9963 103.533 53.5824 100.679 59.6923C97.8254 65.8022 93.8098 70.4413 89.1548 72.7648C90.2313 73.3031 91.3424 73.7161 92.4802 73.9959C93.618 74.2756 94.7851 74.4195 95.9708 74.4195C102.291 74.4195 108.012 70.3187 112.153 63.6892C116.294 57.0597 118.857 47.8988 118.857 37.7814C118.857 27.6639 116.296 18.503 112.153 11.8735C108.009 5.244 102.289 1.14319 95.9708 1.14319Z" fill="#A4C988"/>
<path d="M95.9709 75.5652C94.7185 75.5652 93.4768 75.416 92.2538 75.1203C91.0307 74.8245 89.8236 74.3795 88.6432 73.7906C88.4487 73.6947 88.2915 73.5455 88.1823 73.3696C88.073 73.1911 88.0117 72.9859 88.0117 72.7674C88.0117 72.5489 88.073 72.3438 88.1823 72.1652C88.2915 71.9867 88.4514 71.8401 88.6432 71.7442C93.1864 69.4767 97.0447 64.8509 99.7652 58.8609C102.488 52.8709 104.074 45.514 104.074 37.784C104.074 30.054 102.488 22.697 99.7652 16.707C97.042 10.717 93.1864 6.09128 88.6432 3.82371C88.4487 3.72779 88.2915 3.57857 88.1823 3.40271C88.073 3.22418 88.0117 3.01901 88.0117 2.80051C88.0117 2.58201 88.073 2.37684 88.1823 2.19831C88.2915 2.01978 88.4514 1.87323 88.6432 1.77731C89.8236 1.18843 91.0307 0.743443 92.2538 0.447673C93.4768 0.151903 94.7185 0.00268555 95.9709 0.00268555C102.595 0.00268555 108.604 4.23939 112.955 11.0821C117.306 17.9247 120 27.3681 120 37.7866C120 48.2052 117.306 57.6485 112.955 64.4912C108.604 71.3339 102.598 75.5706 95.9709 75.5706V75.5652ZM91.7288 72.5942C92.4243 72.8207 93.1277 72.9912 93.8365 73.1058C94.5453 73.2204 95.2568 73.2764 95.9709 73.2764C101.966 73.2764 107.402 69.2955 111.338 62.8685C115.276 56.4415 117.714 47.5684 117.714 37.7813C117.714 27.9942 115.276 19.1212 111.338 12.6941C107.399 6.26715 101.964 2.28624 95.9709 2.28624C95.2568 2.28624 94.5453 2.34486 93.8365 2.45678C93.1277 2.57135 92.427 2.74189 91.7288 2.96838C96.1467 5.89144 99.8052 10.749 102.358 16.7976C104.911 22.8463 106.36 30.0886 106.36 37.7813C106.36 45.474 104.911 52.7137 102.358 58.765C99.8052 64.8136 96.1467 69.6712 91.7288 72.5942Z" fill="#1D6148"/>
<path d="M54.8003 56.468C54.8003 57.4246 55.3812 58.288 56.3244 58.9141C57.265 59.5403 58.5654 59.9267 60.0016 59.9267C61.4378 59.9267 62.7381 59.5403 63.6787 58.9141C64.6193 58.288 65.2029 57.422 65.2029 56.468C65.2029 55.5141 64.622 54.6481 63.6787 54.0219C62.7355 53.3958 61.4378 53.0094 60.0016 53.0094C58.5654 53.0094 57.265 53.3958 56.3244 54.0219C55.3838 54.6481 54.8003 55.5141 54.8003 56.468Z" fill="#1D6148"/>
<path d="M59.9987 61.0725C58.2214 61.0725 56.6333 60.5662 55.4929 59.7402C54.3524 58.9115 53.6543 57.7604 53.6543 56.4708C53.6543 55.1811 54.3498 54.0273 55.4929 53.2013C56.6333 52.3726 58.2187 51.8663 59.9987 51.8663C61.7786 51.8663 63.3641 52.3726 64.5045 53.2013C65.645 54.03 66.3431 55.1811 66.3431 56.4708C66.3431 57.7604 65.6476 58.9115 64.5045 59.7402C63.3641 60.5689 61.776 61.0725 59.9987 61.0725ZM59.9987 54.1526C58.8023 54.1526 57.7897 54.459 57.073 54.9013C56.3589 55.3436 55.9405 55.9218 55.9405 56.4708C55.9405 57.0197 56.3562 57.5979 57.073 58.0402C57.7871 58.4825 58.8023 58.789 59.9987 58.789C61.1951 58.789 62.2076 58.4825 62.9244 58.0402C63.6412 57.5979 64.0569 57.0197 64.0569 56.4708C64.0569 55.9218 63.6412 55.3436 62.9244 54.9013C62.2076 54.459 61.1951 54.1526 59.9987 54.1526Z" fill="#1D6148"/>
<path d="M73.7106 78.792C73.6014 78.792 73.4921 78.776 73.3855 78.7441C73.2789 78.7121 73.175 78.6641 73.0764 78.6002C72.2104 78.022 71.5096 77.2093 71.0353 76.282C70.561 75.3547 70.3106 74.3128 70.3479 73.271C70.3852 72.2318 70.7049 71.2086 71.2458 70.316C71.7841 69.4233 72.5408 68.6639 73.4441 68.147C73.7186 67.9898 74.0304 67.9578 74.3101 68.0351C74.5899 68.1123 74.8457 68.2989 75.0029 68.5733C75.1601 68.8478 75.1895 69.1595 75.1122 69.442C75.0349 69.7244 74.851 69.9775 74.5766 70.1348C74.009 70.4598 73.5347 70.9368 73.1963 71.4964C72.8579 72.0559 72.6554 72.7008 72.6314 73.3536C72.6101 74.0064 72.7673 74.6619 73.0658 75.2455C73.3642 75.829 73.8039 76.3379 74.3474 76.7003C74.6086 76.8762 74.7764 77.14 74.8324 77.4278C74.8883 77.7155 74.8377 78.0246 74.6619 78.2858C74.5526 78.451 74.4061 78.5762 74.2409 78.6641C74.0756 78.7521 73.8945 78.7947 73.7079 78.7947L73.7106 78.792Z" fill="#1D6148"/>
<path d="M46.2894 78.792C46.1055 78.792 45.9217 78.7467 45.7565 78.6614C45.5913 78.5762 45.4474 78.4483 45.3355 78.2831C45.1596 78.0193 45.109 77.7102 45.1649 77.4251C45.2209 77.1373 45.3888 76.8735 45.6499 76.6976C46.1935 76.3352 46.6331 75.8236 46.9316 75.2428C47.23 74.6592 47.3872 74.0064 47.3659 73.3509C47.3419 72.6981 47.1394 72.0532 46.801 71.4937C46.4626 70.9341 45.9883 70.4545 45.4207 70.1321C45.1463 69.9749 44.9624 69.7217 44.8851 69.4393C44.8079 69.1568 44.8399 68.8451 44.9944 68.5706C45.1516 68.2962 45.4047 68.1097 45.6872 68.0324C45.9696 67.9551 46.2814 67.9871 46.5558 68.1443C47.4591 68.6612 48.2159 69.4206 48.7541 70.3133C49.2924 71.2059 49.6148 72.2291 49.6521 73.2683C49.6894 74.3075 49.4389 75.352 48.9646 76.2793C48.4903 77.2066 47.7896 78.0193 46.9236 78.5975C46.825 78.6614 46.7211 78.7094 46.6145 78.7414C46.5079 78.7734 46.3986 78.7893 46.2894 78.7893V78.792Z" fill="#1D6148"/>
<path d="M60.0202 75.1123L54.2514 75.019L48.4825 74.9257C48.1681 74.9204 47.883 74.7872 47.6805 74.5767C47.478 74.3662 47.3527 74.0784 47.3581 73.7613C47.3634 73.4495 47.494 73.1671 47.6991 72.9646C47.9043 72.7621 48.1894 72.6368 48.5012 72.6368H48.5198L54.27 72.7301L60.0202 72.8234L65.7518 72.7301L71.4833 72.6368H71.502C71.8137 72.6368 72.0962 72.7621 72.304 72.9646C72.5118 73.1671 72.6397 73.4495 72.6451 73.7613C72.6504 74.0784 72.5278 74.3662 72.3227 74.5767C72.1201 74.7872 71.835 74.9204 71.5206 74.9257L65.7704 75.019L60.0202 75.1123Z" fill="#1D6148"/>
<path d="M56.7828 70.5477C58.1177 70.5477 58.9224 71.2192 59.3941 71.8907C59.863 72.5622 60.0016 73.2336 60.0016 73.2336C60.0016 73.2336 60.1375 72.5622 60.6091 71.8907C61.0781 71.2192 61.8828 70.5477 63.2204 70.5477C64.2836 70.5477 65.099 71.4297 65.6479 72.3117C66.1968 73.1937 66.4792 74.0756 66.4792 74.0756C66.4792 74.0756 66.2074 75.1601 65.2642 76.2473C64.3182 77.3318 62.7008 78.4189 60.0043 78.4189C57.3077 78.4189 55.6876 77.3344 54.7444 76.2473C53.7984 75.1628 53.5293 74.0756 53.5293 74.0756C53.5293 74.0756 53.8117 73.1937 54.3606 72.3117C54.9096 71.4297 55.7249 70.5477 56.7881 70.5477H56.7828Z" fill="#1D6148"/>
<path d="M59.9988 79.5568C57.5127 79.5568 55.7275 78.7041 54.5097 77.6276C53.292 76.5511 52.6365 75.2481 52.4127 74.3475C52.3861 74.2435 52.3754 74.137 52.3807 74.033C52.3834 73.9265 52.402 73.8225 52.434 73.7213C52.506 73.5001 52.8737 72.421 53.5825 71.3951C54.2912 70.3719 55.3438 69.402 56.7826 69.402C57.5207 69.402 58.1522 69.5592 58.6825 69.815C59.2154 70.0708 59.6497 70.4252 59.9988 70.8142C60.3479 70.4225 60.7822 70.0708 61.3151 69.815C61.848 69.5592 62.4769 69.402 63.215 69.402C64.6538 69.402 65.7064 70.3719 66.4151 71.3951C67.1239 72.4183 67.4916 73.5001 67.5636 73.7213C67.5956 73.8225 67.6142 73.9265 67.6169 74.033C67.6195 74.1396 67.6089 74.2435 67.5849 74.3475C67.3611 75.2481 66.7056 76.5511 65.4879 77.6276C64.2701 78.7041 62.4849 79.5568 59.9988 79.5568ZM54.7336 74.089C54.9014 74.51 55.2985 75.3067 56.1138 75.9968C56.9292 76.687 58.1629 77.2705 59.9988 77.2705C61.8347 77.2705 63.0684 76.6843 63.8838 75.9942C64.6991 75.3041 65.0988 74.5073 65.264 74.089C65.0775 73.6254 64.7764 73.0258 64.4167 72.5409C64.057 72.0586 63.6386 71.6909 63.2123 71.6909C62.3836 71.6909 61.8693 72.0906 61.5576 72.5116C61.2458 72.9326 61.1339 73.3776 61.1153 73.4708C61.0566 73.7319 60.9101 73.9584 60.7129 74.1183C60.5157 74.2782 60.2653 74.3714 59.9988 74.3714H59.9881C59.719 74.3714 59.4659 74.2729 59.2714 74.113C59.0742 73.9531 58.9303 73.7266 58.877 73.4628C58.8584 73.3776 58.7491 72.9352 58.4347 72.5142C58.1229 72.0932 57.6087 71.6935 56.78 71.6935C56.3563 71.6935 55.938 72.0612 55.5782 72.5435C55.2185 73.0258 54.9174 73.6254 54.7309 74.0917L54.7336 74.089Z" fill="#1D6148"/>
</g>
<defs>
<clipPath id="clip0_608_8718">
<rect width="120" height="79.5568" fill="white"/>
</clipPath>
</defs>
</svg>
