<svg width="111" height="95" viewBox="0 0 111 95" fill="none" xmlns="http://www.w3.org/2000/svg">
<g clip-path="url(#clip0_608_8102)">
<path d="M51.1795 76.818C49.0787 77.3724 46.513 77.2495 44.0159 76.6922C41.5187 76.1349 39.0872 75.1491 37.2516 73.9835C36.3844 73.4321 35.5441 72.7849 34.6621 72.2486C33.783 71.7122 32.8622 71.2837 31.8431 71.1729C31.7507 71.1639 31.6584 71.1549 31.563 71.1489C31.4676 71.1429 31.3753 71.1399 31.2829 71.1369C29.6589 71.098 28.1689 71.7422 27.0574 72.8029C25.9459 73.8636 25.2129 75.3408 25.0937 76.9709C25.0401 77.717 25.0073 78.487 25.0222 79.2181C25.0371 79.9493 25.0967 80.6384 25.2218 81.2227V83.6288C25.0967 84.2131 25.0371 84.9053 25.0222 85.6364C25.0073 86.3675 25.0401 87.1376 25.0937 87.8866C25.2129 89.5167 25.9459 90.9939 27.0604 92.0546C28.1719 93.1153 29.6589 93.7565 31.2859 93.7176C31.3782 93.7176 31.4736 93.7116 31.566 93.7056C31.6584 93.6996 31.7507 93.6906 31.8431 93.6816C32.8622 93.5708 33.78 93.1423 34.6621 92.6059C35.5411 92.0696 36.3844 91.4224 37.2516 90.871C38.7147 89.9392 40.5562 89.1242 42.508 88.5518C44.4599 87.9765 46.5189 87.6439 48.4231 87.6799C49.2276 87.6949 50.0024 87.8956 50.7057 88.2492C51.4059 88.6058 52.0317 89.1152 52.5323 89.7474C52.6068 89.8433 52.6336 89.9631 52.6158 90.071C52.5979 90.1819 52.5353 90.2837 52.431 90.3497C52.2373 90.4725 51.9602 90.5774 51.5847 90.5504C51.2093 90.5235 50.7414 90.3676 50.1663 89.9631C49.7074 89.6395 49.2306 89.0942 48.5691 88.6357C47.9076 88.1773 47.0583 87.8058 45.8604 87.8357" fill="#E8D7F3"/>
<path d="M31.1423 94.9999C31.1721 94.9999 31.1989 94.9999 31.2287 94.9999C31.2585 94.9999 31.2883 94.9999 31.3151 94.9999C31.4253 94.9999 31.5356 94.9939 31.6459 94.9849C31.7561 94.9759 31.8664 94.9669 31.9766 94.955C32.9272 94.8501 33.7914 94.5295 34.59 94.113C35.3886 93.6965 36.1216 93.1901 36.807 92.7107C36.9947 92.5818 37.1795 92.45 37.3672 92.3241C37.5549 92.1983 37.7427 92.0725 37.9304 91.9526C39.0508 91.2425 40.359 90.6252 41.7387 90.1398C43.1183 89.6544 44.5666 89.3008 45.9611 89.112C46.5929 89.103 47.0905 89.2559 47.5166 89.4926C47.9427 89.7293 48.3033 90.0469 48.6639 90.3735C48.798 90.4964 48.9291 90.6132 49.0542 90.7181C49.1824 90.826 49.3045 90.9248 49.4267 91.0087C50.3207 91.638 51.0895 91.8417 51.7093 91.8357C52.3291 91.8297 52.8029 91.623 53.1039 91.4312C53.3035 91.3054 53.4734 91.1376 53.6045 90.9428C53.7356 90.7481 53.825 90.5263 53.8667 90.2866C53.9084 90.0499 53.8965 89.8072 53.8399 89.5765C53.7833 89.3458 53.676 89.13 53.527 88.9412C52.8983 88.1472 52.1205 87.515 51.2534 87.0805C50.3862 86.646 49.4267 86.4033 48.4374 86.3853C46.4975 86.3464 44.3669 86.661 42.3019 87.2513C40.2368 87.8416 38.2373 88.7105 36.5626 89.7742C36.36 89.9031 36.1574 90.0379 35.9547 90.1757C35.7521 90.3136 35.5525 90.4514 35.3498 90.5922C34.733 91.0207 34.137 91.4372 33.5351 91.7638C32.9332 92.0904 32.3282 92.3271 31.7025 92.3961C31.628 92.405 31.5535 92.411 31.479 92.417C31.4045 92.423 31.33 92.426 31.2525 92.426C30.0218 92.438 28.8478 91.9316 27.9568 91.0956C27.0658 90.2596 26.4609 89.0941 26.3655 87.7876C26.3059 86.9546 26.2821 86.1996 26.3 85.5463C26.3179 84.8931 26.3745 84.3358 26.4669 83.8983C26.4758 83.8534 26.4847 83.8084 26.4877 83.7635C26.4937 83.7186 26.4937 83.6736 26.4937 83.6287V81.2226C26.4937 81.1776 26.4937 81.1327 26.4877 81.0877C26.4818 81.0428 26.4758 80.9979 26.4669 80.9529C26.3745 80.5154 26.3179 79.9611 26.3 79.3079C26.2821 78.6547 26.303 77.8996 26.3626 77.0636C26.4579 75.7542 27.0628 74.5886 27.9508 73.7526C28.8388 72.9166 30.0129 72.4103 31.2495 72.4252C31.324 72.4252 31.3985 72.4312 31.473 72.4342C31.5475 72.4402 31.622 72.4462 31.6965 72.4552C32.3253 72.5241 32.9302 72.7608 33.5321 73.0874C34.134 73.414 34.733 73.8305 35.3498 74.259C35.5495 74.3998 35.7521 74.5377 35.9547 74.6755C36.1574 74.8133 36.36 74.9482 36.5626 75.077C38.4787 76.2935 41.0235 77.3543 43.6875 77.9565C46.3485 78.5558 49.1257 78.6966 51.4977 78.0704C51.8404 77.9805 52.1116 77.7588 52.2755 77.4741C52.4394 77.1895 52.499 76.8419 52.4066 76.5003C52.3172 76.1557 52.0967 75.883 51.8136 75.7152C51.5305 75.5475 51.1848 75.4905 50.8451 75.5834C48.9201 76.0928 46.5213 75.952 44.1881 75.4216C41.8549 74.8883 39.5902 73.9654 37.9244 72.9076C37.7367 72.7878 37.549 72.6619 37.3612 72.5361C37.1735 72.4102 36.9888 72.2784 36.801 72.1496C36.1157 71.6731 35.3826 71.1638 34.584 70.7473C33.7854 70.3308 32.9212 70.0102 31.9736 69.9053C31.8634 69.8933 31.7531 69.8843 31.6399 69.8753C31.5296 69.8693 31.4164 69.8633 31.3061 69.8603C29.3454 69.7914 27.5456 70.5405 26.1987 71.808C24.8518 73.0754 23.9578 74.8673 23.8118 76.8838C23.7462 77.8127 23.7224 78.6547 23.7432 79.4038C23.7641 80.1529 23.8297 80.8061 23.9369 81.3634V83.5088C23.8297 84.0661 23.7641 84.7223 23.7432 85.4714C23.7224 86.2205 23.7433 87.0595 23.8148 87.9884C23.9578 89.975 24.8309 91.7309 26.145 92.9893C27.4591 94.2478 29.2173 95.0119 31.1333 95.0119L31.1423 94.9999Z" fill="#1E222B"/>
<path d="M108.312 88.4171C108.312 88.6119 108.39 88.7887 108.518 88.9175C108.646 89.0463 108.822 89.1242 109.016 89.1242C109.209 89.1242 109.385 89.0463 109.513 88.9175C109.641 88.7887 109.719 88.6119 109.719 88.4171C109.719 88.2223 109.641 88.0456 109.513 87.9167C109.385 87.7879 109.209 87.71 109.016 87.71C108.822 87.71 108.646 87.7879 108.518 87.9167C108.39 88.0456 108.312 88.2223 108.312 88.4171Z" fill="#E8D7F3"/>
<path d="M109.018 90.4124C109.567 90.4124 110.061 90.1877 110.419 89.8281C110.777 89.4686 111 88.9682 111 88.4198C111 87.8715 110.777 87.3711 110.419 87.0115C110.061 86.649 109.564 86.4272 109.018 86.4272C108.473 86.4272 107.975 86.652 107.618 87.0115C107.26 87.3741 107.037 87.8715 107.037 88.4198C107.037 88.9682 107.26 89.4686 107.618 89.8281C107.975 90.1877 108.473 90.4124 109.018 90.4124ZM109.018 87.8415C109.176 87.8415 109.319 87.9075 109.424 88.0123C109.528 88.1172 109.591 88.261 109.591 88.4198C109.591 88.5786 109.525 88.7225 109.424 88.8273C109.319 88.9322 109.176 88.9951 109.018 88.9951C108.86 88.9951 108.717 88.9292 108.613 88.8273C108.509 88.7225 108.446 88.5786 108.446 88.4198C108.446 88.261 108.512 88.1172 108.613 88.0123C108.717 87.9075 108.86 87.8415 109.018 87.8415Z" fill="#1E222B"/>
<path d="M97.5608 82.1456C97.5608 82.3404 97.6383 82.5172 97.7664 82.646C97.8945 82.7749 98.0703 82.8528 98.264 82.8528C98.4577 82.8528 98.6335 82.7749 98.7617 82.646C98.8898 82.5172 98.9673 82.3404 98.9673 82.1456C98.9673 81.9509 98.8898 81.7741 98.7617 81.6452C98.6335 81.5164 98.4577 81.4385 98.264 81.4385C98.0703 81.4385 97.8945 81.5164 97.7664 81.6452C97.6383 81.7741 97.5608 81.9509 97.5608 82.1456Z" fill="#E8D7F3"/>
<path d="M98.264 84.138C98.8123 84.138 99.3069 83.9133 99.6645 83.5537C100.022 83.1942 100.246 82.6938 100.246 82.1454C100.246 81.5971 100.022 81.0967 99.6645 80.7371C99.3069 80.3746 98.8093 80.1528 98.264 80.1528C97.7187 80.1528 97.221 80.3776 96.8635 80.7371C96.5059 81.0997 96.2824 81.5971 96.2824 82.1454C96.2824 82.6938 96.5059 83.1942 96.8635 83.5537C97.221 83.9133 97.7187 84.138 98.264 84.138ZM98.264 81.5671C98.4219 81.5671 98.565 81.633 98.6693 81.7379C98.7736 81.8428 98.8361 81.9866 98.8361 82.1454C98.8361 82.3042 98.7706 82.4481 98.6693 82.5529C98.565 82.6578 98.4219 82.7207 98.264 82.7207C98.1061 82.7207 97.963 82.6548 97.8587 82.5529C97.7544 82.4481 97.6919 82.3042 97.6919 82.1454C97.6919 81.9866 97.7574 81.8428 97.8587 81.7379C97.96 81.633 98.1061 81.5671 98.264 81.5671Z" fill="#1E222B"/>
<path d="M107.609 76.9049C107.609 77.0997 107.687 77.2764 107.815 77.4053C107.943 77.5341 108.119 77.612 108.312 77.612C108.506 77.612 108.682 77.5341 108.81 77.4053C108.938 77.2764 109.016 77.0997 109.016 76.9049C109.016 76.7101 108.938 76.5333 108.81 76.4045C108.682 76.2757 108.506 76.1978 108.312 76.1978C108.119 76.1978 107.943 76.2757 107.815 76.4045C107.687 76.5333 107.609 76.7101 107.609 76.9049Z" fill="#E8D7F3"/>
<path d="M108.312 78.9007C108.861 78.9007 109.355 78.676 109.713 78.3164C110.07 77.9538 110.294 77.4565 110.294 76.9081C110.294 76.3598 110.07 75.8594 109.713 75.4998C109.355 75.1403 108.858 74.9155 108.312 74.9155C107.767 74.9155 107.269 75.1403 106.909 75.4998C106.548 75.8594 106.328 76.3598 106.328 76.9081C106.328 77.4565 106.551 77.9568 106.909 78.3164C107.266 78.676 107.764 78.9007 108.312 78.9007ZM108.312 76.3298C108.47 76.3298 108.613 76.3957 108.718 76.4976C108.822 76.6025 108.884 76.7463 108.884 76.9051C108.884 77.0639 108.819 77.2077 108.718 77.3126C108.613 77.4175 108.47 77.4834 108.312 77.4834C108.154 77.4834 108.011 77.4175 107.907 77.3126C107.803 77.2077 107.74 77.0639 107.74 76.9051C107.74 76.7463 107.806 76.6025 107.907 76.4976C108.011 76.3927 108.154 76.3298 108.312 76.3298Z" fill="#1E222B"/>
<path d="M2.6875 88.4171C2.6875 88.6119 2.61002 88.7887 2.48189 88.9175C2.35375 89.0463 2.17795 89.1242 1.98426 89.1242C1.79056 89.1242 1.61475 89.0463 1.48661 88.9175C1.35848 88.7887 1.281 88.6119 1.281 88.4171C1.281 88.2223 1.35848 88.0456 1.48661 87.9167C1.61475 87.7879 1.79056 87.71 1.98426 87.71C2.17795 87.71 2.35375 87.7879 2.48189 87.9167C2.61002 88.0456 2.6875 88.2223 2.6875 88.4171Z" fill="#E8D7F3"/>
<path d="M1.98416 90.4124C2.53245 90.4124 3.02711 90.1877 3.38767 89.8281C3.74824 89.4686 3.96875 88.9682 3.96875 88.4198C3.96875 87.8715 3.74526 87.3711 3.38767 87.0115C3.02711 86.649 2.53245 86.4272 1.98416 86.4272C1.43586 86.4272 0.941202 86.652 0.583618 87.0115C0.226034 87.3741 0.00254941 87.8715 0.00254941 88.4198C0.00254941 88.9682 0.226034 89.4686 0.583618 89.8281C0.941202 90.1877 1.43884 90.4124 1.98416 90.4124ZM1.98416 87.8415C2.14209 87.8415 2.28512 87.9075 2.38942 88.0123C2.49371 88.1172 2.55629 88.261 2.55629 88.4198C2.55629 88.5786 2.49073 88.7225 2.38942 88.8273C2.28512 88.9322 2.14209 88.9951 1.98416 88.9951C1.82623 88.9951 1.68319 88.9292 1.57889 88.8273C1.4746 88.7225 1.41202 88.5786 1.41202 88.4198C1.41202 88.261 1.47758 88.1172 1.57889 88.0123C1.68319 87.9075 1.82623 87.8415 1.98416 87.8415Z" fill="#1E222B"/>
<path d="M13.4424 82.1456C13.4424 82.3404 13.3649 82.5172 13.2368 82.646C13.1086 82.7749 12.9328 82.8528 12.7391 82.8528C12.5454 82.8528 12.3696 82.7749 12.2415 82.646C12.1134 82.5172 12.0359 82.3404 12.0359 82.1456C12.0359 81.9509 12.1134 81.7741 12.2415 81.6452C12.3696 81.5164 12.5454 81.4385 12.7391 81.4385C12.9328 81.4385 13.1086 81.5164 13.2368 81.6452C13.3649 81.7741 13.4424 81.9509 13.4424 82.1456Z" fill="#E8D7F3"/>
<path d="M12.7391 84.138C13.2874 84.138 13.7821 83.9133 14.1396 83.5537C14.4972 83.1942 14.7207 82.6938 14.7207 82.1454C14.7207 81.5971 14.4972 81.0967 14.1396 80.7371C13.7821 80.3746 13.2844 80.1528 12.7391 80.1528C12.1938 80.1528 11.6961 80.3776 11.3356 80.7371C10.975 81.0967 10.7545 81.5971 10.7545 82.1454C10.7545 82.6938 10.978 83.1942 11.3356 83.5537C11.6961 83.9133 12.1908 84.138 12.7391 84.138ZM12.7391 81.5671C12.897 81.5671 13.0401 81.633 13.1444 81.7379C13.2486 81.8428 13.3112 81.9866 13.3112 82.1454C13.3112 82.3042 13.2457 82.4481 13.1444 82.5529C13.0401 82.6578 12.897 82.7207 12.7391 82.7207C12.5812 82.7207 12.4381 82.6548 12.3338 82.5529C12.2295 82.4481 12.167 82.3042 12.167 82.1454C12.167 81.9866 12.2325 81.8428 12.3338 81.7379C12.4352 81.633 12.5812 81.5671 12.7391 81.5671Z" fill="#1E222B"/>
<path d="M3.39453 76.9049C3.39453 77.0997 3.31705 77.2764 3.18892 77.4053C3.06079 77.5341 2.88497 77.612 2.69128 77.612C2.49759 77.612 2.32177 77.5341 2.19364 77.4053C2.0655 77.2764 1.98803 77.0997 1.98803 76.9049C1.98803 76.7101 2.0655 76.5333 2.19364 76.4045C2.32177 76.2757 2.49759 76.1978 2.69128 76.1978C2.88497 76.1978 3.06079 76.2757 3.18892 76.4045C3.31705 76.5333 3.39453 76.7101 3.39453 76.9049Z" fill="#E8D7F3"/>
<path d="M2.6883 78.9007C3.2366 78.9007 3.73126 78.676 4.08884 78.3164C4.44643 77.9538 4.66992 77.4565 4.66992 76.9081C4.66992 76.3598 4.44643 75.8594 4.08884 75.4998C3.73126 75.1403 3.23362 74.9155 2.6883 74.9155C2.14299 74.9155 1.64535 75.1403 1.28479 75.4998C0.924226 75.8594 0.703712 76.3598 0.703712 76.9081C0.703712 77.4565 0.927206 77.9568 1.28479 78.3164C1.64535 78.679 2.14001 78.9007 2.6883 78.9007ZM2.6883 76.3298C2.84624 76.3298 2.98928 76.3957 3.09357 76.4976C3.19787 76.6025 3.26044 76.7463 3.26044 76.9051C3.26044 77.0639 3.19489 77.2077 3.09357 77.3126C2.98928 77.4175 2.84624 77.4834 2.6883 77.4834C2.53037 77.4834 2.38734 77.4175 2.28305 77.3126C2.17875 77.2077 2.11617 77.0639 2.11617 76.9051C2.11617 76.7463 2.18173 76.6025 2.28305 76.4976C2.38734 76.3927 2.53037 76.3298 2.6883 76.3298Z" fill="#1E222B"/>
<path d="M50.1689 65.8064C50.1689 67.1068 50.7559 68.2844 51.7065 69.1354C52.6571 69.9864 53.9682 70.5137 55.4194 70.5137C56.8706 70.5137 58.1817 69.9864 59.1323 69.1354C60.0829 68.2844 60.6699 67.1068 60.6699 65.8064C60.6699 64.506 60.0829 63.3284 59.1323 62.4774C58.1817 61.6265 56.8706 61.0991 55.4194 61.0991C53.9682 61.0991 52.6571 61.6265 51.7065 62.4774C50.7559 63.3284 50.1689 64.506 50.1689 65.8064Z" fill="#E8D7F3"/>
<path d="M55.4165 71.7991C57.2163 71.7991 58.8493 71.1279 60.0293 70.0402C61.2123 68.9555 61.9424 67.4574 61.9424 65.8034C61.9424 64.1494 61.2093 62.6512 60.0293 61.5665C58.8463 60.4818 57.2163 59.8076 55.4165 59.8076C53.6166 59.8076 51.9837 60.4788 50.8036 61.5665C49.6206 62.6512 48.8906 64.1494 48.8906 65.8034C48.8906 67.4574 49.6236 68.9555 50.8036 70.0402C51.9837 71.1249 53.6166 71.7991 55.4165 71.7991ZM55.4165 62.3815C56.5101 62.3815 57.5054 62.765 58.2235 63.3853C58.9417 64.0055 59.3886 64.8595 59.3886 65.8034C59.3886 66.7472 58.9446 67.6042 58.2235 68.2214C57.5054 68.8417 56.5101 69.2252 55.4165 69.2252C54.3229 69.2252 53.3306 68.8417 52.6094 68.2214C51.8913 67.6012 51.4443 66.7472 51.4443 65.8034C51.4443 64.8595 51.8883 64.0025 52.6094 63.3853C53.3276 62.765 54.3199 62.3815 55.4165 62.3815Z" fill="#1E222B"/>
<path d="M63.9659 44.5469C63.9659 35.9533 64.2579 26.9313 66.9189 20.0546C69.5799 13.1779 74.607 8.45264 84.08 8.45264C94.879 8.45264 100.207 13.094 102.63 18.9519C105.052 24.8068 104.572 31.8753 103.756 36.7264L97.8201 39.2613L91.8842 41.7963L98.0466 44.5949L104.209 47.3935C104.233 50.276 104.283 53.7878 104.328 56.5744C104.373 59.364 104.409 61.4315 104.409 61.4315C104.409 61.4315 102.418 60.7064 98.8809 59.9813C95.3438 59.2561 90.2632 58.531 84.0829 58.531C77.9027 58.531 72.822 59.2561 69.2849 59.9813C65.7478 60.7064 63.7573 61.4315 63.7573 61.4315C63.7573 61.4315 63.8109 58.3872 63.8645 54.7556C63.9182 51.124 63.9718 46.9021 63.9718 44.5439L63.9659 44.5469Z" fill="#1E222B"/>
<path d="M109.385 66.3457C109.596 66.3457 109.802 66.2948 109.99 66.1929C110.175 66.094 110.341 65.9442 110.464 65.7555C110.654 65.4558 110.705 65.1082 110.636 64.7876C110.568 64.467 110.374 64.1704 110.079 63.9786C106.855 61.8961 103.383 60.2002 99.7629 58.9297C96.1424 57.6593 92.3758 56.8113 88.5616 56.4218C88.207 56.3888 87.8733 56.4997 87.6229 56.7064C87.3697 56.9132 87.1968 57.2188 87.1611 57.5694C87.1253 57.9229 87.2356 58.2555 87.4412 58.5102C87.6468 58.7649 87.9507 58.9417 88.3024 58.9777C91.9169 59.3462 95.4868 60.1492 98.9166 61.3538C102.346 62.5583 105.639 64.1644 108.694 66.139C108.801 66.2079 108.914 66.2588 109.03 66.2918C109.147 66.3248 109.266 66.3427 109.382 66.3427L109.385 66.3457Z" fill="#1E222B"/>
<path d="M1.54391 66.3457C1.6631 66.3457 1.78229 66.3277 1.89553 66.2947C2.01174 66.2618 2.12498 66.2108 2.23225 66.1419C5.2896 64.1673 8.57937 62.5613 12.0122 61.3567C15.442 60.1522 19.0119 59.3491 22.6265 58.9806C22.9781 58.9446 23.282 58.7678 23.4876 58.5132C23.6933 58.2585 23.8035 57.9229 23.7678 57.5723C23.732 57.2187 23.5592 56.9161 23.3059 56.7093C23.0526 56.5026 22.7218 56.3917 22.3672 56.4247C18.553 56.8142 14.7864 57.6622 11.1689 58.9326C7.54834 60.2031 4.07679 61.8991 0.852573 63.9815C0.554588 64.1733 0.363878 64.4669 0.29534 64.7906C0.226803 65.1112 0.277466 65.4588 0.468178 65.7584C0.590353 65.9502 0.754244 66.097 0.941975 66.1959C1.12673 66.2947 1.33532 66.3487 1.54689 66.3487L1.54391 66.3457Z" fill="#1E222B"/>
<path d="M6.63285 44.5469C6.63285 35.9533 6.92488 26.9313 9.5859 20.0546C12.2469 13.1779 17.274 8.45264 26.7469 8.45264C37.546 8.45264 42.874 13.094 45.2966 18.9519C47.7192 24.8068 47.2395 31.8753 46.423 36.7264L40.4871 39.2613L34.5512 41.7963L40.7136 44.5949L46.8759 47.3935C46.8998 50.276 46.9504 53.7878 46.9951 56.5744C47.0398 59.364 47.0756 61.4315 47.0756 61.4315C47.0756 61.4315 45.085 60.7064 41.5479 59.9813C38.0108 59.2561 32.9302 58.531 26.7499 58.531C20.5697 58.531 15.489 59.2561 11.9519 59.9813C8.41481 60.7064 6.42426 61.4315 6.42426 61.4315C6.42426 61.4315 6.47791 58.3872 6.53154 54.7556C6.58518 51.124 6.63881 46.9021 6.63881 44.5439L6.63285 44.5469Z" fill="#1E222B"/>
<path d="M76.1893 3.10433C77.3694 2.50805 78.6298 2.04362 79.9499 1.729C81.273 1.41438 82.6556 1.24658 84.08 1.24658C85.5044 1.24658 86.8871 1.41438 88.2101 1.729C89.5332 2.04362 90.7937 2.50805 91.9707 3.10433" fill="#E8D7F3"/>
<path d="M76.1892 4.38969C76.2846 4.38969 76.3829 4.3777 76.4783 4.35673C76.5736 4.33575 76.669 4.2998 76.7613 4.25485C78.9903 3.12821 81.5351 2.56789 84.0799 2.56789C86.6247 2.56789 89.1695 3.13121 91.3955 4.25485C91.7113 4.41366 92.063 4.42864 92.3729 4.32676C92.6828 4.22189 92.9539 4.00016 93.1119 3.68254C93.2698 3.36493 93.2847 3.01435 93.1834 2.69973C93.0791 2.38811 92.8586 2.11544 92.5427 1.95364C89.9621 0.653209 87.021 0 84.0799 0C81.1388 0 78.1976 0.653209 75.6141 1.95663C75.2982 2.11544 75.0777 2.38811 74.9734 2.69973C74.8691 3.01135 74.887 3.36493 75.0449 3.67955C75.1582 3.90427 75.325 4.08106 75.5247 4.20091C75.7243 4.32077 75.9538 4.38669 76.1892 4.38669V4.38969Z" fill="#1E222B"/>
<path d="M18.8622 3.10433C20.0422 2.50805 21.3027 2.04362 22.6228 1.729C23.9429 1.41438 25.3285 1.24658 26.7529 1.24658C28.1772 1.24658 29.5599 1.41438 30.883 1.729C32.206 2.04362 33.4665 2.50805 34.6436 3.10433" fill="#E8D7F3"/>
<path d="M18.8655 4.38969C18.9609 4.38969 19.0592 4.3777 19.1546 4.35673C19.2499 4.33575 19.3453 4.2998 19.4377 4.25485C21.6636 3.12821 24.2084 2.56789 26.7532 2.56789C29.298 2.56789 31.8428 3.13121 34.0688 4.25485C34.3847 4.41366 34.7363 4.42864 35.0462 4.32676C35.3561 4.22189 35.6273 4.00016 35.7852 3.68254C35.9431 3.36493 35.958 3.01435 35.8567 2.69973C35.7524 2.38811 35.5319 2.11544 35.216 1.95364C32.6355 0.653209 29.6944 0 26.7532 0C23.8121 0 20.871 0.653209 18.2904 1.95663C17.9746 2.11544 17.754 2.38811 17.6497 2.70273C17.5455 3.01435 17.5633 3.36792 17.7213 3.68554C17.8345 3.91027 18.0014 4.08705 18.201 4.20691C18.4007 4.32676 18.6301 4.39268 18.8655 4.39268V4.38969Z" fill="#1E222B"/>
<path d="M28.6959 82.4242C28.6959 84.0722 28.6632 85.5614 28.8598 86.6401C29.0535 87.7188 29.4737 88.387 30.3766 88.387C31.2795 88.387 32.099 87.7188 32.689 86.6401C33.282 85.5614 33.6455 84.0692 33.6455 82.4242C33.6455 80.7792 33.279 79.287 32.689 78.2083C32.099 77.1296 31.2795 76.4614 30.3766 76.4614C29.4737 76.4614 29.0535 77.1296 28.8598 78.2083C28.6662 79.287 28.6959 80.7792 28.6959 82.4242Z" fill="#1E222B"/>
</g>
<defs>
<clipPath id="clip0_608_8102">
<rect width="111" height="95" fill="white" transform="matrix(-1 0 0 1 111 0)"/>
</clipPath>
</defs>
</svg>
