<svg width="116" height="121" viewBox="0 0 116 121" fill="none" xmlns="http://www.w3.org/2000/svg">
<path d="M58.0141 118.94C56.7591 118.94 55.5414 118.79 54.3892 118.5C53.2369 118.21 52.1532 117.779 51.1629 117.214C50.8421 117.033 50.6241 116.736 50.5338 116.405C50.4435 116.074 50.4778 115.709 50.6615 115.387C50.8421 115.066 51.138 114.847 51.4681 114.757C51.7982 114.666 52.1625 114.7 52.4833 114.885C53.2712 115.334 54.1432 115.678 55.0681 115.909C55.993 116.14 56.9739 116.258 57.9829 116.258C58.9919 116.258 59.9947 116.14 60.9227 115.909C61.8507 115.678 62.7227 115.334 63.5106 114.885C63.8314 114.704 64.1988 114.666 64.5258 114.757C64.8528 114.847 65.1487 115.066 65.3324 115.384C65.5161 115.706 65.5504 116.071 65.4601 116.402C65.3698 116.733 65.1518 117.029 64.831 117.21C63.8407 117.776 62.757 118.206 61.6078 118.497C60.4618 118.787 59.2504 118.937 58.0078 118.937L58.0141 118.94Z" fill="#725193"/>
<path d="M33.1969 4.35042C33.0848 4.35042 32.9726 4.33481 32.8605 4.30671C32.7484 4.27861 32.6394 4.2349 32.5367 4.17558C31.7457 3.72602 30.8768 3.3826 29.9519 3.15157C29.027 2.92054 28.046 2.80191 27.037 2.80191C26.028 2.80191 25.0253 2.92054 24.0972 3.15157C23.1692 3.3826 22.2972 3.72602 21.5062 4.17558C21.1855 4.35978 20.8211 4.39412 20.491 4.30359C20.1609 4.21305 19.8651 3.99451 19.6845 3.67294C19.5007 3.35138 19.4665 2.98611 19.5568 2.65517C19.6471 2.32424 19.8651 2.02765 20.1858 1.84658C21.1761 1.2815 22.263 0.850663 23.409 0.560318C24.555 0.269973 25.7664 0.120117 27.0059 0.120117C28.2453 0.120117 29.4785 0.269973 30.6277 0.560318C31.7768 0.850663 32.8637 1.2815 33.854 1.84658C34.1747 2.02765 34.3927 2.32424 34.483 2.65517C34.5733 2.98611 34.5391 3.35138 34.3553 3.67294C34.2339 3.89148 34.0595 4.06007 33.8571 4.17558C33.6547 4.2911 33.4273 4.35042 33.1938 4.35042H33.1969Z" fill="#725193"/>
<path d="M92.9957 4.35042C92.8836 4.35042 92.7715 4.33481 92.6594 4.30671C92.5473 4.27861 92.4383 4.2349 92.3355 4.17558C91.5445 3.72602 90.6756 3.3826 89.7507 3.15157C88.8258 2.92054 87.8448 2.80191 86.8358 2.80191C85.8269 2.80191 84.8241 2.92054 83.8961 3.15157C82.968 3.3826 82.0961 3.72602 81.3051 4.17558C80.9843 4.35978 80.62 4.39412 80.2899 4.30359C79.9597 4.21305 79.6639 3.99451 79.4833 3.67294C79.2995 3.35138 79.2653 2.98611 79.3556 2.65517C79.4459 2.32424 79.6639 2.02765 79.9847 1.84658C80.975 1.2815 82.0618 0.850663 83.2078 0.560318C84.3539 0.269973 85.5653 0.120117 86.8047 0.120117C88.0441 0.120117 89.2774 0.269973 90.4265 0.560318C91.5756 0.850663 92.6625 1.2815 93.6528 1.84658C93.9735 2.02765 94.1915 2.32424 94.2818 2.65517C94.3722 2.98611 94.3379 3.35138 94.1542 3.67294C94.0327 3.89148 93.8583 4.06007 93.6559 4.17558C93.4535 4.2911 93.2261 4.35042 92.9926 4.35042H92.9957Z" fill="#725193"/>
<path d="M51.3344 47.6025C51.3344 57.9957 48.6126 67.4085 44.2154 74.2206C39.815 81.0328 33.7393 85.2444 27.0251 85.2444C20.3109 85.2444 14.2352 81.0297 9.83483 74.2206C5.4345 67.4085 2.71582 57.9988 2.71582 47.6025C2.71582 37.2063 5.43761 27.7966 9.83483 20.9844C14.2352 14.1723 20.3109 9.96069 27.0251 9.96069C33.7393 9.96069 39.815 14.1754 44.2154 20.9844C48.6157 27.7966 51.3344 37.2063 51.3344 47.6025Z" fill="#FDF8F1"/>
<path d="M27.0251 86.5837C19.9559 86.5837 13.5439 82.2129 8.90062 75.1541C4.25738 68.0953 1.37988 58.3484 1.37988 47.6025C1.37988 36.8566 4.25427 27.1098 8.89751 20.0509C13.5407 12.9921 19.9528 8.62134 27.022 8.62134C34.0912 8.62134 40.5033 12.9921 45.1465 20.0509C49.7898 27.1098 52.6673 36.8535 52.6673 47.6025C52.6673 58.3515 49.7898 68.0953 45.1465 75.1541C40.5033 82.2129 34.0912 86.5837 27.022 86.5837H27.0251ZM27.0251 11.3C20.6909 11.3 14.9484 15.3711 10.7878 21.946C6.62727 28.5209 4.05185 37.5934 4.05185 47.6025C4.05185 57.6116 6.62727 66.6873 10.7878 73.2622C14.9484 79.8371 20.6909 83.9082 27.0251 83.9082C33.3594 83.9082 39.1019 79.8371 43.2625 73.2622C47.423 66.6873 49.9984 57.6116 49.9984 47.6025C49.9984 37.5934 47.423 28.5178 43.2625 21.946C39.1019 15.3711 33.3594 11.3 27.0251 11.3Z" fill="#725193"/>
<path d="M111.129 47.6025C111.129 57.9957 108.407 67.4085 104.01 74.2206C99.6099 81.0328 93.5342 85.2444 86.82 85.2444C80.1059 85.2444 74.0301 81.0297 69.6298 74.2206C65.2294 67.4085 62.5107 57.9988 62.5107 47.6025C62.5107 37.2063 65.2325 27.7966 69.6298 20.9844C74.0301 14.1723 80.1059 9.96069 86.82 9.96069C93.5342 9.96069 99.6099 14.1754 104.01 20.9844C108.411 27.7966 111.129 37.2063 111.129 47.6025Z" fill="#FDF8F1"/>
<path d="M86.8201 86.5837C79.7509 86.5837 73.3388 82.2129 68.6955 75.1541C64.0523 68.0953 61.1748 58.3484 61.1748 47.6025C61.1748 36.8566 64.0523 27.1098 68.6955 20.0509C73.3388 12.9921 79.7509 8.62134 86.8201 8.62134C93.8892 8.62134 100.301 12.9921 104.945 20.0509C109.588 27.1098 112.465 36.8535 112.465 47.6025C112.465 58.3515 109.588 68.0953 104.945 75.1541C100.301 82.2129 93.8892 86.5837 86.8201 86.5837ZM86.8201 11.3C80.4858 11.3 74.7433 15.3711 70.5827 21.946C66.4222 28.5209 63.8468 37.5934 63.8468 47.6025C63.8468 57.6116 66.4222 66.6873 70.5827 73.2622C74.7433 79.8371 80.4858 83.9082 86.8201 83.9082C93.1543 83.9082 98.8968 79.8371 103.057 73.2622C107.218 66.6873 109.793 57.6116 109.793 47.6025C109.793 37.5934 107.218 28.5178 103.057 21.946C98.8968 15.3711 93.1543 11.3 86.8201 11.3Z" fill="#725193"/>
<path d="M111.129 47.6024C111.129 40.1377 109.725 33.1819 107.305 27.3282C104.885 21.4776 101.447 16.7291 97.3801 13.6882C94.9417 16.4387 92.8459 20.5878 91.2794 25.686C89.713 30.7843 88.6822 36.8347 88.3677 43.3971L94.5182 46.6252L100.669 49.8534L94.677 52.9972L88.6853 56.1411C89.2396 61.745 90.3327 66.8682 91.8244 71.2016C93.3161 75.5349 95.2126 79.0783 97.377 81.5229C101.444 78.4789 104.882 73.7335 107.302 67.8829C109.722 62.0323 111.126 55.0733 111.126 47.6087L111.129 47.6024Z" fill="#725193"/>
<path d="M3.26758 119.421C9.84161 119.421 15.7928 116.748 20.1028 112.431C24.4128 108.113 27.0755 102.144 27.0755 95.5532C27.0755 88.9626 24.4097 82.9965 20.1028 78.6757C15.7959 74.3548 9.84161 71.6855 3.26758 71.6855" fill="#FDF8F1"/>
<path d="M3.26713 120.76C2.89655 120.76 2.56333 120.61 2.32354 120.367C2.08063 120.123 1.93115 119.789 1.93115 119.421C1.93115 119.052 2.08063 118.715 2.32354 118.475C2.56644 118.231 2.89966 118.081 3.26713 118.081C9.46435 118.081 15.0792 115.556 19.1494 111.475C23.2197 107.395 25.739 101.763 25.739 95.5531C25.739 89.3435 23.2197 83.7114 19.1494 79.631C15.0792 75.5505 9.46123 73.0249 3.26713 73.0249C2.89655 73.0249 2.56333 72.875 2.32354 72.6315C2.08063 72.388 1.93115 72.0539 1.93115 71.6855C1.93115 71.3171 2.08063 70.98 2.32354 70.7396C2.56644 70.4992 2.89966 70.3462 3.26713 70.3462C10.1993 70.3462 16.4868 73.1747 21.0397 77.7391C25.5927 82.3034 28.4141 88.6067 28.4141 95.5563C28.4141 102.506 25.5927 108.809 21.0397 113.373C16.4868 117.938 10.1993 120.766 3.26713 120.766V120.76Z" fill="#725193"/>
<path d="M112.734 119.421C106.16 119.421 100.209 116.749 95.8989 112.431C91.592 108.113 88.9263 102.144 88.9263 95.5534C88.9263 88.9629 91.592 82.9968 95.8989 78.6759C100.206 74.3582 106.16 71.6858 112.734 71.6858" fill="#FDF8F1"/>
<path d="M112.734 120.76C105.802 120.76 99.5142 117.932 94.9613 113.367C90.4084 108.803 87.5869 102.5 87.5869 95.5502C87.5869 88.6006 90.4052 82.2973 94.9613 77.733C99.5173 73.1686 105.802 70.3401 112.734 70.3401C113.104 70.3401 113.438 70.4899 113.677 70.7335C113.92 70.977 114.07 71.311 114.07 71.6794C114.07 72.0478 113.92 72.385 113.677 72.6254C113.435 72.8658 113.101 73.0188 112.734 73.0188C106.54 73.0188 100.922 75.5444 96.8516 79.6249C92.7814 83.7053 90.262 89.3374 90.262 95.547C90.262 101.757 92.7814 107.389 96.8516 111.469C100.922 115.55 106.54 118.075 112.734 118.075C113.104 118.075 113.438 118.225 113.677 118.469C113.917 118.712 114.07 119.046 114.07 119.415C114.07 119.783 113.92 120.12 113.677 120.361C113.435 120.601 113.101 120.754 112.734 120.754V120.76Z" fill="#725193"/>
<path d="M79.028 97.7637C79.028 98.9813 78.5141 100.161 77.6484 101.288C76.7826 102.415 75.5619 103.486 74.1512 104.485C69.3398 107.891 63.6688 109.596 58.001 109.596C52.3332 109.596 46.6623 107.891 41.8509 104.485C40.4402 103.486 39.2194 102.415 38.3537 101.288C37.488 100.161 36.9741 98.9813 36.9741 97.7637C36.9741 95.9217 38.1482 94.9539 39.9419 94.5418C41.7357 94.1328 44.1461 94.2858 46.625 94.6885C50.3962 95.3067 54.2017 95.6157 58.0042 95.6157C61.8066 95.6157 65.6121 95.3067 69.3834 94.6885C71.8591 94.2827 74.2726 94.1297 76.0664 94.5418C77.8602 94.9508 79.0342 95.9217 79.0342 97.7637H79.028Z" fill="#FDF8F1"/>
<path d="M58.0013 110.951C55.0366 110.951 52.0719 110.505 49.2131 109.609C46.3574 108.713 43.6076 107.37 41.0788 105.581C39.2726 104.301 37.9117 103.006 37.0024 101.701C36.093 100.396 35.6353 99.0781 35.6353 97.7637C35.6353 97.08 35.7629 96.4494 36.009 95.8874C36.255 95.3255 36.6224 94.8322 37.102 94.4232C37.9802 93.677 39.2134 93.2181 40.8266 93.0402C42.4397 92.8653 44.4359 92.9746 46.8338 93.368C50.5366 93.9736 54.2674 94.2796 57.9982 94.2796C61.729 94.2796 65.4597 93.9768 69.1625 93.368C71.5604 92.9746 73.5566 92.8653 75.1697 93.0402C76.7829 93.215 78.0192 93.6739 78.8974 94.4232C79.377 94.8322 79.7445 95.3255 79.9905 95.8874C80.2365 96.4494 80.3642 97.08 80.3642 97.7637C80.3642 99.0781 79.9064 100.396 78.9971 101.701C78.0877 103.006 76.7268 104.304 74.9206 105.581C72.3888 107.373 69.6421 108.716 66.7864 109.612C63.9307 110.508 60.9629 110.954 57.9982 110.954L58.0013 110.951ZM42.4117 95.6377C41.3186 95.6377 40.5307 95.7532 39.9608 95.9155C39.391 96.0779 39.0453 96.2839 38.8335 96.465C38.7121 96.568 38.5782 96.7054 38.4785 96.9083C38.3788 97.1112 38.3072 97.386 38.3072 97.7606C38.3072 98.6036 38.6809 99.5121 39.4065 100.458C40.1321 101.404 41.2096 102.391 42.6204 103.39C47.22 106.646 52.6138 108.272 58.0013 108.272C63.3919 108.272 68.7826 106.646 73.3791 103.39C74.7898 102.391 75.8673 101.407 76.5929 100.458C77.3185 99.5121 77.6922 98.6036 77.6922 97.7606C77.6922 97.3829 77.6206 97.1112 77.5209 96.9083C77.4213 96.7054 77.2874 96.568 77.1659 96.465C76.8545 96.1996 76.2472 95.8749 75.0763 95.7251C73.9054 95.5721 72.1677 95.594 69.5954 96.0154C65.7494 96.6461 61.8753 96.9583 58.0013 96.9583C54.1272 96.9583 50.2532 96.6429 46.4072 96.0154C45.5819 95.8812 44.8408 95.7875 44.1774 95.7251C43.5141 95.6658 42.9287 95.6377 42.4117 95.6377Z" fill="#725193"/>
<path d="M58.0015 110.935C57.6309 110.935 57.2977 110.785 57.0579 110.542C56.815 110.298 56.6655 109.964 56.6655 109.596V95.7031C56.6655 95.3316 56.815 94.9975 57.0579 94.7571C57.3008 94.5136 57.634 94.3638 58.0015 94.3638C58.369 94.3638 58.7053 94.5136 58.9451 94.7571C59.1849 95.0007 59.3375 95.3347 59.3375 95.7031V109.596C59.3375 109.967 59.188 110.302 58.9451 110.542C58.7022 110.785 58.369 110.935 58.0015 110.935Z" fill="#725193"/>
<path d="M45.6192 94.5417L44.5697 99.9334L43.5171 105.328" fill="#FDF8F1"/>
<path d="M43.5176 106.668C43.474 106.668 43.4335 106.668 43.3899 106.661C43.3463 106.658 43.3027 106.652 43.2622 106.643C42.901 106.571 42.602 106.362 42.4089 106.077C42.219 105.793 42.1349 105.434 42.2065 105.072L43.256 99.6805L44.3055 94.2889C44.3771 93.9267 44.5857 93.6239 44.8691 93.4334C45.1525 93.243 45.5106 93.1587 45.8719 93.2305C46.2331 93.3023 46.5321 93.5115 46.7252 93.7956C46.9151 94.0797 46.9992 94.4387 46.9276 94.8009L45.8781 100.193L44.8286 105.584C44.7664 105.903 44.5951 106.174 44.3615 106.365C44.128 106.555 43.8321 106.668 43.5176 106.668Z" fill="#725193"/>
<path d="M70.3809 94.5415L71.4335 99.9332L72.4829 105.328" fill="#FDF8F1"/>
<path d="M72.4827 106.667C72.1682 106.667 71.8724 106.558 71.6388 106.365C71.4052 106.171 71.234 105.903 71.1717 105.584L70.1222 100.192L69.0727 94.8008C69.0011 94.4386 69.0852 94.0796 69.2751 93.7955C69.4651 93.5114 69.7641 93.2991 70.1284 93.2304C70.4866 93.1586 70.8447 93.2398 71.1281 93.4334C71.4115 93.6238 71.6263 93.9266 71.6949 94.2888L72.7443 99.6805L73.7938 105.072C73.8654 105.434 73.7814 105.793 73.5914 106.077C73.4014 106.362 73.1025 106.574 72.7381 106.642C72.6945 106.652 72.6509 106.658 72.6104 106.661C72.5668 106.664 72.5263 106.667 72.4827 106.667Z" fill="#725193"/>
<path d="M51.3338 47.6024C51.3338 40.1377 49.9293 33.1819 47.5096 27.3282C45.0899 21.4776 41.6518 16.7291 37.5847 13.6882C35.1463 16.4387 33.0505 20.5878 31.484 25.686C29.9176 30.7843 28.8868 36.8347 28.5723 43.3971L34.7228 46.6252L40.8733 49.8534L34.8816 52.9972L28.8899 56.1411C29.4442 61.745 30.5373 66.8682 32.029 71.2016C33.5207 75.5349 35.4172 79.0783 37.5816 81.5229C41.6487 78.4789 45.0868 73.7335 47.5065 67.8829C49.9262 62.0323 51.3307 55.0733 51.3307 47.6087L51.3338 47.6024Z" fill="#725193"/>
<path d="M67.4814 78.1322C68.3285 77.1051 69.2254 76.0811 70.2219 75.2007C71.2185 74.3203 72.3178 73.5835 73.5665 73.1308C75.5876 72.4034 77.671 72.7905 79.088 73.9238C80.5049 75.057 81.2555 76.9396 80.617 79.2031C80.1281 80.9295 78.6489 82.1846 76.9018 83.0743C75.1548 83.9641 73.1461 84.4917 71.5953 84.7633" fill="#FDF8F1"/>
<path d="M71.595 86.0997C71.2773 86.0997 70.9753 85.9842 70.7417 85.7875C70.5081 85.5908 70.3369 85.313 70.2808 84.9883C70.2185 84.623 70.3088 84.2671 70.505 83.9893C70.7012 83.7083 71.0064 83.5053 71.3708 83.4398C73.0649 83.1463 74.8773 82.6187 76.3566 81.8507C77.8358 81.0858 78.9787 80.0805 79.3337 78.8317C79.5393 78.0981 79.5673 77.405 79.4209 76.7806C79.2745 76.1562 78.9538 75.6005 78.4649 75.1446C77.9137 74.6264 77.2005 74.2923 76.4251 74.1612C75.6528 74.0301 74.8182 74.0988 74.0209 74.386C72.8936 74.7919 71.8877 75.4912 70.9784 76.3123C70.069 77.1334 69.2562 78.0793 68.5151 78.9785C68.2815 79.2626 67.9545 79.4249 67.612 79.4561C67.2725 79.4873 66.9175 79.3906 66.6341 79.1564C66.3507 78.9223 66.1888 78.5913 66.1545 78.251C66.1203 77.9107 66.2199 77.5548 66.4566 77.2707C67.3099 76.2342 68.2535 75.1446 69.3434 74.18C70.4334 73.2184 71.6728 72.3817 73.1178 71.8634C74.4009 71.4014 75.7275 71.2984 76.9669 71.5263C78.2064 71.7542 79.3586 72.3161 80.2867 73.184C81.1462 73.9895 81.7223 74.9729 81.9995 76.0594C82.2766 77.1458 82.2486 78.3384 81.9029 79.5591C81.2645 81.8195 79.396 83.3336 77.3624 84.342C75.3289 85.3504 73.1272 85.85 71.8254 86.0747C71.7881 86.081 71.7476 86.0872 71.7102 86.0903C71.6728 86.0935 71.6324 86.0966 71.595 86.0966V86.0997Z" fill="#725193"/>
<path d="M2.80876 102.54C2.80876 102.743 2.72779 102.927 2.59388 103.061C2.45997 103.196 2.27623 103.277 2.07381 103.277C1.87139 103.277 1.68765 103.196 1.55375 103.061C1.41984 102.927 1.33887 102.743 1.33887 102.54C1.33887 102.337 1.41984 102.153 1.55375 102.019C1.68765 101.884 1.87139 101.803 2.07381 101.803C2.27623 101.803 2.45997 101.884 2.59388 102.019C2.72779 102.153 2.80876 102.337 2.80876 102.54Z" fill="#FDF8F1"/>
<path d="M2.07093 104.616C1.49792 104.616 0.980966 104.382 0.607265 104.007C0.233563 103.633 0 103.111 0 102.54C0 101.969 0.233563 101.447 0.607265 101.073C0.980966 100.698 1.50103 100.464 2.07093 100.464C2.64082 100.464 3.16089 100.698 3.53459 101.073C3.90829 101.447 4.14186 101.969 4.14186 102.54C4.14186 103.111 3.90829 103.633 3.53459 104.007C3.16089 104.382 2.64082 104.616 2.07093 104.616ZM2.07093 101.937C1.90588 101.937 1.7564 102.006 1.6474 102.112C1.5384 102.218 1.47301 102.371 1.47301 102.537C1.47301 102.702 1.54152 102.852 1.6474 102.961C1.75328 103.071 1.90588 103.136 2.07093 103.136C2.23598 103.136 2.38546 103.068 2.49446 102.961C2.60345 102.855 2.66885 102.702 2.66885 102.537C2.66885 102.371 2.60034 102.222 2.49446 102.112C2.38857 102.003 2.23598 101.937 2.07093 101.937Z" fill="#725193"/>
<path d="M14.0451 96.0058C14.0451 96.2088 13.9641 96.393 13.8302 96.5272C13.6963 96.6615 13.5126 96.7426 13.3101 96.7426C13.1077 96.7426 12.924 96.6615 12.7901 96.5272C12.6562 96.393 12.5752 96.2088 12.5752 96.0058C12.5752 95.8029 12.6562 95.6187 12.7901 95.4845C12.924 95.3502 13.1077 95.269 13.3101 95.269C13.5126 95.269 13.6963 95.3502 13.8302 95.4845C13.9641 95.6187 14.0451 95.8029 14.0451 96.0058Z" fill="#FDF8F1"/>
<path d="M13.3097 98.0819C12.7367 98.0819 12.2197 97.8477 11.846 97.4731C11.4723 97.0953 11.2388 96.5771 11.2388 96.0026C11.2388 95.4282 11.4723 94.9099 11.846 94.5353C12.2197 94.1607 12.7398 93.9265 13.3097 93.9265C13.8796 93.9265 14.3997 94.1607 14.7734 94.5353C15.1471 94.9099 15.3806 95.4313 15.3806 96.0026C15.3806 96.574 15.1471 97.0953 14.7734 97.4731C14.3997 97.8509 13.8796 98.0819 13.3097 98.0819ZM13.3097 95.4032C13.1446 95.4032 12.9952 95.4719 12.8862 95.578C12.7772 95.6873 12.7118 95.8372 12.7118 96.0026C12.7118 96.1681 12.7803 96.318 12.8862 96.4272C12.9921 96.5365 13.1446 96.6021 13.3097 96.6021C13.4747 96.6021 13.6242 96.5334 13.7332 96.4272C13.8422 96.3211 13.9076 96.1681 13.9076 96.0026C13.9076 95.8372 13.8391 95.6873 13.7332 95.578C13.6242 95.4688 13.4747 95.4032 13.3097 95.4032Z" fill="#725193"/>
<path d="M3.54411 90.5454C3.54411 90.7483 3.46314 90.9325 3.32923 91.0668C3.19532 91.201 3.01159 91.2822 2.80916 91.2822C2.60674 91.2822 2.42301 91.201 2.2891 91.0668C2.15519 90.9325 2.07422 90.7483 2.07422 90.5454C2.07422 90.3425 2.15519 90.1583 2.2891 90.024C2.42301 89.8898 2.60674 89.8086 2.80916 89.8086C3.01159 89.8086 3.19532 89.8898 3.32923 90.024C3.46314 90.1583 3.54411 90.3425 3.54411 90.5454Z" fill="#FDF8F1"/>
<path d="M2.80921 92.6215C2.2362 92.6215 1.71925 92.3873 1.34555 92.0127C0.971845 91.6381 0.738281 91.1167 0.738281 90.5454C0.738281 89.974 0.971845 89.4527 1.34555 89.078C1.71925 88.7034 2.23932 88.4692 2.80921 88.4692C3.3791 88.4692 3.89917 88.7034 4.27287 89.078C4.64657 89.4527 4.88014 89.974 4.88014 90.5454C4.88014 91.1167 4.64657 91.6381 4.27287 92.0127C3.89917 92.3873 3.3791 92.6215 2.80921 92.6215ZM2.80921 89.9428C2.64416 89.9428 2.49468 90.0115 2.38568 90.1176C2.27669 90.2238 2.21129 90.3768 2.21129 90.5422C2.21129 90.7077 2.2798 90.8576 2.38568 90.9668C2.49156 91.0761 2.64416 91.1417 2.80921 91.1417C2.97426 91.1417 3.12374 91.073 3.23274 90.9668C3.34173 90.8607 3.40713 90.7077 3.40713 90.5422C3.40713 90.3768 3.33862 90.2269 3.23274 90.1176C3.12686 90.0084 2.97426 89.9428 2.80921 89.9428Z" fill="#725193"/>
<path d="M113.194 102.54C113.194 102.743 113.275 102.927 113.409 103.061C113.543 103.196 113.726 103.277 113.929 103.277C114.131 103.277 114.315 103.196 114.449 103.061C114.583 102.927 114.664 102.743 114.664 102.54C114.664 102.337 114.583 102.153 114.449 102.019C114.315 101.884 114.131 101.803 113.929 101.803C113.726 101.803 113.543 101.884 113.409 102.019C113.275 102.153 113.194 102.337 113.194 102.54Z" fill="#FDF8F1"/>
<path d="M113.929 104.616C113.356 104.616 112.839 104.382 112.465 104.007C112.091 103.633 111.858 103.111 111.858 102.54C111.858 101.969 112.091 101.447 112.465 101.073C112.839 100.698 113.359 100.464 113.929 100.464C114.499 100.464 115.019 100.698 115.393 101.073C115.766 101.447 116 101.969 116 102.54C116 103.111 115.766 103.633 115.393 104.007C115.019 104.382 114.499 104.616 113.929 104.616ZM113.929 101.937C113.764 101.937 113.614 102.006 113.505 102.112C113.396 102.218 113.331 102.371 113.331 102.537C113.331 102.702 113.399 102.852 113.505 102.961C113.611 103.071 113.764 103.136 113.929 103.136C114.094 103.136 114.243 103.068 114.352 102.961C114.461 102.855 114.527 102.702 114.527 102.537C114.527 102.371 114.458 102.222 114.352 102.112C114.246 102.003 114.094 101.937 113.929 101.937Z" fill="#725193"/>
<path d="M101.956 96.0058C101.956 96.2088 102.037 96.393 102.17 96.5272C102.304 96.6615 102.488 96.7426 102.691 96.7426C102.893 96.7426 103.077 96.6615 103.211 96.5272C103.344 96.393 103.425 96.2088 103.425 96.0058C103.425 95.8029 103.344 95.6187 103.211 95.4845C103.077 95.3502 102.893 95.269 102.691 95.269C102.488 95.269 102.304 95.3502 102.17 95.4845C102.037 95.6187 101.956 95.8029 101.956 96.0058Z" fill="#FDF8F1"/>
<path d="M102.69 98.0819C102.117 98.0819 101.6 97.8477 101.226 97.4731C100.853 97.0953 100.619 96.5771 100.619 96.0026C100.619 95.4282 100.853 94.9099 101.226 94.5353C101.6 94.1607 102.12 93.9265 102.69 93.9265C103.26 93.9265 103.78 94.1607 104.154 94.5353C104.527 94.9099 104.761 95.4313 104.761 96.0026C104.761 96.574 104.527 97.0953 104.154 97.4731C103.78 97.8509 103.26 98.0819 102.69 98.0819ZM102.69 95.4032C102.525 95.4032 102.376 95.4719 102.267 95.578C102.158 95.6873 102.092 95.8372 102.092 96.0026C102.092 96.1681 102.161 96.318 102.267 96.4272C102.372 96.5365 102.525 96.6021 102.69 96.6021C102.855 96.6021 103.005 96.5334 103.114 96.4272C103.223 96.3211 103.288 96.1681 103.288 96.0026C103.288 95.8372 103.219 95.6873 103.114 95.578C103.005 95.4688 102.855 95.4032 102.69 95.4032Z" fill="#725193"/>
<path d="M112.456 90.5454C112.456 90.7483 112.537 90.9325 112.67 91.0668C112.804 91.201 112.988 91.2822 113.191 91.2822C113.393 91.2822 113.577 91.201 113.711 91.0668C113.844 90.9325 113.925 90.7483 113.925 90.5454C113.925 90.3425 113.844 90.1583 113.711 90.024C113.577 89.8898 113.393 89.8086 113.191 89.8086C112.988 89.8086 112.804 89.8898 112.67 90.024C112.537 90.1583 112.456 90.3425 112.456 90.5454Z" fill="#FDF8F1"/>
<path d="M113.194 92.6215C112.621 92.6215 112.104 92.3873 111.73 92.0127C111.357 91.6381 111.123 91.1167 111.123 90.5454C111.123 89.974 111.357 89.4527 111.73 89.078C112.104 88.7034 112.624 88.4692 113.194 88.4692C113.764 88.4692 114.284 88.7034 114.658 89.078C115.031 89.4527 115.265 89.974 115.265 90.5454C115.265 91.1167 115.031 91.6381 114.658 92.0127C114.284 92.3873 113.764 92.6215 113.194 92.6215ZM113.194 89.9428C113.029 89.9428 112.879 90.0115 112.77 90.1176C112.661 90.2238 112.596 90.3768 112.596 90.5422C112.596 90.7077 112.665 90.8576 112.77 90.9668C112.876 91.0761 113.029 91.1417 113.194 91.1417C113.359 91.1417 113.509 91.073 113.618 90.9668C113.727 90.8576 113.792 90.7077 113.792 90.5422C113.792 90.3768 113.723 90.2269 113.618 90.1176C113.509 90.0084 113.359 89.9428 113.194 89.9428Z" fill="#725193"/>
</svg>
