<svg width="115" height="101" viewBox="0 0 115 101" fill="none" xmlns="http://www.w3.org/2000/svg">
<g clip-path="url(#clip0_608_8809)">
<path d="M6.29094 83.5997C5.70523 83.5997 5.17221 83.3622 4.78793 82.9799C4.40366 82.5975 4.16504 82.0671 4.16504 81.4843C4.16504 80.9015 4.40366 80.3711 4.78793 79.9887C5.17221 79.6063 5.70523 79.3689 6.29094 79.3689C6.87665 79.3689 7.40967 79.6063 7.79394 79.9887C8.17822 80.3711 8.41684 80.9015 8.41684 81.4843C8.41684 82.0671 8.17822 82.5975 7.79394 82.9799C7.40967 83.3622 6.87665 83.5997 6.29094 83.5997ZM6.29094 80.9539C6.14529 80.9539 6.01203 81.0125 5.91596 81.1081C5.81989 81.2037 5.76101 81.3363 5.76101 81.4812C5.76101 81.6261 5.81989 81.7587 5.91596 81.8543C6.01203 81.9499 6.14529 82.0085 6.29094 82.0085C6.43659 82.0085 6.56985 81.9499 6.66592 81.8543C6.76198 81.7587 6.82086 81.6261 6.82086 81.4812C6.82086 81.3363 6.76198 81.2037 6.66592 81.1081C6.56985 81.0125 6.43659 80.9539 6.29094 80.9539Z" fill="#1E222B"/>
<path d="M18.4696 76.5721C17.8839 76.5721 17.3509 76.3347 16.9666 75.9523C16.5824 75.5699 16.3438 75.0395 16.3438 74.4567C16.3438 73.8739 16.5824 73.3435 16.9666 72.9611C17.3509 72.5788 17.8839 72.3413 18.4696 72.3413C19.0554 72.3413 19.5884 72.5788 19.9727 72.9611C20.3569 73.3435 20.5955 73.8739 20.5955 74.4567C20.5955 75.0395 20.3569 75.5699 19.9727 75.9523C19.5884 76.3347 19.0554 76.5721 18.4696 76.5721ZM18.4696 73.9263C18.324 73.9263 18.1907 73.9849 18.0947 74.0805C17.9986 74.1761 17.9397 74.3087 17.9397 74.4536C17.9397 74.5985 17.9986 74.7311 18.0947 74.8267C18.1907 74.9223 18.324 74.9809 18.4696 74.9809C18.6153 74.9809 18.7486 74.9223 18.8446 74.8267C18.9407 74.7311 18.9996 74.5985 18.9996 74.4536C18.9996 74.3087 18.9407 74.1761 18.8446 74.0805C18.7486 73.9849 18.6153 73.9263 18.4696 73.9263Z" fill="#1E222B"/>
<path d="M7.09074 70.7008C6.50504 70.7008 5.97201 70.4633 5.58774 70.0809C5.20347 69.6986 4.96484 69.1682 4.96484 68.5854C4.96484 68.0025 5.20347 67.4722 5.58774 67.0898C5.97201 66.7074 6.50504 66.47 7.09074 66.47C7.67645 66.47 8.20947 66.7074 8.59375 67.0898C8.97802 67.4722 9.21664 68.0025 9.21664 68.5854C9.21664 69.1682 8.97802 69.6986 8.59375 70.0809C8.20947 70.4633 7.67645 70.7008 7.09074 70.7008ZM7.09074 68.055C6.94509 68.055 6.81183 68.1136 6.71577 68.2092C6.6197 68.3047 6.56082 68.4373 6.56082 68.5823C6.56082 68.7272 6.6197 68.8598 6.71577 68.9554C6.81183 69.051 6.94509 69.1096 7.09074 69.1096C7.23639 69.1096 7.36965 69.051 7.46572 68.9554C7.56179 68.8598 7.62067 68.7272 7.62067 68.5823C7.62067 68.4373 7.56179 68.3047 7.46572 68.2092C7.36965 68.1136 7.23639 68.055 7.09074 68.055Z" fill="#1E222B"/>
<path d="M108.709 83.5997C108.123 83.5997 107.59 83.3622 107.206 82.9799C106.822 82.5975 106.583 82.0671 106.583 81.4843C106.583 80.9015 106.822 80.3711 107.206 79.9887C107.59 79.6063 108.123 79.3689 108.709 79.3689C109.295 79.3689 109.828 79.6063 110.212 79.9887C110.596 80.3711 110.835 80.9015 110.835 81.4843C110.835 82.0671 110.596 82.5975 110.212 82.9799C109.828 83.3622 109.295 83.5997 108.709 83.5997ZM108.709 80.9539C108.563 80.9539 108.43 81.0125 108.334 81.1081C108.238 81.2037 108.179 81.3363 108.179 81.4812C108.179 81.6261 108.238 81.7587 108.334 81.8543C108.43 81.9499 108.563 82.0085 108.709 82.0085C108.855 82.0085 108.988 81.9499 109.084 81.8543C109.18 81.7587 109.239 81.6261 109.239 81.4812C109.239 81.3363 109.18 81.2037 109.084 81.1081C108.988 81.0125 108.855 80.9539 108.709 80.9539Z" fill="#1E222B"/>
<path d="M96.5331 76.5721C95.9474 76.5721 95.4144 76.3347 95.0301 75.9523C94.6458 75.5699 94.4072 75.0395 94.4072 74.4567C94.4072 73.8739 94.6458 73.3435 95.0301 72.9611C95.4144 72.5788 95.9474 72.3413 96.5331 72.3413C97.1188 72.3413 97.6519 72.5788 98.0361 72.9611C98.4204 73.3435 98.659 73.8739 98.659 74.4567C98.659 75.0395 98.4204 75.5699 98.0361 75.9523C97.6519 76.3347 97.1188 76.5721 96.5331 76.5721ZM96.5331 73.9263C96.3875 73.9263 96.2542 73.9849 96.1581 74.0805C96.0621 74.1761 96.0032 74.3087 96.0032 74.4536C96.0032 74.5985 96.0621 74.7311 96.1581 74.8267C96.2542 74.9223 96.3875 74.9809 96.5331 74.9809C96.6788 74.9809 96.812 74.9223 96.9081 74.8267C97.0042 74.7311 97.063 74.5985 97.063 74.4536C97.063 74.3087 97.0042 74.1761 96.9081 74.0805C96.812 73.9849 96.6788 73.9263 96.5331 73.9263Z" fill="#1E222B"/>
<path d="M107.913 70.7008C107.327 70.7008 106.794 70.4633 106.41 70.0809C106.025 69.6986 105.787 69.1682 105.787 68.5854C105.787 68.0025 106.025 67.4722 106.41 67.0898C106.794 66.7074 107.327 66.47 107.913 66.47C108.498 66.47 109.031 66.7074 109.416 67.0898C109.8 67.4722 110.038 68.0025 110.038 68.5854C110.038 69.1682 109.8 69.6986 109.416 70.0809C109.031 70.4633 108.498 70.7008 107.913 70.7008ZM107.913 68.055C107.767 68.055 107.634 68.1136 107.538 68.2092C107.441 68.3047 107.383 68.4373 107.383 68.5823C107.383 68.7272 107.441 68.8598 107.538 68.9554C107.634 69.051 107.767 69.1096 107.913 69.1096C108.058 69.1096 108.191 69.051 108.287 68.9554C108.384 68.8598 108.442 68.7272 108.442 68.5823C108.442 68.4373 108.384 68.3047 108.287 68.2092C108.191 68.1136 108.058 68.055 107.913 68.055Z" fill="#1E222B"/>
<path d="M38.3835 7.16792C38.2441 7.16792 38.1015 7.14633 37.9652 7.10008C37.8288 7.05382 37.6987 6.98906 37.5778 6.89655C35.9601 5.66926 34.2712 4.74724 32.5296 4.13051C30.7848 3.51378 28.9874 3.20233 27.1435 3.20233C25.2997 3.20233 23.4991 3.51378 21.7575 4.13051C20.0128 4.74724 18.327 5.67234 16.7093 6.89655C16.418 7.11858 16.0647 7.20184 15.7269 7.15558C15.3891 7.10933 15.0699 6.93664 14.8468 6.64369C14.6237 6.35383 14.5431 5.99921 14.5865 5.66617C14.633 5.33006 14.8065 5.01244 15.0978 4.79042C16.9262 3.40585 18.8817 2.34816 20.9084 1.63275C22.9351 0.917339 25.0331 0.553467 27.1435 0.553467C29.254 0.553467 31.352 0.920422 33.3787 1.63275C35.4054 2.34507 37.3609 3.40277 39.1893 4.79042C39.4806 5.01244 39.6572 5.33006 39.7006 5.66617C39.7471 6.00229 39.6634 6.35383 39.4403 6.64369C39.3101 6.81638 39.1459 6.94589 38.9631 7.03224C38.7802 7.11858 38.5819 7.16483 38.3804 7.16483L38.3835 7.16792Z" fill="#1E222B"/>
<path d="M99.0964 7.16792C98.957 7.16792 98.8144 7.14633 98.6781 7.10008C98.5417 7.05382 98.4116 6.98906 98.2907 6.89655C96.673 5.66926 94.9841 4.74724 93.2425 4.13051C91.4977 3.51378 89.7003 3.20233 87.8564 3.20233C86.0125 3.20233 84.212 3.51378 82.4704 4.13051C80.7257 4.74724 79.0398 5.67234 77.4222 6.89655C77.1309 7.11858 76.7745 7.20184 76.4398 7.15558C76.102 7.10933 75.7828 6.93664 75.5597 6.64369C75.3366 6.35383 75.256 5.99921 75.2994 5.66617C75.3459 5.33006 75.5194 5.01244 75.8107 4.79042C77.6391 3.40585 79.5946 2.34816 81.6213 1.63275C83.648 0.920422 85.746 0.553467 87.8564 0.553467C89.9668 0.553467 92.0649 0.920422 94.0916 1.63275C96.1183 2.34507 98.0738 3.40277 99.9022 4.79042C100.193 5.01244 100.37 5.33006 100.413 5.66617C100.46 6.00229 100.376 6.35383 100.153 6.64369C100.023 6.81638 99.8588 6.94589 99.6759 7.03224C99.4931 7.11858 99.2948 7.16483 99.0933 7.16483L99.0964 7.16792Z" fill="#1E222B"/>
<path d="M30.5743 78.4991C30.2892 78.4991 30.0134 78.4066 29.7872 78.2432C29.5609 78.0798 29.3874 77.8423 29.3006 77.5555C29.1953 77.2071 29.2418 76.8463 29.4029 76.5503C29.564 76.2512 29.8399 76.0168 30.1931 75.9119L33.7911 74.8419L37.389 73.7719C37.7423 73.667 38.1017 73.7133 38.4023 73.8767C38.7029 74.0402 38.9385 74.3115 39.0438 74.6631C39.1492 75.0115 39.1027 75.3723 38.9416 75.6683C38.7804 75.9675 38.5046 76.2018 38.1513 76.3067L34.5534 77.3767L30.9555 78.4467C30.8904 78.4652 30.8284 78.4806 30.7634 78.4899C30.6983 78.4991 30.6363 78.5022 30.5743 78.5022V78.4991Z" fill="#1E222B"/>
<path d="M84.4285 78.4991C84.3665 78.4991 84.3015 78.4961 84.2364 78.4868C84.1713 78.4776 84.1093 78.4652 84.0442 78.4436L80.4463 77.3736L76.8484 76.3036C76.4951 76.1987 76.2193 75.9613 76.0582 75.6653C75.897 75.3662 75.8505 75.0084 75.9559 74.66C76.0613 74.3085 76.2999 74.0371 76.6005 73.8737C76.9011 73.7102 77.2606 73.6671 77.6108 73.7688L81.2087 74.8388L84.8066 75.9089C85.1568 76.0137 85.4326 76.2512 85.5968 76.5472C85.758 76.8463 85.8045 77.204 85.7022 77.5525C85.6154 77.8392 85.4419 78.0767 85.2157 78.2401C84.9894 78.4036 84.7136 78.4961 84.4285 78.4961V78.4991Z" fill="#1E222B"/>
<path d="M57.5011 100.556C47.2465 100.556 41.0951 94.5557 37.5033 88.5271C33.9116 82.4986 32.8797 76.4361 32.858 76.3158C32.7991 75.955 32.8952 75.6066 33.0935 75.3321C33.2918 75.0577 33.5986 74.8603 33.9581 74.8017C34.3207 74.7462 34.674 74.8418 34.9498 75.0392C35.2256 75.2365 35.4239 75.5387 35.4828 75.8995C35.5572 76.3497 36.5024 81.851 39.7067 87.2443C42.9142 92.6345 48.3808 97.9138 57.4949 97.9138C66.609 97.9138 72.0787 92.6345 75.283 87.2443C78.4904 81.8541 79.4356 76.3497 79.5069 75.8995C79.5658 75.5387 79.7641 75.2365 80.0399 75.0392C80.3157 74.8418 80.6659 74.7462 81.0316 74.8017C81.3942 74.8603 81.6979 75.0577 81.8962 75.3321C82.0946 75.6066 82.1906 75.955 82.1317 76.3158C82.1131 76.4361 81.0781 82.4955 77.4864 88.5271C73.8947 94.5588 67.7432 100.556 57.4887 100.556H57.5011Z" fill="#1E222B"/>
<path d="M27.144 66.4421C19.6599 66.4421 12.8732 63.4139 7.95818 58.5232C3.0432 53.6295 0 46.8762 0 39.4323C0 31.9883 3.0432 25.232 7.95818 20.3414C12.8732 15.4507 19.6599 12.4194 27.144 12.4194C34.628 12.4194 41.4148 15.4476 46.3297 20.3414C51.2447 25.232 54.2879 31.9853 54.2879 39.4323C54.2879 46.8793 51.2447 53.6325 46.3297 58.5232C41.4148 63.4139 34.628 66.4421 27.144 66.4421ZM27.144 15.0652C20.3944 15.0652 14.2708 17.7973 9.83926 22.2101C5.40462 26.6228 2.65892 32.713 2.65892 39.4323C2.65892 46.1516 5.40462 52.2387 9.83926 56.6515C14.2739 61.0642 20.3944 63.7963 27.144 63.7963C33.8935 63.7963 40.0171 61.0642 44.4487 56.6515C48.8833 52.2387 51.629 46.1485 51.629 39.4323C51.629 32.7161 48.8833 26.6228 44.4487 22.2101C40.014 17.7973 33.8935 15.0652 27.144 15.0652Z" fill="#1E222B"/>
<path d="M87.8559 66.4421C80.3718 66.4421 73.5851 63.4139 68.6701 58.5232C63.7551 53.6325 60.7119 46.8793 60.7119 39.4323C60.7119 31.9853 63.7551 25.232 68.6701 20.3414C73.5851 15.4507 80.3718 12.4194 87.8559 12.4194C95.3399 12.4194 102.127 15.4476 107.042 20.3414C111.957 25.232 115 31.9853 115 39.4323C115 46.8793 111.957 53.6325 107.042 58.5232C102.127 63.4139 95.3399 66.4421 87.8559 66.4421ZM87.8559 15.0652C81.1063 15.0652 74.9827 17.7973 70.5512 22.2101C66.1165 26.6228 63.3708 32.713 63.3708 39.4323C63.3708 46.1516 66.1165 52.2387 70.5512 56.6515C74.9858 61.0642 81.1063 63.7963 87.8559 63.7963C94.6054 63.7963 100.729 61.0642 105.161 56.6515C109.595 52.2387 112.341 46.1485 112.341 39.4323C112.341 32.7161 109.595 26.6228 105.161 22.2101C100.726 17.7973 94.6054 15.0652 87.8559 15.0652Z" fill="#1E222B"/>
<mask id="mask0_608_8809" style="mask-type:luminance" maskUnits="userSpaceOnUse" x="1" y="13" width="113" height="53">
<path d="M52.9581 39.4293C52.9581 46.5217 50.0698 52.945 45.3966 57.5921C40.7264 62.2392 34.2712 65.1162 27.1436 65.1162C20.0159 65.1162 13.5608 62.2422 8.89061 57.5921C4.22045 52.945 1.3291 46.5217 1.3291 39.4293C1.3291 32.3369 4.21735 25.9136 8.89061 21.2666C13.5639 16.6195 20.0159 13.7424 27.1436 13.7424C34.2712 13.7424 40.7264 16.6164 45.3966 21.2666C50.0667 25.9167 52.9581 32.3369 52.9581 39.4293ZM87.8557 13.7424C80.728 13.7424 74.2729 16.6164 69.6027 21.2666C64.9325 25.9167 62.0412 32.3369 62.0412 39.4293C62.0412 46.5217 64.9294 52.945 69.6027 57.5921C74.2729 62.2392 80.728 65.1162 87.8557 65.1162C94.9833 65.1162 101.439 62.2422 106.109 57.5921C110.779 52.945 113.67 46.5217 113.67 39.4293C113.67 32.3369 110.782 25.9136 106.109 21.2666C101.439 16.6195 94.9833 13.7424 87.8557 13.7424Z" fill="white"/>
</mask>
<g mask="url(#mask0_608_8809)">
<path d="M88.8165 2.15723C85.9251 5.59242 83.4583 10.1316 81.5927 15.4478C79.7271 20.764 78.4659 26.8635 77.9824 33.4163L84.3725 36.4229L90.7626 39.4294L84.3725 42.436L77.9824 45.4426C78.4659 51.9953 79.7302 58.0917 81.5927 63.411C83.4583 68.7273 85.9251 73.2664 88.8165 76.7016C95.721 76.3377 101.938 72.0545 106.425 65.3445C110.912 58.6345 113.673 49.5007 113.673 39.4294C113.673 29.3582 110.912 20.2244 106.425 13.5143C101.938 6.8043 95.7241 2.5211 88.8165 2.15723Z" fill="#1E222B"/>
<path d="M28.1045 2.15723C25.2132 5.59242 22.7464 10.1316 20.8808 15.4478C19.0152 20.764 17.7539 26.8635 17.2705 33.4163L23.6606 36.4229L30.0507 39.4294L23.6606 42.436L17.2705 45.4426C17.7539 51.9953 19.0183 58.0917 20.8808 63.411C22.7464 68.7273 25.2132 73.2664 28.1045 76.7016C35.0091 76.3377 41.2256 72.0545 45.7129 65.3445C50.2003 58.6345 52.9614 49.5007 52.9614 39.4294C52.9614 29.3582 50.2003 20.2244 45.7129 13.5143C41.2256 6.8043 35.0122 2.5211 28.1045 2.15723Z" fill="#1E222B"/>
</g>
</g>
<defs>
<clipPath id="clip0_608_8809">
<rect width="115" height="100" fill="white" transform="translate(0 0.556641)"/>
</clipPath>
</defs>
</svg>
