<svg width="175" height="50" viewBox="0 0 175 50" fill="none" xmlns="http://www.w3.org/2000/svg">
<g clip-path="url(#clip0_608_8248)">
<path d="M165.749 0H9.25114C4.14188 0 0 4.11692 0 9.19541V40.8046C0 45.8831 4.14188 50 9.25114 50H165.749C170.858 50 175 45.8831 175 40.8046V9.19541C175 4.11692 170.858 0 165.749 0Z" fill="black"/>
<path d="M40.3555 20.2728L23.7113 10.9709C23.1292 10.6254 22.4495 10.7538 22.0186 11.1607L35.9042 24.7647L40.3555 20.2724V20.2728Z" fill="url(#paint0_linear_608_8248)"/>
<path d="M22.0178 11.1606C21.7553 11.4083 21.585 11.7593 21.585 12.1699V37.83C21.585 38.2238 21.7425 38.5625 21.9871 38.8083L35.9039 24.7646L22.0178 11.1606Z" fill="url(#paint1_linear_608_8248)"/>
<path d="M46.6687 23.8011L40.3556 20.2729L35.9043 24.7653L40.7467 29.5093L46.6691 26.1997C47.5819 25.6575 47.5819 24.3433 46.6691 23.8015L46.6687 23.8011Z" fill="url(#paint2_linear_608_8248)"/>
<path d="M21.9868 38.8084C22.4159 39.2395 23.1144 39.3833 23.7107 39.0292L40.7456 29.5087L35.9031 24.7646L21.9863 38.8084H21.9868Z" fill="url(#paint3_linear_608_8248)"/>
<path fill-rule="evenodd" clip-rule="evenodd" d="M56.2669 30.4766C56.2669 26.3922 59.7207 23.0667 63.8303 23.0667C66.102 23.0667 67.7187 23.9535 68.9384 25.108L67.5021 26.5356C66.6305 25.7221 65.4484 25.0911 63.8285 25.0911C60.8276 25.0911 58.4822 27.4925 58.4822 30.4752C58.4822 33.458 60.8276 35.8626 63.8271 35.8626C65.7727 35.8626 66.8797 35.0864 67.59 34.3789C68.1717 33.8008 68.5527 32.97 68.7002 31.8309H63.8303V29.8115H70.6847C70.7566 30.173 70.7946 30.6063 70.7946 31.0752C70.7946 32.5917 70.376 34.4727 69.0291 35.8111C67.7183 37.1668 66.047 37.8902 63.8285 37.8902C59.7175 37.8902 56.2637 34.5679 56.2637 30.4802L56.2669 30.4771V30.4766ZM76.3351 28.3447C73.6805 28.3447 71.5142 30.3519 71.5142 33.1147C71.5142 35.8776 73.6791 37.8847 76.3351 37.8847C78.991 37.8847 81.1532 35.8603 81.1532 33.1129C81.1532 30.3655 78.9896 28.3429 76.3351 28.3443V28.3447ZM76.3351 36.0087C74.8818 36.0087 73.626 34.8164 73.626 33.1165C73.626 31.4167 74.8805 30.2244 76.3351 30.2244C77.7897 30.2244 79.0428 31.398 79.0428 33.1165C79.0428 34.8351 77.7901 36.0087 76.3351 36.0087ZM86.8475 28.3447C84.193 28.3447 82.0294 30.3519 82.0294 33.1147C82.0294 35.8776 84.193 37.8847 86.8475 37.8847C89.5021 37.8847 91.6657 35.8603 91.6657 33.1129C91.6657 30.3655 89.5035 28.3429 86.8475 28.3443V28.3447ZM86.8475 36.0087C85.3943 36.0087 84.1385 34.8164 84.1385 33.1165C84.1385 31.4167 85.3929 30.2244 86.8475 30.2244C88.3022 30.2244 89.5566 31.398 89.5566 33.1165C89.5566 34.8351 88.3008 36.0087 86.8475 36.0087ZM99.7494 28.6342V29.4104H99.6775C99.2058 28.8478 98.2962 28.3429 97.1516 28.3429C94.7512 28.3429 92.5483 30.4406 92.5483 33.1348C92.5483 35.8289 94.7494 37.8879 97.1516 37.8879C98.2962 37.8879 99.2053 37.3831 99.6775 36.8049H99.7494V37.4905C99.7494 39.3156 98.7679 40.2925 97.186 40.2925C95.894 40.2925 95.0943 39.3697 94.7668 38.5954L92.9293 39.3543C93.456 40.618 94.858 42.1736 97.1846 42.1736C99.6555 42.1736 101.747 40.7259 101.747 37.2023V28.6329L99.7499 28.6342H99.7494ZM97.3316 36.0087C95.8784 36.0087 94.6569 34.7964 94.6569 33.1352C94.6569 31.474 95.8765 30.2258 97.3316 30.2258C98.7867 30.2258 99.8951 31.454 99.8951 33.1352C99.8964 34.7964 98.7693 36.0087 97.3316 36.0087ZM103.203 23.5729H105.314V37.5984H103.203V23.5729ZM111.097 36.0087C110.025 36.0087 109.26 35.5193 108.772 34.5642L115.191 31.9229L114.97 31.3807C114.572 30.3164 113.352 28.3452 110.86 28.3452C108.369 28.3452 106.333 30.279 106.333 33.117C106.333 35.7897 108.369 37.887 111.097 37.887C113.298 37.887 114.572 36.5513 115.098 35.7724L113.461 34.6894C112.914 35.4856 112.168 36.011 111.097 36.0091V36.0087ZM110.933 30.188C111.769 30.188 112.477 30.6041 112.714 31.1995L108.421 32.9713C108.368 31.1276 109.859 30.188 110.933 30.188Z" fill="white"/>
<path fill-rule="evenodd" clip-rule="evenodd" d="M124.451 23.573H119.405V37.5985H121.511V32.2859H124.452C126.786 32.2859 129.082 30.606 129.082 27.9287C129.082 25.2515 126.788 23.5748 124.455 23.5748L124.451 23.5735V23.573ZM124.506 30.3333H121.511V25.5242H124.506C126.08 25.5242 126.976 26.8225 126.976 27.9287C126.976 29.035 126.08 30.3333 124.506 30.3333ZM132.348 37.5985V23.573H130.242V37.5985H132.348ZM141.807 37.5735V32.1971C141.807 29.7069 139.935 28.3184 137.519 28.3184C135.996 28.3184 134.418 28.9872 133.764 30.4658L135.632 31.2402C136.032 30.4658 136.775 30.2118 137.558 30.2118C138.646 30.2118 139.753 30.8614 139.77 32.0182V32.1629C139.389 31.9462 138.573 31.6207 137.573 31.6207C135.558 31.6207 133.508 32.7211 133.508 34.7778C133.508 36.6557 135.16 37.8635 137.012 37.8635C138.43 37.8635 139.209 37.2325 139.698 36.4936H139.77V37.5767H141.805L141.806 37.5735H141.807ZM137.268 36.0056C136.578 36.0056 135.615 35.6628 135.615 34.8165C135.615 33.7335 136.815 33.3156 137.849 33.3156C138.776 33.3156 139.21 33.5136 139.775 33.7845C139.613 35.0437 138.542 35.9897 137.268 36.0052V36.0056ZM149.211 28.6253L146.797 34.7045H146.725L144.22 28.6253H141.951L145.708 37.1246L143.564 41.8514H145.761L151.551 28.6253H149.212H149.211Z" fill="white"/>
<path d="M92.1626 17.2786C91.085 17.2786 90.1768 16.904 89.4581 16.166C88.7455 15.449 88.348 14.4607 88.3658 13.4514C88.3658 12.3743 88.7341 11.4625 89.4581 10.7396C90.1735 10.0021 91.0818 9.62695 92.1594 9.62695C93.2371 9.62695 94.1334 10.0016 94.8639 10.7396C95.588 11.4862 95.9563 12.398 95.9563 13.4514C95.9444 14.5313 95.5761 15.4431 94.8639 16.1633C94.1485 16.9067 93.2403 17.2786 92.1626 17.2786ZM60.0994 17.2786C59.0456 17.2786 58.1314 16.9099 57.383 16.1811C56.6411 15.4554 56.2637 14.5376 56.2637 13.4546C56.2637 12.3716 56.6406 11.4543 57.383 10.7282C58.1163 9.99934 59.0305 9.6306 60.0994 9.6306C60.622 9.6306 61.1295 9.73393 61.6163 9.94335C62.0945 10.1468 62.4833 10.4241 62.7709 10.7637L62.8424 10.8493L62.0377 11.6341L61.9543 11.5367C61.5 10.9995 60.8918 10.7373 60.0871 10.7373C59.3685 10.7373 58.7424 10.9909 58.2257 11.4925C57.7064 11.9969 57.4421 12.6579 57.4421 13.4578C57.4421 14.2577 57.7064 14.9182 58.2257 15.4231C58.7424 15.9248 59.3685 16.1783 60.0871 16.1783C60.8528 16.1783 61.4972 15.9248 61.9988 15.4231C62.2955 15.1281 62.4797 14.7147 62.5451 14.1926H59.9657V13.0891H63.6526L63.6672 13.1892C63.6938 13.375 63.7208 13.5671 63.7208 13.7442C63.7208 14.7621 63.4121 15.5851 62.8007 16.1933C62.1059 16.9135 61.1977 17.2791 60.0994 17.2791V17.2786ZM102.731 17.122H101.594L98.1121 11.5836L98.1418 12.581V17.1193H97.0051V9.78674H98.3021L98.3379 9.84274L101.612 15.0593L101.582 14.0651V9.78674H102.731V17.122ZM83.6196 17.122H82.4677V10.8902H80.4699V9.78674H85.6146V10.8902H83.6168V17.122H83.6196ZM79.5319 17.122H78.3832V9.78674H79.5319V17.122ZM73.0755 17.122H71.9268V10.8902H69.929V9.78674H75.0737V10.8902H73.0759V17.122H73.0755ZM69.2017 17.1102H64.7962V9.78674H69.2017V10.8902H65.9481V12.9024H68.8839V13.9941H65.9481V16.0062H69.2017V17.1097V17.1102ZM90.3022 15.4076C90.8157 15.9179 91.439 16.1747 92.1636 16.1747C92.8881 16.1747 93.5174 15.9238 94.0249 15.4076C94.5296 14.9059 94.7847 14.2481 94.7847 13.4542C94.7847 12.6602 94.5296 11.9997 94.0276 11.5007C93.5142 10.9904 92.8877 10.7336 92.1663 10.7336C91.445 10.7336 90.8125 10.9845 90.3082 11.5007C89.8035 12.0024 89.5484 12.6602 89.5484 13.4542C89.5484 14.2481 89.8007 14.9087 90.3022 15.4076Z" fill="#E5E5E5"/>
</g>
<defs>
<linearGradient id="paint0_linear_608_8248" x1="23.7928" y1="10.2985" x2="37.8534" y2="22.4291" gradientUnits="userSpaceOnUse">
<stop offset="0.2" stop-color="#0DD763"/>
<stop offset="0.22" stop-color="#0CD863"/>
<stop offset="0.34" stop-color="#05E46B"/>
<stop offset="0.52" stop-color="#01EB6F"/>
<stop offset="1" stop-color="#00ED71"/>
</linearGradient>
<linearGradient id="paint1_linear_608_8248" x1="19.502" y1="27.492" x2="28.4855" y2="18.372" gradientUnits="userSpaceOnUse">
<stop stop-color="#02DEFF"/>
<stop offset="1" stop-color="#0FC2FE"/>
</linearGradient>
<linearGradient id="paint2_linear_608_8248" x1="35.9661" y1="24.9465" x2="47.2228" y2="24.8087" gradientUnits="userSpaceOnUse">
<stop stop-color="#FEC70D"/>
<stop offset="1" stop-color="#FFC80D"/>
</linearGradient>
<linearGradient id="paint3_linear_608_8248" x1="22.8355" y1="39.2454" x2="37.9662" y2="27.2729" gradientUnits="userSpaceOnUse">
<stop stop-color="#DD1D4F"/>
<stop offset="1" stop-color="#EE4449"/>
</linearGradient>
<clipPath id="clip0_608_8248">
<rect width="175" height="50" fill="white"/>
</clipPath>
</defs>
</svg>
