<svg width="1440" height="28" viewBox="0 0 1440 28" fill="none" xmlns="http://www.w3.org/2000/svg">
<path d="M54 6.69897C43.3333 -1.30103 28.6667 -1.30103 18 6.69897L1.36424e-10 20.199L0 27.199H1440V20.199L1422 6.69897C1411.33 -1.30103 1396.67 -1.30103 1386 6.69897C1375.33 14.699 1360.67 14.699 1350 6.69897C1339.33 -1.30103 1324.67 -1.30103 1314 6.69897C1303.33 14.699 1288.67 14.699 1278 6.69897C1267.33 -1.30103 1252.67 -1.30103 1242 6.69897C1231.33 14.699 1216.67 14.699 1206 6.69897C1195.33 -1.30103 1180.67 -1.30103 1170 6.69897C1159.33 14.699 1144.67 14.699 1134 6.69897C1123.33 -1.30103 1108.67 -1.30103 1098 6.69897C1087.33 14.699 1072.67 14.699 1062 6.69897C1051.33 -1.30103 1036.67 -1.30103 1026 6.69897C1015.33 14.699 1000.67 14.699 990 6.69897C979.333 -1.30103 964.667 -1.30103 954 6.69897C943.333 14.699 928.667 14.699 918 6.69897C907.333 -1.30103 892.667 -1.30103 882 6.69897C871.333 14.699 856.667 14.699 846 6.69897C835.333 -1.30103 820.667 -1.30103 810 6.69897C799.333 14.699 784.667 14.699 774 6.69897C763.333 -1.30103 748.667 -1.30103 738 6.69897C727.333 14.699 712.667 14.699 702 6.69897C691.333 -1.30103 676.667 -1.30103 666 6.69897C655.333 14.699 640.667 14.699 630 6.69897C619.333 -1.30103 604.667 -1.30103 594 6.69897C583.333 14.699 568.667 14.699 558 6.69897C547.333 -1.30103 532.667 -1.30103 522 6.69897C511.333 14.699 496.667 14.699 486 6.69897C475.333 -1.30103 460.667 -1.30103 450 6.69897C439.333 14.699 424.667 14.699 414 6.69897C403.333 -1.30103 388.667 -1.30103 378 6.69897C367.333 14.699 352.667 14.699 342 6.69897C331.333 -1.30103 316.667 -1.30103 306 6.69897C295.333 14.699 280.667 14.699 270 6.69897C259.333 -1.30103 244.667 -1.30103 234 6.69897C223.333 14.699 208.667 14.699 198 6.69897C187.333 -1.30103 172.667 -1.30103 162 6.69897C151.333 14.699 136.667 14.699 126 6.69897C115.333 -1.30103 100.667 -1.30103 90 6.69897C79.3333 14.699 64.6667 14.699 54 6.69897Z" fill="white"/>
</svg>
