<svg width="244" height="184" viewBox="0 0 244 184" fill="none" xmlns="http://www.w3.org/2000/svg">
<g class="leaf" clip-path="url(#clip0_712_10827)">
<path d="M83.794 113.412C84.1432 112.618 84.412 112.029 84.6715 111.432C85.477 109.572 86.1732 107.652 87.1241 105.87C87.7479 104.697 88.6423 103.619 89.5867 102.673C91.6345 100.613 93.8656 100.315 96.481 101.623C99.5685 103.165 101.615 105.685 102.963 108.791C104.085 111.376 104.88 114.093 105.213 116.88C106.125 124.506 105.395 131.943 102.341 139.074C101.229 141.669 99.7849 144.068 98.1314 146.342C97.512 147.195 96.7315 147.951 95.9306 148.642C90.6795 153.195 84.5178 155.817 77.742 157.079C73.3012 157.905 68.8799 157.707 64.4802 156.75C60.5917 155.899 57.2787 153.995 54.4174 151.273C52.7752 149.705 51.632 147.812 50.9344 145.657C49.5766 141.467 50.8375 138.945 54.9816 137.545C55.8845 137.237 56.8108 136.991 57.8645 136.674C57.5782 136.348 57.4418 136.064 57.2182 135.96C54.9977 134.954 52.6814 134.348 50.2314 134.16C48.1145 134 46.0035 133.697 43.9054 133.349C42.0668 133.04 40.3888 132.248 38.9241 131.1C38.1734 130.512 37.4656 129.816 36.9117 129.044C35.1749 126.633 35.7198 123.573 38.207 121.957C39.0813 121.39 40.1222 121.05 41.1247 120.715C41.9461 120.441 42.8253 120.344 43.6737 120.152C44.3313 120 44.9978 119.851 45.6349 119.634C46.3684 119.387 47.2068 119.094 47.2369 118.183C47.2692 117.325 46.5499 116.852 45.8776 116.438C44.3686 115.505 42.6853 115.084 40.975 114.723C39.1779 114.344 37.3571 114.035 35.6012 113.507C34.2264 113.09 32.8796 112.494 31.6231 111.788C29.8839 110.809 29.0266 109.229 29.1403 107.2C29.2569 105.168 30.3562 103.744 32.1162 102.882C33.1501 102.377 34.2974 102.1 35.3929 101.72C37.8295 100.877 38.0659 100.224 36.37 98.2943C35.032 96.7735 33.5309 95.3929 32.0816 93.9745C30.2833 92.2181 28.4252 90.5205 26.6552 88.7333C24.9255 86.9888 23.7984 84.8427 22.9152 82.5739C22.4203 81.2994 22.2016 79.9659 22.369 78.5837C22.711 75.7746 24.5108 74.0219 27.3198 73.7948C29.1098 73.6488 30.7709 74.1069 32.3436 74.9332C34.5224 76.078 36.2638 77.7479 37.8894 79.556C39.5711 81.427 41.2212 83.3259 42.9258 85.1782C43.7113 86.0315 44.5403 86.8622 45.4501 87.5681C46.124 88.0912 46.9342 88.4723 47.7329 88.7915C48.5016 89.1002 49.308 88.6812 49.5972 87.8719C49.8544 87.1469 49.9581 86.366 50.2153 85.641C50.6691 84.3743 51.0461 83.0426 51.7123 81.8915C53.058 79.5561 55.351 79.3209 57.2812 81.1815C58.5011 82.3605 59.2038 83.8545 59.6848 85.4348C60.1624 87.0064 60.4587 88.6329 60.9042 90.2147C61.3773 91.8902 61.8447 93.5719 62.4841 95.1841C62.9809 96.4318 63.6856 97.6205 64.9421 98.3267C65.3304 98.5416 66.0644 98.3746 66.1865 97.9635C66.4333 97.1322 66.659 96.2929 66.8102 95.4419C67.1478 93.5221 67.6083 91.6356 68.6201 89.9603C69.2134 88.9812 69.9075 88.0037 70.75 87.2424C72.9314 85.2603 75.5554 85.5685 77.2425 87.9964C78.6396 90.0097 79.5255 92.2696 79.8026 94.7149C80.1118 97.5028 80.3415 100.303 80.6033 103.093C80.7578 104.731 80.8649 106.371 81.0783 108.002C81.2794 109.552 81.8146 111.012 82.6467 112.34C82.8786 112.713 83.3011 112.965 83.7943 113.418L83.794 113.412Z" fill="#BF713C"/>
<path d="M83.6726 136.019C83.922 135.321 84.1867 134.705 84.3558 134.07C85.1813 130.989 85.9767 127.897 86.8051 124.813C87.0051 124.069 87.2528 123.33 87.5462 122.621C87.8342 121.924 88.597 121.596 89.1937 121.832C89.7089 122.033 90.0842 122.645 89.9876 123.239C89.8958 123.809 89.7505 124.375 89.5929 124.93C88.6225 128.373 87.6403 131.817 86.6639 135.26C86.5035 135.818 86.4335 136.413 86.1945 136.933C85.4912 138.471 86.0361 139.666 86.9918 140.904C92.4283 147.947 97.7241 155.093 102.677 162.488C103.215 163.29 103.761 164.094 104.249 164.924C104.492 165.335 104.651 165.805 104.78 166.265C104.916 166.76 104.501 167.459 103.997 167.679C103.482 167.905 103.024 167.74 102.7 167.357C102.27 166.841 101.925 166.251 101.537 165.701C98.087 160.798 94.6138 155.914 91.2039 150.985C90.5321 150.015 89.7284 149.577 88.5827 149.468C83.3843 148.971 78.1897 148.426 72.9924 147.885C72.5191 147.837 71.999 147.802 71.6073 147.578C71.34 147.424 71.1096 146.944 71.1227 146.621C71.1333 146.306 71.4377 145.789 71.6904 145.737C72.5278 145.563 73.4036 145.458 74.2535 145.512C78.0187 145.754 81.7808 146.062 85.5442 146.332C86.0941 146.371 86.6501 146.342 87.4118 146.343C87.0828 145.704 86.9243 145.246 86.6451 144.875C83.1921 140.334 79.7105 135.817 75.9562 131.511C74.7761 130.152 73.4155 129.51 71.7197 129.355C67.3852 128.965 63.0481 128.583 58.7163 128.189C58.1422 128.139 57.5568 128.101 57.0052 127.952C56.4748 127.811 56.2235 127.33 56.3388 126.827C56.4139 126.498 56.7 126.039 56.9728 125.971C57.7091 125.789 58.4962 125.688 59.2566 125.727C62.3487 125.891 65.4348 126.124 68.5251 126.315C69.277 126.363 70.0328 126.364 71.027 126.397C70.7879 125.853 70.7124 125.465 70.4885 125.213C67.4658 121.819 64.423 118.44 61.3802 115.061C58.0734 111.394 54.5646 107.927 50.9533 104.56C49.0444 102.782 47.2658 100.862 45.4448 98.9876C45.0483 98.5774 44.65 98.1258 44.4183 97.6168C44.3007 97.355 44.4505 96.8271 44.6693 96.6016C44.8909 96.373 45.3853 96.219 45.6852 96.3013C46.1228 96.4193 46.5532 96.7185 46.8956 97.0391C50.8954 100.837 54.9177 104.605 58.8464 108.474C61.0503 110.644 63.0779 112.992 65.1993 115.245C65.5683 115.635 66.0059 115.964 66.3842 116.295C67.0316 115.758 66.9403 115.134 67.0685 114.586C67.7269 111.76 68.3763 108.933 69.0527 106.112C69.1638 105.651 69.3277 105.176 69.5779 104.78C69.8474 104.351 70.3108 104.163 70.838 104.295C71.38 104.43 71.6968 104.846 71.6231 105.353C71.3996 106.883 71.0925 108.398 70.8152 109.918C70.2913 112.771 69.7764 115.626 69.2405 118.472C69.1047 119.195 69.2887 119.769 69.7717 120.332C74.1378 125.378 78.4841 130.445 82.8475 135.493C83.0218 135.694 83.3105 135.794 83.6636 136.017L83.6726 136.019Z" fill="black"/>
</g>
<g class="acorn" clip-path="url(#clip1_712_10827)">
<path d="M116.558 28.1718C116.557 28.2168 116.601 28.3971 116.54 28.5268C116.413 28.7939 116.283 29.1133 116.057 29.2704C115.708 29.5108 115.256 29.4655 114.989 29.1274C114.554 28.5754 114.189 27.9647 113.797 27.3753C112.669 25.6656 111.6 23.9128 110.4 22.2549C107.935 18.8417 104.896 15.9811 101.587 13.3981C101.088 13.0105 100.579 12.6385 100.101 12.2272C99.3396 11.5702 99.2551 10.7463 99.6395 9.86844C100.306 8.33825 101.249 6.97543 102.359 5.73712C103.002 5.02231 103.925 4.88884 104.71 5.49066C105.701 6.25271 106.675 7.08635 107.485 8.03342C109.643 10.5617 111.411 13.3503 112.806 16.3827C114.46 19.9858 115.571 23.7571 116.472 27.6003C116.508 27.754 116.517 27.9117 116.555 28.1757L116.558 28.1718Z" fill="#644729"/>
<path d="M103.838 59.8205C109.966 59.1527 114.996 58.7748 120.054 58.7074C124.47 58.6463 128.89 58.5088 133.307 58.4544C134.962 58.433 136.616 58.529 138.27 58.6183C139.813 58.703 140.87 59.4001 141.553 60.8943C142.15 62.2073 142.616 63.4978 142.7 64.9403C142.975 69.6651 143.467 74.3862 142.887 79.1206C142.733 80.3729 142.526 81.619 142.302 82.8607C141.518 87.1476 139.353 90.6668 136.115 93.5048C132.593 96.5948 128.749 99.1852 124.258 100.708C123.293 101.034 122.334 101.429 121.437 101.917C120.246 102.566 119.486 103.523 119.829 105.014C119.865 105.168 119.882 105.328 119.887 105.483C119.946 106.873 119.241 107.421 117.996 106.882C117.513 106.672 117.047 106.321 116.7 105.922C116.186 105.33 115.776 104.646 115.333 103.991C113.999 102.032 112.216 100.714 109.964 99.9232C108.108 99.2723 106.309 98.4438 104.519 97.6211C103.59 97.1955 102.715 96.6412 101.855 96.0884C97.8744 93.5228 95.4591 89.8846 94.3865 85.282C93.3649 80.8896 92.732 76.4376 92.1934 71.9685C91.9748 70.1689 91.8065 68.3585 91.6933 66.5471C91.6466 65.7696 91.7381 64.9686 91.8795 64.2019C92.065 63.2145 92.6314 62.4728 93.6177 62.1264C94.2126 61.9161 94.7977 61.6622 95.4115 61.5355C98.577 60.8743 101.751 60.2464 103.838 59.8239L103.838 59.8205Z" fill="#BD8E63"/>
<path d="M134.581 67.5608C129.407 68.26 124.206 68.6038 119 68.8654C113.483 69.1444 107.961 69.3963 102.441 69.5926C99.2867 69.7064 96.1221 69.7041 93.0035 69.0871C91.9225 68.8736 90.8438 68.6045 89.8071 68.2429C88.2551 67.7105 87.3684 66.5706 87.1322 64.9359C86.8031 62.6582 86.7902 60.3693 86.9992 58.0864C87.4906 52.7844 88.8032 47.6678 90.7853 42.7377C92.9325 37.3968 96.6134 33.4652 101.74 30.793C108.021 27.5188 114.625 26.1775 121.657 26.979C124.575 27.3105 127.389 28.0856 130.088 29.2468C135.436 31.5457 139.439 35.3173 142.231 40.411C143.797 43.2701 144.913 46.3082 145.689 49.4543C146.58 53.0605 147.257 56.715 147.414 60.4375C147.453 61.3752 147.377 62.3328 147.207 63.2558C147.028 64.2388 146.409 64.9811 145.453 65.3405C144.643 65.644 143.816 65.9466 142.972 66.1031C140.18 66.624 137.373 67.0849 134.572 67.5657L134.581 67.5608Z" fill="#644729"/>
<path d="M112.061 40.2789C112.351 40.2993 112.449 40.3369 112.499 40.302C112.762 40.1328 113.036 39.9723 113.261 39.7601C115.499 37.6539 117.732 35.538 120.029 33.3645C119.784 32.2632 119.549 31.1881 119.308 30.1173C119.203 29.6556 119.062 29.2027 118.978 28.7381C118.885 28.2193 119.149 27.7493 119.577 27.5803C119.959 27.4284 120.514 27.7041 120.699 28.199C120.948 28.8646 121.146 29.5476 121.372 30.2233C121.492 30.5757 121.628 30.9222 121.799 31.3847C122.802 30.9392 123.358 30.1505 124.051 29.5425C124.339 29.2901 124.653 29.0029 125.001 28.9008C125.24 28.8317 125.61 28.9994 125.835 29.1707C125.975 29.2784 126.06 29.653 125.98 29.8132C125.739 30.3006 125.453 30.7842 125.094 31.1885C124.259 32.128 123.368 33.0168 122.453 33.9748C122.884 36.9082 123.808 39.6942 124.336 42.5616C124.403 42.9319 124.595 43.2808 124.714 43.6022C124.986 43.5907 125.191 43.6474 125.266 43.5743C127.919 40.9901 130.563 38.3933 133.289 35.7191C133.055 34.8649 132.812 34.0398 132.605 33.2059C132.531 32.9091 132.449 32.5615 132.538 32.2896C132.618 32.0293 132.881 31.7252 133.126 31.6484C133.371 31.575 133.809 31.6638 133.96 31.8492C134.252 32.2008 134.466 32.6502 134.599 33.094C135.705 36.8005 136.794 40.5162 137.874 44.2334C138.224 45.4404 138.528 46.661 138.846 47.8347C139.655 47.9045 139.872 47.3031 140.266 46.9489C140.834 46.435 141.306 46.3738 141.709 46.7508C142.089 47.1071 142.077 47.6236 141.616 48.2361C141.236 48.7401 140.842 49.2393 140.4 49.6903C139.722 50.379 139.535 51.1212 139.813 52.0623C140.734 55.1631 141.617 58.28 142.505 61.3925C142.653 61.917 142.817 62.4531 142.86 62.9893C142.893 63.4095 142.595 63.7601 142.162 63.8019C141.879 63.8289 141.451 63.7561 141.313 63.5653C140.953 63.061 140.633 62.4957 140.445 61.9079C139.75 59.728 139.12 57.5247 138.455 55.3336C138.277 54.7477 138.072 54.1658 137.823 53.421C137.431 53.6711 137.139 53.7789 136.961 53.9843C134.692 56.6201 132.491 59.3119 130.157 61.8844C129.484 62.6278 129.924 64.0223 128.554 64.2962C127.544 64.4975 127.163 65.5234 126.457 66.1367C126.279 66.2903 126.102 66.454 125.907 66.5825C125.78 66.663 125.591 66.7629 125.471 66.7249C125.119 66.6065 124.713 66.4959 124.476 66.2433C124.321 66.0792 124.297 65.5782 124.436 65.3923C125.1 64.512 125.834 63.6839 126.559 62.85C126.903 62.4549 126.995 62.0166 126.859 61.5317C126.585 60.5417 126.278 59.5634 126.023 58.5671C125.282 55.658 124.56 52.7425 123.825 49.8324C123.753 49.5491 123.628 49.2804 123.472 48.8469C123.112 49.082 122.825 49.1995 122.63 49.4038C120.826 51.285 119.062 53.2086 117.233 55.0622C116.529 55.7791 116.398 56.5028 116.677 57.4265C117.244 59.3174 117.757 61.223 118.294 63.1217C118.465 63.7293 118.683 64.3267 118.806 64.9412C118.886 65.3512 118.702 65.7301 118.292 65.9068C117.899 66.0743 117.439 66.0232 117.212 65.6967C116.856 65.1919 116.555 64.6169 116.36 64.0301C115.891 62.6051 115.512 61.1535 115.073 59.7174C114.942 59.2838 114.731 58.8755 114.484 58.2893C113.898 58.8265 113.406 59.2016 113.002 59.6539C111.05 61.8293 109.119 64.026 107.179 66.2101C106.76 66.6817 106.375 67.2003 105.881 67.5792C105.616 67.7799 105.136 67.8285 104.791 67.7609C104.365 67.6774 104.142 67.212 104.27 66.8307C104.618 65.775 104.272 64.8127 104.035 63.8173C103.34 60.8979 102.666 57.9756 101.95 54.9107C101.597 55.0239 101.252 55.0288 101.08 55.2022C99.1347 57.159 97.2136 59.14 95.3306 61.074C95.4197 62.6712 96.1509 63.9303 96.5273 65.2925C96.8012 66.2791 97.2277 67.2229 97.5445 68.1964C97.6373 68.4801 97.6311 68.8196 97.5847 69.12C97.501 69.6642 96.6622 70.003 96.282 69.6192C95.9096 69.2411 95.5573 68.7875 95.3626 68.3009C94.865 67.0564 94.4621 65.774 94.0133 64.5086C93.8841 64.1403 93.7283 63.7793 93.5807 63.4033C93.32 63.3443 93.0936 63.3078 92.8769 63.2424C91.9268 62.9547 91.5381 62.3924 92.0481 61.7383C92.7622 60.8231 92.4975 60.0425 92.2329 59.0961C91.3249 55.824 90.513 52.5242 89.6745 49.2317C89.5782 48.8518 89.4847 48.4438 89.5378 48.0698C89.5726 47.8091 89.8066 47.492 90.0428 47.3577C90.4201 47.1477 90.8463 47.3003 91.0799 47.6501C91.2918 47.9684 91.4239 48.357 91.5294 48.7288C92.2307 51.2395 92.9088 53.757 93.6135 56.2673C93.8222 57.018 94.0874 57.7536 94.3673 58.6149C95.497 58.1615 96.022 57.2529 96.7293 56.5772C97.5273 55.8123 98.2802 54.9987 99.0501 54.2068C99.7631 53.4749 100.476 52.7431 101.249 51.9473C100.892 50.1953 100.567 48.494 100.195 46.803C99.3583 43.023 98.4891 39.2547 97.6561 35.4743C97.5748 35.1025 97.5712 34.6711 97.6857 34.316C97.7617 34.077 98.0813 33.8028 98.3336 33.7559C98.5893 33.7086 99.0088 33.8381 99.1483 34.039C99.4124 34.4086 99.5897 34.8701 99.6924 35.3183C100.576 39.088 101.435 42.8611 102.305 46.6328C102.534 47.6224 102.621 48.6533 103.122 49.5414C103.359 49.5072 103.558 49.5407 103.639 49.4564C105.862 47.2211 108.072 44.9737 110.311 42.705C110.16 41.9252 110.069 41.2232 109.886 40.5483C109.094 37.6533 108.263 34.7675 107.481 31.871C107.279 31.1159 107.179 30.3288 107.081 29.5518C107.038 29.209 107.501 28.7276 107.819 28.7783C108.106 28.8267 108.464 28.9441 108.623 29.1596C108.847 29.4625 108.927 29.8758 109.044 30.2528C110.053 33.576 111.051 36.9006 112.072 40.2809L112.061 40.2789ZM128.771 60.0083C129.145 59.7296 129.425 59.5856 129.614 59.3681C131.981 56.6248 134.333 53.8665 136.699 51.1198C137.173 50.5711 137.151 49.9904 136.979 49.3484C136.066 45.9216 135.169 42.4924 134.253 39.0694C134.179 38.7968 134.181 38.4234 133.61 38.347C133.453 38.456 133.176 38.5928 132.968 38.8025C130.649 41.1623 128.355 43.5496 126.023 45.8939C125.444 46.4751 125.347 47.073 125.535 47.8232C126.376 51.1844 127.192 54.5562 128.04 57.9164C128.208 58.5763 128.486 59.2098 128.767 60.0088L128.771 60.0083ZM111.139 45.3737C110.795 45.5062 110.529 45.5308 110.378 45.6771C108.091 47.9459 105.824 50.2359 103.773 52.4879C103.754 52.7912 103.732 52.8739 103.749 52.9474C104.558 56.3961 105.371 59.8444 106.203 63.2863C106.222 63.3665 106.457 63.3947 106.655 63.4732C109.074 60.8227 111.507 58.1561 113.944 55.4891C113.1 52.0351 112.311 48.6768 111.139 45.3737ZM120.705 36.1485C120.267 36.3257 120.02 36.3614 119.86 36.4985C117.426 38.6089 115.081 40.81 112.944 43.14C113.342 45.4423 115.226 51.8074 115.921 53.1754C116.176 52.9796 116.44 52.8239 116.647 52.6074C118.442 50.7345 120.196 48.8157 122.035 46.9815C122.744 46.2709 122.875 45.5748 122.651 44.6466C121.988 41.8955 121.384 39.1322 120.705 36.1519L120.705 36.1485Z" fill="#F7F7F7"/>
</g>
<g class="cone" clip-path="url(#clip2_712_10827)">
<path d="M201.604 26.0979C201.87 26.4376 202.147 26.7191 202.345 27.0485C204.649 30.8619 206.464 34.9003 207.956 39.0786C208.712 41.1983 209.263 43.3892 209.909 45.5479C210.429 47.2825 210.534 49.0573 210.409 50.8438C210.381 51.2256 210.315 51.6134 210.195 51.9749C209.925 52.7779 208.861 52.99 208.308 52.3173C207.52 51.3632 206.765 50.3895 206.29 49.2138C205.07 46.1803 203.654 43.2305 201.786 40.5295C199.927 37.841 198.075 35.1377 196.035 32.5905C194.682 30.9001 193.003 29.4669 191.459 27.9279C191.184 27.6555 190.839 27.4477 190.578 27.1638C189.985 26.515 190.317 25.4908 191.164 25.3585C191.544 25.2988 191.936 25.3073 192.323 25.332C193.178 25.3907 194.03 25.4944 194.883 25.5561C196.667 25.6841 198.453 25.7867 200.239 25.9163C200.699 25.95 201.158 26.0407 201.609 26.1041L201.604 26.0979Z" fill="black"/>
<path d="M213.445 104.272C211.234 108.891 208.47 113.185 205.632 117.431C203.528 120.582 201.447 123.753 199.229 126.823C194.859 132.868 189.733 138.226 183.955 142.956C182.449 144.189 180.786 145.185 179.003 145.973C177.584 146.601 176.152 147.204 174.722 147.811C171.302 149.258 167.712 149.326 164.163 148.587C161.466 148.028 159.048 146.672 157.218 144.499C156.365 143.487 155.493 142.475 154.775 141.37C153.577 139.523 152.775 137.501 152.502 135.302C152.406 134.532 152.27 133.759 152.261 132.987C152.209 128.882 152.024 124.773 152.441 120.677C152.694 118.212 152.88 115.737 153.18 113.279C153.461 110.975 153.738 108.665 154.211 106.397C155.274 101.325 156.347 96.2475 157.629 91.2312C158.512 87.7905 159.795 84.4577 160.832 81.0548C161.505 78.843 162.151 76.6121 162.633 74.3491C163.432 70.5986 164.942 67.1384 166.622 63.7361C167.991 60.9579 169.506 58.2637 171.203 55.6685C172.395 53.8473 173.735 52.1372 175.297 50.6403C178.385 47.6796 182.128 45.8028 186.289 44.8605C188.889 44.2708 191.566 44.4411 194.183 44.9979C198.004 45.8124 201.777 46.8261 205.339 48.465C210.421 50.8009 215.018 53.8529 218.917 57.8933C219.239 58.2263 219.571 58.5716 219.816 58.9615C220.683 60.3438 221.486 61.764 222.36 63.1391C223.506 64.9411 224.185 66.8849 224.657 68.96C225.88 74.3349 225.015 79.4117 222.968 84.4029C220.734 89.8491 218.238 95.1675 215.55 100.4C214.879 101.705 214.147 102.98 213.442 104.27L213.445 104.272Z" fill="#705237"/>
<path d="M175.467 111.142C173.84 111.87 172.73 112.405 171.592 112.866C170.947 113.128 170.263 113.308 169.579 113.46C164.661 114.546 160.15 113.621 156.043 110.658C155.046 109.937 154.443 108.962 154.115 107.813C154.008 107.438 154.08 107.046 154.464 106.794C154.872 106.529 155.45 106.578 155.741 106.92C155.79 106.977 155.85 107.037 155.881 107.107C156.751 109.068 158.524 109.927 160.365 110.613C163.768 111.882 167.209 112.015 170.667 110.807C172.397 110.203 173.918 109.317 175.112 107.944C175.923 107.01 176.758 106.069 177.378 105.011C180.117 100.341 182.97 95.7294 185.312 90.8342C185.445 90.5558 185.55 90.2657 185.654 90.0176C185.616 89.8208 185.627 89.6441 185.548 89.5208C183.027 85.6114 183.257 81.4129 184.175 77.1627C184.385 76.1861 184.747 75.2427 185.168 73.8662C184.386 74.7249 183.879 75.2645 183.39 75.8213C182.831 76.4624 182.28 77.1113 181.74 77.7666C177.955 82.3914 171.453 83.1681 166.224 80.5034C164.895 79.8261 163.712 78.9161 162.787 77.7267C162.507 77.3639 162.27 76.9443 162.115 76.516C161.984 76.1503 162.033 75.7498 162.418 75.4906C162.779 75.2455 163.175 75.233 163.505 75.4822C163.807 75.7122 164.029 76.0471 164.296 76.3268C166.979 79.1644 170.295 80.0995 174.083 79.5986C176.431 79.287 178.365 78.2453 179.849 76.4193C181.311 74.6196 182.859 72.8743 184.169 70.9648C187.809 65.6613 191.113 60.1549 193.661 54.2274C194.483 52.307 195.306 50.3867 196.166 48.4829C196.515 47.7116 196.926 46.9669 197.368 46.243C197.612 45.846 198.2 45.7632 198.626 45.9577C199.063 46.1587 199.349 46.6359 199.25 47.0929C199.168 47.468 199.053 47.8402 198.903 48.193C197.456 51.5282 195.98 54.8547 194.546 58.1964C192.041 64.0251 189.564 69.8654 187.065 75.6972C185.774 78.7129 185.606 81.8537 186.12 85.0507C186.253 85.8716 186.566 86.7148 186.987 87.4332C187.92 89.0314 189.379 89.852 191.258 89.8412C192.525 89.8356 193.729 89.5707 194.844 88.9552C197.736 87.3607 200.285 85.3768 202.096 82.573C203.48 80.4291 204.907 78.3051 206.163 76.0869C209.361 70.4276 212.47 64.7151 215.621 59.0299C215.918 58.4938 216.25 57.9651 216.639 57.4989C217.02 57.0428 217.728 56.995 218.113 57.32C218.514 57.6576 218.63 58.1144 218.442 58.5722C218.179 59.2148 217.858 59.837 217.525 60.4452C214.729 65.5307 211.899 70.6013 209.132 75.703C206.918 79.7864 204.88 83.958 203.184 88.2862C202.298 90.5464 201.78 92.8621 201.837 95.3092C201.9 98.012 203.135 100.046 205.315 101.578C205.695 101.847 206.119 102.059 206.517 102.304C207.64 102.991 208.831 103.161 210.117 102.902C211.105 102.702 212.105 102.543 213.109 102.42C213.58 102.361 213.994 102.74 214.129 103.218C214.254 103.672 214.042 104.216 213.651 104.423C213.516 104.494 213.377 104.586 213.228 104.611C211.927 104.842 210.63 105.163 209.315 105.242C208.41 105.297 207.419 105.171 206.575 104.84C204.191 103.914 202.237 102.414 200.919 100.151C200.03 98.6268 199.539 97.03 199.553 95.2781C199.573 93.2545 199.713 91.2509 200.409 89.3299C200.531 88.9925 200.542 88.613 200.655 87.9493C200.151 88.2427 199.906 88.3679 199.682 88.5165C198.581 89.2391 197.515 90.0188 196.382 90.6891C194.081 92.0494 191.614 92.5018 188.973 91.7713C188.605 91.6692 188.218 91.6445 187.779 91.5726C187.442 92.1326 187.087 92.6408 186.812 93.1853C185.665 95.4664 184.518 97.7475 183.412 100.051C182.304 102.361 181.451 104.765 180.946 107.283C180.563 109.18 180.182 111.075 179.81 112.975C179.494 114.596 179.622 116.2 179.901 117.826C180.517 121.407 184.246 124.996 188.473 125.265C191.344 125.45 194.061 125.096 196.735 124.188C197.389 123.965 197.993 123.593 198.617 123.29C198.963 123.123 199.293 122.907 199.657 122.797C200.055 122.675 200.49 122.783 200.671 123.164C200.823 123.484 200.886 123.904 200.818 124.248C200.764 124.509 200.483 124.768 200.236 124.938C199.728 125.29 199.214 125.673 198.641 125.883C195.934 126.864 193.218 127.814 190.251 127.589C189.629 127.542 189.005 127.534 188.382 127.49C183.045 127.137 178.785 123.483 177.697 118.262C177.434 116.988 177.34 115.681 177.137 114.177C176.894 114.438 176.734 114.548 176.653 114.703C173.85 120.055 171.4 125.571 169.055 131.135C168.301 132.922 167.824 134.795 167.47 136.704C166.997 139.247 167.811 141.478 169.227 143.512C170.141 144.829 171.439 145.711 173.085 145.943C173.855 146.05 174.634 146.099 175.404 146.199C175.897 146.263 176.252 146.678 176.268 147.149C176.283 147.615 175.974 148.122 175.557 148.237C175.261 148.32 174.949 148.39 174.643 148.386C171.265 148.348 168.605 146.997 166.871 144.037C165.837 142.277 165.095 140.406 164.994 138.167C164.524 138.399 164.186 138.531 163.893 138.721C163.177 139.185 162.514 139.735 161.773 140.146C159.439 141.446 156.041 141 154.146 139.174C153.337 138.392 152.775 137.481 152.801 136.305C152.813 135.811 153.122 135.381 153.568 135.262C154.01 135.145 154.503 135.357 154.766 135.784C154.848 135.917 154.931 136.054 154.972 136.198C155.294 137.355 156.072 138.04 157.211 138.361C158.542 138.738 159.811 138.737 161.023 137.958C163.155 136.589 164.94 134.946 165.867 132.503C166.634 130.48 167.444 128.464 168.342 126.498C170.307 122.206 172.344 117.946 174.345 113.673C174.663 112.992 174.947 112.297 175.454 111.138L175.467 111.142Z" fill="#D4A982"/>
<path d="M196.137 71.9327C196.48 71.4255 196.801 70.9024 197.176 70.4206C197.469 70.0466 198.087 69.9801 198.432 70.2298C198.788 70.4816 198.933 70.8584 198.819 71.2427C198.398 72.6538 197.69 73.927 196.793 75.089C196.499 75.4705 195.883 75.6107 195.54 75.4496C195.138 75.2605 194.889 74.5596 195.137 74.0155C195.453 73.3181 195.861 72.6633 196.229 71.9905C196.196 71.9727 196.166 71.9564 196.135 71.9356L196.137 71.9327Z" fill="#D4A982"/>
<path d="M213.719 83.3455C214.151 82.6693 214.585 81.9451 215.069 81.2589C215.309 80.9172 215.701 80.8415 216.1 80.9944C216.523 81.1572 216.829 81.7253 216.616 82.1357C215.811 83.6993 214.963 85.2432 214.118 86.7887C214.052 86.9092 213.891 87.0348 213.759 87.0504C213.471 87.0913 213.117 87.161 212.893 87.0348C212.67 86.9131 212.441 86.5509 212.456 86.3112C212.483 85.8678 212.641 85.4162 212.825 85.0017C213.076 84.4442 213.402 83.9198 213.718 83.341L213.719 83.3455Z" fill="#D4A982"/>
<path d="M178.609 64.9165C178.336 65.3244 177.941 65.9902 177.462 66.5834C177.218 66.8889 176.795 66.9438 176.396 66.7714C175.981 66.5938 175.67 66.0496 175.884 65.6213C176.533 64.3231 177.227 63.0463 177.961 61.7951C178.195 61.3961 178.867 61.3363 179.219 61.5594C179.562 61.7776 179.802 62.3895 179.63 62.7955C179.36 63.4303 179.036 64.0433 178.612 64.9181L178.609 64.9165Z" fill="#D4A982"/>
<path d="M178.965 133.898C179.224 133.425 179.455 132.933 179.753 132.486C179.915 132.246 180.17 132.042 180.422 131.89C180.832 131.648 181.462 131.897 181.55 132.358C181.621 132.721 181.701 133.173 181.551 133.469C181.022 134.493 180.406 135.472 179.796 136.452C179.68 136.637 179.467 136.814 179.263 136.878C178.987 136.96 178.615 137.035 178.395 136.915C178.173 136.793 177.97 136.431 177.959 136.169C177.945 135.806 178.067 135.415 178.222 135.076C178.412 134.657 178.692 134.279 178.934 133.885C178.946 133.892 178.955 133.897 178.967 133.903L178.965 133.898Z" fill="#D4A982"/>
<path d="M170.16 94.9269C169.779 95.5317 169.473 96.0704 169.118 96.5711C168.824 96.9826 168.292 97.1232 167.884 96.9609C167.474 96.8016 167.217 96.2911 167.365 95.803C167.767 94.4543 168.447 93.2535 169.397 92.2198C169.663 91.9303 170.147 91.8283 170.455 92.1186C170.702 92.3494 170.957 92.8133 170.89 93.0974C170.736 93.7609 170.391 94.3776 170.158 94.9298L170.16 94.9269Z" fill="#D4A982"/>
<path d="M193.829 110.396C193.498 111.002 193.2 111.625 192.829 112.204C192.479 112.746 191.861 112.896 191.439 112.616C191.058 112.362 190.853 111.857 191.09 111.402C191.76 110.113 192.464 108.841 193.201 107.591C193.439 107.183 194.082 107.115 194.437 107.347C194.802 107.588 194.985 108.12 194.792 108.572C194.519 109.205 194.197 109.815 193.896 110.436C193.875 110.425 193.851 110.412 193.83 110.401L193.829 110.396Z" fill="#D4A982"/>
<path d="M161.789 123.998C161.597 124.42 161.458 124.878 161.197 125.251C161.045 125.465 160.71 125.648 160.44 125.669C160.016 125.704 159.705 125.385 159.582 125.005C159.493 124.723 159.434 124.344 159.554 124.104C160.029 123.143 160.548 122.194 161.122 121.286C161.342 120.941 161.844 120.875 162.155 121.145C162.412 121.365 162.685 121.824 162.62 122.098C162.461 122.763 162.108 123.379 161.834 124.015C161.822 124.009 161.807 124 161.794 123.997L161.789 123.998Z" fill="#D4A982"/>
</g>
<defs>
<clipPath id="clip0_712_10827">
<rect width="65.5172" height="121.633" fill="white" transform="translate(0 101.223) rotate(-47.3941)"/>
</clipPath>
<clipPath id="clip1_712_10827">
<rect width="60.5316" height="103.128" fill="white" transform="translate(79 8.65625) rotate(-8.22174)"/>
</clipPath>
<clipPath id="clip2_712_10827">
<rect width="61" height="126" fill="white" transform="translate(190.453 20) rotate(28.6711)"/>
</clipPath>
</defs>
</svg>
