<svg width="201" height="127" viewBox="0 0 201 127" fill="none" xmlns="http://www.w3.org/2000/svg">
<g clip-path="url(#clip0_608_8132)">
<path class="ear-1" d="M171.9 10.5118C171.134 14.861 170.408 18.852 169.748 22.8513C169.62 23.6317 169.647 24.4705 169.801 25.2426C169.862 25.5453 170.433 25.8508 170.823 25.948C171.045 26.0035 171.516 25.7008 171.625 25.4509C171.895 24.826 172.084 24.1483 172.195 23.4762C172.688 20.5045 173.134 17.5217 173.621 14.5472C173.733 13.864 173.925 13.1919 174.106 12.5198C174.331 11.6866 174.846 11.0895 175.648 10.7479C176.074 10.5674 176.581 10.4896 176.927 10.2091C177.728 9.5592 178.594 8.91764 179.182 8.09279C180.694 5.97371 180.379 3.11866 178.592 1.41062C176.862 -0.239088 173.777 -0.502931 171.814 0.92182C171.274 1.31342 170.761 1.89943 170.514 2.50765C169.553 4.87391 169.405 7.2346 171.026 9.43144C171.296 9.80082 171.602 10.1452 171.9 10.509V10.5118Z" fill="#84581B"/>
<path class="ear-2" d="M151.751 12.9923C153.31 16.9583 154.875 20.9409 156.44 24.9208C156.732 25.6679 156.975 26.4399 157.337 27.1537C157.551 27.5786 158.061 27.8647 158.501 27.5564C158.824 27.3287 159.133 26.8538 159.152 26.4733C159.18 25.9178 159.008 25.3207 158.801 24.7875C158.05 22.8434 157.256 20.9131 156.465 18.9857C156.114 18.1275 155.685 17.2999 155.376 16.4278C154.669 14.4309 154.446 12.5285 155.393 10.4122C156.746 7.38773 155.777 4.53823 153.235 2.74965C151.272 1.36934 149.236 1.55819 147.585 3.25789C146.393 4.48546 145.839 5.99075 145.747 7.65157C145.636 9.67344 147.251 11.7036 149.573 12.5118C150.216 12.734 150.913 12.809 151.756 12.9867L151.751 12.9923Z" fill="#84581B"/>
<path d="M11.4005 120.035C20.2027 119.593 28.9743 121.409 37.6512 123.853C39.7815 124.453 41.9145 125.05 44.0336 125.695C49.8896 127.48 55.7652 127.308 61.6575 125.917C67.3353 124.578 72.9102 122.901 78.4377 121.045C81.7541 119.932 85.1152 118.996 88.5876 118.454C94.4771 117.538 100.211 117.946 105.769 120.187C106.526 120.493 107.303 120.751 108.038 121.107C112.449 123.24 117.133 123.923 121.984 123.781C127.584 123.614 133.164 123.295 138.697 122.312C142.737 121.595 146.628 120.418 150.401 118.84C153.625 117.493 156.803 116.027 160.052 114.741C162.43 113.8 164.864 112.986 167.315 112.25C171.336 111.047 175.164 111.775 178.804 113.7C180.038 114.352 181.188 115.166 182.427 115.813C185.944 117.646 189.606 118.468 193.571 117.435C195.35 116.971 196.773 116.08 197.909 114.683C199.728 112.447 200.78 109.881 200.922 107.015C201.142 102.585 200.911 98.1939 199.859 93.8475C195.055 73.9815 195.643 49.1997 182.237 32.3416C175.326 23.6514 160.116 19.18 151.701 28.5783C147.006 33.8219 146.352 40.1624 145.199 46.8113C143.885 54.371 141.25 61.7559 139.237 69.1573C138.235 72.8428 138.185 75.5979 133.882 76.6005C132.161 77.0004 130.379 77.0171 128.625 77.2282C116.559 78.6779 107.337 88.7261 96.3901 93.2753C89.0861 96.3109 81.562 98.1217 73.6397 98.1967C62.2005 98.305 50.2711 98.1828 38.8959 100.644C26.9777 103.224 16.8723 109.842 5.54446 114.011C4.45567 114.411 3.41422 114.963 2.40897 115.549C1.71281 115.952 1.06677 116.477 0.495926 117.043C-0.353378 117.89 -0.0832825 119.243 1.03058 119.59C1.90216 119.862 2.84337 119.996 3.75951 120.015C6.2072 120.071 8.65767 120.035 11.3977 120.035H11.4005Z" fill="#D18E38"/>
<path d="M80.6314 109.175C91.1239 109.147 101.499 106.178 111.023 100.177C115.434 97.3967 118.892 93.614 122.206 89.7175C124.849 86.6124 126.906 83.0686 128.769 79.4332C131.197 74.6979 132.336 69.6015 132.846 64.3636C133.367 59.0089 133.085 53.6571 131.974 48.3914C130.086 39.4235 125.397 32.0775 118.633 25.9731C114.896 22.6014 110.825 19.6853 106.459 17.2024C96.721 11.6645 86.2341 9.65092 75.1179 10.8868C61.902 12.356 51.0141 18.4577 41.8221 27.7866C34.0028 35.7241 29.1771 45.2669 26.9967 56.1511C25.7965 62.1528 25.635 68.1657 27.1666 74.1424C27.8293 76.7308 28.4587 79.3415 29.3525 81.8522C32.4017 90.4368 37.7816 97.0773 46.1382 101.04C56.8062 106.101 68.0143 108.992 80.6287 109.17L80.6314 109.175Z" fill="#84581B"/>
<path d="M116.98 73.3566C117.283 65.6857 115.092 58.8841 111.689 52.4075C109.172 47.6194 105.972 43.3535 101.62 40.0568C92.5057 33.1553 82.5423 31.936 71.8995 35.8354C70.0561 36.5102 68.2962 37.4906 66.6254 38.5321C55.9993 45.1615 53.8105 59.3535 57.8288 68.1492C60.9921 75.0785 66.4695 78.9917 74.1272 79.5333C80.22 79.9637 85.6082 78.0502 90.2641 74.0926C91.8987 72.7039 93.1156 71.0403 93.8451 69.0212C94.6388 66.8244 95.2152 64.5859 95.36 62.2391C95.6189 58.0676 94.1013 54.7126 90.6818 52.3103C87.2344 49.8857 83.4362 48.622 79.159 49.3997C76.2825 49.9246 74.3444 51.5882 73.2807 54.3016C72.3617 56.6484 72.1418 59.0396 72.8017 61.4753C72.9465 62.0141 73.2333 62.5807 73.6204 62.9695C73.8821 63.2306 74.4586 63.3333 74.854 63.2667C75.3747 63.1778 75.5975 62.6001 75.4137 62.178C74.7426 60.631 74.6062 59.0396 74.7899 57.3955C75.241 53.3906 77.5356 51.3299 81.551 51.4243C84.809 51.5021 87.6995 52.6213 90.1861 54.7376C92.063 56.3345 93.0487 58.3731 93.1378 60.8282C93.2492 63.9193 92.489 66.8299 91.119 69.5711C90.7124 70.3849 90.1193 71.1653 89.4482 71.7791C84.0767 76.6921 77.7862 78.5668 70.7049 76.7115C65.7288 75.4062 61.9751 72.2568 59.9646 67.4604C56.7985 59.9034 57.9012 52.6519 62.1449 45.8225C63.8993 42.998 66.5391 41.0095 69.4184 39.4153C79.7995 33.6663 93.951 34.7717 103.201 44.395C105.477 46.7612 107.401 49.3635 109.038 52.2019C113.666 60.2117 115.588 68.7713 114.585 78.0002C113.967 83.6964 112.633 89.2177 110.84 94.6334C110.3 96.2692 109.372 97.7773 108.618 99.3409C108.367 99.8575 108.019 100.341 107.871 100.882C107.81 101.11 108.108 101.493 108.334 101.713C108.448 101.824 108.818 101.815 108.98 101.713C109.361 101.468 109.795 101.199 110.018 100.827C110.909 99.3354 111.951 97.8801 112.533 96.2665C115.223 88.7872 117.094 81.1302 116.983 73.3538L116.98 73.3566Z" fill="black"/>
<path d="M152.082 49.3634C152.027 50.8632 153.121 52.5601 154.41 53.01C155.716 53.4655 156.905 53.2183 157.899 52.2352C159.676 50.4771 159.074 47.8054 156.73 46.9889C154.719 46.289 153.082 46.8472 152.347 48.5053C152.21 48.8135 152.146 49.1551 152.082 49.3634Z" fill="black"/>
<path d="M168.32 69.0517C170.851 68.9073 173.065 68.1047 174.429 65.7606C174.655 65.3746 174.825 64.9052 174.844 64.4636C174.858 64.1831 174.613 63.7776 174.362 63.6305C174.115 63.486 173.669 63.4916 173.399 63.6166C173.115 63.7499 172.931 64.0998 172.714 64.3637C170.553 66.9938 167.994 67.5187 165.056 65.8856C164.254 65.4385 163.525 64.8608 162.734 64.3914C162.589 64.3053 162.219 64.3803 162.107 64.5136C161.901 64.758 161.651 65.1302 161.701 65.394C161.781 65.8162 162.013 66.2772 162.316 66.5827C163.953 68.2185 166.006 68.9073 168.314 69.0489L168.32 69.0517Z" fill="black"/>
<path d="M176.289 47.8304C176.225 50.0772 177.526 51.7269 179.325 51.6797C180.892 51.6408 182.268 50.2244 182.413 48.5053C182.555 46.8278 181.034 45.2281 179.191 45.117C177.548 45.017 176.337 46.1501 176.289 47.8304Z" fill="black"/>
<path d="M100.5 94.4364C100.701 94.3309 101.018 94.267 101.077 94.1087C101.182 93.8199 101.285 93.3227 101.132 93.1755C98.977 91.0981 96.78 89.0596 93.9508 87.8931C93.7503 87.8098 93.4662 87.7681 93.2852 87.8459C93.0068 87.9681 92.7255 88.1764 92.5557 88.4236C92.4638 88.5569 92.5195 88.954 92.6476 89.0512C95.0284 90.8398 97.4232 92.6062 99.8319 94.3559C99.9906 94.4697 100.272 94.4142 100.497 94.4364H100.5Z" fill="white"/>
<path d="M79.5008 65.561C79.2363 65.6471 78.9132 65.7332 78.6041 65.8527C78.2672 65.9804 78.128 66.8247 78.3953 67.0719C78.5596 67.2219 78.7295 67.4607 78.916 67.4801C81.4556 67.7495 83.8392 68.5938 86.2201 69.4437C86.7102 69.6187 87.2198 69.4742 87.3479 69.0104C87.4453 68.6522 87.2393 68.18 87.0806 67.794C87.0082 67.6135 86.7436 67.4801 86.5403 67.3913C84.3098 66.4414 82.0042 65.7638 79.5008 65.561Z" fill="white"/>
<path d="M102.057 24.4707C101.906 24.5207 101.466 24.5318 101.299 24.7512C99.6787 26.8592 98.0943 28.9921 96.5349 31.1473C96.3595 31.3889 96.3706 31.8083 96.404 32.1333C96.4235 32.3166 96.6324 32.5443 96.8134 32.6332C96.9971 32.7248 97.2561 32.6915 97.4789 32.6804C97.5819 32.6748 97.71 32.6082 97.7713 32.5276C99.4504 30.3197 101.141 28.1173 102.786 25.8816C103.14 25.4011 102.742 24.5374 102.057 24.4735V24.4707Z" fill="white"/>
<path d="M104.584 78.9805C105.735 78.9805 106.887 79.0139 108.037 78.9555C108.305 78.9416 108.786 78.5861 108.767 78.4334C108.72 78.0362 108.522 77.6058 108.249 77.3086C108.043 77.0836 107.636 76.9392 107.316 76.9337C105.013 76.8864 102.71 76.8837 100.408 76.8726C100.296 76.8726 100.135 76.892 100.085 76.9642C99.8451 77.3058 99.5304 77.6474 99.4608 78.0279C99.4274 78.214 99.8367 78.6445 100.096 78.6917C100.77 78.8167 101.468 78.8083 102.159 78.8222C102.967 78.8389 103.774 78.8278 104.582 78.8278C104.582 78.8778 104.582 78.9278 104.582 78.9805H104.584Z" fill="white"/>
<path d="M41.2933 79.5558C41.5745 79.5002 41.9477 79.503 42.24 79.353C44.4176 78.2504 46.5813 77.1229 48.7421 75.9925C48.9426 75.887 49.1654 75.7314 49.2573 75.5426C49.3965 75.2565 49.5525 74.8871 49.4829 74.6066C49.352 74.0845 48.8619 74.004 48.3774 74.0373C48.2632 74.0456 48.1351 74.0484 48.0376 74.1012C45.6874 75.3593 43.3372 76.6202 40.9981 77.9033C40.8254 77.9977 40.7029 78.2671 40.6472 78.4782C40.5916 78.6865 40.5804 78.967 40.6807 79.1419C40.7781 79.3141 41.0399 79.3947 41.2933 79.5558Z" fill="white"/>
<path d="M85.4238 95.6804C84.9699 94.1779 84.4019 92.1893 83.7531 90.223C83.6194 89.8175 83.249 89.4426 82.8954 89.1732C82.6698 89.001 82.241 88.9288 81.9681 89.0149C81.4836 89.1704 81.2218 89.6398 81.4557 90.1092C82.4471 92.0949 82.8508 94.2473 83.3409 96.3775C83.4133 96.6969 83.586 97.0496 83.8227 97.2635C84.0454 97.4606 84.4464 97.6217 84.7137 97.5606C84.9644 97.5023 85.1899 97.1551 85.3347 96.8857C85.435 96.7024 85.3765 96.4358 85.421 95.6804H85.4238Z" fill="white"/>
<path d="M106.576 40.0875C107.01 40.3402 107.275 40.5652 107.578 40.6457C107.765 40.6957 108.052 40.5818 108.224 40.4513C110.054 39.0349 111.878 37.6129 113.677 36.1576C113.922 35.9576 114.12 35.5827 114.147 35.2689C114.175 34.9773 114.005 34.6218 113.822 34.369C113.727 34.2385 113.404 34.2191 113.192 34.2413C112.972 34.2663 112.73 34.3579 112.557 34.494C110.753 35.941 108.943 37.3824 107.18 38.8794C106.879 39.1349 106.79 39.6376 106.576 40.0875Z" fill="white"/>
<path d="M83.3523 25.7817C83.4136 26.3816 83.3663 26.7649 83.5083 27.0593C83.6419 27.3342 83.9538 27.6453 84.2295 27.6897C84.4912 27.7342 84.9451 27.5342 85.076 27.3037C85.5383 26.4872 86.1704 20.4521 85.942 19.4467C85.9003 19.269 85.6497 19.019 85.4909 19.0135C85.1791 19.0051 84.792 19.0635 84.5692 19.2523C84.327 19.4578 84.1432 19.83 84.0986 20.1522C83.8146 22.1046 83.5751 24.0626 83.3551 25.7789L83.3523 25.7817Z" fill="white"/>
<path d="M121.997 46.3447C120.58 46.6697 118.783 47.0529 117.007 47.5056C116.586 47.614 116.158 47.8972 115.865 48.2222C115.681 48.4249 115.679 48.8582 115.718 49.172C115.737 49.3137 116.049 49.4331 116.244 49.5358C116.339 49.5858 116.475 49.6025 116.584 49.5803C118.717 49.1359 120.847 48.6832 122.974 48.225C123.083 48.2027 123.219 48.15 123.272 48.0667C123.445 47.7917 123.729 47.4779 123.696 47.214C123.662 46.9446 123.331 46.6752 123.069 46.4919C122.905 46.3781 122.626 46.4225 121.997 46.3475V46.3447Z" fill="white"/>
<path d="M66.5245 55.0628C64.8481 55.3572 63.3584 55.61 61.8742 55.8877C61.6597 55.9266 61.4036 56.0488 61.2838 56.2182C61.1028 56.4737 60.8856 56.8292 60.9385 57.093C60.9914 57.3597 61.3172 57.704 61.5846 57.7679C62.019 57.8735 62.5063 57.8124 62.9629 57.7679C64.8092 57.5818 66.6582 57.3958 68.4988 57.143C68.7383 57.1097 69.0752 56.7181 69.1031 56.4654C69.1309 56.196 68.9137 55.7211 68.6881 55.635C67.9502 55.36 67.1594 55.2184 66.5245 55.0601V55.0628Z" fill="white"/>
<path d="M71.3283 93.2864C71.1585 92.1283 70.9413 90.4008 70.6294 88.6872C70.5542 88.2789 70.1922 87.8985 69.897 87.5652C69.7829 87.4374 69.4654 87.4069 69.2705 87.4541C69.0811 87.5013 68.9169 87.6929 68.7693 87.8485C68.6997 87.9234 68.6579 88.0651 68.669 88.1678C68.9336 90.4674 69.187 92.767 69.51 95.0583C69.5434 95.2999 69.9806 95.6249 70.2618 95.6582C70.7519 95.7193 71.1 95.3749 71.2643 94.8944C71.3005 94.7861 71.3256 94.6667 71.3311 94.5528C71.3423 94.3223 71.3339 94.089 71.3339 93.2836L71.3283 93.2864Z" fill="white"/>
<path d="M105.782 63.3027C104.621 63.5471 102.914 63.8749 101.229 64.2859C100.811 64.3887 100.391 64.7053 100.11 65.0385C99.9314 65.2496 99.9453 65.6884 99.9983 66.0023C100.023 66.1467 100.374 66.3578 100.547 66.3328C101.457 66.1995 102.357 65.98 103.267 65.8301C104.184 65.6801 105.114 65.6107 106.027 65.4413C106.47 65.3579 106.935 65.1969 107.3 64.9386C107.525 64.7775 107.712 64.3553 107.67 64.0887C107.631 63.836 107.297 63.586 107.038 63.4277C106.862 63.3194 106.587 63.3722 105.785 63.3027H105.782Z" fill="white"/>
<path d="M45.2834 61.2114C43.7741 61.503 41.8555 61.8641 39.9425 62.2529C39.7364 62.2946 39.5164 62.4584 39.3828 62.6278C39.2519 62.7917 39.1071 63.0778 39.1656 63.2388C39.2714 63.536 39.4747 63.9415 39.7225 64.0165C40.4855 64.2442 45.6231 63.3527 46.4363 62.9195C46.8957 62.6751 47.0795 62.2196 46.8567 61.7752C46.737 61.5364 46.3388 61.4281 46.0548 61.2836C45.9601 61.2364 45.8292 61.2586 45.2834 61.2114Z" fill="white"/>
<path d="M70.0023 22.2324C70.3086 23.5099 70.6734 25.093 71.0855 26.6622C71.169 26.9816 71.3723 27.3759 71.6368 27.5148C71.9961 27.7036 72.4889 27.7842 72.8788 27.6981C73.0709 27.6537 73.3243 27.0982 73.2659 26.8371C72.8955 25.1347 72.45 23.4488 72.0267 21.7602C71.971 21.5353 71.9571 21.2326 71.8067 21.1131C71.4837 20.8548 71.0131 20.4633 70.7318 20.5466C70.4172 20.6438 70.2306 21.1992 70.0134 21.5686C69.9633 21.6547 70.005 21.7964 70.005 22.2324H70.0023Z" fill="white"/>
<path d="M95.7743 53.5796C95.9024 53.849 95.9525 54.1045 96.1057 54.235C96.2588 54.3656 96.515 54.3906 96.7322 54.4211C96.8352 54.435 96.9661 54.3794 97.058 54.3128C98.7538 53.088 100.469 51.8854 102.115 50.5968C102.374 50.394 102.516 49.6719 102.354 49.4081C102.185 49.1276 101.422 48.8637 101.202 49.0137C99.4723 50.1802 97.7987 51.43 96.1446 52.702C95.9135 52.8797 95.8801 53.3102 95.7743 53.5796Z" fill="white"/>
<path d="M46.3947 36.4548C46.4643 36.5909 46.5367 36.9964 46.7734 37.1463C48.4247 38.1934 50.0899 39.221 51.8052 40.1625C52.0725 40.3097 52.7965 40.1069 52.9552 39.8459C53.1223 39.5765 53.0081 38.821 52.7631 38.6627C51.1341 37.5935 49.4522 36.5992 47.7536 35.6383C47.2245 35.3383 46.3891 35.7882 46.3947 36.452V36.4548Z" fill="white"/>
<path d="M77.6938 59.6339C78.1032 59.845 78.5933 60.2838 78.8077 60.1755C80.6428 59.2562 82.4472 58.2703 84.2071 57.2149C84.4577 57.0649 84.5217 56.4151 84.4633 56.0262C84.4382 55.854 83.8367 55.5708 83.6028 55.6513C81.6424 56.3123 79.7962 57.2205 78.1923 58.548C77.9667 58.7341 77.9138 59.1313 77.691 59.6339H77.6938Z" fill="white"/>
<path d="M52.6655 89.8176C52.9412 89.937 53.2976 90.2369 53.5343 90.1619C53.9381 90.0342 54.4087 89.7453 54.6036 89.3871C55.5393 87.6763 56.4108 85.9293 57.2434 84.1658C57.3409 83.9575 57.1488 83.4659 56.9399 83.302C56.7255 83.1354 56.2493 83.0798 56.0126 83.2048C55.6284 83.4103 55.2385 83.7464 55.0408 84.1269C54.1971 85.7572 53.4146 87.4208 52.6377 89.0844C52.5541 89.2621 52.6488 89.5232 52.6627 89.8176H52.6655Z" fill="white"/>
<path d="M86.6212 44.1675C86.585 44.798 86.5655 45.0257 86.56 45.2535C86.5349 46.7199 86.9498 47.5975 87.5931 47.4031C88.5983 47.1003 88.4591 46.1672 88.5259 45.4201C88.6763 43.7204 88.771 42.0124 88.8183 40.3071C88.8239 40.1266 88.3728 39.8711 88.0887 39.7683C87.93 39.71 87.5959 39.8322 87.4928 39.9766C87.2366 40.3349 86.9443 40.7404 86.8858 41.1569C86.7271 42.2873 86.6825 43.4315 86.624 44.1703L86.6212 44.1675Z" fill="white"/>
<path d="M123.345 63.6473C124.378 63.5973 125.42 63.5889 126.444 63.4723C126.692 63.4445 127.04 63.0835 127.085 62.8335C127.129 62.5697 126.873 62.2475 126.725 61.9642C126.675 61.8698 126.561 61.7643 126.464 61.7504C124.403 61.4115 122.348 61.2949 120.371 62.1225C120.148 62.217 119.934 62.6808 119.97 62.9363C120.003 63.1835 120.354 63.5556 120.588 63.5751C121.502 63.65 122.426 63.6056 123.345 63.6056C123.345 63.6195 123.345 63.6361 123.345 63.65V63.6473Z" fill="white"/>
<path d="M43.526 49.6414C44.3391 49.6414 45.155 49.6914 45.9598 49.6108C46.2048 49.5858 46.564 49.2276 46.603 48.9804C46.6448 48.7165 46.3802 48.3972 46.2215 48.1139C46.1714 48.0222 46.0461 47.9472 45.9431 47.9139C44.1247 47.3612 42.2868 47.4445 40.4629 47.8528C40.2206 47.9083 39.9227 48.3555 39.9143 48.6304C39.9032 48.8887 40.2067 49.3581 40.4295 49.3942C41.4515 49.5664 42.4901 49.6192 43.526 49.7164C43.526 49.6886 43.5288 49.6636 43.5316 49.6358L43.526 49.6414Z" fill="white"/>
<path d="M71.5092 66.4385C71.1917 66.5662 70.8938 66.5912 70.7991 66.7412C69.6936 68.4826 68.8666 70.3461 68.6187 72.4097C68.5881 72.6568 68.8665 73.0818 69.1032 73.179C69.3566 73.2845 69.9191 73.2067 70.0222 73.0234C71.0915 71.1571 72.1023 69.2519 72.1162 67.0273C72.1162 66.8217 71.6957 66.6107 71.5092 66.4385Z" fill="white"/>
<path d="M61.4181 32.2223C61.6854 31.7751 62.0585 31.4085 61.9834 31.2419C61.1758 29.4672 60.3154 27.7147 59.402 25.99C59.324 25.8401 58.756 25.8762 58.4497 25.9512C58.2965 25.99 58.1684 26.3039 58.1127 26.5149C58.057 26.7288 58.0292 27.0037 58.1183 27.1926C58.8005 28.6618 59.4744 30.1365 60.2457 31.5585C60.4156 31.8696 60.9642 31.9779 61.4209 32.2223H61.4181Z" fill="white"/>
<path d="M72.0773 42.6842C72.0773 43.0314 71.9882 43.3119 72.0912 43.4702C72.9684 44.8116 73.8595 46.1475 74.8062 47.4417C74.9594 47.65 75.4328 47.7722 75.7057 47.7083C76.2236 47.5889 76.4158 47.0862 76.2682 46.6308C75.7224 44.9727 74.8313 43.5174 73.4585 42.3982C73.2998 42.2704 73.0046 42.1815 72.8208 42.2371C72.534 42.326 72.2862 42.5481 72.0773 42.6814V42.6842Z" fill="white"/>
<path d="M118.215 75.9172C118.636 76.5254 118.767 76.9531 119.006 77.0225C120.529 77.4752 122.072 77.8752 123.623 78.2196C123.862 78.2723 124.325 78.0029 124.433 77.7669C124.547 77.5225 124.472 76.9587 124.286 76.842C122.721 75.8588 121.064 75.0979 119.134 75.4756C118.814 75.5395 118.524 75.7644 118.215 75.9199V75.9172Z" fill="white"/>
<path d="M152.104 60.6643C152.116 58.6063 150.503 57.2927 148.039 57.351C146.223 57.3926 144.853 58.6785 144.828 60.3644C144.8 62.3584 146.616 64.2276 148.565 64.2165C150.548 64.2053 152.091 62.6556 152.102 60.6643H152.104Z" fill="#FAC1B3"/>
<path d="M184.81 60.0342C184.888 60.4424 184.902 60.6813 184.982 60.8923C185.573 62.4643 187.667 63.4058 189.335 62.8642C191.153 62.2727 192.214 60.5313 191.777 58.8121C191.437 57.479 190.616 56.5014 189.293 56.1432C188.678 55.9765 187.876 56.0265 187.296 56.282C185.634 57.0152 185.158 58.5872 184.813 60.0342H184.81Z" fill="#FAC1B3"/>
</g>
<defs>
<clipPath id="clip0_608_8132">
<rect width="201" height="127" fill="white" transform="matrix(-1 0 0 1 201 0)"/>
</clipPath>
</defs>
</svg>
