<svg width="1440" height="878" viewBox="0 0 1440 878" fill="none" xmlns="http://www.w3.org/2000/svg">
<path id="Vector" d="M18 6.39803C28.6667 -2.13268 43.3333 -2.13268 54 6.39803C64.6667 14.9287 79.3333 14.9287 90 6.39804C100.667 -2.13268 115.333 -2.13268 126 6.39804C136.667 14.9287 151.333 14.9287 162 6.39804C172.667 -2.13268 187.333 -2.13268 198 6.39804C208.667 14.9287 223.333 14.9287 234 6.39804C244.667 -2.13268 259.333 -2.13268 270 6.39804C280.667 14.9287 295.333 14.9287 306 6.39804C316.667 -2.13268 331.333 -2.13268 342 6.39804C352.667 14.9287 367.333 14.9287 378 6.39804C388.667 -2.13268 403.333 -2.13268 414 6.39804C424.667 14.9287 439.333 14.9287 450 6.39804C460.667 -2.13268 475.333 -2.13268 486 6.39804C496.667 14.9287 511.333 14.9287 522 6.39804C532.667 -2.13268 547.333 -2.13268 558 6.39804C568.667 14.9287 583.333 14.9287 594 6.39804C604.667 -2.13268 619.333 -2.13268 630 6.39804C640.667 14.9287 655.333 14.9287 666 6.39804C676.667 -2.13268 691.333 -2.13268 702 6.39804C712.667 14.9287 727.333 14.9287 738 6.39804C748.667 -2.13268 763.333 -2.13268 774 6.39804C784.667 14.9287 799.333 14.9287 810 6.39804C820.667 -2.13268 835.333 -2.13268 846 6.39804C856.667 14.9287 871.333 14.9287 882 6.39804C892.667 -2.13268 907.333 -2.13268 918 6.39804C928.667 14.9287 943.333 14.9287 954 6.39804C964.667 -2.13268 979.333 -2.13268 990 6.39804C1000.67 14.9287 1015.33 14.9287 1026 6.39804C1036.67 -2.13268 1051.33 -2.13268 1062 6.39804C1072.67 14.9287 1087.33 14.9287 1098 6.39804C1108.67 -2.13268 1123.33 -2.13268 1134 6.39804C1144.67 14.9287 1159.33 14.9287 1170 6.39804C1180.67 -2.13268 1195.33 -2.13268 1206 6.39804C1216.67 14.9287 1231.33 14.9287 1242 6.39804C1252.67 -2.13268 1267.33 -2.13268 1278 6.39804C1288.67 14.9287 1303.33 14.9287 1314 6.39804C1324.67 -2.13268 1339.33 -2.13268 1350 6.39804C1360.67 14.9287 1375.33 14.9287 1386 6.39804C1396.67 -2.13268 1411.33 -2.13268 1422 6.39804L1440 20.7936V856.803L1422 871.199C1411.33 879.73 1396.67 879.73 1386 871.199C1375.33 862.668 1360.67 862.668 1350 871.199C1339.33 879.73 1324.67 879.73 1314 871.199C1303.33 862.668 1288.67 862.668 1278 871.199C1267.33 879.73 1252.67 879.73 1242 871.199C1231.33 862.668 1216.67 862.668 1206 871.199C1195.33 879.73 1180.67 879.73 1170 871.199C1159.33 862.668 1144.67 862.668 1134 871.199C1123.33 879.73 1108.67 879.73 1098 871.199C1087.33 862.668 1072.67 862.668 1062 871.199C1051.33 879.73 1036.67 879.73 1026 871.199C1015.33 862.668 1000.67 862.668 990 871.199C979.333 879.73 964.667 879.73 954 871.199C943.333 862.668 928.667 862.668 918 871.199C907.333 879.73 892.667 879.73 882 871.199C871.333 862.668 856.667 862.668 846 871.199C835.333 879.73 820.667 879.73 810 871.199C799.333 862.668 784.667 862.668 774 871.199C763.333 879.73 748.667 879.73 738 871.199C727.333 862.668 712.667 862.668 702 871.199C691.333 879.73 676.667 879.73 666 871.199C655.333 862.668 640.667 862.668 630 871.199C619.333 879.73 604.667 879.73 594 871.199C583.333 862.668 568.667 862.668 558 871.199C547.333 879.73 532.667 879.73 522 871.199C511.333 862.668 496.667 862.668 486 871.199C475.333 879.73 460.667 879.73 450 871.199C439.333 862.668 424.667 862.668 414 871.199C403.333 879.73 388.667 879.73 378 871.199C367.333 862.668 352.667 862.668 342 871.199C331.333 879.73 316.667 879.73 306 871.199C295.333 862.668 280.667 862.668 270 871.199C259.333 879.73 244.667 879.73 234 871.199C223.333 862.668 208.667 862.668 198 871.199C187.333 879.73 172.667 879.73 162 871.199C151.333 862.668 136.667 862.668 126 871.199C115.333 879.73 100.667 879.73 90 871.199C79.3333 862.668 64.6667 862.668 54 871.199C43.3333 879.73 28.6667 879.73 18 871.199L0 856.803V20.7936L18 6.39803Z" fill="white"/>
</svg>
