<svg width="21" height="21" viewBox="0 0 21 21" fill="none" xmlns="http://www.w3.org/2000/svg">
<rect width="21" height="21" rx="10.5" fill="#E7F0F2"/>
<path d="M10.2045 15V8.45455H11.2102V15H10.2045ZM10.7159 7.36364C10.5199 7.36364 10.3509 7.29688 10.2088 7.16335C10.0696 7.02983 10 6.86932 10 6.68182C10 6.49432 10.0696 6.33381 10.2088 6.20028C10.3509 6.06676 10.5199 6 10.7159 6C10.9119 6 11.0795 6.06676 11.2188 6.20028C11.3608 6.33381 11.4318 6.49432 11.4318 6.68182C11.4318 6.86932 11.3608 7.02983 11.2188 7.16335C11.0795 7.29688 10.9119 7.36364 10.7159 7.36364Z" fill="#789096"/>
</svg>
