<svg width="24" height="24" viewBox="0 0 24 24" fill="none" xmlns="http://www.w3.org/2000/svg">
<path d="M21.54 15H17C16.4696 15 15.9609 15.2107 15.5858 15.5858C15.2107 15.9609 15 16.4696 15 17V21.54" stroke="#305BF4" stroke-width="2" stroke-linecap="round" stroke-linejoin="round"/>
<path d="M7 3.33997V4.99997C7 5.79562 7.31607 6.55868 7.87868 7.12129C8.44129 7.6839 9.20435 7.99997 10 7.99997C10.5304 7.99997 11.0391 8.21068 11.4142 8.58575C11.7893 8.96083 12 9.46953 12 9.99997C12 11.1 12.9 12 14 12C14.5304 12 15.0391 11.7893 15.4142 11.4142C15.7893 11.0391 16 10.5304 16 9.99997C16 8.89997 16.9 7.99997 18 7.99997H21.17" stroke="#305BF4" stroke-width="2" stroke-linecap="round" stroke-linejoin="round"/>
<path d="M11.0008 21.95V18C11.0008 17.4696 10.7901 16.9609 10.415 16.5858C10.0399 16.2107 9.53121 16 9.00078 16C8.47035 16 7.96164 15.7893 7.58657 15.4142C7.2115 15.0391 7.00078 14.5304 7.00078 14V13C7.00078 12.4696 6.79007 11.9609 6.415 11.5858C6.03992 11.2107 5.53121 11 5.00078 11H2.05078" stroke="#305BF4" stroke-width="2" stroke-linecap="round" stroke-linejoin="round"/>
<path d="M12 22C17.5228 22 22 17.5228 22 12C22 6.47715 17.5228 2 12 2C6.47715 2 2 6.47715 2 12C2 17.5228 6.47715 22 12 22Z" stroke="#305BF4" stroke-width="2" stroke-linecap="round" stroke-linejoin="round"/>
</svg>
