<svg width="549" height="684" viewBox="0 0 549 684" fill="none" xmlns="http://www.w3.org/2000/svg">
<path d="M110.191 35.8219L226.504 57.5313L374.152 1M1 57.001L226.181 112.613L373.624 57.001H455.962L536.385 78.3903L685 35.8219M7.59291 106.422L260.515 181.465L365.862 106.422L450.14 99.9901L521.01 127.863L718.296 78.5492M4.95543 166.245L299.048 261.914L366.051 166.245L442.626 151.025L524.944 183.64L718.296 137.98M4.95543 218.428L299.391 321.306L364.488 435.175L391.293 555.489L371.5 683M4.95543 259.795L253.73 370.336L316.899 452.08L339.869 561.788L316.899 683M6.27417 312.536L226.874 424.475L271.059 481.725L287.127 558.561L255.5 683M6.27417 368.138L192.541 463.898L230.165 521.942L237.022 595.128L183 683M6.27417 448.679L151.858 504.589L188.235 551.915L176.747 603.543L6.27417 683M6.27417 523.552L110.191 534.41L148.678 560.468L142.905 580.012L6.27417 600.377M422.5 683L442.567 555.312L415.69 434.826L350.418 320.795L383.054 215.37L432.968 200.309L503.999 232.582L720.933 200.309M478.5 683L489.431 557.828L472.202 435.554L407.116 321.862L418.602 270.378L489.431 285.394L585.145 291.83L724.889 253.217M531.5 683L538.855 562.387L521.625 437.466L475.681 353.467V325.468L546.512 338.391L615.429 334.083L734.118 301.776M590.5 683L602.122 624.914L584.827 538.997L552.157 403.677L569.453 380.05L623.261 395.085L772 353.234L751.945 415.563L607.887 440.192L623.261 528.257L666 683M704 683L659.774 483.151L732.8 470.263" stroke="#323232"/>
</svg>
