<svg width="282" height="534" viewBox="0 0 282 534" fill="none" xmlns="http://www.w3.org/2000/svg">
<path d="M171.809 28.1631L55.496 45.0978L-92.1519 1M281 44.6841L55.8195 88.0648L-91.6236 44.6841H-173.962L-254.385 61.369L-403 28.1631M274.407 83.2356L21.485 141.774L-83.8621 83.2356L-168.14 78.2181L-239.01 99.9607L-436.296 61.493M277.045 129.901L-17.0476 204.528L-84.0507 129.901L-160.626 118.028L-242.944 143.47L-436.296 107.852M277.045 170.607L-17.3911 250.857L-82.4883 339.682L-109.293 433.534L-89.5 533M277.045 202.876L28.2698 289.104L-34.8988 352.869L-57.8693 438.448L-34.8988 533M275.726 244.016L55.1263 331.335L10.9406 375.994L-5.12692 435.93L26.5 533M275.726 287.389L89.4585 362.088L51.8347 407.366L44.9781 464.455L99 533M275.726 350.216L130.142 393.829L93.765 430.746L105.253 471.019L275.726 533M275.726 408.622L171.809 417.091L133.322 437.418L139.095 452.663L275.726 468.549M-140.5 533L-160.567 433.396L-133.69 339.41L-68.4182 250.459L-101.054 168.221L-150.968 156.473L-221.999 181.648L-438.933 156.473M-196.5 533L-207.431 435.358L-190.202 339.978L-125.116 251.291L-136.602 211.131L-207.431 222.844L-303.145 227.864L-442.889 197.744M-249.5 533L-256.855 438.915L-239.625 341.469L-193.681 275.945V254.104L-264.512 264.184L-333.429 260.824L-452.118 235.623M-308.5 533L-320.122 487.689L-302.827 420.669L-270.157 315.112L-287.453 296.681L-341.261 308.41L-490 275.763L-469.945 324.384L-325.887 343.595L-341.261 412.291L-384 533M-422 533L-377.774 377.106L-450.8 367.053" stroke="#323232"/>
</svg>
