<svg width="746" height="801" viewBox="0 0 746 801" fill="none" xmlns="http://www.w3.org/2000/svg">
<path d="M698 57.0008L519.496 121.241L371.848 1M745 120.113L519.819 238.399L372.376 120.113H290.038L209.615 165.608L-26 57.0008M738.407 225.231L485.485 384.846L380.138 225.231L295.86 211.55L224.99 270.836L-26 150.938M741.045 352.473L446.952 555.958L379.949 352.473L303.374 320.101L221.056 389.471L-26 252.1M741.045 463.465L446.609 682.284L395.582 799.765M741.045 551.453L492.27 786.571L446.952 799.765M739.726 663.63L559 799.765M348 799.765L395.582 681.198L362.946 456.961L313.032 424.927L242.001 493.571L-26 340.618M290.038 799.765L338.884 683.467L327.398 573.962L256.569 605.901L160.855 619.589L-26 456.961M242.001 799.765L270.319 750.691V691.137L199.488 718.623L130.571 709.461L-26 555.958M182 799.765L160.855 770.379L-26 728.107" stroke="#323232"/>
</svg>
