<svg width="705" height="435" viewBox="0 0 705 435" fill="none" xmlns="http://www.w3.org/2000/svg">
<path d="M594.809 23.1083L478.496 36.8916L330.848 1M704 36.5549L478.819 71.8629L331.376 36.5549H249.038L168.615 50.1349L20 23.1083M697.407 67.9324L444.485 115.577L339.138 67.9324L254.86 63.8485L183.99 81.5451L-13.2958 50.2358M700.045 105.914L405.952 166.653L338.949 105.914L262.374 96.2506L180.056 116.957L-13.2957 87.968M700.045 139.044L405.609 204.361L340.512 276.656L313.707 353.044L333.5 434M700.045 165.309L451.27 235.491L388.101 287.389L365.131 357.043L388.101 434M698.726 198.793L478.126 269.863L433.941 306.211L417.873 354.994L449.5 434M698.726 234.095L512.459 294.893L474.835 331.745L467.978 378.21L522 434M698.726 285.23L553.142 320.727L516.765 350.775L528.253 383.553L698.726 434M698.726 332.767L594.809 339.661L556.322 356.205L562.095 368.613L698.726 381.543M282.5 434L262.433 352.931L289.31 276.435L354.582 204.037L321.946 137.103L272.032 127.541L201.001 148.031L-15.933 127.541M226.5 434L215.569 354.529L232.798 276.897L297.884 204.714L286.398 172.028L215.569 181.561L119.855 185.647L-19.8885 161.132M173.5 434L166.145 357.423L183.375 278.111L229.319 224.78V207.004L158.488 215.208L89.5713 212.473L-29.1185 191.962M114.5 434L102.878 397.121L120.173 342.573L152.843 256.659L135.547 241.658L81.7388 251.204L-67 224.632L-46.9451 264.205L97.1126 279.842L81.7388 335.754L39 434M1 434L45.226 307.116L-27.7997 298.934" stroke="#323232"/>
</svg>
