<svg width="711" height="1190" viewBox="0 0 711 1190" fill="none" xmlns="http://www.w3.org/2000/svg">
<path d="M725 46.863L546.496 99.474L398.848 1M772 98.5502L546.819 195.423L399.376 98.5502H317.038L236.615 135.809L1 46.863M765.407 184.639L512.485 315.359L407.138 184.639L322.86 173.434L251.99 221.987L1 123.795M768.045 288.847L473.952 455.495L406.949 288.847L330.374 262.334L248.056 319.146L1 206.644M768.045 379.746L473.609 558.952L408.512 757.304L381.707 966.885L401.5 1189M768.045 451.805L519.27 644.36L456.101 786.752L433.131 977.857L456.101 1189M766.726 543.675L546.126 738.666L501.941 838.392L485.873 972.236L517.5 1189M766.726 640.53L580.459 807.339L542.835 908.448L535.978 1035.93L590 1189M766.726 780.828L621.142 878.22L584.765 960.658L596.253 1050.59L766.726 1189M766.726 911.253L662.809 930.166L624.322 975.557L630.095 1009.6L766.726 1045.08M350.5 1189L330.433 966.576L357.31 756.697L422.582 558.062L389.946 374.418L340.032 348.184L269.001 404.401L1 279.137M294.5 1189L283.569 970.958L300.798 757.966L365.884 559.92L354.398 470.239L283.569 496.396L187.855 507.606L1 374.418M241.5 1189L234.145 978.899L251.375 761.295L297.319 614.975V566.202L226.488 588.713L157.571 581.209L1 455.495M170.878 1189V1087.82L188.173 938.155L220.843 702.438L203.547 661.281L1 596.479M1 725.931L165.113 766.044L149.739 919.448L91 1189M1 1189L113.226 840.875L1 820.616" stroke="#323232"/>
</svg>
