<svg width="257" height="303" viewBox="0 0 257 303" fill="none" xmlns="http://www.w3.org/2000/svg">
<path d="M204.166 16.3686L148.951 25.9501L78.8617 1M256 25.716L149.105 50.2604L79.1125 25.716H40.0258L1.84813 35.1561L-68.7004 16.3686M252.87 47.528L132.806 80.6482L82.797 47.528L42.7897 44.6892L9.14723 56.9909L-84.5062 35.2263M254.122 73.9308L114.514 116.154L82.7074 73.9308L46.3567 67.2135L7.2796 81.6078L-84.5061 61.4558M254.122 96.9617L114.351 142.367L83.4491 192.623L70.7247 245.723L80.1206 302M254.122 115.219L136.027 164.006L106.04 200.084L95.136 248.503L106.04 302M253.496 138.496L148.776 187.9L127.801 213.168L120.173 247.079L135.187 302M253.496 163.036L165.074 205.3L147.213 230.917L143.958 263.218L169.603 302M253.496 198.583L184.387 223.259L167.118 244.146L172.571 266.932L253.496 302M253.496 231.628L204.166 236.42L185.896 247.921L188.636 256.546L253.496 265.534M55.9105 302L46.3846 245.645L59.1432 192.469L90.1283 142.141L74.6358 95.6119L50.9412 88.9649L17.2221 103.209L-85.7581 88.9649M29.3268 302L24.138 246.755L32.3165 192.79L63.2134 142.612L57.761 119.89L24.138 126.517L-21.2985 129.357L-87.6358 112.316M4.16732 302L0.675992 248.767L8.85486 193.634L30.665 156.561V144.203L-2.95904 149.907L-35.6743 148.006L-92.0173 133.747M-23.8405 302L-29.3576 276.364L-21.1473 238.444L-5.63887 178.721L-13.8492 168.293L-39.3925 174.929L-110 156.458L-100.48 183.967L-32.0944 194.837L-39.3925 233.704L-59.6809 302M-77.7198 302L-56.7254 213.797L-91.3913 208.109" stroke="#323232"/>
</svg>
