<svg width="406" height="287" viewBox="0 0 406 287" fill="none" xmlns="http://www.w3.org/2000/svg">
<path d="M68.5539 15.5517L140.514 24.6238L231.861 1M1 24.4022L140.314 47.6419L231.534 24.4022H282.475L332.231 33.3405L424.175 15.5517M5.07888 45.0548L161.556 76.4144L226.732 45.0548L278.872 42.3668L322.718 54.0147L444.774 33.4069M3.44713 70.0541L185.395 110.033L226.848 70.0541L274.224 63.6938L325.152 77.323L444.774 58.2422M3.44713 91.8607L185.608 134.852L225.882 182.437L242.465 232.715L230.22 286M3.44713 109.148L157.358 155.341L196.439 189.501L210.651 235.347L196.439 286M4.26301 131.187L140.743 177.965L168.08 201.89L178.02 233.998L158.453 286M4.26301 154.423L119.502 194.44L142.779 218.696L147.021 249.279L113.599 286M4.26301 188.08L94.3321 211.444L116.838 231.221L109.731 252.796L4.26301 286M4.26301 219.369L68.5539 223.906L92.3653 234.795L88.7936 242.962L4.26301 251.473M261.772 286L274.187 232.641L257.559 182.291L217.177 134.639L237.368 90.5827L268.249 84.289L312.194 97.7755L446.406 84.289M296.418 286L303.181 233.692L292.522 182.595L252.255 135.084L259.361 113.57L303.181 119.845L362.397 122.534L448.853 106.399M329.208 286L333.758 235.597L323.099 183.394L294.674 148.292V136.591L338.496 141.992L381.133 140.192L454.564 126.691M365.71 286L372.901 261.726L362.2 225.823L341.988 169.274L352.689 159.401L385.979 165.684L478 148.194L465.592 174.241L376.467 184.533L385.979 221.335L412.42 286M435.93 286L408.568 202.485L453.748 197.1" stroke="#323232"/>
</svg>
