<svg width="64" height="64" viewBox="0 0 64 64" fill="none" xmlns="http://www.w3.org/2000/svg">
<mask id="mask0_68_333" style="mask-type:alpha" maskUnits="userSpaceOnUse" x="0" y="0" width="64" height="64">
<rect width="64" height="64" fill="#BBFF4B"/>
</mask>
<g mask="url(#mask0_68_333)">
<path d="M0.788403 -8L7.27727 -6.45042L11.8664 -8H19.6704L7.39572 -3.85529L-9.96027 -8H0.788403Z" fill="black"/>
<path d="M-14 1.85408V-0.712771L7.27727 4.36837L39.1717 -6.40118H57.4159L74.7307 -2.27861L96.472 -8H106.282L74.7611 0.295046L57.1228 -3.90454H39.5818L7.39572 6.9635L-14 1.85408Z" fill="black"/>
<path d="M-14 12.4745V9.88808L14.6208 17.6325L37.3102 3.19381L56.1924 1.90639L71.4937 7.2825L110 -1.31601V1.24213L71.3403 9.87488L55.8496 4.4322L38.1143 5.64143L15.0319 20.3302L-14 12.4745Z" fill="black"/>
<path d="M-14 24.3609V21.7509L22.7002 32.9357L37.0304 14.9207L54.4613 11.8703L72.3338 18.1049L110 10.2733V12.8233L72.1647 20.6901L54.252 14.4415L38.3943 17.2166L23.5969 35.819L-14 24.3609Z" fill="black"/>
<path d="M-14 36.0119V33.4019L23.9515 44.968L38.4576 67.5805L44.394 91.3261L40.6103 115.71L38.1432 115.327L41.8495 91.442L36.1349 68.5836L22.3457 47.0887L-14 36.0119Z" fill="black"/>
<path d="M-14 47.4458V44.8016L13.8867 54.5296L28.038 70.8251L33.1667 92.622L28.1131 115.784L25.6738 115.252L30.6068 92.6428L25.7489 71.9968L12.4372 56.6681L-14 47.4458Z" fill="black"/>
<path d="M-14 59.8493V57.2056L8.22562 64.9462L18.2894 76.5159L21.9361 91.9891L16.0381 115.818L13.6146 115.218L19.3676 91.9747L16.0008 77.689L6.77757 67.0856L-14 59.8493Z" fill="black"/>
<path d="M-14 69.9478V67.3041L0.791463 72.4555L9.37515 84.263L10.9463 99.2162L-0.387899 114.998L-2.41577 113.542L8.36404 98.5318L6.96212 85.1897L-0.768143 74.5561L-14 69.9478Z" fill="black"/>
<path d="M-14 81.3868V78.8107L-8.20362 80.2844L0.382461 90.2262L-2.42147 101.442L-14 106.404V103.688L-4.54322 99.6349L-2.35386 90.8775L-9.57986 82.5106L-14 81.3868Z" fill="black"/>
<path d="M-14 91.1064V88.1948L-8.22291 91.661L-10.0414 97.1166L-14 97.5429V95.0318L-11.9029 94.8059L-11.2248 92.7715L-14 91.1064Z" fill="black"/>
<path d="M74.7444 116H74.4159L72.2524 115.845L73.9068 92.6843L70.222 68.9381L60.1821 52.6233V45.3935L76.8925 48.1033L91.6234 47.2849L110 42.839V45.4076L91.9892 49.7651L76.7604 50.6111L62.6788 48.3276V51.9166L72.612 68.0582L76.4172 92.5805L74.7444 116Z" fill="black"/>
<path d="M89.2594 116H86.7551L87.6344 104.79L83.9365 88.3549L76.7025 61.5464L81.3548 55.8603L93.5012 58.8969L109.283 55.7405V67.5038L91.6195 69.9685L94.651 85.5051L102.625 98.0958V116H100.128V98.8199L92.2905 86.4442L88.6643 67.86L106.786 65.3314V58.786L93.4403 61.4551L82.2848 58.6662L79.4471 62.1345L86.3607 87.7554L90.1528 104.609L89.2594 116Z" fill="black"/>
<path d="M110 77.1386L103.215 78.21L110 92.629V98.4924L99.539 76.2628L110 74.6111V77.1386Z" fill="black"/>
<path d="M110 32.7894V35.3608L85.2632 41.4603L64.1892 40.1959L49.8726 37.4873L47.7924 45.8081L61.7904 67.6285L65.5984 91.7458L63.924 115.606L61.4335 115.431L63.088 91.8545L59.4061 68.5355L45.1088 46.2486L48.0219 34.5962L64.4972 37.7132L85.0339 38.9454L110 32.7894Z" fill="black"/>
<path d="M110 22.0899V24.6085L67.509 30.2489L52.1956 24.0408L42.42 26.6727L35.7615 45.8647L49.6924 67.5805L55.6288 91.3261L51.8452 115.71L49.378 115.327L53.0843 91.442L47.3697 68.5836L33.0053 46.192L40.4945 24.6055L52.3564 21.4119L67.835 27.687L110 22.0899Z" fill="black"/>
<circle cx="31.5" cy="31.5" r="21.5" fill="black"/>
<path d="M42 19H35.7663L31.633 26.2774L27.233 19H21L28.5201 31.7583L21 45H27.233L31.5347 37.4264L35.7663 45H41.9993L34.6411 31.9567L41.9993 19.0007L42 19ZM27.1046 19.2327L31.5026 26.5074L30.1434 28.9008L24.3947 19.2327H27.1046ZM24.1136 44.7666H21.3985L28.663 31.9997L28.8072 31.7438L28.6525 31.5256L21.4063 19.2321H24.1168L30.0117 29.1329L30.1526 29.359L30.281 29.1309L31.772 26.5055L31.7707 26.5035L35.9 19.2321H38.6151L24.1136 44.7659V44.7666ZM35.9013 44.7666L31.6684 37.1904L33.0178 34.8142L37.1943 42.2311L38.6171 44.7666H35.9007H35.9013ZM41.6035 44.7666H38.8877L37.3955 42.1167L33.1607 34.5702L33.0217 34.3309L31.4037 37.1898L27.1006 44.7666H24.3855L38.8871 19.2327H41.6022L34.3803 31.9408L34.5107 32.194L41.6035 44.7673V44.7666Z" fill="#BBFF4B"/>
<path d="M27.2308 19.1161H21.1154L28.7308 31.6518L21.1154 45H27.2308L41.8846 19.1161H35.8846L31.6154 26.5446L27.2308 19.1161Z" fill="#BBFF4B"/>
<path d="M35.8846 45H41.8846L34.5 32L41.8846 19.1161H35.7692L21.1154 45H27.1154L31.5 37.2232L35.8846 45Z" fill="#BBFF4B"/>
</g>
</svg>
