<svg width="185" height="22" viewBox="0 0 185 22" fill="none" xmlns="http://www.w3.org/2000/svg">
<path d="M32.6784 0.19829H34.4205L39.5424 15.98L45.0111 0.19829H46.6795L39.6407 21.0126L32.6784 0.19829Z" fill="#BBFF4B"/>
<path d="M34.8985 0.198395H36.6167L40.355 11.9531L39.5746 14.2863L34.8985 0.198395Z" fill="#BBFF4B"/>
<path d="M47.1504 0.198395H48.8644L41.9998 21.0127H40.2736L47.1504 0.198395Z" fill="#BBFF4B"/>
<path d="M58.0082 2.32382L59.565 4.03559H66.5273V2.32382H58.0082Z" fill="#BBFF4B"/>
<path d="M57.3925 2.32382L59.1102 4.15997V8.61776H57.3925V2.32382Z" fill="#BBFF4B"/>
<path d="M58.0082 11.021L59.565 12.7333H65.2648V11.021H58.0082Z" fill="#BBFF4B"/>
<path d="M57.3925 11.021L59.1102 12.8571V16.7671H57.3925V11.021Z" fill="#BBFF4B"/>
<path d="M66.5274 1.91058V0.19829H55.2585V18.8874H66.5274V17.1751H56.9768V10.6361H65.2404V9.04823H56.9768V1.91058H66.5274Z" fill="#BBFF4B"/>
<path d="M55.2584 19.2999V21.0122H66.5273V19.2999H55.2584Z" fill="#BBFF4B"/>
<path d="M96.224 0.19829H94.5057V21.0126H96.224V0.19829Z" fill="#BBFF4B"/>
<path d="M98.4952 0.198395H96.7769V21.0127H98.4952V0.198395Z" fill="#BBFF4B"/>
<path d="M125.642 0.194154H123.924V0.198389H122.395V21.0127H124.113V21.0084H125.642V0.194154ZM122.582 0.384175H123.924V20.8258H122.582V0.384175ZM125.455 20.8221H124.113V0.380469H125.455V20.8221Z" fill="#BBFF4B"/>
<path fill-rule="evenodd" clip-rule="evenodd" d="M123.824 0.0983889H122.295V21.1127H124.213V21.1084H125.742V0.0941536H123.824V0.0983889ZM124.213 0.480469V20.7221H125.355V0.480469H124.213ZM122.682 0.484175V20.7258H123.824V0.484175H122.682Z" fill="#BBFF4B"/>
<path d="M75.2594 2.32382L76.9777 4.15997V8.61776H75.2594V2.32382Z" fill="#BBFF4B"/>
<path d="M75.7106 11.021L83.7878 21.0126H85.7339L77.6142 11.021H75.7106Z" fill="#BBFF4B"/>
<path d="M75.2594 11.021L76.9777 13.1583V21.0126H75.2594V11.021Z" fill="#BBFF4B"/>
<path d="M80.135 2.32382H75.8757L77.4325 4.03612H80.1356C81.4672 4.03612 82.547 5.15347 82.547 6.53178C82.547 7.91008 81.4672 9.02744 80.1356 9.02744H75.2601V10.6122H80.1356C82.4323 10.6122 84.294 8.75696 84.294 6.46826C84.294 4.17956 82.4317 2.32382 80.135 2.32382Z" fill="#BBFF4B"/>
<path d="M84.8973 6.81905C84.7263 8.20106 84.219 9.22526 83.4892 9.91706L84.798 11.3626C86.0977 10.3241 86.8355 8.65096 86.8355 6.87568C86.8355 3.18803 83.8355 0.198533 80.135 0.198533H73.0829V21.0128H74.8012V1.78326H80.1355C82.9076 1.78326 85.2367 4.07779 84.8973 6.81905Z" fill="#BBFF4B"/>
<path d="M81.2212 12.4351H81.6445C82.718 12.4351 83.6539 12.1371 84.4251 11.6327L83.1349 10.2147C82.4009 10.7578 81.4921 11.0214 80.4962 11.0214H78.1676L86.2448 21.0136H88.191L81.2212 12.4351Z" fill="#BBFF4B"/>
<path d="M132.136 0.197803V21.0121H143.405V17.1747H135.445V12.4437H142.244V10.4462H142.243V8.96199H135.445V3.72137H143.405V0.197803H132.136ZM143.218 20.8258H132.323V19.0934H143.218V20.8258ZM135.251 17.1709H133.861V10.9157L135.251 12.3289V17.1709ZM135.445 12.2574V12.2527L133.854 10.6362L142.057 10.6356V12.2574H135.445ZM133.861 8.95882V2.19327L135.251 3.60651V8.95882H133.861ZM143.218 3.53506H135.445V3.53029L133.854 1.9138V1.9101H143.218V3.53506ZM133.667 1.72378V9.14831H142.056V10.4493H133.671L133.667 10.4462V17.3604L133.854 17.361H143.218V18.9071H132.323V0.384118H143.218V1.72378H133.667Z" fill="#BBFF4B"/>
<path fill-rule="evenodd" clip-rule="evenodd" d="M132.036 0.097803H143.505V3.82137H135.545V8.86199H142.343V10.3462H142.344V12.5437H135.545V17.0747H143.505V21.1121H132.036V0.097803ZM133.712 10.3493H141.956V9.24831H133.567V1.62378H143.118V0.484118H132.423V18.8071H143.118V17.461H133.854L133.567 17.4602V10.2057L133.712 10.3493ZM135.491 12.1574H141.957V10.7357L134.093 10.7362L135.491 12.1574ZM135.491 3.43506H143.118V2.0101H134.089L135.491 3.43506ZM133.961 2.43748V8.85882H135.151V3.64746L133.961 2.43748ZM133.961 11.1599V17.0709H135.151V12.3698L133.961 11.1599ZM132.423 19.1934V20.7258H143.118V19.1934H132.423Z" fill="#BBFF4B"/>
<path d="M104.747 0.194683V21.0153H108.055V12.4438H114.855V10.4462H114.853V8.9594H108.055V3.7209H116.016V0.194154L104.747 0.194683ZM107.862 20.8258H106.472V10.9157L107.862 12.3289V20.8258ZM108.055 12.2575V12.2527L106.5 10.6717H114.668V12.2575H108.055ZM114.666 9.14571V10.4854H106.317L106.278 10.4462V20.829H104.934V0.380999H115.829V1.72066H106.278V9.14836H108.055V9.14571H114.666ZM106.472 8.95888V2.19333L107.863 3.60657V8.95888H106.472ZM115.829 3.53511H108.056V3.53035L106.466 1.91386V1.90698H115.829V3.53511Z" fill="#BBFF4B"/>
<path fill-rule="evenodd" clip-rule="evenodd" d="M104.647 0.0941536H116.116V3.8209H108.156V8.8594H114.953V10.3462H114.955V12.5438H108.156V21.1153H104.647V0.0941536ZM106.359 10.3854H114.566V9.24572H108.156V9.24836H106.178V1.62066H115.729V0.480999H105.034V20.729H106.178V10.2031L106.359 10.3854ZM108.102 12.1575H114.568V10.7717H106.739L108.102 12.1575ZM108.103 3.43511H115.729V2.00698H106.698L108.103 3.43511ZM106.572 2.43754V8.85888H107.763V3.64752L106.572 2.43754ZM106.572 11.1599V20.7258H107.762V12.3699L106.572 11.1599Z" fill="#BBFF4B"/>
<path d="M156.666 0.1H149.714V20.9143H156.666C160.121 20.9143 162.922 18.1233 162.922 14.6807V6.3336C162.922 2.89101 160.121 0.1 156.666 0.1ZM156.666 20.728H149.901V18.9755H156.462C157.937 18.9755 159.248 18.2641 160.068 17.1674L161.373 18.4933C160.259 19.8562 158.563 20.728 156.666 20.728ZM162.735 14.6807C162.735 16.0574 162.27 17.3277 161.489 18.3451L160.178 17.0128C160.669 16.2951 160.957 15.4281 160.957 14.4954V6.51885C160.957 4.0486 158.941 2.03884 156.462 2.03884H151.678V17.0393H156.574C157.912 17.0393 158.996 15.9584 158.996 14.6251V6.35106C158.996 5.01775 157.912 3.93691 156.574 3.93691H153.684L151.996 2.22462H156.462C158.841 2.22462 160.77 4.14705 160.77 6.51832V14.4949C160.77 16.8662 158.841 18.7886 156.462 18.7886H149.901V0.285256H156.666C160.012 0.285256 162.735 2.99793 162.735 6.33254V14.6807ZM153.55 4.06765V16.8535H151.865V2.35906L153.55 4.06765ZM153.737 16.8535V4.12428H156.574C157.807 4.12428 158.809 5.12361 158.809 6.35212V14.6262C158.809 15.8547 157.807 16.854 156.574 16.854L153.737 16.8535Z" fill="#BBFF4B"/>
<path fill-rule="evenodd" clip-rule="evenodd" d="M149.614 0H156.666C160.176 0 163.022 2.83546 163.022 6.3336V14.6807C163.022 18.1788 160.176 21.0143 156.666 21.0143H149.614V0ZM153.637 4.0318L153.613 4.00712L153.55 4.06765H153.637V4.0318ZM153.45 4.10918V16.7535H151.965V2.60295L153.45 4.10918ZM156.746 20.628C158.547 20.6042 160.158 19.7811 161.238 18.499L160.078 17.3194C159.235 18.3878 157.928 19.0755 156.462 19.0755H150.001V20.628H156.746ZM150.001 0.385256V18.6886H156.462C158.786 18.6886 160.67 16.8106 160.67 14.4949V6.51832C160.67 4.2026 158.786 2.32462 156.462 2.32462H152.235L153.726 3.83691H156.574C157.967 3.83691 159.096 4.96219 159.096 6.35106V14.6251C159.096 16.014 157.967 17.1393 156.574 17.1393H151.578V1.93884H156.462C158.995 1.93884 161.057 3.99304 161.057 6.51885V14.4954C161.057 15.4195 160.781 16.2807 160.307 17.0008L161.479 18.1922C162.205 17.2075 162.635 15.9933 162.635 14.6807V6.33254C162.635 3.05349 159.958 0.385256 156.666 0.385256H150.001ZM153.837 4.22428V16.754H156.574C157.752 16.754 158.709 15.7991 158.709 14.6262V6.35212C158.709 5.17917 157.752 4.22428 156.574 4.22428H153.837Z" fill="#BBFF4B"/>
<path d="M184.1 0.197803H179.048L175.698 6.02383L172.131 0.197803H167.08L173.175 10.4118L167.08 21.0126H172.131L175.618 14.9495L179.048 21.0126H184.099L178.136 10.5705L184.1 0.197803ZM172.027 0.384118L175.592 6.20803L174.49 8.12411L169.831 0.384118H172.027ZM169.603 20.8258H167.403L173.29 10.6049L173.407 10.4001L173.282 10.2254L167.409 0.383589H169.606L174.384 8.30989L174.498 8.49091L174.602 8.30831L175.81 6.20644L175.809 6.20486L179.156 0.383589H181.357L169.603 20.8258ZM179.157 20.8258L175.726 14.7605L176.82 12.8582L180.205 18.7959L181.358 20.8258H179.157ZM183.779 20.8258H181.577L180.368 18.7043L176.936 12.6629L176.823 12.4713L175.512 14.76L172.024 20.8258H169.824L181.577 0.384118H183.777L177.924 10.5578L178.03 10.7606L183.779 20.8258Z" fill="#BBFF4B"/>
<path fill-rule="evenodd" clip-rule="evenodd" d="M166.904 0.097803H172.188L175.695 5.8279L178.99 0.097803H184.342L184.179 0.259745L178.251 10.5707L184.272 21.1126H183.879V21.203L183.827 21.1126H178.989L175.617 15.1513L172.189 21.1126H166.907L173.059 10.4127L166.904 0.097803ZM183.879 20.9126H183.927L183.879 20.8276V20.9126ZM179.081 20.8687L179.106 20.9126H179.156L179.157 20.8258L179.081 20.8687ZM183.606 20.7258L177.941 10.8068L177.81 10.5555L183.605 0.484118H181.635L169.996 20.7258H171.966L175.425 14.7103L176.822 12.272L177.023 12.6135L180.455 18.6548L181.636 20.7258H183.606ZM179.215 20.7258L175.841 14.7609L176.82 13.0595L180.118 18.8453L181.186 20.7258H179.215ZM167.585 0.483589L173.366 10.1706L173.526 10.3939L173.377 10.6545L167.576 20.7258H169.545L181.184 0.483589H179.214L175.927 6.20081L175.928 6.2024L174.689 8.35783L174.502 8.68522L174.298 8.36147L169.549 0.483589H167.585ZM170.008 0.484118L174.488 7.92706L175.476 6.20963L171.971 0.484118H170.008Z" fill="#BBFF4B"/>
<path d="M2.61323 0.1L3.71599 0.362429L4.4959 0.1H5.82217L3.73612 0.801927L0.786537 0.1H2.61323Z" fill="#BBFF4B"/>
<path d="M0.1 1.76884V1.33413L3.71599 2.19464L9.13633 0.370768H12.2369L15.1795 1.06894L18.8743 0.1H20.5415L15.1846 1.50481L12.1871 0.793587H9.20603L3.73612 2.63414L0.1 1.76884Z" fill="#BBFF4B"/>
<path d="M0.1 3.56746V3.12943L4.964 4.44099L8.81998 1.99573L12.0289 1.77769L14.6293 2.68817L21.1733 1.23197V1.6652L14.6033 3.1272L11.9707 2.20545L8.95663 2.41024L5.03387 4.89786L0.1 3.56746Z" fill="#BBFF4B"/>
<path d="M0.1 5.58047V5.13845L6.33707 7.03266L8.77242 3.98173L11.7347 3.46513L14.7721 4.52099L21.1733 3.19467V3.62653L14.7434 4.9588L11.6992 3.90057L9.00421 4.37055L6.48946 7.52096L0.1 5.58047Z" fill="#BBFF4B"/>
<path d="M0.1 7.55363V7.11161L6.54971 9.07039L9.01497 12.8999L10.0238 16.9214L9.38082 21.0508L8.96154 20.986L9.59141 16.941L8.62024 13.0698L6.27681 9.42953L0.1 7.55363Z" fill="#BBFF4B"/>
<path d="M0.1 9.49002V9.04221L4.83923 10.6897L7.2442 13.4494L8.11581 17.1408L7.25696 21.0635L6.84242 20.9734L7.68076 17.1443L6.85518 13.6478L4.5929 11.0519L0.1 9.49002Z" fill="#BBFF4B"/>
<path d="M0.1 11.5906V11.1429L3.87716 12.4538L5.58746 14.4132L6.2072 17.0336L5.20486 21.0692L4.793 20.9676L5.77071 17.0312L5.19853 14.6119L3.63107 12.8161L0.1 11.5906Z" fill="#BBFF4B"/>
<path d="M0.1 13.3008V12.8531L2.61375 13.7255L4.07252 15.7252L4.33954 18.2576L2.41333 20.9303L2.0687 20.6837L3.90068 18.1417L3.66243 15.8821L2.3487 14.0813L0.1 13.3008Z" fill="#BBFF4B"/>
<path d="M0.1 15.2381V14.8018L1.08507 15.0514L2.54425 16.7351L2.06773 18.6345L0.1 19.4749V19.0149L1.70714 18.3285L2.07922 16.8454L0.851186 15.4284L0.1 15.2381Z" fill="#BBFF4B"/>
<path d="M0.1 16.8841V16.3911L1.08179 16.9781L0.772748 17.902L0.1 17.9742V17.5489L0.456395 17.5107L0.571643 17.1661L0.1 16.8841Z" fill="#BBFF4B"/>
<path d="M15.1818 21.1H15.126L14.7583 21.0738L15.0394 17.1514L14.4132 13.1298L12.707 10.3668V9.14245L15.5468 9.60137L18.0503 9.46277L21.1733 8.70982V9.14484L18.1125 9.8828L15.5244 10.0261L13.1313 9.63936V10.2472L14.8194 12.9808L15.4661 17.1338L15.1818 21.1Z" fill="#BBFF4B"/>
<path d="M17.6486 21.1H17.223L17.3724 19.2015L16.7439 16.4182L15.5145 11.878L16.3052 10.915L18.3694 11.4293L21.0515 10.8948V12.8869L18.0496 13.3043L18.5648 15.9355L19.92 18.0678V21.1H19.4957V18.1905L18.1637 16.0946L17.5474 12.9473L20.6272 12.519V11.4105L18.3591 11.8626L16.4632 11.3903L15.981 11.9776L17.1559 16.3166L17.8004 19.1709L17.6486 21.1Z" fill="#BBFF4B"/>
<path d="M21.1733 14.5186L20.0202 14.7001L21.1733 17.142V18.135L19.3955 14.3703L21.1733 14.0906V14.5186Z" fill="#BBFF4B"/>
<path d="M21.1733 7.00788V7.44336L16.9694 8.47634L13.388 8.2622L10.9549 7.8035L10.6014 9.21266L12.9803 12.9081L13.6275 16.9924L13.3429 21.0332L12.9196 21.0036L13.2008 17.0108L12.5751 13.0617L10.1453 9.28727L10.6404 7.31388L13.4403 7.84175L16.9304 8.05043L21.1733 7.00788Z" fill="#BBFF4B"/>
<path d="M21.1733 5.19587V5.6224L13.9521 6.57763L11.3497 5.52626L9.68836 5.97198L8.55678 9.22224L10.9243 12.8999L11.9332 16.9214L11.2901 21.0508L10.8709 20.986L11.5007 16.941L10.5296 13.0698L8.08838 9.27768L9.36114 5.6219L11.377 5.08105L14.0076 6.14377L21.1733 5.19587Z" fill="#BBFF4B"/>
<path fill-rule="evenodd" clip-rule="evenodd" d="M0.763386 0.197283L0.786537 0H2.62497L3.71126 0.258511L4.47953 0H5.82217L5.85406 0.194778L3.74085 0.905845L0.763386 0.197283ZM1.6387 0.2L3.73139 0.698009L5.21142 0.2H4.51227L3.72072 0.466347L2.6015 0.2H1.6387ZM18.8614 0H20.5415L20.5669 0.196729L15.1858 1.60787L12.1754 0.893587H9.22241L3.74085 2.73806L0 1.84783V1.20754L3.71126 2.09072L9.11996 0.270768H12.2486L15.1782 0.965881L18.8614 0ZM18.8872 0.2L15.1807 1.17201L12.2252 0.470768H9.1527L3.72072 2.29856L0.2 1.46072V1.68984L3.73139 2.53022L9.18966 0.693587H12.1988L15.1834 1.40174L19.766 0.2H18.8872ZM21.2733 1.10727V1.74539L14.5971 3.23101L11.957 2.30661L8.98874 2.50829L5.05029 5.00586L0 3.64406V2.9989L4.94758 4.33299L8.78787 1.89768L12.0426 1.67653L14.6355 2.58436L21.2733 1.10727ZM21.0733 1.35667L14.6232 2.79197L12.0153 1.87885L8.85209 2.09377L4.98042 4.54899L0.2 3.25997V3.49085L5.01745 4.78986L8.92452 2.31219L11.9844 2.10429L14.6094 3.02339L21.0733 1.58501V1.35667ZM21.2733 3.07183V3.70794L14.7366 5.06233L11.6908 4.00354L9.05873 4.46255L6.5253 7.63635L0 5.65461V5.00357L6.30123 6.91726L8.71791 3.88972L11.7431 3.36216L14.7789 4.41747L21.2733 3.07183ZM21.0733 3.31751L14.7654 4.62451L11.7264 3.56809L8.82694 4.07373L6.37291 7.14805L0.2 5.27333V5.50633L6.45362 7.40556L8.9497 4.27855L11.7075 3.79761L14.7501 4.85528L21.0733 3.54513V3.31751ZM11.3834 4.97579L14.0206 6.04118L21.2733 5.08177V5.71004L13.9391 6.68022L11.3433 5.63152L9.7654 6.05485L8.66725 9.2091L11.0173 12.8596L12.0351 16.9167L11.3736 21.1649L10.7566 21.0695L11.3988 16.9456L10.4366 13.1101L7.97791 9.29083L9.2841 5.53903L11.3834 4.97579ZM9.43817 5.70477L8.19884 9.26453L10.6225 13.0295L11.6027 16.9363L10.9851 20.9025L11.2067 20.9367L11.8312 16.926L10.8313 12.9402L8.44632 9.23539L9.61133 5.88912L11.3561 5.421L13.9652 6.47504L21.0733 5.53476V5.30997L13.9945 6.24637L11.3706 5.18631L9.43817 5.70477ZM21.2733 6.88033V7.52177L16.9786 8.57707L13.3693 8.36126L11.029 7.91922L10.7089 9.19497L13.0758 12.8716L13.728 16.9881L13.4356 21.1399L12.8129 21.0964L13.1003 17.0152L12.4796 13.0981L10.0378 9.30496L10.5663 7.19815L13.4526 7.74231L16.9213 7.94971L21.2733 6.88033ZM21.0733 7.13543L16.9396 8.15116L13.4216 7.94081L10.7145 7.42961L10.2529 9.26957L12.6706 13.0252L13.3014 17.0065L13.0264 20.9108L13.2502 20.9265L13.5269 16.9968L12.8848 12.9445L10.4938 9.23036L10.8808 7.68777L13.4003 8.16276L16.9603 8.37562L21.0733 7.36496V7.13543ZM0 6.97673L6.61392 8.98538L9.10796 12.8596L10.1258 16.9167L9.46426 21.1649L8.84733 21.0695L9.48948 16.9456L8.52725 13.1101L6.21261 9.51454L0 7.62777V6.97673ZM0.2 7.24649V7.47949L6.34101 9.34452L8.71323 13.0295L9.69334 16.9363L9.07576 20.9025L9.29738 20.9367L9.92191 16.926L8.92198 12.9402L6.48551 9.15541L0.2 7.24649ZM21.2733 8.58285V9.2236L18.1271 9.98214L15.5191 10.1265L13.2313 9.75681V10.2188L14.9151 12.9455L15.5666 17.1296L15.2749 21.2H15.1188L14.6514 21.1665L14.9389 17.1555L14.3175 13.1652L12.607 10.3952V9.02499L15.5521 9.50092L18.0357 9.36342L21.2733 8.58285ZM21.0733 8.8368L18.0649 9.56211L15.5416 9.70181L12.807 9.25991V10.3385L14.5089 13.0945L15.14 17.1472L14.8652 20.9812L15.0889 20.9971L15.3655 17.138L14.7237 13.0162L13.0313 10.2756V9.5219L15.5297 9.92563L18.0979 9.78345L21.0733 9.06608V8.8368ZM0 8.90158L4.89717 10.604L7.33584 13.4024L8.21836 17.14L7.33329 21.1824L6.72331 21.0498L7.5782 17.1452L6.76354 13.6949L4.53496 11.1376L0 9.56113V8.90158ZM0.2 9.18285V9.41891L4.65083 10.9661L6.94682 13.6008L7.78331 17.1435L6.96152 20.8969L7.18063 20.9446L8.01325 17.1417L7.15256 13.4965L4.7813 10.7754L0.2 9.18285ZM21.1515 10.7729V12.974L18.1681 13.3888L18.6593 15.8978L20.02 18.0388V21.2H19.3957V18.2196L18.0692 16.1323L17.429 12.8628L20.5272 12.432V11.5324L18.3567 11.965L16.5004 11.5026L16.091 12.0012L17.2536 16.2946L17.9013 19.1637L17.741 21.2H17.1148L17.2715 19.2087L16.6469 16.4423L15.4046 11.8544L16.268 10.8027L18.3719 11.3269L21.1515 10.7729ZM20.9515 11.0167L18.367 11.5318L16.3424 11.0274L15.6245 11.9016L16.8416 16.3961L17.4733 19.1942L17.3311 21H17.5561L17.6995 19.1782L17.0589 16.3408L15.871 11.954L16.4261 11.2779L18.3615 11.7601L20.7272 11.2886V12.6061L17.6659 13.0318L18.2582 16.0569L19.5957 18.1614V21H19.82V18.0969L18.4703 15.9733L17.9312 13.2199L20.9515 12.7999V11.0167ZM0 11.0023L3.93504 12.368L5.67908 14.3661L6.3101 17.0342L5.27785 21.1902L4.6718 21.0407L5.66781 17.0306L5.10691 14.659L3.5732 12.9019L0 11.6618V11.0023ZM0.2 11.2834V11.5195L3.68894 12.7303L5.29015 14.5647L5.8736 17.0318L4.91419 20.8945L5.13188 20.9482L6.10431 17.0331L5.49585 14.4603L3.81929 12.5395L0.2 11.2834ZM0 12.7126L2.6761 13.6413L4.16915 15.688L4.44299 18.2851L2.43618 21.0697L1.92891 20.7066L3.79723 18.1142L3.5658 15.9193L2.28636 14.1655L0 13.372V12.7126ZM0.2 12.9937V13.2297L2.41105 13.9971L3.75906 15.8449L4.00414 18.1692L2.20848 20.6608L2.39047 20.791L4.23608 18.2301L3.97589 15.7624L2.55141 13.8097L0.2 12.9937ZM21.2733 13.9736V14.6041L20.1676 14.7781L21.2733 17.1196V18.135L21.0829 18.1777L19.2481 14.2923L21.2733 13.9736ZM19.543 14.4483L21.0733 17.6891V17.1644L19.8727 14.6221L21.0733 14.4331V14.2075L19.543 14.4483ZM0 14.6733L1.14008 14.9622L2.65391 16.7089L2.15265 18.707L0 19.6263V18.9488L1.62223 18.256L1.96956 16.8715L0.796184 15.5176L0 15.3159V14.6733ZM0.2 14.9303V15.1603L0.906188 15.3392L2.18888 16.8192L1.79206 18.401L0.2 19.0809V19.3234L1.98281 18.562L2.43458 16.7612L1.03007 15.1406L0.2 14.9303ZM0 16.2148L1.20214 16.9335L0.847226 17.9946L0 18.0855V17.4591L0.381917 17.4181L0.451293 17.2107L0 16.9409V16.2148ZM0.2 16.5674V16.8274L0.691992 17.1216L0.530873 17.6033L0.2 17.6388V17.8629L0.69827 17.8094L0.961446 17.0226L0.2 16.5674Z" fill="#BBFF4B"/>
</svg>
