<svg width="31" height="21" viewBox="0 0 31 21" fill="none" xmlns="http://www.w3.org/2000/svg">
<path d="M3.89076 20.5835C7.73462 20.9997 11.6246 21.0023 15.4985 20.9997C19.3735 21.0023 23.2642 20.9997 27.1065 20.5835C28.7296 20.4071 30.0781 19.2242 30.458 17.6221C30.9985 15.3411 31 12.8491 31 10.4997C31 8.15075 31.005 5.6598 30.4641 3.37883C30.0843 1.77524 28.7361 0.593839 27.1123 0.417862C23.2688 0.000150872 19.3781 -0.00134357 15.505 0.000150925C11.6312 -0.00134357 7.73924 0.000150872 3.89499 0.417862C2.27349 0.593839 0.924926 1.77524 0.546652 3.37883C0.00653512 5.6598 0 8.15075 0 10.5001C0 12.8494 -4.69268e-08 15.3411 0.540885 17.6221C0.918775 19.2242 2.26734 20.4071 3.89076 20.5835ZM11.5001 5.2137C14.7846 6.87931 18.0483 8.53334 21.3548 10.2102C18.058 11.8713 14.7938 13.5171 11.5001 15.1771V5.2137Z" fill="#2B3337"/>
</svg>
