<svg width="24" height="21" viewBox="0 0 24 21" fill="none" xmlns="http://www.w3.org/2000/svg">
<g clip-path="url(#clip0_74:1329)">
<path fill-rule="evenodd" clip-rule="evenodd" d="M13.1524 8.81303C13.1524 11.6168 10.8795 13.8897 8.07573 13.8897C5.27194 13.8897 2.99902 11.6168 2.99902 8.81303C2.99902 6.00924 5.27194 3.73633 8.07573 3.73633C10.8795 3.73633 13.1524 6.00924 13.1524 8.81303Z" fill="#F72000"/>
<path fill-rule="evenodd" clip-rule="evenodd" d="M20.4224 8.81303C20.4224 11.6168 18.1495 13.8897 15.3457 13.8897C12.542 13.8897 10.269 11.6168 10.269 8.81303C10.269 6.00924 12.542 3.73633 15.3457 3.73633C18.1495 3.73633 20.4224 6.00924 20.4224 8.81303Z" fill="#FFBB00"/>
<path fill-rule="evenodd" clip-rule="evenodd" d="M13.1524 8.81303C13.1524 11.6168 10.8795 13.8897 8.07573 13.8897C5.27194 13.8897 2.99902 11.6168 2.99902 8.81303C2.99902 6.00924 5.27194 3.73633 8.07573 3.73633C10.8795 3.73633 13.1524 6.00924 13.1524 8.81303Z" fill="#F72000" fill-opacity="0.378"/>
<path d="M-0.427246 15.0454H0.733215L1.18103 17.3524L1.62692 15.0454H2.78348V18.8369H2.06306V15.9454L1.50426 18.8369H0.851989L0.295119 15.9454V18.8369H-0.427246V15.0454ZM4.01402 16.98L3.25662 16.8739C3.28519 16.698 3.32639 16.5597 3.38026 16.4588C3.43413 16.3579 3.51168 16.2704 3.61293 16.1963C3.68561 16.1428 3.78557 16.1015 3.91278 16.0722C4.03999 16.0428 4.17758 16.0282 4.32556 16.0282C4.5631 16.0282 4.75391 16.0458 4.898 16.0812C5.04208 16.1165 5.16215 16.1902 5.25821 16.3023C5.3257 16.3799 5.37892 16.4898 5.41787 16.6321C5.45681 16.7743 5.47628 16.9101 5.47628 17.0394V18.2524C5.47628 18.3817 5.48245 18.483 5.49477 18.5563C5.5071 18.6296 5.53404 18.7231 5.57557 18.8369H4.83179C4.80193 18.7662 4.78246 18.7123 4.77338 18.6753C4.7643 18.6382 4.75522 18.58 4.74614 18.5007C4.64229 18.6335 4.5391 18.7283 4.43655 18.7852C4.29636 18.861 4.13346 18.899 3.94784 18.899C3.70121 18.899 3.51396 18.8231 3.38611 18.6714C3.25825 18.5197 3.19433 18.3326 3.19433 18.1101C3.19433 17.9015 3.2404 17.73 3.33256 17.5955C3.42472 17.461 3.59477 17.361 3.8427 17.2954C4.13995 17.2161 4.33271 17.1605 4.42098 17.1286C4.50925 17.0967 4.60271 17.0549 4.70136 17.0032C4.70136 16.8739 4.68125 16.7834 4.641 16.7316C4.60077 16.6799 4.53002 16.654 4.42877 16.654C4.29897 16.654 4.20161 16.6817 4.13671 16.7368C4.08609 16.7799 4.04519 16.861 4.01404 16.9799L4.01402 16.98ZM4.70135 17.5334C4.59231 17.5851 4.47873 17.6308 4.36061 17.6705C4.19965 17.7274 4.09776 17.7834 4.05492 17.8386C4.01079 17.8955 3.98872 17.9602 3.98872 18.0326C3.98872 18.1154 4.01046 18.183 4.05395 18.2356C4.09743 18.2882 4.16136 18.3145 4.24574 18.3145C4.334 18.3145 4.4161 18.2861 4.49204 18.2292C4.56797 18.1723 4.62183 18.1029 4.65364 18.0209C4.68545 17.9391 4.70135 17.8326 4.70135 17.7015V17.5334ZM5.81508 18.0766L6.60169 17.9783C6.63413 18.1024 6.67957 18.1912 6.73798 18.2447C6.79639 18.2981 6.87428 18.3249 6.97163 18.3249C7.07807 18.3249 7.16049 18.2946 7.2189 18.2343C7.26434 18.1895 7.28706 18.1335 7.28706 18.0662C7.28706 17.9903 7.25719 17.9317 7.19749 17.8903C7.15465 17.861 7.04107 17.8248 6.85675 17.7817C6.58156 17.7179 6.39043 17.6589 6.28334 17.6046C6.17626 17.5502 6.08604 17.4584 6.0127 17.3291C5.93936 17.1998 5.90268 17.0524 5.90268 16.8868C5.90268 16.7058 5.94229 16.5498 6.02146 16.4187C6.10064 16.2877 6.20968 16.1898 6.34857 16.1252C6.48746 16.0605 6.67373 16.0282 6.90739 16.0282C7.15401 16.0282 7.33606 16.0532 7.45353 16.1032C7.571 16.1532 7.669 16.2308 7.74753 16.336C7.82607 16.4411 7.89129 16.5834 7.94321 16.7627L7.19166 16.861C7.17221 16.773 7.13973 16.7084 7.0943 16.667C7.03199 16.6118 6.9567 16.5842 6.86843 16.5842C6.77887 16.5842 6.71365 16.6054 6.67276 16.6476C6.63186 16.6899 6.61142 16.7411 6.61142 16.8015C6.61142 16.8687 6.63738 16.9196 6.68931 16.9541C6.74123 16.9886 6.85415 17.0196 7.02809 17.0472C7.2916 17.0869 7.48761 17.142 7.61611 17.2127C7.74462 17.2834 7.84295 17.3843 7.9111 17.5153C7.97925 17.6464 8.01332 17.7903 8.01332 17.9472C8.01332 18.1059 7.97729 18.2602 7.90525 18.4102C7.8332 18.5602 7.71963 18.6796 7.56451 18.7684C7.40939 18.8572 7.19814 18.9016 6.93075 18.9016C6.55302 18.9016 6.28399 18.8301 6.12368 18.6869C5.96337 18.5438 5.86051 18.3404 5.81508 18.0766ZM9.34901 15.0454V16.0902H9.78515V16.8584H9.34901V17.8334C9.34901 17.9507 9.35742 18.0283 9.37433 18.0662C9.40028 18.1248 9.44572 18.1542 9.51062 18.1542C9.56903 18.1542 9.65082 18.1317 9.75596 18.0869L9.81437 18.8137C9.61837 18.8706 9.43534 18.899 9.2653 18.899C9.06799 18.899 8.92261 18.8654 8.82916 18.7981C8.73569 18.7309 8.66656 18.6287 8.62178 18.4917C8.577 18.3546 8.55461 18.1326 8.55461 17.8257V16.8584H8.26255V16.0902H8.55461V15.5859L9.34901 15.0454ZM12.4565 17.7248H10.8677C10.882 17.8938 10.9164 18.0197 10.9709 18.1024C11.0475 18.2214 11.1475 18.2809 11.2708 18.2809C11.3487 18.2809 11.4226 18.255 11.4927 18.2033C11.5356 18.1705 11.5817 18.1128 11.631 18.03L12.4117 18.1257C12.2923 18.4016 12.1483 18.5994 11.9795 18.7193C11.8108 18.8391 11.5687 18.899 11.2532 18.899C10.9794 18.899 10.7639 18.8477 10.6068 18.7451C10.4498 18.6425 10.3196 18.4796 10.2164 18.2563C10.1132 18.033 10.0616 17.7705 10.0616 17.4688C10.0616 17.0394 10.1652 16.692 10.3722 16.4265C10.5792 16.1609 10.8651 16.0282 11.2299 16.0282C11.5258 16.0282 11.7595 16.0877 11.9308 16.2066C12.1022 16.3256 12.2326 16.498 12.3222 16.7239C12.4118 16.9498 12.4565 17.2438 12.4565 17.6059V17.7248ZM11.6505 17.2205C11.6349 17.017 11.5937 16.8713 11.5268 16.7834C11.46 16.6955 11.372 16.6515 11.263 16.6515C11.1371 16.6515 11.0365 16.7179 10.9612 16.8506C10.9132 16.9334 10.8827 17.0567 10.8697 17.2205H11.6505ZM12.8323 16.0902H13.5742V16.5403C13.6455 16.3454 13.7192 16.2114 13.7952 16.1381C13.8711 16.0648 13.9649 16.0282 14.0765 16.0282C14.1933 16.0282 14.3212 16.0765 14.4601 16.173L14.2147 16.9231C14.1213 16.8713 14.0473 16.8455 13.9928 16.8455C13.8889 16.8455 13.8085 16.9024 13.7513 17.0162C13.6696 17.1765 13.6287 17.4765 13.6287 17.9162V18.8369H12.8323V16.0902ZM16.5454 17.2877L17.3184 17.5981C17.2665 17.886 17.1847 18.1266 17.0731 18.3197C16.9614 18.5128 16.8228 18.6585 16.6574 18.7568C16.4918 18.855 16.2812 18.9042 16.0255 18.9042C15.7153 18.9042 15.4618 18.8443 15.2652 18.7244C15.0685 18.6046 14.8988 18.3938 14.756 18.0921C14.6132 17.7903 14.5419 17.4041 14.5419 16.9334C14.5419 16.3058 14.6674 15.8234 14.9186 15.4863C15.1698 15.1493 15.5251 14.9807 15.9846 14.9807C16.3442 14.9807 16.6268 15.0773 16.8326 15.2704C17.0383 15.4635 17.1912 15.7601 17.2911 16.1601L16.5123 16.3903C16.485 16.2748 16.4565 16.1903 16.4266 16.1368C16.3773 16.0472 16.3169 15.9782 16.2455 15.9299C16.1741 15.8816 16.0943 15.8575 16.0061 15.8575C15.8062 15.8575 15.653 15.9644 15.5465 16.1782C15.4661 16.3368 15.4258 16.586 15.4258 16.9256C15.4258 17.3464 15.4738 17.6347 15.5699 17.7908C15.666 17.9468 15.801 18.0248 15.9749 18.0248C16.1436 18.0248 16.2712 17.9619 16.3575 17.836C16.4438 17.7102 16.5064 17.5274 16.5454 17.2877ZM18.4146 16.98L17.6572 16.8739C17.6857 16.698 17.7269 16.5597 17.7808 16.4588C17.8347 16.3579 17.9122 16.2704 18.0135 16.1963C18.0862 16.1428 18.1861 16.1015 18.3133 16.0722C18.4405 16.0428 18.5781 16.0282 18.7261 16.0282C18.9637 16.0282 19.1545 16.0458 19.2985 16.0812C19.4426 16.1165 19.5627 16.1902 19.6588 16.3023C19.7263 16.3799 19.7795 16.4898 19.8184 16.6321C19.8574 16.7743 19.8768 16.9101 19.8768 17.0394V18.2524C19.8768 18.3817 19.883 18.483 19.8953 18.5563C19.9077 18.6296 19.9346 18.7231 19.9761 18.8369H19.2323C19.2025 18.7662 19.183 18.7123 19.1739 18.6753C19.1649 18.6382 19.1558 18.58 19.1467 18.5007C19.0428 18.6335 18.9396 18.7283 18.8371 18.7852C18.6969 18.861 18.534 18.899 18.3484 18.899C18.1017 18.899 17.9145 18.8231 17.7866 18.6714C17.6588 18.5197 17.5948 18.3326 17.5948 18.1101C17.5948 17.9015 17.6409 17.73 17.7331 17.5955C17.8252 17.461 17.9953 17.361 18.2432 17.2954C18.5405 17.2161 18.7332 17.1605 18.8215 17.1286C18.9098 17.0967 19.0032 17.0549 19.1019 17.0032C19.1019 16.8739 19.0818 16.7834 19.0415 16.7316C19.0013 16.6799 18.9305 16.654 18.8293 16.654C18.6995 16.654 18.6021 16.6817 18.5372 16.7368C18.4866 16.7799 18.4457 16.861 18.4146 16.9799L18.4146 16.98ZM19.1019 17.5334C18.9929 17.5851 18.8793 17.6308 18.7612 17.6705C18.6002 17.7274 18.4983 17.7834 18.4555 17.8386C18.4113 17.8955 18.3893 17.9602 18.3893 18.0326C18.3893 18.1154 18.411 18.183 18.4545 18.2356C18.498 18.2882 18.5619 18.3145 18.6463 18.3145C18.7345 18.3145 18.8166 18.2861 18.8926 18.2292C18.9685 18.1723 19.0224 18.1029 19.0542 18.0209C19.086 17.9391 19.1019 17.8326 19.1019 17.7015V17.5334ZM20.3636 16.0902H21.1054V16.5403C21.1768 16.3454 21.2505 16.2114 21.3264 16.1381C21.4024 16.0648 21.4961 16.0282 21.6078 16.0282C21.7246 16.0282 21.8525 16.0765 21.9914 16.173L21.746 16.9231C21.6526 16.8713 21.5786 16.8455 21.5241 16.8455C21.4202 16.8455 21.3397 16.9024 21.2826 17.0162C21.2008 17.1765 21.16 17.4765 21.16 17.9162V18.8369H20.3636V16.0902ZM24.3006 15.0454V18.8369H23.5587V18.4309C23.4549 18.6033 23.3601 18.7197 23.2745 18.78C23.1602 18.8594 23.033 18.899 22.8928 18.899C22.6112 18.899 22.396 18.7568 22.2474 18.4723C22.0988 18.1878 22.0245 17.8421 22.0245 17.4351C22.0245 16.98 22.1066 16.6317 22.2708 16.3903C22.435 16.1489 22.6436 16.0282 22.8967 16.0282C23.0201 16.0282 23.132 16.0558 23.2326 16.1109C23.3332 16.1661 23.4225 16.2489 23.5003 16.3592V15.0454H24.3006ZM23.5062 17.4558C23.5062 17.2403 23.4718 17.0795 23.403 16.9735C23.3342 16.8675 23.2472 16.8144 23.1421 16.8144C23.0499 16.8144 22.9727 16.8653 22.9104 16.967C22.8481 17.0688 22.8169 17.2394 22.8169 17.4791C22.8169 17.7033 22.849 17.8675 22.9133 17.9718C22.9775 18.0761 23.057 18.1283 23.1518 18.1283C23.2531 18.1283 23.3374 18.0757 23.4049 17.9705C23.4724 17.8653 23.5062 17.6938 23.5062 17.4558Z" fill="#8DA5B5"/>
</g>
<defs>
<clipPath id="clip0_74:1329">
<rect width="24" height="21" fill="white"/>
</clipPath>
</defs>
</svg>
