<svg width="25" height="9" viewBox="0 0 25 9" fill="none" xmlns="http://www.w3.org/2000/svg">
<path d="M21.9492 2.94995C21.9423 2.82178 21.9601 2.69347 22.0015 2.57288C22.0429 2.45229 22.107 2.34195 22.1898 2.24862C22.2727 2.1553 22.3726 2.08095 22.4835 2.03014C22.5943 1.97933 22.7138 1.95312 22.8345 1.95312C22.9552 1.95312 23.0746 1.97933 23.1855 2.03014C23.2963 2.08095 23.3962 2.1553 23.4791 2.24862C23.562 2.34195 23.6261 2.45229 23.6675 2.57288C23.7089 2.69347 23.7267 2.82178 23.7198 2.94995C23.7267 3.07811 23.7089 3.20642 23.6675 3.32702C23.6261 3.44761 23.562 3.55795 23.4791 3.65127C23.3962 3.7446 23.2963 3.81894 23.1855 3.86976C23.0746 3.92057 22.9552 3.94678 22.8345 3.94678C22.7138 3.94678 22.5943 3.92057 22.4835 3.86976C22.3726 3.81894 22.2727 3.7446 22.1898 3.65127C22.107 3.55795 22.0429 3.44761 22.0015 3.32702C21.9601 3.20642 21.9423 3.07811 21.9492 2.94995ZM22.8354 3.71017C23.0196 3.70412 23.1941 3.62078 23.3208 3.47835C23.4475 3.33591 23.5161 3.14595 23.5115 2.94995C23.5162 2.85247 23.5021 2.755 23.4702 2.66347C23.4383 2.57194 23.3893 2.48827 23.3261 2.41752C23.2628 2.34678 23.1867 2.29046 23.1024 2.25197C23.018 2.21348 22.9272 2.19363 22.8354 2.19363C22.7437 2.19363 22.6528 2.21348 22.5685 2.25197C22.4842 2.29046 22.4081 2.34678 22.3448 2.41752C22.2816 2.48827 22.2325 2.57194 22.2007 2.66347C22.1688 2.755 22.1547 2.85247 22.1594 2.94995C22.1549 3.14591 22.2235 3.3358 22.3501 3.47824C22.4767 3.62067 22.6511 3.70391 22.8354 3.71017Z" fill="#B1B4C7"/>
<path d="M15.716 0.199702L15.5968 1.03007C15.3993 0.902578 15.1739 0.832083 14.9429 0.825548C14.3998 0.825548 14.016 1.4156 14.016 2.25722C14.016 2.8391 14.2735 3.18965 14.6975 3.18965C14.9161 3.17865 15.1289 3.11089 15.3172 2.99228L15.1912 3.86581C14.983 3.9377 14.7657 3.97536 14.5468 3.97748C13.7604 3.97748 13.271 3.34345 13.271 2.32533C13.271 0.956444 13.9468 0.000289695 14.9139 0.000289695C15.0241 -0.00221659 15.1341 0.0115496 15.2408 0.0411947L15.5414 0.125459C15.6308 0.16391 15.651 0.169432 15.716 0.199702Z" fill="#B1B4C7"/>
<path d="M13.2962 0.768894C13.2716 0.763722 13.2466 0.761052 13.2215 0.760918C12.9812 0.760918 12.8454 0.86318 12.6223 1.23398L12.6871 0.727376H12.0269L11.5784 3.92655H12.3113C12.5735 2.09851 12.6404 1.68578 12.9917 1.68578C13.0094 1.68346 13.0272 1.68291 13.045 1.68414C13.0932 1.36939 13.1862 1.06427 13.3208 0.779325L13.2962 0.768894Z" fill="#B1B4C7"/>
<path d="M8.92956 3.8697C8.76179 3.93488 8.58488 3.96946 8.40628 3.97196C8.03416 3.97196 7.8307 3.72939 7.8307 3.28721C7.83074 3.19378 7.83768 3.10051 7.85147 3.00824L7.89666 2.70472L7.93012 2.42555L8.24705 0.270467H8.97206L8.88898 0.72758H9.26206L9.15956 1.6416H8.78706L8.59475 2.89575C8.58898 2.93102 8.58493 2.96659 8.58263 3.00231C8.58263 3.16163 8.65956 3.22156 8.8311 3.22156C8.89792 3.22284 8.96439 3.21113 9.02725 3.18699L8.92956 3.8697Z" fill="#B1B4C7"/>
<path d="M6.05471 1.77904C6.05471 2.17194 6.22413 2.44354 6.60741 2.64664C6.90107 2.80269 6.94761 2.8483 6.94761 2.99003C6.94761 3.18331 6.81722 3.27289 6.53029 3.27289C6.30776 3.27179 6.08711 3.22957 5.87817 3.14813L5.7772 3.86622L5.81009 3.87379L5.94471 3.90406C5.98778 3.91387 6.05125 3.92246 6.1349 3.93228C6.30798 3.94967 6.4426 3.95785 6.53645 3.95785C7.30165 3.95785 7.6555 3.62754 7.6555 2.91845C7.6696 2.73453 7.62726 2.5507 7.53482 2.39454C7.44238 2.23838 7.30484 2.11829 7.1428 2.05229C6.83857 1.89726 6.80414 1.86085 6.80414 1.71625C6.80414 1.54752 6.92491 1.4608 7.15915 1.4608C7.33383 1.464 7.50812 1.47944 7.68089 1.50702L7.78493 0.788324C7.57329 0.751767 7.35948 0.731263 7.14511 0.726967C6.33298 0.726762 6.05163 1.20433 6.05471 1.77904Z" fill="#B1B4C7"/>
<path d="M21.5257 3.92655H20.8357L20.8717 3.612C20.7918 3.72018 20.6895 3.80727 20.5727 3.86648C20.4559 3.92569 20.3279 3.95542 20.1986 3.95335C19.6651 3.95335 19.3159 3.43713 19.3159 2.6587C19.3159 1.6234 19.859 0.748033 20.5038 0.748033C20.6436 0.744957 20.7818 0.780872 20.9045 0.852204C21.0273 0.923537 21.1303 1.0278 21.2034 1.15463L21.3609 0.0418083H22.08L21.5257 3.92655ZM20.4494 3.17472C20.7901 3.17472 21.0284 2.74215 21.0284 2.12592C21.0284 1.73016 20.8924 1.5148 20.6405 1.5148C20.3099 1.5148 20.0751 1.94921 20.0751 2.56176C20.0751 2.9702 20.2013 3.17472 20.4494 3.17472Z" fill="#B1B4C7"/>
<path d="M11.2398 3.84209C10.9976 3.92573 10.7444 3.96791 10.4898 3.96705C9.67649 3.96705 9.25168 3.48867 9.25168 2.57362C9.25168 1.50396 9.79226 0.716536 10.5269 0.716536C11.1261 0.716536 11.5111 1.24114 11.5111 1.93285C11.5018 2.21868 11.4715 2.50329 11.4204 2.78408H9.97054C9.96438 2.78408 9.96342 2.76976 9.96342 2.79717C9.96342 3.16102 10.1803 3.30255 10.6048 3.30255C10.8697 3.29455 11.1291 3.21953 11.3613 3.08371L11.2398 3.84209ZM10.8306 1.98868C10.8346 1.92364 10.8356 1.87047 10.8356 1.8312C10.8425 1.77954 10.8386 1.7269 10.8241 1.67704C10.8097 1.62719 10.785 1.58135 10.7519 1.54283C10.7188 1.50432 10.6781 1.47407 10.6327 1.45426C10.5873 1.43446 10.5384 1.42558 10.4894 1.42828C10.2586 1.42828 10.0925 1.62667 10.0244 1.98664L10.8306 1.98868Z" fill="#B1B4C7"/>
<path d="M3.12659 3.92655H2.39792L2.81524 0.984873L1.88291 3.92655H1.38291L1.32252 1.00185L0.882898 3.92655H0.200965L0.770204 0.0418083H1.82022L1.84907 2.41062L2.55869 0.0418083H3.6914L3.12659 3.92655Z" fill="#B1B4C7"/>
<path d="M5.00412 2.52085C4.95003 2.51254 4.89549 2.5081 4.84084 2.50756C4.42757 2.50756 4.21814 2.66832 4.21814 2.98267C4.2132 3.02232 4.2163 3.06264 4.22722 3.10092C4.23814 3.13919 4.25664 3.17454 4.28147 3.20459C4.30629 3.23463 4.33688 3.25868 4.37117 3.27512C4.40545 3.29156 4.44265 3.3 4.48026 3.29989C4.777 3.30009 4.992 2.98267 5.00412 2.52085ZM5.53451 3.92655H4.93065L4.94392 3.59379C4.85556 3.71852 4.7394 3.81789 4.60592 3.88294C4.47243 3.948 4.32581 3.97669 4.1793 3.96644C3.78275 3.96644 3.51198 3.61711 3.51198 3.11582C3.51198 2.3558 3.98506 1.91342 4.79373 1.91342C4.89294 1.91376 4.99202 1.92128 5.09027 1.93591C5.1079 1.87006 5.11759 1.80209 5.11912 1.73364C5.11912 1.52809 4.99238 1.44976 4.65065 1.44976C4.44573 1.44903 4.24174 1.47898 4.04468 1.53873L3.94333 1.57022L3.87948 1.59068L3.97987 0.892427C4.26075 0.786527 4.55595 0.729885 4.85392 0.724717C5.48066 0.724717 5.81278 1.04091 5.81278 1.63751C5.80888 1.84483 5.78868 2.05144 5.7524 2.25518L5.5997 3.35818L5.57489 3.55739L5.55566 3.7161L5.54297 3.83411L5.53451 3.92655Z" fill="#B1B4C7"/>
<path d="M16.973 2.52085C16.9192 2.51254 16.865 2.5081 16.8106 2.50756C16.3958 2.50756 16.186 2.66832 16.186 2.98267C16.1812 3.02239 16.1844 3.06274 16.1954 3.10103C16.2065 3.13932 16.225 3.17466 16.25 3.20469C16.2749 3.23472 16.3055 3.25875 16.3399 3.27517C16.3742 3.29159 16.4114 3.30002 16.4491 3.29989C16.7474 3.30009 16.9599 2.98267 16.973 2.52085ZM17.5037 3.92655H16.8993L16.9135 3.59379C16.8251 3.71837 16.709 3.81765 16.5756 3.88269C16.4422 3.94773 16.2957 3.97651 16.1493 3.96644C15.7527 3.96644 15.481 3.61711 15.481 3.11582C15.481 2.3558 15.9535 1.91342 16.7637 1.91342C16.8629 1.91376 16.962 1.92128 17.0603 1.93591C17.0776 1.87 17.0873 1.80207 17.0891 1.73364C17.0891 1.52809 16.9624 1.44976 16.6206 1.44976C16.4157 1.44873 16.2117 1.47868 16.0147 1.53873L15.9108 1.57022L15.8479 1.59068L15.9493 0.892427C16.2296 0.786769 16.5241 0.730131 16.8214 0.724717C17.4491 0.724717 17.7812 1.04091 17.7812 1.63751C17.7763 1.84473 17.7563 2.05123 17.7214 2.25518L17.5676 3.35818L17.5447 3.55739L17.5245 3.7161L17.5112 3.83411L17.5037 3.92655Z" fill="#B1B4C7"/>
<path d="M19.5411 0.768894C19.5169 0.763589 19.4923 0.760916 19.4676 0.760918C19.2284 0.760918 19.0914 0.86318 18.8672 1.23398L18.932 0.727376H18.2724L17.8268 3.92655H18.5576C18.8191 2.09851 18.888 1.68598 19.2368 1.68598C19.2597 1.68598 19.2582 1.67903 19.288 1.68435C19.337 1.36952 19.4307 1.06443 19.5659 0.77953L19.5411 0.768894Z" fill="#B1B4C7"/>
<path d="M17.0876 7.00281C17.0876 7.73726 16.8749 8.16983 16.5399 8.16983C16.2951 8.17781 16.1468 7.88636 16.1468 7.45011C16.1468 6.9345 16.3637 6.35017 16.7114 6.35017C16.991 6.34997 17.0876 6.66658 17.0876 7.00281ZM17.8341 7.01631C17.8341 6.19985 17.4568 5.56419 16.7478 5.56419C15.9314 5.56419 15.4027 6.33668 15.4027 7.47424C15.4027 8.28846 15.715 8.95439 16.4881 8.95439C17.2682 8.955 17.8337 8.36454 17.8337 7.01631H17.8341Z" fill="#B1B4C7"/>
<path d="M15.6468 4.99172L15.5314 5.85482C15.3423 5.72274 15.1228 5.64819 14.8968 5.63925C14.3666 5.63925 13.996 6.25609 13.996 7.13228C13.996 7.73747 14.2441 8.10357 14.6571 8.10357C14.8715 8.09222 15.0793 8.02174 15.2602 7.89904L15.1373 8.80754C14.9352 8.88225 14.7229 8.92149 14.5089 8.92371C13.7448 8.92371 13.2689 8.2633 13.2689 7.20386C13.2689 5.77812 13.9258 4.7831 14.8666 4.7831C14.9741 4.78217 15.0813 4.79661 15.1852 4.82606L15.4754 4.914C15.5649 4.95184 15.5833 4.95859 15.6468 4.99172Z" fill="#B1B4C7"/>
<path d="M10.9534 5.58484C10.9296 5.5784 10.9051 5.57537 10.8806 5.57584C10.6498 5.57584 10.5152 5.78978 10.2996 6.17449L10.3625 5.7548H9.72015L9.28764 8.95398H9.99631C10.2511 7.12594 10.3186 6.57945 10.6584 6.57945C10.6777 6.57945 10.6805 6.55368 10.7102 6.55736C10.757 6.22737 10.8476 5.90613 10.9794 5.60325L10.9534 5.58484Z" fill="#B1B4C7"/>
<path d="M20.2109 8.95398H19.5413L19.5755 8.56886C19.4994 8.67595 19.3998 8.7616 19.2853 8.81832C19.1709 8.87505 19.0452 8.90112 18.9191 8.89426C18.4026 8.89426 18.0616 8.34204 18.0616 7.53151C18.0616 6.45591 18.5909 5.53494 19.2166 5.53494C19.4926 5.53494 19.702 5.78794 19.8957 6.09472L20.0518 5.06903H20.7494L20.2109 8.95398ZM19.163 8.05407C19.497 8.05407 19.727 7.60412 19.727 6.96232C19.727 6.54938 19.5957 6.32829 19.3518 6.32829C19.0295 6.32829 18.8005 6.77825 18.8005 7.4182C18.8005 7.84014 18.9234 8.05448 19.163 8.05448V8.05407Z" fill="#B1B4C7"/>
<path d="M4.30776 8.80284C4.07463 8.89057 3.82908 8.93519 3.58179 8.93476C2.79024 8.93476 2.37715 8.43572 2.37715 7.48386C2.37715 6.37226 2.90274 5.55191 3.61602 5.55191C4.20006 5.55191 4.57257 6.03684 4.57257 6.75677C4.57448 7.03476 4.54563 7.31203 4.48661 7.58285H3.07409C3.06985 7.8113 3.06832 7.62887 3.06832 7.65709C3.06832 8.03464 3.27986 8.21197 3.69102 8.21197C3.94931 8.20871 4.2026 8.13581 4.42718 8.00008L4.30776 8.80284ZM3.9116 6.8756C3.91468 6.80708 3.91679 6.75288 3.91679 6.71096C3.91679 6.44692 3.79217 6.29229 3.58179 6.29229C3.35544 6.29229 3.19447 6.5003 3.12966 6.87212L3.9116 6.8756Z" fill="#B1B4C7"/>
<path d="M12.7381 8.80284C12.5048 8.89044 12.2593 8.93506 12.0119 8.93476C11.2188 8.93476 10.8063 8.43572 10.8063 7.48386C10.8063 6.37226 11.3325 5.55191 12.0452 5.55191C12.6294 5.55191 13.0031 6.03684 13.0031 6.75677C13.005 7.03496 12.975 7.31236 12.9139 7.58285H11.5044C11.5002 7.8113 11.4975 7.62887 11.4975 7.65709C11.4975 8.03464 11.709 8.21197 12.1198 8.21197C12.3782 8.20869 12.6316 8.13579 12.8564 8.00008L12.7381 8.80284ZM12.34 6.8756C12.3448 6.80708 12.3473 6.75288 12.3473 6.71096C12.3473 6.44692 12.2217 6.29229 12.0121 6.29229C11.7858 6.29229 11.6248 6.5003 11.5594 6.87212L12.34 6.8756Z" fill="#B1B4C7"/>
<path d="M22.6292 8.80284C22.3953 8.89035 22.1491 8.93496 21.9011 8.93476C21.1096 8.93476 20.6955 8.43572 20.6955 7.48386C20.6955 6.37226 21.2226 5.55191 21.9355 5.55191C22.5196 5.55191 22.8917 6.03684 22.8917 6.75677C22.8943 7.03487 22.865 7.31226 22.8046 7.58285H21.3936C21.3888 7.8113 21.3878 7.62887 21.3878 7.65709C21.3878 8.03464 21.5994 8.21197 22.0105 8.21197C22.2689 8.20869 22.5224 8.13579 22.7471 8.00008L22.6292 8.80284ZM22.2302 6.8756C22.2332 6.80708 22.2353 6.75288 22.2353 6.71096C22.2353 6.44692 22.1113 6.29229 21.9003 6.29229C21.674 6.29229 21.5136 6.5003 21.4482 6.87212L22.2302 6.8756Z" fill="#B1B4C7"/>
<path d="M2.20984 5.73149C2.03519 5.6061 1.8284 5.5411 1.61772 5.54537C1.33117 5.54537 1.10059 5.60898 1.10059 5.93397C1.10059 6.50929 2.14542 6.29454 2.14542 7.52701C2.14542 8.64965 1.45579 8.94069 0.832128 8.94069C0.544563 8.9296 0.261841 8.85858 0 8.73166L0.169426 7.90661C0.360514 8.059 0.593288 8.14061 0.832128 8.13895C1.0554 8.13895 1.40521 8.07391 1.40521 7.65729C1.40521 7.00527 0.360967 7.24824 0.360967 6.1029C0.360967 5.05594 0.970976 4.7422 1.55925 4.7422C1.84467 4.72285 2.12971 4.78558 2.38446 4.92382L2.20984 5.73149Z" fill="#B1B4C7"/>
<path d="M6.38318 8.80161C6.18505 8.89369 5.96975 8.93637 5.75374 8.92637C5.13431 8.92637 4.75007 8.26453 4.75007 7.4585C4.75007 6.40356 5.30566 5.56235 6.12356 5.56235C6.35824 5.57734 6.58626 5.65121 6.78895 5.77791L6.63222 6.55143C6.49405 6.44499 6.32941 6.3843 6.15894 6.37697C5.78009 6.37697 5.50932 6.74818 5.50932 7.4135C5.50932 7.79637 5.70566 8.11073 6.01586 8.11073C6.18325 8.1143 6.3479 8.06521 6.48914 7.9696L6.38318 8.80161Z" fill="#B1B4C7"/>
<path d="M9.03398 8.12136C8.99764 8.40013 8.96379 8.72553 8.94379 8.95398H8.26224L8.31994 8.49687H8.31224C8.09859 8.72532 7.87743 9 7.49127 9C7.0628 9 6.83068 8.47089 6.83068 7.84157C6.83255 7.62919 6.85186 7.41738 6.88838 7.20857L7.08069 5.7546H7.83993L7.63723 7.19016C7.61028 7.34008 7.5937 7.49191 7.58762 7.64441C7.58762 7.834 7.66839 8.00846 7.87301 7.99681C8.18436 7.99681 8.36801 7.65054 8.42013 7.17543L8.62956 5.75542H9.36457L9.03398 8.12136Z" fill="#B1B4C7"/>
<path d="M23.9625 8.15122H23.7073L23.584 8.91348H23.3775L23.5015 8.15122H23.2515L23.2806 7.97697H23.9921L23.9625 8.15122Z" fill="#B1B4C7"/>
<path d="M24.3484 7.97697L24.4321 8.62654L24.7258 7.97697H25L24.8485 8.91348H24.6413L24.6786 8.6838L24.7675 8.26044L24.4598 8.91348H24.3236L24.2242 8.23589L24.1688 8.7063L24.1346 8.9141H23.9288L24.0804 7.97758H24.3475L24.3484 7.97697Z" fill="#B1B4C7"/>
<path d="M22.8598 3.14916H22.7111V3.50319H22.525V2.53681H22.8609C22.9492 2.53066 23.0367 2.55766 23.1082 2.6131C23.1375 2.63949 23.1605 2.67273 23.1757 2.7102C23.1908 2.74767 23.1975 2.78836 23.1954 2.82907C23.1974 2.88709 23.1834 2.94446 23.1552 2.99413C23.1252 3.04107 23.0831 3.07768 23.0338 3.09946L23.2294 3.4948V3.50401H23.029L22.8598 3.14916ZM22.7113 2.98779H22.8619C22.9014 2.99037 22.9403 2.97667 22.9705 2.94954C22.9836 2.93591 22.9938 2.9195 23.0004 2.90137C23.007 2.88325 23.01 2.86383 23.009 2.84441C23.01 2.82481 23.0073 2.80519 23.0011 2.78671C22.9948 2.76824 22.9852 2.75128 22.9727 2.73683C22.9575 2.72267 22.9397 2.71189 22.9205 2.70514C22.9013 2.6984 22.8811 2.69582 22.8609 2.69756H22.7111L22.7113 2.98779Z" fill="#B1B4C7"/>
</svg>
