<svg width="21" height="10" viewBox="0 0 21 10" fill="none" xmlns="http://www.w3.org/2000/svg">
<path d="M0 10H7.21312V4.93341H0V10ZM2.55162 7.07006L3.23166 7.74754L4.80681 6.17834L5.31248 6.68211L3.23166 8.75507L2.04595 7.57383L2.55162 7.07006ZM2.12732 2.68674C2.12732 1.87609 2.78993 1.21598 3.60947 1.21598C4.42319 1.21598 5.0858 1.87609 5.0858 2.68674V4.20961H6.30639V2.68674C6.30058 1.2044 5.09161 0 3.60947 0C2.12151 0 0.912538 1.2044 0.912538 2.68674V4.20961H2.13313V2.68674H2.12732ZM13.1243 4.49334C13.1243 3.76375 12.6942 3.34684 12.0141 3.09207L11.3864 2.82571C10.8865 2.64621 10.5378 2.52461 10.5378 2.21772C10.5378 1.91662 10.7993 1.7487 11.1888 1.7487C11.6944 1.7487 12.0199 1.89925 12.3803 2.15981L12.9732 1.42444C12.5024 0.984366 11.8804 0.74696 11.2527 0.74696C10.1367 0.74696 9.35787 1.42444 9.35787 2.28141C9.35787 3.03416 9.88099 3.47423 10.4622 3.68848L11.1306 3.97221C11.6247 4.17487 11.9327 4.27331 11.9327 4.6381C11.9327 4.89867 11.7002 5.08975 11.2062 5.08975C10.7063 5.08975 10.2239 4.86972 9.83449 4.55125L9.16026 5.35032C9.71243 5.8425 10.4273 6.09149 11.1248 6.09149C12.4035 6.09149 13.1243 5.34453 13.1243 4.49334ZM15.9781 3.09207L15.3504 2.82571C14.8505 2.64621 14.5018 2.52461 14.5018 2.21772C14.5018 1.91662 14.7634 1.7487 15.1528 1.7487C15.6585 1.7487 15.9839 1.89925 16.3443 2.15981L16.9372 1.42444C16.4664 0.984366 15.8444 0.74696 15.2167 0.74696C14.1007 0.74696 13.3219 1.42444 13.3219 2.28141C13.3219 3.03416 13.845 3.47423 14.4262 3.68848L15.0947 3.97221C15.5887 4.17487 15.8968 4.27331 15.8968 4.6381C15.8968 4.89867 15.6643 5.08975 15.1702 5.08975C14.6704 5.08975 14.1879 4.86972 13.7985 4.55125L13.1243 5.35032C13.6764 5.8425 14.3914 6.09149 15.0888 6.09149C16.3734 6.09149 17.0941 5.35032 17.0941 4.49334C17.0883 3.76375 16.664 3.34684 15.9781 3.09207Z" fill="#B1B4C7"/>
<path d="M18.6983 5.01448V0.839606H17.5358V5.99305H21V5.01448H18.6983Z" fill="#B1B4C7"/>
<path d="M10.2588 7.82281L9.94492 7.68964C9.75311 7.60857 9.54387 7.5333 9.54387 7.31905C9.54387 7.11639 9.71824 6.99479 9.9798 6.99479C10.2123 6.99479 10.3808 7.07585 10.532 7.20324L10.6831 7.01795C10.5203 6.85582 10.2762 6.74001 9.99142 6.74001C9.56712 6.74001 9.25906 6.989 9.25906 7.33063C9.25906 7.65489 9.52062 7.81702 9.74149 7.90388L10.0612 8.04285C10.2878 8.14129 10.4622 8.21077 10.4622 8.44818C10.4622 8.65663 10.282 8.80139 9.97398 8.80139C9.71824 8.80139 9.48575 8.69137 9.31719 8.52345L9.14863 8.72033C9.35206 8.92299 9.63105 9.05038 9.96236 9.05038C10.4564 9.05038 10.7528 8.76665 10.7528 8.41343C10.7528 8.08338 10.532 7.93283 10.2588 7.82281Z" fill="#B1B4C7"/>
<path d="M11.6421 7.96178H12.5721V7.71859H11.6421V7.01795H12.7407V6.78054H11.3573V9.00984H12.7755V8.76665H11.6421V7.96178Z" fill="#B1B4C7"/>
<path d="M14.2344 8.80139C13.8043 8.80139 13.5253 8.44818 13.5253 7.88651C13.5253 7.33063 13.8043 6.98321 14.2344 6.98321C14.4204 6.98321 14.5715 7.06427 14.682 7.18587L14.8447 7.00637C14.7169 6.86161 14.5018 6.73422 14.2344 6.73422C13.6532 6.73422 13.2289 7.17429 13.2289 7.8923C13.2289 8.62189 13.6532 9.05038 14.2054 9.05038C14.5018 9.05038 14.7227 8.92878 14.897 8.72612L14.7343 8.5524C14.6006 8.71453 14.4437 8.80139 14.2344 8.80139ZM16.5594 8.17603C16.5594 8.63926 16.3559 8.80718 16.0828 8.80718C15.8154 8.80718 15.612 8.63926 15.612 8.17603V6.78054H15.3272V8.17024C15.3272 8.80718 15.6468 9.05617 16.0828 9.05617C16.5187 9.05617 16.8326 8.81297 16.8326 8.17024V6.78054H16.5536V8.17603H16.5594ZM18.925 7.40591C18.925 6.94268 18.5995 6.78054 18.1461 6.78054H17.4487V9.00984H17.7335V8.06601H18.1345L18.6751 9.00984H19.0006L18.4309 8.03706C18.7216 7.96178 18.925 7.75333 18.925 7.40591ZM18.0996 7.8344H17.7276V7.00637H18.0996C18.4484 7.00637 18.6402 7.1106 18.6402 7.40591C18.6402 7.69543 18.4484 7.8344 18.0996 7.8344Z" fill="#B1B4C7"/>
<path d="M19.8259 7.96178H20.7559V7.71859H19.8259V7.01795H20.9244V6.78054H19.5353V9.00984H20.9593V8.76665H19.8259V7.96178Z" fill="#B1B4C7"/>
</svg>
