<svg width="102" height="98" viewBox="0 0 102 98" fill="none" xmlns="http://www.w3.org/2000/svg">
<path d="M39.3002 5.91353C45.0902 -1.97117 56.9098 -1.97118 62.6998 5.91352L71.1836 17.4665C72.9725 19.9026 75.4833 21.7189 78.3629 22.6602L92.0195 27.124C101.34 30.1704 104.992 41.3632 99.2504 49.2827L90.8371 60.8866C89.0631 63.3334 88.104 66.2724 88.0948 69.2901L88.0513 83.6019C88.0216 93.3694 78.4593 100.287 69.1206 97.2967L55.437 92.9153C52.5518 91.9915 49.4482 91.9915 46.563 92.9153L32.8794 97.2967C23.5407 100.287 13.9784 93.3694 13.9487 83.6019L13.9052 69.2901C13.896 66.2724 12.9369 63.3334 11.1629 60.8866L2.74956 49.2827C-2.9924 41.3632 0.660045 30.1704 9.98044 27.124L23.6371 22.6602C26.5167 21.7189 29.0275 19.9026 30.8164 17.4665L39.3002 5.91353Z" fill="#99C9C6"/>
</svg>
