<svg width="342" height="341" viewBox="0 0 342 341" fill="none" xmlns="http://www.w3.org/2000/svg">
<path d="M128.163 75.1753C135.753 64.7945 151.247 64.7945 158.837 75.1753L169.959 90.3856C172.304 93.5928 175.595 95.9842 179.37 97.2234L197.273 103.1C209.491 107.111 214.279 121.847 206.752 132.274L195.723 147.551C193.397 150.773 192.14 154.642 192.128 158.615L192.071 177.458C192.032 190.317 179.497 199.425 167.254 195.488L149.317 189.719C145.534 188.503 141.466 188.503 137.683 189.719L119.746 195.488C107.503 199.425 94.968 190.317 94.929 177.458L94.872 158.615C94.8599 154.642 93.6027 150.773 91.2771 147.551L80.2479 132.274C72.7207 121.847 77.5088 107.111 89.727 103.1L107.63 97.2234C111.405 95.9842 114.696 93.5928 117.041 90.3856L128.163 75.1753Z" fill="#E8D7F3"/>
<g clip-path="url(#clip0_1050_14216)">
<path d="M265.296 208.555C264.353 205.078 262.28 198.958 261.447 196.523C261.677 195.558 261.644 194.242 261.074 192.444C260.032 189.208 235.388 113.051 217.457 93.6061L217.095 93.2223L216.623 92.992C215.998 92.6959 215.241 92.301 214.375 91.8514C210.789 89.9869 205.459 87.2232 200.282 86.1593C197.606 83.9878 196.904 83.4833 196.75 83.3736L195.577 82.584L194.261 83.0775C194.129 83.1214 181.44 87.7825 170.846 87.7825C160.251 87.7825 147.551 83.1214 147.419 83.0775L146.092 82.584L144.919 83.3736C144.765 83.4833 144.063 83.9768 141.387 86.1593C136.211 87.2232 130.859 89.9979 127.272 91.8733C126.417 92.323 125.671 92.7068 125.057 93.0029L124.585 93.2332L124.223 93.6171C106.347 112.996 81.6482 189.208 80.6063 192.444C80.025 194.242 80.0031 195.558 80.2334 196.523C79.3999 198.958 77.327 205.078 76.3839 208.555L76 209.958L76.9542 211.055C82.9423 218.008 100.556 219.873 102.552 220.07L104.745 220.279L105.425 218.184C106.862 213.72 108.814 208.379 109.681 206.833C109.955 206.679 110.218 206.504 110.437 206.306C111.655 205.319 112.379 203.904 112.499 203.63L118.257 187.925C117.884 198.147 117.479 209.289 117.479 210.463C117.479 212.327 118.202 213.687 119.047 214.587V228.8L121.361 229.162C141.464 232.332 163.026 232.584 169.168 232.584C170.166 232.584 170.747 232.584 170.857 232.584C170.966 232.584 171.537 232.584 172.546 232.584C178.698 232.584 200.238 232.343 220.352 229.162L222.666 228.8V214.587C223.5 213.687 224.224 212.327 224.224 210.474C224.224 209.3 223.818 198.158 223.445 187.936L229.093 203.4L229.203 203.663C229.334 203.937 230.058 205.33 231.21 206.262C231.462 206.482 231.736 206.668 232.021 206.822C232.877 208.357 234.829 213.709 236.277 218.184L236.957 220.279L239.15 220.07C241.135 219.884 258.771 218.008 264.748 211.055L265.702 209.947L265.318 208.544L265.296 208.555ZM170.846 93.2662C177.985 93.2662 185.728 91.4236 190.751 89.965C184.785 99.3311 176.834 101.47 170.846 101.47C160.92 101.47 154.702 95.5693 151.039 90.0089C156.051 91.4675 163.706 93.2662 170.846 93.2662ZM144.327 90.8424C145.094 90.2172 145.687 89.7347 146.18 89.3508C149.69 95.7009 157.257 105.319 170.846 105.319C178.402 105.319 188.602 102.468 195.544 89.3837C196.027 89.7676 196.619 90.2392 197.354 90.8533L197.694 91.1275C196.312 96.4686 190.872 109.377 170.846 109.377C150.819 109.377 145.379 96.4576 143.998 91.1166L144.338 90.8424H144.327ZM100.896 214.367C94.7103 213.545 85.9803 211.494 82.1198 208.445C83.0739 205.231 84.5655 200.801 85.3113 198.629C89.1608 201.053 96.0044 204.65 104.12 205.758C103.309 207.546 102.267 210.244 100.907 214.378L100.896 214.367ZM122.885 137.936C121.811 148.969 120.692 161.285 120.209 166.572L107.498 201.349C107.367 201.579 107.169 201.865 106.983 202.04C106.873 202.073 106.763 202.117 106.654 202.172C97.1121 201.437 88.9305 196.491 85.7609 194.33C85.7829 194.264 85.7938 194.209 85.8158 194.133C86.0571 193.387 108.924 122.801 125.858 100.252C127.7 106.8 130.025 120.805 123.017 137.388L122.907 137.662L122.874 137.958L122.885 137.936ZM217.172 224.106C194.667 227.396 171.131 227.1 170.879 227.1L170.835 229.842L170.791 227.1C170.549 227.1 147.003 227.396 124.498 224.106V214.685C130.376 215.892 144.557 218.041 170.824 218.041C197.09 218.041 211.271 215.892 217.15 214.685V224.106H217.172ZM170.846 214.214C140.016 214.214 125.934 211.154 122.951 210.397C122.973 208.269 123.883 183.648 124.377 170.772L124.87 157.853C125.397 152.172 126.044 145.174 126.691 138.594C134.851 119.039 131.012 103.126 128.972 97.1705C129.246 97.0279 129.521 96.8854 129.817 96.7318C132.208 95.4815 135.454 93.8145 138.733 92.63C140.323 98.4537 146.937 114.861 170.846 114.861C194.754 114.861 201.368 98.4647 202.958 92.63C206.226 93.8035 209.462 95.4706 211.842 96.7099C212.149 96.8744 212.445 97.017 212.719 97.1705C210.679 103.126 206.84 119.039 215 138.594C215.636 145.142 216.294 152.117 216.81 157.787L217.303 170.772C217.786 183.648 218.707 208.28 218.729 210.397C215.768 211.154 201.795 214.203 170.846 214.203V214.214ZM235.027 202.172C234.917 202.117 234.818 202.084 234.708 202.04C234.544 201.908 234.314 201.579 234.182 201.338L221.482 166.583C221.01 161.307 219.881 148.98 218.806 137.936L218.773 137.64L218.663 137.366C211.655 120.783 213.98 106.767 215.823 100.219C232.789 122.801 255.623 193.365 255.864 194.111C255.886 194.187 255.897 194.242 255.919 194.308C252.75 196.469 244.568 201.426 235.027 202.15V202.172ZM240.795 214.367C239.424 210.244 238.393 207.546 237.582 205.758C245.687 204.639 252.53 201.053 256.38 198.629C257.126 200.812 258.617 205.231 259.571 208.445C255.722 211.494 246.992 213.534 240.795 214.367Z" fill="#725193"/>
</g>
<defs>
<clipPath id="clip0_1050_14216">
<rect width="189.68" height="150" fill="white" transform="translate(76 82.584)"/>
</clipPath>
</defs>
</svg>
