<svg width="342" height="341" viewBox="0 0 342 341" fill="none" xmlns="http://www.w3.org/2000/svg">
<circle cx="139.333" cy="127.199" r="56" fill="#DAFCC0"/>
<path d="M101.333 94.199V135.863C101.333 174.458 132.738 205.863 171.333 205.863C209.928 205.863 241.333 174.458 241.333 135.863V94.199H101.333ZM235.733 126.041H214.979C212.784 126.041 210.723 125.189 209.178 123.633C207.632 122.076 206.77 120.015 206.77 117.831C206.77 113.306 210.455 109.621 214.979 109.621H235.733V126.041ZM106.933 109.621H128.023C132.547 109.621 136.232 113.306 136.232 117.831C136.232 120.026 135.381 122.087 133.824 123.644C132.29 125.189 130.229 126.041 128.023 126.041H106.933V109.621ZM159.674 199.188C158.397 198.953 157.131 198.684 155.877 198.381C155.888 197.967 155.911 197.553 155.911 197.127C155.911 174.122 137.195 155.407 114.191 155.407C112.802 155.407 111.413 155.485 110.035 155.62C109.655 154.421 109.285 153.223 108.971 152.002C110.831 151.767 112.712 151.644 114.594 151.644C139.48 151.644 159.73 171.893 159.73 196.78C159.741 197.586 159.719 198.393 159.674 199.188ZM111.424 159.439C112.343 159.372 113.272 159.327 114.202 159.327C135.045 159.327 152.002 176.284 152.002 197.127C152.002 197.183 152.002 197.239 152.002 197.295C133.443 191.437 118.514 177.404 111.424 159.439ZM163.56 199.781C163.616 198.796 163.661 197.799 163.661 196.78C163.661 169.732 141.653 147.724 114.605 147.724C112.432 147.724 110.259 147.869 108.12 148.149C107.347 144.173 106.933 140.063 106.933 135.863V129.961H128.023C131.271 129.961 134.328 128.695 136.602 126.41C138.898 124.114 140.152 121.068 140.152 117.831C140.152 111.145 134.709 105.701 128.023 105.701H106.933V99.799H235.733V105.701H214.979C208.293 105.701 202.85 111.145 202.85 117.831C202.85 121.068 204.115 124.114 206.4 126.399C208.685 128.695 211.731 129.961 214.979 129.961H235.733V135.863C235.733 140.063 235.319 144.173 234.546 148.149C232.407 147.869 230.234 147.724 228.061 147.724C201.013 147.724 179.005 169.732 179.005 196.78C179.005 197.788 179.039 198.796 179.106 199.781C176.552 200.095 173.965 200.263 171.333 200.263C168.701 200.263 166.114 200.084 163.56 199.781ZM182.925 196.78C182.925 171.893 203.175 151.644 228.061 151.644C229.943 151.644 231.824 151.767 233.683 152.002C233.37 153.223 233 154.433 232.619 155.62C231.242 155.485 229.853 155.407 228.464 155.407C205.459 155.407 186.744 174.122 186.744 197.127C186.744 197.553 186.767 197.967 186.778 198.381C185.523 198.695 184.258 198.953 182.981 199.188C182.947 198.393 182.925 197.586 182.925 196.78ZM190.675 197.295C190.675 197.239 190.675 197.183 190.675 197.127C190.675 176.284 207.632 159.327 228.475 159.327C229.405 159.327 230.335 159.372 231.253 159.439C224.152 177.404 209.223 191.437 190.675 197.295Z" fill="#725193"/>
</svg>
