<svg width="342" height="341" viewBox="0 0 342 341" fill="none" xmlns="http://www.w3.org/2000/svg">
<path d="M103.472 93.3625C103.455 79.487 118.482 70.8112 130.49 77.7633L208.308 122.816C220.292 129.753 220.281 147.058 208.289 153.982L130.579 198.848C118.587 205.771 103.596 197.128 103.579 183.281L103.472 93.3625Z" fill="#FFEEB1"/>
<path d="M221.635 117.5C221.646 117.361 221.657 117.222 221.657 117.072C221.657 116.387 221.507 115.724 221.218 115.092V114.943L220.736 114.247C219.891 113.006 218.446 111.925 216.36 110.94L219.848 91.6039L213.374 89.9025L218.511 60.4001L201.689 56.0235L191.822 84.2952L185.327 82.6045L177.547 105.344C177.184 105.344 176.83 105.344 176.467 105.344C165.787 105.344 155.621 106.179 147.67 107.687C147.531 107.516 147.392 107.334 147.253 107.174L143.422 102.444L143.198 102.208C143.187 102.198 142.288 101.288 141.389 98.2813L152.39 96.6226C154.53 101.706 157.933 104.274 162.545 104.274C163.219 104.274 163.914 104.22 164.631 104.113C170.271 103.268 172.925 99.7366 174.615 96.7617L176.937 92.674L172.443 94.0437C171.159 94.4396 170.485 94.14 170.089 93.8832C168.655 92.9629 168.013 90.3412 167.895 89.4637L163.326 59.0732C162.652 54.5574 157.473 52.7811 154.102 53.284C151.223 53.8084 149.137 54.9962 147.874 56.8153C147.178 57.8212 146.889 58.8271 146.761 59.6725L135.193 61.406C134.134 59.1588 131.801 56.6334 127.66 57.2541C122.395 58.0566 121.453 62.8292 121.699 65.3332L126.654 98.2491C126.697 98.5167 127.703 104.777 134.016 109.613L135.108 110.437C135.439 110.684 135.75 110.93 136.06 111.165C134.455 111.978 133.278 112.867 132.486 113.84L131.812 114.322L131.758 114.996C131.437 115.649 131.277 116.344 131.277 117.072C131.277 117.211 131.309 117.329 131.32 117.457C131.266 118.121 131.266 118.806 131.352 119.501L145.776 205.108C146.408 209.966 150.592 213.637 155.504 213.637H197.462C202.363 213.637 206.547 209.966 207.178 205.204L221.603 119.533C221.667 118.87 221.689 118.185 221.635 117.5ZM216.167 117.072C215.996 117.243 215.675 117.511 215.129 117.832L215.375 116.462C215.771 116.719 216.028 116.933 216.167 117.072ZM186.954 89.4423C190.891 92.4814 195.45 94.7286 200.298 95.9806C203.358 96.7724 206.515 97.1791 209.672 97.1791C211.491 97.1791 213.321 97.0293 215.118 96.7617L211.009 119.533C203.433 121.941 190.314 123.439 176.467 123.439C176.081 123.439 175.707 123.428 175.322 123.428L186.954 89.4423ZM211.748 93.3481C208.227 93.5622 204.664 93.2411 201.239 92.353C197.804 91.4648 194.54 90.0095 191.566 88.1047L201.539 90.6943L211.748 93.3481ZM204.086 60.5178L214.23 63.1503L209.736 88.9501L199.891 86.3926L195.461 85.2476L204.086 60.5178ZM171.384 123.375C165.145 123.214 159.142 122.754 153.877 122.027L153.395 119.448C153.321 118.945 152.86 116.173 150.924 112.546C157.986 111.379 166.643 110.737 175.728 110.705L171.384 123.375ZM139.698 89.0892L139.367 86.8741L150.314 85.2262L150.635 87.4413L139.698 89.0892ZM138.81 83.1716L138.585 81.6949L149.532 80.0469L149.757 81.5237L138.81 83.1716ZM138.029 77.9924L137.772 76.2695L148.719 74.6216L148.976 76.3444L138.029 77.9924ZM148.152 70.9298L137.205 72.5777L136.905 70.6088L147.852 68.9608L148.152 70.9298ZM140.554 94.6323C140.479 94.2149 140.405 93.7869 140.34 93.3374L140.255 92.7917L151.191 91.1438L151.469 92.9843L140.554 94.6323ZM154.712 56.9758C156.263 56.7404 159.313 57.5751 159.623 59.6297L164.193 89.9988C164.257 90.5017 164.91 95.0068 168.056 97.04C168.42 97.2754 168.88 97.5108 169.415 97.6927C168.173 99.0196 166.525 100.058 164.086 100.421C161.068 100.882 157.676 100.475 155.429 94.0972L150.442 60.9566C150.356 60.4001 150.239 57.7891 154.712 56.9758ZM147.028 63.4178L147.307 65.2583L136.36 66.9063L136.081 65.0657L147.028 63.4178ZM130.356 97.6927L125.413 64.841C125.37 64.1775 125.348 61.3953 128.216 60.9673C131.084 60.5392 131.94 63.161 132.111 63.8244L137.387 98.8912L137.665 98.8484C138.746 102.754 140.019 104.349 140.619 104.916L144.375 109.56C144.92 110.202 145.434 110.865 145.905 111.529C149.158 116.13 149.682 119.929 149.682 119.961L149.95 121.417C148.751 121.203 147.596 120.978 146.483 120.732C145.455 116.323 143.979 113.412 141.614 110.994C140.372 109.731 138.981 108.672 137.366 107.452L136.295 106.639C131.234 102.765 130.389 97.8853 130.356 97.6927ZM136.777 117.061C137.109 116.73 138.018 116.023 140.233 115.178C141.015 116.291 141.71 117.693 142.32 119.672C138.864 118.613 137.291 117.618 136.766 117.083C136.777 117.083 136.777 117.072 136.777 117.061ZM201.871 204.402C201.582 206.617 199.677 208.286 197.451 208.286H155.493C153.256 208.286 151.362 206.617 151.052 204.316L137.462 123.621C139.345 124.413 141.667 125.13 144.482 125.783C146.847 126.328 149.393 126.799 152.058 127.184C158.082 128.062 165.113 128.608 172.4 128.747C173.738 128.768 175.097 128.789 176.477 128.789C191.469 128.789 205.252 127.152 213.353 124.413C214.123 124.156 214.819 123.878 215.482 123.61L201.871 204.402Z" fill="#725193"/>
<g clip-path="url(#clip0_1050_14320)">
<path d="M184.486 146.199C181.666 146.199 179.516 147.669 177.636 149.219C177.636 149.219 177.636 149.219 177.626 149.219C176.756 149.219 175.846 148.699 174.786 148.099C173.306 147.249 171.456 146.199 168.956 146.199C163.916 146.199 159.746 150.319 159.666 155.379C159.636 157.559 160.596 162.359 161.996 167.059C162.996 170.409 165.046 176.399 167.546 178.939C168.436 179.839 169.366 180.299 170.316 180.299C171.016 180.299 171.646 180.009 172.146 179.459C172.486 179.089 172.766 178.589 172.996 177.939C173.366 176.929 173.596 175.639 173.836 174.279C174.456 170.779 175.066 168.109 176.716 168.099C178.366 168.109 178.976 170.779 179.596 174.279C179.836 175.639 180.066 176.929 180.436 177.939C180.676 178.589 180.946 179.089 181.286 179.459C181.776 179.999 182.406 180.289 183.096 180.299C183.106 180.299 183.106 180.299 183.116 180.299H183.126C184.066 180.289 184.996 179.829 185.876 178.939C188.376 176.399 190.426 170.409 191.426 167.059C192.826 162.359 193.786 157.559 193.756 155.379C193.716 152.929 192.736 150.629 190.976 148.899C189.246 147.169 186.936 146.209 184.486 146.199Z" fill="#725193"/>
</g>
<defs>
<clipPath id="clip0_1050_14320">
<rect width="34.11" height="34.1" fill="white" transform="translate(159.666 146.199)"/>
</clipPath>
</defs>
</svg>
