<svg width="342" height="341" viewBox="0 0 342 341" fill="none" xmlns="http://www.w3.org/2000/svg">
<path d="M86.8047 93.3625C86.7881 79.487 101.815 70.8112 113.823 77.7633L191.641 122.816C203.625 129.753 203.614 147.058 191.622 153.982L113.912 198.848C101.92 205.771 86.9288 197.128 86.9122 183.281L86.8047 93.3625Z" fill="#DAFCC0"/>
<path fill-rule="evenodd" clip-rule="evenodd" d="M241.78 145.849C242.19 146.689 242.42 147.719 242.42 148.669C242.45 162.029 242.45 175.379 242.45 188.739V197.659C242.45 204.679 237.13 210.159 230.07 210.409C229.83 210.419 229.6 210.419 229.37 210.419L170.27 210.409C146.88 210.409 130.96 210.419 114.14 210.469H114.1C106.08 210.469 101.09 205.019 100.24 199.569C100.21 199.529 100.19 199.499 100.17 199.459L100 199.209V147.709L104.22 139.129L104.221 139.128C107.78 131.898 111.34 124.669 114.87 117.429C116.81 113.459 119.99 111.439 124.34 111.439H124.5C125.425 111.454 125.853 111.462 126.28 111.465C126.708 111.469 127.135 111.469 128.06 111.469C129.64 111.469 131.22 111.469 132.8 111.459L137.85 111.449C137.84 111.419 137.83 111.389 137.82 111.369L137.7 111.069C131.92 97.5092 128.91 90.3592 128.76 75.6092C128.73 73.5092 128.86 73.2492 130.84 72.4692C136.76 70.1192 142.17 71.0192 146.91 75.2592C151.66 79.4992 156.52 79.5692 161.21 75.2592C167.16 69.8092 175.9 69.8792 181.79 75.4292C186.09 79.4792 191.36 79.4792 195.69 75.4292C200.29 71.1292 206.56 70.0592 212.22 72.5292C213.59 73.1292 214.11 73.9492 214.09 75.4592C213.94 87.4241 211.958 92.8282 208.136 103.25C207.885 103.933 207.627 104.639 207.36 105.369C207.23 105.749 207.09 106.119 206.94 106.489C206.39 107.979 205.8 109.459 205.17 110.939C205.157 110.971 205.144 111.002 205.131 111.033C205.074 111.169 205.019 111.302 204.97 111.449C206.23 111.449 214.54 111.469 214.54 111.469C215.727 111.469 216.162 111.465 216.765 111.46C217.147 111.457 217.597 111.453 218.35 111.449C222.75 111.449 225.9 113.409 227.79 117.289C229.838 121.484 231.895 125.67 233.953 129.855L233.96 129.869C236.57 135.189 239.18 140.519 241.78 145.849ZM146.97 128.269C146.85 128.059 146.73 127.849 146.6 127.639C146.105 126.775 145.609 125.911 145.113 125.047C143.514 122.263 141.915 119.478 140.35 116.669L134.71 116.679C132.88 116.689 131.04 116.689 129.21 116.689C127.52 116.689 126.959 116.684 125.835 116.672C125.462 116.669 125.028 116.664 124.47 116.659H124.37C122.08 116.659 120.59 117.619 119.54 119.769C116.59 125.849 113.61 131.919 110.62 137.989L106.92 145.509H235.8L233.26 140.329C229.76 133.169 226.25 126.019 222.71 118.879C222.01 117.469 220.75 116.709 219.09 116.699C218.608 116.696 218.19 116.692 217.813 116.689C216.077 116.676 215.208 116.669 212.99 116.669C210.77 116.669 207.728 116.68 205.056 116.69C204.153 116.693 203.293 116.697 202.52 116.699C200.46 120.329 198.44 123.979 196.35 127.759C196.3 127.849 196.253 127.937 196.205 128.024C196.158 128.112 196.11 128.199 196.06 128.289C195.965 128.459 195.872 128.627 195.78 128.794C195.688 128.962 195.595 129.129 195.5 129.299C195.967 129.299 196.43 129.295 196.892 129.292C197.925 129.283 198.947 129.275 199.97 129.309C201 129.339 201.66 129.919 201.63 130.969C201.62 131.959 200.96 132.449 200 132.529C199.75 132.551 199.494 132.547 199.241 132.542C199.14 132.541 199.04 132.539 198.94 132.539C197.21 132.539 195.48 132.54 193.751 132.541C190.295 132.544 186.84 132.546 183.38 132.539H143.8C143.766 132.539 143.731 132.539 143.697 132.539C143.249 132.54 142.787 132.541 142.36 132.429C141.21 132.129 140.74 130.759 141.56 129.949C141.95 129.569 142.63 129.349 143.19 129.319C144.158 129.256 145.136 129.267 146.184 129.279C146.619 129.284 147.066 129.289 147.53 129.289C147.415 129.077 147.331 128.924 147.265 128.801C147.194 128.669 147.142 128.573 147.09 128.479L146.97 128.269ZM105.3 197.119C105.3 197.889 105.39 198.659 105.57 199.349C106.48 202.949 109.58 205.189 113.66 205.189H228.88C234.25 205.189 237.46 201.999 237.46 196.659V150.899H105.29V153.059C105.29 156.729 105.289 160.399 105.289 164.069C105.287 175.083 105.285 186.101 105.3 197.119ZM145.61 78.4692C143.61 76.5892 141.44 75.4492 139.05 75.1092C137.99 74.9392 136.89 74.9392 135.74 75.1092C135.18 75.1792 134.6 75.2992 134.01 75.4492C132.95 75.7292 132.59 76.2192 132.62 77.3392C132.842 85.6748 133.994 89.1274 136.105 95.4515C136.565 96.828 137.069 98.3406 137.62 100.069C138.8 103.759 140.17 107.369 141.73 110.879C144.33 116.749 147.48 122.359 151.15 127.719C151.42 128.119 151.84 128.709 152.2 128.719C154.118 128.788 156.037 128.781 158.052 128.774C158.684 128.771 159.326 128.769 159.98 128.769C159.828 128.533 159.706 128.336 159.599 128.163C159.466 127.949 159.356 127.771 159.24 127.599C155.86 122.409 152.88 116.989 150.46 111.279L150.01 110.169H150.05C149.01 107.619 148.07 105.029 147.13 102.439C146.77 101.469 147.14 100.689 148.13 100.369C148.212 100.345 148.294 100.327 148.371 100.31C148.387 100.306 148.404 100.303 148.42 100.299C148.59 100.269 148.74 100.269 148.89 100.299C149.43 100.369 149.83 100.749 150.1 101.379C150.164 101.534 150.216 101.688 150.269 101.845C150.298 101.932 150.328 102.02 150.36 102.109C151.27 104.749 152.27 107.339 153.36 109.879C156.04 116.099 159.32 122.029 163.17 127.669C163.182 127.687 163.194 127.705 163.207 127.723C163.484 128.13 163.865 128.69 164.21 128.709C165.557 128.79 166.899 128.779 168.284 128.767C168.78 128.763 169.281 128.759 169.79 128.759V108.449H169.83V102.869C169.83 102.775 169.828 102.679 169.826 102.582C169.821 102.288 169.815 101.987 169.86 101.709C169.97 100.939 170.37 100.429 171.08 100.309C171.18 100.289 171.3 100.279 171.42 100.279C171.52 100.279 171.62 100.289 171.71 100.309C171.8 100.319 171.89 100.339 171.97 100.369C172.04 100.389 172.11 100.419 172.18 100.449C172.63 100.669 172.9 101.109 172.98 101.719C173.013 101.973 173.011 102.235 173.009 102.497C173.008 102.628 173.007 102.759 173.01 102.889V108.169V128.749C173.533 128.749 174.037 128.744 174.529 128.738C175.638 128.726 176.684 128.714 177.73 128.769C177.86 128.779 177.99 128.769 178.11 128.749C178.19 128.739 178.28 128.729 178.35 128.709C178.86 128.579 179.23 128.249 179.58 127.739C183.66 121.739 187.15 115.429 189.91 108.729C190.2 108.039 190.48 107.329 190.75 106.619L190.79 106.609C191.196 105.559 191.583 104.509 191.97 103.459C192.202 102.829 192.434 102.199 192.67 101.569C192.92 100.909 193.31 100.449 193.86 100.339C194.01 100.319 194.16 100.309 194.34 100.339C194.43 100.349 194.55 100.379 194.66 100.419C195.7 100.749 195.99 101.559 195.65 102.589C195.57 102.839 195.49 103.079 195.4 103.329C195.06 104.319 194.7 105.319 194.33 106.299C191.53 113.749 187.94 120.819 183.57 127.519C183.378 127.804 183.206 128.102 182.98 128.497C182.935 128.574 182.889 128.654 182.84 128.739C183.462 128.739 184.073 128.741 184.676 128.742C186.651 128.748 188.538 128.753 190.43 128.699C190.78 128.659 191.22 128.269 191.45 127.939C196.34 120.779 200.27 113.319 203.24 105.529H203.29C203.691 104.479 204.074 103.486 204.441 102.537C207.969 93.3984 209.899 88.398 210.18 77.1192C210.21 76.1592 209.88 75.7292 208.99 75.4792C208.35 75.3092 207.72 75.1692 207.11 75.0892C205.94 74.9192 204.81 74.9192 203.73 75.0792C203.14 75.1692 202.57 75.2992 202 75.4792C201.79 75.5492 201.58 75.6292 201.37 75.7092C199.93 76.2892 198.56 77.1892 197.26 78.3992C195.64 79.9392 193.81 80.9792 191.9 81.5392C191.63 81.6292 191.36 81.6992 191.08 81.7592C190.77 81.8292 190.45 81.8892 190.14 81.9392C188.99 82.1092 187.83 82.1092 186.69 81.9392C184.19 81.5792 181.77 80.4192 179.7 78.4792C177.64 76.5492 175.35 75.4092 173.02 75.0692C171.95 74.8992 170.88 74.9092 169.81 75.0692C169.15 75.1692 168.49 75.3292 167.84 75.5592C167.62 75.6392 167.41 75.7192 167.19 75.8092H167.18C166.64 76.0392 166.11 76.3092 165.58 76.6092C164.71 77.1292 163.86 77.7592 163.04 78.4992C161.76 79.6592 160.19 80.6992 158.58 81.2692C157.6 81.6192 156.64 81.8492 155.7 81.9692C154.57 82.1292 153.46 82.1192 152.38 81.9592C149.95 81.5892 147.68 80.4192 145.61 78.4692ZM143.36 165.459H199.48C201.38 165.459 201.84 165.909 201.84 167.779C201.847 172.412 201.845 177.044 201.843 181.68C201.841 183.999 201.84 186.318 201.84 188.639C201.84 190.529 201.39 190.979 199.51 190.979H143.4C141.41 190.979 140.97 190.559 140.97 188.609C140.96 181.699 140.96 174.789 140.97 167.879C140.97 165.899 141.41 165.459 143.36 165.459ZM144.7 187.559H198.12V168.939H144.7V187.559Z" fill="#725193"/>
</svg>
