<svg width="342" height="341" viewBox="0 0 342 341" fill="none" xmlns="http://www.w3.org/2000/svg">
<circle cx="192.333" cy="127.199" r="56" fill="#FFEEB1"/>
<path fill-rule="evenodd" clip-rule="evenodd" d="M247.799 114.743C249.329 113.182 249.349 111.994 249.107 111.28C248.866 110.585 248.171 109.709 246.188 109.437C242.956 109.004 241.567 107.615 241.396 104.645C241.285 102.773 240.037 101.494 238.205 101.404C235.104 101.243 233.614 99.7528 233.372 96.5514C233.242 94.7494 232.064 93.5514 230.302 93.4407C227.081 93.2293 225.56 91.7092 225.369 88.4977C225.268 86.7763 224.101 85.5884 222.389 85.4776C219.107 85.2662 217.577 83.7461 217.275 80.4038C217.164 79.2259 215.896 78.3602 214.95 77.7159C214.336 77.293 213.49 77.0514 212.433 76.981C210.742 76.8702 210.027 76.1353 209.866 74.3535C209.493 70.1555 206.836 69.1488 204.671 69.0481C202.889 68.9675 202.064 68.1219 201.742 66.0581C201.51 64.5984 200.785 62.6555 199.487 61.981C199.114 61.7796 198.712 61.679 198.319 61.679C197.107 61.679 196.344 62.6051 195.732 63.3481L195.722 63.3602C195.49 63.6521 195.258 63.9239 195.057 64.0951C189.953 68.4139 186.047 73.6689 183.138 80.142C182.504 81.5615 181.396 83.0615 179.846 84.6219C170.449 94.0926 160.856 103.666 151.523 112.979L151.52 112.983L151.515 112.988L151.511 112.992L151.505 112.997L151.505 112.998L149.141 115.357L146.806 117.682C144.723 119.765 142.619 121.834 140.518 123.9L140.518 123.9C140.1 124.311 139.683 124.721 139.265 125.132C134.031 130.276 128.625 135.592 123.47 140.998C117.682 147.078 112.447 151.699 105.762 154.437C105.39 154.588 105.068 154.759 104.786 154.951C104.635 155.056 104.485 155.156 104.33 155.258L104.33 155.258C104.278 155.293 104.225 155.328 104.172 155.364C103.568 155.756 102.953 156.169 102.4 156.702C100.515 158.529 98.6433 160.411 96.8098 162.256C96.4501 162.618 96.0919 162.978 95.7354 163.337L95.2622 163.82C93.7119 165.38 93.6817 166.578 93.9334 167.303C94.175 167.998 94.8696 168.874 96.8528 169.135C100.084 169.558 101.484 170.937 101.655 173.907C101.766 175.78 102.984 177.018 104.836 177.139C107.977 177.34 109.467 178.83 109.668 181.991C109.779 183.803 110.957 185.001 112.739 185.122C115.97 185.333 117.49 186.864 117.672 190.075C117.772 191.786 118.94 192.974 120.641 193.095C123.933 193.327 125.463 194.847 125.765 198.179C125.866 199.367 127.346 200.857 128.534 200.988C131.906 201.33 133.477 202.91 133.779 206.263C133.88 207.32 135.138 208.83 136.296 208.921C139.819 209.202 141.52 210.934 141.812 214.508C141.871 215.284 142.419 215.81 142.95 216.322L142.99 216.36C143.182 216.541 143.383 216.733 143.564 216.944L144.178 217.679L144.943 217.095C145.225 216.884 145.467 216.702 145.698 216.531L145.81 216.447C145.871 216.401 145.931 216.357 145.989 216.313L145.989 216.313L145.989 216.313L145.99 216.312C146.32 216.066 146.612 215.848 146.886 215.605C153.108 210.189 157.467 204.36 160.235 197.776C160.638 196.83 161.242 195.914 161.957 195.199C183.45 173.666 205.316 151.81 226.93 130.256C227.936 129.249 228.923 128.535 229.869 128.122C236.705 125.142 242.715 120.662 247.718 114.833L246.993 114.139L247.799 114.743ZM237.58 116.555L229.688 108.612L229.235 108.169L228.57 107.504C227.977 106.9 227.161 106.196 226.144 106.196C225.47 106.196 224.836 106.498 224.262 107.092C223.426 107.957 222.832 109.387 224.725 111.239C225.349 111.853 225.973 112.478 226.597 113.102C226.7 113.205 226.803 113.308 226.906 113.411L227.139 113.646C227.498 114.007 227.856 114.367 228.218 114.723L228.226 114.73L228.227 114.731L228.228 114.732L228.231 114.735C229.686 116.17 231.142 117.606 232.688 119.122L233.614 120.038C233.191 120.259 232.768 120.481 232.356 120.702L232.124 120.824C230.216 121.826 228.407 122.776 226.607 123.773C225.45 124.417 224.473 125.132 223.708 125.897L200.665 148.91L200.485 149.09C186.88 162.685 172.808 176.746 158.936 190.528C156.42 193.025 154.94 196.025 153.752 198.642C152.01 202.478 149.443 205.87 145.94 208.971C145.376 206.323 143.484 204.823 140.403 204.612C138.893 204.511 138.249 203.857 138.158 202.357C138.149 202.156 138.087 201.985 138.032 201.831L138.031 201.83C138.023 201.807 138.015 201.785 138.007 201.763C137.796 198.692 136.004 196.951 132.833 196.729C131 196.598 130.205 195.843 130.094 194.102C129.873 190.82 127.97 188.907 124.739 188.716C122.997 188.615 122.202 187.81 122.071 186.018C121.849 182.796 119.977 180.924 116.826 180.743C115.044 180.642 114.239 179.827 114.027 177.904L114.024 177.878C113.954 177.254 113.849 176.322 113.333 175.538C112.719 174.612 111.953 173.464 110.836 173.343C107.323 172.951 105.752 171.4 105.571 168.169C105.511 167.082 104.967 165.692 102.682 165.199C102.348 165.13 102.015 165.043 101.644 164.945L101.615 164.937L102.259 164.353L102.427 164.198L102.429 164.196L102.431 164.194L102.431 164.194L102.433 164.193C104.2 162.561 105.868 161.022 107.554 159.511C107.815 159.279 108.252 159.103 108.749 158.903L108.813 158.877C116.564 155.756 122.161 150.048 127.567 144.531C136.094 135.833 144.883 127.095 153.39 118.649C156.994 115.065 160.608 111.471 164.202 107.877C166.064 106.015 167.936 104.162 169.809 102.31L170.247 101.876C175.134 97.028 180.171 92.0313 184.99 86.9776C186.386 85.511 187.342 83.6836 188.266 81.9153L188.266 81.9153L188.272 81.9038L188.387 81.6836C188.721 81.0407 189.058 80.393 189.42 79.7696L189.42 79.7694C189.561 79.5279 189.701 79.2863 189.842 79.0347L189.937 78.8697L189.937 78.8695C190.228 78.3581 190.529 77.8313 190.92 77.2226C191.071 77.4843 191.252 77.736 191.473 77.9575C197.826 84.3501 204.198 90.7226 210.571 97.085L215.03 101.545C215.03 101.545 215.574 102.088 215.795 102.3C216.47 102.954 217.175 103.276 217.889 103.276C218.332 103.276 219.007 103.145 219.681 102.491C220.849 101.364 220.839 99.8635 219.641 98.585C219.329 98.2528 218.997 97.9206 218.675 97.5984L194.554 73.4877C194.479 73.4124 194.403 73.3346 194.328 73.2568L194.327 73.2561L194.327 73.2554C194.251 73.1776 194.176 73.0999 194.101 73.0246L197.232 70.0045C197.755 72.2494 199.285 73.538 201.701 73.7595C202.436 73.83 203.05 73.991 203.483 74.2427C204.087 74.5951 204.45 74.9575 204.5 75.038C204.933 79.5783 207.42 82.0347 211.879 82.3165C212.211 82.3367 212.362 82.3467 212.634 83.293C212.923 84.3191 213.113 85.1184 213.264 85.7495L213.264 85.7497L213.269 85.7696C213.943 88.6085 214.245 88.8904 217.295 89.6253L217.565 89.6915C218.127 89.8291 218.797 89.9932 219.601 90.2092C220.517 90.4608 220.537 90.6823 220.547 90.9743C220.768 95.3434 223.215 97.83 227.785 98.3434C227.987 98.4038 228.389 98.7964 228.45 98.9474C228.913 103.457 231.399 105.944 235.839 106.337C235.944 106.426 236.116 106.646 236.257 106.829L236.257 106.829L236.257 106.829C236.291 106.873 236.323 106.914 236.352 106.951C236.473 107.112 236.594 107.273 236.664 107.353C236.684 107.398 236.699 107.499 236.712 107.59C236.72 107.643 236.727 107.693 236.735 107.726C237.127 110.968 238.406 112.941 240.55 113.615L237.58 116.555ZM179.765 114.733C176.584 114.783 173.05 116.253 170.121 119.192C167.906 121.414 165.686 123.632 163.467 125.85C159.662 129.651 155.857 133.452 152.081 137.273C146.624 142.79 146.594 151.729 151.95 157.327C157.648 163.276 166.768 163.397 172.799 157.498C178.758 151.659 184.678 145.78 190.547 139.85C191.725 138.652 192.822 137.263 193.577 135.773C198.45 126.28 191.382 114.783 179.765 114.733ZM200.17 99.0482C200.945 99.0482 201.6 99.6321 202.194 100.236C206.502 104.575 210.831 108.894 215.16 113.213C217.536 115.578 218.714 118.357 218.764 121.699C218.704 124.86 217.516 127.619 215.24 129.894L212.553 132.572C209.915 135.199 207.187 137.917 204.549 140.635C203.965 141.239 203.412 141.531 202.858 141.531C202.415 141.531 201.992 141.35 201.559 140.968C201.106 140.565 200.865 140.112 200.845 139.629C200.824 139.075 201.106 138.501 201.67 137.937L202.767 136.83C205.715 133.873 208.672 130.915 211.63 127.958L211.636 127.951C213.831 125.766 214.898 123.692 214.898 121.609C214.898 119.525 213.831 117.451 211.636 115.246C207.559 111.159 203.492 107.092 199.405 103.025C198.821 102.441 198.197 101.756 198.207 100.961C198.217 100.488 198.459 100.035 198.912 99.6119C199.314 99.2394 199.737 99.0482 200.17 99.0482ZM180.187 160.437C179.855 160.437 179.503 160.488 179.221 160.568C178.768 160.699 178.426 161.082 178.093 161.454C178.06 161.491 178.026 161.529 177.993 161.567C177.926 161.643 177.859 161.719 177.791 161.786L171.167 168.401C167.432 172.135 163.697 175.87 159.963 179.595C158.12 181.427 156.177 182.364 154.184 182.364C152.442 182.364 150.661 181.649 148.879 180.25C148.275 179.776 147.731 179.545 147.238 179.545C146.724 179.545 146.251 179.786 145.849 180.28C145.043 181.246 145.234 182.313 146.372 183.31C148.627 185.273 151.214 186.26 154.063 186.26H154.134C157.305 186.239 160.083 185.052 162.389 182.746L164.07 181.065C166.863 178.272 169.658 175.48 172.453 172.687C175.25 169.893 178.047 167.098 180.842 164.303C180.914 164.231 180.987 164.166 181.066 164.096L181.093 164.072C181.426 163.78 181.768 163.468 181.808 163.065C181.889 162.34 181.879 161.354 181.405 160.82C181.124 160.498 180.59 160.437 180.187 160.437ZM128.816 178.828C130.483 180.493 132.151 182.158 133.819 183.823L141.873 191.877C142.376 192.38 142.95 193.055 142.94 193.82C142.94 194.303 142.708 194.756 142.255 195.179C141.852 195.551 141.43 195.743 140.987 195.743C140.252 195.743 139.618 195.209 139.094 194.686L133.557 189.149C127.809 183.41 121.869 177.481 116.061 171.612C115.457 171.008 115.215 169.961 115.235 169.246C115.255 168.813 115.678 168.481 116.131 168.139C116.312 167.998 116.504 167.847 116.665 167.696L116.836 167.535L117.037 167.665C117.194 167.761 117.345 167.851 117.49 167.937L117.608 168.008L117.691 168.058C118.124 168.31 118.497 168.531 118.809 168.843C122.148 172.169 125.478 175.494 128.808 178.82L128.816 178.828ZM189.742 92.0917C186.349 92.0917 183.701 93.0581 181.406 95.1319C180.359 96.0782 180.188 97.1051 180.933 98.0212C181.346 98.5246 181.829 98.7863 182.373 98.7863C182.866 98.7863 183.399 98.5749 183.983 98.1219C185.916 96.6521 187.597 95.9675 189.258 95.9675C190.909 95.9675 192.57 96.6521 194.473 98.1118C195.057 98.5648 195.591 98.7762 196.084 98.7762C196.617 98.7762 197.101 98.5246 197.513 98.0212C198.268 97.1152 198.097 96.0883 197.05 95.1319C194.946 93.2192 192.369 92.142 189.742 92.0917ZM130.537 164.958C130.134 165.3 129.721 165.471 129.298 165.471C128.704 165.471 128.121 165.139 127.527 164.464C125.584 162.28 124.567 159.702 124.567 157.015C124.577 153.894 125.523 151.307 127.446 149.082C127.859 148.609 128.503 147.974 129.308 147.974C129.741 147.974 130.174 148.156 130.587 148.528C131.815 149.615 131.141 150.783 130.527 151.568C127.748 155.112 127.758 158.303 130.547 161.917C131.151 162.702 131.805 163.87 130.537 164.958Z" fill="#725193"/>
</svg>
