<svg width="342" height="341" viewBox="0 0 342 341" fill="none" xmlns="http://www.w3.org/2000/svg">
<path d="M128.83 65.1753C136.42 54.7945 151.914 54.7945 159.504 65.1753L170.626 80.3856C172.971 83.5928 176.262 85.9842 180.037 87.2234L197.94 93.1003C210.158 97.1112 214.946 111.847 207.419 122.274L196.39 137.551C194.064 140.773 192.807 144.642 192.795 148.615L192.738 167.458C192.699 180.317 180.164 189.425 167.921 185.488L149.984 179.719C146.201 178.503 142.133 178.503 138.35 179.719L120.413 185.488C108.17 189.425 95.635 180.317 95.596 167.458L95.539 148.615C95.5269 144.642 94.2697 140.773 91.9441 137.551L80.9149 122.274C73.3877 111.847 78.1758 97.1112 90.394 93.1003L108.297 87.2234C112.072 85.9842 115.363 83.5928 117.708 80.3856L128.83 65.1753Z" fill="#E8D7F3"/>
<g clip-path="url(#clip0_1050_14348)">
<path d="M217.986 184.335C216.856 178.495 215.056 173.995 213.676 170.575C213.416 169.935 213.176 169.325 212.956 168.765C209.156 156.795 212.456 151.135 215.366 146.145C216.076 144.935 216.746 143.785 217.296 142.595C227.296 124.385 228.786 107.385 228.786 98.8747C228.836 84.0147 225.246 73.0047 218.116 66.1647C210.806 59.1447 202.406 59.1647 201.496 59.2047H198.876C197.956 59.1747 189.556 59.1447 182.256 66.1647C175.126 73.0047 171.536 84.0147 171.586 98.8647C171.586 107.395 173.076 124.395 183.086 142.615C183.626 143.745 184.276 144.825 184.946 145.975C187.906 150.975 191.266 156.645 187.416 168.765C187.196 169.325 186.956 169.935 186.696 170.575C185.316 173.995 183.516 178.505 182.386 184.335C182.106 185.745 181.876 187.225 181.706 188.795C181.416 191.285 181.266 193.995 181.326 196.915C181.326 207.955 188.196 214.295 200.186 214.295C212.176 214.295 219.046 207.955 219.046 196.965C219.106 194.025 218.956 191.305 218.666 188.795C218.496 187.225 218.256 185.745 217.986 184.335ZM191.336 172.435C191.616 171.745 191.876 171.095 192.106 170.495L192.156 170.355C196.726 156.045 192.406 148.755 189.256 143.425C188.616 142.355 188.026 141.345 187.566 140.395L187.496 140.265C177.646 122.365 176.586 105.355 176.586 98.8547C176.536 85.4747 179.586 75.7147 185.636 69.8447C191.206 64.4447 197.476 64.2047 198.566 64.2047H201.646C201.726 64.2047 208.606 63.9647 214.656 69.7647C220.766 75.6247 223.836 85.4147 223.786 98.8647C223.786 105.355 222.726 122.365 212.876 140.265L212.786 140.435C212.336 141.425 211.706 142.495 211.056 143.625C207.946 148.935 203.706 156.215 208.216 170.355L208.266 170.495C208.496 171.095 208.756 171.745 209.036 172.435C210.586 176.285 212.706 181.585 213.606 188.705C209.446 192.115 204.886 193.885 200.186 193.885C195.476 193.885 190.926 192.115 186.756 188.685C187.666 181.585 189.786 176.285 191.336 172.435ZM214.046 196.915C214.046 205.125 209.386 209.295 200.186 209.295C190.986 209.295 186.326 205.125 186.316 196.865C186.286 195.465 186.316 194.115 186.386 192.815C190.686 195.825 195.346 197.385 200.186 197.385C205.026 197.385 209.686 195.825 213.976 192.815C214.046 194.125 214.076 195.495 214.046 196.915Z" fill="#725193"/>
<path d="M220.416 102.429C220.416 83.4591 211.536 68.5991 200.186 68.5991C188.836 68.5991 179.956 83.4591 179.956 102.429C179.956 121.399 188.836 136.249 200.186 136.249C211.536 136.249 220.416 121.399 220.416 102.429ZM183.456 102.429C183.456 85.9891 191.116 72.0991 200.186 72.0991C209.256 72.0991 216.916 85.9891 216.916 102.429C216.916 118.869 209.256 132.749 200.186 132.749C191.116 132.749 183.456 118.869 183.456 102.429Z" fill="#725193"/>
<path d="M200.187 79.3691C201.157 79.3691 201.947 78.5791 201.947 77.6091C201.947 76.6391 201.157 75.8491 200.187 75.8491C199.217 75.8491 198.427 76.6391 198.427 77.6091C198.427 78.5891 199.217 79.3691 200.187 79.3691Z" fill="#725193"/>
<path d="M200.187 86.3591C201.157 86.3591 201.947 85.5691 201.947 84.5991C201.947 83.6291 201.157 82.8391 200.187 82.8391C199.217 82.8391 198.427 83.6291 198.427 84.5991C198.427 85.5691 199.217 86.3591 200.187 86.3591Z" fill="#725193"/>
<path d="M200.187 93.3491C201.157 93.3491 201.947 92.5591 201.947 91.5891C201.947 90.6191 201.157 89.8291 200.187 89.8291C199.217 89.8291 198.427 90.6191 198.427 91.5891C198.427 92.5691 199.217 93.3491 200.187 93.3491Z" fill="#725193"/>
<path d="M200.187 100.339C201.157 100.339 201.947 99.5491 201.947 98.5791C201.947 97.6091 201.157 96.8191 200.187 96.8191C199.217 96.8191 198.427 97.6091 198.427 98.5791C198.427 99.5591 199.217 100.339 200.187 100.339Z" fill="#725193"/>
<path d="M200.187 107.329C201.157 107.329 201.947 106.539 201.947 105.569C201.947 104.599 201.157 103.809 200.187 103.809C199.217 103.809 198.427 104.599 198.427 105.569C198.427 106.539 199.217 107.329 200.187 107.329Z" fill="#725193"/>
<path d="M200.187 114.319C201.157 114.319 201.947 113.529 201.947 112.559C201.947 111.589 201.157 110.799 200.187 110.799C199.217 110.799 198.427 111.589 198.427 112.559C198.427 113.539 199.217 114.319 200.187 114.319Z" fill="#725193"/>
<path d="M200.187 121.309C201.157 121.309 201.947 120.519 201.947 119.549C201.947 118.579 201.157 117.789 200.187 117.789C199.217 117.789 198.427 118.579 198.427 119.549C198.427 120.519 199.217 121.309 200.187 121.309Z" fill="#725193"/>
<path d="M201.947 126.549C201.947 125.579 201.157 124.789 200.187 124.789C199.217 124.789 198.427 125.579 198.427 126.549C198.427 127.519 199.217 128.309 200.187 128.309C201.157 128.299 201.947 127.519 201.947 126.549Z" fill="#725193"/>
<path d="M206.137 82.6191C207.107 82.6191 207.897 81.8291 207.897 80.8591C207.897 79.8891 207.107 79.0991 206.137 79.0991C205.167 79.0991 204.377 79.8891 204.377 80.8591C204.377 81.8291 205.167 82.6191 206.137 82.6191Z" fill="#725193"/>
<path d="M206.137 89.6091C207.107 89.6091 207.897 88.8191 207.897 87.8491C207.897 86.8791 207.107 86.0891 206.137 86.0891C205.167 86.0891 204.377 86.8791 204.377 87.8491C204.377 88.8191 205.167 89.6091 206.137 89.6091Z" fill="#725193"/>
<path d="M206.137 96.5991C207.107 96.5991 207.897 95.8091 207.897 94.8391C207.897 93.8691 207.107 93.0791 206.137 93.0791C205.167 93.0791 204.377 93.8691 204.377 94.8391C204.377 95.8091 205.167 96.5991 206.137 96.5991Z" fill="#725193"/>
<path d="M206.137 103.589C207.107 103.589 207.897 102.799 207.897 101.829C207.897 100.859 207.107 100.069 206.137 100.069C205.167 100.069 204.377 100.859 204.377 101.829C204.377 102.799 205.167 103.589 206.137 103.589Z" fill="#725193"/>
<path d="M206.137 110.579C207.107 110.579 207.897 109.789 207.897 108.819C207.897 107.849 207.107 107.059 206.137 107.059C205.167 107.059 204.377 107.849 204.377 108.819C204.377 109.789 205.167 110.579 206.137 110.579Z" fill="#725193"/>
<path d="M206.137 117.569C207.107 117.569 207.897 116.779 207.897 115.809C207.897 114.839 207.107 114.049 206.137 114.049C205.167 114.049 204.377 114.839 204.377 115.809C204.377 116.779 205.167 117.569 206.137 117.569Z" fill="#725193"/>
<path d="M206.137 124.559C207.107 124.559 207.897 123.769 207.897 122.799C207.897 121.829 207.107 121.039 206.137 121.039C205.167 121.039 204.377 121.829 204.377 122.799C204.377 123.769 205.167 124.559 206.137 124.559Z" fill="#725193"/>
<path d="M193.916 79.0991C192.946 79.0991 192.156 79.8891 192.156 80.8591C192.156 81.8291 192.946 82.6191 193.916 82.6191C194.886 82.6191 195.676 81.8291 195.676 80.8591C195.676 79.8891 194.896 79.0991 193.916 79.0991Z" fill="#725193"/>
<path d="M193.916 86.0891C192.946 86.0891 192.156 86.8791 192.156 87.8491C192.156 88.8191 192.946 89.6091 193.916 89.6091C194.886 89.6091 195.676 88.8191 195.676 87.8491C195.676 86.8791 194.896 86.0891 193.916 86.0891Z" fill="#725193"/>
<path d="M193.916 93.0791C192.946 93.0791 192.156 93.8691 192.156 94.8391C192.156 95.8091 192.946 96.5991 193.916 96.5991C194.886 96.5991 195.676 95.8091 195.676 94.8391C195.676 93.8691 194.896 93.0791 193.916 93.0791Z" fill="#725193"/>
<path d="M193.916 100.069C192.946 100.069 192.156 100.859 192.156 101.829C192.156 102.799 192.946 103.589 193.916 103.589C194.886 103.589 195.676 102.799 195.676 101.829C195.676 100.859 194.896 100.069 193.916 100.069Z" fill="#725193"/>
<path d="M193.916 107.059C192.946 107.059 192.156 107.849 192.156 108.819C192.156 109.789 192.946 110.579 193.916 110.579C194.886 110.579 195.676 109.789 195.676 108.819C195.676 107.849 194.896 107.059 193.916 107.059Z" fill="#725193"/>
<path d="M193.916 114.049C192.946 114.049 192.156 114.839 192.156 115.809C192.156 116.779 192.946 117.569 193.916 117.569C194.886 117.569 195.676 116.779 195.676 115.809C195.676 114.839 194.896 114.049 193.916 114.049Z" fill="#725193"/>
<path d="M193.916 121.039C192.946 121.039 192.156 121.829 192.156 122.799C192.156 123.769 192.946 124.559 193.916 124.559C194.886 124.559 195.676 123.769 195.676 122.799C195.676 121.829 194.896 121.039 193.916 121.039Z" fill="#725193"/>
<path d="M188.017 89.3391C187.047 89.3391 186.257 90.1291 186.257 91.0991C186.257 92.0691 187.047 92.8591 188.017 92.8591C188.987 92.8591 189.777 92.0691 189.777 91.0991C189.777 90.1191 188.987 89.3391 188.017 89.3391Z" fill="#725193"/>
<path d="M188.017 96.3291C187.047 96.3291 186.257 97.1191 186.257 98.0891C186.257 99.0591 187.047 99.8491 188.017 99.8491C188.987 99.8491 189.777 99.0591 189.777 98.0891C189.777 97.1091 188.987 96.3291 188.017 96.3291Z" fill="#725193"/>
<path d="M188.017 103.319C187.047 103.319 186.257 104.109 186.257 105.079C186.257 106.049 187.047 106.839 188.017 106.839C188.987 106.839 189.777 106.049 189.777 105.079C189.777 104.109 188.987 103.319 188.017 103.319Z" fill="#725193"/>
<path d="M188.017 110.309C187.047 110.309 186.257 111.099 186.257 112.069C186.257 113.039 187.047 113.829 188.017 113.829C188.987 113.829 189.777 113.039 189.777 112.069C189.777 111.089 188.987 110.309 188.017 110.309Z" fill="#725193"/>
<path d="M211.817 92.8491C212.787 92.8491 213.577 92.0591 213.577 91.0891C213.577 90.1191 212.787 89.3291 211.817 89.3291C210.847 89.3291 210.057 90.1191 210.057 91.0891C210.057 92.0691 210.847 92.8491 211.817 92.8491Z" fill="#725193"/>
<path d="M211.817 99.8391C212.787 99.8391 213.577 99.0491 213.577 98.0791C213.577 97.1091 212.787 96.3191 211.817 96.3191C210.847 96.3191 210.057 97.1091 210.057 98.0791C210.057 99.0591 210.847 99.8391 211.817 99.8391Z" fill="#725193"/>
<path d="M211.817 106.829C212.787 106.829 213.577 106.039 213.577 105.069C213.577 104.099 212.787 103.309 211.817 103.309C210.847 103.309 210.057 104.099 210.057 105.069C210.057 106.039 210.847 106.829 211.817 106.829Z" fill="#725193"/>
<path d="M211.817 113.819C212.787 113.819 213.577 113.029 213.577 112.059C213.577 111.089 212.787 110.299 211.817 110.299C210.847 110.299 210.057 111.089 210.057 112.059C210.057 113.039 210.847 113.819 211.817 113.819Z" fill="#725193"/>
<path d="M160.377 142.593C160.867 141.713 161.327 140.823 161.747 139.993C161.837 139.833 161.927 139.663 161.997 139.503C163.177 137.063 163.227 135.053 162.147 133.503C160.577 131.253 157.587 131.453 156.857 131.543H148.197C145.367 131.543 142.747 130.663 140.587 129.153H160.497C161.467 129.153 162.247 128.373 162.247 127.403C162.247 126.433 161.467 125.653 160.497 125.653H137.127C136.697 125.023 136.317 124.353 136.007 123.653H160.507C161.477 123.653 162.257 122.873 162.257 121.903C162.257 120.933 161.477 120.153 160.507 120.153H134.967C134.877 119.513 134.827 118.853 134.827 118.183V118.143H160.497C161.467 118.143 162.247 117.363 162.247 116.393C162.247 115.423 161.467 114.643 160.497 114.643H134.827V112.643H160.497C161.467 112.643 162.247 111.863 162.247 110.893C162.247 109.923 161.467 109.143 160.497 109.143H134.827V107.143H160.497C161.467 107.143 162.247 106.363 162.247 105.393C162.247 104.423 161.467 103.643 160.497 103.643H134.827V101.643H160.497C161.467 101.643 162.247 100.863 162.247 99.8932C162.247 98.9232 161.467 98.1432 160.497 98.1432H134.827V96.1432H160.497C161.467 96.1432 162.247 95.3632 162.247 94.3932C162.247 93.4232 161.467 92.6432 160.497 92.6432H134.827V90.6432H160.497C161.467 90.6432 162.247 89.8632 162.247 88.8932C162.247 87.9232 161.467 87.1432 160.497 87.1432H134.827V87.0932C134.827 86.4232 134.877 85.7632 134.967 85.1232H160.497C161.467 85.1232 162.247 84.3432 162.247 83.3732C162.247 82.4032 161.467 81.6232 160.497 81.6232H135.997C136.317 80.9232 136.687 80.2532 137.117 79.6232H160.497C161.467 79.6232 162.247 78.8432 162.247 77.8732C162.247 76.9032 161.467 76.1232 160.497 76.1232H140.587C142.747 74.6132 145.367 73.7332 148.197 73.7332H156.857C156.987 73.7332 157.107 73.7332 157.237 73.7432V73.7332C159.117 73.7532 161.427 73.1432 162.247 71.1832C163.427 68.3932 160.607 65.7032 159.677 64.8232L159.517 64.9932L159.667 64.8132L158.417 66.1332L159.567 64.7232C152.697 59.1532 145.427 59.1732 144.577 59.2032H141.957C141.027 59.1732 132.637 59.1532 125.337 66.1632C118.197 73.0032 114.617 84.0132 114.667 98.8732C114.667 107.393 116.157 124.403 126.167 142.613C126.707 143.743 127.347 144.823 128.027 145.973C130.987 150.973 134.347 156.643 130.487 168.763C130.277 169.323 130.037 169.923 129.777 170.563C128.397 173.983 126.587 178.493 125.467 184.333C125.187 185.743 124.957 187.223 124.777 188.793C124.487 191.293 124.347 193.993 124.407 196.913C124.407 207.953 131.277 214.283 143.267 214.283C155.257 214.283 162.127 207.953 162.127 196.963C162.187 194.023 162.047 191.303 161.757 188.793C161.577 187.223 161.347 185.743 161.067 184.333C159.947 178.493 158.137 173.993 156.757 170.563C156.497 169.923 156.257 169.323 156.037 168.763C152.237 156.793 155.537 151.133 158.447 146.143C159.157 144.933 159.827 143.783 160.377 142.593ZM157.127 196.913C157.127 205.123 152.467 209.283 143.267 209.283C134.067 209.283 129.407 205.123 129.407 196.863C129.377 195.463 129.397 194.113 129.477 192.813C133.767 195.823 138.427 197.383 143.267 197.383C148.107 197.383 152.767 195.823 157.057 192.813C157.137 194.123 157.157 195.493 157.127 196.913ZM157.337 137.643C157.327 137.663 157.327 137.673 157.317 137.693C156.877 138.543 156.427 139.403 155.957 140.263L155.867 140.433C155.417 141.433 154.787 142.493 154.137 143.623C151.027 148.933 146.787 156.213 151.297 170.353L151.347 170.493C151.577 171.093 151.837 171.743 152.117 172.433C153.657 176.273 155.787 181.573 156.697 188.693C152.527 192.113 147.967 193.883 143.267 193.883C138.567 193.883 134.007 192.113 129.837 188.693C130.737 181.583 132.867 176.273 134.417 172.423C134.697 171.733 134.957 171.093 135.187 170.493L135.237 170.353C139.807 156.043 135.487 148.753 132.337 143.423C131.697 142.353 131.097 141.343 130.647 140.393L130.577 140.263C120.727 122.363 119.667 105.353 119.667 98.8632C119.617 85.4732 122.667 75.7132 128.717 69.8432C134.287 64.4432 140.557 64.2032 141.647 64.2032H144.717C144.787 64.2032 150.737 64.0532 156.327 68.5332C156.397 68.6032 156.467 68.6732 156.527 68.7332H148.197C138.067 68.7332 129.827 76.9732 129.827 87.0932V118.183C129.827 128.303 138.067 136.543 148.197 136.543H156.857C157.027 136.543 157.217 136.533 157.407 136.513C157.537 136.503 157.687 136.493 157.827 136.503C157.757 136.763 157.607 137.133 157.337 137.643Z" fill="#725193"/>
</g>
<defs>
<clipPath id="clip0_1050_14348">
<rect width="114.12" height="155.1" fill="white" transform="translate(114.667 59.199)"/>
</clipPath>
</defs>
</svg>
