<svg width="342" height="341" viewBox="0 0 342 341" fill="none" xmlns="http://www.w3.org/2000/svg">
<circle cx="139.333" cy="137.199" r="56" fill="#FFEEB1"/>
<g clip-path="url(#clip0_1050_14222)">
<path d="M224.77 156.932C225.587 154.883 225.515 152.58 224.551 150.603L207.196 114.894C206.833 114.151 206.161 113.607 205.343 113.425C205.288 113.425 201.254 112.501 195.766 111.159C198.946 98.6996 195.093 90.6475 190.059 85.6059C191.077 82.4685 191.622 79.6212 191.877 77.3906C192.131 75.1962 189.914 73.564 187.879 74.4527C184.935 75.7403 181.155 77.4631 178.738 78.7507C173.322 77.046 167.507 77.0279 162.092 78.6963C159.675 77.4269 155.931 75.7221 153.041 74.4345C151.024 73.5459 148.789 75.1781 149.043 77.3725C149.298 79.5487 149.825 82.3415 150.806 85.3883C145.663 90.4117 141.665 98.5001 144.9 111.122C139.412 112.464 135.378 113.389 135.323 113.389C134.523 113.57 133.833 114.115 133.469 114.858L116.114 150.603C115.151 152.58 115.078 154.883 115.896 156.932C116.314 158.002 116.987 158.927 117.804 159.707L116.441 162.445C116.205 162.898 116.187 163.443 116.369 163.914C116.55 164.386 116.932 164.766 117.423 164.948L127.781 168.847C127.999 168.919 128.217 168.956 128.417 168.956C129.126 168.956 129.78 168.557 130.089 167.868L131.452 164.766C133.379 164.658 135.214 163.86 136.577 162.5L129.417 219.644C128.799 224.577 131.725 229.074 136.286 230.598L135.941 232.81C135.795 233.789 136.45 234.714 137.431 234.877L150.97 237.181C151.079 237.181 151.17 237.199 151.279 237.199C152.115 237.199 152.878 236.6 153.06 235.766L153.678 232.81C157.403 232.103 160.565 229.364 161.637 225.538L170.324 194.599L179.01 225.538C180.083 229.364 183.245 232.103 186.97 232.81L187.588 235.784C187.77 236.637 188.515 237.217 189.369 237.217C189.478 237.217 189.569 237.217 189.678 237.199L203.217 234.896C204.198 234.732 204.852 233.807 204.707 232.828L204.362 230.616C208.905 229.074 211.831 224.595 211.231 219.662L204.071 162.518C205.434 163.878 207.287 164.676 209.214 164.785L210.577 167.886C210.867 168.557 211.54 168.974 212.248 168.974C212.467 168.974 212.685 168.938 212.885 168.865L223.243 164.966C223.716 164.785 224.097 164.404 224.297 163.932C224.497 163.461 224.461 162.917 224.224 162.463L222.861 159.743C223.679 158.963 224.333 158.038 224.77 156.968V156.932ZM120.585 162.264L120.93 161.556L127.763 164.114L127.436 164.839L120.567 162.264H120.585ZM139.812 231.613L139.866 231.323L149.952 232.864L149.861 233.336L139.812 231.631V231.613ZM190.823 233.318L190.732 232.846L200.836 231.305L200.89 231.595L190.841 233.3L190.823 233.318ZM207.415 157.839L201.599 143.222C201.09 141.952 199.709 141.245 198.383 141.59C197.056 141.934 196.184 143.204 196.347 144.564L205.833 220.297C206.161 222.908 204.38 225.248 201.781 225.647L189.642 227.496C187.243 227.877 184.935 226.372 184.281 224.051L172.959 183.772C172.632 182.593 171.56 181.795 170.342 181.795C169.124 181.795 168.052 182.612 167.725 183.772L156.403 224.051C155.749 226.39 153.441 227.859 151.042 227.496L138.903 225.647C136.304 225.248 134.523 222.908 134.851 220.297L144.337 144.564C144.5 143.204 143.646 141.934 142.301 141.59C142.083 141.535 141.847 141.499 141.629 141.499C140.539 141.499 139.521 142.152 139.103 143.222L133.288 157.821C132.815 159.018 131.434 159.634 130.216 159.181L122.366 156.243C121.73 156.007 121.239 155.517 120.985 154.883C120.73 154.248 120.748 153.559 121.057 152.942L137.831 118.413C139.848 117.941 144.064 116.962 148.989 115.729C149.716 115.547 150.352 115.076 150.715 114.405C151.079 113.752 151.152 112.972 150.933 112.247C147.335 101.112 149.48 92.6242 157.312 87.0386C164.999 81.5617 175.739 81.5617 183.408 87.0386C191.241 92.6242 193.385 101.093 189.787 112.247C189.551 112.972 189.642 113.752 190.005 114.405C190.368 115.058 190.986 115.547 191.731 115.729C196.656 116.962 200.872 117.941 202.89 118.413L219.663 152.942C219.954 153.559 219.99 154.248 219.736 154.883C219.481 155.517 218.991 155.989 218.355 156.243L210.504 159.181C209.286 159.634 207.905 159.036 207.433 157.821L207.415 157.839ZM213.23 164.821L212.903 164.095L219.736 161.538L220.081 162.246L213.212 164.821H213.23Z" fill="#725193"/>
<path d="M170.507 120.19C169.407 120.19 168.507 121.006 168.507 122.004V173.635C168.507 174.632 169.407 175.448 170.507 175.448C171.607 175.448 172.507 174.632 172.507 173.635V122.004C172.507 121.006 171.607 120.19 170.507 120.19Z" fill="#725193"/>
<path d="M155.804 98.4277C155.458 99.7879 155.295 101.202 155.295 102.671C155.295 104.14 155.477 105.555 155.804 106.915C159.438 121.586 181.209 121.586 184.844 106.915C185.189 105.555 185.353 104.14 185.353 102.671C185.353 101.202 185.171 99.7879 184.844 98.4277C181.209 83.7563 159.438 83.7563 155.804 98.4277Z" fill="#725193"/>
</g>
<defs>
<clipPath id="clip0_1050_14222">
<rect width="110" height="163" fill="white" transform="translate(115.333 74.199)"/>
</clipPath>
</defs>
</svg>
