<svg width="342" height="341" viewBox="0 0 342 341" fill="none" xmlns="http://www.w3.org/2000/svg">
<path d="M103.472 103.363C103.455 89.487 118.482 80.8112 130.49 87.7633L208.308 132.816C220.292 139.753 220.281 157.058 208.289 163.982L130.579 208.848C118.587 215.771 103.596 207.128 103.579 193.281L103.472 103.363Z" fill="#C9E7E5"/>
<path d="M203.587 101.509C202.937 97.079 200.557 94.209 196.767 93.419L196.527 93.369C190.797 92.469 187.777 95.419 186.677 97.649C184.497 97.439 182.297 97.329 180.087 97.329C145.887 97.329 117.287 122.439 112.727 156.059L88.7571 162.789C86.3271 163.119 84.5871 163.779 83.7271 164.169C80.8771 164.949 74.6271 167.109 73.0471 171.419C72.4971 172.919 72.2671 175.269 74.2871 177.929L74.4171 178.089C76.4171 180.379 78.9571 182.489 83.7871 182.489C88.6171 182.489 95.6671 180.399 106.737 174.359C109.167 176.189 111.747 178.559 114.437 181.639C118.057 185.779 121.617 190.889 125.027 196.829C126.107 198.709 132.117 208.199 144.687 209.819C145.887 209.979 147.107 210.049 148.347 210.049C161.217 210.049 175.937 201.689 192.157 185.129L192.447 184.809C203.507 188.099 214.957 189.769 226.667 189.769C231.777 189.769 236.927 189.459 242.117 188.829L244.007 188.599L244.607 186.799C246.907 179.899 248.067 172.669 248.067 165.319C248.067 136.849 230.237 111.339 203.597 101.529L203.587 101.509ZM180.077 103.319C182.697 103.319 185.307 103.479 187.867 103.809C189.577 104.019 191.287 104.309 192.947 104.659L193.887 104.869C194.497 105.009 195.107 105.159 195.727 105.309C197.907 107.289 201.207 111.289 203.037 118.459C205.627 128.619 205.507 147.119 190.767 177.989C179.437 174.239 170.477 169.369 163.867 165.769C162.417 164.979 161.077 164.249 159.837 163.599C142.997 152.159 126.727 153.089 119.057 154.459C124.207 125.019 149.737 103.309 180.097 103.309L180.077 103.319ZM116.417 161.239C116.617 161.169 136.357 154.839 156.577 168.659L156.877 168.839C158.127 169.489 159.487 170.239 160.967 171.039C164.687 173.069 169.127 175.479 174.317 177.899C153.247 192.479 140.467 180.399 131.007 171.439C129.757 170.249 128.577 169.129 127.447 168.159C124.017 164.839 119.607 162.769 115.607 161.469L116.257 161.289L116.397 161.249L116.417 161.239ZM79.0071 174.219C78.7971 173.929 78.6271 173.609 78.6771 173.469C79.1471 172.189 83.0271 170.429 86.1871 169.719L86.1671 169.629C86.5771 169.439 87.8371 168.919 89.7471 168.689C92.1871 168.389 96.0071 168.529 100.747 170.719C83.9071 179.399 80.7071 176.169 78.9971 174.219H79.0071ZM145.437 203.839C135.477 202.559 130.727 194.719 130.217 193.819C126.617 187.529 122.817 182.099 118.937 177.659C113.197 171.099 107.757 167.209 102.877 165.029L107.687 163.679C111.867 164.339 119.687 166.179 124.697 171.049L124.777 171.129C125.847 172.049 127.007 173.159 128.247 174.329C134.477 180.229 143.387 188.669 155.727 188.669C162.317 188.669 169.887 186.259 178.547 179.769C180.907 180.779 183.397 181.769 186.027 182.709C170.587 197.959 156.577 205.269 145.427 203.839H145.437ZM239.467 183.059C223.837 184.719 209.117 183.449 194.597 179.179C214.037 138.229 209.037 117.369 202.847 107.619C226.387 116.919 242.047 139.799 242.047 165.279C242.047 171.339 241.177 177.309 239.467 183.049V183.059Z" fill="#725193"/>
</svg>
