<svg width="342" height="341" viewBox="0 0 342 341" fill="none" xmlns="http://www.w3.org/2000/svg">
<path d="M133.415 77.8549C146.299 76.1471 158.817 82.9297 164.423 94.6555L183.142 133.811C188.747 145.537 186.165 159.538 176.746 168.493L145.291 198.395C135.871 207.35 121.757 209.221 110.33 203.029L72.171 182.355C60.7438 176.163 54.6028 163.318 56.96 150.537L64.8312 107.857C67.1883 95.0754 77.5075 85.2656 90.3916 83.5578L133.415 77.8549Z" fill="#DAFCC0"/>
<g clip-path="url(#clip0_1050_14236)">
<path d="M243.979 152.96C242.796 152.323 234.825 146.448 226.815 140.439C227.241 140.4 227.649 140.226 227.959 139.937C228.599 139.338 228.754 138.371 228.327 137.599C228.192 137.347 227.784 136.768 226.892 136.401L213.917 128.188C213.8 128.111 213.665 128.053 213.529 127.995C213.141 127.86 212.191 127.647 210.465 127.956C210.329 127.686 210.174 127.415 209.921 127.184L208.99 126.295C209.146 125.541 208.874 124.749 208.215 124.304L193.843 114.566C193.63 114.411 193.377 114.315 193.106 114.257C192.97 114.237 191.865 114.063 189.983 114.257C189.867 113.986 189.75 113.735 189.557 113.503C189.401 113.31 188.49 112.247 186.415 110.779C184.068 109.117 180.518 109.87 178.482 110.547C172.489 107.996 170.704 108.614 170.103 108.827C169.366 109.078 168.61 109.561 167.582 110.218C166.535 110.875 163.315 112.885 162.345 112.595C161.822 112.44 160.91 112.131 159.727 111.725C150.32 108.518 140.817 105.658 135.289 106.296C128.578 107.069 126.93 114.257 127.007 119.628C126.871 119.686 126.716 119.764 126.581 119.822C126.581 119.822 126.581 119.822 126.561 119.822C126.561 119.822 126.522 119.822 126.522 119.841C126.231 119.976 125.941 120.15 125.63 120.305C125.378 120.44 125.107 120.556 124.854 120.71C120.956 118.566 111.103 113.889 102.86 116.266C96.2272 118.179 91.6887 121.85 89.2061 127.145C89.1091 127.319 89.0316 127.493 88.9734 127.686C87.926 130.121 87.2278 132.845 87.0339 135.956C86.7042 139.009 85.075 155.356 84.784 158.197C84.1246 159.858 82.4178 164.631 83.2324 167.858C83.3294 168.264 83.3682 168.689 83.407 169.153C83.7949 172.959 84.8034 177.056 92.3287 181.423C100.649 186.253 139.963 210.446 140.351 210.697C140.526 210.813 140.72 210.909 140.933 210.967C141.728 211.238 153.559 215.199 171.403 215.199C182.691 215.199 196.364 213.615 211.182 208.513C211.26 208.494 211.318 208.455 211.395 208.436C216.555 206.214 219.832 201.209 220.608 195.181C223.964 195.49 227.047 195.644 229.86 195.644C244.115 195.644 251.621 191.954 255.519 188.495C258.332 185.983 260.019 182.872 260 180.263C260.698 163.53 249.041 155.607 243.999 152.98L243.979 152.96ZM252.823 170.95C246.85 178.428 225.496 178.814 216.283 178.234C214.15 175.297 211.551 173.133 209.068 171.568C209.883 170.93 212.307 169.404 218.281 168.225C220.026 167.877 222.218 167.53 224.604 167.143C235.484 165.365 243.126 163.936 245.861 161.134C248.479 163.298 251.252 166.486 252.862 170.95H252.823ZM167.465 127.396C166.166 126.449 164.362 126.72 163.393 127.995C162.442 129.29 162.714 131.087 163.994 132.053L179.316 143.376C179.84 143.763 180.441 143.936 181.042 143.936C181.934 143.936 182.807 143.531 183.389 142.758C184.339 141.463 184.068 139.666 182.788 138.7L182.186 138.256C183.273 136.98 184.688 135.415 186.298 133.908L191.806 138.391C189.401 140.497 187.753 142.313 186.861 143.357C185.871 143.241 184.844 143.647 184.203 144.497C183.253 145.791 183.525 147.588 184.805 148.555L197.703 158.081C198.226 158.467 198.827 158.641 199.429 158.641C200.321 158.641 201.194 158.235 201.775 157.462C202.532 156.458 202.512 155.124 201.853 154.139C202.629 153.347 203.54 152.438 204.588 151.453C205.751 154.197 207.032 159.955 203.366 168.708C202.803 168.496 202.299 168.322 201.872 168.187C193.785 161.81 169.192 138.41 157.826 127.415C159.649 126.314 164.091 124.169 169.987 124.942C169.172 125.696 168.338 126.527 167.504 127.377L167.465 127.338V127.396ZM158.815 162.216C165.274 159.317 172.528 156.458 178.656 155.26C187.055 163.085 194.871 170.158 198.75 173.133C199.041 173.346 199.37 173.52 199.7 173.616C200.127 173.732 200.728 173.945 201.407 174.196C198.536 178.099 177.26 181.133 169.036 182.292C165.39 182.814 162.597 183.2 160.852 183.568C164.964 173.268 161.259 165.675 158.796 162.197L158.815 162.216ZM154.936 159.723C151.949 161.095 149.195 162.428 146.887 163.568L144.482 164.728C140.836 166.467 137.985 164.361 136.957 162.506C136.55 161.771 135.793 159.974 137.636 158.815C146.034 152.67 163.393 147.588 168.881 146.081C170.976 148.052 173.109 150.062 175.224 152.071C168.61 153.733 161.259 156.825 154.956 159.723C154.956 159.723 154.956 159.723 154.936 159.723ZM128.462 125.367C128.462 125.367 128.559 125.309 128.598 125.29C132.806 123.029 136.259 123.705 137.209 123.976L140.157 126.044C133.989 128.034 126.27 130.894 120.316 134.236C121.557 132.15 124.098 128.498 126.91 126.372C127.434 126.005 127.958 125.657 128.462 125.387V125.367ZM97.7206 140.014C98.1667 140.014 98.6128 139.995 99.0976 139.917C99.6795 139.84 100.3 139.743 100.94 139.647C100.203 140.246 99.4855 140.845 98.8261 141.405C97.0612 142.893 95.5289 144.188 94.3846 144.825C93.6282 145.25 93.1433 145.173 92.8524 145.057C92.5615 144.961 92.2706 144.787 91.999 144.555C92.2512 142.101 92.4839 139.84 92.6391 138.236C93.7252 139.106 95.3738 139.975 97.74 139.975L97.7206 140.014ZM118.532 139.917C126.736 133.927 143.454 128.942 149.37 127.3C150.766 128.671 152.919 130.778 155.557 133.328C145.937 135.86 134.843 141.251 127.802 144.671L125.378 145.849C121.732 147.608 118.881 145.482 117.853 143.627C117.445 142.893 116.689 141.096 118.532 139.937V139.917ZM158.873 136.497C160.968 138.507 163.237 140.69 165.623 142.951C160.949 144.284 152.977 146.758 145.782 149.927L138.198 143.994C144.793 140.98 152.415 137.869 158.873 136.478V136.497ZM94.8501 130.855C94.7337 130.275 94.6562 129.715 94.6174 129.251C94.6368 129.193 94.6562 129.135 94.6756 129.097C94.6756 129.444 94.7143 130.082 94.8307 130.855H94.8501ZM90.2923 160.032C90.4086 159.762 90.4668 159.491 90.5056 159.201C90.5056 159.201 91.0099 154.139 91.5529 148.748C91.5529 148.748 91.5917 148.748 91.5917 148.767C92.1542 148.941 92.7166 149.038 93.2985 149.038C94.2876 149.038 95.2962 148.767 96.266 148.226C97.74 147.395 99.3886 146.004 101.309 144.381C103.811 142.275 106.681 139.84 109.843 138.101C112.461 137.599 114.769 137.135 116.243 136.826C113.353 138.739 112.635 142.197 114.478 145.502C116.01 148.226 119.094 150.352 122.721 150.352C124.117 150.352 125.591 150.042 127.085 149.328L129.509 148.149C130.944 147.453 132.535 146.68 134.261 145.869L141.864 151.801C139.478 152.999 137.287 154.274 135.464 155.627C132.477 157.52 131.72 161.037 133.582 164.38C135.114 167.105 138.198 169.23 141.825 169.23C143.222 169.23 144.696 168.921 146.189 168.206L148.594 167.047C150.534 166.1 152.803 164.998 155.247 163.858C157.322 166.486 162.054 174.447 155.46 185.867C155.402 185.983 155.382 186.118 155.344 186.234C152.24 188.669 149.874 192.07 148.807 193.789C142.446 190.369 101.677 168.38 90.0207 160.767C90.1177 160.515 90.2147 160.264 90.3116 160.052L90.2923 160.032ZM160.949 187.548C162.306 187.181 165.681 186.698 169.599 186.157C187.035 183.683 201.737 181.172 204.917 175.877C208.273 177.771 212.132 180.998 213.897 186.215C213.781 186.273 213.665 186.292 213.568 186.389C196.83 199.605 163.936 196.263 152.861 194.678C154.665 192.05 157.749 188.437 160.949 187.567V187.548ZM242.622 158.873C240.061 160.728 229.317 162.467 223.944 163.337C221.52 163.723 219.289 164.09 217.505 164.438C212.656 165.404 209.708 166.621 207.943 167.665C211.182 158.177 209.146 151.839 207.691 148.98C212.831 145.405 216.555 143.241 219.212 141.927C219.328 142.043 219.444 142.178 219.58 142.275C224.119 145.695 239.092 156.979 241.264 158.1C241.671 158.313 242.137 158.583 242.622 158.873ZM220.725 137.077C216.632 138.584 211.027 141.869 203.967 146.874C203.909 146.912 203.851 146.951 203.793 147.009C201.834 148.748 200.127 150.429 198.847 151.743L190.488 145.56L190.294 145.366C192.097 143.337 196.112 139.299 202.125 135.705C208.719 131.782 211.628 131.647 212.152 131.647L220.725 137.077ZM200.146 132.401C198.187 133.56 196.442 134.777 194.89 135.937L189.363 131.435C191.147 130.14 193.067 129.116 194.968 128.691C198.032 127.995 200.515 127.725 202.416 127.628C202.571 127.995 202.784 128.324 203.075 128.613L204.53 130.024C203.23 130.642 201.775 131.415 200.146 132.381V132.401ZM192.097 118.025L200.728 123.879C198.866 124.034 196.655 124.362 194.114 124.923C187.947 126.314 182.148 132.304 179.083 135.975L170.666 129.754C182.07 118.218 190.352 117.947 192.117 118.005L192.097 118.025ZM170.724 115.087C171.092 114.856 171.558 114.546 171.849 114.392C172.819 114.527 175.185 115.358 177.221 116.286C177.958 116.614 178.792 116.633 179.529 116.324C180.829 115.802 182.574 115.435 183.195 115.551C183.369 115.667 183.486 115.783 183.641 115.899C180.829 117.02 177.473 118.894 173.73 121.831C173.691 121.831 173.672 121.793 173.653 121.793C168.532 120.401 164.11 120.962 160.813 121.986C160.929 119.918 161.686 118.875 162.229 118.372C165.332 118.488 168.513 116.498 170.724 115.087ZM209.146 203.064C174.874 214.832 146.247 206.562 143.105 205.576C139.168 203.161 103.345 181.114 95.2574 176.418C89.6522 173.172 89.4195 170.834 89.1867 168.573C89.1091 167.897 89.051 167.201 88.857 166.467C88.76 166.08 88.7988 165.423 88.9346 164.67C102.938 173.558 145.917 196.649 147.818 197.654C147.993 197.751 148.167 197.808 148.361 197.847C149.292 198.021 160.658 200.166 174.525 200.166C188.393 200.166 203.928 198.118 214.809 190.273C215.488 196.108 213.374 201.209 209.146 203.084V203.064ZM251.602 184.147C248.46 186.949 240.236 191.277 220.589 189.326C220.414 187.935 220.123 186.524 219.697 185.094C219.386 184.07 218.998 183.123 218.591 182.215C219.716 182.254 221.074 182.273 222.625 182.273C225.767 182.273 229.627 182.157 233.622 181.751C243.107 180.804 249.875 178.64 253.929 175.297C254.142 176.785 254.239 178.389 254.162 180.109C254.162 180.592 253.696 182.273 251.602 184.128V184.147Z" fill="#725193"/>
</g>
<defs>
<clipPath id="clip0_1050_14236">
<rect width="177" height="109" fill="white" transform="translate(83 106.199)"/>
</clipPath>
</defs>
</svg>
