<svg width="342" height="341" viewBox="0 0 342 341" fill="none" xmlns="http://www.w3.org/2000/svg">
<circle cx="203.333" cy="138.199" r="56" fill="#DAFCC0"/>
<path fill-rule="evenodd" clip-rule="evenodd" d="M209.083 80.3724C211.527 84.3302 229.687 119.411 235.193 130.068L235.216 130.08L237.247 134.015L236.157 135.449C235.893 135.793 229.721 143.823 218.857 145.326L216.942 145.59L215.978 143.903C215.854 143.686 215.73 143.469 215.607 143.253C215.322 142.752 215.039 142.255 214.75 141.758C213.378 139.345 212.054 137.028 210.812 134.857L210.811 134.854C209.864 133.197 208.965 131.625 208.131 130.16C209.577 154.698 212.387 208.364 210.506 225.158C210.368 226.397 210.196 227.476 210.001 228.336L209.668 229.805L208.28 230.367C204.942 231.709 191.371 233.636 185.853 231.938L184.144 231.411L183.857 229.644C183.84 229.54 183.822 229.424 183.801 229.294C183.708 228.707 183.574 227.859 183.386 226.787C178.58 199.266 173.211 190.123 171.295 189.928C169.356 190.123 163.976 199.266 159.204 226.787C159.09 227.468 158.989 228.062 158.906 228.554L158.906 228.554C158.828 229.007 158.766 229.374 158.722 229.644L158.435 231.411L156.726 231.938C155.177 232.409 153.009 232.604 150.6 232.604C144.417 232.604 136.708 231.342 134.31 230.367L132.922 229.805L132.589 228.348C132.371 227.418 132.199 226.351 132.073 225.158C130.192 208.352 133.014 154.687 134.459 130.16C133.576 131.702 132.626 133.363 131.623 135.116L131.593 135.168L131.593 135.168C130.404 137.247 129.141 139.455 127.828 141.747L125.649 145.578L123.733 145.314C112.846 143.812 106.674 135.781 106.422 135.437L105.332 134.003L107.363 130.068C112.869 119.411 131.029 84.3417 133.518 80.315C135.411 77.08 137.407 75.6116 138.738 74.9577C139.289 74.6709 139.793 74.5103 140.172 74.43C141.365 73.9596 146.355 71.975 152.596 69.3709C152.996 69.2012 153.4 69.0341 153.808 68.8659C154.255 68.6816 154.704 68.496 155.154 68.304L156.806 67.6042L158.16 68.7858C163.308 73.3047 170.759 73.0872 171.121 73.0767L171.135 73.0763H171.284H171.444C171.513 73.0878 179.153 73.3975 184.419 68.7858L185.761 67.6042L189.96 69.3594C196.13 71.9249 201.065 73.8891 202.34 74.3966L202.34 74.3966L202.395 74.4185C202.785 74.5103 203.29 74.6709 203.887 74.9806C205.16 75.6001 207.156 77.0685 209.083 80.3724ZM184.694 75.5657C178.752 78.904 172.385 78.8581 171.284 78.8237C170.263 78.8696 164.882 78.904 159.445 76.3802C161.085 81.7261 165.777 85.6265 171.96 85.6265C178.144 85.6265 183.318 81.3246 184.694 75.5657ZM122.632 139.28L122.838 138.913H122.85C129.905 126.592 135.583 116.6 135.583 116.6L137.293 113.583C140.941 100.035 139.954 88.4027 138.967 82.4144L138.907 82.5074L138.907 82.5074L138.907 82.5075C138.752 82.7433 138.59 82.9911 138.428 83.2748C136.501 86.3951 123.24 111.84 112.468 132.695L112.169 133.269C113.901 135.013 117.527 138.053 122.632 139.28ZM153.502 226.087L153.548 225.824C158.114 199.427 162.99 189.802 166.592 186.269C161.395 178.789 152.011 174.556 138.038 173.398C137.201 194.357 136.753 215.396 137.774 224.527C137.809 224.86 137.843 225.17 137.889 225.48C141.514 226.329 149.246 227.189 153.388 226.764C153.421 226.554 153.461 226.326 153.502 226.087L153.502 226.087ZM171.238 184.204H171.341L171.352 184.215C171.398 184.217 171.445 184.219 171.493 184.22L171.494 184.22C171.775 184.229 172.105 184.239 172.477 184.307C178.327 175.68 189.042 170.667 204.368 169.405C203.267 143.41 201.673 118.688 201.638 118.229L201.409 114.708C197.026 98.5553 198.862 85.1791 199.998 79.6726C198.678 79.1449 195.099 77.7109 190.499 75.8181C188.95 84.6399 181.425 91.3739 171.972 91.3739C162.519 91.3739 154.684 84.3646 153.353 75.2789C148.156 77.4356 144.015 79.0876 142.57 79.6611C143.705 85.1676 145.541 98.5208 141.17 114.662L140.941 118.218C140.938 118.262 140.922 118.524 140.893 118.986L140.893 118.987C140.617 123.388 139.207 145.87 138.21 169.394C153.56 170.656 164.263 175.657 170.114 184.296C170.549 184.215 170.928 184.204 171.238 184.204ZM204.718 225.165C204.743 224.965 204.771 224.754 204.793 224.539C205.814 215.407 205.366 194.368 204.529 173.398C190.556 174.556 181.184 178.789 175.976 186.28C179.566 189.814 184.43 199.45 189.031 225.824L189.076 226.087L189.077 226.089L189.077 226.091C189.118 226.328 189.158 226.555 189.191 226.764C193.321 227.189 201.053 226.329 204.678 225.48C204.69 225.379 204.704 225.273 204.718 225.165ZM219.821 139.097C219.858 139.163 219.896 139.229 219.936 139.292V139.303C225.029 138.076 228.654 135.036 230.398 133.292L230.1 132.73C219.316 111.863 206.055 86.4066 204.162 83.3551C203.955 83.0109 203.76 82.7127 203.577 82.4373C202.602 88.4142 201.615 100.035 205.252 113.572L206.984 116.612C206.984 116.612 212.663 126.592 219.706 138.902C219.746 138.965 219.784 139.031 219.821 139.097ZM190.361 124.175C190.361 113.668 181.815 105.122 171.308 105.122C160.789 105.122 152.243 113.668 152.243 124.175C152.243 125.806 150.919 127.13 149.288 127.13C147.657 127.13 146.333 125.806 146.333 124.175C146.333 110.417 157.55 99.2124 171.308 99.2124C185.066 99.2124 196.27 110.405 196.27 124.175C196.27 125.806 194.947 127.13 193.316 127.13C191.685 127.13 190.361 125.806 190.361 124.175ZM171.308 113.609C177.147 113.609 181.898 118.348 181.898 124.187C181.898 125.818 183.222 127.142 184.853 127.142C186.484 127.142 187.808 125.818 187.808 124.187C187.808 115.098 180.409 107.699 171.308 107.699C162.207 107.699 154.808 115.098 154.808 124.187C154.808 125.818 156.132 127.142 157.763 127.142C159.394 127.142 160.718 125.818 160.718 124.187C160.718 118.36 165.469 113.609 171.308 113.609ZM171.308 115.559C176.071 115.559 179.936 119.436 179.936 124.187C179.936 125.818 178.613 127.142 176.982 127.142C175.35 127.142 174.027 125.818 174.027 124.187C174.027 122.686 172.809 121.468 171.308 121.468C169.807 121.468 168.59 122.686 168.59 124.187C168.59 125.818 167.266 127.142 165.635 127.142C164.004 127.142 162.68 125.818 162.68 124.187C162.68 119.424 166.545 115.559 171.308 115.559Z" fill="#725193"/>
</svg>
