<svg width="342" height="341" viewBox="0 0 342 341" fill="none" xmlns="http://www.w3.org/2000/svg">
<path d="M228.435 104.363C228.451 90.487 213.424 81.8112 201.416 88.7633L123.598 133.816C111.615 140.753 111.625 158.058 123.617 164.982L201.327 209.848C213.319 216.771 228.311 208.128 228.327 194.281L228.435 104.363Z" fill="#E8D7F3"/>
<g clip-path="url(#clip0_1050_14253)">
<path d="M189.246 117.263C189.491 117.493 191.62 119.588 190.315 122.313C189.834 123.305 190.246 124.508 191.217 124.999C191.492 125.139 191.786 125.199 192.081 125.199C192.807 125.199 193.503 124.788 193.846 124.077C195.975 119.628 193.474 115.71 191.875 114.277L186.95 109.717C186.146 108.976 184.91 109.036 184.175 109.858C183.449 110.679 183.507 111.942 184.312 112.693L189.246 117.263Z" fill="#725193"/>
<path d="M191.667 178.199C190.567 178.199 189.667 179.059 189.667 180.111V184.287C189.667 185.339 190.567 186.199 191.667 186.199C192.767 186.199 193.667 185.339 193.667 184.287V180.111C193.667 179.059 192.767 178.199 191.667 178.199Z" fill="#725193"/>
<path d="M189.889 157.824V174.24C189.889 175.317 190.739 176.199 191.778 176.199C192.817 176.199 193.667 175.317 193.667 174.24V157.824C193.667 155.013 192.354 152.476 192.203 152.202C191.693 151.262 190.541 150.919 189.634 151.448C188.728 151.977 188.397 153.172 188.907 154.112C188.916 154.132 189.899 155.993 189.889 157.824Z" fill="#725193"/>
<path d="M201.959 202.248C203.813 198.594 203.244 195.793 202.191 194.076V161.03C201.865 152.847 201.391 151.299 200.274 148.266C200.127 147.866 199.969 147.444 199.8 146.949C199.674 146.581 199.548 145.97 200.022 144.991L200.727 143.527C201.012 143.2 201.233 143 201.233 143L201.443 142.821L201.612 142.6C205.14 138.03 202.749 132.827 200.969 130.689C199.516 128.994 199.958 128.015 200.295 127.635L200.527 127.414L200.696 127.141C206.056 118.568 202.77 112.818 200.148 110.838C193.008 104.162 186.205 99.2963 183.54 97.4639L183.425 89.513C185.078 88.9654 186.268 87.4278 186.268 85.5954V75.3171C186.268 72.4947 183.972 70.199 181.15 70.199H163.121C160.298 70.199 158.003 72.4947 158.003 75.3276V85.2584C158.003 87.1014 159.119 88.681 160.709 89.3655V97.4639C158.024 99.3069 151.242 104.172 144.123 110.828C141.5 112.808 138.215 118.558 143.575 127.13L143.691 127.351L143.923 127.572C144.312 128.004 144.755 128.983 143.28 130.711C141.522 132.817 139.12 138.019 142.659 142.59L143.017 142.969C143.017 142.969 143.249 143.179 143.533 143.516L144.239 144.98C144.712 145.96 144.586 146.56 144.46 146.939C144.291 147.434 144.123 147.866 143.975 148.255C142.848 151.288 142.385 152.836 142.059 161.019V194.065C141.005 195.782 140.437 198.583 142.29 202.238C141.185 204.607 139.626 209.451 142.322 214.053C140.932 218.034 140.647 224.574 147.25 228.302C148.535 229.187 155.275 233.178 172.114 233.178H172.125C172.441 233.178 172.746 233.178 173.062 233.178C190.028 233.178 195.63 229.65 197.231 228.176C203.613 224.437 203.328 217.982 201.949 214.053C204.645 209.451 203.086 204.607 201.98 202.238L201.959 202.248ZM147.766 161.198C148.072 153.658 148.472 152.584 149.336 150.256C149.494 149.835 149.662 149.372 149.852 148.845C150.041 148.297 150.168 147.739 150.241 147.181C157.392 148.118 173.568 149.551 194.008 147.097C194.072 147.687 194.198 148.276 194.398 148.845C194.588 149.372 194.756 149.835 194.914 150.267C195.778 152.594 196.178 153.668 196.483 161.209V192.223C172.041 200.869 153.148 194.571 147.787 192.37V161.219L147.766 161.198ZM178.254 97.0111H165.954V89.7341H178.138L178.243 97.0111H178.254ZM163.7 75.9279H180.518V84.0052H163.7V75.9279ZM147.282 115.019L147.577 114.788C155.475 107.374 163.163 102.14 164.521 101.234H179.697C181.055 102.14 188.732 107.384 196.641 114.788L196.883 114.988C197.231 115.261 200.18 117.81 196.346 124.129C194.619 126.056 193.471 130.068 196.915 134.08C197.147 134.375 199.116 136.934 197.557 139.209C197.041 139.683 196.473 140.315 195.957 141.063C171.672 144.327 152.706 141.8 148.304 141.105C147.777 140.336 147.198 139.694 146.671 139.209C145.113 136.934 147.071 134.375 147.271 134.123C150.747 130.068 149.599 126.056 147.872 124.129C144.028 117.82 146.977 115.261 147.282 115.03V115.019ZM196.588 214.928C197.073 215.928 199.253 221.057 194.324 223.774L193.893 223.847L193.566 224.374C192.987 224.848 188.427 228.049 172.125 227.923H172.083C155.991 227.923 150.231 223.984 150.21 223.974L149.894 223.774C144.965 221.057 147.145 215.928 147.619 214.938L148.367 213.443L147.335 212.126C144.46 208.472 147.356 203.796 147.472 203.617L148.398 202.195L147.482 200.763C146.703 199.552 146.397 198.625 146.324 197.962C150.526 199.636 159.266 202.427 171.124 202.427C178.875 202.427 187.932 201.227 197.905 197.762C197.884 198.436 197.599 199.426 196.736 200.774L195.841 202.195L196.736 203.617C196.862 203.817 199.758 208.493 196.883 212.137L195.872 213.443L196.588 214.928Z" fill="#725193"/>
<path d="M183.403 178.869C183.403 168.296 172.198 155.332 172.198 155.332C172.198 155.332 160.993 168.296 160.993 178.869C160.993 185.051 166.006 190.074 172.198 190.074C178.39 190.074 183.403 185.061 183.403 178.869Z" fill="#725193"/>
</g>
<defs>
<clipPath id="clip0_1050_14253">
<rect width="62.881" height="163" fill="white" transform="translate(140.667 70.199)"/>
</clipPath>
</defs>
</svg>
