<svg width="342" height="341" viewBox="0 0 342 341" fill="none" xmlns="http://www.w3.org/2000/svg">
<path d="M173.163 76.1753C180.753 65.7945 196.247 65.7945 203.837 76.1753L214.959 91.3856C217.304 94.5928 220.595 96.9842 224.37 98.2234L242.273 104.1C254.491 108.111 259.279 122.847 251.752 133.274L240.723 148.551C238.397 151.773 237.14 155.642 237.128 159.615L237.071 178.458C237.032 191.317 224.497 200.425 212.254 196.488L194.317 190.719C190.534 189.503 186.466 189.503 182.683 190.719L164.746 196.488C152.503 200.425 139.968 191.317 139.929 178.458L139.872 159.615C139.86 155.642 138.603 151.773 136.277 148.551L125.248 133.274C117.721 122.847 122.509 108.111 134.727 104.1L152.63 98.2234C156.405 96.9842 159.696 94.5928 162.041 91.3856L173.163 76.1753Z" fill="#FFEEB1"/>
<g clip-path="url(#clip0_1050_14264)">
<path d="M221.006 186.654C219.892 171.638 219.539 142.774 219.341 119.269C219.308 117.549 219.308 115.884 219.308 114.297C219.319 108.994 219.319 104.187 217.896 100.527C217.852 100.405 217.797 100.273 217.742 100.152C217.125 98.6965 216.265 97.4286 215.052 96.4033C212.241 94.0109 208.183 93.3604 202.208 94.3417L201.072 94.5401C198.779 94.948 196.387 95.4111 193.961 95.9292V94.6173C193.961 89.1379 193.972 84.4082 192.539 80.803C192.528 80.7589 192.506 80.7258 192.495 80.6817C192.44 80.5384 192.374 80.3951 192.296 80.2517C192.296 80.2407 192.296 80.2297 192.285 80.2187C189.628 74.177 184.237 73.5927 176.972 74.5849C172.231 75.2464 148.439 78.9839 142.386 88.4984C142.386 88.4984 142.364 88.5315 142.342 88.5646C142.32 88.5866 142.298 88.6197 142.276 88.6528C142.265 88.6748 142.254 88.6969 142.221 88.7189L142.199 88.763C141.912 89.193 141.427 90.064 141.174 91.1775L141.152 91.2326C140.843 92.3572 140.766 93.5038 140.92 94.6724C141.284 103.062 142.331 112.169 142.342 112.29L144.657 130.79C144.702 131.121 149.299 164.361 132.31 174.526L131.141 174.956C122.42 178.242 110.612 182.674 112.487 194.272C111.395 195.738 110.943 197.8 111.009 199.608C111.131 202.971 112.895 205.595 115.717 206.631L115.86 206.675C118.903 207.601 127.062 209.233 137.844 209.431C137.59 210.82 137.579 212.331 137.844 213.996C136.753 215.473 136.29 217.535 136.367 219.354C136.488 222.705 138.252 225.329 141.085 226.355L141.218 226.399C141.405 226.454 151.096 229.199 165.726 229.199C180.356 229.199 199.066 226.575 218.547 216.245C220.09 215.528 221.182 213.808 221.535 211.482C221.821 209.641 221.612 207.27 220.399 205.385C221.877 200.192 222.24 195.959 221.006 186.654ZM213.939 130.25C214.148 151.33 214.556 174.251 215.515 187.15V187.304C216.43 194.029 216.43 197.635 215.813 200.898C202.914 209.101 188.239 212.518 175.34 213.676C175.439 208.307 174.061 203.919 171.217 200.633C169.155 198.252 166.652 196.852 164.447 196.025C179.937 181.957 175.671 151.131 175.461 149.775L173.256 135.699C176.046 136.438 180.84 137.199 186 137.199C193.563 137.199 203.156 136.071 213.927 130.239L213.939 130.25ZM143.235 212.595C142.618 206.322 148.693 203.522 158.406 199.873L159.828 199.332L160.236 199.145C160.357 199.079 161.89 198.265 162 198.199C163.996 198.596 166.563 200.388 169 203.199C171.26 205.812 172.132 209.431 172 213.996C158.715 214.767 147.359 213.29 143.235 212.606V212.595ZM213.762 109.755C213.795 111.188 213.784 112.709 213.784 114.297C213.784 115.884 213.784 117.637 213.817 119.357C213.839 121.485 213.85 123.657 213.883 125.851C194.689 136.975 178.581 133.679 173.256 132.058L173.168 131.363C173.135 131.055 172.451 125.09 172.022 118.497C174.017 119.082 176.575 119.368 179.717 119.368C180.279 119.368 180.853 119.368 181.448 119.346H181.635C195.67 117.946 207.643 114.286 213.762 109.755ZM154.348 99.6447C154.911 99.6447 155.484 99.6336 156.09 99.6226L156.278 99.6006C170.302 98.2114 182.275 94.5622 188.405 90.0199C188.438 91.4531 188.438 92.9966 188.438 94.6173C188.438 95.4772 188.438 96.3592 188.449 97.2412C180.015 99.4352 172.099 102.544 168.394 107.175C167.898 107.792 167.479 108.432 167.148 109.104C166.432 110.526 166.09 112.081 166.2 113.779C157.48 114.782 150.931 113.294 147.888 112.345L147.8 111.64C147.8 111.563 147.105 105.499 146.664 98.7737C148.66 99.358 151.217 99.6447 154.348 99.6447ZM150.104 130.063L148.5 116.199C151.3 116.916 154.329 117.637 159.5 117.637C161.341 117.637 164.359 117.869 166.432 117.637C166.873 124.925 167.656 131.661 167.689 131.992L170.004 150.514C170.048 150.845 174.204 181.02 159.894 192.651C156.719 193.225 153.4 193.677 149.972 193.985C150.071 188.594 148.704 184.195 145.848 180.91C143.787 178.528 141.284 177.128 139.079 176.29C154.569 162.222 150.302 131.408 150.104 130.052V130.063ZM133.07 180.138L134.47 179.609L134.878 179.41C134.989 179.344 135.89 178.765 136 178.699C137.996 179.096 140.788 179.888 143.235 182.699C145.506 185.323 147.143 189.697 147 194.272C133.781 195.044 122.023 193.577 117.878 192.883C117.26 186.61 123.335 183.798 133.07 180.149V180.138ZM117.536 201.438C117.304 201.35 116.841 201.107 116.61 200.225C116.423 199.509 116.489 198.781 116.621 198.263C119.984 198.847 128.054 200.038 138.539 200.038C140.655 200.038 142.871 199.983 145.165 199.873C143.323 201.041 141.67 202.375 140.391 203.952C128.693 203.996 120.061 202.188 117.536 201.438ZM215.868 211.427C179.75 230.544 144.503 221.592 142.882 221.151C142.651 221.063 142.199 220.809 141.967 219.949C141.78 219.243 141.846 218.516 141.978 217.987C145.396 218.593 153.533 219.806 164.05 219.806C178.692 219.806 197.864 217.424 215.085 207.755L215.548 208.152C216.287 208.759 216.221 210.71 215.868 211.427Z" fill="#725193"/>
</g>
<defs>
<clipPath id="clip0_1050_14264">
<rect width="110.746" height="155" fill="white" transform="translate(111 74.199)"/>
</clipPath>
</defs>
</svg>
