<svg width="342" height="341" viewBox="0 0 342 341" fill="none" xmlns="http://www.w3.org/2000/svg">
<path d="M143.748 78.8549C156.632 77.1471 169.15 83.9297 174.756 95.6555L193.475 134.811C199.08 146.537 196.498 160.538 187.079 169.493L155.624 199.395C146.204 208.35 132.09 210.221 120.663 204.029L82.5041 183.355C71.0768 177.163 64.9358 164.318 67.293 151.537L75.1642 108.857C77.5214 96.0754 87.8405 86.2656 100.725 84.5578L143.748 78.8549Z" fill="#C9E7E5"/>
<g clip-path="url(#clip0_1050_14270)">
<path d="M258.385 127.656L214.673 91.7779C214.216 91.4033 213.658 91.199 213.065 91.199H195.093C194.128 91.199 193.248 91.7439 192.825 92.6123C188.544 101.28 180.302 106.661 171.35 106.661C162.398 106.661 154.156 101.28 149.875 92.6123C149.451 91.7439 148.571 91.199 147.607 91.199H129.635C129.042 91.199 128.484 91.4033 128.027 91.7779L84.2638 127.656C83.2484 128.491 83.0284 129.938 83.7392 131.045L102.761 160.112C103.539 161.287 105.113 161.611 106.281 160.845L127.045 147.086V223.662C127.045 225.075 128.179 226.216 129.584 226.216H213.048C214.453 226.216 215.587 225.075 215.587 223.662V147.086L236.351 160.845C237.519 161.611 239.093 161.287 239.871 160.112L258.893 131.045C259.604 129.955 259.384 128.491 258.368 127.656H258.385ZM105.621 155.157L89.2561 130.16L92.4715 127.52L108.971 152.96L105.621 155.174V155.157ZM132.139 221.091V218.111H210.527V221.091H132.139ZM214.47 140.206C213.691 139.695 212.693 139.644 211.864 140.087C211.035 140.53 210.527 141.398 210.527 142.335V214.705H132.139V142.335C132.139 141.398 131.631 140.53 130.802 140.087C129.99 139.644 128.975 139.678 128.196 140.206L111.781 151.07L95.0945 125.341L130.498 96.3075H142.191C147.675 108.227 158.928 115.856 171.333 115.856C183.738 115.856 194.975 108.227 200.475 96.3075H212.168L247.605 125.392L230.919 151.121L214.47 140.223V140.206ZM237.045 155.157L233.745 152.977L250.245 127.554L253.41 130.16L237.045 155.174V155.157Z" fill="#725193"/>
<path d="M158.733 148.119V156.159C158.733 156.932 158.92 157.559 159.293 158.039C159.666 158.519 160.213 158.759 160.933 158.759C161.653 158.759 162.2 158.519 162.573 158.039C162.946 157.559 163.133 156.932 163.133 156.159V148.119C163.133 146.386 162.4 145.519 160.933 145.519C159.466 145.519 158.733 146.386 158.733 148.119ZM173.533 148.519V155.839C173.533 159.279 172.4 161.932 170.133 163.799C167.893 165.666 164.826 166.599 160.933 166.599C157.04 166.599 153.96 165.666 151.693 163.799C149.453 161.906 148.333 159.226 148.333 155.759V148.599C148.333 145.159 149.493 142.506 151.813 140.639C154.16 138.746 157.2 137.799 160.933 137.799C164.666 137.799 167.693 138.746 170.013 140.639C172.36 142.506 173.533 145.132 173.533 148.519Z" fill="#725193"/>
<path d="M193.632 139.279V165.119C193.632 165.412 193.525 165.666 193.312 165.879C193.098 166.092 192.845 166.199 192.552 166.199H184.712C184.418 166.199 184.165 166.092 183.952 165.879C183.738 165.666 183.632 165.412 183.632 165.119V148.959L179.152 152.399C178.938 152.559 178.698 152.639 178.432 152.639C178.192 152.639 177.925 152.452 177.632 152.079L174.112 147.519C174.005 147.332 173.952 147.159 173.952 146.999C173.952 146.519 174.125 146.172 174.472 145.959L184.112 138.479C184.378 138.292 184.672 138.199 184.992 138.199H192.552C192.845 138.199 193.098 138.306 193.312 138.519C193.525 138.732 193.632 138.986 193.632 139.279Z" fill="#725193"/>
</g>
<defs>
<clipPath id="clip0_1050_14270">
<rect width="176" height="135" fill="white" transform="translate(83.333 91.199)"/>
</clipPath>
</defs>
</svg>
