<svg width="342" height="341" viewBox="0 0 342 341" fill="none" xmlns="http://www.w3.org/2000/svg">
<path d="M128.163 65.1753C135.753 54.7945 151.247 54.7945 158.837 65.1753L169.959 80.3856C172.304 83.5928 175.595 85.9842 179.37 87.2234L197.273 93.1003C209.491 97.1112 214.279 111.847 206.752 122.274L195.723 137.551C193.397 140.773 192.14 144.642 192.128 148.615L192.071 167.458C192.032 180.317 179.497 189.425 167.254 185.488L149.317 179.719C145.534 178.503 141.466 178.503 137.683 179.719L119.746 185.488C107.503 189.425 94.968 180.317 94.929 167.458L94.872 148.615C94.8599 144.642 93.6027 140.773 91.2771 137.551L80.2479 122.274C72.7207 111.847 77.5088 97.1112 89.727 93.1003L107.63 87.2234C111.405 85.9842 114.696 83.5928 117.041 80.3856L128.163 65.1753Z" fill="#C9E7E5"/>
<path fill-rule="evenodd" clip-rule="evenodd" d="M175.028 113.387C182.559 113.387 188.69 107.265 188.69 99.7454C188.69 88.108 176.99 74.4558 176.494 73.8832L175.028 72.1987L173.572 73.8832C173.076 74.4558 161.376 88.119 161.376 99.7454C161.365 107.276 167.496 113.387 175.028 113.387ZM175.028 78.2211C178.071 82.1737 184.831 91.8183 184.831 99.7564C184.831 105.151 180.431 109.544 175.028 109.544C169.624 109.544 165.224 105.151 165.224 99.7564C165.224 91.8183 171.973 82.1737 175.028 78.2211ZM155.511 118.563C155.511 125.037 150.262 130.278 143.778 130.278C137.305 130.278 132.056 125.037 132.056 118.574C132.056 107.52 143.778 93.9561 143.778 93.9561C143.778 93.9561 155.511 107.509 155.511 118.563ZM232.81 162.865C232.523 162.997 230.825 163.702 225.113 165.342C231.742 152.374 234.667 146.576 235.616 144.695C235.753 144.423 235.848 144.233 235.908 144.115C236.085 143.818 236.173 143.488 236.173 143.146C236.173 142.64 235.974 142.133 235.566 141.748C234.872 141.088 233.802 141.055 233.063 141.616C232.556 141.979 229.491 144.126 224.076 146.229C231.967 130.807 235.334 124.127 236.364 122.085L236.365 122.082L236.366 122.081L236.535 121.746L236.636 121.545C236.879 121.127 237 120.653 237 120.191C237 119.464 236.713 118.738 236.14 118.198C235.169 117.273 233.692 117.207 232.633 117.956C232.615 117.969 232.596 117.983 232.575 117.997C232.544 118.017 232.512 118.04 232.479 118.066C230.593 119.409 226.105 121.963 217.261 124.044C215.784 124.397 214.857 125.872 215.21 127.347C215.563 128.823 217.041 129.747 218.519 129.395C221.959 128.591 225.135 127.622 227.947 126.521L226.953 128.473C224.99 132.33 222.274 137.667 218.53 144.985C206.157 161.929 171.4 154.189 163.824 150.215C141.77 138.632 124.7 143.036 114.941 148.013L120.013 137.873C120.027 137.851 120.037 137.83 120.048 137.806C120.054 137.792 120.06 137.778 120.068 137.763C121.083 135.495 124.6 129.153 128.647 126.973C129.993 126.257 130.489 124.584 129.772 123.241C129.055 121.897 127.379 121.402 126.034 122.118C119.704 125.509 115.47 134.548 115.062 135.45L105.292 154.949C104.685 156.16 105.049 157.635 106.163 158.417C107.266 159.21 108.787 159.067 109.736 158.098C109.813 158.021 113.143 154.718 119.208 151.976L106.031 178.301C105.612 179.149 105.865 180.184 106.637 180.734C107.42 181.285 108.479 181.185 109.14 180.514C109.217 180.437 112.327 177.365 117.984 174.646L105.292 200.001C104.685 201.212 105.049 202.677 106.152 203.469C107.255 204.262 108.765 204.13 109.725 203.161C110.53 202.357 129.739 183.542 161.255 200.1C166.305 202.754 178.457 206.079 191.083 206.079C203.334 206.079 216.037 202.952 223.128 193.043C223.205 192.933 223.282 192.812 223.337 192.691C232.732 174.326 236.052 167.731 236.625 166.575C236.868 166.157 236.989 165.684 236.989 165.21C236.989 164.506 236.713 163.801 236.173 163.261C235.269 162.359 233.879 162.226 232.81 162.865ZM113.033 172.95L124.501 150.039C133.367 147.429 145.894 146.989 161.266 155.059C166.316 157.712 178.468 161.037 191.094 161.037C201.68 161.037 212.586 158.692 219.93 151.668C223.9 150.534 227.131 149.224 229.601 148.035C229.245 148.733 228.852 149.505 228.419 150.357C226.366 154.394 223.406 160.213 219.235 168.359C218.651 169.174 217.956 169.988 217.195 170.77C203.169 185.028 171.212 177.993 163.438 173.897C145.364 164.406 130.72 165.794 120.785 169.339L120.664 169.273L120.597 169.405C117.642 170.473 115.106 171.739 113.033 172.95ZM218.53 190.004C206.157 206.949 171.4 199.209 163.824 195.234C141.77 183.652 124.689 188.056 114.941 193.043L125.527 171.871C134.47 169.537 146.754 169.482 161.64 177.31C166.338 179.787 178.49 183.123 191.127 183.123C201.779 183.123 212.784 180.745 219.952 173.468C220.514 172.895 221.033 172.301 221.518 171.695L221.606 172.025C223.911 171.398 226.436 170.693 228.719 170.021L228.685 170.089C226.708 173.98 223.54 180.218 218.53 190.004ZM160.218 125.894C169.856 129.516 174.752 130.419 182.747 131.168C182.835 131.179 182.923 131.179 183.011 131.179H183.012C184.412 131.179 185.614 130.111 185.757 128.69C185.901 127.182 184.787 125.839 183.276 125.696C175.458 124.958 171.091 124.099 162.17 120.752C160.748 120.213 159.16 120.939 158.62 122.36C158.079 123.769 158.796 125.354 160.218 125.894ZM212.487 131.421C212.487 137.894 207.238 143.135 200.754 143.135C194.27 143.135 189.022 137.894 189.022 131.421C189.022 120.378 200.754 106.814 200.754 106.814C200.754 106.814 212.487 120.367 212.487 131.421ZM129.001 163.393C130.688 163.393 132.055 162.028 132.055 160.344C132.055 158.659 130.688 157.294 129.001 157.294C127.314 157.294 125.946 158.659 125.946 160.344C125.946 162.028 127.314 163.393 129.001 163.393ZM142.497 154.244C142.497 155.929 141.13 157.294 139.442 157.294C137.755 157.294 136.388 155.929 136.388 154.244C136.388 152.56 137.755 151.195 139.442 151.195C141.13 151.195 142.497 152.56 142.497 154.244ZM146.832 163.393C148.519 163.393 149.886 162.028 149.886 160.344C149.886 158.659 148.519 157.294 146.832 157.294C145.145 157.294 143.777 158.659 143.777 160.344C143.777 162.028 145.145 163.393 146.832 163.393ZM161.189 160.344C161.189 162.028 159.822 163.393 158.135 163.393C156.448 163.393 155.08 162.028 155.08 160.344C155.08 158.659 156.448 157.294 158.135 157.294C159.822 157.294 161.189 158.659 161.189 160.344ZM166.349 171.299C168.036 171.299 169.403 169.933 169.403 168.249C169.403 166.564 168.036 165.199 166.349 165.199C164.662 165.199 163.294 166.564 163.294 168.249C163.294 169.944 164.662 171.299 166.349 171.299ZM181.125 165.21C181.125 166.894 179.758 168.26 178.071 168.26C176.384 168.26 175.016 166.894 175.016 165.21C175.016 163.526 176.384 162.16 178.071 162.16C179.758 162.16 181.125 163.526 181.125 165.21ZM186.75 175.593C188.437 175.593 189.805 174.227 189.805 172.543C189.805 170.858 188.437 169.493 186.75 169.493C185.063 169.493 183.696 170.858 183.696 172.543C183.707 174.227 185.074 175.593 186.75 175.593ZM198.262 165.21C198.262 166.894 196.895 168.26 195.208 168.26C193.521 168.26 192.153 166.894 192.153 165.21C192.153 163.526 193.521 162.16 195.208 162.16C196.895 162.16 198.262 163.526 198.262 165.21ZM205.871 172.554C207.558 172.554 208.925 171.189 208.925 169.504C208.925 167.819 207.558 166.454 205.871 166.454C204.184 166.454 202.816 167.819 202.816 169.504C202.816 171.189 204.184 172.554 205.871 172.554ZM217.901 161.246C217.901 162.931 216.534 164.296 214.847 164.296C213.16 164.296 211.792 162.931 211.792 161.246C211.792 159.562 213.16 158.197 214.847 158.197C216.534 158.197 217.901 159.562 217.901 161.246Z" fill="#725193"/>
</svg>
