<svg width="25" height="24" viewBox="0 0 25 24" fill="none" xmlns="http://www.w3.org/2000/svg">
<path d="M20 0C21.2396 0 22.2995 0.440104 23.1797 1.32031C24.0599 2.20052 24.5 3.26042 24.5 4.5V19.5C24.5 20.7396 24.0599 21.7995 23.1797 22.6797C22.2995 23.5599 21.2396 24 20 24H17.0625V14.7031H20.1719L20.6406 11.0781H17.0625V8.76562C17.0625 8.18229 17.1849 7.74479 17.4297 7.45312C17.6745 7.16146 18.151 7.01562 18.8594 7.01562L20.7656 7V3.76562C20.1094 3.67188 19.1823 3.625 17.9844 3.625C16.5677 3.625 15.4349 4.04167 14.5859 4.875C13.737 5.70833 13.3125 6.88542 13.3125 8.40625V11.0781H10.1875V14.7031H13.3125V24H5C3.76042 24 2.70052 23.5599 1.82031 22.6797C0.940104 21.7995 0.5 20.7396 0.5 19.5V4.5C0.5 3.26042 0.940104 2.20052 1.82031 1.32031C2.70052 0.440104 3.76042 0 5 0H20Z" fill="white"/>
</svg>
