<svg width="37" height="24" viewBox="0 0 37 24" fill="none" xmlns="http://www.w3.org/2000/svg">
<path d="M22.9531 12.2667C22.9531 14.4422 22.5 16.3798 21.5938 18.0795C20.6875 19.7791 19.3958 21.1074 17.7188 22.0645C16.0417 23.0215 14.1198 23.5 11.9531 23.5C10.401 23.5 8.91667 23.1967 7.5 22.59C6.08333 21.9834 4.86458 21.1676 3.84375 20.1426C2.82292 19.1176 2.01042 17.8938 1.40625 16.4714C0.802083 15.0489 0.5 13.5584 0.5 12C0.5 10.4416 0.802083 8.95111 1.40625 7.52865C2.01042 6.10618 2.82292 4.88245 3.84375 3.85744C4.86458 2.83242 6.08333 2.0166 7.5 1.40996C8.91667 0.803319 10.401 0.5 11.9531 0.5C14.9323 0.5 17.4896 1.50409 19.625 3.51228L16.5156 6.50887C15.2969 5.32697 13.776 4.73602 11.9531 4.73602C10.6719 4.73602 9.48698 5.06025 8.39844 5.70873C7.3099 6.35721 6.44792 7.2384 5.8125 8.35232C5.17708 9.46623 4.85938 10.6821 4.85938 12C4.85938 13.3179 5.17708 14.5338 5.8125 15.6477C6.44792 16.7616 7.3099 17.6428 8.39844 18.2913C9.48698 18.9397 10.6719 19.264 11.9531 19.264C12.8177 19.264 13.612 19.1437 14.3359 18.9031C15.0599 18.6626 15.6562 18.3619 16.125 18.001C16.5938 17.6402 17.0026 17.2296 17.3516 16.7694C17.7005 16.3092 17.9557 15.8752 18.1172 15.4673C18.2786 15.0593 18.3906 14.6724 18.4531 14.3063H11.9531V10.3527H22.7656C22.8906 11.0116 22.9531 11.6496 22.9531 12.2667ZM36.5 10.3527V13.6473H33.2344V16.9263H29.9531V13.6473H26.6875V10.3527H29.9531V7.07367H33.2344V10.3527H36.5Z" fill="white"/>
</svg>
