<svg width="37" height="34" viewBox="0 0 37 34" fill="none" xmlns="http://www.w3.org/2000/svg">
<path d="M27.75 15.3C26.1264 15.2995 24.5313 15.6918 23.125 16.4373C22.9069 16.5451 22.7146 16.6921 22.5595 16.8695C22.4044 17.0469 22.2896 17.2511 22.222 17.47C22.1544 17.6889 22.1353 17.9181 22.1658 18.1439C22.1963 18.3697 22.2759 18.5876 22.3998 18.7847C22.5237 18.9817 22.6893 19.1539 22.887 19.291C23.0846 19.4282 23.3102 19.5274 23.5503 19.5829C23.7905 19.6385 24.0403 19.6491 24.2851 19.6142C24.5298 19.5794 24.7644 19.4997 24.975 19.38C25.819 18.9322 26.7764 18.6966 27.7509 18.6967C28.7254 18.6969 29.6827 18.9328 30.5265 19.3808C31.3704 19.8288 32.0709 20.4731 32.5578 21.2489C33.0446 22.0246 33.3006 22.9045 33.3 23.8V25.5H29.6C29.1094 25.5 28.6388 25.6791 28.2919 25.9979C27.9449 26.3167 27.75 26.7491 27.75 27.2C27.75 27.6509 27.9449 28.0833 28.2919 28.4021C28.6388 28.7209 29.1094 28.9 29.6 28.9H35.15C35.6407 28.9 36.1112 28.7209 36.4581 28.4021C36.8051 28.0833 37 27.6509 37 27.2V23.8C36.9971 21.5465 36.0216 19.386 34.2875 17.7926C32.5534 16.1991 30.2024 15.3027 27.75 15.3ZM27.75 13.6C29.222 13.6 30.6336 13.0627 31.6744 12.1062C32.7153 11.1498 33.3 9.8526 33.3 8.5V6.8C33.3 5.4474 32.7153 4.15019 31.6744 3.19376C30.6336 2.23732 29.222 1.7 27.75 1.7C26.278 1.7 24.8664 2.23732 23.8256 3.19376C22.7847 4.15019 22.2 5.4474 22.2 6.8V8.5C22.2 9.8526 22.7847 11.1498 23.8256 12.1062C24.8664 13.0627 26.278 13.6 27.75 13.6ZM25.9 6.8C25.9 6.34913 26.0949 5.91673 26.4419 5.59792C26.7888 5.27911 27.2593 5.1 27.75 5.1C28.2407 5.1 28.7112 5.27911 29.0581 5.59792C29.4051 5.91673 29.6 6.34913 29.6 6.8V8.5C29.6 8.95087 29.4051 9.38327 29.0581 9.70208C28.7112 10.0209 28.2407 10.2 27.75 10.2C27.2593 10.2 26.7888 10.0209 26.4419 9.70208C26.0949 9.38327 25.9 8.95087 25.9 8.5V6.8Z" fill="#FAC600"/>
<path d="M12.95 17C9.51665 17.0036 6.22504 18.2585 3.79729 20.4894C1.36955 22.7203 0.00391712 25.745 0 28.9V32.3C0 32.7509 0.19491 33.1833 0.541852 33.5021C0.888795 33.8209 1.35935 34 1.85 34H24.05C24.5407 34 25.0112 33.8209 25.3581 33.5021C25.7051 33.1833 25.9 32.7509 25.9 32.3V28.9C25.8961 25.745 24.5305 22.7203 22.1027 20.4894C19.675 18.2585 16.3834 17.0036 12.95 17ZM22.2 30.6H3.7V28.9C3.7 26.6457 4.67455 24.4837 6.40926 22.8896C8.14397 21.2955 10.4967 20.4 12.95 20.4C15.4033 20.4 17.756 21.2955 19.4907 22.8896C21.2254 24.4837 22.2 26.6457 22.2 28.9V30.6ZM12.95 15.3C14.9126 15.3 16.7948 14.5836 18.1826 13.3083C19.5704 12.0331 20.35 10.3035 20.35 8.5V6.8C20.35 4.99653 19.5704 3.26692 18.1826 1.99167C16.7948 0.716427 14.9126 0 12.95 0C10.9874 0 9.10518 0.716427 7.71741 1.99167C6.32964 3.26692 5.55 4.99653 5.55 6.8V8.5C5.55 10.3035 6.32964 12.0331 7.71741 13.3083C9.10518 14.5836 10.9874 15.3 12.95 15.3ZM9.25 6.8C9.25 5.89826 9.63982 5.03346 10.3337 4.39584C11.0276 3.75821 11.9687 3.4 12.95 3.4C13.9313 3.4 14.8724 3.75821 15.5663 4.39584C16.2602 5.03346 16.65 5.89826 16.65 6.8V8.5C16.65 9.40174 16.2602 10.2665 15.5663 10.9042C14.8724 11.5418 13.9313 11.9 12.95 11.9C11.9687 11.9 11.0276 11.5418 10.3337 10.9042C9.63982 10.2665 9.25 9.40174 9.25 8.5V6.8Z" fill="#FAC600"/>
</svg>
