<svg width="24" height="24" viewBox="0 0 24 24" fill="none" xmlns="http://www.w3.org/2000/svg">
<g clip-path="url(#clip0_299_2197)">
<path d="M12 12C13.1867 12 14.3467 11.6481 15.3334 10.9888C16.3201 10.3295 17.0892 9.39246 17.5433 8.2961C17.9974 7.19975 18.1162 5.99335 17.8847 4.82946C17.6532 3.66558 17.0818 2.59648 16.2426 1.75736C15.4035 0.918247 14.3344 0.346802 13.1705 0.115291C12.0067 -0.11622 10.8003 0.00259972 9.7039 0.456726C8.60754 0.910851 7.67047 1.67989 7.01118 2.66658C6.35189 3.65328 6 4.81331 6 6C6 7.5913 6.63214 9.11742 7.75736 10.2426C8.88258 11.3679 10.4087 12 12 12ZM12 3C12.5933 3 13.1734 3.17595 13.6667 3.50559C14.1601 3.83524 14.5446 4.30377 14.7716 4.85195C14.9987 5.40013 15.0581 6.00333 14.9424 6.58527C14.8266 7.16722 14.5409 7.70177 14.1213 8.12132C13.7018 8.54088 13.1672 8.8266 12.5853 8.94236C12.0033 9.05812 11.4001 8.9987 10.8519 8.77164C10.3038 8.54458 9.83524 8.16006 9.50559 7.66671C9.17595 7.17337 9 6.59335 9 6C9 5.20435 9.31607 4.44129 9.87868 3.87868C10.4413 3.31607 11.2044 3 12 3Z" fill="white"/>
<path d="M18.8 15.52C19.1682 15.2782 19.4706 14.9488 19.68 14.5614C19.8895 14.1739 19.9994 13.7405 20 13.3C20.0083 13.0351 19.9623 12.7713 19.8647 12.5249C19.7671 12.2785 19.6201 12.0547 19.4327 11.8673C19.2453 11.6799 19.0215 11.5328 18.7751 11.4353C18.5287 11.3377 18.2649 11.2917 18 11.3C17.5627 11.3007 17.1376 11.4447 16.79 11.71C15.3968 12.7512 13.7042 13.3138 11.965 13.3138C10.2257 13.3138 8.53315 12.7512 7.13998 11.71C6.80557 11.4766 6.4078 11.351 5.99998 11.35C5.73508 11.3417 5.47129 11.3877 5.22487 11.4853C4.97845 11.5828 4.75464 11.7299 4.56724 11.9173C4.37983 12.1047 4.23282 12.3285 4.13525 12.5749C4.03769 12.8213 3.99165 13.0851 3.99998 13.35C4.00056 13.7905 4.11051 14.2239 4.31996 14.6114C4.52941 14.9988 4.8318 15.3282 5.19998 15.57C6.17122 16.1909 7.22484 16.6722 8.32998 17L8.96998 17.18L5.68998 20.4C5.49164 20.5962 5.33418 20.8298 5.22672 21.0873C5.11926 21.3448 5.06393 21.621 5.06393 21.9C5.06393 22.179 5.11926 22.4552 5.22672 22.7127C5.33418 22.9702 5.49164 23.2038 5.68998 23.4C6.09142 23.7909 6.62963 24.0097 7.18998 24.0097C7.75033 24.0097 8.28854 23.7909 8.68998 23.4L12 19.93L15.33 23.38C15.7278 23.7778 16.2674 24.0013 16.83 24.0013C17.3926 24.0013 17.9322 23.7778 18.33 23.38C18.7278 22.9822 18.9513 22.4426 18.9513 21.88C18.9513 21.3174 18.7278 20.7778 18.33 20.38L15 17.19L15.65 17.01C16.7654 16.6655 17.8261 16.1638 18.8 15.52Z" fill="white"/>
</g>
<defs>
<clipPath id="clip0_299_2197">
<rect width="24" height="24" fill="white"/>
</clipPath>
</defs>
</svg>
