<svg width="105" height="105" viewBox="0 0 105 105" fill="none" xmlns="http://www.w3.org/2000/svg">
<path d="M52.5 77C55.9612 77 59.3446 75.9736 62.2225 74.0507C65.1003 72.1278 67.3434 69.3947 68.6679 66.197C69.9924 62.9993 70.339 59.4806 69.6637 56.0859C68.9885 52.6912 67.3218 49.5731 64.8744 47.1256C62.4269 44.6782 59.3088 43.0115 55.9141 42.3363C52.5194 41.661 49.0007 42.0076 45.803 43.3321C42.6053 44.6566 39.8722 46.8997 37.9493 49.7775C36.0264 52.6554 35 56.0388 35 59.5C35.0051 64.1397 36.8505 68.588 40.1313 71.8687C43.412 75.1495 47.8603 76.9949 52.5 77ZM52.5 45.5C55.2689 45.5 57.9757 46.3211 60.278 47.8594C62.5803 49.3978 64.3747 51.5843 65.4343 54.1424C66.4939 56.7006 66.7712 59.5155 66.231 62.2313C65.6908 64.947 64.3574 67.4416 62.3995 69.3995C60.4416 71.3574 57.947 72.6908 55.2313 73.231C52.5155 73.7712 49.7006 73.4939 47.1424 72.4343C44.5843 71.3747 42.3978 69.5803 40.8594 67.278C39.3211 64.9757 38.5 62.2689 38.5 59.5C38.5042 55.7882 39.9805 52.2297 42.6051 49.6051C45.2297 46.9805 48.7882 45.5042 52.5 45.5Z" fill="#FAC600"/>
<path d="M52.5 64.75C52.0359 64.75 51.5908 64.5656 51.2626 64.2374C50.9344 63.9092 50.75 63.4641 50.75 63C50.75 62.5359 50.5656 62.0908 50.2374 61.7626C49.9092 61.4344 49.4641 61.25 49 61.25C48.5359 61.25 48.0908 61.4344 47.7626 61.7626C47.4344 62.0908 47.25 62.5359 47.25 63C47.2545 64.082 47.5931 65.1361 48.2197 66.0182C48.8462 66.9003 49.7299 67.5674 50.75 67.928V70C50.75 70.4641 50.9344 70.9092 51.2626 71.2374C51.5908 71.5656 52.0359 71.75 52.5 71.75C52.9641 71.75 53.4092 71.5656 53.7374 71.2374C54.0656 70.9092 54.25 70.4641 54.25 70V67.928C55.4167 67.5171 56.4003 66.7065 57.0266 65.6398C57.6529 64.5732 57.8815 63.3192 57.6719 62.1002C57.4623 60.8811 56.828 59.7756 55.8814 58.9794C54.9348 58.1832 53.7369 57.7477 52.5 57.75C52.1539 57.75 51.8155 57.6474 51.5278 57.4551C51.24 57.2628 51.0157 56.9895 50.8832 56.6697C50.7508 56.3499 50.7161 55.9981 50.7836 55.6586C50.8512 55.3191 51.0178 55.0073 51.2626 54.7626C51.5073 54.5178 51.8191 54.3512 52.1586 54.2836C52.4981 54.2161 52.8499 54.2508 53.1697 54.3832C53.4895 54.5157 53.7628 54.74 53.9551 55.0278C54.1474 55.3155 54.25 55.6539 54.25 56C54.25 56.4641 54.4344 56.9092 54.7626 57.2374C55.0908 57.5656 55.5359 57.75 56 57.75C56.4641 57.75 56.9092 57.5656 57.2374 57.2374C57.5656 56.9092 57.75 56.4641 57.75 56C57.7455 54.918 57.4069 53.8639 56.7803 52.9818C56.1538 52.0997 55.2701 51.4326 54.25 51.072V49C54.25 48.5359 54.0656 48.0908 53.7374 47.7626C53.4092 47.4344 52.9641 47.25 52.5 47.25C52.0359 47.25 51.5908 47.4344 51.2626 47.7626C50.9344 48.0908 50.75 48.5359 50.75 49V51.072C49.5833 51.4829 48.5997 52.2935 47.9734 53.3602C47.3471 54.4268 47.1185 55.6808 47.3281 56.8998C47.5377 58.1189 48.172 59.2244 49.1186 60.0206C50.0652 60.8168 51.2631 61.2523 52.5 61.25C52.9641 61.25 53.4092 61.4344 53.7374 61.7626C54.0656 62.0908 54.25 62.5359 54.25 63C54.25 63.4641 54.0656 63.9092 53.7374 64.2374C53.4092 64.5656 52.9641 64.75 52.5 64.75Z" fill="#FAC600"/>
<path d="M100.132 59.5H88.7915C86.1299 50.8166 81.0999 43.0474 74.2665 37.065L64.5435 28.5565C65.2975 27.9553 65.8696 27.1564 66.1961 26.249C66.5225 25.3416 66.5904 24.3614 66.3923 23.4176C66.1941 22.4739 65.7376 21.6037 65.0737 20.9043C64.4098 20.2048 63.5646 19.7036 62.6325 19.4565L71.4577 6.2195C71.6685 5.90405 71.771 5.52868 71.7498 5.14992C71.7287 4.77116 71.585 4.40953 71.3405 4.1195C71.2967 4.0705 71.2407 4.04075 71.1935 3.99525L71.2075 3.98125C68.5119 1.44167 64.9534 0.0189104 61.25 0C58.328 0.00541648 55.4768 0.900251 53.0757 2.5655C47.642 0.189 42 -2.19275 33.95 3.85C33.592 4.11842 33.3504 4.51377 33.2749 4.9548C33.1994 5.39582 33.2957 5.84902 33.544 6.22125L42.3693 19.4583C41.5279 19.6799 40.7558 20.1094 40.1237 20.7073C39.4917 21.3052 39.02 22.0523 38.7521 22.8801C38.4841 23.7078 38.4285 24.5896 38.5902 25.4445C38.7519 26.2993 39.1259 27.0999 39.6777 27.7725L31.395 35.504L33.7855 38.0608L42.6895 29.75H60.592L71.967 39.6987C78.034 45.0126 82.5748 51.8477 85.1217 59.5H78.3685C77.0777 59.5014 75.8402 60.0148 74.9275 60.9275C74.0148 61.8402 73.5014 63.0777 73.5 64.3685V68.6315C73.5051 69.7759 73.9169 70.8813 74.662 71.75C73.9169 72.6187 73.5051 73.7241 73.5 74.8685V79.1315C73.5071 79.6445 73.5957 80.1531 73.7625 80.6382C72.6952 80.8875 71.7431 81.4896 71.0603 82.347C70.3775 83.2045 70.004 84.2672 70 85.3633V89.6263C70.004 90.7223 70.3775 91.785 71.0603 92.6425C71.7431 93.4999 72.6952 94.102 73.7625 94.3512C73.5957 94.8364 73.5071 95.345 73.5 95.858V100.121C73.508 100.326 73.5285 100.531 73.5612 100.733C71.8354 101.236 70.0476 101.494 68.25 101.5H68.0295C68.1689 101.057 68.2432 100.596 68.25 100.132V95.8685C68.2449 94.7241 67.8331 93.6187 67.088 92.75C67.8331 91.8813 68.2449 90.7759 68.25 89.6315V85.3685C68.2486 84.0777 67.7352 82.8402 66.8225 81.9275C65.9098 81.0148 64.6723 80.5014 63.3815 80.5H41.6185C40.3277 80.5014 39.0902 81.0148 38.1775 81.9275C37.2648 82.8402 36.7514 84.0777 36.75 85.3685V89.6315C36.7551 90.7759 37.1669 91.8813 37.912 92.75C37.1669 93.6187 36.7551 94.7241 36.75 95.8685V100.132C36.7568 100.596 36.8311 101.057 36.9705 101.5H36.75C34.9529 101.498 33.1651 101.243 31.4388 100.744C31.4715 100.541 31.492 100.337 31.5 100.132V95.8685C31.4929 95.3555 31.4043 94.8469 31.2375 94.3618C32.3049 94.1125 33.2569 93.5104 33.9397 92.653C34.6225 91.7955 34.996 90.7328 35 89.6367V85.3685C34.996 84.2724 34.6225 83.2097 33.9397 82.3523C33.2569 81.4949 32.3049 80.8928 31.2375 80.6435C31.4043 80.1583 31.4929 79.6497 31.5 79.1367V74.8685C31.4949 73.7241 31.0831 72.6187 30.338 71.75C31.0831 70.8813 31.4949 69.7759 31.5 68.6315V64.3685C31.4986 63.0777 30.9852 61.8402 30.0725 60.9275C29.1598 60.0148 27.9223 59.5014 26.6315 59.5H19.579C21.7846 52.3978 25.6974 45.9445 30.975 40.705L28.525 38.2183C22.5748 44.1184 18.2367 51.4456 15.925 59.5H4.8685C3.57772 59.5014 2.34021 60.0148 1.42749 60.9275C0.514766 61.8402 0.00138968 63.0777 0 64.3685V68.6315C0.0050698 69.7759 0.416939 70.8813 1.162 71.75C0.416939 72.6187 0.0050698 73.7241 0 74.8685V79.1315C0.00396195 80.2276 0.377541 81.2903 1.06032 82.1477C1.7431 83.0051 2.69515 83.6072 3.7625 83.8565C3.59568 84.3417 3.50707 84.8503 3.5 85.3633V89.6263C3.50707 90.1392 3.59568 90.6478 3.7625 91.133C2.6934 91.3827 1.74003 91.9863 1.05707 92.8459C0.374099 93.7055 0.00160008 94.7706 0 95.8685V100.132C0.00138968 101.422 0.514766 102.66 1.42749 103.573C2.34021 104.485 3.57772 104.999 4.8685 105H26.6315C27.758 104.995 28.8473 104.596 29.7097 103.871C31.9823 104.616 34.3584 104.997 36.75 105H68.25C70.6416 104.997 73.0177 104.616 75.2902 103.871C76.1527 104.596 77.242 104.995 78.3685 105H100.132C101.422 104.999 102.66 104.485 103.573 103.573C104.485 102.66 104.999 101.422 105 100.132V95.8685C104.996 94.7724 104.622 93.7097 103.94 92.8523C103.257 91.9949 102.305 91.3928 101.237 91.1435C101.404 90.6583 101.493 90.1497 101.5 89.6367V85.3685C101.493 84.8555 101.404 84.3469 101.237 83.8618C102.305 83.6125 103.257 83.0104 103.94 82.153C104.622 81.2955 104.996 80.2328 105 79.1367V74.8685C104.995 73.7241 104.583 72.6187 103.838 71.75C104.583 70.8813 104.995 69.7759 105 68.6315V64.3685C104.999 63.0777 104.485 61.8402 103.573 60.9275C102.66 60.0148 101.422 59.5014 100.132 59.5ZM66.227 4.725C63.266 5.48571 60.1435 5.32577 57.2757 4.2665C58.54 3.76151 59.8887 3.50139 61.25 3.5C62.9807 3.52389 64.683 3.94288 66.227 4.725ZM51.8193 5.8415C55.755 7.56525 60.1003 9.47275 65.7895 8.4175L58.5638 19.25H46.4362L37.4062 5.705C43.1357 2.0335 47.0085 3.7275 51.8193 5.83625V5.8415ZM43.75 26.25C43.2859 26.25 42.8408 26.0656 42.5126 25.7374C42.1844 25.4093 42 24.9641 42 24.5C42 24.0359 42.1844 23.5908 42.5126 23.2626C42.8408 22.9344 43.2859 22.75 43.75 22.75H61.25C61.7141 22.75 62.1592 22.9344 62.4874 23.2626C62.8156 23.5908 63 24.0359 63 24.5C63 24.9641 62.8156 25.4093 62.4874 25.7374C62.1592 26.0656 61.7141 26.25 61.25 26.25H43.75ZM31.5 89.6315C31.4995 89.9943 31.3552 90.3421 31.0987 90.5987C30.8421 90.8552 30.4943 90.9995 30.1315 91H8.3685C8.00569 90.9995 7.65788 90.8552 7.40134 90.5987C7.14479 90.3421 7.00046 89.9943 7 89.6315V85.3685C7.00046 85.0057 7.14479 84.6579 7.40134 84.4013C7.65788 84.1448 8.00569 84.0005 8.3685 84H10.5V87.5H14V84H17.5V87.5H21V84H24.5V87.5H28V84H30.1315C30.4943 84.0005 30.8421 84.1448 31.0987 84.4013C31.3552 84.6579 31.4995 85.0057 31.5 85.3685V89.6315ZM3.5 64.3685C3.50046 64.0057 3.64479 63.6579 3.90134 63.4013C4.15788 63.1448 4.50569 63.0005 4.8685 63H7V66.5H10.5V63H14V66.5H17.5V63H21V66.5H24.5V63H26.6315C26.9943 63.0005 27.3421 63.1448 27.5987 63.4013C27.8552 63.6579 27.9995 64.0057 28 64.3685V68.6315C27.9995 68.9943 27.8552 69.3421 27.5987 69.5987C27.3421 69.8552 26.9943 69.9995 26.6315 70H4.8685C4.50569 69.9995 4.15788 69.8552 3.90134 69.5987C3.64479 69.3421 3.50046 68.9943 3.5 68.6315V64.3685ZM3.5 74.8685C3.50046 74.5057 3.64479 74.1579 3.90134 73.9013C4.15788 73.6448 4.50569 73.5005 4.8685 73.5H7V77H10.5V73.5H14V77H17.5V73.5H21V77H24.5V73.5H26.6315C26.9943 73.5005 27.3421 73.6448 27.5987 73.9013C27.8552 74.1579 27.9995 74.5057 28 74.8685V79.1315C27.9995 79.4943 27.8552 79.8421 27.5987 80.0987C27.3421 80.3552 26.9943 80.4995 26.6315 80.5H4.8685C4.50569 80.4995 4.15788 80.3552 3.90134 80.0987C3.64479 79.8421 3.50046 79.4943 3.5 79.1315V74.8685ZM28 100.132C27.9995 100.494 27.8552 100.842 27.5987 101.099C27.3421 101.355 26.9943 101.5 26.6315 101.5H4.8685C4.50569 101.5 4.15788 101.355 3.90134 101.099C3.64479 100.842 3.50046 100.494 3.5 100.132V95.8685C3.50046 95.5057 3.64479 95.1579 3.90134 94.9013C4.15788 94.6448 4.50569 94.5005 4.8685 94.5H7V98H10.5V94.5H14V98H17.5V94.5H21V98H24.5V94.5H26.6315C26.9943 94.5005 27.3421 94.6448 27.5987 94.9013C27.8552 95.1579 27.9995 95.5057 28 95.8685V100.132ZM40.25 85.3685C40.2505 85.0057 40.3948 84.6579 40.6513 84.4013C40.9079 84.1448 41.2557 84.0005 41.6185 84H43.75V87.5H47.25V84H50.75V87.5H54.25V84H57.75V87.5H61.25V84H63.3815C63.7443 84.0005 64.0921 84.1448 64.3487 84.4013C64.6052 84.6579 64.7495 85.0057 64.75 85.3685V89.6315C64.7495 89.9943 64.6052 90.3421 64.3487 90.5987C64.0921 90.8552 63.7443 90.9995 63.3815 91H41.6185C41.2557 90.9995 40.9079 90.8552 40.6513 90.5987C40.3948 90.3421 40.2505 89.9943 40.25 89.6315V85.3685ZM41.6185 101.5C41.2557 101.5 40.9079 101.355 40.6513 101.099C40.3948 100.842 40.2505 100.494 40.25 100.132V95.8685C40.2505 95.5057 40.3948 95.1579 40.6513 94.9013C40.9079 94.6448 41.2557 94.5005 41.6185 94.5H43.75V98H47.25V94.5H50.75V98H54.25V94.5H57.75V98H61.25V94.5H63.3815C63.7443 94.5005 64.0921 94.6448 64.3487 94.9013C64.6052 95.1579 64.7495 95.5057 64.75 95.8685V100.132C64.7495 100.494 64.6052 100.842 64.3487 101.099C64.0921 101.355 63.7443 101.5 63.3815 101.5H41.6185ZM77 64.3685C77.0005 64.0057 77.1448 63.6579 77.4013 63.4013C77.6579 63.1448 78.0057 63.0005 78.3685 63H80.5V66.5H84V63H87.5V66.5H91V63H94.5V66.5H98V63H100.132C100.494 63.0005 100.842 63.1448 101.099 63.4013C101.355 63.6579 101.5 64.0057 101.5 64.3685V68.6315C101.5 68.9943 101.355 69.3421 101.099 69.5987C100.842 69.8552 100.494 69.9995 100.132 70H78.3685C78.0057 69.9995 77.6579 69.8552 77.4013 69.5987C77.1448 69.3421 77.0005 68.9943 77 68.6315V64.3685ZM73.5 85.3685C73.5005 85.0057 73.6448 84.6579 73.9013 84.4013C74.1579 84.1448 74.5057 84.0005 74.8685 84H77V87.5H80.5V84H84V87.5H87.5V84H91V87.5H94.5V84H96.6315C96.9943 84.0005 97.3421 84.1448 97.5987 84.4013C97.8552 84.6579 97.9995 85.0057 98 85.3685V89.6315C97.9995 89.9943 97.8552 90.3421 97.5987 90.5987C97.3421 90.8552 96.9943 90.9995 96.6315 91H74.8685C74.5057 90.9995 74.1579 90.8552 73.9013 90.5987C73.6448 90.3421 73.5005 89.9943 73.5 89.6315V85.3685ZM101.5 100.132C101.5 100.494 101.355 100.842 101.099 101.099C100.842 101.355 100.494 101.5 100.132 101.5H78.3685C78.0057 101.5 77.6579 101.355 77.4013 101.099C77.1448 100.842 77.0005 100.494 77 100.132V95.8685C77.0005 95.5057 77.1448 95.1579 77.4013 94.9013C77.6579 94.6448 78.0057 94.5005 78.3685 94.5H80.5V98H84V94.5H87.5V98H91V94.5H94.5V98H98V94.5H100.132C100.494 94.5005 100.842 94.6448 101.099 94.9013C101.355 95.1579 101.5 95.5057 101.5 95.8685V100.132ZM101.5 79.1315C101.5 79.4943 101.355 79.8421 101.099 80.0987C100.842 80.3552 100.494 80.4995 100.132 80.5H78.3685C78.0057 80.4995 77.6579 80.3552 77.4013 80.0987C77.1448 79.8421 77.0005 79.4943 77 79.1315V74.8685C77.0005 74.5057 77.1448 74.1579 77.4013 73.9013C77.6579 73.6448 78.0057 73.5005 78.3685 73.5H80.5V77H84V73.5H87.5V77H91V73.5H94.5V77H98V73.5H100.132C100.494 73.5005 100.842 73.6448 101.099 73.9013C101.355 74.1579 101.5 74.5057 101.5 74.8685V79.1315Z" fill="#FAC600"/>
</svg>
