<svg width="108" height="108" viewBox="0 0 108 108" fill="none" xmlns="http://www.w3.org/2000/svg">
<path d="M39.8903 52.7806C41.8064 54.6968 44.4194 55.7419 47.0323 55.7419C49.6452 55.7419 52.2581 54.6968 54.1742 52.7806L57.8323 49.1226C60.9677 45.9871 62.7097 41.8064 62.7097 37.4516V33.0968C62.7097 27.871 60.0968 22.9935 55.7419 20.0323C54.871 19.5097 53.8258 19.6839 53.3032 20.5548C52.7806 21.4258 52.9548 22.471 53.8258 22.9935C56.7871 24.9097 58.7032 28.0452 59.0516 31.529C57.8323 31.7032 56.7871 31.7032 55.7419 31.7032C49.2968 31.7032 44.5935 29.9613 42.6774 28.2194C42.1548 27.6968 41.2839 27.6968 40.5871 28.0452C39.3677 28.9161 37.4516 29.4387 35.1871 29.7871C36.5806 24.5613 41.2839 20.729 47.0323 20.729C48.0774 20.729 48.7742 20.0323 48.7742 18.9871C48.7742 17.9419 48.0774 17.2452 47.0323 17.2452C38.3226 17.2452 31.3548 24.2129 31.3548 32.9226V37.2774C31.3548 41.6323 33.0968 45.6387 36.0581 48.7742L39.8903 52.7806ZM34.8387 33.4452C37.4516 33.0968 39.7161 32.5742 41.4581 31.7032C44.5935 33.9677 49.9935 35.1871 55.7419 35.1871C56.9613 35.1871 58.0065 35.1871 59.2258 35.0129V37.4516C59.2258 40.9355 57.8323 44.071 55.3935 46.5097L51.7355 50.1677C50.5161 51.5613 48.7742 52.2581 47.0323 52.2581C45.2903 52.2581 43.5484 51.5613 42.329 50.3419L38.671 46.6839C36.2323 44.2452 34.8387 41.1097 34.8387 37.6258V33.4452Z" fill="#FAC600"/>
<path d="M52.6065 90.2323C50.8645 90.4064 48.9484 90.5806 47.0323 90.5806C37.2774 90.5806 28.2194 87.271 20.9032 81.871V78.2129C20.9032 70.2 27.1742 63.5806 35.0129 62.8839C35.8839 68.8064 40.9355 73.3355 47.0323 73.3355C53.129 73.3355 58.1806 68.8064 59.0516 62.8839C59.5742 62.8839 60.0968 63.0581 60.6194 63.0581C61.4903 63.2323 62.5355 62.5355 62.7097 61.6645C62.8839 60.7936 62.1871 59.7484 61.3161 59.5742C60.0968 59.4 58.8774 59.2258 57.6581 59.2258H36.4065C17.4194 60.0968 17.4194 78.9097 17.4194 78.9097C8.88387 70.8968 3.48387 59.5742 3.48387 47.0323C3.48387 29.4387 13.9355 13.7613 30.1355 6.96774C31.0065 6.61935 31.3548 5.57419 31.0065 4.70323C30.6581 3.83226 29.6129 3.48387 28.7419 3.83226C11.3226 11.1484 0 28.0452 0 47.0323C0 72.9871 21.0774 94.0645 47.0323 94.0645C48.9484 94.0645 51.0387 93.8903 52.9548 93.7161C53.8258 93.5419 54.5226 92.671 54.5226 91.8C54.3484 90.7548 53.4774 90.0581 52.6065 90.2323ZM55.5677 62.7097C54.6968 66.7161 51.2129 69.6774 47.0323 69.6774C42.8516 69.6774 39.3677 66.7161 38.4968 62.7097H55.5677ZM82.0452 31.529C81.1742 31.8774 80.6516 32.9226 81 33.7935C81.5226 35.0129 81.871 36.0581 82.0452 37.1032C82.2194 37.8 83.0903 38.671 84.1355 38.3226C85.0065 37.9742 85.529 37.1032 85.3548 36.2323C85.0065 35.0129 84.6581 33.9677 84.1355 32.5742C83.9613 31.529 83.0903 31.1806 82.0452 31.529ZM54.3484 7.66452C53.3032 7.49032 52.4323 8.1871 52.2581 9.05806C52.0839 9.92903 52.7806 10.9742 53.6516 11.1484C63.0581 12.8903 71.4194 18.1161 76.9936 26.129C77.3419 26.6516 78.3871 27.1742 79.4323 26.4774C80.3032 25.9548 80.4774 24.9097 79.7806 24.0387C73.6839 15.329 64.6258 9.58065 54.3484 7.66452Z" fill="#FAC600"/>
<path d="M9.05806 41.8064C8.0129 41.8064 7.31613 42.5032 7.14194 43.3742C6.96774 44.5935 6.96774 45.8129 6.96774 47.0323C6.96774 52.0839 7.83871 56.9613 9.75484 61.6645C10.1032 62.3613 10.9742 62.8839 12.0194 62.7097C12.8903 62.5355 13.4129 61.3161 13.0645 60.4452C11.3226 56.0903 10.4516 51.5613 10.4516 47.0323C10.4516 45.9871 10.4516 44.7677 10.6258 43.7226C10.6258 42.6774 9.92903 41.9806 9.05806 41.8064ZM106.258 83.6129C107.303 83.6129 108 82.9161 108 81.871C108 67.4129 96.329 55.7419 81.871 55.7419C67.4129 55.7419 55.7419 67.4129 55.7419 81.871C55.7419 96.329 67.4129 108 81.871 108C93.3677 108 103.645 100.335 106.955 89.3613C107.303 88.4903 106.781 87.4452 105.735 87.271C104.865 86.9226 103.819 87.4452 103.645 88.4903C100.684 97.8968 91.8 104.516 81.871 104.516C69.329 104.516 59.2258 94.4129 59.2258 81.871C59.2258 69.329 69.329 59.2258 81.871 59.2258C94.4129 59.2258 104.516 69.329 104.516 81.871C104.516 82.9161 105.213 83.6129 106.258 83.6129ZM47.0323 3.48387C71.071 3.48387 90.5806 22.9935 90.5806 47.0323C90.5806 48.9484 90.4064 51.0387 90.2323 52.9548C90.0581 53.8258 90.7548 54.6968 91.8 54.871C92.8452 55.0452 93.7161 54.1742 93.7161 53.3032C94.0645 51.2129 94.2387 49.1226 94.2387 46.8581C94.0645 21.0774 72.9871 0 47.0323 0C45.9871 0 45.2903 0.696774 45.2903 1.74194C45.2903 2.7871 45.9871 3.48387 47.0323 3.48387ZM36.2323 4.87742C37.6258 4.52903 38.8452 4.18064 40.2387 4.00645C41.1097 3.83226 41.8064 2.96129 41.6323 2.09032C41.4581 1.21935 40.5871 0.522581 39.7161 0.696774C38.3226 0.870968 36.7548 1.21935 35.3613 1.56774C34.4903 1.74194 33.7935 2.6129 34.1419 3.48387C34.6645 5.05161 36.0581 4.87742 36.2323 4.87742Z" fill="#FAC600"/>
<path d="M81.871 101.032C84.8323 101.032 87.0968 98.7677 87.0968 95.8064V87.0968H95.8064C100.161 87.0968 101.032 83.2645 101.032 81.871C101.032 78.9097 98.7677 76.6452 95.8064 76.6452H87.0968V67.9355C86.7484 63.7548 83.2645 62.7097 81.871 62.7097C78.9097 62.7097 76.6452 64.9742 76.6452 67.9355C76.6452 68.9806 77.3419 69.6774 78.3871 69.6774C79.4323 69.6774 80.129 68.9806 80.129 67.9355C80.129 66.8903 80.8258 66.1936 81.871 66.1936C82.3935 66.1936 83.6129 66.8903 83.6129 67.9355V78.3871C83.6129 79.4323 84.3097 80.129 85.3548 80.129H95.8064C96.8516 80.129 97.5484 80.8258 97.5484 81.871C97.5484 83.4387 96.329 83.6129 95.8064 83.6129H85.3548C84.3097 83.6129 83.6129 84.3097 83.6129 85.3548V95.8064C83.6129 96.8516 82.9161 97.5484 81.871 97.5484C80.8258 97.5484 80.129 96.8516 80.129 95.8064V85.3548C80.129 84.3097 79.4323 83.6129 78.3871 83.6129H67.9355C66.8903 83.6129 66.1936 82.9161 66.1936 81.871C66.1936 80.8258 66.8903 80.129 67.9355 80.129H78.3871C79.4323 80.129 80.129 79.4323 80.129 78.3871V73.3355C80.129 72.2903 79.4323 71.5935 78.3871 71.5935C77.3419 71.5935 76.6452 72.2903 76.6452 73.3355V76.6452H67.9355C64.9742 76.6452 62.7097 78.9097 62.7097 81.871C62.7097 84.8323 64.9742 87.0968 67.9355 87.0968H76.6452V95.8064C76.6452 98.7677 78.9097 101.032 81.871 101.032Z" fill="#FAC600"/>
</svg>
