<svg width="25" height="24" viewBox="0 0 25 24" fill="none" xmlns="http://www.w3.org/2000/svg">
<path d="M22.5 5.8C21.7483 6.12609 20.9534 6.34166 20.14 6.44C20.9982 5.92732 21.6413 5.12078 21.95 4.17C21.1436 4.65006 20.2608 4.98829 19.34 5.17C18.7245 4.50257 17.905 4.05829 17.0098 3.90685C16.1147 3.7554 15.1945 3.90535 14.3938 4.33319C13.593 4.76102 12.9569 5.44253 12.5852 6.27083C12.2135 7.09914 12.1273 8.02739 12.34 8.91C10.7094 8.82752 9.11444 8.40295 7.65865 7.66386C6.20287 6.92477 4.91885 5.88769 3.89 4.62C3.52914 5.25016 3.33952 5.96382 3.34 6.69C3.33872 7.36438 3.50422 8.02861 3.82176 8.62356C4.13929 9.21851 4.59902 9.72571 5.16 10.1C4.50798 10.0823 3.86989 9.90729 3.3 9.59V9.64C3.30489 10.5849 3.63599 11.4991 4.23731 12.228C4.83864 12.9568 5.67326 13.4556 6.6 13.64C6.24326 13.7486 5.87287 13.8058 5.5 13.81C5.24189 13.807 4.98442 13.7836 4.73 13.74C4.99391 14.5528 5.50462 15.2631 6.19107 15.7722C6.87753 16.2812 7.70558 16.5635 8.56 16.58C7.1172 17.7153 5.33588 18.3349 3.5 18.34C3.16574 18.3411 2.83174 18.3211 2.5 18.28C4.37443 19.4903 6.55881 20.1327 8.79 20.13C10.3297 20.146 11.8571 19.855 13.2831 19.2741C14.7091 18.6931 16.005 17.8339 17.0952 16.7465C18.1854 15.6591 19.048 14.3654 19.6326 12.9409C20.2172 11.5164 20.512 9.98972 20.5 8.45C20.5 8.28 20.5 8.1 20.5 7.92C21.2847 7.33481 21.9615 6.61742 22.5 5.8Z" fill="white"/>
</svg>
