<svg width="25" height="24" viewBox="0 0 25 24" fill="none" xmlns="http://www.w3.org/2000/svg">
<path fill-rule="evenodd" clip-rule="evenodd" d="M6.97366 20.191C4.17266 18.828 2.34766 15.962 2.34766 12.796V9.32201C2.34766 4.78901 6.03666 1.10001 10.5717 1.10001H14.4277C18.9627 1.10001 22.6517 4.78901 22.6517 9.32201V12.796C22.6517 17.329 18.9627 21.018 14.4277 21.018H11.1007L9.12366 22.809C8.88266 23.028 8.57267 23.142 8.25967 23.142C8.08267 23.142 7.90465 23.106 7.73965 23.032C7.27365 22.827 6.97366 22.366 6.97366 21.857V20.191ZM8.77365 20.697L10.1497 19.451C10.3147 19.301 10.5297 19.218 10.7537 19.218H14.4277C17.9697 19.218 20.8517 16.337 20.8517 12.796V9.32201C20.8517 5.78101 17.9697 2.90001 14.4277 2.90001H10.5717C7.02966 2.90001 4.14767 5.78101 4.14767 9.32201V12.796C4.14767 15.433 5.76866 17.803 8.20566 18.769C8.54866 18.905 8.77365 19.236 8.77365 19.605V20.697ZM12.7737 17.362C12.3747 17.152 9.88867 15.803 8.46667 14.355C6.94567 12.806 6.00467 11.124 5.96567 11.054L5.88266 10.871C5.67866 10.311 5.16568 8.62201 6.49268 7.46901L7.56265 6.53901C8.08565 6.08601 8.87666 6.14201 9.33066 6.66401C9.33066 6.66401 11.0317 8.62101 11.0327 8.62201C11.6707 9.35701 11.6647 10.436 11.0617 11.161C11.4067 11.84 11.8517 12.166 12.3067 12.373C12.5537 12.159 12.8537 12.011 13.1827 11.941C13.6937 11.836 14.2157 11.933 14.6537 12.218L16.8287 13.631C17.4087 14.007 17.5747 14.781 17.1987 15.363L16.4267 16.553C15.9157 17.338 15.0587 17.767 14.1847 17.767C13.7007 17.767 13.2117 17.636 12.7737 17.362ZM8.32965 8.25701L7.67368 8.82701C7.38968 9.07401 7.37967 9.40101 7.41367 9.65901C7.44367 9.89001 7.51265 10.088 7.55865 10.213C7.69965 10.46 8.50667 11.826 9.75067 13.094C11.1027 14.471 13.5477 15.738 13.6227 15.775C13.6537 15.791 13.6847 15.808 13.7147 15.828C13.8597 15.922 14.0227 15.967 14.1847 15.967C14.4707 15.967 14.7507 15.828 14.9167 15.572L15.3907 14.843L13.6727 13.727C13.6357 13.703 13.5907 13.695 13.5507 13.703C13.5087 13.712 13.4737 13.737 13.4497 13.773L13.3466 13.932C13.1236 14.274 12.6977 14.424 12.3097 14.295C11.1607 13.916 9.89966 13.424 9.14066 11.227C9.02066 10.88 9.12367 10.495 9.40067 10.254L9.65866 10.031C9.72566 9.97201 9.73168 9.86901 9.67368 9.80201L8.32965 8.25701ZM13.3687 8.79901C14.2127 8.79901 14.8967 9.48401 14.8967 10.327C14.8967 10.824 15.3007 11.227 15.7967 11.227C16.2937 11.227 16.6967 10.824 16.6967 10.327C16.6967 8.49001 15.2057 6.99901 13.3687 6.99901C12.8727 6.99901 12.4687 7.40201 12.4687 7.89901C12.4687 8.39601 12.8727 8.79901 13.3687 8.79901ZM13.6687 6.06701C15.8527 6.06701 17.6247 7.84001 17.6247 10.023C17.6247 10.52 18.0287 10.923 18.5247 10.923C19.0217 10.923 19.4247 10.52 19.4247 10.023C19.4247 6.84701 16.8457 4.26701 13.6687 4.26701C13.1727 4.26701 12.7687 4.67101 12.7687 5.16701C12.7687 5.66401 13.1727 6.06701 13.6687 6.06701Z" fill="white"/>
</svg>
