<svg width="63" height="11" viewBox="0 0 63 11" fill="none" xmlns="http://www.w3.org/2000/svg">
<path d="M58.232 0.764C57.4763 0.256 56.3327 0 54.8328 0H50.9054L49.4453 7.763H44.301L44.6302 6.002H47.7306L48.0985 4.024L45.0012 4.029L45.3324 2.276H48.524L48.9496 0.000999928H42.4657L41.0801 7.364H38.7018L40.098 0.000999928H36.7082L35.3226 7.364H33.0041L34.4023 0.000999928H31.0168L29.5525 7.763H24.3715L24.6975 6.002H27.8105L28.1774 4.035L25.0696 4.032L25.3998 2.276H28.627L29.0494 0.000999928H8.84847L7.69865 6.152L5.4074 0H1.89191L0 10.039H3.35722L4.5018 3.719L6.72492 10.039H18.7587L20.2219 2.275H22.1044L20.6412 10.039H52.3057L53.2229 5.138L54.7091 10.038H58.0685L56.5298 6.034L56.8809 5.96C57.6555 5.798 58.2613 5.448 58.6816 4.924C59.103 4.395 59.3168 3.716 59.3168 2.9C59.3168 1.95 58.9625 1.253 58.232 0.764ZM15.8354 7.761H10.6953L11.0276 6.001H14.2517L14.6185 4.017H11.4248L11.733 2.274H16.8647L15.8354 7.761ZM55.4628 4.381C55.1253 4.611 54.6347 4.724 53.966 4.724H53.3004L53.8098 2.03H54.2993C54.8548 2.03 55.2615 2.118 55.5414 2.296C55.7604 2.436 56.0193 2.711 56.0193 3.236C56.0193 3.866 55.7175 4.206 55.4628 4.38V4.381ZM61.9477 9.256C61.8947 9.18138 61.832 9.11349 61.7611 9.054C61.7203 9.02445 61.6755 9.00024 61.628 8.982C61.7562 8.96632 61.8747 8.90871 61.9634 8.819C62.0334 8.73817 62.0676 8.6345 62.0588 8.53C62.0561 8.44651 62.0289 8.36541 61.9802 8.296C61.9362 8.23029 61.87 8.1809 61.7925 8.156C61.6858 8.12832 61.5746 8.11917 61.4645 8.129L60.7486 8.164L60.8314 9.743L61.0452 9.733L61.0096 9.03L61.2559 9.018C61.2957 9.01505 61.3357 9.01572 61.3754 9.02C61.4102 9.02699 61.4435 9.03949 61.4739 9.057C61.5174 9.08418 61.556 9.11796 61.5881 9.157C61.6301 9.205 61.6856 9.275 61.7527 9.367L61.9833 9.685L62.2495 9.672L61.9487 9.256H61.9477ZM61.4571 8.828L61.0001 8.851L60.9718 8.328L61.4812 8.303C61.6007 8.297 61.6898 8.316 61.7475 8.362C61.7755 8.38389 61.7983 8.41131 61.8142 8.44238C61.8301 8.47344 61.8388 8.50743 61.8397 8.542C61.843 8.59218 61.831 8.6422 61.8051 8.686C61.7782 8.73181 61.7357 8.76745 61.6846 8.787C61.6122 8.81318 61.5356 8.82706 61.4582 8.828H61.4571Z" fill="#7F8CAB"/>
<path d="M61.3041 7.442C60.9037 7.463 60.5326 7.635 60.2633 7.928C59.9939 8.22 59.8566 8.598 59.8765 8.992C59.9205 9.805 60.6291 10.432 61.4592 10.391C62.2872 10.348 62.9287 9.653 62.8868 8.841C62.8448 8.028 62.1353 7.401 61.3041 7.442ZM61.4456 10.14C60.7569 10.174 60.1689 9.653 60.1323 8.979C60.1165 8.652 60.2297 8.339 60.453 8.097C60.6773 7.854 60.9844 7.711 61.3187 7.694C62.0063 7.659 62.5954 8.18 62.63 8.854C62.6321 8.874 62.6331 8.897 62.6331 8.917C62.6331 9.564 62.1122 10.106 61.4456 10.14Z" fill="#7F8CAB"/>
</svg>
