<svg width="78" height="13" viewBox="0 0 78 13" fill="none" xmlns="http://www.w3.org/2000/svg">
<path d="M13.8649 5.796C13.8501 5.532 13.7324 5.4 13.4812 5.386H12.1817C11.8712 5.4 11.709 5.576 11.709 5.884V8.218C11.7239 8.541 11.886 8.717 12.2411 8.717H13.4367C13.4971 8.71736 13.5567 8.70422 13.6107 8.67867C13.6647 8.65313 13.7115 8.61588 13.7473 8.57C13.7904 8.53608 13.8248 8.49331 13.8477 8.44496C13.8707 8.39661 13.8816 8.34395 13.8797 8.291L13.8649 5.796ZM10.0259 5.459C10.0407 4.871 10.1584 4.431 10.4244 4.123C10.5676 3.98505 10.7383 3.87527 10.9268 3.8C11.1335 3.712 11.3402 3.668 11.532 3.668H13.9243C14.9874 3.683 15.5195 4.255 15.5332 5.4V8.908C15.5295 9.30486 15.36 9.68433 15.0616 9.964C14.751 10.272 14.397 10.434 13.9688 10.434H11.709V12.973H10.0259V5.458V5.459ZM18.5752 8.379C18.5752 8.482 18.6197 8.555 18.7088 8.614C18.783 8.687 18.8858 8.717 19.0183 8.717H20.3029C20.5997 8.717 20.7459 8.599 20.7608 8.379V7.895C20.7608 7.631 20.6135 7.499 20.3029 7.499H19.0331C18.9103 7.49244 18.7878 7.51769 18.6791 7.572C18.6197 7.631 18.5901 7.762 18.5901 7.939L18.5752 8.379ZM20.7459 5.752C20.7608 5.502 20.5986 5.37 20.2891 5.385H16.908V3.668H20.7163C21.8239 3.683 22.3856 4.211 22.4005 5.268V8.848C22.3856 9.304 22.2521 9.671 21.9871 9.978C21.7062 10.288 21.3374 10.434 20.8943 10.434H18.6049C17.4835 10.419 16.9217 9.92 16.9069 8.907V7.528C16.9217 6.471 17.4538 5.943 18.5318 5.914H20.7608V5.752H20.7459ZM27.1256 11.256C27.2537 11.2468 27.374 11.1947 27.4648 11.109C27.5069 11.0742 27.5406 11.0313 27.5636 10.9831C27.5866 10.935 27.5985 10.8828 27.5984 10.83V10.419H25.4573C25.1764 10.419 24.9549 10.389 24.7927 10.317C24.6147 10.257 24.4377 10.126 24.2607 9.964C24.0988 9.80069 23.9779 9.60523 23.9066 9.392C23.8224 9.17084 23.7822 8.93693 23.7879 8.702V3.668H25.4721V8.174C25.4721 8.541 25.6195 8.717 25.9152 8.717H27.096C27.1651 8.71918 27.2338 8.70717 27.2975 8.68179C27.3612 8.6564 27.4183 8.61826 27.4648 8.57C27.5113 8.538 27.549 8.49599 27.5748 8.44746C27.6006 8.39893 27.6138 8.34529 27.6132 8.291V3.668H29.2815V11.124C29.2667 11.681 29.1331 12.122 28.8533 12.459C28.5724 12.797 28.1887 12.959 27.7012 12.973H23.7731V11.256H27.1256ZM30.581 8.717H33.5636C33.8445 8.702 33.977 8.599 33.9918 8.394V8.247C33.989 8.19545 33.9738 8.14519 33.9473 8.1C33.8731 7.968 33.7989 7.91 33.6961 7.91H32.2207C31.794 7.90209 31.3869 7.7391 31.0845 7.455C30.9306 7.33563 30.807 7.18532 30.7226 7.01507C30.6383 6.84482 30.5953 6.65893 30.5969 6.471V5.194C30.6117 4.196 31.1586 3.697 32.2355 3.668H35.7057V5.385H32.7676C32.4284 5.385 32.2504 5.488 32.2504 5.693V5.855C32.2504 6.075 32.4274 6.178 32.7825 6.178H34.2589C34.6575 6.192 34.9818 6.339 35.2627 6.633C35.5436 6.926 35.6909 7.279 35.7057 7.689V8.937C35.6909 9.289 35.5287 9.641 35.2182 9.994C35.0967 10.149 34.9335 10.2706 34.7454 10.346C34.5833 10.404 34.3617 10.434 34.0819 10.434H30.582V8.717H30.581ZM38.5696 8.379C38.5696 8.482 38.6142 8.555 38.7021 8.614C38.7763 8.687 38.8802 8.717 38.9979 8.717H40.2825C40.5782 8.717 40.7255 8.599 40.7404 8.379V7.895C40.7404 7.631 40.5782 7.499 40.2825 7.499H39.0127C38.8505 7.499 38.7318 7.528 38.6735 7.572C38.6142 7.631 38.5845 7.762 38.5845 7.939V8.379H38.5696ZM40.7552 5.752C40.7552 5.502 40.6068 5.37 40.2973 5.385H36.9162V3.668H40.7255C41.8331 3.683 42.3939 4.211 42.4087 5.268V8.848C42.3939 9.304 42.2603 9.671 41.9953 9.978C41.7144 10.288 41.3456 10.434 40.9036 10.434H38.5993C37.4769 10.419 36.9162 9.92 36.9013 8.907V7.528C36.9013 6.471 37.4472 5.943 38.5251 5.914H40.7552V5.752ZM43.7675 2.699C43.7824 2.245 43.9445 1.863 44.2837 1.584C44.6091 1.305 45.0362 1.158 45.5683 1.144H46.6325V2.802H45.9828C45.6277 2.817 45.4507 2.978 45.4358 3.302V3.668H46.6166V5.385H45.4358V10.434H43.7527L43.7675 2.699ZM51.4022 5.723V5.679C51.4041 5.63725 51.3957 5.59564 51.3777 5.55747C51.3596 5.51929 51.3325 5.48558 51.2983 5.459C51.2241 5.399 51.1213 5.385 51.0026 5.385H49.8366C49.6883 5.385 49.5717 5.429 49.4678 5.517C49.4118 5.54902 49.3658 5.5945 49.3345 5.64879C49.3032 5.70308 49.2878 5.76423 49.2897 5.826V6.516L51.4022 5.723ZM49.3353 8.144V8.247C49.3353 8.379 49.3639 8.497 49.4381 8.57C49.4964 8.673 49.5558 8.717 49.6596 8.717H53.0991V10.434H49.4381C49.0989 10.434 48.8467 10.404 48.6548 10.346C48.4482 10.2808 48.2611 10.1701 48.109 10.023C47.9416 9.8667 47.8152 9.6756 47.7401 9.465C47.6659 9.275 47.6362 9.01 47.6362 8.673L47.6214 5.253C47.6362 4.211 48.1832 3.697 49.2611 3.668H51.5198C52.5691 3.683 53.0991 4.226 53.115 5.312V6.662L49.3342 8.144H49.3353ZM56.6583 10.434C56.4082 10.434 56.1708 10.404 55.9651 10.375C55.7426 10.346 55.5221 10.243 55.3006 10.067C55.0835 9.88461 54.9205 9.65196 54.8278 9.392C54.7356 9.12682 54.6905 8.84907 54.6943 8.57V5.37C54.679 5.13772 54.7041 4.90465 54.7685 4.68C54.8278 4.475 54.9455 4.285 55.1225 4.094C55.3292 3.888 55.5359 3.756 55.7585 3.698C55.9651 3.638 56.2004 3.624 56.4813 3.624H59.0506V4.02H56.5407C56.0976 4.02 55.7436 4.108 55.4914 4.3C55.2264 4.49 55.0939 4.842 55.0939 5.312V8.512C55.0939 8.732 55.1225 8.952 55.1967 9.172C55.2709 9.377 55.3885 9.568 55.5507 9.715C55.7288 9.847 55.9206 9.935 56.0976 9.979C56.2895 10.023 56.4813 10.038 56.688 10.038H59.0803V10.434H56.6583ZM65.6507 6.295H62.2844C61.8859 6.31 61.5605 6.427 61.339 6.662C61.1026 6.912 60.9849 7.234 60.9849 7.66V8.673C60.9849 8.863 60.9998 9.054 61.0443 9.216C61.0922 9.3954 61.2009 9.55515 61.3538 9.671C61.6495 9.906 61.9739 10.023 62.3141 10.023H64.3513C65.2077 10.008 65.6359 9.568 65.6359 8.688L65.6507 6.295ZM66.0503 8.585C66.0503 8.849 66.0355 9.069 65.991 9.26C65.9316 9.48 65.8288 9.685 65.6518 9.876C65.4886 10.0522 65.2861 10.1922 65.0589 10.2861C64.8318 10.3799 64.5854 10.4253 64.3375 10.419H62.3289C61.8117 10.419 61.3835 10.258 61.0591 9.964C60.72 9.656 60.5567 9.231 60.5567 8.702V7.675C60.5716 6.515 61.162 5.914 62.2993 5.885H65.6359V5.429C65.6359 5.062 65.5331 4.739 65.3116 4.446C65.1952 4.2773 65.0242 4.14857 64.824 4.079C64.6211 4.03137 64.413 4.00686 64.2039 4.006H60.5567V3.608H64.0121C64.3226 3.608 64.6173 3.623 64.8685 3.668C65.0021 3.697 65.1197 3.741 65.2374 3.814C65.3561 3.887 65.4599 3.99 65.5628 4.122C65.8723 4.518 66.0207 4.973 66.0207 5.487V8.584L66.0503 8.585ZM69.8162 4.021C68.8856 4.035 68.4277 4.549 68.4426 5.547V10.434H68.044V5.547C68.0292 4.27 68.6344 3.624 69.8894 3.624H70.3324V4.02H69.8162V4.021ZM76.6082 4.02H73.4338C73.2112 4.02 73.0056 4.05 72.8137 4.094C72.6219 4.138 72.429 4.255 72.2519 4.446C72.0898 4.622 71.987 4.784 71.9425 4.96C71.8779 5.1593 71.8527 5.36811 71.8683 5.576V8.687C71.8683 9.201 72.0166 9.553 72.3261 9.744C72.4745 9.832 72.6356 9.891 72.8285 9.934C73.0193 9.979 73.2271 10.008 73.4486 10.008H74.8371C75.3533 10.008 75.7804 9.891 76.1058 9.656C76.4312 9.436 76.5934 9.04 76.6082 8.496V4.02ZM77.0068 8.54C76.9771 9.832 76.2839 10.463 74.9399 10.434H73.4486C73.1663 10.4341 72.8846 10.4097 72.607 10.361C72.3558 10.301 72.1046 10.141 71.8683 9.891C71.7028 9.69859 71.5867 9.47271 71.5291 9.231C71.4649 8.98623 71.4398 8.73376 71.4549 8.482V5.576C71.4697 4.27 72.1332 3.609 73.4475 3.624H76.5934V1.423H76.9919L77.0068 8.541V8.54ZM0.722896 3.418C0.856447 3.36 0.988938 3.316 1.12143 3.287C1.35779 2.142 2.39122 1.276 3.61755 1.276C4.84283 1.276 5.86141 2.142 6.11262 3.286C6.49631 3.36 6.80687 3.506 7.04323 3.742C7.05807 3.522 7.04323 3.302 7.01355 3.11C6.85138 1.364 5.38975 0 3.60271 0C1.75632 0 0.265009 1.452 0.191874 3.257C0.177035 3.419 0.177035 3.58 0.177035 3.742C0.339204 3.609 0.516211 3.507 0.722896 3.419V3.418Z" fill="#7F8CAB"/>
<path d="M1.50721 3.668C1.31431 3.668 1.10762 3.712 0.900937 3.8C0.712857 3.87538 0.542463 3.98516 0.399592 4.123C0.148389 4.431 0.0148389 4.871 0 5.459V8.643C0.0148389 9.23 0.13355 9.671 0.399592 9.979C0.532082 10.111 0.694251 10.214 0.900937 10.302C1.09087 10.3859 1.2975 10.4309 1.50721 10.434H5.59746C6.66057 10.419 7.19159 9.847 7.20643 8.702V5.4C7.19159 4.255 6.66057 3.683 5.59746 3.668H1.50721Z" fill="#7F8CAB"/>
</svg>
