<svg width="42" height="14" viewBox="0 0 42 14" fill="none" xmlns="http://www.w3.org/2000/svg">
<path d="M33.3187 1.321L36.8048 0.741V13.366H33.3177V1.321H33.3187ZM38.4255 1.321V13.367H41.9126V0.741L38.4255 1.32V1.321ZM28.3583 13.367H31.8455V4.124H28.3583V13.366V13.367ZM5.30281 5.444C4.86188 5.421 3.82951 5.351 3.82951 4.494C3.82951 3.452 5.30281 3.452 5.84337 3.452C6.80154 3.452 8.07769 3.73 8.96167 3.985C8.96167 3.985 9.45241 4.147 9.8944 4.332H9.94422V1.436L9.8944 1.413C8.83871 1.066 7.61132 0.718 5.32824 0.718C1.3991 0.742 0 2.896 0 4.749C0 5.815 0.490745 8.339 4.98377 8.618C5.37594 8.641 6.38287 8.688 6.38287 9.591C6.38287 10.331 5.54871 10.772 4.14961 10.772C2.6265 10.772 1.12882 10.402 0.244844 10.054V12.996C1.59519 13.32 3.11724 13.506 4.88626 13.506C8.7412 13.506 10.4593 11.466 10.4593 9.428C10.4593 7.135 8.54406 5.653 5.30281 5.444ZM26.3953 3.984C23.1784 4.077 21.5334 5.444 21.5334 8.154V13.344H25.0439V9.127C25.0439 7.506 25.2654 6.811 27.3026 6.741V4.054C26.9592 3.984 26.3943 3.984 26.3943 3.984H26.3953ZM16.9164 4.124C16.8433 4.309 16.2783 5.792 14.928 7.344V0.742L11.3433 1.413V13.366H14.9524V9.66C15.9837 11.143 16.4999 13.367 16.4999 13.367H20.8212C20.4036 11.699 18.537 8.617 18.537 8.617C20.2064 6.625 20.9431 4.471 21.066 4.124H16.9164ZM30.1019 3.244C31.059 3.244 31.8211 2.525 31.8211 1.622C31.8211 0.718 31.059 0 30.1019 0C29.1448 0 28.3837 0.718 28.3837 1.622C28.3837 2.525 29.1448 3.243 30.1019 3.243V3.244Z" fill="#7F8CAB"/>
</svg>
