<svg viewBox="0 0 1375 1566" fill="none" xmlns="http://www.w3.org/2000/svg">
<path d="M204.39 1332.6C473.882 1639.55 908.5 1642.19 1175.14 1338.49C1441.77 1034.78 1439.46 539.747 1169.97 232.792C900.474 -74.1635 465.856 -76.8002 199.219 226.903C-67.4174 530.605 -65.1026 1025.64 204.39 1332.6ZM204.39 1332.6C465.077 1629.52 885.517 1632.05 1143.47 1338.24C1401.42 1044.43 1399.2 565.545 1138.51 268.618C877.825 -28.3091 457.386 -30.8359 199.435 262.974C-58.5163 556.784 -56.298 1035.67 204.39 1332.6ZM204.39 1332.6C456.273 1619.5 862.437 1622.02 1111.58 1338.24C1360.73 1054.46 1358.51 591.833 1106.63 304.934C854.746 18.036 448.581 15.5093 199.435 299.291C-49.7117 583.072 -47.4934 1045.7 204.39 1332.6ZM204.39 1332.6C447.468 1609.47 839.454 1611.88 1079.91 1338C1320.38 1064.11 1318.25 617.63 1075.18 340.76C832.097 63.8905 440.111 61.4737 199.65 335.362C-40.8107 609.25 -38.6888 1055.73 204.39 1332.6ZM204.39 1332.6C438.663 1599.44 816.471 1601.75 1048.25 1337.75C1280.02 1073.76 1278 643.427 1043.72 376.586C809.448 109.745 431.641 107.438 199.866 371.433C-31.9097 635.428 -29.8842 1065.76 204.39 1332.6ZM204.39 1332.6C429.859 1589.41 793.391 1591.72 1016.36 1337.75C1239.33 1083.78 1237.31 669.715 1011.84 412.903C786.368 156.09 422.836 153.783 199.866 407.75C-23.105 661.716 -21.0796 1075.78 204.39 1332.6ZM204.174 1332.35C420.72 1579 769.977 1581.09 984.262 1337.01C1198.55 1092.94 1196.71 695.132 980.169 448.483C763.623 201.835 414.366 199.747 200.081 443.821C-14.204 687.895 -12.3714 1085.7 204.174 1332.35ZM204.174 1332.35C411.915 1568.97 746.994 1570.95 952.593 1336.77C1158.19 1102.59 1156.46 720.929 948.715 484.309C740.974 247.689 405.896 245.712 200.296 479.892C-5.30287 714.073 -3.56681 1095.73 204.174 1332.35ZM204.174 1332.35C403.111 1558.94 723.914 1560.92 920.709 1336.77C1117.5 1112.62 1115.77 747.217 916.831 520.626C717.895 294.035 397.091 292.057 200.296 516.209C3.50172 740.361 5.23781 1105.76 204.174 1332.35ZM204.174 1332.35C394.306 1548.91 700.931 1550.78 889.04 1336.52C1077.15 1122.26 1075.51 773.014 885.378 556.452C695.246 339.889 388.621 338.021 200.512 552.28C12.4027 766.539 14.0424 1115.79 204.174 1332.35ZM204.174 1332.35C385.501 1538.89 677.948 1540.64 857.371 1336.28C1036.79 1131.91 1035.25 798.812 853.924 592.278C672.597 385.743 380.151 383.986 200.727 588.351C21.3038 792.717 22.847 1125.82 204.174 1332.35ZM204.174 1332.35C376.697 1528.86 654.868 1530.62 825.487 1336.28C996.106 1141.94 994.563 825.1 822.04 628.594C649.517 432.089 371.346 430.331 200.727 624.668C30.1084 819.005 31.6516 1135.85 204.174 1332.35ZM204.174 1332.35C367.892 1518.83 631.885 1520.48 793.818 1336.03C955.751 1151.59 954.305 850.897 790.587 664.42C626.869 477.943 362.876 476.295 200.943 660.739C39.0094 845.184 40.4562 1145.87 204.174 1332.35ZM203.743 1332.84C358.657 1509.29 608.567 1510.72 761.934 1336.03C915.3 1161.35 914.046 876.694 759.133 700.246C604.22 523.797 354.309 522.369 200.943 697.056C47.5761 871.743 48.8299 1156.39 203.743 1332.84ZM203.743 1332.84C349.852 1499.26 585.487 1500.69 730.049 1336.03C874.612 1171.37 873.358 902.983 727.249 736.563C581.14 570.143 345.505 568.714 200.943 733.373C56.3807 898.031 57.6345 1166.42 203.743 1332.84ZM203.743 1332.84C341.048 1489.23 562.504 1490.55 698.381 1335.79C834.257 1181.02 833.1 928.78 695.795 772.388C558.491 615.997 337.035 614.679 201.158 769.444C65.2817 924.209 66.4391 1176.45 203.743 1332.84ZM203.743 1332.84C332.243 1479.21 539.521 1480.41 666.712 1335.54C793.903 1190.67 792.842 954.577 664.342 808.214C535.842 661.851 328.564 660.643 201.374 805.515C74.1828 950.387 75.2437 1186.48 203.743 1332.84ZM203.743 1332.84C323.438 1469.18 516.441 1470.39 634.828 1335.54C753.214 1200.7 752.153 980.865 632.458 844.531C512.763 708.197 319.76 706.988 201.374 841.832C82.9874 976.675 84.0483 1196.51 203.743 1332.84ZM203.743 1332.84C314.634 1459.15 493.458 1460.25 603.159 1335.3C712.859 1210.35 711.895 1006.66 601.004 880.357C490.114 754.051 311.29 752.953 201.589 877.903C91.8884 1002.85 92.8529 1206.54 203.743 1332.84ZM203.959 1333.09C305.926 1449.23 470.475 1450.11 571.49 1335.05C672.505 1219.99 671.733 1032.57 569.766 916.428C467.8 800.286 303.25 799.408 202.235 914.465C101.22 1029.52 101.992 1216.95 203.959 1333.09ZM203.959 1333.09C297.121 1439.2 447.395 1440.08 539.606 1335.05C631.816 1230.02 631.044 1058.86 537.882 952.745C444.72 846.632 294.446 845.753 202.235 950.782C110.025 1055.81 110.797 1226.97 203.959 1333.09ZM203.959 1333.09C288.316 1429.17 424.412 1429.94 507.937 1334.81C591.461 1239.67 590.786 1084.66 506.429 988.571C422.071 892.486 285.976 891.717 202.451 986.853C118.926 1081.99 119.601 1237 203.959 1333.09ZM203.959 1333.09C279.512 1419.14 401.429 1419.8 476.268 1334.56C551.107 1249.32 550.528 1110.45 474.975 1024.4C399.422 938.341 277.505 937.681 202.666 1022.92C127.827 1108.17 128.406 1247.03 203.959 1333.09ZM203.959 1333.09C270.707 1409.12 378.349 1409.77 444.384 1334.56C510.418 1259.35 509.839 1136.74 443.091 1060.71C376.342 984.686 268.701 984.027 202.666 1059.24C136.632 1134.46 137.21 1257.06 203.959 1333.09ZM203.959 1333.09C261.903 1399.09 355.366 1399.64 412.715 1334.32C470.064 1268.99 469.581 1162.54 411.638 1096.54C353.694 1030.54 260.231 1029.99 202.882 1095.31C145.533 1160.63 146.015 1267.09 203.959 1333.09ZM203.959 1333.09C253.098 1389.06 332.383 1389.5 381.046 1334.07C429.709 1278.64 429.323 1188.34 380.184 1132.36C331.045 1076.39 251.76 1075.96 203.097 1131.38C154.434 1186.81 154.82 1277.12 203.959 1333.09Z" stroke="white" stroke-opacity="0.3" stroke-miterlimit="10"/>
</svg>
