<svg viewBox="0 0 1975 2250" fill="none" xmlns="http://www.w3.org/2000/svg">
<path d="M1681.06 334.504C1293.74 -106.66 669.093 -110.45 285.876 326.04C-97.341 762.529 -94.014 1474.01 293.307 1915.17C680.628 2356.34 1305.27 2360.13 1688.49 1923.64C2071.71 1487.15 2068.38 775.668 1681.06 334.504ZM1681.06 334.504C1306.39 -92.2469 702.125 -95.8786 331.391 326.392C-39.3427 748.664 -36.1543 1436.93 338.513 1863.68C713.18 2290.43 1317.45 2294.07 1688.18 1871.79C2058.91 1449.52 2055.73 761.255 1681.06 334.504ZM1681.06 334.504C1319.05 -77.8336 735.296 -81.4652 377.216 326.393C19.1366 734.251 22.3249 1399.15 384.338 1811.49C746.351 2223.83 1330.1 2227.46 1688.18 1819.6C2046.26 1411.74 2043.07 746.842 1681.06 334.504ZM1681.06 334.504C1331.7 -63.4203 768.328 -66.8942 422.732 326.745C77.1351 720.384 80.1847 1362.07 429.543 1760C778.902 2157.92 1342.27 2161.4 1687.87 1767.76C2033.47 1374.12 2030.42 732.429 1681.06 334.504ZM1681.06 334.504C1344.36 -49.007 801.36 -52.323 468.247 327.098C135.134 706.519 138.045 1325 474.749 1708.51C811.454 2092.02 1354.45 2095.34 1687.56 1715.91C2020.68 1336.49 2017.76 718.015 1681.06 334.504ZM1681.06 334.504C1357.01 -34.5936 834.531 -37.9096 514.072 327.098C193.613 692.105 196.524 1287.22 520.574 1656.31C844.624 2025.41 1367.1 2028.73 1687.56 1663.72C2008.02 1298.71 2005.11 703.602 1681.06 334.504ZM1681.37 334.857C1370.14 -19.6329 868.182 -22.6331 560.206 328.156C252.23 678.945 254.864 1250.69 566.089 1605.18C877.314 1959.67 1379.28 1962.67 1687.25 1611.88C1995.23 1261.09 1992.59 689.346 1681.37 334.857ZM1681.37 334.857C1382.8 -5.21962 901.215 -8.06178 605.722 328.509C310.229 665.079 312.724 1213.61 611.295 1553.69C909.866 1893.76 1391.45 1896.6 1686.94 1560.03C1982.44 1223.46 1979.94 674.933 1681.37 334.857ZM1681.37 334.857C1395.45 9.19369 934.385 6.35145 651.547 328.509C368.708 650.666 371.203 1175.83 657.12 1501.49C943.037 1827.15 1404.1 1830 1686.94 1507.84C1969.78 1185.68 1967.29 660.52 1681.37 334.857ZM1681.37 334.857C1408.11 23.6071 967.417 20.9226 697.062 328.861C426.707 636.8 429.063 1138.75 702.326 1450C975.588 1761.25 1416.28 1763.93 1686.63 1456C1956.99 1148.06 1954.63 646.106 1681.37 334.857ZM1681.37 334.857C1420.76 38.0204 1000.45 35.4939 742.577 329.214C484.705 622.934 486.923 1101.67 747.531 1398.51C1008.14 1695.35 1428.45 1697.87 1686.32 1404.15C1944.2 1110.43 1941.98 631.693 1681.37 334.857ZM1681.37 334.857C1433.42 52.4337 1033.62 49.9073 788.402 329.214C543.184 608.521 545.402 1063.89 793.356 1346.32C1041.31 1628.74 1441.11 1631.27 1686.32 1351.96C1931.54 1072.65 1929.32 617.28 1681.37 334.857ZM1681.37 334.857C1446.07 66.847 1066.65 64.4785 833.918 329.567C601.183 594.655 603.262 1026.82 838.562 1294.83C1073.86 1562.84 1453.28 1565.2 1686.01 1300.12C1918.75 1035.03 1916.67 602.867 1681.37 334.857ZM1681.99 334.151C1459.34 80.555 1100.17 78.5022 879.743 329.567C659.32 580.631 661.122 989.739 883.768 1243.34C1106.41 1496.93 1465.59 1498.98 1686.01 1247.92C1906.44 996.856 1904.63 587.748 1681.99 334.151ZM1681.99 334.151C1472 94.9683 1133.34 92.9155 925.567 329.567C717.799 566.218 719.601 951.957 929.593 1191.14C1139.58 1430.32 1478.25 1432.38 1686.01 1195.73C1893.78 959.074 1891.98 573.335 1681.99 334.151ZM1681.99 334.151C1484.65 109.382 1166.37 107.487 971.083 329.919C775.798 552.352 777.461 914.881 974.798 1139.65C1172.14 1364.42 1490.42 1366.32 1685.7 1143.88C1880.99 921.45 1879.33 558.921 1681.99 334.151ZM1681.99 334.151C1497.31 123.795 1199.4 122.058 1016.6 330.272C833.796 538.486 835.321 877.804 1020 1088.16C1204.69 1298.52 1502.59 1300.25 1685.39 1092.04C1868.2 883.826 1866.67 544.508 1681.99 334.151ZM1681.99 334.151C1509.96 138.208 1232.57 136.471 1062.42 330.272C892.275 524.073 893.8 840.022 1065.83 1035.97C1237.86 1231.91 1515.25 1233.65 1685.39 1039.85C1855.54 846.044 1854.02 530.095 1681.99 334.151ZM1681.99 334.151C1522.61 152.622 1265.6 151.042 1107.94 330.625C950.274 510.207 951.66 802.946 1111.03 984.476C1270.41 1166.01 1527.42 1167.58 1685.08 988.002C1842.75 808.42 1841.36 515.681 1681.99 334.151ZM1681.68 333.799C1535.13 166.877 1298.63 165.614 1153.45 330.977C1008.27 496.341 1009.38 765.711 1155.93 932.633C1302.48 1099.55 1538.97 1100.82 1684.16 935.455C1829.34 770.091 1828.23 500.721 1681.68 333.799ZM1681.68 333.799C1547.78 181.29 1331.81 180.027 1199.28 330.977C1066.75 481.928 1067.86 727.93 1201.76 880.438C1335.65 1032.95 1551.63 1034.21 1684.16 883.259C1816.68 732.309 1815.57 486.307 1681.68 333.799ZM1681.68 333.799C1560.44 195.704 1364.84 194.598 1244.79 331.33C1124.75 468.062 1125.72 690.853 1246.96 828.948C1368.2 967.043 1563.8 968.148 1683.85 831.417C1803.89 694.685 1802.92 471.894 1681.68 333.799ZM1681.68 333.799C1573.09 210.117 1397.87 209.17 1290.31 331.683C1182.75 454.196 1183.58 653.776 1292.17 777.458C1400.75 901.14 1575.98 902.087 1683.54 779.574C1791.1 657.061 1790.27 457.481 1681.68 333.799ZM1681.68 333.799C1585.75 224.53 1431.04 223.583 1336.13 331.683C1241.23 439.782 1242.06 615.994 1337.99 725.263C1433.92 834.531 1588.63 835.479 1683.54 727.379C1778.44 619.279 1777.61 443.067 1681.68 333.799ZM1681.68 333.799C1598.4 238.944 1464.07 238.154 1381.65 332.035C1299.23 425.917 1299.92 578.918 1383.2 673.773C1466.48 768.628 1600.8 769.418 1683.23 675.536C1765.65 581.655 1764.96 428.654 1681.68 333.799ZM1681.68 333.799C1611.05 253.357 1497.1 252.725 1427.16 332.388C1357.22 412.051 1357.78 541.841 1428.4 622.283C1499.03 702.725 1612.98 703.357 1682.92 623.694C1752.86 544.031 1752.3 414.241 1681.68 333.799Z" stroke="white" stroke-opacity="0.3" stroke-miterlimit="10"/>
</svg>
