<svg viewBox="0 0 2865 2836" fill="none" xmlns="http://www.w3.org/2000/svg">
<path d="M1432.86 2.26417C2223.66 2.26417 2864.73 636.423 2864.73 1418.7C2864.73 2200.97 2223.66 2835.13 1432.86 2835.13C642.068 2835.13 1 2200.97 1 1418.7C1 636.423 642.068 2.26417 1432.86 2.26417ZM1432.86 2.26417C2197.83 2.26417 2817.95 615.766 2817.95 1372.56C2817.95 2129.35 2197.83 2742.85 1432.86 2742.85C667.904 2742.85 47.7806 2129.35 47.7806 1372.56C47.7806 615.766 667.904 2.26417 1432.86 2.26417ZM1432.86 2.26417C2171.99 2.26417 2771.17 594.825 2771.17 1325.79C2771.17 2056.75 2171.99 2649.31 1432.86 2649.31C693.74 2649.31 94.5611 2056.75 94.5611 1325.79C94.5611 594.825 693.74 2.26417 1432.86 2.26417ZM1432.86 2.26417C2146.15 2.26417 2724.39 574.168 2724.39 1279.65C2724.39 1985.13 2146.15 2557.03 1432.86 2557.03C719.576 2557.03 141.342 1985.13 141.342 1279.65C141.342 574.168 719.576 2.26417 1432.86 2.26417ZM1432.86 2.26417C2120.32 2.26417 2677.61 553.51 2677.61 1233.51C2677.61 1913.5 2120.32 2464.75 1432.86 2464.75C745.412 2464.75 188.122 1913.5 188.122 1233.51C188.122 553.51 745.412 2.26417 1432.86 2.26417ZM1432.86 2.26417C2094.48 2.26417 2630.83 532.569 2630.83 1186.73C2630.83 1840.9 2094.48 2371.2 1432.86 2371.2C771.249 2371.2 234.903 1840.9 234.903 1186.73C234.903 532.569 771.249 2.26417 1432.86 2.26417ZM1432.23 2.26417C2067.66 2.26417 2582.78 511.912 2582.78 1140.59C2582.78 1769.28 2067.66 2278.93 1432.23 2278.93C796.802 2278.93 281.683 1769.28 281.683 1140.59C281.683 511.912 796.802 2.26417 1432.23 2.26417ZM1432.23 2.26417C2041.83 2.26417 2536 491.254 2536 1094.45C2536 1697.65 2041.83 2186.65 1432.23 2186.65C822.638 2186.65 328.464 1697.65 328.464 1094.45C328.464 491.254 822.638 2.26417 1432.23 2.26417ZM1432.23 2.26417C2015.99 2.26417 2489.22 470.314 2489.22 1047.68C2489.22 1625.05 2015.99 2093.1 1432.23 2093.1C848.474 2093.1 375.245 1625.05 375.245 1047.68C375.245 470.314 848.474 2.26417 1432.23 2.26417ZM1432.23 2.26417C1990.15 2.26417 2442.44 449.656 2442.44 1001.54C2442.44 1553.43 1990.15 2000.82 1432.23 2000.82C874.31 2000.82 422.025 1553.43 422.025 1001.54C422.025 449.656 874.31 2.26417 1432.23 2.26417ZM1432.23 2.26417C1964.32 2.26417 2395.66 428.999 2395.66 955.403C2395.66 1481.81 1964.32 1908.54 1432.23 1908.54C900.147 1908.54 468.806 1481.81 468.806 955.403C468.806 428.999 900.147 2.26417 1432.23 2.26417ZM1432.23 2.26417C1938.48 2.26417 2348.88 408.058 2348.88 908.63C2348.88 1409.2 1938.48 1815 1432.23 1815C925.983 1815 515.586 1409.2 515.586 908.63C515.586 408.058 925.983 2.26417 1432.23 2.26417ZM1432.23 2.26417C1912.65 2.26417 2302.1 387.401 2302.1 862.491C2302.1 1337.58 1912.65 1722.72 1432.23 1722.72C951.819 1722.72 562.367 1337.58 562.367 862.491C562.367 387.401 951.819 2.26417 1432.23 2.26417ZM1432.23 1.00012C1886.81 1.00012 2255.32 365.762 2255.32 815.719C2255.32 1265.68 1886.81 1630.44 1432.23 1630.44C977.655 1630.44 609.147 1265.68 609.147 815.719C609.147 365.762 977.655 1.00012 1432.23 1.00012ZM1432.23 1.00012C1860.97 1.00012 2208.54 344.822 2208.54 768.947C2208.54 1193.07 1860.97 1536.89 1432.23 1536.89C1003.49 1536.89 655.928 1193.07 655.928 768.947C655.928 344.822 1003.49 1.00012 1432.23 1.00012ZM1432.23 1.00012C1835.14 1.00012 2161.76 324.164 2161.76 722.806C2161.76 1121.45 1835.14 1444.61 1432.23 1444.61C1029.33 1444.61 702.709 1121.45 702.709 722.806C702.709 324.164 1029.33 1.00012 1432.23 1.00012ZM1432.23 1.00012C1809.3 1.00012 2114.98 303.506 2114.98 676.667C2114.98 1049.83 1809.3 1352.33 1432.23 1352.33C1055.16 1352.33 749.489 1049.83 749.489 676.667C749.489 303.506 1055.16 1.00012 1432.23 1.00012ZM1432.23 1.00012C1783.47 1.00012 2068.2 282.566 2068.2 629.895C2068.2 977.223 1783.47 1258.79 1432.23 1258.79C1081 1258.79 796.27 977.223 796.27 629.895C796.27 282.566 1081 1.00012 1432.23 1.00012ZM1432.23 1.00012C1757.63 1.00012 2021.42 261.908 2021.42 583.754C2021.42 905.601 1757.63 1166.51 1432.23 1166.51C1106.84 1166.51 843.05 905.601 843.05 583.754C843.05 261.908 1106.84 1.00012 1432.23 1.00012ZM1432.86 1C1732.08 1 1974.63 241.25 1974.63 537.614C1974.63 833.978 1732.08 1074.23 1432.86 1074.23C1133.65 1074.23 891.095 833.978 891.095 537.614C891.095 241.25 1133.65 1 1432.86 1ZM1432.86 1C1706.24 1 1927.85 220.31 1927.85 490.843C1927.85 761.375 1706.24 980.685 1432.86 980.685C1159.49 980.685 937.876 761.375 937.876 490.843C937.876 220.31 1159.49 1 1432.86 1ZM1432.86 1C1680.4 1 1881.07 199.652 1881.07 444.702C1881.07 689.753 1680.4 888.405 1432.86 888.405C1185.33 888.405 984.656 689.753 984.656 444.702C984.656 199.652 1185.33 1 1432.86 1ZM1432.86 1C1654.57 1 1834.29 178.995 1834.29 398.563C1834.29 618.13 1654.57 796.125 1432.86 796.125C1211.16 796.125 1031.44 618.13 1031.44 398.563C1031.44 178.995 1211.16 1 1432.86 1ZM1432.86 1C1628.73 1 1787.51 158.054 1787.51 351.79C1787.51 545.527 1628.73 702.581 1432.86 702.581C1237 702.581 1078.22 545.527 1078.22 351.79C1078.22 158.054 1237 1 1432.86 1ZM1432.86 1C1602.89 1 1740.73 137.397 1740.73 305.65C1740.73 473.904 1602.9 610.301 1432.86 610.301C1262.83 610.301 1125 473.904 1125 305.65C1125 137.397 1262.83 1 1432.86 1ZM1432.86 1C1577.06 1 1693.95 116.739 1693.95 259.51C1693.95 402.282 1577.06 518.021 1432.86 518.021C1288.67 518.021 1171.78 402.282 1171.78 259.51C1171.78 116.739 1288.67 1 1432.86 1Z" stroke="#0472B6" stroke-opacity="0.3" stroke-width="0.5" stroke-miterlimit="10"/>
</svg>
