<svg width="72" height="72" viewBox="0 0 72 72" fill="none" xmlns="http://www.w3.org/2000/svg">
<style>
		@media (prefers-color-scheme: light) {
			path {
				fill: #0472B6;
			}
			rect {
				fill: white;
			}
		}

		@media (prefers-color-scheme: dark) {
			path {
				fill: white;
			}
			rect {
				fill: #0472B6;
			}
		}
	</style>

<rect width="72" height="72" rx="10" fill="#0472B6"/>
<path d="M11.543 35.2564C11.543 33.0615 11.543 31.05 11.543 28.8112C12.5263 28.8112 13.4993 28.8732 14.462 28.7957C15.9538 28.6795 17.4765 28.6176 18.9166 28.2586C20.7775 27.7939 21.5543 26.588 21.5363 24.7624C21.5208 23.182 20.6536 22.0665 18.8599 21.5656C15.8686 20.7315 12.8851 20.9691 9.97379 21.9452C8.51299 22.4332 7.12446 23.133 5.6998 23.7217C5.24556 23.9102 4.77326 24.0548 4.05318 24.3105C4.04802 21.594 4.02995 19.1228 4.08157 16.6542C4.08673 16.4451 4.51 16.1481 4.7939 16.0552C10.8616 14.0488 17.03 13.2457 23.3171 14.8622C26.471 15.673 29.2067 17.1733 30.2701 20.5559C31.6586 24.9638 29.2816 29.6195 24.9198 31.1946C24.5766 31.3186 24.2385 31.4632 23.6552 31.6956C24.2204 31.8815 24.5224 31.9977 24.8347 32.0803C30.4327 33.5651 32.7271 37.5726 31.1553 43.1554C29.8287 47.8679 26.2696 50.1531 21.8666 51.1137C15.7731 52.4435 9.72344 51.8574 3.8338 49.7942C3.50345 49.678 3.04663 49.27 3.04147 48.9885C2.97952 46.5484 3.00533 44.1082 3.00533 41.3607C3.78735 41.6577 4.3758 41.8307 4.91521 42.0967C9.10402 44.1676 13.4425 45.2831 18.1346 44.2683C20.4239 43.7725 21.9415 42.1586 22.0808 40.0955C22.2641 37.3661 21.1078 35.8606 18.3695 35.4991C16.8829 35.3029 15.3705 35.321 13.8658 35.2616C13.138 35.2332 12.4102 35.2564 11.543 35.2564Z" fill="white"/>
<path d="M51.1548 58.5608C49.8592 58.6382 48.5635 58.5298 47.2731 58.4652C45.5155 58.3774 43.7501 58.269 42.0287 57.8274C41.8919 57.7913 41.7757 57.7267 41.6493 57.6751C41.4789 57.6054 41.2905 57.5279 41.2957 57.3342C41.3034 57.1277 41.5073 57.0399 41.688 56.9727C42.2429 56.7661 42.8288 56.6938 43.4095 56.5983C44.385 56.4356 45.371 56.3607 46.3569 56.2884C48.7029 56.1206 51.0541 56.1051 53.4027 56.1567C54.8145 56.1877 56.2288 56.2626 57.638 56.4253C58.5723 56.5337 59.4988 56.6577 60.4099 56.8978C60.4693 56.9133 60.5467 56.9056 60.5906 56.9392C60.7325 57.0502 60.9829 57.0941 60.9725 57.3162C60.9622 57.5201 60.7635 57.5899 60.588 57.6802C59.8499 58.0547 59.0369 58.0779 58.2497 58.1734C56.6831 58.3645 55.1139 58.5014 53.5266 58.5117C52.7394 58.5195 51.9445 58.5246 51.1548 58.5608Z" fill="#2A2A2A"/>
<path d="M55.4726 47.2946C55.803 46.4089 56.1721 45.5413 56.5411 44.6711C56.8328 43.9843 56.9928 43.2457 57.2509 42.546C57.5296 41.7842 57.7671 41.0044 57.989 40.2297C58.2678 39.2588 58.5259 38.275 58.802 37.3015C59.2046 35.8684 59.4885 34.4069 59.8163 32.9583C60.0254 32.0261 60.1492 31.0655 60.2422 30.1075C60.3273 29.2321 60.4331 28.3594 60.3815 27.4814C60.3273 26.5234 60.1338 25.5783 59.6382 24.7494C58.8665 23.4583 57.6612 22.8515 56.185 22.8541C55.9424 22.8541 55.6223 22.8515 55.3591 22.9884C55.1707 23.0865 54.9719 22.9187 54.7706 22.9393C55.8391 22.8025 56.8612 22.3996 57.94 22.3583C60.1286 22.2783 61.8707 23.7475 62.2733 25.9708C62.5443 27.4582 62.4669 28.9429 62.2966 30.4354C62.0488 32.5967 61.6333 34.7245 61.1429 36.8393C60.6345 39.0393 60.0228 41.211 59.153 43.3C59.0446 43.5634 58.9362 43.8345 58.7349 44.0514C58.5775 44.2786 58.3916 44.4904 58.2832 44.7512L58.2936 44.7408C58.0639 44.9242 57.9322 45.1927 57.7387 45.4045C57.3748 45.9286 56.8767 46.3134 56.376 46.693C56.2366 46.6594 56.1824 46.742 56.154 46.8582C55.9062 46.9615 55.7488 47.2197 55.4726 47.2946Z" fill="#2A2A2A"/>
<path d="M58.2884 44.746C58.3039 44.4258 58.5362 44.2451 58.7401 44.0462C58.6291 44.307 58.4974 44.5523 58.2884 44.746Z" fill="#2A2A2A"/>
<path d="M57.7412 45.3993C57.8703 45.1333 58.0097 44.8699 58.2961 44.7357C58.1413 44.9836 57.9942 45.234 57.7412 45.3993Z" fill="#2A2A2A"/>
<path d="M56.1591 46.8531C56.1333 46.7679 56.043 46.6801 56.1824 46.6078C56.2882 46.551 56.3398 46.6052 56.3811 46.6904C56.3063 46.7446 56.2314 46.7989 56.1591 46.8531Z" fill="#2A2A2A"/>
<path d="M34.3143 33.4928C34.3143 27.2516 34.3169 21.013 34.3066 14.7718C34.3066 14.4232 34.366 14.307 34.7479 14.3096C40.0156 14.3251 45.2806 14.3044 50.5483 14.3329C52.7472 14.3458 54.8584 14.8699 56.8921 15.6911C60.8048 17.274 63.9199 19.8252 66.1395 23.4299C67.5435 25.7074 68.4133 28.1838 68.7824 30.8357C69.3424 34.8613 68.7746 38.7243 66.8932 42.3265C64.1058 47.6639 59.806 51.1034 53.8518 52.3687C52.2258 52.7147 50.5844 52.7586 48.9352 52.7482C48.6719 52.7457 48.659 52.6269 48.6565 52.428C48.6126 50.4243 48.6306 48.4231 48.6745 46.4193C48.7158 44.5807 48.7184 42.7422 48.7829 40.9037C48.8139 40.0387 48.7674 39.1633 48.9249 38.306C49.1313 37.175 50.0088 36.3461 50.987 36.3125C52.2542 36.2712 53.173 36.9529 53.5008 38.1975C53.6066 38.5978 53.6324 39.0135 53.6505 39.4293C53.7589 41.996 53.746 44.5652 53.7563 47.132C53.7563 47.3953 53.7873 47.6613 53.7796 47.9247C53.7744 48.1674 53.8208 48.2294 54.0738 48.1261C56.8508 46.9848 58.7504 45.0378 59.7208 42.1638C60.7635 39.0781 61.5223 35.9304 62.0643 32.7233C62.3275 31.1585 62.5572 29.5911 62.5417 28.0004C62.5288 26.7326 62.3869 25.4957 61.7107 24.3673C60.89 22.9987 59.2769 22.2241 57.6922 22.441C56.856 22.5546 56.0533 22.8154 55.2197 22.9342C53.8131 23.133 52.5278 22.7766 51.3019 22.1104C50.285 21.5578 49.3223 20.9046 48.2358 20.4862C44.9425 19.2158 41.8506 20.8297 40.4698 23.7785C39.6026 25.6248 39.5407 27.577 39.7342 29.5394C40.1498 33.751 41.1125 37.8619 42.0596 41.9753C42.8597 45.4561 43.745 48.9137 44.7283 52.3454C44.8109 52.632 44.8057 52.7431 44.4367 52.7405C41.288 52.725 38.1367 52.7327 34.988 52.7353C34.3247 52.7353 34.3195 52.7379 34.3195 52.0536C34.3169 45.8718 34.3169 39.6823 34.3143 33.4928C34.3169 33.4928 34.3169 33.4928 34.3143 33.4928Z" fill="white"/>
</svg>
