<svg width="265" height="45" viewBox="0 0 265 45" fill="none" xmlns="http://www.w3.org/2000/svg">
<g clip-path="url(#clip0_190_164)">
<path d="M74.5831 2.04C77.3988 2.04 80.0959 2.04 82.9504 2.04C82.9504 6.28514 82.9504 10.4812 82.9504 14.6231C84.6951 15.186 85.8616 14.84 86.9714 13.4301C89.844 9.78402 92.8869 6.27481 95.8885 2.73203C96.1646 2.40667 96.6214 2.03225 97.0008 2.02451C99.8244 1.96512 102.65 1.99094 105.755 1.99094C101.75 7.05205 97.9042 11.9143 93.9967 16.8515C102.137 21.3058 104.478 29.0188 106.199 37.3309C103.154 37.3309 100.322 37.3567 97.4938 37.2896C97.2357 37.2844 96.877 36.7189 96.7582 36.3497C95.9814 33.9405 95.4368 31.4409 94.4793 29.1118C92.6701 24.7091 89.3304 22.269 84.4912 21.972C83.3685 21.9023 82.8884 22.0727 82.9168 23.3664C82.9994 27.4953 82.9452 31.6243 82.9452 35.7532C82.9452 36.218 82.9452 36.6854 82.9452 37.2431C80.1062 37.2431 77.3885 37.2431 74.5831 37.2431C74.5831 25.5174 74.5831 13.8407 74.5831 2.04Z" fill="#0472B6"/>
<path d="M162.827 1.87476C162.827 4.09803 162.827 6.01919 162.827 8.13401C161.867 8.13401 160.94 8.11077 160.014 8.13917C157.183 8.22697 154.323 8.11852 151.528 8.49552C148.348 8.92416 146.57 10.7833 146.175 13.2907C147.754 13.0299 149.357 12.627 150.975 12.5212C158.45 12.0357 163.929 17.0245 164.169 24.5155C164.339 29.8219 162.401 34.1471 157.495 36.4943C152.222 39.0197 146.89 39.03 142.069 35.2497C139.302 33.0806 137.913 29.9897 137.413 26.5812C136.688 21.6286 136.992 16.7043 138.53 11.9143C140.389 6.13022 144.526 2.96703 150.441 2.35763C154.491 1.94448 158.587 2.02452 162.827 1.87476ZM150.797 19.0722C147.109 19.1006 144.926 21.4272 144.967 25.2824C145.008 29.0033 147.3 31.428 150.787 31.4306C154.163 31.4332 156.542 28.8536 156.555 25.1791C156.566 21.6389 154.122 19.0464 150.797 19.0722Z" fill="#0472B6"/>
<path d="M8.54536 21.6673C8.54536 19.4724 8.54536 17.4609 8.54536 15.2221C9.52869 15.2221 10.5017 15.2841 11.4644 15.2066C12.9561 15.0904 14.4789 15.0285 15.919 14.6695C17.7799 14.2047 18.5567 12.9989 18.5386 11.1732C18.5232 9.59293 17.656 8.47742 15.8622 7.97648C12.871 7.14243 9.88743 7.37999 6.97617 8.35606C5.51537 8.8441 4.12684 9.54387 2.70218 10.1326C2.24794 10.3211 1.77564 10.4657 1.05556 10.7214C1.0504 8.00488 1.03233 5.53371 1.08395 3.06513C1.08911 2.85597 1.51238 2.55902 1.79628 2.46606C7.864 0.459692 14.0324 -0.343372 20.3195 1.27309C23.4733 2.0839 26.2091 3.58415 27.2724 6.96684C28.661 11.3747 26.2839 16.0304 21.9222 17.6055C21.579 17.7294 21.2409 17.874 20.6576 18.1064C21.2228 18.2924 21.5248 18.4086 21.837 18.4912C27.435 19.976 29.7295 23.9835 28.1577 29.5662C26.8311 34.2788 23.272 36.564 18.869 37.5246C12.7755 38.8544 6.72582 38.2683 0.836185 36.2051C0.505828 36.0889 0.0490074 35.6809 0.0438456 35.3994C-0.0180963 32.9593 0.00771283 30.5191 0.00771283 27.7716C0.789728 28.0686 1.37818 28.2416 1.91759 28.5075C6.1064 30.5785 10.4449 31.694 15.137 30.6792C17.4263 30.1834 18.9438 28.5695 19.0832 26.5063C19.2665 23.777 18.1102 22.2715 15.3719 21.91C13.8853 21.7138 12.3728 21.7319 10.8682 21.6725C10.1404 21.6441 9.41255 21.6673 8.54536 21.6673Z" fill="#0472B6"/>
<path d="M208.937 12.578C208.937 20.8152 208.937 28.9775 208.937 37.238C206.253 37.238 203.621 37.238 200.846 37.238C200.846 34.1781 200.846 31.144 200.846 28.0118C198.025 28.0118 195.339 28.0118 192.505 28.0118C192.505 31.0511 192.505 34.0774 192.505 37.2199C189.728 37.2199 187.095 37.2199 184.362 37.2199C184.362 29.0395 184.362 20.8488 184.362 12.5625C186.989 12.5625 189.63 12.5625 192.427 12.5625C192.427 15.5424 192.427 18.5248 192.427 21.5795C195.269 21.5795 197.953 21.5795 200.761 21.5795C200.761 18.5816 200.761 15.6353 200.761 12.578C203.52 12.578 206.158 12.578 208.937 12.578Z" fill="#0472B6"/>
<path d="M240.045 27.1002C233.993 27.1002 228.083 27.1002 222.015 27.1002C222.353 29.2435 223.538 30.5242 225.295 31.2343C228.426 32.4996 231.185 31.8128 233.546 29.2719C235.415 30.4519 237.25 31.6139 239.139 32.8069C237.671 34.9269 235.825 36.36 233.526 37.1373C228.854 38.715 224.268 38.5394 219.981 35.9649C215.312 33.1607 213.279 27.6942 214.51 21.7654C215.596 16.5365 219.726 12.6632 225.107 11.8265C233.371 10.5406 239.418 15.3254 240.032 23.6633C240.112 24.7298 240.045 25.8066 240.045 27.1002ZM222.126 21.9358C225.628 21.9358 229.04 21.9358 232.444 21.9358C232.63 19.3123 230.88 17.4273 228.186 17.2569C224.937 17.0503 222.338 19.018 222.126 21.9358Z" fill="#0472B6"/>
<path d="M109.384 15.8056C112.383 13.0349 115.927 11.8187 119.86 11.6457C121.055 11.5915 122.271 11.6948 123.458 11.8497C127.662 12.3997 130.23 14.703 131.26 18.8113C131.479 19.6841 131.714 20.5853 131.722 21.4761C131.766 26.6767 131.742 31.8747 131.742 37.1914C129.396 37.1914 126.983 37.1914 124.485 37.1914C124.449 36.4271 124.415 35.7118 124.371 34.7925C123.819 35.309 123.404 35.766 122.924 36.1404C119.71 38.6297 113.733 38.3766 110.607 35.7789C107.616 33.2923 106.912 27.1182 111.224 24.3785C113.777 22.7569 116.616 22.1966 119.548 21.9409C121.039 21.8118 122.536 21.755 124.013 21.6672C124.263 19.9759 123.755 18.9172 122.312 18.2742C120.002 17.2413 117.772 17.6441 115.627 18.7984C114.915 19.1806 114.257 19.6634 113.454 20.1747C112.122 18.739 110.78 17.3033 109.384 15.8056ZM124.343 26.4959C121.829 26.4546 119.39 26.3462 117.137 27.5391C116.082 28.0969 115.599 29.0084 115.751 30.2014C115.893 31.3272 116.662 31.9366 117.674 32.2C121.38 33.1683 124.89 31.1258 124.343 26.4959Z" fill="#0472B6"/>
<path d="M249.971 18.7547C247.558 18.7547 245.38 18.7547 243.135 18.7547C243.135 16.6476 243.135 14.6464 243.135 12.5522C250.4 12.5522 257.675 12.5522 265 12.5522C265 14.5922 265 16.596 265 18.7495C262.737 18.7495 260.525 18.7495 258.166 18.7495C258.166 24.9752 258.166 31.0563 258.166 37.2355C255.384 37.2355 252.751 37.2355 249.971 37.2355C249.971 31.1079 249.971 25.0294 249.971 18.7547Z" fill="#0472B6"/>
<path d="M177.734 12.5649C177.734 20.7841 177.734 28.9516 177.734 37.225C175.079 37.225 172.441 37.225 169.7 37.225C169.7 29.0549 169.7 20.8564 169.7 12.5649C172.307 12.5649 174.949 12.5649 177.734 12.5649Z" fill="#0472B6"/>
<path d="M173.636 8.97063C171.013 8.9603 169.008 6.99525 169.023 4.4492C169.039 1.99095 171.199 -0.0412462 173.757 0.00265122C176.374 0.0465486 178.382 2.03484 178.359 4.55765C178.33 7.08563 176.307 8.97838 173.636 8.97063Z" fill="#0472B6"/>
<path d="M48.1571 44.9717C46.8615 45.0492 45.5659 44.9407 44.2755 44.8761C42.5179 44.7884 40.7525 44.6799 39.0311 44.2383C38.8943 44.2022 38.7781 44.1376 38.6517 44.086C38.4813 44.0163 38.2929 43.9388 38.2981 43.7451C38.3058 43.5386 38.5097 43.4508 38.6904 43.3836C39.2453 43.1771 39.8311 43.1048 40.4118 43.0092C41.3874 42.8465 42.3733 42.7717 43.3592 42.6994C45.7053 42.5315 48.0565 42.516 50.4051 42.5677C51.8169 42.5987 53.2312 42.6735 54.6404 42.8362C55.5747 42.9447 56.5012 43.0686 57.4123 43.3088C57.4717 43.3242 57.5491 43.3165 57.593 43.3501C57.7349 43.4611 57.9853 43.505 57.9749 43.7271C57.9646 43.9311 57.7659 44.0008 57.5904 44.0912C56.8522 44.4656 56.0392 44.4888 55.2521 44.5844C53.6855 44.7754 52.1163 44.9123 50.529 44.9226C49.7418 44.9304 48.9469 44.9355 48.1571 44.9717Z" fill="#F0EFEB"/>
<path d="M52.475 33.7055C52.8054 32.8198 53.1744 31.9522 53.5435 31.082C53.8352 30.3952 53.9952 29.6566 54.2533 28.9569C54.532 28.1951 54.7694 27.4153 54.9914 26.6406C55.2701 25.6697 55.5282 24.6859 55.8044 23.7124C56.207 22.2793 56.4909 20.8178 56.8187 19.3692C57.0277 18.437 57.1516 17.4764 57.2445 16.5184C57.3297 15.643 57.4355 14.7703 57.3839 13.8923C57.3297 12.9343 57.1361 11.9892 56.6406 11.1603C55.8689 9.86925 54.6636 9.26243 53.1873 9.26501C52.9447 9.26501 52.6247 9.26243 52.3615 9.39929C52.1731 9.49741 51.9743 9.32957 51.773 9.35022C52.8415 9.21337 53.8635 8.81054 54.9424 8.76923C57.131 8.68918 58.8731 10.1585 59.2757 12.3817C59.5467 13.8691 59.4693 15.3538 59.2989 16.8464C59.0512 19.0077 58.6356 21.1354 58.1453 23.2502C57.6368 25.4502 57.0252 27.6219 56.1554 29.7109C56.047 29.9743 55.9386 30.2454 55.7373 30.4623C55.5799 30.6895 55.394 30.9013 55.2856 31.1621L55.2959 31.1517C55.0662 31.3351 54.9346 31.6036 54.7411 31.8154C54.3771 32.3396 53.879 32.7243 53.3783 33.1039C53.239 33.0703 53.1848 33.1529 53.1564 33.2691C52.9086 33.3724 52.7512 33.6307 52.475 33.7055Z" fill="#F0EFEB"/>
<path d="M55.2908 31.1568C55.3063 30.8366 55.5385 30.6559 55.7424 30.457C55.6315 30.7178 55.4998 30.9631 55.2908 31.1568Z" fill="#FEFEFE"/>
<path d="M54.7436 31.8101C54.8726 31.5441 55.012 31.2808 55.2985 31.1465C55.1436 31.3944 54.9965 31.6448 54.7436 31.8101Z" fill="#FEFEFE"/>
<path d="M53.1615 33.264C53.1357 33.1788 53.0454 33.091 53.1848 33.0187C53.2906 32.9619 53.3422 33.0161 53.3835 33.1014C53.3086 33.1556 53.2338 33.2098 53.1615 33.264Z" fill="#FEFEFE"/>
<path d="M31.3167 19.9037C31.3167 13.6625 31.3193 7.42389 31.309 1.18271C31.309 0.834118 31.3683 0.717919 31.7503 0.720501C37.0179 0.735994 42.283 0.715337 47.5506 0.743741C49.7496 0.756652 51.8607 1.28084 53.8945 2.10198C57.8072 3.68487 60.9223 6.23608 63.1419 9.84083C64.5459 12.1183 65.4157 14.5947 65.7847 17.2466C66.3448 21.2722 65.777 25.1352 63.8955 28.7374C61.1081 34.0748 56.8083 37.5143 50.8542 38.7795C49.2282 39.1256 47.5868 39.1695 45.9376 39.1591C45.6743 39.1565 45.6614 39.0378 45.6588 38.8389C45.6149 36.8351 45.633 34.8339 45.6769 32.8302C45.7182 30.9916 45.7208 29.1531 45.7853 27.3146C45.8162 26.4495 45.7698 25.5742 45.9272 24.7169C46.1337 23.5859 47.0112 22.757 47.9894 22.7234C49.2566 22.6821 50.1754 23.3638 50.5032 24.6084C50.609 25.0087 50.6348 25.4244 50.6529 25.8401C50.7613 28.4068 50.7484 30.9761 50.7587 33.5428C50.7587 33.8062 50.7897 34.0722 50.7819 34.3356C50.7768 34.5783 50.8232 34.6403 51.0761 34.537C53.8532 33.3957 55.7528 31.4487 56.7232 28.5747C57.7659 25.489 58.5246 22.3413 59.0666 19.1342C59.3299 17.5694 59.5596 16.002 59.5441 14.4113C59.5312 13.1435 59.3893 11.9066 58.7131 10.7782C57.8923 9.4096 56.2793 8.63494 54.6946 8.85185C53.8584 8.96546 53.0557 9.22627 52.2221 9.34505C50.8155 9.54388 49.5302 9.18753 48.3042 8.52133C47.2874 7.96874 46.3247 7.31544 45.2381 6.89712C41.9449 5.62668 38.853 7.24056 37.4722 10.1894C36.605 12.0357 36.543 13.9878 36.7366 15.9503C37.1521 20.1619 38.1148 24.2727 39.062 28.3862C39.8621 31.867 40.7473 35.3246 41.7307 38.7563C41.8133 39.0429 41.8081 39.154 41.439 39.1514C38.2903 39.1359 35.139 39.1436 31.9903 39.1462C31.327 39.1462 31.3219 39.1488 31.3219 38.4645C31.3193 32.2827 31.3193 26.0932 31.3167 19.9037C31.3193 19.9037 31.3193 19.9037 31.3167 19.9037Z" fill="#0472B6"/>
</g>
<defs>
<clipPath id="clip0_190_164">
<rect width="265" height="45" fill="white"/>
</clipPath>
</defs>
</svg>
