<svg  viewBox="0 0 34 34" fill="none" xmlns="http://www.w3.org/2000/svg">
<path fill-rule="evenodd" clip-rule="evenodd" d="M17 32.381C25.4947 32.381 32.381 25.4947 32.381 17C32.381 8.50533 25.4947 1.61905 17 1.61905C8.50533 1.61905 1.61905 8.50533 1.61905 17C1.61905 25.4947 8.50533 32.381 17 32.381ZM17 34C26.3888 34 34 26.3888 34 17C34 7.61116 26.3888 0 17 0C7.61116 0 0 7.61116 0 17C0 26.3888 7.61116 34 17 34Z" fill="#0472B6"/>
<path class="line line-1" d="M9.71429 17C9.71429 16.5529 10.0767 16.1905 10.5238 16.1905H24.2857C24.7328 16.1905 25.0952 16.5529 25.0952 17C25.0952 17.4471 24.7328 17.8095 24.2857 17.8095H10.5238C10.0767 17.8095 9.71429 17.4471 9.71429 17Z" fill="#0472B6"/>
<path class="line line-2" d="M9.71429 12.1429C9.71429 11.6958 10.0767 11.3333 10.5238 11.3333H24.2857C24.7328 11.3333 25.0952 11.6958 25.0952 12.1429C25.0952 12.5899 24.7328 12.9524 24.2857 12.9524H10.5238C10.0767 12.9524 9.71429 12.5899 9.71429 12.1429Z" fill="#0472B6"/>
<path class="line line-3" d="M9.71429 21.8571C9.71429 21.4101 10.0767 21.0476 10.5238 21.0476H24.2857C24.7328 21.0476 25.0952 21.4101 25.0952 21.8571C25.0952 22.3042 24.7328 22.6667 24.2857 22.6667H10.5238C10.0767 22.6667 9.71429 22.3042 9.71429 21.8571Z" fill="#0472B6"/>
</svg>
