<svg width="34" height="34" viewBox="0 0 34 34" fill="none" xmlns="http://www.w3.org/2000/svg">
<path fill-rule="evenodd" clip-rule="evenodd" d="M17 32.381C25.4947 32.381 32.381 25.4947 32.381 17C32.381 8.50533 25.4947 1.61905 17 1.61905C8.50533 1.61905 1.61905 8.50533 1.61905 17C1.61905 25.4947 8.50533 32.381 17 32.381ZM17 34C26.3888 34 34 26.3888 34 17C34 7.61116 26.3888 0 17 0C7.61116 0 0 7.61116 0 17C0 26.3888 7.61116 34 17 34Z" fill="#0472B6"/>
<path d="M18.6022 17.483L24.8197 11.2821C24.9425 11.139 25.0067 10.955 24.9994 10.7667C24.9921 10.5785 24.9139 10.3999 24.7803 10.2667C24.6468 10.1335 24.4677 10.0554 24.2789 10.0482C24.0902 10.0409 23.9056 10.1049 23.7622 10.2275L17.5447 16.4283L11.3272 10.22C11.1859 10.0791 10.9944 10 10.7947 10C10.5949 10 10.4034 10.0791 10.2622 10.22C10.1209 10.3608 10.0416 10.5519 10.0416 10.7511C10.0416 10.9502 10.1209 11.1413 10.2622 11.2821L16.4872 17.483L10.2622 23.6839C10.1836 23.7509 10.1199 23.8334 10.0749 23.9262C10.0298 24.019 10.0045 24.1201 10.0006 24.2231C9.99657 24.3261 10.014 24.4289 10.0517 24.5249C10.0894 24.6208 10.1466 24.708 10.2197 24.7809C10.2928 24.8538 10.3802 24.9109 10.4764 24.9485C10.5727 24.9861 10.6757 25.0034 10.7789 24.9994C10.8822 24.9955 10.9836 24.9702 11.0766 24.9253C11.1697 24.8804 11.2524 24.8168 11.3197 24.7385L17.5447 18.5377L23.7622 24.7385C23.9056 24.8611 24.0902 24.9251 24.2789 24.9178C24.4677 24.9106 24.6468 24.8325 24.7803 24.6993C24.9139 24.5661 24.9921 24.3875 24.9994 24.1993C25.0067 24.011 24.9425 23.827 24.8197 23.6839L18.6022 17.483Z" fill="#0472B6"/>
</svg>
