<svg width="24" height="24" viewBox="0 0 24 24" fill="none" xmlns="http://www.w3.org/2000/svg">
<g clip-path="url(#clip0_74:1340)">
<path d="M8.07909 11.7001C8.07909 11.4191 8.05609 11.1381 8.00809 10.8621H4.12109V12.4491H6.34709C6.25509 12.9611 5.95809 13.4141 5.52409 13.7011V14.7321H6.85309C7.63109 14.0161 8.07909 12.9551 8.07909 11.7001Z" fill="#4285F4"/>
<path d="M4.12096 15.728C5.23396 15.728 6.17096 15.363 6.85296 14.733L5.52396 13.702C5.15396 13.953 4.67796 14.096 4.11996 14.096C3.04496 14.096 2.13296 13.372 1.80696 12.395H0.438965V13.457C1.13896 14.85 2.56396 15.728 4.12096 15.728Z" fill="#34A853"/>
<path d="M1.80801 12.3951C1.63601 11.8841 1.63601 11.3291 1.80801 10.8171V9.7561H0.439012C-0.146988 10.9211 -0.146988 12.2931 0.439012 13.4581L1.80801 12.3951Z" fill="#FBBC04"/>
<path d="M4.12096 9.11709C4.70896 9.10809 5.27596 9.32909 5.70196 9.73509L6.87896 8.55909C6.13297 7.85809 5.14496 7.47409 4.12096 7.48509C2.56396 7.48509 1.13896 8.36509 0.438965 9.75609L1.80796 10.8181C2.13396 9.84109 3.04596 9.11709 4.12096 9.11709Z" fill="#EA4335"/>
<path d="M1.80796 12.395L0.438965 13.457C1.13896 14.849 2.56396 15.728 4.12096 15.728V14.096C3.04596 14.096 2.13396 13.372 1.80796 12.395Z" fill="#2D9248"/>
<path d="M0.439012 9.7561C-0.146988 10.9211 -0.146988 12.2931 0.439012 13.4581L1.80801 12.3961C1.63601 11.8851 1.63601 11.3301 1.80801 10.8181L0.439012 9.7561Z" fill="#DBA403"/>
<path d="M4.12096 7.48511C2.56396 7.48511 1.13896 8.36511 0.438965 9.75611L1.80796 10.8181C2.13396 9.84111 3.04696 9.11711 4.12096 9.11711V7.48511Z" fill="#CC3A2E"/>
<path d="M10.9171 11.497V14.401H9.99512V7.22702H12.4391C13.0291 7.21502 13.5991 7.43802 14.0221 7.84802C14.4511 8.23402 14.6921 8.78602 14.6831 9.36202C14.6961 9.94202 14.4541 10.499 14.0221 10.885C13.5941 11.293 13.0671 11.497 12.4391 11.495L10.9171 11.497ZM10.9171 8.11002V10.615H12.4621C12.8051 10.625 13.1351 10.49 13.3741 10.243C13.8581 9.77302 13.8691 8.99802 13.3981 8.51402L13.3741 8.49002C13.1391 8.23802 12.8061 8.10002 12.4621 8.10902H10.9171V8.11002ZM16.8071 9.33202C17.4891 9.33202 18.0261 9.51402 18.4201 9.87802C18.8141 10.242 19.0101 10.742 19.0101 11.375V14.401H18.1301V13.719H18.0901C17.7091 14.28 17.2001 14.56 16.5671 14.56C16.0271 14.56 15.5741 14.4 15.2101 14.079C14.8571 13.781 14.6561 13.34 14.6651 12.877C14.6651 12.369 14.8571 11.965 15.2411 11.665C15.6251 11.365 16.1371 11.215 16.7791 11.215C17.3261 11.215 17.7781 11.315 18.1311 11.515V11.304C18.1331 10.988 17.9931 10.689 17.7501 10.488C17.5061 10.269 17.1881 10.148 16.8601 10.152C16.3451 10.152 15.9381 10.37 15.6381 10.803L14.8271 10.292C15.2711 9.65202 15.9321 9.33202 16.8071 9.33202ZM15.6141 12.898C15.6131 13.136 15.7271 13.36 15.9191 13.499C16.1231 13.659 16.3761 13.744 16.6351 13.739C17.0241 13.738 17.3971 13.583 17.6721 13.308C17.9771 13.02 18.1301 12.684 18.1301 12.297C17.8431 12.068 17.4421 11.953 16.9271 11.953C16.5531 11.953 16.2401 12.043 15.9901 12.224C15.7401 12.408 15.6141 12.631 15.6141 12.898ZM24.0711 9.49202L20.9941 16.565H20.0431L21.1851 14.09L19.1611 9.49202H20.1621L21.6241 13.018H21.6441L23.0671 9.49202H24.0711Z" fill="#5F6368"/>
<path d="M10.9171 12.395H9.99512V14.4H10.9171V12.395ZM19.0111 12.395H18.1281C18.1041 12.741 17.9521 13.045 17.6731 13.308C17.3981 13.583 17.0251 13.738 16.6361 13.739C16.6281 13.739 16.6211 13.739 16.6141 13.739C16.3631 13.739 16.1191 13.654 15.9201 13.499C15.7271 13.36 15.6141 13.136 15.6151 12.898C15.6151 12.709 15.6781 12.542 15.8041 12.395H14.7311C14.6871 12.544 14.6641 12.704 14.6641 12.877C14.6551 13.34 14.8561 13.781 15.2091 14.079C15.5731 14.4 16.0261 14.56 16.5661 14.56C17.1991 14.56 17.7081 14.28 18.0891 13.719H18.1291V14.401H19.0101V12.395H19.0111ZM22.8081 12.395H21.8961L21.6451 13.018H21.6251L21.3671 12.395H20.4391L21.1851 14.09L20.0431 16.565H20.9941L22.8081 12.395Z" fill="#53565B"/>
</g>
<defs>
<clipPath id="clip0_74:1340">
<rect width="24" height="24" fill="white"/>
</clipPath>
</defs>
</svg>
