<svg width="10" height="10" viewBox="0 0 10 10" fill="none" xmlns="http://www.w3.org/2000/svg">
<path d="M8.33333 2.50194H8.13889C8.26568 2.26838 8.33215 2.01206 8.33333 1.75213C8.33502 1.40388 8.22082 1.06315 8.00545 0.773798C7.79008 0.484443 7.48339 0.259707 7.12486 0.128518C6.76633 -0.00267046 6.37236 -0.0343078 5.99368 0.0376787C5.61499 0.109665 5.26892 0.281981 5 0.532445C4.73108 0.281981 4.38501 0.109665 4.00632 0.0376787C3.62764 -0.0343078 3.23367 -0.00267046 2.87514 0.128518C2.51661 0.259707 2.20992 0.484443 1.99455 0.773798C1.77918 1.06315 1.66499 1.40388 1.66667 1.75213C1.66785 2.01206 1.73432 2.26838 1.86111 2.50194H1.66667C1.22464 2.50194 0.800716 2.65993 0.488155 2.94116C0.175595 3.22239 0 3.60383 0 4.00155V5.00129C0 5.13386 0.0585316 5.26101 0.162718 5.35475C0.266905 5.4485 0.408213 5.50116 0.555556 5.50116H1.11111V8.50039C1.11111 8.89811 1.28671 9.27954 1.59927 9.56077C1.91183 9.84201 2.33575 10 2.77778 10H7.22222C7.66425 10 8.08817 9.84201 8.40073 9.56077C8.71329 9.27954 8.88889 8.89811 8.88889 8.50039V5.50116H9.44444C9.59179 5.50116 9.7331 5.4485 9.83728 5.35475C9.94147 5.26101 10 5.13386 10 5.00129V4.00155C10 3.60383 9.82441 3.22239 9.51185 2.94116C9.19928 2.65993 8.77536 2.50194 8.33333 2.50194ZM4.44444 9.00026H2.77778C2.63044 9.00026 2.48913 8.94759 2.38494 8.85385C2.28075 8.76011 2.22222 8.63296 2.22222 8.50039V5.50116H4.44444V9.00026ZM4.44444 4.50142H1.11111V4.00155C1.11111 3.86897 1.16964 3.74183 1.27383 3.64809C1.37802 3.55434 1.51932 3.50168 1.66667 3.50168H4.44444V4.50142ZM4.44444 2.50194H3.61111C3.44629 2.50194 3.28518 2.45796 3.14814 2.37557C3.0111 2.29318 2.90428 2.17608 2.84121 2.03907C2.77814 1.90206 2.76164 1.7513 2.79379 1.60585C2.82594 1.4604 2.90531 1.3268 3.02186 1.22194C3.1384 1.11707 3.28689 1.04566 3.44854 1.01673C3.61019 0.987799 3.77774 1.00265 3.93001 1.0594C4.08229 1.11615 4.21244 1.21225 4.304 1.33556C4.39557 1.45886 4.44444 1.60383 4.44444 1.75213V2.50194ZM5.55556 1.75213C5.55556 1.60383 5.60443 1.45886 5.696 1.33556C5.78757 1.21225 5.91771 1.11615 6.06999 1.0594C6.22226 1.00265 6.38981 0.987799 6.55146 1.01673C6.71312 1.04566 6.8616 1.11707 6.97815 1.22194C7.09469 1.3268 7.17406 1.4604 7.20621 1.60585C7.23836 1.7513 7.22186 1.90206 7.15879 2.03907C7.09572 2.17608 6.9889 2.29318 6.85186 2.37557C6.71482 2.45796 6.55371 2.50194 6.38889 2.50194H5.55556V1.75213ZM7.77778 8.50039C7.77778 8.63296 7.71925 8.76011 7.61506 8.85385C7.51087 8.94759 7.36957 9.00026 7.22222 9.00026H5.55556V5.50116H7.77778V8.50039ZM8.88889 4.50142H5.55556V3.50168H8.33333C8.48068 3.50168 8.62198 3.55434 8.72617 3.64809C8.83036 3.74183 8.88889 3.86897 8.88889 4.00155V4.50142Z" fill="#25C06C"/>
</svg>
