<svg width="32" height="10" viewBox="0 0 32 10" fill="none" xmlns="http://www.w3.org/2000/svg">
<path fill-rule="evenodd" clip-rule="evenodd" d="M5.08403 1.08462C5.3356 1.08305 6.08328 1.0129 6.39998 2.12631C6.61331 2.87631 6.95314 4.10484 7.41946 5.81191H7.60938C8.10946 4.0122 8.453 2.78366 8.63998 2.12631C8.95998 1.00131 9.75998 1.08464 10.08 1.08464L12.5489 1.08464V9.08462H10.0325V4.3701H9.86377L8.46103 9.08462H6.5678L5.16507 4.36661H4.99633V9.08462H2.47998V1.08464L5.08403 1.08462ZM16.1623 1.08464V5.80267H16.363L18.0693 1.92307C18.4005 1.15102 19.1065 1.08464 19.1065 1.08464H21.5416V9.08464H18.9727V4.36661H18.7719L17.0991 8.24621C16.7678 9.01477 16.0284 9.08464 16.0284 9.08464H13.5934V1.08464H16.1623ZM30.4208 4.88629C30.0625 5.94404 28.9372 6.70157 27.6913 6.70157H24.9973V9.08464H22.5544V4.88629H30.4208Z" fill="#0F754E"/>
<path fill-rule="evenodd" clip-rule="evenodd" d="M27.8091 1.08472H22.4263C22.5544 2.86579 24.0268 4.3905 25.5511 4.3905H30.5905C30.8813 2.91022 29.8802 1.08472 27.8091 1.08472Z" fill="url(#paint0_linear_74:1350)"/>
<defs>
<linearGradient id="paint0_linear_74:1350" x1="30.6399" y1="3.1642" x2="22.4263" y2="3.1642" gradientUnits="userSpaceOnUse">
<stop stop-color="#1F5CD7"/>
<stop offset="1" stop-color="#02AEFF"/>
</linearGradient>
</defs>
</svg>
