<svg width="21" height="10" viewBox="0 0 21 10" fill="none" xmlns="http://www.w3.org/2000/svg">
<path d="M1.12155 3.50473L0 0.229398H0.4799L1.01461 1.84351C1.16232 2.28539 1.28998 2.68399 1.38155 3.06794H1.39225C1.48916 2.6859 1.6322 2.27521 1.78459 1.84796L2.36608 0.230035H2.83997L1.60947 3.50473H1.12155Z" fill="#B1B4C7"/>
<path d="M3.07992 2.40574C3.09061 2.98452 3.47761 3.22202 3.92676 3.22202C4.16123 3.22902 4.3945 3.18753 4.61052 3.10041L4.68404 3.40922C4.42402 3.51224 4.14412 3.56192 3.8626 3.55503C3.10198 3.55503 2.64814 3.07812 2.64814 2.36881C2.64814 1.65949 3.08727 1.10044 3.80578 1.10044C4.61253 1.10044 4.82708 1.77665 4.82708 2.20835C4.82612 2.27504 4.82076 2.3416 4.81104 2.40765L3.07992 2.40574ZM4.39597 2.09947C4.40199 1.82759 4.279 1.40416 3.7737 1.40416C3.31987 1.40416 3.12069 1.80275 3.0846 2.09947H4.39597Z" fill="#B1B4C7"/>
<path d="M5.17865 1.88553C5.17865 1.60919 5.1733 1.37042 5.1586 1.15138H5.55295L5.56765 1.61301H5.5877C5.69999 1.29465 5.97002 1.0979 6.27213 1.0979C6.31495 1.09741 6.35766 1.10233 6.39912 1.11254V1.51623C6.34887 1.5057 6.2975 1.50078 6.24606 1.50158C5.92991 1.50158 5.70601 1.73017 5.64451 2.05044C5.63159 2.1164 5.62466 2.18329 5.62379 2.25037V3.50473H5.17865V1.88553Z" fill="#B1B4C7"/>
<path d="M7.16375 0.491093C7.16375 0.561344 7.13446 0.628716 7.08231 0.678391C7.03017 0.728065 6.95945 0.755971 6.88571 0.755971C6.81196 0.755971 6.74124 0.728065 6.6891 0.678391C6.63695 0.628716 6.60766 0.561344 6.60766 0.491093C6.60691 0.45576 6.61372 0.420651 6.62768 0.387907C6.64163 0.355162 6.66244 0.325465 6.68882 0.300625C6.71521 0.275785 6.74663 0.256321 6.78117 0.243419C6.81571 0.230516 6.85264 0.224446 6.88972 0.225577C6.92659 0.224482 6.9633 0.230668 6.99754 0.243747C7.03178 0.256826 7.06281 0.276514 7.08868 0.301573C7.11454 0.326632 7.13469 0.356519 7.14784 0.389354C7.16099 0.422189 7.16686 0.457263 7.16509 0.492366L7.16375 0.491093ZM6.66447 1.15329H7.11429V3.50537H6.66447V1.15329Z" fill="#B1B4C7"/>
<path d="M7.69913 3.50473V1.47739H7.35224V1.15202H7.69913V1.03995C7.69913 0.709491 7.776 0.408319 7.98453 0.218574C8.14767 0.0741177 8.3634 -0.00420789 8.58608 0.000174462C8.71688 -0.000236354 8.84659 0.0228788 8.9684 0.0683049L8.90757 0.398767C8.81739 0.361522 8.71976 0.343486 8.6215 0.34592C8.23919 0.34592 8.14294 0.664282 8.14294 1.02658V1.15393H8.73914V1.4793H8.14294V3.50473H7.69913Z" fill="#B1B4C7"/>
<path d="M9.68156 0.491093C9.68156 0.561344 9.65227 0.628716 9.60013 0.678391C9.54798 0.728065 9.47726 0.755971 9.40351 0.755971C9.32977 0.755971 9.25905 0.728065 9.2069 0.678391C9.15476 0.628716 9.12547 0.561344 9.12547 0.491093C9.12464 0.455789 9.13134 0.420692 9.14517 0.387926C9.15899 0.355161 9.17965 0.325408 9.20589 0.300467C9.23213 0.275527 9.26342 0.255917 9.29784 0.242826C9.33227 0.229735 9.36913 0.223434 9.40619 0.224304C9.44306 0.223209 9.47977 0.229395 9.51402 0.242474C9.54826 0.255553 9.57929 0.275241 9.60515 0.3003C9.63102 0.325359 9.65116 0.355246 9.66431 0.388082C9.67746 0.420917 9.68333 0.45599 9.68156 0.491093ZM9.18228 1.15202H9.6301V3.50409H9.18228V1.15202Z" fill="#B1B4C7"/>
<path d="M10.4221 2.40574C10.4328 2.98452 10.8198 3.22202 11.269 3.22202C11.5034 3.22906 11.7367 3.18757 11.9527 3.10041L12.0296 3.40922C11.7696 3.51224 11.4897 3.56192 11.2082 3.55503C10.4475 3.55503 9.9937 3.07812 9.9937 2.36881C9.9937 1.65949 10.4328 1.10044 11.1507 1.10044C11.9574 1.10044 12.1713 1.77665 12.1713 2.20835C12.1706 2.27505 12.1652 2.34163 12.1553 2.40765L10.4221 2.40574ZM11.7382 2.09947C11.7429 1.82759 11.6205 1.40416 11.1159 1.40416C10.6621 1.40416 10.4636 1.80275 10.4268 2.09947H11.7382Z" fill="#B1B4C7"/>
<path d="M14.657 0.0542972V2.89666C14.657 3.10614 14.6617 3.34236 14.6771 3.50473H14.276L14.2553 3.09659H14.242C14.1043 3.35892 13.8042 3.55758 13.4005 3.55758C12.8036 3.55758 12.3451 3.07621 12.3451 2.3618C12.3397 1.57926 12.8504 1.09853 13.4519 1.09853C13.8289 1.09853 14.0842 1.26917 14.1958 1.45828H14.2065V0.0542972H14.657ZM14.2072 2.10966C14.2081 2.04905 14.2014 1.98855 14.1871 1.92946C14.155 1.78875 14.0732 1.66279 13.9553 1.57263C13.8374 1.48247 13.6906 1.43357 13.5395 1.43409C13.0716 1.43409 12.7996 1.82249 12.7996 2.34334C12.7996 2.81961 13.0435 3.21311 13.5295 3.21311C13.6837 3.21266 13.8331 3.16184 13.9528 3.06915C14.0725 2.97646 14.1552 2.84748 14.1871 2.70373C14.2019 2.64344 14.2087 2.58161 14.2072 2.51971V2.10966Z" fill="#B1B4C7"/>
<path d="M16.3186 3.50473C16.3293 3.34364 16.3387 3.10614 16.3387 2.89666V0.0542972H16.7818V1.53151H16.7918C16.9503 1.26918 17.2357 1.09917 17.634 1.09917C18.2463 1.09917 18.6794 1.58563 18.6754 2.2994C18.6754 3.13989 18.1186 3.55822 17.5678 3.55822C17.2103 3.55822 16.9249 3.42705 16.741 3.11633H16.7263L16.705 3.50473H16.3186ZM16.7865 2.56174C16.7879 2.61406 16.7948 2.66611 16.8072 2.7171C16.8442 2.85981 16.9302 2.98666 17.0515 3.07746C17.1729 3.16826 17.3226 3.2178 17.4769 3.2182C17.9448 3.2182 18.2269 2.85399 18.2269 2.31405C18.2269 1.84287 17.9715 1.43918 17.4916 1.43918C17.3327 1.442 17.1793 1.49508 17.0555 1.59006C16.9317 1.68504 16.8446 1.81653 16.8079 1.96385C16.7928 2.0201 16.7841 2.07774 16.7818 2.13576L16.7865 2.56174Z" fill="#B1B4C7"/>
<path d="M19.1666 1.15202L19.7073 2.54263C19.7635 2.698 19.825 2.88265 19.8651 3.024H19.8751C19.9219 2.88328 19.972 2.70564 20.0342 2.53308L20.5248 1.15202H21L20.3243 2.82852C20.0034 3.63526 19.7835 4.0485 19.4774 4.30128C19.3219 4.43737 19.1322 4.53298 18.9267 4.57889L18.8144 4.21914C18.9583 4.17393 19.0917 4.10281 19.2074 4.00966C19.3703 3.88093 19.4996 3.71788 19.585 3.53338C19.603 3.50167 19.615 3.46718 19.6205 3.43151C19.6165 3.39283 19.6062 3.355 19.5897 3.31944L18.6767 1.15456L19.1666 1.15202Z" fill="#B1B4C7"/>
<path d="M7.44648 5.10929L6.08765 8.3878L5.5369 5.6002C5.51471 5.46342 5.44185 5.33872 5.33152 5.24868C5.22118 5.15863 5.08065 5.10918 4.93536 5.10929H2.70696L2.67688 5.24873C3.13339 5.34424 3.65206 5.49642 3.96687 5.65815C4.15936 5.75875 4.21417 5.84598 4.27633 6.08284L5.32035 9.92614H6.70324L8.82202 5.10929H7.44648Z" fill="#B1B4C7"/>
<path d="M9.38212 5.10865L8.30068 9.9255H9.60938L10.6882 5.10865H9.38212Z" fill="#B1B4C7"/>
<path d="M12.4052 6.44451C12.4092 6.27195 12.5824 6.08858 12.96 6.03955C13.4025 6.00057 13.8479 6.07509 14.25 6.2554L14.4792 5.23663C14.0882 5.09631 13.674 5.02364 13.2561 5.02206C11.9628 5.02206 11.0544 5.67789 11.0451 6.61388C11.0384 7.306 11.6954 7.69631 12.19 7.92426C12.7 8.15985 12.8718 8.31076 12.8684 8.52343C12.8684 8.84688 12.462 8.98824 12.0871 8.99333C11.4287 9.00352 11.0477 8.8246 10.743 8.69025L10.507 9.74531C10.8111 9.87839 11.3759 9.99491 11.9621 10C13.3336 10 14.2346 9.35245 14.2346 8.35215C14.24 7.07869 12.3899 7.01056 12.4026 6.44196" fill="#B1B4C7"/>
<path d="M16.1916 8.22034L16.8868 6.4114L17.2778 8.22034H16.1916ZM16.6882 5.10929C16.5688 5.10817 16.4519 5.14126 16.3525 5.20428C16.2531 5.2673 16.1758 5.35732 16.1308 5.46267L14.1691 9.9255H15.5433L15.816 9.206H17.487L17.644 9.9255H18.8565L17.8051 5.10929H16.6882Z" fill="#B1B4C7"/>
</svg>
