<svg width="11" height="11" viewBox="0 0 11 11" fill="none" xmlns="http://www.w3.org/2000/svg">
<path d="M11 5.5C11 2.46632 8.53368 -1.07806e-07 5.5 -2.40413e-07C2.46632 -3.73019e-07 8.45868e-07 2.46632 7.13262e-07 5.5C5.80655e-07 8.53368 2.46632 11 5.5 11C8.53368 11 11 8.53368 11 5.5ZM5.17579 7.49158L3.20737 4.52737C3.03368 4.27263 3.21895 3.93684 3.53158 3.93684L7.48 3.93684C7.78105 3.93684 7.96632 4.27263 7.80421 4.52737L5.82421 7.49158C5.66211 7.72316 5.33789 7.72316 5.17579 7.49158Z" fill="#FAC600"/>
</svg>
