<svg width="45" height="44" viewBox="0 0 45 44" fill="none" xmlns="http://www.w3.org/2000/svg">
<path d="M0.5 22C0.5 10.1519 10.355 0.5 22.5 0.5C34.645 0.5 44.5 10.1519 44.5 22C44.5 33.8481 34.645 43.5 22.5 43.5C10.355 43.5 0.5 33.8481 0.5 22Z" stroke="#F5FBFF"/>
<path d="M19.4445 14.3334C19.199 14.0879 19.199 13.6899 19.4445 13.4445C19.6899 13.199 20.0879 13.199 20.3334 13.4445L28.3337 21.4448C28.5792 21.6903 28.5792 22.0883 28.3337 22.3337C28.0883 22.5792 27.6903 22.5792 27.4448 22.3337L19.4445 14.3334Z" fill="white"/>
<path d="M19.4445 29.4768C19.199 29.7222 19.199 30.1202 19.4445 30.3657C19.6899 30.6111 20.0879 30.6111 20.3334 30.3657L28.3337 22.3653C28.5792 22.1199 28.5792 21.7219 28.3337 21.4764C28.0883 21.2309 27.6903 21.2309 27.4448 21.4764L19.4445 29.4768Z" fill="white"/>
</svg>
