<svg width="21" height="22" viewBox="0 0 21 22" fill="none" xmlns="http://www.w3.org/2000/svg">
<path d="M20.4502 14.5276L18.348 12.5367V7.63101C18.376 5.80932 17.7032 4.03962 16.4539 2.64868C15.2046 1.25773 13.4631 0.339475 11.5511 0.0634629C10.4414 -0.074175 9.31329 0.0126623 8.24206 0.318181C7.17083 0.623699 6.1811 1.14087 5.3389 1.83519C4.4967 2.52951 3.82141 3.38502 3.35807 4.34462C2.89474 5.30422 2.65402 6.34585 2.65197 7.40002V12.5367L0.549824 14.5276C0.285777 14.7804 0.106718 15.101 0.0350312 15.4491C-0.036656 15.7973 0.00220961 16.1576 0.146769 16.4851C0.291328 16.8125 0.535168 17.0926 0.847805 17.2903C1.16044 17.4879 1.528 17.5944 1.90454 17.5964H5.82856V17.9704C5.88311 19.087 6.40542 20.1378 7.28105 20.8924C8.15668 21.647 9.31422 22.0439 10.5 21.9961C11.6858 22.0439 12.8433 21.647 13.7189 20.8924C14.5946 20.1378 15.1169 19.087 15.1714 17.9704V17.5964H19.0955C19.472 17.5944 19.8396 17.4879 20.1522 17.2903C20.4648 17.0926 20.7087 16.8125 20.8532 16.4851C20.9978 16.1576 21.0367 15.7973 20.965 15.4491C20.8933 15.101 20.7142 14.7804 20.4502 14.5276ZM12.8357 17.9704C12.771 18.4995 12.492 18.9846 12.0568 19.3247C11.6217 19.6649 11.0641 19.8338 10.5 19.7963C9.93594 19.8338 9.37827 19.6649 8.94316 19.3247C8.50805 18.9846 8.22904 18.4995 8.16428 17.9704V17.5964H12.8357V17.9704Z" fill="#FAC600"/>
</svg>
