<svg width="50" height="47" viewBox="0 0 50 47" fill="none" xmlns="http://www.w3.org/2000/svg">
<path d="M33.7978 0C33.2775 0 32.7562 0 32.2359 0C32.187 0.0329407 32.1401 0.0898383 32.0892 0.0948293C30.8608 0.211619 29.8378 0.785586 28.9527 1.61909C27.8993 2.6103 27.2274 3.80515 27.0416 5.29447C26.8812 6.58415 27.0494 7.76802 27.6264 8.93492C28.047 9.78339 28.6387 10.4572 29.3302 11.09C27.1091 12.2699 25.7682 14.1196 25.107 16.686C24.4635 14.0976 23.0835 12.2629 20.9445 11.104C21.3993 10.5849 21.9088 10.1358 22.256 9.57976C23.0874 8.24815 23.3808 6.80176 23.1793 5.19465C22.8986 2.95867 20.9103 0.678778 18.694 0.195648C18.4544 0.143741 18.2197 0.0658814 17.983 0C17.4627 0 16.9414 0 16.4211 0C16.3888 0.0309443 16.3585 0.0848473 16.3223 0.0898383C14.6968 0.300459 13.4293 1.12198 12.4307 2.42663C10.8443 4.4989 10.7142 7.39669 12.2008 9.58175C12.5833 10.1437 13.0723 10.6309 13.4547 11.084C12.8806 11.5302 12.2771 12.0084 11.661 12.4696C11.5514 12.5514 11.3685 12.6323 11.2551 12.5963C10.1479 12.24 9.032 12.1601 7.88379 12.3498C5.99226 12.6612 4.46653 13.5995 3.34863 15.1617C2.20922 16.7538 1.74857 18.5456 2.06741 20.5251C2.34028 22.225 3.05522 23.6654 4.35014 24.7894C4.57607 24.986 4.79221 25.1956 5.03868 25.4222C3.80146 26.0701 2.75301 26.8806 1.93146 27.9826C0.717712 29.6107 -0.00212479 31.4095 0.0203705 33.4857C0.0369987 34.996 0.0751419 36.5093 0.00276947 38.0156C-0.0363541 38.8311 0.341171 39.2434 0.970047 39.5269C2.87917 40.3883 4.91251 40.7087 6.97226 40.8235C8.31999 40.8984 9.67751 40.8704 11.0282 40.8255C11.8086 40.7996 12.5881 40.6738 13.3608 40.546C14.2185 40.4043 15.0665 40.2086 15.935 40.0329C15.935 41.3785 15.9389 42.7391 15.933 44.0996C15.9311 44.6846 16.1189 45.1627 16.6558 45.4242C17.227 45.7027 17.7923 46.0232 18.3957 46.1988C20.3303 46.7628 22.3225 46.9844 24.3275 46.9994C25.6479 47.0094 26.9702 46.8936 28.2895 46.8117C29.7292 46.7229 31.1366 46.4264 32.4746 45.8854C33.8771 45.3194 34.1402 45.0309 34.0942 43.5037C34.059 42.3438 34.0873 41.1819 34.0873 40.0639C35.2199 40.2655 36.3359 40.5131 37.4655 40.6528C38.6597 40.8006 39.8666 40.8954 41.0686 40.9173C41.9811 40.9343 42.8955 40.7946 43.81 40.7397C45.3309 40.6478 46.8175 40.3753 48.2493 39.8393C48.8987 39.5967 49.5697 39.3651 50 38.7463C50 36.6211 50 34.4959 50 32.3717C49.9697 32.3378 49.9169 32.3078 49.912 32.2709C49.6567 30.3124 48.8146 28.6345 47.4522 27.2629C46.7353 26.5422 45.8746 25.9693 45.1225 25.3643C45.6047 24.8503 46.2111 24.3292 46.6659 23.6953C47.818 22.0882 48.2689 20.2825 47.9539 18.2891C47.6508 16.3765 46.749 14.8103 45.2458 13.6744C43.4579 12.3238 41.4216 11.9205 39.2455 12.4636C38.8563 12.5604 38.6108 12.5544 38.2929 12.245C37.8851 11.8477 37.3579 11.5772 36.8875 11.2458C36.8161 11.1958 36.7701 11.108 36.7633 11.1C37.1955 10.5839 37.6454 10.1358 37.9907 9.61569C38.8533 8.31603 39.2387 6.89758 38.9785 5.30545C38.6 2.99062 37.3696 1.37952 35.2698 0.464164C34.8003 0.260531 34.2898 0.152725 33.7978 0ZM34.0893 35.1787C34.0913 35.1787 34.0932 35.1787 34.0952 35.1787C34.0952 34.3821 33.9983 33.5706 34.1147 32.792C34.3739 31.0581 35.1436 29.5818 36.4571 28.3989C37.7511 27.233 39.266 26.651 40.9522 26.6141C42.2412 26.5861 43.4657 26.9455 44.5807 27.6652C46.5837 28.9559 47.729 30.8055 47.9324 33.1903C48.0488 34.5578 47.952 35.9433 47.9559 37.3208C47.9569 37.5574 47.906 37.6722 47.6439 37.776C45.9177 38.4568 44.1064 38.6744 42.2882 38.7283C40.8074 38.7722 39.3149 38.6874 37.8401 38.5296C36.7075 38.4079 35.5955 38.0884 34.4766 37.8449C34.191 37.783 34.0688 37.5963 34.0815 37.2709C34.1079 36.5732 34.0893 35.8754 34.0893 35.1787ZM15.9369 35.1248C15.9369 35.8215 15.9174 36.5193 15.9448 37.216C15.9585 37.5734 15.8421 37.7461 15.5076 37.8588C13.8087 38.4348 12.0502 38.6874 10.278 38.7293C8.7963 38.7642 7.31066 38.6255 5.82795 38.5486C4.62399 38.4867 3.46698 38.1863 2.3481 37.7441C2.22194 37.6941 2.09185 37.4725 2.08501 37.3238C2.05567 36.7109 2.05078 36.095 2.07718 35.4821C2.12608 34.3502 2.06153 33.1893 2.29333 32.0952C3.065 28.4438 6.79328 25.8964 10.4932 26.7988C13.0087 27.4117 14.6851 29.0048 15.5976 31.4674C16.0387 32.6602 15.9193 33.897 15.9369 35.1248ZM32.0706 41.3536C32.0286 41.3586 31.9875 41.3635 31.9454 41.3685C31.9454 42.0653 31.9337 42.762 31.9513 43.4588C31.9582 43.7383 31.8525 43.8431 31.5992 43.9379C29.4573 44.7375 27.2117 44.7984 24.9779 44.8952C24.1172 44.9321 23.2497 44.7794 22.3842 44.7285C21.0227 44.6486 19.7014 44.3731 18.4084 43.9339C18.1473 43.8451 18.071 43.7113 18.0749 43.4398C18.0896 42.2619 18.0759 41.084 18.0818 39.9062C18.0945 37.5903 18.9689 35.6908 20.7684 34.2673C22.657 32.773 24.7725 32.3587 27.0504 33.0834C29.3791 33.8231 30.9674 35.4162 31.6227 37.8109C31.9337 38.9459 31.9308 40.1697 32.0706 41.3536ZM18.0867 33.7163C18.0172 32.0373 17.6289 30.3863 16.7184 28.87C15.8029 27.3468 14.5149 26.2537 13.0009 25.3833C16.9922 22.5544 16.9922 16.649 13.398 13.7822C15.4166 12.1611 17.6035 11.8756 19.9019 12.9906C21.99 14.0038 23.283 16.3276 23.1372 18.5786C20.3968 19.5418 18.5669 21.3725 18.0925 24.3771C17.6201 27.3697 18.7195 29.7305 20.9455 31.4554C19.9987 32.204 19.0383 32.9627 18.0867 33.7163ZM29.069 31.4504C29.0915 31.4294 29.2021 31.3096 29.3302 31.2128C31.564 29.5219 32.454 26.662 31.9044 24.0637C31.386 21.6101 29.9522 19.8443 27.6499 18.903C27.1364 18.6924 26.9829 18.4218 27.0621 17.9267C27.1218 17.5594 27.1589 17.1821 27.2675 16.8287C28.0597 14.2484 29.7752 12.7261 32.3983 12.3667C33.7147 12.1861 35.4409 12.5454 36.6723 13.7183C34.8668 15.2545 33.9318 17.195 33.9915 19.6187C34.0521 22.0473 35.0977 23.9369 37.0146 25.3943C33.7353 27.226 32.0609 30.0529 31.9308 33.7053C30.9733 32.9507 30.0109 32.1921 29.069 31.4504ZM45.904 19.7734C45.7739 22.6103 43.3816 24.6047 40.8172 24.4799C37.9183 24.3382 35.9329 21.9285 36.062 19.1855C36.1862 16.5412 38.3819 14.0417 41.7072 14.446C43.9342 14.7165 46.1651 16.8587 45.904 19.7734ZM4.12226 19.8253C3.86112 16.675 6.24068 14.3911 8.97919 14.3771C11.5808 14.3641 13.8107 16.2188 13.9574 19.2334C14.0943 22.0633 11.973 24.3871 9.16306 24.4799C6.51454 24.5678 4.26896 22.5125 4.12226 19.8253ZM25.0092 30.5819C22.2101 30.5949 20.0378 28.2222 20.0574 25.529C20.0779 22.774 22.2404 20.6189 24.797 20.5131C27.7467 20.3913 29.9639 22.8269 29.9698 25.537C29.9767 28.2402 27.8005 30.5989 25.0092 30.5819ZM33.0291 10.1617C31.0652 10.2935 29.0348 8.46975 29.0622 6.14194C29.0876 3.99681 30.7024 2.20403 32.9538 2.14115C35.1788 2.07926 36.8405 4.07367 36.952 5.9992C37.0801 8.22519 34.9304 10.3444 33.0291 10.1617ZM13.2972 6.17688C13.1808 4.13955 14.9843 2.09423 17.2465 2.13815C19.408 2.18008 21.1323 3.84208 21.1675 6.1659C21.1998 8.333 19.3669 10.0759 17.3688 10.1857C15.1692 10.3064 13.1388 8.14135 13.2972 6.17688Z" fill="#0472B6"/>
</svg>
