<svg width="35" height="35" viewBox="0 0 35 35" fill="none" xmlns="http://www.w3.org/2000/svg">
<path d="M28.9541 7.17749C26.818 6.16025 24.5339 5.42096 22.146 5C21.8527 5.53965 21.5101 6.2655 21.2739 6.84291C18.7354 6.45436 16.2203 6.45436 13.7286 6.84291C13.4924 6.2655 13.142 5.53965 12.8461 5C10.4556 5.42096 8.16891 6.16297 6.03277 7.18288C1.72413 13.8097 0.556135 20.2719 1.14014 26.6424C3.99785 28.8144 6.76731 30.1339 9.49004 30.9973C10.1623 30.0556 10.7619 29.0546 11.2784 27.9996C10.2947 27.6192 9.35248 27.1497 8.46223 26.6046C8.69841 26.4265 8.92943 26.2404 9.15262 26.0488C14.5825 28.6337 20.4822 28.6337 25.8473 26.0488C26.0731 26.2404 26.3041 26.4265 26.5377 26.6046C25.6448 27.1523 24.7 27.6218 23.7163 28.0023C24.2328 29.0546 24.8298 30.0584 25.5046 31C28.23 30.1366 31.002 28.8172 33.8597 26.6424C34.545 19.2574 32.6892 12.8545 28.9541 7.17749ZM12.0181 22.7246C10.3881 22.7246 9.05138 21.1758 9.05138 19.2898C9.05138 17.4037 10.3596 15.8522 12.0181 15.8522C13.6767 15.8522 15.0134 17.401 14.9849 19.2898C14.9874 21.1758 13.6767 22.7246 12.0181 22.7246ZM22.9818 22.7246C21.3518 22.7246 20.015 21.1758 20.015 19.2898C20.015 17.4037 21.3232 15.8522 22.9818 15.8522C24.6403 15.8522 25.977 17.401 25.9485 19.2898C25.9485 21.1758 24.6403 22.7246 22.9818 22.7246Z" fill="#BBFF4B"/>
</svg>
