<svg width="33" height="33" viewBox="0 0 33 33" fill="none" xmlns="http://www.w3.org/2000/svg">
<path d="M16.4202 33C7.34317 32.9859 -0.0140383 25.5792 2.01138e-05 16.4688C0.0125164 6.92227 8.06952 -0.327466 17.1169 0.0114092C25.7971 0.336165 33.1824 7.71769 32.9966 16.9316C32.8169 25.7267 25.441 33.0141 16.4202 33ZM6.6918 12.0227C6.66837 12.3804 6.64338 12.5843 6.64338 12.7883C6.64338 15.5824 6.6465 18.3766 6.65275 21.1723C6.65588 22.7851 7.2557 23.3828 8.87241 23.3844C13.9694 23.386 19.0663 23.386 24.1617 23.3844C25.7065 23.3844 26.3579 22.7459 26.3626 21.2115C26.3704 18.4425 26.3673 15.675 26.3657 12.9059C26.3657 12.6596 26.3345 12.4133 26.311 12.0572C25.9846 12.2423 25.7612 12.36 25.5472 12.4933C23.2276 13.9382 20.9189 15.4004 18.5867 16.8265C16.1796 18.2997 16.8513 18.3436 14.4239 16.8375C11.8856 15.2608 9.3504 13.6778 6.6918 12.0227ZM25.8471 11.8313C25.8643 11.7842 25.8815 11.7356 25.8987 11.6885C22.8777 9.80271 19.8614 7.90909 16.8216 6.05469C16.6201 5.93231 16.175 6.04057 15.9328 6.18961C13.204 7.86359 10.4922 9.56581 7.77742 11.2618C7.55092 11.403 7.33068 11.5551 7.10887 11.701C7.13074 11.7434 7.1526 11.7873 7.17447 11.8297C13.3976 11.8313 19.6224 11.8313 25.8471 11.8313Z" fill="#BBFF4B"/>
</svg>
