<svg width="33" height="33" viewBox="0 0 33 33" fill="none" xmlns="http://www.w3.org/2000/svg">
<path d="M26.125 0H6.875C3.07862 0 0 3.07862 0 6.875V26.125C0 29.9214 3.07862 33 6.875 33H26.125C29.9228 33 33 29.9214 33 26.125V6.875C33 3.07862 29.9228 0 26.125 0ZM11 26.125H6.875V11H11V26.125ZM8.9375 9.2565C7.60925 9.2565 6.53125 8.17025 6.53125 6.831C6.53125 5.49175 7.60925 4.4055 8.9375 4.4055C10.2657 4.4055 11.3438 5.49175 11.3438 6.831C11.3438 8.17025 10.2671 9.2565 8.9375 9.2565ZM27.5 26.125H23.375V18.4195C23.375 13.7885 17.875 14.1391 17.875 18.4195V26.125H13.75V11H17.875V13.4269C19.7945 9.87113 27.5 9.6085 27.5 16.8314V26.125Z" fill="#BBFF4B"/>
</svg>
