<svg width="30" height="35" viewBox="0 0 30 35" fill="none" xmlns="http://www.w3.org/2000/svg">
<path d="M26.2641 7.48525C26.0305 7.36316 25.803 7.22932 25.5826 7.08423C24.9418 6.65583 24.3542 6.15105 23.8326 5.58076C22.5274 4.07073 22.04 2.53883 21.8604 1.46628H21.8676C21.7176 0.576013 21.7797 0 21.789 0H15.8444V23.2432C15.8444 23.5553 15.8444 23.8637 15.8315 24.1685C15.8315 24.2064 15.8278 24.2414 15.8257 24.2822C15.8257 24.299 15.8257 24.3165 15.8221 24.334C15.8221 24.3384 15.8221 24.3427 15.8221 24.3471C15.7594 25.1811 15.495 25.9867 15.0522 26.6931C14.6093 27.3995 14.0016 27.985 13.2824 28.3982C12.5329 28.8293 11.6852 29.0555 10.8228 29.0544C8.05313 29.0544 5.8084 26.7707 5.8084 23.9505C5.8084 21.1302 8.05313 18.8466 10.8228 18.8466C11.3471 18.8461 11.8682 18.9295 12.3666 19.0937L12.3739 12.9734C10.8606 12.7758 9.32319 12.8974 7.85871 13.3306C6.39422 13.7638 5.03442 14.4992 3.86508 15.4904C2.84047 16.3906 1.97908 17.4646 1.31966 18.6643C1.06873 19.1018 0.121944 20.8597 0.00729149 23.7128C-0.0648168 25.3322 0.416145 27.0099 0.64545 27.7033V27.7179C0.789666 28.1262 1.34851 29.5196 2.25923 30.6942C2.99361 31.6364 3.86125 32.4641 4.83422 33.1506V33.1361L4.84864 33.1506C7.72648 35.128 10.9173 34.9983 10.9173 34.9983C11.4696 34.9756 13.3199 34.9983 15.4212 33.9913C17.7517 32.875 19.0785 31.2119 19.0785 31.2119C19.9261 30.2181 20.6001 29.0856 21.0716 27.863C21.6095 26.4332 21.789 24.7182 21.789 24.0329V11.7018C21.8611 11.7456 22.8216 12.3879 22.8216 12.3879C22.8216 12.3879 24.2054 13.2848 26.3643 13.8688C27.9132 14.2844 30 14.3719 30 14.3719V8.40468C29.2688 8.48489 27.7841 8.25157 26.2641 7.48525Z" fill="#BBFF4B"/>
</svg>
