<svg width="33" height="29" viewBox="0 0 33 29" fill="none" xmlns="http://www.w3.org/2000/svg">
<path d="M32.2521 3.3468C31.7337 3.59361 31.2007 3.8019 30.6561 3.97101C31.3008 3.18832 31.7924 2.26739 32.0925 1.25961C32.1598 1.03371 32.0901 0.786455 31.9171 0.638716C31.7443 0.490863 31.5043 0.473153 31.314 0.594155C30.1575 1.33045 28.9096 1.85959 27.6012 2.16901C26.2833 0.786684 24.4932 0 22.6426 0C18.7364 0 15.5584 3.41102 15.5584 7.60369C15.5584 7.93391 15.5779 8.26229 15.6164 8.5861C10.7692 8.12929 6.26276 5.57203 3.16823 1.49761C3.05794 1.35239 2.88805 1.27412 2.7141 1.28909C2.54006 1.30371 2.38368 1.40906 2.29575 1.57097C1.66811 2.72694 1.33631 4.04905 1.33631 5.39424C1.33631 7.2264 1.94574 8.96476 3.02228 10.3231C2.69494 10.2014 2.37729 10.0493 2.07412 9.86868C1.91136 9.77144 1.71272 9.77293 1.55102 9.87245C1.38921 9.97197 1.28776 10.155 1.28351 10.3551C1.28276 10.3888 1.28276 10.4225 1.28276 10.4567C1.28276 13.1915 2.65407 15.6537 4.75062 16.9957C4.57051 16.9764 4.3905 16.9484 4.21166 16.9117C4.02729 16.8739 3.8377 16.9432 3.71336 17.0942C3.58881 17.245 3.54762 17.4552 3.60499 17.6472C4.38102 20.2478 6.37901 22.1606 8.79439 22.7438C6.79108 24.0906 4.50014 24.796 2.0952 24.796C1.59339 24.796 1.0887 24.7644 0.594766 24.7016C0.349396 24.6703 0.114777 24.8258 0.0312128 25.0763C-0.0523514 25.3269 0.036216 25.6062 0.244967 25.7499C3.3345 27.8761 6.9069 29 10.5757 29C17.7882 29 22.3002 25.3494 24.8151 22.2869C27.9511 18.4682 29.7497 13.4136 29.7497 8.4194C29.7497 8.21076 29.7468 8.00006 29.7408 7.79005C30.9781 6.78947 32.0433 5.57854 32.9102 4.18673C33.0419 3.97535 33.0276 3.69598 32.875 3.5014C32.7227 3.3067 32.4688 3.24374 32.2521 3.3468Z" fill="#BBFF4B"/>
</svg>
