<svg width="148" height="140" viewBox="0 0 148 140" fill="none" xmlns="http://www.w3.org/2000/svg">
<path d="M115.817 21.6262C115.664 21.6262 115.509 21.5982 115.363 21.5453C115.216 21.4924 115.073 21.4115 114.949 21.3025C114.669 21.0629 114.513 20.733 114.488 20.3937C114.463 20.0545 114.566 19.7028 114.802 19.4227C114.846 19.3697 116.075 17.8571 117.09 14.8754C118.105 11.8938 118.904 7.44617 118.092 1.52017C118.042 1.15602 118.145 0.804323 118.35 0.530432C118.556 0.259654 118.867 0.0635623 119.234 0.013764C119.595 -0.0391467 119.944 0.0635645 120.218 0.268983C120.492 0.477513 120.688 0.788761 120.738 1.15291C121.64 7.73874 120.722 12.6719 119.549 15.9928C118.375 19.3137 116.947 21.0193 116.829 21.1563C116.698 21.3088 116.536 21.427 116.365 21.5048C116.19 21.5827 116.004 21.6231 115.817 21.6231V21.6262Z" fill="#593E7C"/>
<path d="M124.462 26.1734C124.232 26.1734 124.005 26.1143 123.806 26.0023C123.606 25.8902 123.432 25.7253 123.308 25.5105C123.121 25.193 123.084 24.8289 123.168 24.5021C123.252 24.1753 123.466 23.8765 123.781 23.6898C123.83 23.6586 125.486 22.6347 127.419 20.1479C129.352 17.6611 131.565 13.7145 132.729 7.83834C132.8 7.4773 133.012 7.17852 133.295 6.98866C133.578 6.79881 133.936 6.71788 134.297 6.78947C134.658 6.86105 134.957 7.0727 135.147 7.35592C135.337 7.63915 135.418 7.99707 135.346 8.35811C134.052 14.8786 131.577 19.2422 129.383 21.9966C127.192 24.7511 125.284 25.8996 125.128 25.9898C125.023 26.0521 124.91 26.0988 124.798 26.1268C124.686 26.1579 124.571 26.1703 124.456 26.1703L124.462 26.1734Z" fill="#593E7C"/>
<path d="M129.254 33.3039C128.893 33.3039 128.566 33.1607 128.323 32.9272C128.08 32.6938 127.928 32.3701 127.918 32.006C127.909 31.6387 128.046 31.2995 128.279 31.0536C128.513 30.8046 128.84 30.6459 129.21 30.6334C129.266 30.6334 131.211 30.5276 134.1 29.2733C136.988 28.019 140.825 25.6193 144.669 21.0223C144.906 20.7391 145.236 20.5804 145.575 20.5492C145.914 20.5181 146.266 20.6177 146.549 20.8543C146.832 21.0908 146.991 21.4207 147.022 21.76C147.053 22.0992 146.954 22.454 146.717 22.7342C142.453 27.8354 138.186 30.4747 134.94 31.8379C131.694 33.2042 129.471 33.2945 129.291 33.3007C129.285 33.3007 129.279 33.3007 129.272 33.3007C129.266 33.3007 129.26 33.3007 129.254 33.3007V33.3039Z" fill="#593E7C"/>
<path d="M32.1717 21.6261C31.985 21.6261 31.7982 21.5857 31.6239 21.5079C31.4496 21.4301 31.294 21.3149 31.1602 21.1624C31.0419 21.0255 29.6133 19.3199 28.44 15.9989C27.2666 12.678 26.3484 7.74798 27.251 1.15904C27.3008 0.791774 27.4938 0.480546 27.7677 0.275128C28.0416 0.0665971 28.3902 -0.0330048 28.7543 0.0167935C29.1185 0.0665918 29.4297 0.259552 29.6382 0.533443C29.8437 0.804221 29.9464 1.15592 29.8966 1.52318C29.0811 7.47408 29.8903 11.9342 30.9112 14.9158C31.9321 17.8975 33.1615 19.3977 33.1864 19.4257C33.4229 19.7058 33.5256 20.0575 33.4976 20.3967C33.4696 20.736 33.314 21.0659 33.0338 21.3056C32.9093 21.4114 32.7693 21.4923 32.6199 21.5452C32.4705 21.5981 32.318 21.623 32.1655 21.623L32.1717 21.6261Z" fill="#593E7C"/>
<path d="M23.5313 26.1735C23.4161 26.1735 23.3009 26.158 23.1889 26.1299C23.0768 26.1019 22.9648 26.0553 22.859 25.993C22.7034 25.9027 20.7955 24.7543 18.6044 21.9998C16.4132 19.2453 13.9358 14.8817 12.641 8.36128C12.5694 8.00024 12.6504 7.64231 12.8402 7.35908C13.0301 7.07585 13.3289 6.86423 13.6899 6.79264C14.0509 6.72106 14.4089 6.80197 14.6921 6.99182C14.9753 7.18168 15.187 7.48048 15.2585 7.84152C16.4257 13.7333 18.6479 17.6829 20.5838 20.1697C22.5197 22.6534 24.1755 23.6712 24.2066 23.6929C24.521 23.8828 24.7326 24.1785 24.8167 24.5115C24.9007 24.8445 24.8602 25.2056 24.6735 25.5199C24.549 25.7316 24.3747 25.8965 24.1755 26.0086C23.9763 26.1206 23.7522 26.1797 23.5219 26.1797L23.5313 26.1735Z" fill="#593E7C"/>
<path d="M18.7448 33.3039C18.7448 33.3039 18.7324 33.3039 18.7262 33.3039C18.7199 33.3039 18.7137 33.3039 18.7075 33.3039C18.527 33.2977 16.3047 33.2074 13.0585 31.8411C9.8123 30.4747 5.54834 27.8354 1.28126 22.7373C1.04472 22.4541 0.945127 22.1024 0.97625 21.7631C1.00737 21.4239 1.16611 21.094 1.44933 20.8574C1.73256 20.6209 2.08426 20.5213 2.42662 20.5524C2.76587 20.5835 3.09578 20.7423 3.33232 21.0255C7.18545 25.6319 11.0292 28.0346 13.9206 29.2858C16.812 30.537 18.7511 30.6366 18.7884 30.6366C19.1557 30.6521 19.4825 30.8109 19.7159 31.0599C19.9493 31.3089 20.0863 31.6481 20.0738 32.0154C20.0614 32.3764 19.9089 32.7001 19.6692 32.9304C19.4296 33.1607 19.1028 33.307 18.7448 33.307V33.3039Z" fill="#593E7C"/>
<path d="M66.7095 57.6055C66.7095 45.9931 63.6095 35.7565 58.5986 28.4206C53.5877 21.0846 46.6657 16.6526 39.0217 16.6526C31.3777 16.6526 24.4527 21.0846 19.4449 28.4206C14.4339 35.7565 11.334 45.9931 11.334 57.6055C11.334 69.2178 14.4339 79.4545 19.4449 86.7904C24.4558 94.1263 31.3777 98.5584 39.0217 98.5584C46.6657 98.5584 53.5908 94.1263 58.5986 86.7904C63.6095 79.4545 66.7095 69.2178 66.7095 57.6055Z" fill="#FDF8F1"/>
<path d="M39.023 99.8937C30.8841 99.8937 23.6291 95.25 18.4097 87.6433C13.1871 80.0367 10 69.4638 10 57.6087C10 45.7536 13.1871 35.1808 18.4097 27.5741C23.6322 19.9674 30.8872 15.3237 39.023 15.3237C47.1587 15.3237 54.4168 19.9674 59.6363 27.5741C64.8588 35.1808 68.0459 45.7536 68.0459 57.6087C68.0459 69.4638 64.8588 80.0367 59.6363 87.6433C54.4137 95.25 47.1587 99.8937 39.023 99.8937ZM39.023 17.9911C31.6342 17.9911 25.0453 22.3422 20.3051 29.4696C15.5649 36.597 12.6704 46.5006 12.6704 57.6087C12.6704 68.7169 15.5649 78.6205 20.3051 85.7479C25.0453 92.8753 31.6342 97.2264 39.023 97.2264C46.4118 97.2264 53.0007 92.8753 57.7408 85.7479C62.481 78.6205 65.3755 68.7169 65.3755 57.6087C65.3755 46.5006 62.481 36.597 57.7408 29.4696C53.0007 22.3422 46.4118 17.9911 39.023 17.9911Z" fill="#593E7C"/>
<path d="M66.7096 57.6055C66.7096 67.5869 64.4189 76.5506 60.5907 83.5286C56.7624 90.5066 51.3998 95.4958 45.2591 97.5313C41.3748 95.4958 37.9823 90.5066 35.564 83.5286C33.1457 76.5506 31.6953 67.5869 31.6953 57.6055C31.6953 47.624 33.1426 38.6603 35.564 31.6823C37.9823 24.7044 41.3748 19.7152 45.2591 17.6797C51.4029 19.7152 56.7655 24.7044 60.5907 31.6823C64.4189 38.6603 66.7096 47.624 66.7096 57.6055Z" fill="#593E7C"/>
<path d="M39.0226 74.9541C43.3145 74.9541 47.5318 75.0817 51.6526 75.3245C55.7734 75.5672 59.8008 75.9283 63.7131 76.3982C61.4255 83.0681 57.9489 88.6113 53.6974 92.4831C49.4428 96.3549 44.4132 98.5616 39.0226 98.5616C33.6319 98.5616 28.6023 96.3549 24.3477 92.4831C20.0931 88.6113 16.6165 83.0681 14.332 76.3982C18.2443 75.9314 22.2717 75.5704 26.3925 75.3245C30.5133 75.0817 34.7337 74.9541 39.0226 74.9541Z" fill="#FDF8F1"/>
<path d="M39.0217 99.8937C33.4537 99.8937 28.1844 97.6839 23.6964 93.6969C19.2083 89.7099 15.5046 83.9426 13.0645 76.8277C12.9991 76.6378 12.9773 76.4355 13.0022 76.2426C13.0271 76.0496 13.0894 75.8566 13.1983 75.6855C13.3041 75.5143 13.4473 75.3711 13.6153 75.2684C13.7834 75.1657 13.9702 75.0941 14.1725 75.0723C22.2211 74.1075 30.6214 73.6282 39.0217 73.6282C47.422 73.6282 55.8223 74.1106 63.871 75.0723C64.0702 75.0972 64.26 75.1657 64.4281 75.2684C64.5962 75.3711 64.7362 75.5143 64.8451 75.6855C64.951 75.8566 65.0194 76.0465 65.0412 76.2426C65.063 76.4387 65.0412 76.6378 64.979 76.8277C62.542 83.9426 58.8351 89.7068 54.3471 93.6969C49.859 97.6839 44.5898 99.8937 39.0217 99.8937ZM16.1613 77.528C18.4893 83.6252 21.8165 88.549 25.7536 91.9477C29.6939 95.3465 34.2442 97.2232 39.0217 97.2232C43.7992 97.2232 48.3495 95.3496 52.2898 91.9477C56.2301 88.549 59.5572 83.6252 61.8822 77.528C54.456 76.7063 46.7373 76.2924 39.0217 76.2924C31.3061 76.2924 23.5874 76.7032 16.1613 77.528Z" fill="#593E7C"/>
<path d="M136.665 57.6057C136.665 45.9934 133.565 35.7567 128.554 28.4208C123.543 21.0849 116.621 16.6528 108.977 16.6528C101.333 16.6528 94.4078 21.0849 89.3999 28.4208C84.389 35.7567 81.2891 45.9934 81.2891 57.6057C81.2891 69.218 84.389 79.4547 89.3999 86.7907C94.4109 94.1266 101.333 98.5586 108.977 98.5586C116.621 98.5586 123.546 94.1266 128.554 86.7907C133.565 79.4547 136.665 69.218 136.665 57.6057Z" fill="#FDF8F1"/>
<path d="M108.976 99.8937C100.837 99.8937 93.5822 95.25 88.3628 87.6433C83.1402 80.0367 79.9531 69.4638 79.9531 57.6087C79.9531 45.7536 83.1402 35.1808 88.3628 27.5741C93.5854 19.9674 100.84 15.3237 108.976 15.3237C117.112 15.3237 124.37 19.9674 129.589 27.5741C134.812 35.1808 137.999 45.7536 137.999 57.6087C137.999 69.4638 134.812 80.0367 129.589 87.6433C124.367 95.25 117.112 99.8937 108.976 99.8937ZM108.976 17.9911C101.587 17.9911 94.9984 22.3422 90.2582 29.4696C85.5181 36.597 82.6235 46.5006 82.6235 57.6087C82.6235 68.7169 85.5181 78.6205 90.2582 85.7479C94.9984 92.8753 101.587 97.2264 108.976 97.2264C116.365 97.2264 122.954 92.8753 127.694 85.7479C132.434 78.6205 135.329 68.7169 135.329 57.6087C135.329 46.5006 132.434 36.597 127.694 29.4696C122.954 22.3422 116.365 17.9911 108.976 17.9911Z" fill="#593E7C"/>
<path d="M136.663 57.6055C136.663 67.5869 134.372 76.5506 130.544 83.5286C126.716 90.5066 121.353 95.4958 115.212 97.5313C111.328 95.4958 107.939 90.5066 105.517 83.5286C103.099 76.5506 101.648 67.5869 101.648 57.6055C101.648 47.624 103.096 38.6603 105.517 31.6823C107.935 24.7044 111.328 19.7152 115.212 17.6797C121.356 19.7152 126.719 24.7044 130.544 31.6823C134.372 38.6603 136.663 47.624 136.663 57.6055Z" fill="#593E7C"/>
<path d="M108.976 74.9541C113.268 74.9541 117.485 75.0817 121.606 75.3245C125.727 75.5672 129.754 75.9283 133.666 76.3982C131.379 83.0681 127.902 88.6113 123.651 92.4831C119.396 96.3549 114.366 98.5616 108.976 98.5616C103.585 98.5616 98.5554 96.3549 94.3008 92.4831C90.0462 88.6113 86.5696 83.0681 84.2852 76.3982C88.1974 75.9314 92.2248 75.5704 96.3456 75.3245C100.466 75.0817 104.687 74.9541 108.976 74.9541Z" fill="#FDF8F1"/>
<path d="M108.975 99.8937C103.407 99.8937 98.1375 97.6839 93.6495 93.6969C89.1614 89.7099 85.4577 83.9426 83.0176 76.8277C82.9522 76.6378 82.9304 76.4355 82.9553 76.2426C82.9802 76.0496 83.0425 75.8566 83.1514 75.6855C83.2572 75.5143 83.4004 75.3711 83.5685 75.2684C83.7365 75.1657 83.9233 75.0941 84.1256 75.0723C92.1742 74.1075 100.575 73.6282 108.975 73.6282C117.375 73.6282 125.775 74.1106 133.824 75.0723C134.023 75.0972 134.213 75.1657 134.381 75.2684C134.549 75.3711 134.689 75.5143 134.798 75.6855C134.904 75.8566 134.973 76.0465 134.994 76.2426C135.016 76.4387 134.994 76.6378 134.932 76.8277C132.495 83.9426 128.788 89.7068 124.3 93.6969C119.812 97.6839 114.543 99.8937 108.975 99.8937ZM86.1144 77.528C88.4425 83.6252 91.7696 88.549 95.7068 91.9477C99.647 95.3465 104.197 97.2232 108.975 97.2232C113.752 97.2232 118.303 95.3496 122.243 91.9477C126.183 88.549 129.51 83.6252 131.835 77.528C124.409 76.7063 116.69 76.2924 108.975 76.2924C101.259 76.2924 93.5405 76.7032 86.1144 77.528Z" fill="#593E7C"/>
<path d="M46.2742 128.817C54.6963 135.378 64.3478 138.658 73.9993 138.655C83.6508 138.655 93.3023 135.375 101.724 128.817C104.292 126.816 105.808 123.965 106.178 120.971C106.552 117.977 105.78 114.839 103.779 112.272C102.618 110.781 101.167 109.645 99.5675 108.879C97.9709 108.117 96.2248 107.724 94.4694 107.724C93.2027 107.724 91.9328 107.927 90.7097 108.341C89.4865 108.755 88.31 109.377 87.2331 110.214C83.0906 113.442 78.5434 115.057 73.9993 115.057C69.4552 115.057 64.908 113.442 60.7655 110.214C58.1977 108.213 55.0636 107.444 52.0695 107.815C49.0753 108.185 46.2213 109.701 44.22 112.268C42.2188 114.836 41.45 117.973 41.8204 120.968C42.1908 123.962 43.7065 126.813 46.2742 128.814V128.817Z" fill="#FDF8F1"/>
<path d="M73.9986 140C69.0312 140 64.0607 139.157 59.2521 137.467C54.4404 135.777 49.7905 133.246 45.4549 129.869C42.6009 127.644 40.9171 124.466 40.5031 121.133C40.0892 117.796 40.9451 114.304 43.1673 111.45C44.2442 110.068 45.5608 108.935 47.0391 108.095C48.5206 107.255 50.164 106.707 51.9038 106.489C53.6436 106.274 55.3741 106.402 57.0143 106.853C58.6545 107.304 60.2045 108.082 61.5864 109.159C65.4738 112.188 69.7346 113.7 73.9986 113.7C78.2625 113.7 82.5265 112.188 86.4139 109.159C87.5779 108.254 88.854 107.56 90.211 107.093C91.568 106.626 92.9997 106.386 94.4718 106.386C96.5104 106.386 98.4775 106.847 100.242 107.709C102.01 108.571 103.579 109.838 104.833 111.447C107.055 114.301 107.911 117.793 107.497 121.13C107.083 124.466 105.399 127.644 102.545 129.866C98.2098 133.243 93.5568 135.777 88.7482 137.463C83.9364 139.154 78.9691 139.997 74.0017 139.997L73.9986 140ZM47.0952 127.762C55.2683 134.127 64.6334 137.311 73.9986 137.311C83.3637 137.311 92.732 134.127 100.902 127.762C103.177 125.991 104.519 123.461 104.849 120.803C105.178 118.145 104.497 115.366 102.726 113.09C101.727 111.808 100.479 110.803 99.0688 110.115C97.662 109.427 96.0965 109.06 94.4718 109.06C93.2985 109.06 92.1593 109.25 91.0793 109.623C89.9993 109.994 88.9816 110.547 88.0541 111.27C83.6532 114.696 78.8259 116.411 73.9986 116.411C69.1713 116.411 64.344 114.696 59.9431 111.27C58.8413 110.411 57.6088 109.794 56.3016 109.433C54.9944 109.072 53.6187 108.97 52.2306 109.144C50.8456 109.315 49.5353 109.754 48.3557 110.423C47.1761 111.092 46.1303 111.995 45.2713 113.097C43.5004 115.369 42.8187 118.151 43.1487 120.809C43.4786 123.467 44.82 125.997 47.092 127.768L47.0952 127.762Z" fill="#593E7C"/>
<path d="M73.9998 128.129C70.2929 128.129 66.5861 127.501 62.9944 126.24C59.4058 124.98 55.9324 123.09 52.6986 120.572C52.4092 120.345 52.2349 120.021 52.1944 119.682C52.1509 119.343 52.238 118.988 52.4652 118.696C52.6924 118.403 53.0161 118.232 53.3554 118.191C53.6946 118.151 54.0494 118.238 54.3389 118.462C60.3084 123.112 67.1525 125.44 73.9967 125.44C80.8408 125.44 87.6849 123.115 93.6545 118.462C93.9439 118.235 94.2987 118.148 94.638 118.191C94.9772 118.232 95.3009 118.406 95.5281 118.696C95.7553 118.988 95.8425 119.343 95.7989 119.682C95.7553 120.021 95.5841 120.345 95.2947 120.572C92.0609 123.093 88.5875 124.983 84.9989 126.24C81.4104 127.501 77.7004 128.129 73.9936 128.129H73.9998Z" fill="#593E7C"/>
<path d="M97.0681 121.481L94.9673 118.895L92.8633 116.308" fill="#FDF8F1"/>
<path d="M97.0719 122.816C96.879 122.816 96.686 122.773 96.5055 122.692C96.3249 122.611 96.1662 122.486 96.0324 122.325L93.9315 119.738L91.8307 117.152C91.5972 116.865 91.5039 116.511 91.5381 116.171C91.5723 115.832 91.7373 115.505 92.0236 115.272C92.31 115.039 92.6648 114.945 93.004 114.979C93.3433 115.014 93.6701 115.179 93.9035 115.465L96.0044 118.051L98.1052 120.638C98.3387 120.924 98.432 121.279 98.3978 121.618C98.3636 121.957 98.1986 122.284 97.9123 122.518C97.7878 122.617 97.6508 122.692 97.5108 122.742C97.3676 122.791 97.2213 122.816 97.0719 122.816Z" fill="#593E7C"/>
<path d="M50.7207 121.481L52.8247 118.895L54.9255 116.308" fill="#FDF8F1"/>
<path d="M50.7214 122.816C50.572 122.816 50.4257 122.791 50.2826 122.742C50.1394 122.692 50.0024 122.617 49.8811 122.518C49.5947 122.284 49.4298 121.957 49.3955 121.618C49.3613 121.279 49.4547 120.924 49.6881 120.638L51.789 118.051L53.8898 115.465C54.1232 115.179 54.45 115.014 54.7893 114.979C55.1285 114.945 55.4833 115.039 55.7697 115.272C56.056 115.505 56.221 115.832 56.2552 116.171C56.2895 116.511 56.1961 116.865 55.9627 117.152L53.8618 119.738L51.7609 122.325C51.6302 122.486 51.4684 122.611 51.2879 122.692C51.1105 122.776 50.9175 122.816 50.7214 122.816Z" fill="#593E7C"/>
<path d="M23.3693 118.565C23.3693 118.786 23.279 118.985 23.1359 119.131C22.9927 119.278 22.7904 119.365 22.5694 119.365C22.3484 119.365 22.1492 119.275 22.003 119.131C21.8567 118.988 21.7695 118.786 21.7695 118.565C21.7695 118.344 21.8598 118.145 22.003 117.999C22.1461 117.852 22.3484 117.765 22.5694 117.765C22.7904 117.765 22.9896 117.855 23.1359 117.999C23.2821 118.142 23.3693 118.344 23.3693 118.565Z" fill="#FDF8F1"/>
<path d="M22.5667 120.7C21.9785 120.7 21.4432 120.46 21.0572 120.074C20.6713 119.688 20.4316 119.153 20.4316 118.565C20.4316 117.977 20.6713 117.441 21.0572 117.055C21.4432 116.669 21.9785 116.43 22.5667 116.43C23.155 116.43 23.6903 116.669 24.0762 117.055C24.4622 117.441 24.7018 117.977 24.7018 118.565C24.7018 119.153 24.4622 119.688 24.0762 120.074C23.6903 120.46 23.155 120.7 22.5667 120.7ZM22.5667 118.03C22.4205 118.03 22.2866 118.089 22.1901 118.185C22.0937 118.282 22.0345 118.416 22.0345 118.562C22.0345 118.708 22.0937 118.842 22.1901 118.938C22.2866 119.035 22.4205 119.094 22.5667 119.094C22.713 119.094 22.8468 119.035 22.9433 118.938C23.0398 118.842 23.099 118.708 23.099 118.562C23.099 118.416 23.0398 118.282 22.9433 118.185C22.8468 118.089 22.713 118.03 22.5667 118.03Z" fill="#593E7C"/>
<path d="M35.5978 111.469C35.5978 111.69 35.5076 111.889 35.3644 112.035C35.2212 112.181 35.0189 112.268 34.7979 112.268C34.5769 112.268 34.3778 112.178 34.2315 112.035C34.0852 111.889 33.998 111.69 33.998 111.469C33.998 111.248 34.0883 111.048 34.2315 110.902C34.3746 110.756 34.5769 110.669 34.7979 110.669C35.0189 110.669 35.2181 110.759 35.3644 110.902C35.5107 111.048 35.5978 111.248 35.5978 111.469Z" fill="#FDF8F1"/>
<path d="M34.7992 113.607C34.2109 113.607 33.6756 113.367 33.2897 112.981C32.9037 112.595 32.6641 112.06 32.6641 111.472C32.6641 110.884 32.9037 110.348 33.2897 109.962C33.6756 109.576 34.2109 109.337 34.7992 109.337C35.3874 109.337 35.9227 109.576 36.3087 109.962C36.6946 110.348 36.9343 110.884 36.9343 111.472C36.9343 112.06 36.6946 112.595 36.3087 112.981C35.9227 113.367 35.3874 113.607 34.7992 113.607ZM34.7992 110.936C34.6529 110.936 34.519 110.996 34.4226 111.092C34.3261 111.189 34.2669 111.322 34.2669 111.469C34.2669 111.615 34.3261 111.749 34.4226 111.845C34.519 111.942 34.6529 112.001 34.7992 112.001C34.9454 112.001 35.0793 111.942 35.1758 111.845C35.2722 111.749 35.3314 111.615 35.3314 111.469C35.3314 111.322 35.2722 111.189 35.1758 111.092C35.0793 110.996 34.9454 110.936 34.7992 110.936Z" fill="#593E7C"/>
<path d="M24.1701 105.546C24.1701 105.767 24.0798 105.966 23.9366 106.112C23.7935 106.258 23.5912 106.346 23.3702 106.346C23.1492 106.346 22.95 106.255 22.8037 106.112C22.6575 105.969 22.5703 105.767 22.5703 105.546C22.5703 105.325 22.6606 105.126 22.8037 104.979C22.9469 104.833 23.1492 104.746 23.3702 104.746C23.5912 104.746 23.7904 104.836 23.9366 104.979C24.0829 105.122 24.1701 105.325 24.1701 105.546Z" fill="#FDF8F1"/>
<path d="M23.3695 107.681C22.7812 107.681 22.2459 107.441 21.86 107.055C21.474 106.669 21.2344 106.134 21.2344 105.546C21.2344 104.958 21.474 104.422 21.86 104.036C22.2459 103.65 22.7812 103.411 23.3695 103.411C23.9577 103.411 24.493 103.65 24.879 104.036C25.2649 104.422 25.5046 104.958 25.5046 105.546C25.5046 106.134 25.2649 106.669 24.879 107.055C24.493 107.441 23.9577 107.681 23.3695 107.681ZM23.3695 105.01C23.2232 105.01 23.0894 105.07 22.9929 105.166C22.8964 105.263 22.8372 105.396 22.8372 105.543C22.8372 105.689 22.8964 105.823 22.9929 105.919C23.0894 106.016 23.2232 106.075 23.3695 106.075C23.5157 106.075 23.6496 106.016 23.7461 105.919C23.8426 105.823 23.9017 105.689 23.9017 105.543C23.9017 105.396 23.8426 105.263 23.7461 105.166C23.6496 105.07 23.5157 105.01 23.3695 105.01Z" fill="#593E7C"/>
<path d="M124.629 118.565C124.629 118.786 124.719 118.985 124.862 119.131C125.009 119.278 125.208 119.365 125.429 119.365C125.65 119.365 125.849 119.275 125.995 119.131C126.142 118.985 126.229 118.786 126.229 118.565C126.229 118.344 126.138 118.145 125.995 117.999C125.849 117.852 125.65 117.765 125.429 117.765C125.208 117.765 125.009 117.855 124.862 117.999C124.716 118.145 124.629 118.344 124.629 118.565Z" fill="#FDF8F1"/>
<path d="M125.428 120.7C124.84 120.7 124.304 120.46 123.919 120.074C123.533 119.688 123.293 119.153 123.293 118.565C123.293 117.977 123.533 117.441 123.919 117.055C124.304 116.669 124.84 116.43 125.428 116.43C126.016 116.43 126.552 116.669 126.938 117.055C127.324 117.441 127.563 117.977 127.563 118.565C127.563 119.153 127.324 119.688 126.938 120.074C126.552 120.46 126.016 120.7 125.428 120.7ZM125.428 118.03C125.282 118.03 125.148 118.089 125.051 118.185C124.955 118.282 124.896 118.416 124.896 118.562C124.896 118.708 124.955 118.842 125.051 118.938C125.148 119.035 125.282 119.094 125.428 119.094C125.574 119.094 125.708 119.035 125.805 118.938C125.901 118.842 125.96 118.708 125.96 118.562C125.96 118.416 125.901 118.282 125.805 118.185C125.708 118.089 125.574 118.03 125.428 118.03Z" fill="#593E7C"/>
<path d="M112.395 111.469C112.395 111.69 112.485 111.889 112.628 112.035C112.774 112.181 112.973 112.268 113.194 112.268C113.415 112.268 113.615 112.178 113.761 112.035C113.907 111.892 113.994 111.69 113.994 111.469C113.994 111.248 113.904 111.048 113.761 110.902C113.615 110.756 113.415 110.669 113.194 110.669C112.973 110.669 112.774 110.759 112.628 110.902C112.482 111.045 112.395 111.248 112.395 111.469Z" fill="#FDF8F1"/>
<path d="M113.202 113.607C112.613 113.607 112.078 113.367 111.692 112.981C111.306 112.595 111.066 112.06 111.066 111.472C111.066 110.884 111.306 110.348 111.692 109.962C112.078 109.576 112.613 109.337 113.202 109.337C113.79 109.337 114.325 109.576 114.711 109.962C115.097 110.348 115.337 110.884 115.337 111.472C115.337 112.06 115.097 112.595 114.711 112.981C114.325 113.367 113.79 113.607 113.202 113.607ZM113.202 110.936C113.055 110.936 112.921 110.996 112.825 111.092C112.728 111.189 112.669 111.322 112.669 111.469C112.669 111.615 112.728 111.749 112.825 111.845C112.921 111.942 113.055 112.001 113.202 112.001C113.348 112.001 113.482 111.942 113.578 111.845C113.675 111.749 113.734 111.615 113.734 111.469C113.734 111.322 113.675 111.189 113.578 111.092C113.482 110.996 113.348 110.936 113.202 110.936Z" fill="#593E7C"/>
<path d="M123.824 105.546C123.824 105.767 123.914 105.966 124.058 106.112C124.204 106.258 124.403 106.346 124.624 106.346C124.845 106.346 125.044 106.255 125.191 106.112C125.337 105.966 125.424 105.767 125.424 105.546C125.424 105.325 125.334 105.126 125.191 104.979C125.044 104.833 124.845 104.746 124.624 104.746C124.403 104.746 124.204 104.836 124.058 104.979C123.911 105.126 123.824 105.325 123.824 105.546Z" fill="#FDF8F1"/>
<path d="M124.627 107.681C124.039 107.681 123.504 107.441 123.118 107.055C122.732 106.669 122.492 106.134 122.492 105.546C122.492 104.958 122.732 104.422 123.118 104.036C123.504 103.65 124.039 103.411 124.627 103.411C125.216 103.411 125.751 103.65 126.137 104.036C126.523 104.422 126.762 104.958 126.762 105.546C126.762 106.134 126.523 106.669 126.137 107.055C125.751 107.441 125.216 107.681 124.627 107.681ZM124.627 105.01C124.481 105.01 124.347 105.07 124.251 105.166C124.154 105.263 124.095 105.396 124.095 105.543C124.095 105.689 124.154 105.823 124.251 105.919C124.347 106.016 124.481 106.075 124.627 106.075C124.774 106.075 124.907 106.016 125.004 105.919C125.1 105.823 125.16 105.689 125.16 105.543C125.16 105.396 125.1 105.263 125.004 105.166C124.907 105.07 124.774 105.01 124.627 105.01Z" fill="#593E7C"/>
</svg>
