<svg width="152" height="73" viewBox="0 0 152 73" fill="none" xmlns="http://www.w3.org/2000/svg">
<g filter="url(#filter0_ddddd_1292_2726)">
<path d="M16.4056 33.8912C13.6447 33.8912 11.2496 33.3147 9.25375 32.1957C7.25787 31.0428 5.69443 29.3812 4.62997 27.1772C3.5655 24.9731 3 22.2943 3 19.1407V17.7504C3 14.5969 3.53223 11.9181 4.62997 9.71399C5.69443 7.50991 7.25787 5.81445 9.25375 4.69545C11.2496 3.57645 13.6447 3 16.4056 3C19.1666 3 21.5617 3.57645 23.5575 4.69545C25.5534 5.81445 27.1168 7.50991 28.1813 9.71399C29.2458 11.9181 29.8113 14.5969 29.8113 17.7504V19.1407C29.8113 22.2943 29.279 24.9731 28.1813 27.1772C27.1168 29.3812 25.5534 31.0767 23.5575 32.1957C21.5617 33.3486 19.1666 33.8912 16.4056 33.8912ZM16.4056 26.7703C18.0689 26.7703 19.3662 26.126 20.2976 24.8713C21.229 23.6167 21.728 21.65 21.728 19.039V17.8183C21.728 15.1734 21.2623 13.2405 20.2976 11.9859C19.3662 10.7313 18.0689 10.087 16.4056 10.087C14.7424 10.087 13.4451 10.7313 12.5137 11.9859C11.5823 13.2405 11.0833 15.2073 11.0833 17.8183V19.039C11.0833 21.6839 11.549 23.6167 12.5137 24.8713C13.4451 26.126 14.7424 26.7703 16.4056 26.7703Z" fill="url(#paint0_linear_1292_2726)"/>
</g>
<g filter="url(#filter1_ddddd_1292_2726)">
<path d="M39.658 32.7041C38.8929 33.484 37.8617 33.857 36.5977 33.857C35.3336 33.857 34.3024 33.484 33.5373 32.7041C32.7722 31.9242 32.373 30.9069 32.373 29.6862C32.373 28.4655 32.7722 27.4143 33.5373 26.6683C34.3024 25.8884 35.3336 25.5154 36.5977 25.5154C37.8617 25.5154 38.8929 25.8884 39.658 26.6683C40.4231 27.4482 40.8223 28.4655 40.8223 29.6862C40.8223 30.9069 40.4231 31.9581 39.658 32.7041Z" fill="url(#paint1_linear_1292_2726)"/>
</g>
<g filter="url(#filter2_ddddd_1292_2726)">
<path d="M56.722 33.8912C53.9611 33.8912 51.566 33.3147 49.5702 32.1957C47.5743 31.0428 46.0108 29.3812 44.9464 27.1772C43.8819 24.9731 43.3164 22.2943 43.3164 19.1407V17.7504C43.3164 14.5969 43.8486 11.9181 44.9464 9.71399C46.0108 7.50991 47.5743 5.81445 49.5702 4.69545C51.566 3.57645 53.9611 3 56.722 3C59.483 3 61.8781 3.57645 63.8739 4.69545C65.8698 5.81445 67.4333 7.50991 68.4977 9.71399C69.5622 11.9181 70.1277 14.5969 70.1277 17.7504V19.1407C70.1277 22.2943 69.5954 24.9731 68.4977 27.1772C67.4333 29.3812 65.8698 31.0767 63.8739 32.1957C61.8781 33.3486 59.483 33.8912 56.722 33.8912ZM56.722 26.7703C58.3853 26.7703 59.6826 26.126 60.614 24.8713C61.5454 23.6167 62.0444 21.65 62.0444 19.039V17.8183C62.0444 15.1734 61.5787 13.2405 60.614 11.9859C59.6826 10.7313 58.3853 10.087 56.722 10.087C55.0588 10.087 53.7615 10.7313 52.8301 11.9859C51.8987 13.2405 51.3997 15.2073 51.3997 17.8183V19.039C51.3997 21.6839 51.8654 23.6167 52.8301 24.8713C53.7615 26.126 55.0588 26.7703 56.722 26.7703Z" fill="url(#paint2_linear_1292_2726)"/>
</g>
<g filter="url(#filter3_ddddd_1292_2726)">
<path d="M86.0619 33.8912C83.3009 33.8912 80.9059 33.3147 78.91 32.1957C76.9141 31.0428 75.3507 29.3812 74.2862 27.1772C73.2217 24.9731 72.6562 22.2943 72.6562 19.1407V17.7504C72.6562 14.5969 73.1885 11.9181 74.2862 9.71399C75.3507 7.50991 76.9141 5.81445 78.91 4.69545C80.9059 3.57645 83.3009 3 86.0619 3C88.8228 3 91.2179 3.57645 93.2138 4.69545C95.2097 5.81445 96.7731 7.50991 97.8376 9.71399C98.902 11.9181 99.4675 14.5969 99.4675 17.7504V19.1407C99.4675 22.2943 98.9353 24.9731 97.8376 27.1772C96.7731 29.3812 95.2097 31.0767 93.2138 32.1957C91.2179 33.3486 88.8228 33.8912 86.0619 33.8912ZM86.0619 26.7703C87.7251 26.7703 89.0224 26.126 89.9538 24.8713C90.8853 23.6167 91.3842 21.65 91.3842 19.039V17.8183C91.3842 15.1734 90.9185 13.2405 89.9538 11.9859C89.0224 10.7313 87.7251 10.087 86.0619 10.087C84.3987 10.087 83.1013 10.7313 82.1699 11.9859C81.2385 13.2405 80.7396 15.2073 80.7396 17.8183V19.039C80.7396 21.6839 81.2053 23.6167 82.1699 24.8713C83.1013 26.126 84.3987 26.7703 86.0619 26.7703Z" fill="url(#paint3_linear_1292_2726)"/>
</g>
<g filter="url(#filter4_ddddd_1292_2726)">
<path d="M115.888 28.8048C116.986 28.8048 117.822 28.5022 118.423 27.8969C119.024 27.2917 119.442 26.3333 119.677 24.9967H126C125.713 27.8969 124.694 30.1162 122.943 31.6798C121.192 33.2182 118.841 34 115.914 34C113.354 34 111.238 33.2939 109.513 31.9068C107.789 30.5197 106.717 28.5274 106.247 25.955H104V23.1305H106.012V21.8947L104 21.8695V19.045H106.247C106.717 16.4726 107.789 14.4803 109.513 13.0932C111.238 11.7061 113.354 11 115.914 11C118.867 11 121.219 11.7818 122.943 13.3202C124.667 14.8586 125.713 17.0779 126 20.0033H119.677C119.442 18.6667 119.024 17.7083 118.423 17.1031C117.822 16.4978 116.96 16.1952 115.888 16.1952C115 16.1952 114.242 16.4221 113.641 16.8509C113.04 17.3048 112.622 18.0362 112.335 19.0702H117.561L117.352 21.8947H112.021V23.1557H117.221L117.012 25.9803H112.335C112.596 27.0143 113.04 27.7456 113.641 28.1996C114.242 28.6535 114.974 28.8553 115.888 28.8553V28.8048Z" fill="url(#paint4_linear_1292_2726)"/>
<path d="M106.247 25.455H104.5V23.6305H106.012H106.512V23.1305V21.8947V21.401L106.018 21.3948L104.5 21.3757V19.545H106.247H106.664L106.739 19.1349C107.193 16.6531 108.215 14.7788 109.826 13.4828C111.451 12.1763 113.452 11.5 115.914 11.5C118.778 11.5 121 12.2567 122.61 13.6933C124.115 15.0362 125.09 16.9505 125.438 19.5033H120.089C119.832 18.3173 119.409 17.3868 118.778 16.7508C118.058 16.0259 117.053 15.6952 115.888 15.6952C114.913 15.6952 114.05 15.9452 113.351 16.4438L113.351 16.4437L113.34 16.4519C112.617 16.9981 112.156 17.8477 111.853 18.9363L111.677 19.5702H112.335H117.022L116.887 21.3947H112.021H111.521V21.8947V23.1557V23.6557H112.021H116.683L116.548 25.4803H112.335H111.693L111.85 26.1028C112.13 27.2102 112.622 28.0561 113.34 28.5985C114.05 29.1352 114.897 29.3553 115.888 29.3553H116.388V29.2841C117.356 29.2015 118.162 28.8691 118.778 28.2492C119.409 27.6132 119.832 26.6827 120.089 25.4967H125.438C125.092 28.0276 124.138 29.9409 122.611 31.3055C120.973 32.7446 118.749 33.5 115.914 33.5C113.452 33.5 111.451 32.8237 109.826 31.5172C108.215 30.2212 107.193 28.3469 106.739 25.8651L106.664 25.455H106.247Z" stroke="url(#paint5_linear_1292_2726)" stroke-opacity="0.3"/>
</g>
<defs>
<filter id="filter0_ddddd_1292_2726" x="0" y="0" width="75.8105" height="78.8911" filterUnits="userSpaceOnUse" color-interpolation-filters="sRGB">
<feFlood flood-opacity="0" result="BackgroundImageFix"/>
<feColorMatrix in="SourceAlpha" type="matrix" values="0 0 0 0 0 0 0 0 0 0 0 0 0 0 0 0 0 0 127 0" result="hardAlpha"/>
<feOffset dx="1" dy="1"/>
<feGaussianBlur stdDeviation="2"/>
<feColorMatrix type="matrix" values="0 0 0 0 0.0313726 0 0 0 0 0.188235 0 0 0 0 0.105882 0 0 0 0.4 0"/>
<feBlend mode="normal" in2="BackgroundImageFix" result="effect1_dropShadow_1292_2726"/>
<feColorMatrix in="SourceAlpha" type="matrix" values="0 0 0 0 0 0 0 0 0 0 0 0 0 0 0 0 0 0 127 0" result="hardAlpha"/>
<feOffset dx="5" dy="5"/>
<feGaussianBlur stdDeviation="3.5"/>
<feColorMatrix type="matrix" values="0 0 0 0 0.0313726 0 0 0 0 0.188235 0 0 0 0 0.105882 0 0 0 0.35 0"/>
<feBlend mode="normal" in2="effect1_dropShadow_1292_2726" result="effect2_dropShadow_1292_2726"/>
<feColorMatrix in="SourceAlpha" type="matrix" values="0 0 0 0 0 0 0 0 0 0 0 0 0 0 0 0 0 0 127 0" result="hardAlpha"/>
<feOffset dx="12" dy="11"/>
<feGaussianBlur stdDeviation="5"/>
<feColorMatrix type="matrix" values="0 0 0 0 0.0313726 0 0 0 0 0.188235 0 0 0 0 0.105882 0 0 0 0.2 0"/>
<feBlend mode="normal" in2="effect2_dropShadow_1292_2726" result="effect3_dropShadow_1292_2726"/>
<feColorMatrix in="SourceAlpha" type="matrix" values="0 0 0 0 0 0 0 0 0 0 0 0 0 0 0 0 0 0 127 0" result="hardAlpha"/>
<feOffset dx="21" dy="20"/>
<feGaussianBlur stdDeviation="6"/>
<feColorMatrix type="matrix" values="0 0 0 0 0.0313726 0 0 0 0 0.188235 0 0 0 0 0.105882 0 0 0 0.06 0"/>
<feBlend mode="normal" in2="effect3_dropShadow_1292_2726" result="effect4_dropShadow_1292_2726"/>
<feColorMatrix in="SourceAlpha" type="matrix" values="0 0 0 0 0 0 0 0 0 0 0 0 0 0 0 0 0 0 127 0" result="hardAlpha"/>
<feOffset dx="33" dy="32"/>
<feGaussianBlur stdDeviation="6.5"/>
<feColorMatrix type="matrix" values="0 0 0 0 0.0313726 0 0 0 0 0.188235 0 0 0 0 0.105882 0 0 0 0.01 0"/>
<feBlend mode="normal" in2="effect4_dropShadow_1292_2726" result="effect5_dropShadow_1292_2726"/>
<feBlend mode="normal" in="SourceGraphic" in2="effect5_dropShadow_1292_2726" result="shape"/>
</filter>
<filter id="filter1_ddddd_1292_2726" x="29.373" y="22.5154" width="57.4492" height="56.3416" filterUnits="userSpaceOnUse" color-interpolation-filters="sRGB">
<feFlood flood-opacity="0" result="BackgroundImageFix"/>
<feColorMatrix in="SourceAlpha" type="matrix" values="0 0 0 0 0 0 0 0 0 0 0 0 0 0 0 0 0 0 127 0" result="hardAlpha"/>
<feOffset dx="1" dy="1"/>
<feGaussianBlur stdDeviation="2"/>
<feColorMatrix type="matrix" values="0 0 0 0 0.0313726 0 0 0 0 0.188235 0 0 0 0 0.105882 0 0 0 0.4 0"/>
<feBlend mode="normal" in2="BackgroundImageFix" result="effect1_dropShadow_1292_2726"/>
<feColorMatrix in="SourceAlpha" type="matrix" values="0 0 0 0 0 0 0 0 0 0 0 0 0 0 0 0 0 0 127 0" result="hardAlpha"/>
<feOffset dx="5" dy="5"/>
<feGaussianBlur stdDeviation="3.5"/>
<feColorMatrix type="matrix" values="0 0 0 0 0.0313726 0 0 0 0 0.188235 0 0 0 0 0.105882 0 0 0 0.35 0"/>
<feBlend mode="normal" in2="effect1_dropShadow_1292_2726" result="effect2_dropShadow_1292_2726"/>
<feColorMatrix in="SourceAlpha" type="matrix" values="0 0 0 0 0 0 0 0 0 0 0 0 0 0 0 0 0 0 127 0" result="hardAlpha"/>
<feOffset dx="12" dy="11"/>
<feGaussianBlur stdDeviation="5"/>
<feColorMatrix type="matrix" values="0 0 0 0 0.0313726 0 0 0 0 0.188235 0 0 0 0 0.105882 0 0 0 0.2 0"/>
<feBlend mode="normal" in2="effect2_dropShadow_1292_2726" result="effect3_dropShadow_1292_2726"/>
<feColorMatrix in="SourceAlpha" type="matrix" values="0 0 0 0 0 0 0 0 0 0 0 0 0 0 0 0 0 0 127 0" result="hardAlpha"/>
<feOffset dx="21" dy="20"/>
<feGaussianBlur stdDeviation="6"/>
<feColorMatrix type="matrix" values="0 0 0 0 0.0313726 0 0 0 0 0.188235 0 0 0 0 0.105882 0 0 0 0.06 0"/>
<feBlend mode="normal" in2="effect3_dropShadow_1292_2726" result="effect4_dropShadow_1292_2726"/>
<feColorMatrix in="SourceAlpha" type="matrix" values="0 0 0 0 0 0 0 0 0 0 0 0 0 0 0 0 0 0 127 0" result="hardAlpha"/>
<feOffset dx="33" dy="32"/>
<feGaussianBlur stdDeviation="6.5"/>
<feColorMatrix type="matrix" values="0 0 0 0 0.0313726 0 0 0 0 0.188235 0 0 0 0 0.105882 0 0 0 0.01 0"/>
<feBlend mode="normal" in2="effect4_dropShadow_1292_2726" result="effect5_dropShadow_1292_2726"/>
<feBlend mode="normal" in="SourceGraphic" in2="effect5_dropShadow_1292_2726" result="shape"/>
</filter>
<filter id="filter2_ddddd_1292_2726" x="40.3164" y="0" width="75.8105" height="78.8911" filterUnits="userSpaceOnUse" color-interpolation-filters="sRGB">
<feFlood flood-opacity="0" result="BackgroundImageFix"/>
<feColorMatrix in="SourceAlpha" type="matrix" values="0 0 0 0 0 0 0 0 0 0 0 0 0 0 0 0 0 0 127 0" result="hardAlpha"/>
<feOffset dx="1" dy="1"/>
<feGaussianBlur stdDeviation="2"/>
<feColorMatrix type="matrix" values="0 0 0 0 0.0313726 0 0 0 0 0.188235 0 0 0 0 0.105882 0 0 0 0.4 0"/>
<feBlend mode="normal" in2="BackgroundImageFix" result="effect1_dropShadow_1292_2726"/>
<feColorMatrix in="SourceAlpha" type="matrix" values="0 0 0 0 0 0 0 0 0 0 0 0 0 0 0 0 0 0 127 0" result="hardAlpha"/>
<feOffset dx="5" dy="5"/>
<feGaussianBlur stdDeviation="3.5"/>
<feColorMatrix type="matrix" values="0 0 0 0 0.0313726 0 0 0 0 0.188235 0 0 0 0 0.105882 0 0 0 0.35 0"/>
<feBlend mode="normal" in2="effect1_dropShadow_1292_2726" result="effect2_dropShadow_1292_2726"/>
<feColorMatrix in="SourceAlpha" type="matrix" values="0 0 0 0 0 0 0 0 0 0 0 0 0 0 0 0 0 0 127 0" result="hardAlpha"/>
<feOffset dx="12" dy="11"/>
<feGaussianBlur stdDeviation="5"/>
<feColorMatrix type="matrix" values="0 0 0 0 0.0313726 0 0 0 0 0.188235 0 0 0 0 0.105882 0 0 0 0.2 0"/>
<feBlend mode="normal" in2="effect2_dropShadow_1292_2726" result="effect3_dropShadow_1292_2726"/>
<feColorMatrix in="SourceAlpha" type="matrix" values="0 0 0 0 0 0 0 0 0 0 0 0 0 0 0 0 0 0 127 0" result="hardAlpha"/>
<feOffset dx="21" dy="20"/>
<feGaussianBlur stdDeviation="6"/>
<feColorMatrix type="matrix" values="0 0 0 0 0.0313726 0 0 0 0 0.188235 0 0 0 0 0.105882 0 0 0 0.06 0"/>
<feBlend mode="normal" in2="effect3_dropShadow_1292_2726" result="effect4_dropShadow_1292_2726"/>
<feColorMatrix in="SourceAlpha" type="matrix" values="0 0 0 0 0 0 0 0 0 0 0 0 0 0 0 0 0 0 127 0" result="hardAlpha"/>
<feOffset dx="33" dy="32"/>
<feGaussianBlur stdDeviation="6.5"/>
<feColorMatrix type="matrix" values="0 0 0 0 0.0313726 0 0 0 0 0.188235 0 0 0 0 0.105882 0 0 0 0.01 0"/>
<feBlend mode="normal" in2="effect4_dropShadow_1292_2726" result="effect5_dropShadow_1292_2726"/>
<feBlend mode="normal" in="SourceGraphic" in2="effect5_dropShadow_1292_2726" result="shape"/>
</filter>
<filter id="filter3_ddddd_1292_2726" x="69.6562" y="0" width="75.8105" height="78.8911" filterUnits="userSpaceOnUse" color-interpolation-filters="sRGB">
<feFlood flood-opacity="0" result="BackgroundImageFix"/>
<feColorMatrix in="SourceAlpha" type="matrix" values="0 0 0 0 0 0 0 0 0 0 0 0 0 0 0 0 0 0 127 0" result="hardAlpha"/>
<feOffset dx="1" dy="1"/>
<feGaussianBlur stdDeviation="2"/>
<feColorMatrix type="matrix" values="0 0 0 0 0.0313726 0 0 0 0 0.188235 0 0 0 0 0.105882 0 0 0 0.4 0"/>
<feBlend mode="normal" in2="BackgroundImageFix" result="effect1_dropShadow_1292_2726"/>
<feColorMatrix in="SourceAlpha" type="matrix" values="0 0 0 0 0 0 0 0 0 0 0 0 0 0 0 0 0 0 127 0" result="hardAlpha"/>
<feOffset dx="5" dy="5"/>
<feGaussianBlur stdDeviation="3.5"/>
<feColorMatrix type="matrix" values="0 0 0 0 0.0313726 0 0 0 0 0.188235 0 0 0 0 0.105882 0 0 0 0.35 0"/>
<feBlend mode="normal" in2="effect1_dropShadow_1292_2726" result="effect2_dropShadow_1292_2726"/>
<feColorMatrix in="SourceAlpha" type="matrix" values="0 0 0 0 0 0 0 0 0 0 0 0 0 0 0 0 0 0 127 0" result="hardAlpha"/>
<feOffset dx="12" dy="11"/>
<feGaussianBlur stdDeviation="5"/>
<feColorMatrix type="matrix" values="0 0 0 0 0.0313726 0 0 0 0 0.188235 0 0 0 0 0.105882 0 0 0 0.2 0"/>
<feBlend mode="normal" in2="effect2_dropShadow_1292_2726" result="effect3_dropShadow_1292_2726"/>
<feColorMatrix in="SourceAlpha" type="matrix" values="0 0 0 0 0 0 0 0 0 0 0 0 0 0 0 0 0 0 127 0" result="hardAlpha"/>
<feOffset dx="21" dy="20"/>
<feGaussianBlur stdDeviation="6"/>
<feColorMatrix type="matrix" values="0 0 0 0 0.0313726 0 0 0 0 0.188235 0 0 0 0 0.105882 0 0 0 0.06 0"/>
<feBlend mode="normal" in2="effect3_dropShadow_1292_2726" result="effect4_dropShadow_1292_2726"/>
<feColorMatrix in="SourceAlpha" type="matrix" values="0 0 0 0 0 0 0 0 0 0 0 0 0 0 0 0 0 0 127 0" result="hardAlpha"/>
<feOffset dx="33" dy="32"/>
<feGaussianBlur stdDeviation="6.5"/>
<feColorMatrix type="matrix" values="0 0 0 0 0.0313726 0 0 0 0 0.188235 0 0 0 0 0.105882 0 0 0 0.01 0"/>
<feBlend mode="normal" in2="effect4_dropShadow_1292_2726" result="effect5_dropShadow_1292_2726"/>
<feBlend mode="normal" in="SourceGraphic" in2="effect5_dropShadow_1292_2726" result="shape"/>
</filter>
<filter id="filter4_ddddd_1292_2726" x="101" y="8" width="71" height="71" filterUnits="userSpaceOnUse" color-interpolation-filters="sRGB">
<feFlood flood-opacity="0" result="BackgroundImageFix"/>
<feColorMatrix in="SourceAlpha" type="matrix" values="0 0 0 0 0 0 0 0 0 0 0 0 0 0 0 0 0 0 127 0" result="hardAlpha"/>
<feOffset dx="1" dy="1"/>
<feGaussianBlur stdDeviation="2"/>
<feColorMatrix type="matrix" values="0 0 0 0 0.0313726 0 0 0 0 0.188235 0 0 0 0 0.105882 0 0 0 0.4 0"/>
<feBlend mode="normal" in2="BackgroundImageFix" result="effect1_dropShadow_1292_2726"/>
<feColorMatrix in="SourceAlpha" type="matrix" values="0 0 0 0 0 0 0 0 0 0 0 0 0 0 0 0 0 0 127 0" result="hardAlpha"/>
<feOffset dx="5" dy="5"/>
<feGaussianBlur stdDeviation="3.5"/>
<feColorMatrix type="matrix" values="0 0 0 0 0.0313726 0 0 0 0 0.188235 0 0 0 0 0.105882 0 0 0 0.35 0"/>
<feBlend mode="normal" in2="effect1_dropShadow_1292_2726" result="effect2_dropShadow_1292_2726"/>
<feColorMatrix in="SourceAlpha" type="matrix" values="0 0 0 0 0 0 0 0 0 0 0 0 0 0 0 0 0 0 127 0" result="hardAlpha"/>
<feOffset dx="12" dy="11"/>
<feGaussianBlur stdDeviation="5"/>
<feColorMatrix type="matrix" values="0 0 0 0 0.0313726 0 0 0 0 0.188235 0 0 0 0 0.105882 0 0 0 0.2 0"/>
<feBlend mode="normal" in2="effect2_dropShadow_1292_2726" result="effect3_dropShadow_1292_2726"/>
<feColorMatrix in="SourceAlpha" type="matrix" values="0 0 0 0 0 0 0 0 0 0 0 0 0 0 0 0 0 0 127 0" result="hardAlpha"/>
<feOffset dx="21" dy="20"/>
<feGaussianBlur stdDeviation="6"/>
<feColorMatrix type="matrix" values="0 0 0 0 0.0313726 0 0 0 0 0.188235 0 0 0 0 0.105882 0 0 0 0.06 0"/>
<feBlend mode="normal" in2="effect3_dropShadow_1292_2726" result="effect4_dropShadow_1292_2726"/>
<feColorMatrix in="SourceAlpha" type="matrix" values="0 0 0 0 0 0 0 0 0 0 0 0 0 0 0 0 0 0 127 0" result="hardAlpha"/>
<feOffset dx="33" dy="32"/>
<feGaussianBlur stdDeviation="6.5"/>
<feColorMatrix type="matrix" values="0 0 0 0 0.0313726 0 0 0 0 0.188235 0 0 0 0 0.105882 0 0 0 0.01 0"/>
<feBlend mode="normal" in2="effect4_dropShadow_1292_2726" result="effect5_dropShadow_1292_2726"/>
<feBlend mode="normal" in="SourceGraphic" in2="effect5_dropShadow_1292_2726" result="shape"/>
</filter>
<linearGradient id="paint0_linear_1292_2726" x1="21.1683" y1="3.68397" x2="-3.88565" y2="21.1858" gradientUnits="userSpaceOnUse">
<stop stop-color="#E9EBF1"/>
<stop offset="1" stop-color="#C1C1C3"/>
</linearGradient>
<linearGradient id="paint1_linear_1292_2726" x1="38.0985" y1="25.7001" x2="31.0409" y2="31.4538" gradientUnits="userSpaceOnUse">
<stop stop-color="#E9EBF1"/>
<stop offset="1" stop-color="#C1C1C3"/>
</linearGradient>
<linearGradient id="paint2_linear_1292_2726" x1="61.4847" y1="3.68397" x2="36.4308" y2="21.1858" gradientUnits="userSpaceOnUse">
<stop stop-color="#E9EBF1"/>
<stop offset="1" stop-color="#C1C1C3"/>
</linearGradient>
<linearGradient id="paint3_linear_1292_2726" x1="90.8245" y1="3.68397" x2="65.7706" y2="21.1858" gradientUnits="userSpaceOnUse">
<stop stop-color="#E9EBF1"/>
<stop offset="1" stop-color="#C1C1C3"/>
</linearGradient>
<linearGradient id="paint4_linear_1292_2726" x1="105.857" y1="11.6426" x2="124.286" y2="34.9865" gradientUnits="userSpaceOnUse">
<stop stop-color="#D6D5AB"/>
<stop offset="1" stop-color="#91A06D"/>
</linearGradient>
<linearGradient id="paint5_linear_1292_2726" x1="115" y1="11" x2="115" y2="34" gradientUnits="userSpaceOnUse">
<stop stop-color="white" stop-opacity="0.69"/>
<stop offset="1" stop-color="white" stop-opacity="0"/>
</linearGradient>
</defs>
</svg>
