<svg width="135" height="140" viewBox="0 0 135 140" fill="none" xmlns="http://www.w3.org/2000/svg">
<path d="M67.3199 137.881C65.8635 137.881 64.4506 137.707 63.1135 137.37C61.7764 137.033 60.5188 136.533 59.3696 135.877C58.9974 135.667 58.7445 135.323 58.6397 134.939C58.5349 134.555 58.5746 134.131 58.7878 133.758C58.9974 133.385 59.3407 133.131 59.7238 133.026C60.1068 132.921 60.5296 132.961 60.9019 133.175C61.8161 133.696 62.828 134.095 63.9013 134.363C64.9746 134.631 66.1129 134.769 67.2837 134.769C68.4546 134.769 69.6182 134.631 70.6951 134.363C71.772 134.095 72.7839 133.696 73.6981 133.175C74.0704 132.964 74.4968 132.921 74.8762 133.026C75.2557 133.131 75.599 133.385 75.8122 133.754C76.0254 134.127 76.0651 134.551 75.9603 134.935C75.8555 135.319 75.6026 135.663 75.2304 135.874C74.0812 136.529 72.8236 137.029 71.4901 137.366C70.1603 137.703 68.7545 137.877 67.3127 137.877L67.3199 137.881Z" fill="#295278"/>
<path d="M38.5226 4.90891C38.3925 4.90891 38.2624 4.8908 38.1323 4.85819C38.0022 4.82559 37.8757 4.77487 37.7564 4.70603C36.8385 4.18435 35.8303 3.78584 34.757 3.51775C33.6837 3.24966 32.5454 3.112 31.3746 3.112C30.2037 3.112 29.0401 3.24966 27.9632 3.51775C26.8863 3.78584 25.8744 4.18435 24.9566 4.70603C24.5843 4.91978 24.1615 4.95963 23.7785 4.85457C23.3954 4.74951 23.0521 4.49591 22.8425 4.12276C22.6293 3.74961 22.5896 3.32574 22.6943 2.94172C22.7991 2.55771 23.0521 2.21354 23.4243 2.00342C24.5735 1.34769 25.8347 0.847738 27.1646 0.510816C28.4944 0.173895 29.9002 0 31.3384 0C32.7767 0 34.2077 0.173895 35.5412 0.510816C36.8747 0.847738 38.1359 1.34769 39.2851 2.00342C39.6573 2.21354 39.9102 2.55771 40.015 2.94172C40.1198 3.32574 40.0801 3.74961 39.8669 4.12276C39.7259 4.37636 39.5236 4.57199 39.2887 4.70603C39.0538 4.84008 38.79 4.90891 38.5189 4.90891H38.5226Z" fill="#295278"/>
<path d="M107.913 4.90891C107.783 4.90891 107.653 4.8908 107.523 4.85819C107.393 4.82559 107.266 4.77487 107.147 4.70603C106.229 4.18435 105.221 3.78584 104.148 3.51775C103.074 3.24966 101.936 3.112 100.765 3.112C99.5943 3.112 98.4307 3.24966 97.3538 3.51775C96.2769 3.78584 95.2651 4.18435 94.3472 4.70603C93.975 4.91978 93.5522 4.95963 93.1691 4.85457C92.786 4.74951 92.4427 4.49591 92.2331 4.12276C92.0199 3.74961 91.9802 3.32574 92.085 2.94172C92.1898 2.55771 92.4427 2.21354 92.8149 2.00342C93.9641 1.34769 95.2253 0.847738 96.5552 0.510816C97.885 0.173895 99.2908 0 100.729 0C102.167 0 103.598 0.173895 104.932 0.510816C106.265 0.847738 107.527 1.34769 108.676 2.00342C109.048 2.21354 109.301 2.55771 109.406 2.94172C109.51 3.32574 109.471 3.74961 109.257 4.12276C109.117 4.37636 108.914 4.57199 108.679 4.70603C108.444 4.84008 108.181 4.90891 107.91 4.90891H107.913Z" fill="#295278"/>
<path d="M31.3607 100.334C23.1575 100.334 15.7168 95.2619 10.3288 87.0707C4.94066 78.8796 1.60156 67.5691 1.60156 55.0994C1.60156 42.6297 4.93705 31.3193 10.3251 23.1281C15.7132 14.9369 23.1539 9.86499 31.3571 9.86499C39.5603 9.86499 47.001 14.9369 52.3891 23.1281C57.7772 31.3193 61.1163 42.6261 61.1163 55.0994C61.1163 67.5728 57.7772 78.8796 52.3891 87.0707C47.001 95.2619 39.5603 100.334 31.3571 100.334H31.3607ZM31.3607 12.9734C24.0104 12.9734 17.3466 17.6975 12.5187 25.3272C7.69072 32.9568 4.70216 43.4847 4.70216 55.0994C4.70216 66.7142 7.69072 77.2457 12.5187 84.8753C17.3466 92.505 24.0104 97.2291 31.3607 97.2291C38.7111 97.2291 45.3749 92.505 50.2028 84.8753C55.0308 77.2457 58.0193 66.7142 58.0193 55.0994C58.0193 43.4847 55.0308 32.9532 50.2028 25.3272C45.3749 17.6975 38.7111 12.9734 31.3607 12.9734Z" fill="#295278"/>
<path d="M100.747 100.334C92.5443 100.334 85.1036 95.2619 79.7155 87.0707C74.3274 78.8796 70.9883 67.5691 70.9883 55.0994C70.9883 42.6297 74.3274 31.3193 79.7155 23.1281C85.1036 14.9369 92.5443 9.86499 100.747 9.86499C108.951 9.86499 116.391 14.9369 121.779 23.1281C127.168 31.3193 130.507 42.6261 130.507 55.0994C130.507 67.5728 127.168 78.8796 121.779 87.0707C116.391 95.2619 108.951 100.334 100.747 100.334ZM100.747 12.9734C93.3971 12.9734 86.7334 17.6975 81.9054 25.3272C77.0774 32.9568 74.0889 43.4847 74.0889 55.0994C74.0889 66.7142 77.0774 77.2457 81.9054 84.8753C86.7334 92.505 93.3971 97.2291 100.747 97.2291C108.098 97.2291 114.762 92.505 119.59 84.8753C124.417 77.2457 127.406 66.7142 127.406 55.0994C127.406 43.4847 124.417 32.9532 119.59 25.3272C114.762 17.6975 108.098 12.9734 100.747 12.9734Z" fill="#295278"/>
<path d="M128.956 55.0995C128.956 46.4373 127.326 38.3657 124.518 31.5729C121.71 24.7838 117.721 19.2735 113.001 15.7449C110.172 18.9366 107.74 23.7513 105.922 29.6673C104.104 35.5834 102.908 42.6044 102.543 50.2195L109.68 53.9655L116.817 57.7115L109.864 61.3597L102.912 65.0079C103.555 71.5108 104.823 77.4558 106.554 82.4843C108.285 87.5128 110.486 91.6247 112.998 94.4613C117.717 90.9291 121.707 85.4224 124.515 78.6333C127.322 71.8441 128.952 63.7689 128.952 55.1067L128.956 55.0995Z" fill="#295278"/>
<path d="M3.79053 139.993C3.3605 139.993 2.97382 139.819 2.69557 139.536C2.41369 139.254 2.24023 138.866 2.24023 138.438C2.24023 138.011 2.41369 137.62 2.69557 137.341C2.97744 137.058 3.36411 136.884 3.79053 136.884C10.9819 136.884 17.4975 133.953 22.2206 129.218C26.9438 124.483 29.8673 117.948 29.8673 110.742C29.8673 103.536 26.9438 97.0007 22.2206 92.2657C17.4975 87.5307 10.9783 84.5998 3.79053 84.5998C3.3605 84.5998 2.97382 84.4259 2.69557 84.1434C2.41369 83.8608 2.24023 83.4731 2.24023 83.0456C2.24023 82.6181 2.41369 82.2269 2.69557 81.9479C2.97744 81.669 3.36411 81.4915 3.79053 81.4915C11.8347 81.4915 19.1309 84.7737 24.4142 90.0703C29.6975 95.3668 32.9715 102.681 32.9715 110.746C32.9715 118.81 29.6975 126.125 24.4142 131.421C19.1309 136.718 11.8347 140 3.79053 140V139.993Z" fill="#295278"/>
<path d="M130.818 139.993C122.774 139.993 115.477 136.711 110.194 131.414C104.911 126.117 101.637 118.803 101.637 110.739C101.637 102.674 104.907 95.3597 110.194 90.0632C115.481 84.7666 122.774 81.4844 130.818 81.4844C131.248 81.4844 131.634 81.6583 131.913 81.9408C132.195 82.2234 132.368 82.6111 132.368 83.0386C132.368 83.4661 132.195 83.8573 131.913 84.1363C131.631 84.4152 131.244 84.5927 130.818 84.5927C123.63 84.5927 117.111 87.5236 112.388 92.2586C107.664 96.9936 104.741 103.529 104.741 110.735C104.741 117.941 107.664 124.476 112.388 129.211C117.111 133.946 123.63 136.877 130.818 136.877C131.248 136.877 131.634 137.051 131.913 137.334C132.191 137.616 132.368 138.004 132.368 138.431C132.368 138.859 132.195 139.25 131.913 139.529C131.631 139.808 131.244 139.986 130.818 139.986V139.993Z" fill="#295278"/>
<path d="M67.3055 128.61C63.8652 128.61 60.4249 128.092 57.1075 127.052C53.7937 126.012 50.6028 124.455 47.6684 122.379C45.5724 120.893 43.9932 119.39 42.938 117.875C41.8828 116.361 41.3516 114.832 41.3516 113.307C41.3516 112.514 41.4997 111.782 41.7852 111.13C42.0707 110.478 42.4971 109.905 43.0536 109.431C44.0727 108.565 45.5038 108.032 47.3757 107.826C49.2476 107.623 51.564 107.75 54.3466 108.206C58.6433 108.909 62.9726 109.264 67.3019 109.264C71.6311 109.264 75.9604 108.913 80.2571 108.206C83.0397 107.75 85.3561 107.623 87.2281 107.826C89.1 108.029 90.5346 108.561 91.5537 109.431C92.1102 109.905 92.5366 110.478 92.8221 111.13C93.1076 111.782 93.2558 112.514 93.2558 113.307C93.2558 114.832 92.7246 116.361 91.6693 117.875C90.6141 119.39 89.0349 120.897 86.939 122.379C84.001 124.458 80.8137 126.016 77.4999 127.056C74.1861 128.095 70.7422 128.614 67.3019 128.614L67.3055 128.61ZM49.2151 110.84C47.9466 110.84 47.0324 110.974 46.3711 111.162C45.7097 111.351 45.3086 111.59 45.0629 111.8C44.9219 111.92 44.7666 112.079 44.6509 112.314C44.5353 112.55 44.4522 112.869 44.4522 113.304C44.4522 114.282 44.8858 115.336 45.7278 116.434C46.5698 117.531 47.8202 118.676 49.4572 119.835C54.7947 123.614 61.0537 125.502 67.3055 125.502C73.5609 125.502 79.8163 123.614 85.1502 119.835C86.7872 118.676 88.0375 117.535 88.8795 116.434C89.7215 115.336 90.1552 114.282 90.1552 113.304C90.1552 112.865 90.0721 112.55 89.9564 112.314C89.8408 112.079 89.6854 111.92 89.5445 111.8C89.1831 111.492 88.4784 111.115 87.1196 110.941C85.7609 110.764 83.7444 110.789 80.7595 111.278C76.2965 112.01 71.801 112.372 67.3055 112.372C62.81 112.372 58.3145 112.007 53.8515 111.278C52.8939 111.123 52.0338 111.014 51.2641 110.941C50.4943 110.873 49.815 110.84 49.2151 110.84Z" fill="#295278"/>
<path d="M67.3062 128.592C66.8761 128.592 66.4894 128.418 66.2112 128.135C65.9293 127.853 65.7559 127.465 65.7559 127.038V110.916C65.7559 110.485 65.9293 110.097 66.2112 109.818C66.4931 109.536 66.8797 109.362 67.3062 109.362C67.7326 109.362 68.1229 109.536 68.4011 109.818C68.6794 110.101 68.8564 110.489 68.8564 110.916V127.038C68.8564 127.469 68.683 127.856 68.4011 128.135C68.1192 128.418 67.7326 128.592 67.3062 128.592Z" fill="#295278"/>
<path d="M50.4981 123.639C50.4475 123.639 50.4005 123.639 50.3499 123.632C50.2993 123.629 50.2487 123.621 50.2017 123.61C49.7826 123.527 49.4356 123.284 49.2116 122.955C48.9911 122.625 48.8936 122.208 48.9767 121.788L50.1945 115.532L51.4124 109.275C51.4955 108.855 51.7376 108.503 52.0664 108.282C52.3953 108.061 52.8109 107.964 53.2301 108.047C53.6493 108.13 53.9962 108.373 54.2202 108.703C54.4407 109.032 54.5382 109.449 54.4551 109.869L53.2373 116.126L52.0195 122.382C51.9472 122.752 51.7484 123.067 51.4774 123.288C51.2064 123.509 50.8631 123.639 50.4981 123.639Z" fill="#295278"/>
<path d="M84.1095 123.639C83.7445 123.639 83.4012 123.513 83.1302 123.288C82.8592 123.063 82.6604 122.752 82.5881 122.382L81.3703 116.126L80.1525 109.869C80.0694 109.449 80.1669 109.032 80.3874 108.703C80.6078 108.373 80.9547 108.127 81.3775 108.047C81.7931 107.963 82.2087 108.058 82.5375 108.282C82.8664 108.503 83.1157 108.855 83.1952 109.275L84.4131 115.532L85.6309 121.788C85.714 122.208 85.6164 122.625 85.396 122.955C85.1756 123.284 84.8287 123.531 84.4058 123.61C84.3553 123.621 84.3047 123.629 84.2577 123.632C84.2071 123.636 84.1601 123.639 84.1095 123.639Z" fill="#295278"/>
<path d="M59.5691 55.0995C59.5691 46.4373 57.9393 38.3657 55.1314 31.5729C52.3236 24.7838 48.334 19.2735 43.6144 15.7449C40.7849 18.9366 38.3528 23.7513 36.5351 29.6673C34.7174 35.5834 33.5212 42.6044 33.1562 50.2195L40.2934 53.9655L47.4305 57.7115L40.4777 61.3597L33.5249 65.0079C34.1681 71.5108 35.4365 77.4558 37.1675 82.4843C38.8985 87.5128 41.0993 91.6247 43.6108 94.4613C48.3304 90.9291 52.3199 85.4224 55.1278 78.6333C57.9357 71.8441 59.5655 63.7689 59.5655 55.1067L59.5691 55.0995Z" fill="#295278"/>
<path d="M83.0806 99.7722C82.712 99.7722 82.3615 99.6381 82.0904 99.4099C81.8194 99.1816 81.6206 98.8592 81.5556 98.4824C81.4833 98.0586 81.5881 97.6456 81.8158 97.3232C82.0435 96.9971 82.3976 96.7616 82.8204 96.6855C84.7863 96.345 86.8895 95.7327 88.606 94.8415C90.3225 93.9539 91.6488 92.7874 92.0608 91.3383C92.2993 90.4869 92.3318 89.6826 92.1619 88.9581C91.9921 88.2335 91.6199 87.5887 91.0525 87.0597C90.4129 86.4583 89.5853 86.0707 88.6855 85.9185C87.7893 85.7664 86.8208 85.8461 85.8957 86.1794C84.5875 86.6503 83.4203 87.4619 82.3651 88.4147C81.3099 89.3675 80.3667 90.4652 79.5066 91.5085C79.2356 91.8382 78.8561 92.0266 78.4586 92.0628C78.0647 92.0991 77.6528 91.9867 77.3239 91.715C76.9951 91.4433 76.8071 91.0593 76.7674 90.6644C76.7276 90.2695 76.8433 89.8565 77.1179 89.5269C78.1081 88.3241 79.2031 87.0597 80.4679 85.9403C81.7327 84.8244 83.1709 83.8535 84.8477 83.2521C86.3366 82.716 87.876 82.5964 89.3143 82.8609C90.7526 83.1253 92.0897 83.7775 93.1666 84.7846C94.164 85.7193 94.8325 86.8605 95.1541 88.1212C95.4757 89.3819 95.4432 90.7659 95.0421 92.1824C94.3013 94.8053 92.133 96.5624 89.7733 97.7325C87.4135 98.9027 84.8586 99.4823 83.348 99.7432C83.3047 99.7504 83.2577 99.7577 83.2143 99.7613C83.1709 99.7649 83.124 99.7686 83.0806 99.7686V99.7722Z" fill="#295278"/>
<path d="M2.40314 121.259C1.73821 121.259 1.13833 120.987 0.70468 120.553C0.271031 120.118 0 119.513 0 118.85C0 118.187 0.271031 117.582 0.70468 117.147C1.13833 116.713 1.74183 116.441 2.40314 116.441C3.06446 116.441 3.66795 116.713 4.1016 117.147C4.53525 117.582 4.80628 118.187 4.80628 118.85C4.80628 119.513 4.53525 120.118 4.1016 120.553C3.66795 120.987 3.06446 121.259 2.40314 121.259ZM2.40314 118.151C2.21161 118.151 2.03815 118.23 1.91167 118.354C1.78519 118.477 1.7093 118.654 1.7093 118.846C1.7093 119.038 1.7888 119.212 1.91167 119.339C2.03454 119.466 2.21161 119.542 2.40314 119.542C2.59467 119.542 2.76813 119.462 2.89461 119.339C3.02109 119.216 3.09698 119.038 3.09698 118.846C3.09698 118.654 3.01748 118.48 2.89461 118.354C2.77174 118.227 2.59467 118.151 2.40314 118.151Z" fill="#295278"/>
<path d="M15.4442 113.677C14.7792 113.677 14.1793 113.405 13.7457 112.97C13.312 112.532 13.041 111.93 13.041 111.264C13.041 110.597 13.312 109.996 13.7457 109.561C14.1793 109.126 14.7828 108.855 15.4442 108.855C16.1055 108.855 16.709 109.126 17.1426 109.561C17.5763 109.996 17.8473 110.601 17.8473 111.264C17.8473 111.927 17.5763 112.532 17.1426 112.97C16.709 113.408 16.1055 113.677 15.4442 113.677ZM15.4442 110.568C15.2526 110.568 15.0792 110.648 14.9527 110.771C14.8262 110.898 14.7503 111.072 14.7503 111.264C14.7503 111.456 14.8298 111.63 14.9527 111.756C15.0756 111.883 15.2526 111.959 15.4442 111.959C15.6357 111.959 15.8091 111.88 15.9356 111.756C16.0621 111.633 16.138 111.456 16.138 111.264C16.138 111.072 16.0585 110.898 15.9356 110.771C15.8091 110.644 15.6357 110.568 15.4442 110.568Z" fill="#295278"/>
<path d="M3.26056 107.34C2.59563 107.34 1.99575 107.069 1.5621 106.634C1.12845 106.199 0.857422 105.594 0.857422 104.931C0.857422 104.268 1.12845 103.663 1.5621 103.228C1.99575 102.794 2.59925 102.522 3.26056 102.522C3.92188 102.522 4.52537 102.794 4.95902 103.228C5.39267 103.663 5.6637 104.268 5.6637 104.931C5.6637 105.594 5.39267 106.199 4.95902 106.634C4.52537 107.069 3.92188 107.34 3.26056 107.34ZM3.26056 104.232C3.06903 104.232 2.89557 104.312 2.76909 104.435C2.64261 104.558 2.56672 104.736 2.56672 104.928C2.56672 105.12 2.64623 105.293 2.76909 105.42C2.89196 105.547 3.06903 105.623 3.26056 105.623C3.45209 105.623 3.62555 105.543 3.75203 105.42C3.87851 105.297 3.9544 105.12 3.9544 104.928C3.9544 104.736 3.8749 104.562 3.75203 104.435C3.62916 104.308 3.45209 104.232 3.26056 104.232Z" fill="#295278"/>
<path d="M132.206 121.259C131.541 121.259 130.941 120.987 130.507 120.553C130.074 120.118 129.803 119.513 129.803 118.85C129.803 118.187 130.074 117.582 130.507 117.147C130.941 116.713 131.545 116.441 132.206 116.441C132.867 116.441 133.471 116.713 133.904 117.147C134.338 117.582 134.609 118.187 134.609 118.85C134.609 119.513 134.338 120.118 133.904 120.553C133.471 120.987 132.867 121.259 132.206 121.259ZM132.206 118.151C132.014 118.151 131.841 118.23 131.714 118.354C131.588 118.477 131.512 118.654 131.512 118.846C131.512 119.038 131.592 119.212 131.714 119.339C131.837 119.466 132.014 119.542 132.206 119.542C132.397 119.542 132.571 119.462 132.697 119.339C132.824 119.216 132.9 119.038 132.9 118.846C132.9 118.654 132.82 118.48 132.697 118.354C132.574 118.227 132.397 118.151 132.206 118.151Z" fill="#295278"/>
<path d="M119.163 113.677C118.498 113.677 117.898 113.405 117.464 112.97C117.031 112.532 116.76 111.93 116.76 111.264C116.76 110.597 117.031 109.996 117.464 109.561C117.898 109.126 118.502 108.855 119.163 108.855C119.824 108.855 120.428 109.126 120.861 109.561C121.295 109.996 121.566 110.601 121.566 111.264C121.566 111.927 121.295 112.532 120.861 112.97C120.428 113.408 119.824 113.677 119.163 113.677ZM119.163 110.568C118.971 110.568 118.798 110.648 118.671 110.771C118.545 110.898 118.469 111.072 118.469 111.264C118.469 111.456 118.549 111.63 118.671 111.756C118.794 111.883 118.971 111.959 119.163 111.959C119.354 111.959 119.528 111.88 119.654 111.756C119.781 111.633 119.857 111.456 119.857 111.264C119.857 111.072 119.777 110.898 119.654 110.771C119.528 110.644 119.354 110.568 119.163 110.568Z" fill="#295278"/>
<path d="M131.352 107.34C130.687 107.34 130.088 107.069 129.654 106.634C129.22 106.199 128.949 105.594 128.949 104.931C128.949 104.268 129.22 103.663 129.654 103.228C130.088 102.794 130.691 102.522 131.352 102.522C132.014 102.522 132.617 102.794 133.051 103.228C133.484 103.663 133.756 104.268 133.756 104.931C133.756 105.594 133.484 106.199 133.051 106.634C132.617 107.069 132.014 107.34 131.352 107.34ZM131.352 104.232C131.161 104.232 130.987 104.312 130.861 104.435C130.734 104.558 130.659 104.736 130.659 104.928C130.659 105.12 130.738 105.293 130.861 105.42C130.984 105.547 131.161 105.623 131.352 105.623C131.544 105.623 131.717 105.543 131.844 105.42C131.97 105.293 132.046 105.12 132.046 104.928C132.046 104.736 131.967 104.562 131.844 104.435C131.717 104.308 131.544 104.232 131.352 104.232Z" fill="#295278"/>
</svg>
