<svg width="32" height="32" viewBox="0 0 32 32" fill="none" xmlns="http://www.w3.org/2000/svg">
<path fill-rule="evenodd" clip-rule="evenodd" d="M14.3692 0.0363232C14.2657 0.0610084 13.7576 0.148973 13.2402 0.231675C11.0205 0.586667 8.32441 1.73635 6.48172 3.11371C3.26902 5.51483 1.11021 8.9026 0.236342 12.9141C-0.0787807 14.3609 -0.0787807 17.6745 0.236342 19.1213C1.65025 25.6119 6.39503 30.3514 12.8929 31.7637C14.3413 32.0784 17.6587 32.0784 19.1071 31.7637C22.4147 31.0448 25.1546 29.5513 27.4454 27.2186C29.6546 24.9687 31.0665 22.3212 31.7637 19.1213C32.0788 17.6745 32.0788 14.3609 31.7637 12.9141C30.3526 6.43683 25.5949 1.67733 19.1362 0.281672C18.2875 0.0982244 14.8502 -0.0787078 14.3692 0.0363232ZM17.1542 7.01249C18.7868 7.36146 20.3796 8.59773 21.0564 10.041C22.5914 13.3149 20.7914 17.1288 17.3172 17.9639L16.69 18.1146L17.1917 18.1977C17.4677 18.2434 18.1709 18.3911 18.7543 18.526C21.9262 19.259 24.7704 21.5931 26.1937 24.6311L26.5807 25.4574L25.6751 26.3201C23.6227 28.275 20.9786 29.5633 18.1326 29.995C13.8113 30.6506 9.44427 29.2914 6.32491 26.3201L5.41931 25.4574L5.80631 24.6311C7.22963 21.5931 10.0738 19.259 13.2457 18.526C13.8291 18.3911 14.5323 18.2434 14.8083 18.1977L15.31 18.1146L14.6828 17.9639C13.6373 17.7126 12.8396 17.2589 12.0429 16.4624C9.81559 14.2359 9.81559 10.7824 12.0429 8.55588C13.43 7.16924 15.2777 6.61138 17.1542 7.01249Z" fill="#E18531"/>
</svg>
