<svg width="48" height="48" viewBox="0 0 48 48" fill="none" xmlns="http://www.w3.org/2000/svg">
<path d="M22.1854 3.11529C22.9954 1.72453 25.0046 1.72453 25.8146 3.11529L31.293 12.5211C31.5897 13.0305 32.087 13.3918 32.6632 13.5166L43.3016 15.8203C44.8746 16.1609 45.4954 18.0718 44.4231 19.2719L37.1705 27.3887C36.7777 27.8284 36.5878 28.4129 36.6472 28.9995L37.7436 39.829C37.9058 41.4303 36.2803 42.6113 34.8075 41.9623L24.8468 37.5729C24.3073 37.3352 23.6927 37.3352 23.1532 37.5729L13.1925 41.9623C11.7197 42.6113 10.0942 41.4303 10.2563 39.829L11.3528 28.9995C11.4122 28.4129 11.2223 27.8284 10.8295 27.3887L3.57694 19.2719C2.50456 18.0718 3.12544 16.1609 4.69845 15.8203L15.3368 13.5166C15.913 13.3918 16.4103 13.0305 16.707 12.5211L22.1854 3.11529Z" fill="#DFD7CD"/>
<ellipse cx="4.46512" cy="4.46512" rx="4.46512" ry="4.46512" transform="matrix(-1 0 0 1 34.6035 17.8604)" fill="white"/>
<path  class='eye' fill-rule="evenodd" clip-rule="evenodd" d="M31.8132 26.4658C30.177 25.8034 29.0229 24.1992 29.0229 22.3255C29.0229 20.4517 30.177 18.8475 31.8132 18.1851C33.4494 18.8475 34.6035 20.4517 34.6035 22.3255C34.6035 24.1992 33.4494 25.8034 31.8132 26.4658Z" fill="#9A8B76"/>
<ellipse cx="4.46512" cy="4.46512" rx="4.46512" ry="4.46512" transform="matrix(-1 0 0 1 22.3262 17.8604)" fill="white"/>
<path class='eye' fill-rule="evenodd" clip-rule="evenodd" d="M19.5352 26.4663C17.8986 25.804 16.7442 24.1996 16.7442 22.3256C16.7442 20.4516 17.8986 18.8472 19.5352 18.1849C21.1717 18.8472 22.3262 20.4516 22.3262 22.3256C22.3262 24.1996 21.1717 25.804 19.5352 26.4663Z" fill="#9A8B76"/>
</svg>
