<svg xmlns="http://www.w3.org/2000/svg" width="146" height="18" viewBox="0 0 146 18"><g><g><g opacity=".2"><path fill="#fff" d="M.002-.002h17.142L32.012 9l-14.868 9.003H.002L14.87 9z"/></g><g opacity=".2"><path fill="#fff" d="M23.041-.002h17.142L55.051 9l-14.868 9.003H23.041L37.91 9z"/></g><g><path fill="#fff" d="M23.041-.002h17.142L55.051 9l-14.868 9.003H23.041L37.91 9z"/></g><g opacity=".2"><path fill="#fff" d="M45.478-.002H62.62L77.488 9 62.62 18.003H45.478L60.346 9z"/></g><g opacity=".2"><path fill="#fff" d="M68.517-.002h17.142L100.527 9l-14.868 9.003H68.517L83.385 9z"/></g><g opacity=".2"><path fill="#fff" d="M90.953-.002h17.142L122.963 9l-14.868 9.003H90.953L105.821 9z"/></g><g opacity=".2"><path fill="#fff" d="M113.992-.002h17.142L146.002 9l-14.868 9.003h-17.142L128.86 9z"/></g></g></g></svg>