<svg width="21" height="15" viewBox="0 0 21 15" fill="none" xmlns="http://www.w3.org/2000/svg">
<path d="M10.5 14.5C13.3073 14.5 15.828 13.6865 17.634 12.3964C19.441 11.1057 20.5 9.36768 20.5 7.5C20.5 5.63232 19.441 3.89428 17.634 2.60357C15.828 1.31353 13.3073 0.499999 10.5 0.5C7.6927 0.5 5.17204 1.31353 3.366 2.60357C1.55899 3.89429 0.5 5.63232 0.5 7.5C0.5 9.36768 1.55899 11.1057 3.366 12.3964C5.17204 13.6865 7.6927 14.5 10.5 14.5Z" stroke="white"/>
<path d="M11.8536 10.9126C12.0488 10.7173 12.0488 10.4007 11.8536 10.2055L8.87663 7.22853C8.68137 7.03327 8.36479 7.03327 8.16953 7.22853C7.97426 7.4238 7.97426 7.74038 8.16953 7.93564L11.1464 10.9126C11.3417 11.1078 11.6583 11.1078 11.8536 10.9126Z" fill="white"/>
<path d="M11.7445 4.14645C11.5492 3.95118 11.2327 3.95118 11.0374 4.14645L8.06254 7.12129C7.86728 7.31656 7.86728 7.63314 8.06254 7.8284C8.25781 8.02366 8.57439 8.02366 8.76965 7.8284L11.7445 4.85355C11.9398 4.65829 11.9398 4.34171 11.7445 4.14645Z" fill="white"/>
</svg>
