<svg width="21" height="15" viewBox="0 0 21 15" fill="none" xmlns="http://www.w3.org/2000/svg">
<path d="M10.5 14.5C7.6927 14.5 5.17204 13.6865 3.366 12.3964C1.55899 11.1057 0.5 9.36768 0.5 7.5C0.5 5.63232 1.55899 3.89428 3.366 2.60357C5.17204 1.31353 7.6927 0.499999 10.5 0.5C13.3073 0.5 15.828 1.31353 17.634 2.60357C19.441 3.89429 20.5 5.63232 20.5 7.5C20.5 9.36768 19.441 11.1057 17.634 12.3964C15.828 13.6865 13.3073 14.5 10.5 14.5Z" stroke="white"/>
<path d="M9.14645 10.9126C8.95119 10.7173 8.95119 10.4007 9.14645 10.2055L12.1234 7.22853C12.3186 7.03327 12.6352 7.03327 12.8305 7.22853C13.0257 7.4238 13.0257 7.74038 12.8305 7.93564L9.85355 10.9126C9.65829 11.1078 9.34171 11.1078 9.14645 10.9126Z" fill="white"/>
<path d="M9.2555 4.14645C9.45077 3.95118 9.76735 3.95118 9.96261 4.14645L12.9375 7.12129C13.1327 7.31656 13.1327 7.63314 12.9375 7.8284C12.7422 8.02366 12.4256 8.02366 12.2304 7.8284L9.2555 4.85355C9.06024 4.65829 9.06024 4.34171 9.2555 4.14645Z" fill="white"/>
</svg>
