<svg width="354" height="433" viewBox="0 0 354 433" fill="none" xmlns="http://www.w3.org/2000/svg">
<path d="M229.102 199.573C228.765 199.777 228.447 199.971 228.13 200.155C228.263 200.185 228.396 200.216 228.519 200.236C228.908 202.409 229.307 204.583 229.695 206.756C229.624 206.787 229.552 206.807 229.47 206.838C229.317 206.603 229.164 206.378 228.846 205.879C228.846 207.011 228.846 207.838 228.846 208.664C228.744 208.695 228.652 208.725 228.55 208.756C228.059 207.878 227.527 207.031 227.087 206.134C224.806 201.512 219.17 199.951 215.119 201.022C211.784 201.899 210.741 206.123 211.886 207.97C212.848 208.337 213.503 208.562 214.127 208.837C216.173 209.735 218.218 210.633 220.233 211.572C222.658 212.704 225.062 213.878 227.455 215.072C227.793 215.245 228.018 215.653 228.478 216.163C227.813 216.163 227.486 216.163 227.394 216.163C228.355 217.684 229.675 219.163 230.309 220.898C232.519 226.907 228.938 232.927 222.341 234.478C217.369 235.651 212.562 235.029 207.989 232.733C206.138 231.805 205.043 230.56 205.248 228.254C205.411 226.417 205.125 224.54 205.012 222.295C205.718 223.203 206.189 223.805 206.772 224.56C206.731 223.612 206.69 222.795 206.649 221.969C206.69 221.948 206.731 221.928 206.772 221.908C206.864 222.122 206.977 222.326 207.038 222.54C208.818 228.56 216.142 231.896 221.543 230.356C222.29 230.142 223.077 229.56 223.517 228.927C225.542 225.958 224.663 222.591 221.441 221.112C219.159 220.061 216.756 219.285 214.423 218.357C211.702 217.275 209.166 215.888 207.314 213.551C204.123 209.531 204.931 202.634 209.493 199.379C215.589 195.012 223.507 196.012 228.775 199.165C228.836 199.216 228.877 199.298 229.102 199.573Z" fill="white"/>
<path d="M147.177 199.481C146.819 199.767 146.543 199.991 146.256 200.206C146.369 200.206 146.481 200.206 146.594 200.206C146.983 202.389 147.371 204.583 147.76 206.766C147.688 206.797 147.617 206.817 147.545 206.848C147.392 206.623 147.238 206.399 146.962 206.011C146.962 206.991 146.962 207.817 146.962 208.644C146.86 208.684 146.758 208.725 146.655 208.756C146.174 207.94 145.622 207.164 145.223 206.307C143.126 201.756 137.531 199.94 133.245 201.022C129.552 201.961 128.683 206.827 130.575 208.562C131.189 208.725 131.823 208.827 132.416 209.062C135.055 210.123 137.715 211.143 140.303 212.317C142.144 213.153 143.914 214.163 145.683 215.143C146.512 215.602 146.88 216.255 146.011 217.102C147.392 218.592 148.343 220.214 148.762 222.193C149.642 226.407 147.873 230.774 144.129 232.978C140.733 234.968 137.019 235.345 133.173 234.896C130.606 234.6 128.192 233.876 125.89 232.662C124.151 231.743 123.149 230.57 123.333 228.458C123.496 226.54 123.363 224.601 123.363 222.652C123.814 223.234 124.294 223.846 124.826 224.53C124.826 223.785 124.826 223.101 124.826 222.428C124.877 222.418 124.929 222.408 124.98 222.387C125.522 223.765 126.023 225.162 126.637 226.499C126.811 226.887 127.332 227.132 127.721 227.397C128.048 227.621 128.447 227.744 128.764 227.968C132.048 230.264 135.608 231.417 139.597 230.376C140.375 230.172 141.203 229.54 141.653 228.866C143.556 226.04 142.666 222.622 139.618 221.193C137.316 220.112 134.871 219.326 132.498 218.398C129.859 217.357 127.404 216 125.542 213.796C122.218 209.868 122.903 202.807 127.435 199.491C133.521 195.043 141.5 195.951 146.798 199.155C146.911 199.206 146.983 199.308 147.177 199.481Z" fill="white"/>
<path d="M192.758 223.356C192.697 223.724 192.625 224.091 192.564 224.458C192.615 224.479 192.666 224.499 192.707 224.52C193.096 223.938 193.484 223.356 194.037 222.54C193.269 226.683 192.564 230.55 191.837 234.468C182.56 234.468 173.384 234.468 163.871 234.468C164.597 234.233 165.027 234.09 165.456 233.958C165.456 233.917 165.456 233.876 165.456 233.835C164.771 233.835 164.096 233.835 163.411 233.835C163.411 233.774 163.4 233.713 163.4 233.662C163.932 233.519 164.546 233.498 164.976 233.213C165.753 232.692 166.663 232.152 167.093 231.376C167.625 230.437 167.973 229.254 167.983 228.172C168.055 219.938 168.024 211.705 168.024 203.471C168.024 200.563 166.94 199.236 164.116 198.685C164.311 198.594 164.474 198.512 164.679 198.42C164.249 198.267 163.85 198.124 163.165 197.879C164.607 197.879 165.753 197.879 166.899 197.879C166.929 197.787 166.95 197.706 166.981 197.614C166.449 197.39 165.906 197.165 165.364 196.93C170.213 196.93 175.082 196.93 180.023 196.93C179.511 197.175 179.051 197.4 178.488 197.675C178.785 197.777 178.979 197.838 179.296 197.951C178.805 198.124 178.417 198.257 177.742 198.491C178.632 198.491 179.225 198.491 179.828 198.491C179.839 198.553 179.849 198.614 179.849 198.675C179.654 198.726 179.46 198.777 179.266 198.828C176.606 199.573 175.563 201.032 175.522 203.603C175.379 212 175.461 220.398 175.471 228.795C175.471 229.733 175.593 230.682 176.944 229.825C177.066 229.744 177.322 229.846 177.506 229.886C180.278 230.631 183.081 230.519 185.874 230.06C187.828 229.744 189.045 228.305 190.17 226.856C191.05 225.724 191.796 224.479 192.594 223.285C192.645 223.316 192.697 223.336 192.758 223.356Z" fill="white"/>
<path d="M324.325 129.62C321.993 130.069 319.671 130.518 317.359 130.957C317.288 130.835 317.196 130.733 317.206 130.712C318.198 129.539 317.431 128.519 316.93 127.478C315.334 124.192 313.738 120.917 312.153 117.632C312.009 117.346 312.009 116.989 312.091 116.642C314.106 118.989 314.352 119.05 317.144 117.713C320.766 115.969 324.387 114.214 327.997 112.449C328.499 112.204 328.969 111.918 329.399 111.428C323.057 111.428 316.725 111.428 310.383 111.428C310.301 111.326 310.229 111.224 310.148 111.132C313.81 106.225 317.472 101.327 321.257 96.2562C320.806 96.4501 320.5 96.5623 320.203 96.7052C316.541 98.4601 312.858 100.164 309.247 102.011C308.368 102.46 307.529 103.256 307.018 104.102C306.711 104.613 307.079 105.531 306.966 106.347C305.637 104.49 304.736 102.409 303.795 100.358C303.898 100.276 304 100.195 304.102 100.113C304.337 100.348 304.593 100.572 304.808 100.827C305.493 101.633 306.281 102.143 307.365 101.664C309.37 100.776 311.365 99.8885 313.349 98.9499C315.702 97.8479 318.034 96.695 320.367 95.5624C322.535 94.5115 322.729 94.0728 322.065 91.8077C322.034 91.7056 322.085 91.5832 322.126 91.2873C322.402 91.4608 322.648 91.5526 322.791 91.726C322.944 91.8995 322.955 92.1852 323.098 92.379C325.062 94.9502 324.734 97.0827 322.525 99.5518C319.661 102.756 317.298 106.398 314.72 109.847C314.628 109.969 314.556 110.102 314.403 110.367C314.863 110.398 315.211 110.439 315.549 110.439C320.09 110.469 324.622 110.479 329.164 110.51C330.739 110.52 330.851 110.357 330.309 108.826C330.207 108.541 330.238 108.214 330.217 107.898C330.463 108.122 330.8 108.306 330.944 108.582C332.427 111.551 333.849 114.55 335.352 117.509C335.905 118.591 335.935 120.305 338.012 120.121C337.552 120.54 337.091 120.958 336.621 121.366C335.608 122.254 334.616 123.162 333.572 124.019C333.388 124.172 333.03 124.131 332.754 124.182C332.805 123.937 332.775 123.621 332.918 123.458C335.874 120.274 334.974 118.448 333.153 114.969C332.642 113.989 331.895 113.928 330.995 114.204C330.688 114.295 330.401 114.469 330.115 114.601C328.294 115.489 326.463 116.367 324.571 117.295C324.908 117.999 325.195 118.652 325.522 119.285C326.484 121.131 327.118 121.376 329.112 120.713C329.358 120.631 329.644 120.703 329.951 120.897C327.752 122.07 325.696 123.448 323.159 124.182C323.977 123.07 325.082 122.244 325.123 121.356C325.184 120.172 324.417 118.948 323.947 117.56C321.267 118.887 318.802 120.091 316.347 121.315C315.487 121.744 315.559 122.529 315.855 123.213C316.459 124.58 317.103 125.937 317.86 127.212C318.566 128.386 319.661 129.049 321.113 129.018C322.146 128.988 323.19 129.018 324.223 129.018C324.264 129.253 324.295 129.437 324.325 129.62Z" fill="white"/>
<path d="M32.1707 341.876C31.383 340.254 30.6158 338.784 29.9714 337.264C29.8486 336.968 30.0635 336.397 30.2987 336.081C33.4493 331.836 36.6306 327.612 39.7914 323.378C39.9755 323.133 40.1085 322.847 40.3233 322.49C34.82 322.49 29.4599 322.49 23.8851 322.49C24.1306 323.398 24.3556 324.184 24.5704 324.98C24.4886 325.041 24.3965 325.112 24.3147 325.173C24.0896 324.908 23.8134 324.663 23.66 324.357C22.0336 321.051 20.4378 317.725 18.8319 314.409C18.4431 313.603 18.1567 312.634 16.8372 313.317C17.2054 312.032 21.0823 308.767 22.1461 308.91C21.6858 309.471 21.2971 309.971 20.8981 310.44C19.64 311.93 19.4354 313.562 20.2128 315.327C20.5913 316.184 20.98 317.031 21.4301 317.848C22.1154 319.072 22.6473 319.225 23.926 318.684C24.151 318.592 24.3658 318.48 24.5909 318.378C26.4116 317.49 28.2324 316.613 30.2169 315.644C29.552 314.542 28.9996 313.399 28.2324 312.45C27.2402 311.236 25.982 312.287 24.7648 312.205C26.7697 310.746 29.0303 309.848 31.2091 308.787C31.291 308.91 31.3728 309.032 31.4546 309.155C31.158 309.399 30.8818 309.665 30.5647 309.869C29.3781 310.634 29.1224 311.287 29.6338 312.634C29.9714 313.532 30.4112 314.389 30.8409 315.368C33.3368 314.144 35.7406 312.981 38.1342 311.807C39.0549 311.358 39.2083 310.563 38.8503 309.746C38.2672 308.41 37.6637 307.063 36.8761 305.839C35.7713 304.124 34.0221 303.675 32.0581 303.89C31.516 303.951 30.9739 303.961 30.4317 303.992C30.4112 303.798 30.3908 303.614 30.3703 303.42C32.6923 302.961 35.0246 302.502 37.3159 302.053C37.408 302.227 37.4898 302.339 37.4796 302.349C36.3544 303.369 37.142 304.318 37.5921 305.257C39.3413 308.869 41.1007 312.471 42.8601 316.082C42.7681 316.174 42.676 316.256 42.5839 316.348C42.3589 316.123 42.0725 315.929 41.9088 315.664C41.1314 314.409 40.4051 314.001 39.0651 314.613C34.4211 316.746 29.8282 318.98 25.2148 321.184C25.2353 321.296 25.266 321.419 25.2864 321.531C31.6285 321.531 37.9706 321.531 44.6809 321.531C40.7631 326.765 37.0807 331.693 33.2243 336.856C33.7869 336.621 34.0937 336.509 34.4006 336.366C38.0524 334.601 41.7042 332.836 45.3458 331.05C45.9186 330.765 46.5017 330.438 46.9825 330.01C47.6883 329.387 48.077 328.622 47.6371 327.622C47.5041 327.326 47.5451 326.949 47.4837 326.367C48.8237 327.632 50.7877 332.163 50.4297 332.856C48.6396 330.836 48.0974 330.724 45.5299 331.958C41.694 333.805 37.8581 335.662 34.0324 337.529C32.1195 338.458 31.9558 338.835 32.5082 340.927C32.5491 341.08 32.5798 341.243 32.5594 341.396C32.5287 341.498 32.4059 341.58 32.1707 341.876Z" fill="white"/>
<path d="M260.7 51.8727C259.022 50.4544 257.345 49.0362 255.667 47.618C255.729 47.5057 255.78 47.3935 255.841 47.2915C256.107 47.3731 256.414 47.3833 256.629 47.5363C257.805 48.3424 258.838 47.9547 259.667 47.0568C261.171 45.4447 262.592 43.7714 264.024 42.0981C265.671 40.1799 267.277 38.2311 268.924 36.3027C270.418 34.5478 270.397 33.6601 268.893 32.3643C268.822 32.3031 268.832 32.15 268.74 31.8031C269.159 31.9562 269.446 32.0072 269.671 32.1602C269.998 32.3949 270.244 32.7826 270.592 32.9561C273.19 34.2723 273.2 36.2109 272.464 38.7412C271.236 42.9959 270.377 47.3527 269.374 51.6788C269.344 51.8216 269.395 51.9849 269.415 52.2502C274.018 50.2504 278.57 48.3424 283.061 46.2711C284.585 45.5671 285.761 45.261 286.948 46.7711C287.49 47.4649 288.319 47.9138 288.994 48.5158C289.209 48.7097 289.342 49.0056 289.546 49.2913C289.27 49.4035 289.157 49.4851 289.127 49.4545C287.439 48.0567 286.569 48.1383 285.004 49.9443C281.966 53.4541 278.959 56.9946 276.003 60.5861C274.724 62.137 274.826 62.5655 276.115 64.0348C276.269 64.2082 276.31 64.4837 276.412 64.7082C276.31 64.7796 276.207 64.8408 276.105 64.9122C273.855 63.0247 271.614 61.1269 269.364 59.2393C269.395 59.1373 269.425 59.0455 269.456 58.9434C269.702 58.9638 269.988 58.9128 270.172 59.0353C271.86 60.1168 272.433 60.1168 273.711 58.6373C276.923 54.9438 280.074 51.1993 283.491 47.1792C277.435 49.832 271.707 52.3318 265.62 54.9948C266.019 51.7502 266.981 48.8933 267.635 45.9753C268.3 43.0061 269.088 40.0676 269.65 36.9863C268.423 38.4045 267.195 39.8228 265.978 41.241C264.434 43.0368 262.879 44.8121 261.365 46.6283C259.636 48.6893 259.616 49.179 260.966 51.536C260.874 51.6584 260.792 51.7706 260.7 51.8727Z" fill="white"/>
<path d="M93.8422 380.995C95.7039 382.586 97.361 384.005 99.0181 385.413C98.9567 385.525 98.8954 385.637 98.8238 385.739C98.5885 385.688 98.3328 385.688 98.118 385.586C96.5222 384.8 95.9085 384.831 94.681 386.157C93.0545 387.923 91.5202 389.78 89.9653 391.606C88.431 393.402 86.8966 395.197 85.4134 397.034C84.237 398.483 84.2779 398.901 85.4543 400.299C85.6282 400.503 85.7407 400.768 85.8737 401.003C85.7714 401.095 85.6691 401.197 85.5668 401.289C84.6769 400.574 83.8176 399.819 82.8868 399.166C81.7411 398.36 81.4342 397.514 81.8229 396.044C83.1016 391.137 84.1654 386.178 85.3008 381.229C85.3213 381.117 85.2804 380.995 85.2599 380.729C82.5492 381.913 79.8998 383.066 77.2505 384.219C74.908 385.239 72.586 386.28 70.2231 387.229C69.7934 387.402 69.0774 387.351 68.7194 387.096C67.6044 386.28 66.5917 385.321 65.5586 384.392C65.3847 384.229 65.2824 383.984 64.9653 383.494C65.4972 383.658 65.712 383.688 65.8961 383.801C67.5021 384.78 68.2386 384.719 69.5377 383.229C71.5529 380.933 73.5066 378.587 75.4809 376.25C76.4833 375.067 77.4858 373.893 78.4575 372.689C79.8794 370.924 79.8692 370.557 78.4269 368.843C78.3246 368.72 78.3143 368.516 78.2632 368.353C78.3655 368.261 78.4575 368.169 78.5598 368.088C80.7796 369.965 83.0095 371.853 85.2292 373.73C85.1576 373.853 85.0963 373.975 85.0247 374.097C84.7996 374.046 84.5439 374.046 84.37 373.934C82.7845 372.883 82.2014 372.893 80.9228 374.332C78.9997 376.495 77.138 378.709 75.2558 380.903C73.9363 382.444 72.6269 384.005 71.4097 385.719C77.1891 383.188 82.9584 380.668 89.1368 377.964C87.6228 384.168 86.201 390.024 84.7689 395.881C84.8405 395.922 84.9224 395.973 84.994 396.014C86.1805 394.657 87.3671 393.3 88.5332 391.932C90.2006 389.984 91.8475 388.014 93.5046 386.055C94.9367 384.372 94.9776 383.77 93.8319 381.893C93.7501 381.74 93.8422 381.454 93.8422 380.995Z" fill="white"/>
<path d="M334.769 147.823C332.457 148.425 330.258 148.945 328.1 149.588C326.085 150.18 325.86 150.629 326.146 152.659C326.177 152.863 326.064 153.088 326.013 153.312C325.87 153.322 325.737 153.332 325.594 153.332C324.857 150.414 324.121 147.486 323.384 144.568C323.486 144.497 323.599 144.435 323.701 144.364C323.896 144.599 324.172 144.803 324.274 145.068C324.919 146.721 325.328 147.078 327.097 146.67C331.895 145.578 336.672 144.415 341.439 143.211C342.953 142.823 343.249 142.211 343.178 140.589C343.167 140.272 343.178 139.956 343.392 139.517C343.566 139.762 343.832 139.987 343.894 140.262C344.722 143.711 345.653 147.139 346.277 150.629C346.768 153.363 345.653 156.485 342.236 157.077C340.896 157.312 339.741 156.883 338.748 156.057C338.063 155.496 337.5 154.781 336.856 154.108C333.879 155.036 329.839 160.046 329.43 163.199C329.133 165.433 329.45 167.556 330.238 169.617C331.711 173.463 335.516 175.718 340.109 175.545C340.477 175.534 340.845 175.545 341.203 175.545C341.214 175.708 341.224 175.871 341.234 176.024C340.293 176.106 339.331 176.33 338.401 176.238C332.867 175.667 329.225 172.208 328.171 166.77C326.944 160.424 329.01 155.475 334.34 151.894C335.322 151.231 335.802 150.618 335.26 149.465C335.045 148.976 334.953 148.415 334.769 147.823ZM335.68 147.619C335.843 148.425 335.935 149.057 336.099 149.68C336.477 151.098 336.917 152.496 338.165 153.424C339.751 154.587 341.797 154.536 343.484 153.343C344.998 152.271 345.571 150.323 344.988 148.19C344.385 145.986 344.19 145.69 342.666 145.976C340.354 146.415 338.063 147.047 335.68 147.619Z" fill="white"/>
<path d="M328.274 304.798C324.898 304.696 321.502 304.808 318.566 306.767C313.329 310.267 310.823 319.143 318.362 324.143C318.689 324.357 319.027 324.582 319.303 325.071C319.027 325.071 318.689 325.173 318.495 325.051C314.894 322.847 312.633 319.817 312.705 315.419C312.817 308.695 318.106 302.737 324.765 301.87C325.972 301.716 327.21 301.849 328.427 301.747C328.795 301.716 329.286 301.441 329.47 301.125C329.869 300.431 330.115 299.645 330.524 298.656C327.926 297.707 325.379 296.697 322.76 295.911C322.279 295.768 321.482 296.482 320.909 296.911C320.602 297.135 320.489 297.605 320.193 298.125C319.855 296.901 322.862 289.687 323.66 289.442C323.691 289.554 323.773 289.677 323.752 289.769C323.057 292.146 323.21 292.605 325.502 293.564C329.716 295.329 333.961 297.054 338.216 298.727C340.242 299.523 340.702 299.288 341.715 297.411C341.807 297.247 341.94 297.094 342.329 296.972C342.329 297.227 342.4 297.503 342.318 297.717C341.081 300.747 339.853 303.777 338.544 306.787C337.889 308.297 336.897 309.593 335.434 310.45C332.979 311.869 329.982 310.869 329 308.226C328.611 307.196 328.529 306.053 328.274 304.798ZM331.179 299.013C330.718 300.278 330.258 301.349 329.941 302.461C329.215 305.002 330.217 307.002 332.601 307.94C334.912 308.848 336.968 308.032 338.176 305.685C338.472 305.114 338.636 304.482 338.881 303.89C339.28 302.9 338.922 302.247 337.981 301.849C335.782 300.931 333.583 300.013 331.179 299.013Z" fill="white"/>
<path d="M24.151 134.344C26.5037 135.273 28.7439 136.212 31.025 137.028C32.4366 137.528 33.1322 137.14 33.9301 135.773C34.0733 135.518 34.3188 135.324 34.5234 135.1C34.6359 135.171 34.7484 135.242 34.8712 135.324C33.7255 138.12 32.5901 140.915 31.4444 143.711C31.3114 143.68 31.1682 143.65 31.0352 143.619C31.0557 143.323 31.0148 143.007 31.0966 142.731C31.5569 141.038 31.3216 140.364 29.6645 139.64C26.7288 138.354 23.7521 137.161 20.7754 135.946C19.3535 135.365 17.9215 134.773 16.4792 134.253C14.5049 133.538 13.9526 133.773 12.9399 135.599C12.8478 135.763 12.7046 135.885 12.3466 136.303C12.3466 135.753 12.275 135.497 12.3568 135.304C13.6457 132.141 14.9346 128.967 16.2643 125.815C16.4792 125.294 16.8269 124.815 17.1645 124.366C18.6989 122.325 20.622 121.57 22.6678 122.162C24.8568 122.805 25.982 124.366 26.1764 127.019C26.2071 127.386 26.1764 127.753 26.1764 128.314C30.309 128.263 34.4108 128.223 37.5205 125.019C40.354 122.101 41.6735 118.601 40.6609 114.51C40.0778 112.153 38.523 110.439 36.5794 109.051C36.16 108.745 35.7099 108.469 35.3519 107.898C35.6383 107.939 35.9554 107.918 36.2009 108.041C40.6302 110.326 42.9829 115.387 41.6326 120.193C40.1085 125.641 36.9068 129.6 31.0966 130.865C29.6441 131.182 28.1097 131.222 26.606 131.222C25.6956 131.222 25.1842 131.426 24.9489 132.345C24.7954 132.967 24.4783 133.538 24.151 134.344ZM23.5577 134.1C24.0487 132.365 24.7034 130.845 24.8875 129.274C25.2148 126.478 22.1972 124.111 19.4661 124.825C17.5737 125.325 15.5688 127.886 15.712 129.835C15.7529 130.335 16.2848 131.008 16.7656 131.233C18.883 132.212 21.072 133.069 23.5577 134.1Z" fill="white"/>
<path d="M11.0168 293.544C10.7406 292.452 10.4542 291.35 10.1985 290.248C9.58471 287.657 8.88913 285.065 8.41859 282.453C7.94805 279.902 8.98119 276.719 12.0499 276.035C13.8503 275.627 15.2414 276.28 16.4689 277.464C16.9599 277.933 17.3589 278.515 17.8703 279.127C21.0004 276.892 24.1203 274.648 25.0614 270.587C26.3605 264.975 23.4452 257.435 15.0778 257.547C14.5561 257.557 14.0344 257.547 13.5025 257.547C13.4718 257.445 13.4411 257.333 13.4002 257.231C13.6968 257.088 13.9935 256.864 14.3003 256.833C19.9059 256.251 24.7852 259.659 26.1866 265.128C27.8949 271.77 25.9513 277.158 20.2639 281.076C19.241 281.78 18.9035 282.402 19.3433 283.514C19.5479 284.034 19.6706 284.585 19.8548 285.218C22.1052 284.636 24.3044 284.126 26.4628 283.504C28.6109 282.881 28.9689 282.188 28.4166 279.81C28.7234 279.923 29.0815 279.953 29.1121 280.076C29.7975 282.82 30.4522 285.565 31.1068 288.32C31.1273 288.401 31.0148 288.514 30.8409 288.881C30.6261 288.401 30.4726 288.116 30.3703 287.83C29.9202 286.555 29.0099 285.932 27.7517 286.228C22.9542 287.371 18.167 288.534 13.39 289.758C11.5282 290.238 11.3134 290.697 11.4873 292.646C11.4976 292.809 11.5078 292.972 11.4976 293.136C11.4873 293.248 11.426 293.36 11.385 293.472C11.2623 293.493 11.1395 293.513 11.0168 293.544ZM19.2103 285.371C18.6273 283.759 18.2386 282.177 17.5021 280.78C16.6326 279.137 15.0062 278.606 13.2161 278.861C11.6203 279.096 10.2496 279.821 9.69723 281.463C9.1244 283.167 9.39035 284.861 10.2189 286.391C10.444 286.81 11.3339 287.197 11.8147 287.106C14.239 286.636 16.6121 285.993 19.2103 285.371Z" fill="white"/>
<path d="M333.859 201.95C333.613 199.818 333.358 197.696 333.112 195.563C333.03 194.839 332.938 194.114 332.897 193.38C332.887 193.237 333.061 193.002 333.194 192.972C333.306 192.941 333.552 193.104 333.613 193.247C334.626 195.635 334.616 195.706 337.214 195.594C339.076 195.522 340.927 195.257 342.789 195.063C343.065 195.033 343.321 194.89 343.617 194.788C343.229 191.237 342.85 187.748 342.451 184.085C341.387 184.177 340.395 184.258 339.403 184.37C337.91 184.534 336.406 184.656 334.933 184.911C333.47 185.166 332.908 185.982 332.959 187.503C332.969 187.748 332.918 188.003 332.897 188.248C332.775 188.268 332.662 188.288 332.539 188.319C332.416 187.901 332.243 187.493 332.191 187.064C331.926 184.809 331.67 182.544 331.455 180.289C331.424 179.952 331.629 179.595 331.721 179.248C331.874 179.544 332.11 179.83 332.181 180.146C332.498 181.442 333.051 182.003 334.391 181.901C337.5 181.656 340.61 181.32 343.72 181.003C345.377 180.84 347.024 180.636 348.681 180.463C350.962 180.228 351.422 179.759 351.525 177.555C351.535 177.402 351.576 177.249 351.617 177.045C351.821 177.075 352.097 177.075 352.097 177.116C352.466 180.075 352.813 183.024 353.161 185.982C353.018 186.023 352.885 186.064 352.742 186.115C352.588 185.768 352.353 185.442 352.281 185.074C352.067 183.87 351.381 183.299 350.164 183.381C347.893 183.544 345.633 183.707 343.27 183.881C343.669 187.574 344.068 191.176 344.466 194.869C346.737 194.604 348.947 194.41 351.126 194.063C352.507 193.839 352.946 193.165 352.987 191.778C352.998 191.462 353.018 191.145 353.059 190.462C353.427 190.87 353.724 191.043 353.734 191.237C353.877 193.727 353.99 196.216 354 198.716C352.977 196.869 352.629 196.941 349.704 197.165C346.062 197.451 342.431 197.92 338.799 198.328C337.961 198.42 337.112 198.543 336.283 198.757C334.698 199.165 334.401 199.624 334.462 201.267C334.473 201.512 334.391 201.756 334.35 202.001C334.176 201.981 334.012 201.971 333.859 201.95Z" fill="white"/>
<path d="M20.4685 230.958C21.2971 232.754 21.8904 239.569 21.3175 240.12C21.2562 240.079 21.1436 240.039 21.1334 239.988C20.6833 237.529 20.2026 237.192 17.5737 237.447C15.4358 237.651 13.2979 237.835 11.0168 238.039C11.4157 241.712 11.8147 245.314 12.2238 249.068C14.9857 248.691 17.6044 248.375 20.2026 247.966C21.2971 247.793 21.7062 246.956 21.7574 245.936C21.7779 245.579 21.7574 245.212 21.7574 244.844C21.9313 244.834 22.095 244.834 22.2688 244.824C22.6064 247.813 22.9337 250.793 23.2713 253.782C23.1588 253.823 23.036 253.874 22.9235 253.915C22.7905 253.731 22.5859 253.568 22.545 253.374C22.1461 251.405 21.6346 250.976 19.6604 251.129C17.5941 251.282 15.5278 251.456 13.4616 251.68C10.8736 251.956 8.28561 252.242 5.71809 252.629C3.28356 252.997 3.29378 253.068 3.14035 255.558C3.13012 255.711 3.06874 255.864 3.02783 256.027C2.30156 255.639 1.42185 248.783 1.93331 246.671C2.15835 247.364 2.32202 247.732 2.40385 248.119C2.60843 249.079 3.23241 249.711 4.17349 249.67C6.56711 249.568 8.94027 249.334 11.4362 249.14C11.0372 245.436 10.6588 241.896 10.2598 238.202C9.1244 238.294 8.05034 238.345 6.97628 238.467C5.85107 238.59 4.72586 238.763 3.60066 238.947C2.15835 239.182 1.64689 239.784 1.62643 241.232C1.6162 241.559 1.58552 241.875 1.55483 242.202C1.39116 242.202 1.2275 242.212 1.06383 242.212C0.736499 239.243 0.419395 236.284 0.0920625 233.315C0.225041 233.284 0.368249 233.254 0.501228 233.223C0.613748 233.488 0.767186 233.733 0.83879 234.009C1.32979 235.682 1.7901 236.11 3.52906 235.978C6.12726 235.784 8.71523 235.478 11.3032 235.182C13.5638 234.927 15.8347 234.713 18.0749 234.325C20.0184 233.988 20.2128 233.611 20.2332 231.611C20.223 231.437 20.356 231.254 20.4685 230.958Z" fill="white"/>
<path d="M60.6281 85.7062C60.7509 85.4409 60.843 85.1552 60.9964 84.9002C61.825 83.5738 61.8249 82.8187 60.6384 81.7984C57.5798 79.1762 54.4395 76.6356 51.3298 74.0747C50.6036 73.4829 49.8875 72.8707 49.1204 72.3401C47.7906 71.432 47.0541 71.5239 45.8879 72.6156C45.6936 72.7993 45.4481 72.9319 45.223 73.085C45.131 73.0033 45.0492 72.9217 44.9571 72.8299C45.131 72.5544 45.2742 72.2483 45.4788 71.9932C47.2484 69.8097 48.9874 67.5957 50.8286 65.4734C51.7288 64.4327 52.7517 63.4634 53.8564 62.637C58.4596 59.2087 63.9219 59.8515 67.676 64.1878C70.8675 67.8609 71.3585 71.9932 68.6887 76.1663C66.9498 78.8905 64.7505 81.3393 62.7456 83.9003C62.2034 84.5941 61.6101 85.2573 61.0373 85.9307C60.9043 85.8695 60.7611 85.7878 60.6281 85.7062ZM57.2321 62.7288C54.91 62.79 52.6699 64.4225 50.8593 66.7692C49.55 68.4629 49.6932 69.1772 51.3708 70.524C53.0586 71.8708 54.7157 73.2482 56.3933 74.6052C58.4186 76.2479 60.4338 77.8906 62.4796 79.5027C63.1343 80.0231 63.9117 80.4618 64.6993 79.819C66.96 77.9722 68.6478 75.7174 68.5557 72.6768C68.4125 67.8201 62.9092 62.7288 57.2321 62.7288Z" fill="white"/>
<path d="M294.057 347.437C294.016 347.528 293.975 347.63 293.914 347.722C292.727 349.498 292.809 350.294 294.436 351.661C296.369 353.283 298.343 354.854 300.297 356.456C301.657 357.558 302.987 358.691 304.368 359.772C306.936 361.772 306.946 361.752 309.462 359.844C309.493 360.109 309.616 360.395 309.524 360.497C306.455 364.017 304.082 368.169 300.103 370.832C296.942 372.944 293.515 373.414 290.119 371.404C286.59 369.322 284.247 366.333 284.329 362.037C284.391 358.854 286.027 356.273 287.981 353.875C289.679 351.793 291.398 349.732 293.126 347.671C293.31 347.457 293.597 347.335 293.842 347.171C293.924 347.263 293.986 347.345 294.057 347.437ZM286.017 360.201C286.058 360.456 286.089 360.813 286.16 361.17C286.764 364.425 288.779 366.69 291.408 368.486C293.29 369.771 295.326 370.557 297.699 370.19C300.624 369.741 302.599 368.006 304.215 365.69C304.921 364.67 304.808 363.823 303.846 363.037C301.79 361.364 299.755 359.67 297.699 357.997C295.991 356.599 294.303 355.191 292.574 353.834C291.776 353.201 290.835 352.457 289.833 353.273C287.684 355.038 286.16 357.191 286.017 360.201Z" fill="white"/>
<path d="M278.478 393.708C277.946 394.147 277.445 394.616 276.893 395.034C274.223 397.044 274.223 397.003 270.96 396.218C265.334 394.871 259.698 393.555 253.836 392.177C255.831 394.861 257.682 397.371 259.554 399.87C260.117 400.615 260.659 401.391 261.273 402.085C262.623 403.605 263.441 403.717 265.221 402.768C265.538 402.595 265.907 402.513 266.254 402.391C266.316 402.513 266.377 402.636 266.439 402.748C264.454 404.217 262.47 405.696 260.485 407.166C260.403 407.104 260.322 407.053 260.24 406.992C260.311 406.768 260.322 406.492 260.465 406.319C261.529 404.982 261.621 404.135 260.618 402.738C258.961 400.421 257.232 398.167 255.524 395.881C253.898 393.698 252.271 391.504 250.655 389.31C250.491 389.096 250.379 388.851 250.041 388.29C258.02 390.126 265.682 391.902 273.64 393.738C271.88 391.371 270.305 389.229 268.709 387.096C267.594 385.596 266.469 384.096 265.334 382.607C264.024 380.903 262.961 380.689 261.007 381.689C260.772 381.811 260.495 381.862 260.158 381.77C262.071 380.107 263.953 378.464 266.234 377.158C265.815 378.291 265.201 379.179 265.262 380.005C265.324 380.893 265.927 381.801 266.479 382.566C269.016 386.055 271.604 389.504 274.192 392.953C275.317 394.453 275.87 394.544 277.588 393.636C277.803 393.524 278.069 393.494 278.304 393.422C278.355 393.514 278.417 393.606 278.478 393.708Z" fill="white"/>
<path d="M257.938 40.9655C256.035 42.8531 254.123 44.7305 252.179 46.6589C252.22 46.6895 252.046 46.5976 252.056 46.567C252.506 45.1488 251.381 44.8223 250.502 44.3223C247.32 42.5266 244.139 40.7206 240.968 38.9147C240.6 38.7106 240.272 38.4352 239.925 38.2005C239.965 38.0882 240.006 37.9862 240.047 37.874C240.334 37.9352 240.641 37.9658 240.907 38.078C242.513 38.7617 243.014 38.6698 243.975 37.2312C244.855 35.915 245.612 34.5274 246.502 33.0479C244.599 31.9562 242.738 30.895 240.876 29.8543C240.692 29.7523 240.375 29.6911 240.191 29.7727C238.728 30.4665 237.204 31.0889 235.843 31.946C234.329 32.9051 234.35 33.8029 235.618 35.0681C235.772 35.2212 235.884 35.4252 236.048 35.6599C234.83 35.6803 229.603 32.6092 229.389 31.7011C231.966 32.6602 234.155 31.4664 236.344 30.5073C241.029 28.4565 245.684 26.3342 250.328 24.1916C250.9 23.9263 251.79 23.2835 251.739 22.9366C251.637 22.2836 250.982 21.702 250.512 21.1409C250.276 20.8654 249.929 20.6817 249.632 20.4675C249.724 20.3246 249.816 20.1818 249.898 20.0287C252.772 21.651 255.647 23.2733 258.521 24.8956C258.501 25.0078 258.49 25.1303 258.47 25.2425C258.184 25.2221 257.836 25.2935 257.601 25.1711C255.749 24.1508 254.972 24.1508 253.662 26.3751C251.258 30.4665 248.916 34.5988 246.584 38.731C245.817 40.0983 245.99 40.69 247.3 41.5777C247.504 41.7104 247.709 41.8328 247.924 41.9654C251.995 44.4142 253.202 44.3121 256.823 41.2512C257.099 41.0165 257.478 40.8941 257.815 40.7206C257.867 40.8023 257.897 40.8839 257.938 40.9655ZM250.962 25.1711C250.89 25.0997 250.819 25.0385 250.757 24.967C247.709 26.3547 244.65 27.7423 241.408 29.2217C243.362 30.3339 245.08 31.3032 246.87 32.3133C248.272 29.8747 249.612 27.5178 250.962 25.1711Z" fill="white"/>
<path d="M100.778 40.7717C98.8442 38.1699 97.1155 35.8232 95.3765 33.4764C94.773 32.6602 94.1695 31.8439 93.5353 31.0481C92.3385 29.5278 91.1621 29.3136 89.4846 30.2216C89.1674 30.3951 88.7992 30.4971 88.3594 30.4359C90.2006 28.732 92.1237 27.2015 94.2104 25.8853C94.2923 25.9873 94.3741 26.0792 94.4559 26.1812C94.3945 26.324 94.3741 26.4771 94.282 26.5893C93.0852 28.0382 93.0136 28.783 94.149 30.3747C95.8573 32.752 97.627 35.0885 99.3761 37.4352C101.084 39.7412 102.803 42.0471 104.511 44.353C104.46 44.455 104.409 44.557 104.358 44.6591C96.6859 42.8939 89.0038 41.1186 81.0353 39.282C83.9506 43.1898 86.6409 46.8629 89.4027 50.4646C90.8041 52.291 91.6122 52.3624 93.699 51.2809C93.924 51.1584 94.2002 51.1176 94.681 50.9646C93.8626 52.342 89.147 55.6886 88.39 55.5968C88.3798 55.5254 88.3287 55.4131 88.3594 55.3723C89.8733 53.4745 89.9142 52.7297 88.4616 50.7401C85.7918 47.0976 83.1016 43.4755 80.4011 39.8636C79.3679 38.476 78.6724 38.4556 76.3401 39.833C76.4526 39.3534 76.4322 38.9963 76.5958 38.8739C77.6801 38.0168 78.7849 37.1802 79.9408 36.4047C80.2169 36.2211 80.6977 36.1905 81.0353 36.2721C87.183 37.6801 93.3205 39.1188 99.4682 40.5472C99.7751 40.6186 100.113 40.6594 100.778 40.7717Z" fill="white"/>
<path d="M114.495 395.187C114.167 395.085 113.83 395.004 113.513 394.861C112.449 394.361 111.498 394.473 110.833 395.483C109.902 396.901 109.032 398.371 108.071 399.922C110.045 401.044 111.938 402.125 113.85 403.176C114.045 403.289 114.393 403.268 114.607 403.176C115.937 402.574 117.287 402.003 118.546 401.279C120.285 400.268 120.356 399.391 118.996 397.962C118.863 397.83 118.781 397.646 118.699 397.473C118.679 397.422 118.75 397.33 118.852 397.044C121.062 398.309 123.251 399.554 125.43 400.799C125.389 400.911 125.338 401.013 125.297 401.125C125.154 401.166 124.99 401.278 124.877 401.238C122.75 400.483 120.878 401.391 119.037 402.197C114.065 404.37 109.125 406.605 104.194 408.859C103.652 409.104 102.813 409.706 102.864 410.033C102.956 410.655 103.55 411.227 104.01 411.757C104.255 412.043 104.654 412.186 104.982 412.686C104.746 412.716 104.44 412.859 104.276 412.767C101.555 411.247 98.8442 409.696 96.1335 408.145C96.1642 408.023 96.1846 407.89 96.2153 407.768C96.512 407.798 96.8393 407.757 97.095 407.87C99.1818 408.808 99.8467 408.666 100.962 406.727C103.335 402.625 105.677 398.503 107.999 394.371C108.859 392.851 108.695 392.33 107.222 391.392C106.639 391.024 106.025 390.688 105.422 390.361C102.588 388.82 100.634 389.127 98.1589 391.463C97.7906 391.81 97.3508 392.096 96.9416 392.412C96.8598 392.3 96.7882 392.198 96.7063 392.085C98.6806 390.229 100.665 388.382 102.465 386.698C102.097 388.106 103.642 388.341 104.644 388.933C107.652 390.698 110.71 392.392 113.738 394.116C114.065 394.3 114.372 394.534 114.689 394.738C114.618 394.912 114.556 395.055 114.495 395.187ZM107.703 400.697C106.271 403.207 104.91 405.594 103.366 408.308C106.843 406.727 109.994 405.299 113.226 403.829C111.344 402.758 109.585 401.768 107.703 400.697Z" fill="white"/>
<path d="M222.423 8.30534C222.995 8.36656 223.302 8.34615 223.558 8.44818C226.279 9.4787 229.041 10.4276 231.69 11.6214C232.989 12.2029 234.227 13.111 235.229 14.1211C236.897 15.8046 236.927 17.8963 236.007 19.9879C235.096 22.0693 233.439 23.1305 231.168 23.3243C228.693 23.5386 226.432 22.8856 224.09 21.5694C223.374 23.6508 222.627 25.6404 222.013 27.6607C221.758 28.5075 222.167 29.2421 223.006 29.6707C223.527 29.936 224.028 30.2216 224.632 30.5481C223.742 30.9257 216.346 28.2524 215.375 27.2219C215.825 27.2525 216.121 27.2219 216.398 27.2933C218.034 27.6811 218.566 27.528 219.221 26.0282C220.06 24.1304 220.745 22.1714 221.492 20.2328C222.443 17.7636 223.394 15.2945 224.305 12.8151C225.133 10.55 224.97 10.1725 222.934 8.92773C222.811 8.85631 222.729 8.68286 222.423 8.30534ZM224.427 20.845C225.062 21.1715 225.614 21.5082 226.197 21.753C229.174 22.9774 232.079 21.651 233.265 18.5289C234.472 15.3761 233.347 12.9682 230.115 11.805C228.55 11.2438 228.008 11.4581 227.404 13.009C226.422 15.5496 225.461 18.1207 224.427 20.845Z" fill="white"/>
<path d="M21.6142 202.634C18.9648 202.603 16.4587 203.011 14.0037 202.491C14.0037 202.348 13.9935 202.216 13.9935 202.073C14.7197 201.879 15.4665 201.705 16.1825 201.491C19.865 200.359 21.6756 197.573 21.0311 194.012C20.7038 192.206 19.6706 190.982 17.8396 190.584C16.162 190.217 14.8527 190.951 13.9832 192.319C13.124 193.676 12.4898 195.186 11.6715 196.583C10.8736 197.941 10.1371 199.4 9.08348 200.542C7.00696 202.787 3.48814 202.43 1.6162 200.012C-0.173896 197.696 -0.153437 195.135 0.521687 192.472C0.593291 192.196 0.685353 191.931 0.777415 191.655C1.26841 190.145 1.26841 190.145 0 188.931C2.32202 188.584 4.6338 188.237 6.95582 187.89C7.01719 188.013 7.06834 188.146 7.12971 188.268C6.87399 188.441 6.63872 188.656 6.36253 188.799C5.32939 189.339 4.19395 189.737 3.25287 190.411C1.26841 191.819 0.398937 194.859 1.20704 197.083C2.02537 199.349 4.86907 200.134 6.56711 198.43C7.48773 197.502 8.13217 196.267 8.78683 195.114C9.6154 193.665 10.2394 192.104 11.1293 190.696C12.3363 188.788 14.1265 187.666 16.4587 187.911C19.2922 188.207 20.98 189.972 21.7267 192.614C22.3507 194.859 22.2075 197.114 21.2459 199.267C20.7345 200.399 19.599 201.563 21.6142 202.634Z" fill="white"/>
<path d="M130.595 411.369C131.26 409.482 131.895 407.788 132.447 406.064C132.969 404.441 132.641 403.809 131.107 403.054C130.749 402.88 130.432 402.635 130.094 402.421C130.176 402.278 130.248 402.136 130.33 401.993C133.296 403.105 136.252 404.227 139.219 405.339C139.188 405.482 139.157 405.625 139.137 405.758C138.809 405.737 138.462 405.747 138.145 405.676C136.682 405.36 135.956 405.543 135.434 406.849C133.572 411.573 131.751 416.318 130.033 421.093C129.501 422.583 129.9 423.134 131.332 423.899C131.588 424.031 131.813 424.215 132.048 424.368C131.997 424.48 131.956 424.593 131.905 424.705C131.598 424.644 131.271 424.623 130.984 424.511C128.325 423.521 125.624 422.623 123.036 421.47C121.737 420.889 120.499 419.991 119.476 418.981C117.922 417.45 117.768 415.481 118.464 413.461C119.17 411.4 120.663 410.247 122.77 409.757C125.123 409.217 127.251 409.921 129.378 410.778C129.736 410.931 130.084 411.125 130.595 411.369ZM130.37 411.9C128.744 411.502 127.261 410.778 125.818 410.869C123.108 411.033 121.144 413.298 120.908 415.92C120.673 418.614 121.993 420.338 124.918 421.348C126.003 421.726 126.657 421.43 127.046 420.43C128.13 417.716 129.174 414.981 130.37 411.9Z" fill="white"/>
<path d="M347.351 282.943C344.998 282.943 342.687 282.943 340.385 282.943C340.334 282.81 340.293 282.688 340.242 282.555C340.702 282.382 341.152 282.096 341.633 282.035C344.599 281.657 346.707 279.861 347.484 276.984C347.985 275.107 347.423 273.433 346.021 272.587C344.446 271.648 342.799 271.821 341.428 273.403C339.894 275.178 338.615 277.178 337.132 279.004C335.097 281.494 332.345 282.208 329.88 281.014C327.527 279.872 326.064 276.433 326.617 273.586C326.985 271.719 327.65 270.026 328.806 268.516C329.307 267.852 329.767 267.097 328.601 266.536C328.499 266.485 328.529 266.179 328.488 265.985C330.596 265.822 335.526 266.985 335.782 267.658C334.288 267.965 332.744 268.128 331.302 268.618C328.335 269.628 326.76 273.117 327.772 276.076C328.693 278.77 331.987 279.657 333.961 277.596C335.383 276.117 336.518 274.352 337.807 272.729C339.025 271.199 340.211 269.648 342.329 269.26C345.735 268.638 347.903 271.352 348.374 273.729C348.855 276.158 348.128 278.28 346.993 280.331C346.553 281.127 345.991 281.892 347.31 282.422C347.361 282.463 347.331 282.728 347.351 282.943Z" fill="white"/>
<path d="M202.271 430.919C202.097 430.715 201.872 430.531 201.76 430.296C200.962 428.613 200.174 426.929 199.417 425.225C199.315 425.001 199.417 424.695 199.427 424.429C199.673 424.572 200 424.644 200.133 424.848C201.412 426.807 203.048 428.245 205.463 428.49C207.14 428.664 208.726 428.296 209.984 427.133C211.631 425.623 211.232 422.797 209.104 421.817C207.662 421.154 206.025 420.93 204.45 420.552C203.274 420.277 202.056 420.144 200.89 419.848C198.21 419.154 196.502 417.491 196.338 414.665C196.195 412.063 197.566 410.196 199.785 408.941C202.067 407.645 204.521 407.237 207.069 407.849C208.245 408.135 208.756 407.747 208.818 406.533C209.002 406.4 209.186 406.268 209.37 406.135C209.411 406.421 209.411 406.707 209.483 406.982C210.045 408.961 210.628 410.931 211.17 412.91C211.232 413.135 211.037 413.43 210.956 413.685C210.741 413.512 210.434 413.379 210.311 413.145C209.114 411.033 207.662 409.257 205.145 408.655C201.903 407.88 198.537 410.298 198.67 413.379C198.732 415.012 199.693 416.073 201.136 416.522C202.742 417.022 204.45 417.226 206.107 417.593C207.365 417.879 208.634 418.124 209.841 418.552C211.743 419.226 212.95 420.532 213.186 422.634C213.431 424.786 212.541 426.409 210.894 427.694C208.91 429.245 206.598 429.49 204.184 429.337C203.192 429.276 202.251 429.276 202.65 430.908C202.547 430.929 202.414 430.929 202.271 430.919Z" fill="white"/>
<path d="M40.221 90.4303C38.7582 90.5017 37.3773 90.4303 36.0475 90.6547C33.613 91.0526 31.5978 93.1239 31.158 95.5012C30.9329 96.746 31.2705 97.8683 32.2627 98.6846C33.347 99.5722 34.6563 99.8885 35.8941 99.2151C37.2034 98.5009 38.3695 97.5316 39.6072 96.6746C40.9063 95.7665 42.1338 94.736 43.5148 93.9809C45.5299 92.879 47.6269 93.0014 49.4681 94.4197C51.381 95.8889 52.005 97.9806 51.6367 100.297C51.2173 102.909 49.9898 105.092 47.811 106.725C46.4199 107.765 46.4096 107.959 47.3302 109.428C46.9109 109.388 46.604 109.428 46.3687 109.316C44.5684 108.48 42.7681 107.633 40.9882 106.745C40.7529 106.633 40.6302 106.306 40.4563 106.082C40.7427 106.021 41.0291 105.908 41.3053 105.908C42.8294 105.949 44.4047 106.296 45.8573 106.021C48.8135 105.459 50.6547 102.735 50.4501 99.7253C50.2967 97.4296 47.8826 95.6543 45.7652 96.5521C44.1899 97.2153 42.8192 98.3683 41.3871 99.358C40.3131 100.093 39.3413 100.97 38.2365 101.654C36.3032 102.858 34.2676 103.154 32.2934 101.735C30.1964 100.225 29.7054 98.0724 30.1862 95.6645C30.5851 93.634 31.741 92.0219 33.1833 90.5833C33.7255 90.0323 34.6052 89.4712 33.4595 88.6345C33.4391 88.6141 33.7357 88.0427 33.7971 88.0631C35.8941 88.6753 37.9808 89.3181 40.0573 89.9813C40.1596 89.9915 40.1698 90.2466 40.221 90.4303Z" fill="white"/>
<path d="M321.635 344.794C320.929 344.835 320.54 344.957 320.213 344.865C318.536 344.396 316.868 343.896 315.211 343.355C314.935 343.264 314.73 342.947 314.495 342.743C314.771 342.651 315.047 342.509 315.324 342.488C316.684 342.386 318.126 342.539 319.405 342.172C321.758 341.498 323.047 339.662 323.527 337.336C323.977 335.152 321.533 333.04 319.344 333.591C317.267 334.111 315.937 335.713 314.301 336.897C312.93 337.887 311.518 338.948 309.943 339.488C306.496 340.662 303.069 338.019 302.957 334.336C302.854 330.999 304.317 328.398 306.833 326.316C307.549 325.724 308.705 325.245 307.478 324.082C307.427 324.031 307.488 323.735 307.57 323.684C307.703 323.602 307.928 323.582 308.071 323.643C309.984 324.531 311.887 325.429 313.779 326.357C313.963 326.449 314.035 326.765 314.157 326.979C313.922 327.061 313.687 327.224 313.462 327.204C312.214 327.102 310.966 326.857 309.718 326.857C306.332 326.847 303.437 330.591 304.225 333.877C304.767 336.111 307.304 337.427 309.421 336.325C311.027 335.489 312.429 334.264 313.892 333.173C315.518 331.958 317.042 330.591 319.211 330.448C322.095 330.255 324.448 332.479 324.571 335.377C324.683 338.203 323.476 340.396 321.512 342.264C320.704 343.008 320.121 343.713 321.635 344.794Z" fill="white"/>
<path d="M6.85353 150.067C9.66654 150.067 11.9374 150.067 14.1981 150.067C14.239 150.19 14.2901 150.312 14.331 150.435C14.0753 150.567 13.8298 150.771 13.5536 150.833C11.4771 151.241 9.54379 151.873 8.22423 153.7C7.23201 155.057 6.89444 156.577 7.0888 158.199C7.36498 160.526 10.3826 161.852 12.275 160.352C13.4616 159.414 14.3413 158.077 15.3233 156.893C16.3666 155.638 17.2259 154.22 18.4022 153.118C21.7574 149.986 26.9333 151.659 27.8949 156.149C28.4677 158.812 27.9563 161.311 26.4935 163.607C25.8184 164.668 24.4988 165.637 26.2889 167.015C23.6702 166.719 21.1948 166.464 18.8012 165.77C18.8114 165.586 18.8216 165.403 18.8319 165.229C19.5274 165.158 20.2128 165.066 20.9084 165.035C24.5704 164.852 27.1584 162.168 27.1686 158.546C27.1788 156.72 26.1764 155.118 24.6932 154.547C23.077 153.924 21.5017 154.302 20.2026 155.822C19.149 157.057 18.2693 158.434 17.277 159.73C16.6633 160.536 16.0188 161.332 15.3335 162.077C13.9219 163.597 12.1829 164.219 10.1473 163.668C7.99919 163.076 6.88421 161.485 6.33184 159.444C5.76924 157.363 6.38299 155.434 7.18086 153.526C7.63094 152.435 9.10394 151.363 6.85353 150.067Z" fill="white"/>
<path d="M145.315 26.5791C144.609 24.212 143.934 21.9163 143.249 19.6104C143.321 19.5084 143.392 19.4063 143.474 19.3145C143.76 19.4982 144.108 19.6206 144.313 19.8757C145.182 20.9368 145.888 22.1714 146.88 23.0999C149.049 25.1303 152.915 24.8242 154.91 22.6305C156.598 20.7736 156.434 17.3147 153.478 16.4984C151.187 15.8659 148.803 15.5496 146.481 14.9986C144.026 14.4272 141.97 13.3559 141.449 10.5398C141.07 8.5196 141.827 6.94833 143.29 5.65253C145.172 3.98942 147.453 3.53028 149.888 3.66292C150.839 3.71394 151.964 4.11186 152.036 2.52017C152.322 2.57119 152.783 2.54058 152.854 2.69362C153.785 4.5812 154.654 6.48919 155.544 8.39717C155.452 8.4992 155.37 8.59103 155.278 8.69306C154.972 8.42778 154.593 8.20331 154.368 7.87681C152.915 5.77497 151.033 4.38734 148.384 4.50978C147.443 4.55059 146.471 4.86689 145.602 5.25461C144.405 5.78517 143.75 6.78507 143.75 8.1625C143.75 9.59093 144.282 10.8255 145.622 11.3051C147.289 11.8866 149.049 12.2131 150.788 12.5396C152.875 12.9376 154.992 13.213 156.629 14.7231C159.421 17.2943 158.767 21.5898 155.289 23.8447C153.048 25.2935 150.573 25.62 148.026 25.2017C146.88 25.018 146.021 24.865 145.816 26.324C145.776 26.3853 145.591 26.4261 145.315 26.5791Z" fill="white"/>
<path d="M72.2587 56.0355C74.9183 53.6888 75.4502 52.9644 73.3737 50.4748C73.568 50.3932 73.8442 50.2198 73.8953 50.2708C75.5729 51.9441 77.2198 53.6378 78.7542 55.505C77.5267 55.3519 76.739 53.7194 75.3786 54.5969C74.3659 55.2499 73.4759 56.107 72.3814 56.9946C74.4989 59.1169 76.4731 61.1473 78.5291 63.0961C78.7746 63.3308 79.6339 63.3002 79.9101 63.0553C81.2399 61.8615 82.6003 60.6677 83.6744 59.2597C84.9428 57.5966 84.2575 55.7805 83.5107 54.0561C83.3778 53.7398 83.388 53.3623 83.3368 53.0154C83.4903 52.9848 83.6335 52.9542 83.7869 52.9236C84.9224 55.005 86.0476 57.0967 87.183 59.1781C87.1216 59.3005 87.0602 59.423 86.9989 59.5454C85.6691 58.4231 85.0656 59.4944 84.3495 60.178C81.6388 62.7798 78.9485 65.3918 76.2378 67.9834C75.9616 68.2385 75.5831 68.3915 75.2558 68.5854C75.1842 68.4731 75.1126 68.3609 75.041 68.2385C75.1842 68.0548 75.3172 67.8712 75.4604 67.6977C76.5856 66.3713 76.5754 65.4836 75.3888 64.1674C74.3761 63.0451 73.343 61.9533 72.2996 60.8616C70.2128 58.6781 68.1261 56.5049 66.0087 54.352C64.1777 52.4848 63.4718 52.4644 61.1601 53.9541C61.3033 53.648 61.3749 53.2603 61.5999 53.046C63.9935 50.7095 66.4178 48.4036 68.8217 46.0773C69.1797 45.7406 69.5275 45.4039 69.8753 45.057C70.4277 44.506 71.113 43.9754 70.1412 42.9959C72.2996 43.6489 73.9567 44.9549 75.7673 45.9651C75.9309 46.0569 75.9207 46.4344 75.9514 46.5058C74.3454 46.2609 72.8213 45.71 71.3892 45.8936C69.149 46.1895 67.8601 48.0873 66.6224 49.7912C66.4178 50.0769 66.7861 51.0768 67.1748 51.4543C68.7603 53.0256 70.4788 54.4643 72.2587 56.0355Z" fill="white"/>
<path d="M332.979 230.723C334.176 229.764 340.17 230.04 340.549 230.886C339.239 231.366 337.889 231.774 336.621 232.345C333.9 233.59 332.877 236.835 333.787 239.6C334.288 241.13 335.26 242.151 336.968 242.416C338.687 242.681 339.945 241.967 340.794 240.59C341.602 239.284 342.216 237.855 342.973 236.508C343.669 235.284 344.354 234.029 345.193 232.907C347.341 230.04 351.811 230.499 353.652 233.855C353.785 234.1 353.98 234.376 353.969 234.631C353.867 237.09 353.683 239.549 353.611 242.008C353.591 242.722 353.847 243.436 353.98 244.212C352.916 244.395 351.852 244.589 350.778 244.742C349.745 244.885 348.712 244.977 347.678 245.099C347.627 244.956 347.576 244.824 347.515 244.681C347.863 244.487 348.19 244.222 348.558 244.12C350.092 243.681 351.381 242.885 352.384 241.64C353.489 240.273 353.908 238.682 353.714 236.978C353.54 235.457 352.701 234.335 351.167 233.876C349.724 233.447 348.139 233.978 347.218 235.386C346.42 236.6 345.847 237.957 345.172 239.243C344.64 240.243 344.149 241.273 343.546 242.232C342.083 244.508 339.996 245.609 337.296 245.028C334.8 244.487 333.501 242.63 332.908 240.294C332.273 237.814 332.539 235.386 333.746 233.1C334.278 232.101 334.646 231.182 332.979 230.723Z" fill="white"/>
<path d="M128.263 19.8961C129.521 19.2635 130.708 18.8146 131.721 18.1207C132.917 17.2943 132.017 15.8965 132.283 14.7537C133.388 17.0392 134.37 19.2737 135.035 21.9367C134.002 20.9062 133.316 19.641 132.508 19.5492C131.23 19.4063 129.869 20.0491 128.447 20.3858C129.429 23.0795 130.319 25.5894 131.271 28.079C131.618 28.9871 132.222 29.4564 133.286 29.0177C134.145 28.6606 135.066 28.4565 135.935 28.13C138.769 27.0689 139.761 25.6302 139.802 22.6101C139.802 22.2122 139.802 21.8245 139.802 21.3755C140.579 21.6612 141.254 26.5281 140.886 28.5993C139.566 26.9158 138.278 28.1912 137.05 28.6095C133.521 29.8033 130.033 31.1093 126.32 32.1806C126.473 31.9766 126.575 31.6909 126.78 31.5685C128.499 30.589 128.836 30.1196 128.233 28.3647C126.637 23.7325 124.959 19.1308 123.241 14.5394C122.668 13.0192 121.972 12.7947 120.336 13.1824C120.07 13.2437 119.794 13.2437 119.528 13.2743C119.476 13.1824 119.435 13.0804 119.384 12.9886C119.742 12.7845 120.08 12.509 120.458 12.3764C123.916 11.1214 127.394 9.88682 130.861 8.63184C131.598 8.36656 132.559 8.1931 131.956 6.97893C133.163 7.14218 136.222 11.6418 135.669 12.7539C135.229 12.2029 134.871 11.703 134.462 11.254C133.081 9.74398 131.404 9.35626 129.481 10.0399C128.642 10.3358 127.803 10.6214 126.964 10.9275C125.839 11.3255 125.471 12.1009 125.87 13.2232C126.606 15.3455 127.384 17.4677 128.263 19.8961Z" fill="white"/>
<path d="M226.248 412.645C225.276 409.992 224.427 407.604 223.517 405.237C222.985 403.86 222.504 403.666 221.062 404.125C220.172 404.401 219.292 404.697 218.423 405.033C215.784 406.064 214.894 407.38 214.884 410.216C214.884 410.696 214.884 411.176 214.884 411.778C214.567 411.675 214.249 411.645 214.249 411.573C214.024 409.237 213.82 406.9 213.799 404.441C214.618 405.849 215.579 405.217 216.479 404.89C220.019 403.615 223.558 402.319 227.097 401.044C227.486 400.901 227.905 400.84 228.304 400.738C228.355 400.84 228.407 400.952 228.458 401.054C228.13 401.268 227.824 401.523 227.476 401.697C226.228 402.36 225.87 402.952 226.32 404.248C227.956 408.941 229.603 413.624 231.342 418.277C232.048 420.154 233.01 420.409 234.452 419.838C234.667 419.746 234.943 419.807 235.188 419.787C235.229 419.899 235.27 420.001 235.311 420.113C234.994 420.266 234.697 420.45 234.37 420.573C230.841 421.868 227.302 423.144 223.783 424.46C223.19 424.674 222.116 424.603 222.678 425.807C222.433 425.878 222.013 426.082 221.972 426.011C220.817 424.389 219.691 422.746 218.597 421.093C218.535 421.011 218.72 420.766 218.924 420.297C219.589 421.032 220.09 421.664 220.663 422.215C221.799 423.297 223.21 423.48 224.652 423.164C225.706 422.93 226.698 422.419 227.742 422.093C228.959 421.705 229.184 420.848 228.816 419.797C228.079 417.665 227.281 415.563 226.514 413.461C223.108 413.747 221.952 415.134 222.719 418.165C222.433 418.093 222.064 418.093 222.024 417.981C221.246 415.9 220.51 413.808 219.783 411.716C219.742 411.604 219.845 411.441 219.855 411.39C220.694 412.124 221.441 413.318 222.351 413.461C223.517 413.624 224.816 412.971 226.248 412.645Z" fill="white"/>
<path d="M284.534 390.29C281.445 388.974 278.816 387.127 278.795 386.208C279.43 386.464 280.013 386.708 280.606 386.933C282.672 387.719 284.391 387.117 285.976 385.688C288.892 383.066 288.912 383.015 286.211 380.219C285.076 379.046 283.971 377.852 282.734 376.556C282.038 377.23 281.373 377.811 280.79 378.464C279.716 379.678 279.726 380.485 280.708 381.801C280.892 382.056 280.954 382.393 281.076 382.688C280.759 382.535 280.371 382.454 280.135 382.219C278.877 380.944 277.639 379.638 276.422 378.321C276.197 378.077 276.085 377.74 275.86 377.332C277.005 377.832 278.079 378.75 278.806 378.526C280.043 378.138 281.066 377.046 282.324 376.148C280.227 374.006 278.315 372.026 276.371 370.077C275.757 369.465 275.051 369.506 274.417 370.098C273.486 370.955 272.535 371.791 271.655 372.7C270.152 374.24 269.947 376.026 270.755 377.975C271.001 378.566 271.226 379.158 271.563 380.005C271.134 379.893 270.796 379.893 270.725 379.76C269.681 377.883 268.658 375.995 267.656 374.097C267.605 373.995 267.707 373.801 267.768 373.495C268.761 374.505 269.385 373.781 270.029 373.169C272.832 370.486 275.614 367.792 278.427 365.119C278.724 364.843 279.102 364.649 279.44 364.425C279.511 364.517 279.583 364.608 279.644 364.7C279.573 364.833 279.542 365.006 279.43 365.088C277.813 366.363 278.141 367.7 279.522 369.139C282.549 372.291 285.577 375.434 288.605 378.577C288.912 378.893 289.26 379.189 289.618 379.464C290.815 380.413 291.295 380.403 292.513 379.485C292.779 379.281 293.106 379.138 293.403 378.974C293.474 379.066 293.546 379.158 293.617 379.25C293.433 379.474 293.27 379.719 293.065 379.923C290.569 382.331 288.063 384.729 285.577 387.147C284.749 387.933 283.501 388.565 284.534 390.29Z" fill="white"/>
<path d="M306.649 69.4322C307.457 69.5853 311.365 74.8501 312.316 77.0948C311.866 76.8601 311.57 76.7887 311.385 76.605C309.984 75.1664 309.36 75.0235 307.723 76.1153C304.982 77.9314 302.271 79.8088 299.581 81.7066C298.855 82.2167 298.2 82.8595 297.637 83.5431C295.868 85.7062 295.786 88.0529 297.331 90.2364C299.151 92.8178 301.299 93.6238 304.051 92.6137C305.217 92.1852 306.353 91.5832 307.396 90.9098C309.513 89.5426 311.58 88.0835 313.646 86.6347C315.896 85.0634 316.101 84.2676 314.996 81.7372C314.955 81.6454 314.986 81.5229 314.986 81.4005C315.886 81.5944 319.282 86.3796 319.282 87.3999C319.241 87.4101 319.18 87.4305 319.17 87.4101C317.318 85.4511 315.59 86.3082 313.82 87.5836C311.672 89.1243 309.534 90.6955 307.263 92.0321C305.821 92.879 304.204 93.5014 302.578 93.9401C301.074 94.3585 299.601 93.8279 298.302 92.9708C295.438 91.1037 293.464 87.0428 294.057 84.2268C294.497 82.1249 295.939 80.7373 297.586 79.5639C300.266 77.6457 303.018 75.8194 305.718 73.9216C307.672 72.5442 307.805 71.8504 306.69 69.7587C306.649 69.7077 306.67 69.6159 306.649 69.4322Z" fill="white"/>
<path d="M180.135 410.982C182.519 410.982 184.892 410.982 187.275 410.982C187.337 411.073 187.398 411.165 187.459 411.257C184.145 412.104 183.889 415.073 182.897 417.491C181.578 420.746 180.381 424.052 179.133 427.337C178.417 429.225 178.417 429.225 179.03 431.265C178.642 431.51 178.222 431.755 177.834 432.031C177.445 432.296 177.087 432.602 176.565 433C175.553 430.459 174.611 428.082 173.67 425.695C172.249 422.083 170.878 418.461 169.405 414.879C168.832 413.492 168.402 411.869 166.449 411.686C166.377 411.675 166.336 411.349 166.265 411.084C169.108 411.084 171.86 411.084 174.611 411.084C174.652 411.186 174.683 411.298 174.724 411.4C174.397 411.512 174.08 411.696 173.742 411.737C172.443 411.92 171.962 412.594 172.3 413.849C173.374 417.869 173.374 417.869 177.496 417.869C178.928 417.869 180.35 417.869 181.884 417.869C182.294 416.726 182.733 415.614 183.081 414.471C183.562 412.89 182.938 411.982 181.291 411.737C180.872 411.675 180.473 411.553 180.064 411.451C180.084 411.288 180.115 411.135 180.135 410.982ZM177.936 428.286C179.194 424.95 180.37 421.858 181.526 418.807C179.051 418.807 176.688 418.807 174.172 418.807C175.45 422.021 176.647 425.042 177.936 428.286Z" fill="white"/>
<path d="M174.673 22.0081C172.126 22.0081 169.773 22.0081 167.318 22.0081C167.41 21.7939 167.431 21.6204 167.492 21.6102C169.374 21.2531 170.1 19.743 170.694 18.233C172.494 13.6212 174.253 8.99915 175.931 4.33633C176.187 3.63231 175.88 2.73444 175.819 1.67331C176.361 1.27539 177.169 0.683609 178.079 0C178.345 0.653 178.591 1.23458 178.826 1.82636C180.964 7.24422 183.071 12.6723 185.24 18.0799C185.843 19.6002 186.344 21.2939 188.482 21.4674C187.674 22.3244 180.503 22.3142 179.961 21.5898C180.012 21.5286 180.053 21.4266 180.115 21.4163C182.57 20.9572 182.866 20.4266 181.987 18.0493C180.872 15.0496 180.872 15.0394 177.619 15.0598C176.269 15.07 174.918 15.0802 173.578 15.1414C173.271 15.1516 172.791 15.3251 172.699 15.5496C172.228 16.6617 171.758 17.8044 171.492 18.9778C171.195 20.345 171.983 21.2225 173.404 21.3653C173.722 21.3959 174.049 21.4265 174.356 21.498C174.438 21.5082 174.479 21.6816 174.673 22.0081ZM176.729 4.72405C175.491 7.99925 174.325 11.0806 173.149 14.2129C175.614 14.2129 177.956 14.2129 180.473 14.2129C179.225 11.0602 178.028 8.01965 176.729 4.72405Z" fill="white"/>
<path d="M47.5144 363.792C45.7959 361.292 44.0774 358.783 42.3589 356.283C42.4919 356.181 42.6248 356.079 42.7578 355.966C42.9931 356.191 43.2488 356.405 43.4636 356.64C44.5991 357.854 45.1003 358.027 46.5324 357.13C48.8032 355.701 51.0025 354.171 53.1915 352.61C54.4804 351.691 55.7591 350.732 56.8843 349.63C58.6948 347.855 58.8994 345.325 57.5798 343.172C55.9943 340.57 53.6723 339.539 51.1253 340.203C48.5271 340.876 46.5324 342.57 44.3945 344.019C43.0135 344.957 41.6224 345.865 40.3131 346.896C38.6866 348.171 38.5536 349.049 39.464 350.916C39.5766 351.14 39.6072 351.395 39.6788 351.63C39.5459 351.702 39.4129 351.783 39.2799 351.855C37.899 349.865 36.518 347.875 35.1371 345.876C35.2087 345.794 35.2803 345.723 35.3417 345.641C35.5054 345.682 35.7202 345.671 35.8327 345.763C37.4489 347.11 38.1036 347.202 39.8425 346.059C42.2464 344.468 44.5991 342.794 46.9927 341.182C48.6907 340.039 50.4911 339.162 52.5983 339.019C54.8691 338.866 56.6285 339.856 58.0299 341.509C59.7484 343.539 61.068 345.733 60.5565 348.559C60.1371 350.896 58.5209 352.375 56.6899 353.65C54.0303 355.518 51.3401 357.344 48.6805 359.211C47.0336 360.364 46.8802 361.058 47.7496 362.854C47.8622 363.088 47.811 363.405 47.8315 363.68C47.7292 363.731 47.6167 363.762 47.5144 363.792Z" fill="white"/>
<path d="M189.086 7.40746C189.986 5.15258 190.886 2.89769 191.786 0.642798C191.909 0.632595 192.021 0.622391 192.144 0.622391C192.226 1.86717 193.024 1.9488 193.965 2.08144C198.057 2.65281 202.138 3.36703 206.23 3.9384C206.823 4.02003 207.488 3.61191 208.378 3.35683C208.572 5.5607 208.787 8.04006 209.012 10.5296C208.9 10.5602 208.787 10.601 208.675 10.6317C208.531 10.4888 208.327 10.3664 208.265 10.1929C207.826 8.97875 207.488 7.71356 206.966 6.5402C206.158 4.75465 203.898 3.72414 202.046 4.29551C201.657 4.41795 201.228 4.98933 201.136 5.42806C200.747 7.32584 200.45 9.24403 200.164 11.1622C199.704 14.2027 199.315 17.2535 198.814 20.294C198.486 22.2734 198.803 22.8754 200.757 23.5386C200.972 23.61 201.177 23.712 201.35 23.8345C201.391 23.8651 201.33 24.0488 201.299 24.2834C198.282 23.8243 195.295 23.3651 192.298 22.906C192.308 22.753 192.308 22.5999 192.318 22.4571C192.676 22.4265 193.055 22.3346 193.402 22.3856C194.814 22.5693 195.479 21.8041 195.694 20.5797C196.134 18.1003 196.522 15.6006 196.911 13.111C197.31 10.5806 197.668 8.04006 198.067 5.50969C198.292 4.07105 197.924 3.62211 196.573 3.2548C194.313 2.63241 192.686 3.42825 191.418 5.2444C190.978 5.877 190.569 6.5402 190.098 7.15239C189.914 7.38706 189.607 7.5299 189.352 7.70336C189.27 7.59112 189.178 7.49929 189.086 7.40746Z" fill="white"/>
<path d="M146.246 429.623C146.062 427.419 145.868 424.991 145.673 422.562C145.806 422.521 145.939 422.47 146.062 422.43C146.236 422.746 146.461 423.042 146.594 423.378C147.034 424.501 147.382 425.664 147.862 426.766C148.701 428.664 151.064 428.99 152.445 428.796C152.864 428.735 153.417 428.031 153.529 427.541C153.949 425.654 154.225 423.725 154.511 421.807C154.972 418.767 155.35 415.716 155.841 412.686C156.148 410.747 155.78 410.053 153.938 409.553C153.724 409.492 153.509 409.41 153.314 409.298C153.263 409.268 153.304 409.074 153.304 408.757C156.342 409.217 159.339 409.676 162.326 410.125C162.326 410.278 162.337 410.431 162.337 410.574C161.917 410.625 161.488 410.737 161.078 410.706C159.851 410.604 159.125 411.094 158.92 412.318C158.521 414.747 158.102 417.175 157.713 419.613C157.304 422.164 156.956 424.735 156.526 427.286C156.26 428.909 156.803 429.531 158.409 429.878C160.7 430.368 162.152 429.286 163.38 427.623C163.84 427.001 164.219 426.327 164.669 425.695C164.792 425.521 165.027 425.419 165.201 425.286C165.313 425.358 165.415 425.439 165.528 425.511C164.618 427.796 163.707 430.082 162.797 432.357C162.674 432.367 162.551 432.388 162.439 432.398C162.449 431.306 161.846 431.153 160.986 431.031C156.895 430.449 152.813 429.735 148.722 429.174C147.975 429.072 147.146 429.449 146.246 429.623Z" fill="white"/>
<path d="M112.623 14.3762C114.229 16.0903 115.825 17.8044 117.431 19.5186C117.349 19.6512 117.267 19.7838 117.195 19.9165C116.817 19.7226 116.408 19.5798 116.07 19.3247C112.582 16.6923 107.938 17.2841 105.503 20.7429C104.082 22.7632 103.938 25.0385 104.48 27.3852C105.197 30.5277 106.629 33.252 109.35 35.1191C114.086 38.3841 120.54 36.0068 122.034 30.4563C122.208 29.8135 122.259 29.1401 122.371 28.4769C122.566 28.5075 122.76 28.5381 122.965 28.5687C122.801 29.589 122.791 30.6604 122.463 31.6297C121.031 35.9048 117.799 38.1597 113.503 38.6596C109.36 39.1392 106.056 37.3128 103.734 33.8744C99.3455 27.3648 102.107 19.5492 109.667 16.978C110.168 16.8045 110.659 16.6413 111.17 16.4882C112.111 16.2128 112.797 15.7842 112.214 14.5394C112.336 14.4986 112.48 14.4374 112.623 14.3762Z" fill="white"/>
<path d="M242.042 418.583C239.29 416.226 237.357 413.767 237.572 413.288C239.076 413.93 240.528 414.747 242.083 415.165C245.285 416.012 250.031 413.706 250.399 408.972C250.757 404.319 248.977 400.411 245.029 397.779C240.334 394.646 234.084 397.075 232.652 402.462C232.478 403.115 232.406 403.788 232.283 404.462C232.089 404.431 231.895 404.39 231.69 404.36C231.864 403.35 231.946 402.309 232.232 401.33C233.235 397.82 236.743 394.851 240.866 394.402C245.571 393.891 249.121 395.912 251.422 399.952C255.084 406.39 252.015 413.716 244.763 416.114C244.262 416.277 243.761 416.42 243.27 416.604C242.594 416.859 241.786 417.053 242.328 418.114C242.369 418.195 242.144 418.41 242.042 418.583Z" fill="white"/>
<path d="M297.985 59.1475C298.22 59.2087 298.548 59.1883 298.681 59.3413C300.553 61.5452 302.394 63.7695 304.235 66.004C304.327 66.1162 304.297 66.3305 304.358 66.7284C303.99 66.5039 303.785 66.4223 303.642 66.2897C302.23 64.9122 301.586 64.7898 300.072 66.0244C296.625 68.82 293.229 71.6871 289.812 74.5236C288.462 75.6357 287.173 76.8499 285.72 77.8192C281.956 80.3496 278.673 78.9109 276.668 75.5235C276.402 75.0644 276.126 74.3195 276.32 73.9624C276.555 73.5135 277.281 73.0849 277.803 73.0951C278.632 73.0951 278.908 73.8808 278.806 74.6154C278.652 75.6867 278.376 76.8091 279.501 77.4621C280.657 78.1355 281.649 77.3805 282.488 76.7071C285.577 74.2379 288.626 71.7177 291.674 69.2078C293.464 67.7283 295.244 66.2284 297.024 64.7388C297.341 64.4735 297.658 64.2184 297.944 63.9327C299.571 62.3615 299.622 61.6677 298.231 59.8821C298.118 59.7291 297.995 59.5862 297.883 59.4332C297.914 59.3209 297.954 59.2291 297.985 59.1475Z" fill="white"/>
<path d="M56.1887 373.965C54.194 371.567 52.1993 369.169 50.2046 366.772C50.266 366.669 50.3274 366.568 50.3888 366.476C50.624 366.568 50.9309 366.588 51.0741 366.761C52.363 368.322 53.5189 367.945 54.8691 366.853C57.4264 364.772 59.9428 362.629 62.4796 360.517C64.4538 358.874 66.3872 357.181 68.4125 355.599C71.7779 352.957 75.5831 353.609 77.8233 357.17C78.0791 357.568 78.2734 358.048 78.3552 358.507C78.4985 359.354 78.0688 360.058 77.2403 360.038C76.78 360.027 76.3094 359.384 75.89 358.976C75.7877 358.874 75.8082 358.578 75.8593 358.395C76.1458 357.354 76.2685 356.262 75.2354 355.65C74.2124 355.048 73.1384 355.548 72.2894 356.222C69.507 358.425 66.7656 360.67 64.0344 362.925C61.7431 364.823 59.4825 366.761 57.1911 368.649C55.1044 370.353 55.0021 370.832 56.3728 373.097C56.5058 373.322 56.5058 373.638 56.5672 373.914C56.424 373.914 56.3012 373.934 56.1887 373.965Z" fill="white"/>
<path d="M352.425 249.221C352.803 249.527 352.813 249.66 352.517 252.16C352.384 253.282 352.2 254.405 352.026 255.517C351.852 256.588 351.647 257.659 351.463 258.72C351.361 258.751 351.248 258.772 351.146 258.802C351.054 258.527 350.86 258.241 350.89 257.986C351.197 255.833 350.88 255.241 348.773 254.854C344.906 254.139 341.029 253.537 337.153 252.905C336.038 252.721 334.912 252.578 333.787 252.405C332.785 252.252 332.222 252.772 332.028 253.67C331.782 254.772 331.588 255.894 331.445 257.017C331.066 259.935 332.826 261.496 335.148 262.679C335.608 262.914 336.027 263.23 336.467 263.506C336.375 263.669 336.273 263.842 336.181 264.006C333.705 262.904 331.24 261.802 328.693 260.659C331.25 259.373 330.452 256.925 330.903 255.027C331.527 252.364 331.782 249.609 332.212 246.895C332.263 246.599 332.447 246.324 332.57 246.048C332.682 246.058 332.805 246.058 332.918 246.069C332.918 246.456 332.938 246.854 332.918 247.242C332.826 248.446 333.409 249.221 334.544 249.446C336.846 249.905 339.158 250.293 341.469 250.68C343.75 251.058 346.031 251.405 348.313 251.752C348.916 251.844 349.52 251.874 350.133 251.915C351.177 251.976 351.821 251.497 352.077 250.466C352.138 250.048 352.292 249.65 352.425 249.221Z" fill="white"/>
<path d="M21.829 186.86C21.8085 186.564 21.7676 186.278 21.7676 185.982C21.7676 184.381 21.3278 183.738 19.7729 183.411C17.9828 183.044 16.1825 182.758 14.3822 182.483C11.3748 182.013 8.36744 181.534 5.34984 181.156C3.40631 180.912 3.0176 181.238 2.41408 183.075C2.34247 183.309 2.12766 183.493 1.89239 183.626C2.12766 178.728 3.02783 174.555 3.74387 174.422C3.77455 174.494 3.84616 174.565 3.83593 174.626C3.34493 177.167 3.69272 177.789 6.20909 178.248C10.9963 179.106 15.804 179.871 20.6015 180.656C21.5324 180.809 22.32 180.452 22.4837 179.524C22.8008 177.779 23.169 176.004 23.1076 174.249C23.0463 172.341 21.4505 171.382 19.9366 170.515C19.3638 170.188 18.8012 169.862 18.2386 169.535C18.3204 169.372 18.4022 169.219 18.4841 169.055C20.9595 170.157 23.4247 171.259 25.9002 172.361C23.6396 172.963 24.3147 174.881 24.0589 176.157C23.4043 179.412 23.0053 182.707 22.4837 185.993C22.4325 186.299 22.2688 186.584 22.1563 186.88C22.0438 186.891 21.9313 186.88 21.829 186.86Z" fill="white"/>
<path d="M316.817 318.817C317.431 318.052 317.963 317.613 318.198 317.052C319.374 314.348 320.469 311.613 321.594 308.879C321.686 308.665 321.809 308.461 322.085 307.9C322.218 308.502 322.392 308.808 322.331 309.053C322.065 310.144 322.566 310.767 323.507 311.154C326.463 312.369 329.43 313.562 332.376 314.797C333.767 315.389 334.616 314.848 335.148 313.43C335.27 313.511 335.393 313.593 335.516 313.685C335.455 314.093 335.465 314.521 335.311 314.889C334.35 317.286 333.327 319.664 332.406 322.082C332.191 322.633 332.314 323.316 332.273 324.276C330.913 324.092 329.245 323.867 327.568 323.633C327.547 323.49 327.537 323.347 327.517 323.204C327.834 323.092 328.151 322.908 328.468 322.898C330.79 322.776 332.775 320.837 332.775 318.562C332.775 318.256 332.427 317.807 332.12 317.664C330.616 316.97 329.072 316.358 327.568 315.725C326.299 317.705 326.432 318.348 328.294 319.858C327.486 320.419 323.087 318.633 322.944 317.735C323.732 317.735 324.704 318.011 325.287 317.664C325.921 317.286 326.197 316.317 326.76 315.399C324.908 314.674 323.241 313.981 321.533 313.399C321.267 313.307 320.633 313.664 320.479 313.97C319.968 315.021 319.456 316.103 319.19 317.225C318.812 318.837 319.702 320.011 320.898 321C321.216 321.266 321.461 321.602 321.737 321.908C321.615 322.041 321.482 322.184 321.359 322.317C319.773 321.092 318.188 319.878 316.817 318.817Z" fill="white"/>
<path d="M22.095 108.714C23.7418 108.949 25.3887 109.184 27.0356 109.428C27.0356 109.592 27.0356 109.745 27.0356 109.908C26.739 109.959 26.4423 110.041 26.1355 110.051C23.8339 110.173 21.7778 112.234 21.8699 114.489C21.8801 114.867 22.4325 115.356 22.8417 115.561C24.1919 116.203 25.5933 116.734 27.2402 117.407C27.4755 116.499 27.946 115.632 27.8233 114.857C27.7108 114.173 26.9333 113.602 26.4935 112.704C28.2938 113.428 30.0941 114.153 31.8945 114.877C31.8638 114.969 31.8229 115.05 31.7922 115.142C30.9329 115.234 29.9305 115.081 29.2554 115.479C28.6518 115.826 28.4166 116.795 27.9051 117.673C29.7361 118.397 31.3932 119.101 33.0913 119.683C33.3368 119.764 33.9505 119.366 34.104 119.05C34.6257 117.999 35.1064 116.907 35.4235 115.785C35.7509 114.663 35.3622 113.632 34.5336 112.775C34.0119 112.234 33.5107 111.673 33.0095 111.122C33.7664 110.928 37.0704 113.275 37.7353 114.336C37.1932 115.04 36.5999 115.571 36.3135 116.234C35.1985 118.795 34.1858 121.397 33.1117 123.968C32.989 124.264 32.7026 124.488 32.3855 124.652C32.4571 122.478 32.3855 122.315 30.3908 121.489C27.8846 120.438 25.358 119.428 22.8417 118.417C21.6142 117.928 20.3969 117.509 19.6604 119.172C19.6195 119.254 19.3842 119.254 19.0057 119.346C19.149 118.785 19.2103 118.366 19.3638 117.989C20.2742 115.724 21.2255 113.479 22.1359 111.214C22.4427 110.459 23.0565 109.663 21.7165 108.949C21.8392 108.867 21.9722 108.796 22.095 108.714Z" fill="white"/>
<path d="M338.759 126.641C339.771 129.498 340.784 132.355 341.797 135.212C341.633 135.273 341.48 135.344 341.316 135.406C341.173 135.161 341.019 134.926 340.896 134.671C340.201 133.222 339.495 132.804 337.971 133.334C333.347 134.926 328.744 136.569 324.172 138.273C322.433 138.915 322.198 139.548 322.597 141.364C322.648 141.609 322.627 141.874 322.443 142.18C321.072 139.405 320.029 136.538 319.108 133.64C319.262 133.579 319.415 133.508 319.579 133.447C319.732 133.691 319.896 133.936 320.029 134.191C320.755 135.671 321.441 136.079 322.934 135.559C327.547 133.957 332.151 132.304 336.723 130.59C338.411 129.957 338.707 129.161 338.288 127.457C338.227 127.202 338.329 126.906 338.36 126.631C338.482 126.641 338.626 126.641 338.759 126.641Z" fill="white"/>
<path d="M42.8601 76.6764C41.9088 79.9006 41.8986 79.9108 44.8036 81.88C48.0361 84.0737 51.2787 86.247 54.5316 88.4202C54.9407 88.6957 55.3601 88.9406 55.7897 89.1651C56.8229 89.7262 57.764 89.6242 58.4902 88.6549C58.7255 88.3386 58.8483 87.9305 59.1756 87.7264C59.5132 88.91 55.1351 95.3277 54.1735 95.5012C54.2554 95.2461 54.2861 95.0319 54.3884 94.8482C55.309 93.0933 55.2169 92.3484 53.5905 91.2261C49.7341 88.5733 45.847 85.9613 41.9395 83.3901C40.4869 82.431 39.464 82.2984 38.257 83.9002C38.124 84.0737 37.9092 84.1859 37.6944 84.3594C37.5512 83.2677 41.7144 77.0744 42.8601 76.6764Z" fill="white"/>
<path d="M300.45 337.529C300.338 337.805 300.256 338.101 300.113 338.366C299.387 339.774 299.489 340.662 300.757 341.539C304.777 344.304 308.808 347.049 312.889 349.712C314.567 350.814 315.068 350.589 317.001 348.447C317.001 348.906 317.103 349.222 316.981 349.406C315.446 351.702 313.892 353.977 312.326 356.252C312.275 356.334 312.122 356.354 311.713 356.538C311.897 356.017 311.958 355.722 312.091 355.456C312.807 354.089 312.746 353.487 311.559 352.477C310.792 351.824 309.923 351.273 309.084 350.702C306.087 348.671 303.079 346.651 300.062 344.631C299.591 344.314 299.09 344.039 298.589 343.764C297.556 343.213 296.717 343.508 296.031 344.396C295.817 344.672 295.602 344.937 295.193 345.07C296.441 342.253 298.384 339.876 299.99 337.295C300.154 337.376 300.297 337.458 300.45 337.529Z" fill="white"/>
<path d="M35.3008 299.482C35.1167 299.309 34.8609 299.176 34.7484 298.962C33.8994 297.309 33.2038 296.921 31.4035 297.543C26.8924 299.104 22.4018 300.717 17.9317 302.38C16.203 303.022 15.9268 303.716 16.3359 305.492C16.3871 305.716 16.3666 305.951 16.1927 306.247C14.7913 303.553 13.9219 300.676 12.8785 297.86C12.991 297.788 13.1138 297.727 13.2263 297.656C13.39 297.86 13.5843 298.043 13.6968 298.268C14.5561 299.941 15.0778 300.268 16.9088 299.635C21.4607 298.074 26.0025 296.431 30.5033 294.738C32.2832 294.064 32.4673 293.523 32.0991 291.656C32.0479 291.411 32.0888 291.156 32.0888 290.901C32.2116 290.871 32.3343 290.84 32.4673 290.809C33.5004 293.625 34.5336 296.452 35.5667 299.268C35.4849 299.339 35.3928 299.411 35.3008 299.482Z" fill="white"/>
<path d="M337.245 174.188C337.03 173.973 336.682 173.79 336.61 173.535C336.13 171.749 335.71 169.943 335.27 168.147C335.373 168.066 335.475 167.984 335.567 167.903C335.802 168.137 336.16 168.331 336.242 168.607C336.549 169.627 337.081 169.474 337.797 169.045C340.283 167.576 340.293 167.586 339.587 164.821C339.464 164.352 339.403 163.862 339.229 163.413C339.045 162.944 338.799 162.189 338.493 162.148C337.49 161.995 336.396 161.934 335.444 162.209C335.097 162.311 335.045 163.444 334.8 164.301C334.616 164.127 334.248 163.954 334.176 163.709C333.787 162.393 333.46 161.056 333.153 159.72C333.102 159.505 333.286 159.23 333.358 158.985C333.552 159.118 333.736 159.25 333.93 159.383C334.667 159.883 335.352 160.679 336.16 160.822C339.587 161.434 343.055 161.852 346.512 162.332C346.788 162.372 347.198 162.444 347.351 162.291C348.926 160.73 349.581 162.393 350.645 163.148C346.86 165.79 343.157 168.351 339.464 170.943C338.411 171.688 337.142 172.32 337.552 174.045C337.459 174.086 337.347 174.137 337.245 174.188ZM346.062 163.291C346.052 163.189 346.042 163.087 346.042 162.985C344.016 162.73 341.981 162.474 339.833 162.209C340.221 163.801 340.579 165.24 340.968 166.831C342.758 165.586 344.415 164.433 346.062 163.291Z" fill="white"/>
<path d="M15.6915 270.944C19.6706 271.301 19.865 271.199 19.8548 268.75C20.0798 269.005 20.4481 269.23 20.5197 269.526C20.8981 270.923 21.1948 272.352 21.563 273.933C21.2562 273.882 20.8777 273.903 20.8265 273.791C20.2332 272.383 18.9137 272.209 17.6862 272.025C14.7197 271.556 11.7431 271.148 8.74592 270.832C7.9685 270.75 7.15017 271.138 6.34207 271.25C6.00451 271.301 5.59534 271.281 5.31916 271.117C4.83839 270.842 4.42922 270.423 3.88708 269.995C6.79215 267.975 9.46196 266.118 12.1215 264.251C13.4206 263.342 14.7095 262.414 15.9984 261.486C16.7144 260.965 17.3077 260.394 17.185 259.384C17.1645 259.2 17.4407 258.986 17.7578 258.516C18.3306 260.761 18.8319 262.7 19.3024 264.649C19.3331 264.771 19.149 265.016 19.016 265.077C18.9239 265.118 18.6784 264.955 18.5966 264.822C17.6555 263.373 17.635 263.363 16.162 264.363C14.4129 265.546 14.4231 265.546 14.9039 267.607C15.1698 268.709 15.4256 269.811 15.6915 270.944ZM13.6764 266.138C11.8147 267.434 10.1064 268.628 8.16286 269.985C10.5565 270.291 12.6535 270.556 14.8834 270.852C14.4538 269.189 14.0753 267.73 13.6764 266.138Z" fill="white"/>
<path d="M10.8736 221.979C9.18577 221.999 8.94027 221.663 9.42104 220.336C9.70746 219.541 9.95296 218.724 10.3007 217.949C10.4337 217.653 10.802 217.214 11.0066 217.245C12.1625 217.408 13.3286 217.602 14.4231 217.969C15.0675 218.184 15.2107 218.806 14.8118 219.479C13.8809 221.081 12.4591 221.857 10.8736 221.979Z" fill="white"/>
<path d="M348.507 216.99C347.791 219.745 345.479 221.02 342.492 220.316C342.871 219.051 343.178 217.765 343.658 216.541C343.771 216.245 344.477 215.949 344.835 216.02C346.052 216.255 347.239 216.643 348.507 216.99Z" fill="white"/>
</svg>
