<svg width="121" height="145" viewBox="0 0 121 145" fill="none" xmlns="http://www.w3.org/2000/svg">
<ellipse cx="60.5" cy="72.5" rx="60.5" ry="72.5" fill="white"/>
<path d="M76.2484 67.3789C76.1464 67.4406 76.0505 67.4993 75.9547 67.5549C75.9949 67.5641 76.035 67.5734 76.0722 67.5795C76.1896 68.237 76.3102 68.8945 76.4277 69.552C76.4061 69.5613 76.3844 69.5675 76.3597 69.5767C76.3133 69.5057 76.2669 69.4378 76.1711 69.2866C76.1711 69.6292 76.1711 69.8793 76.1711 70.1293C76.1402 70.1386 76.1123 70.1478 76.0814 70.1571C75.933 69.8916 75.7722 69.6354 75.6393 69.3638C74.9498 67.9654 73.2462 67.4931 72.0218 67.8172C71.0139 68.0827 70.6985 69.3607 71.0448 69.9194C71.3354 70.0305 71.5333 70.0984 71.7219 70.1818C72.3403 70.4534 72.9586 70.7251 73.5677 71.009C74.3005 71.3517 75.0271 71.7067 75.7506 72.0678C75.8526 72.1203 75.9206 72.2438 76.0598 72.3981C75.8588 72.3981 75.7599 72.3981 75.732 72.3981C76.0227 72.8581 76.4215 73.3057 76.6132 73.8304C77.2811 75.6486 76.1989 77.4698 74.2047 77.939C72.702 78.294 71.2488 78.1057 69.8668 77.4112C69.3072 77.1303 68.9763 76.7537 69.0382 76.0561C69.0876 75.5004 69.0011 74.9324 68.9671 74.2533C69.1804 74.5281 69.3226 74.7102 69.4989 74.9386C69.4865 74.6515 69.4741 74.4046 69.4618 74.1546C69.4741 74.1484 69.4865 74.1422 69.4989 74.136C69.5267 74.2009 69.5607 74.2626 69.5792 74.3274C70.1172 76.1487 72.331 77.1581 73.9635 76.6919C74.1892 76.6271 74.4273 76.4512 74.5602 76.2598C75.1724 75.3615 74.9065 74.3428 73.9326 73.8953C73.2431 73.5773 72.5165 73.3427 71.8116 73.0618C70.9891 72.7346 70.2223 72.3148 69.6627 71.6079C68.6981 70.3917 68.9423 68.305 70.3213 67.3203C72.164 65.9991 74.5571 66.3016 76.1494 67.2554C76.168 67.2709 76.1804 67.2956 76.2484 67.3789Z" fill="#28231E"/>
<path d="M51.4857 67.3511C51.3775 67.4376 51.294 67.5055 51.2074 67.5703C51.2414 67.5703 51.2754 67.5703 51.3094 67.5703C51.4269 68.2309 51.5444 68.8945 51.6619 69.5551C51.6403 69.5644 51.6186 69.5706 51.597 69.5798C51.5506 69.5119 51.5042 69.444 51.4207 69.3267C51.4207 69.623 51.4207 69.8731 51.4207 70.1231C51.3898 70.1355 51.3589 70.1478 51.328 70.1571C51.1827 69.9101 51.0157 69.6755 50.8951 69.4162C50.2613 68.0395 48.5701 67.49 47.2746 67.8172C46.1584 68.1012 45.8956 69.5737 46.4676 70.0984C46.6531 70.1478 46.8448 70.1787 47.0241 70.2497C47.8218 70.5707 48.6257 70.8794 49.408 71.2344C49.9645 71.4875 50.4994 71.7931 51.0343 72.0894C51.2847 72.2284 51.396 72.4259 51.1332 72.6821C51.5506 73.1328 51.8382 73.6236 51.9649 74.2225C52.2308 75.4973 51.6959 76.8185 50.5643 77.4853C49.5378 78.0872 48.4155 78.2014 47.2529 78.0656C46.4769 77.9761 45.7472 77.7569 45.0515 77.3896C44.5259 77.1118 44.2229 76.7568 44.2786 76.1178C44.328 75.5375 44.2878 74.951 44.2878 74.3614C44.4239 74.5373 44.5692 74.7225 44.73 74.9294C44.73 74.704 44.73 74.4972 44.73 74.2935C44.7454 74.2904 44.7609 74.2873 44.7763 74.2811C44.9402 74.6978 45.0917 75.1207 45.2772 75.5251C45.3298 75.6424 45.4875 75.7165 45.605 75.7968C45.7039 75.8647 45.8245 75.9017 45.9203 75.9696C46.9128 76.6642 47.9888 77.013 49.1946 76.6981C49.4296 76.6364 49.68 76.445 49.8161 76.2413C50.3912 75.3862 50.1222 74.3521 49.2008 73.9199C48.5051 73.5927 47.7662 73.3551 47.0489 73.0742C46.2512 72.7593 45.5091 72.3487 44.9464 71.682C43.9415 70.4935 44.1487 68.3574 45.5184 67.3542C47.358 66.0083 49.7697 66.2831 51.3713 67.2523C51.4053 67.2678 51.4269 67.2986 51.4857 67.3511Z" fill="#28231E"/>
<path d="M65.263 74.5744C65.2445 74.6855 65.2228 74.7966 65.2043 74.9077C65.2197 74.9139 65.2352 74.9201 65.2475 74.9263C65.365 74.7503 65.4825 74.5744 65.6495 74.3274C65.4176 75.5807 65.2043 76.7506 64.9847 77.936C62.1804 77.936 59.407 77.936 56.5316 77.936C56.7511 77.865 56.881 77.8217 57.0108 77.7816C57.0108 77.7693 57.0108 77.7569 57.0108 77.7446C56.8037 77.7446 56.5996 77.7446 56.3925 77.7446C56.3925 77.726 56.3894 77.7075 56.3894 77.6921C56.5501 77.6489 56.7357 77.6427 56.8655 77.5563C57.1005 77.3988 57.3757 77.2352 57.5055 77.0006C57.6663 76.7166 57.7714 76.3586 57.7745 76.0314C57.7962 73.5403 57.7869 71.0492 57.7869 68.5581C57.7869 67.6783 57.4592 67.277 56.6058 67.1103C56.6645 67.0826 56.714 67.0579 56.7759 67.0301C56.646 66.9838 56.5254 66.9406 56.3183 66.8665C56.7542 66.8665 57.1005 66.8665 57.4468 66.8665C57.4561 66.8387 57.4622 66.814 57.4715 66.7862C57.3107 66.7183 57.1469 66.6504 56.983 66.5794C58.4485 66.5794 59.9203 66.5794 61.4136 66.5794C61.259 66.6535 61.1199 66.7214 60.9499 66.8047C61.0395 66.8356 61.0983 66.8541 61.1941 66.8881C61.0457 66.9406 60.9282 66.9807 60.7242 67.0517C60.9932 67.0517 61.1725 67.0517 61.3549 67.0517C61.358 67.0702 61.3611 67.0887 61.3611 67.1073C61.3023 67.1227 61.2436 67.1381 61.1848 67.1536C60.381 67.3789 60.0656 67.8203 60.0532 68.5982C60.0099 71.1387 60.0347 73.6792 60.0378 76.2197C60.0378 76.5036 60.0749 76.7907 60.483 76.5314C60.5201 76.5067 60.5974 76.5376 60.653 76.55C61.4909 76.7753 62.3381 76.7413 63.1822 76.6024C63.7727 76.5067 64.1407 76.0715 64.4808 75.6332C64.7467 75.2905 64.9724 74.9139 65.2135 74.5528C65.229 74.562 65.2445 74.5682 65.263 74.5744Z" fill="#28231E"/>
<path d="M105.031 46.2154C104.326 46.3512 103.624 46.4871 102.925 46.6198C102.903 46.5828 102.875 46.5519 102.879 46.5457C103.178 46.1907 102.947 45.882 102.795 45.5672C102.313 44.5732 101.83 43.5823 101.351 42.5884C101.308 42.5019 101.308 42.3939 101.333 42.2889C101.942 42.9989 102.016 43.0174 102.86 42.6131C103.955 42.0852 105.049 41.5543 106.14 41.0202C106.292 40.9462 106.434 40.8597 106.564 40.7116C104.647 40.7116 102.733 40.7116 100.816 40.7116C100.792 40.6807 100.77 40.6498 100.745 40.622C101.852 39.1373 102.959 37.6556 104.103 36.1214C103.967 36.1801 103.874 36.214 103.784 36.2572C102.678 36.7882 101.565 37.3037 100.473 37.8624C100.207 37.9982 99.9537 38.239 99.7991 38.4952C99.7063 38.6495 99.8176 38.9274 99.7836 39.1743C99.3817 38.6125 99.1096 37.9828 98.8251 37.3623C98.8561 37.3376 98.887 37.3129 98.9179 37.2882C98.989 37.3592 99.0663 37.4271 99.1312 37.5043C99.3384 37.7482 99.5765 37.9025 99.9042 37.7574C100.51 37.4889 101.113 37.2203 101.713 36.9363C102.424 36.603 103.129 36.2541 103.834 35.9115C104.489 35.5935 104.548 35.4608 104.347 34.7755C104.338 34.7447 104.353 34.7076 104.366 34.6181C104.449 34.6706 104.523 34.6984 104.567 34.7508C104.613 34.8033 104.616 34.8897 104.659 34.9484C105.253 35.7263 105.154 36.3714 104.486 37.1185C103.621 38.0877 102.906 39.1897 102.127 40.2331C102.099 40.2701 102.078 40.3103 102.031 40.3905C102.171 40.3998 102.276 40.4121 102.378 40.4121C103.75 40.4214 105.12 40.4245 106.493 40.4337C106.969 40.4368 107.003 40.3874 106.839 39.9244C106.808 39.838 106.818 39.7392 106.811 39.6435C106.886 39.7114 106.988 39.767 107.031 39.8503C107.479 40.7486 107.909 41.6561 108.364 42.5513C108.53 42.8785 108.54 43.3971 109.167 43.3416C109.028 43.4681 108.889 43.5947 108.747 43.7182C108.441 43.9867 108.141 44.2614 107.826 44.5207C107.77 44.567 107.662 44.5547 107.578 44.5701C107.594 44.496 107.584 44.4003 107.628 44.351C108.521 43.3879 108.249 42.8353 107.699 41.7827C107.544 41.4864 107.318 41.4678 107.046 41.5512C106.954 41.579 106.867 41.6314 106.781 41.6716C106.23 41.9401 105.677 42.2056 105.105 42.4865C105.207 42.6995 105.293 42.8971 105.392 43.0884C105.683 43.6472 105.875 43.7212 106.477 43.5206C106.552 43.4959 106.638 43.5175 106.731 43.5762C106.066 43.9311 105.445 44.3479 104.678 44.5701C104.925 44.2337 105.259 43.9836 105.272 43.7151C105.29 43.357 105.058 42.9866 104.916 42.5668C104.106 42.968 103.361 43.3323 102.619 43.7027C102.359 43.8324 102.381 44.0701 102.47 44.2769C102.653 44.6905 102.848 45.1011 103.076 45.4869C103.29 45.8419 103.621 46.0426 104.06 46.0333C104.372 46.024 104.687 46.0333 105 46.0333C105.012 46.1043 105.021 46.1599 105.031 46.2154Z" fill="#28231E"/>
<path d="M16.7239 110.431C16.4858 109.94 16.2539 109.496 16.0591 109.036C16.022 108.947 16.087 108.774 16.1581 108.678C17.1104 107.394 18.072 106.116 19.0273 104.835C19.083 104.761 19.1232 104.674 19.1881 104.566C17.5247 104.566 15.9046 104.566 14.2195 104.566C14.2937 104.841 14.3617 105.079 14.4266 105.319C14.4019 105.338 14.3741 105.36 14.3494 105.378C14.2813 105.298 14.1978 105.224 14.1515 105.131C13.6599 104.131 13.1775 103.125 12.6921 102.121C12.5746 101.878 12.4881 101.584 12.0892 101.791C12.2005 101.402 13.3723 100.414 13.6939 100.458C13.5547 100.627 13.4373 100.779 13.3167 100.921C12.9364 101.371 12.8745 101.865 13.1095 102.399C13.2239 102.659 13.3414 102.915 13.4774 103.162C13.6846 103.532 13.8454 103.578 14.2319 103.415C14.2999 103.387 14.3648 103.353 14.4328 103.322C14.9832 103.054 15.5335 102.788 16.1334 102.495C15.9324 102.162 15.7654 101.816 15.5335 101.529C15.2336 101.161 14.8533 101.479 14.4854 101.455C15.0914 101.013 15.7747 100.742 16.4333 100.421C16.458 100.458 16.4827 100.495 16.5075 100.532C16.4178 100.606 16.3343 100.686 16.2385 100.748C15.8798 100.979 15.8025 101.177 15.9571 101.584C16.0591 101.856 16.1921 102.115 16.322 102.412C17.0764 102.041 17.803 101.689 18.5265 101.334C18.8047 101.198 18.8511 100.958 18.7429 100.711C18.5666 100.306 18.3842 99.8989 18.1462 99.5285C17.8122 99.0099 17.2835 98.8741 16.6899 98.9389C16.526 98.9574 16.3622 98.9605 16.1983 98.9698C16.1921 98.9111 16.1859 98.8556 16.1797 98.7969C16.8816 98.658 17.5865 98.5191 18.2791 98.3833C18.3069 98.4358 18.3317 98.4697 18.3286 98.4728C17.9885 98.7815 18.2265 99.0686 18.3626 99.3526C18.8913 100.445 19.4231 101.535 19.9549 102.628C19.9271 102.655 19.8992 102.68 19.8714 102.708C19.8034 102.64 19.7168 102.581 19.6674 102.501C19.4324 102.121 19.2128 101.998 18.8078 102.183C17.4041 102.828 16.0159 103.504 14.6214 104.171C14.6276 104.205 14.6369 104.242 14.6431 104.276C16.56 104.276 18.477 104.276 20.5052 104.276C19.3211 105.86 18.208 107.351 17.0424 108.913C17.2124 108.842 17.3052 108.808 17.3979 108.764C18.5017 108.23 19.6055 107.696 20.7062 107.156C20.8794 107.07 21.0556 106.971 21.2009 106.841C21.4143 106.653 21.5317 106.421 21.3988 106.119C21.3586 106.029 21.371 105.915 21.3524 105.739C21.7574 106.122 22.3511 107.493 22.2429 107.703C21.7018 107.091 21.5379 107.057 20.7619 107.431C19.6024 107.99 18.443 108.551 17.2866 109.116C16.7084 109.397 16.659 109.511 16.8259 110.144C16.8383 110.191 16.8476 110.24 16.8414 110.286C16.8321 110.317 16.795 110.342 16.7239 110.431Z" fill="#28231E"/>
<path d="M85.7991 22.6936C85.2921 22.2645 84.785 21.8354 84.2779 21.4064C84.2965 21.3724 84.312 21.3384 84.3305 21.3076C84.4109 21.3323 84.5037 21.3354 84.5686 21.3817C84.9241 21.6255 85.2364 21.5082 85.4869 21.2366C85.9414 20.7489 86.3711 20.2426 86.804 19.7364C87.3018 19.156 87.7872 18.5665 88.285 17.983C88.7364 17.4521 88.7302 17.1835 88.2757 16.7915C88.2541 16.773 88.2572 16.7267 88.2293 16.6217C88.3561 16.668 88.4427 16.6835 88.5107 16.7298C88.6096 16.8008 88.6838 16.9181 88.789 16.9705C89.5743 17.3687 89.5774 17.9553 89.3548 18.7208C88.9838 20.008 88.724 21.3261 88.421 22.6349C88.4118 22.6781 88.4272 22.7275 88.4334 22.8078C89.8247 22.2028 91.2006 21.6255 92.5579 20.9989C93.0186 20.7859 93.3742 20.6933 93.7328 21.1501C93.8967 21.3601 94.1472 21.4959 94.3512 21.678C94.4161 21.7367 94.4563 21.8262 94.5182 21.9126C94.4347 21.9466 94.4007 21.9713 94.3914 21.962C93.8813 21.5391 93.6185 21.5638 93.1454 22.1102C92.2271 23.172 91.3181 24.2432 90.4246 25.3298C90.0381 25.799 90.069 25.9286 90.4586 26.3731C90.5049 26.4256 90.5173 26.5089 90.5482 26.5768C90.5173 26.5984 90.4864 26.617 90.4555 26.6386C89.7753 26.0675 89.0982 25.4934 88.4179 24.9223C88.4272 24.8914 88.4365 24.8636 88.4458 24.8328C88.52 24.8389 88.6065 24.8235 88.6622 24.8606C89.1724 25.1878 89.3455 25.1878 89.732 24.7402C90.7028 23.6227 91.6551 22.4898 92.6878 21.2736C90.8574 22.0762 89.126 22.8325 87.2863 23.6382C87.4069 22.6565 87.6975 21.7922 87.8954 20.9094C88.0964 20.0111 88.3345 19.1221 88.5045 18.1899C88.1335 18.6189 87.7625 19.048 87.3945 19.4771C86.9277 20.0204 86.4577 20.5575 86.0001 21.1069C85.4776 21.7305 85.4714 21.8786 85.8795 22.5917C85.8517 22.6288 85.827 22.6627 85.7991 22.6936Z" fill="#28231E"/>
<path d="M35.3647 122.266C35.9274 122.748 36.4283 123.177 36.9292 123.603C36.9107 123.637 36.8921 123.671 36.8705 123.702C36.7993 123.686 36.7221 123.686 36.6571 123.655C36.1748 123.418 35.9893 123.427 35.6183 123.828C35.1267 124.362 34.6629 124.924 34.1929 125.477C33.7291 126.02 33.2653 126.563 32.817 127.119C32.4615 127.557 32.4738 127.684 32.8294 128.107C32.882 128.168 32.916 128.249 32.9562 128.32C32.9252 128.347 32.8943 128.378 32.8634 128.406C32.5944 128.19 32.3347 127.962 32.0533 127.764C31.7071 127.52 31.6143 127.264 31.7318 126.819C32.1183 125.335 32.4398 123.834 32.783 122.337C32.7892 122.303 32.7768 122.266 32.7707 122.186C31.9513 122.544 31.1505 122.893 30.3497 123.242C29.6417 123.55 28.9398 123.865 28.2256 124.152C28.0958 124.205 27.8793 124.189 27.7711 124.112C27.4341 123.865 27.128 123.575 26.8157 123.294C26.7632 123.245 26.7323 123.171 26.6364 123.023C26.7972 123.072 26.8621 123.081 26.9178 123.115C27.4032 123.412 27.6258 123.393 28.0185 122.942C28.6276 122.248 29.2181 121.538 29.8148 120.831C30.1178 120.473 30.4208 120.118 30.7146 119.754C31.1443 119.22 31.1412 119.108 30.7053 118.59C30.6744 118.553 30.6713 118.491 30.6558 118.442C30.6867 118.414 30.7146 118.386 30.7455 118.361C31.4164 118.929 32.0904 119.5 32.7614 120.068C32.7397 120.105 32.7212 120.143 32.6995 120.18C32.6315 120.164 32.5542 120.164 32.5017 120.13C32.0224 119.812 31.8462 119.815 31.4597 120.251C30.8784 120.905 30.3157 121.575 29.7468 122.239C29.348 122.705 28.9522 123.177 28.5843 123.696C30.3312 122.93 32.075 122.168 33.9425 121.349C33.4849 123.226 33.0551 124.998 32.6222 126.77C32.6439 126.782 32.6686 126.798 32.6903 126.81C33.0489 126.4 33.4076 125.989 33.76 125.575C34.264 124.986 34.7618 124.39 35.2627 123.797C35.6956 123.288 35.7079 123.106 35.3616 122.538C35.3369 122.492 35.3647 122.405 35.3647 122.266Z" fill="#28231E"/>
<path d="M108.187 51.7224C107.489 51.9045 106.824 52.0619 106.171 52.2564C105.562 52.4354 105.494 52.5713 105.581 53.1855C105.59 53.2473 105.556 53.3152 105.541 53.3831C105.497 53.3862 105.457 53.3893 105.414 53.3893C105.191 52.5064 104.969 51.6205 104.746 50.7377C104.777 50.7161 104.811 50.6975 104.842 50.6759C104.901 50.7469 104.984 50.8087 105.015 50.8889C105.21 51.389 105.334 51.497 105.868 51.3736C107.318 51.0433 108.762 50.6914 110.203 50.3271C110.661 50.2098 110.75 50.0246 110.729 49.5338C110.726 49.4381 110.729 49.3424 110.794 49.2097C110.846 49.2838 110.927 49.3517 110.945 49.435C111.196 50.4784 111.477 51.5155 111.666 52.5713C111.814 53.3985 111.477 54.3431 110.444 54.5221C110.039 54.5931 109.69 54.4635 109.39 54.2135C109.183 54.0437 109.013 53.8276 108.818 53.6239C107.918 53.9048 106.697 55.4204 106.573 56.3743C106.484 57.0503 106.58 57.6923 106.818 58.3159C107.263 59.4796 108.413 60.1618 109.801 60.1094C109.913 60.1063 110.024 60.1094 110.132 60.1094C110.135 60.1587 110.138 60.2081 110.141 60.2544C109.857 60.2791 109.566 60.347 109.285 60.3193C107.612 60.1464 106.512 59.1 106.193 57.4547C105.822 55.5346 106.447 54.0375 108.057 52.954C108.354 52.7534 108.5 52.5682 108.336 52.2194C108.271 52.0712 108.243 51.9014 108.187 51.7224ZM108.462 51.6606C108.512 51.9045 108.54 52.0959 108.589 52.2842C108.704 52.7132 108.837 53.1361 109.214 53.4171C109.693 53.769 110.311 53.7535 110.822 53.3924C111.279 53.0682 111.452 52.4786 111.276 51.8335C111.094 51.1667 111.035 51.0772 110.574 51.1636C109.875 51.2964 109.183 51.4878 108.462 51.6606Z" fill="#28231E"/>
<path d="M106.224 99.2137C105.204 99.1828 104.177 99.2167 103.29 99.8094C101.707 100.868 100.949 103.554 103.228 105.066C103.327 105.131 103.429 105.199 103.512 105.347C103.429 105.347 103.327 105.378 103.268 105.341C102.18 104.674 101.497 103.758 101.518 102.427C101.552 100.393 103.151 98.5901 105.163 98.3277C105.528 98.2814 105.902 98.3216 106.27 98.2907C106.382 98.2814 106.53 98.1981 106.586 98.1024C106.706 97.8925 106.78 97.6548 106.904 97.3554C106.119 97.0683 105.349 96.7627 104.557 96.525C104.412 96.4818 104.171 96.6979 103.998 96.8275C103.905 96.8954 103.871 97.0374 103.781 97.1948C103.679 96.8244 104.588 94.642 104.83 94.5679C104.839 94.6019 104.864 94.6389 104.857 94.6667C104.647 95.3859 104.693 95.5249 105.386 95.815C106.66 96.349 107.943 96.8707 109.229 97.377C109.841 97.6177 109.981 97.5468 110.287 96.9788C110.314 96.9294 110.355 96.8831 110.472 96.846C110.472 96.9232 110.494 97.0066 110.469 97.0714C110.095 97.9882 109.724 98.905 109.328 99.8156C109.13 100.272 108.83 100.664 108.388 100.924C107.646 101.353 106.74 101.05 106.443 100.251C106.326 99.9391 106.301 99.5933 106.224 99.2137ZM107.102 97.4634C106.963 97.8462 106.824 98.1703 106.728 98.5068C106.508 99.2754 106.811 99.8804 107.532 100.164C108.231 100.439 108.852 100.192 109.217 99.4822C109.307 99.3093 109.356 99.118 109.43 98.9389C109.551 98.6395 109.443 98.4419 109.158 98.3216C108.493 98.0437 107.829 97.7659 107.102 97.4634Z" fill="#28231E"/>
<path d="M14.2999 47.6446C15.011 47.9255 15.6881 48.2095 16.3776 48.4565C16.8043 48.6077 17.0145 48.4904 17.2557 48.0768C17.299 47.9996 17.3732 47.941 17.435 47.8731C17.469 47.8947 17.503 47.9163 17.5402 47.941C17.1939 48.7868 16.8507 49.6326 16.5044 50.4784C16.4642 50.4691 16.4209 50.4598 16.3807 50.4506C16.3869 50.3611 16.3745 50.2654 16.3993 50.182C16.5384 49.6696 16.4673 49.4659 15.9664 49.2467C15.079 48.8578 14.1793 48.4966 13.2796 48.1293C12.8498 47.9533 12.4169 47.7743 11.981 47.6169C11.3843 47.4008 11.2173 47.4718 10.9112 48.0243C10.8834 48.0737 10.8401 48.1107 10.7319 48.2373C10.7319 48.0706 10.7102 47.9934 10.735 47.9348C11.1245 46.9779 11.5141 46.0179 11.9161 45.064C11.981 44.9066 12.0861 44.7615 12.1881 44.6257C12.6519 44.0083 13.2332 43.7799 13.8516 43.9589C14.5132 44.1534 14.8533 44.6257 14.9121 45.4283C14.9213 45.5394 14.9121 45.6505 14.9121 45.8203C16.1612 45.8049 17.401 45.7925 18.3409 44.8232C19.1974 43.9404 19.5962 42.8816 19.2901 41.6438C19.1139 40.9307 18.6439 40.4121 18.0565 39.9923C17.9297 39.8997 17.7937 39.8164 17.6855 39.6435C17.772 39.6558 17.8679 39.6497 17.9421 39.6867C19.2809 40.3782 19.992 41.9093 19.5839 43.3632C19.1232 45.0115 18.1554 46.2092 16.3993 46.592C15.9602 46.6877 15.4964 46.7001 15.0419 46.7001C14.7668 46.7001 14.6122 46.7618 14.541 47.0396C14.4947 47.2279 14.3988 47.4008 14.2999 47.6446ZM14.1206 47.5705C14.269 47.0458 14.4668 46.5858 14.5225 46.1105C14.6214 45.2647 13.7093 44.5485 12.8838 44.7646C12.3118 44.9159 11.7058 45.6907 11.7491 46.2802C11.7615 46.4315 11.9222 46.6352 12.0676 46.7031C12.7076 46.9995 13.3692 47.2588 14.1206 47.5705Z" fill="#28231E"/>
<path d="M10.3299 95.8088C10.2465 95.4785 10.1599 95.1452 10.0826 94.8118C9.89707 94.0277 9.68683 93.2437 9.5446 92.4534C9.40238 91.6817 9.71465 90.7186 10.6422 90.5118C11.1864 90.3883 11.6069 90.5859 11.9779 90.944C12.1263 91.0859 12.2469 91.2619 12.4015 91.4471C13.3476 90.7711 14.2906 90.092 14.5751 88.8634C14.9677 87.1656 14.0865 84.8845 11.5574 84.9184C11.3997 84.9215 11.242 84.9184 11.0813 84.9184C11.072 84.8876 11.0627 84.8536 11.0503 84.8227C11.14 84.7795 11.2297 84.7116 11.3224 84.7023C13.0168 84.5264 14.4916 85.5574 14.9152 87.2119C15.4315 89.2215 14.844 90.8514 13.125 92.0367C12.8158 92.2497 12.7138 92.438 12.8467 92.7745C12.9085 92.9319 12.9456 93.0986 13.0013 93.29C13.6815 93.114 14.3463 92.9597 14.9986 92.7714C15.6479 92.5831 15.7561 92.3732 15.5892 91.6539C15.6819 91.6879 15.7902 91.6971 15.7994 91.7342C16.0066 92.5646 16.2045 93.3949 16.4023 94.2284C16.4085 94.2531 16.3745 94.287 16.322 94.3981C16.257 94.2531 16.2107 94.1666 16.1797 94.0802C16.0437 93.6943 15.7685 93.506 15.3882 93.5956C13.9381 93.9413 12.4911 94.2932 11.0472 94.6636C10.4845 94.8087 10.4196 94.9476 10.4722 95.5372C10.4753 95.5866 10.4783 95.636 10.4753 95.6854C10.4722 95.7193 10.4536 95.7533 10.4412 95.7872C10.4041 95.7934 10.367 95.7996 10.3299 95.8088ZM12.8065 93.3363C12.6303 92.8485 12.5128 92.3701 12.2902 91.9472C12.0274 91.4502 11.5358 91.2897 10.9947 91.3669C10.5124 91.4378 10.098 91.657 9.93108 92.154C9.75794 92.6695 9.83833 93.1819 10.0888 93.645C10.1568 93.7715 10.4258 93.8888 10.5711 93.861C11.3039 93.719 12.0212 93.5246 12.8065 93.3363Z" fill="#28231E"/>
<path d="M107.912 68.0981C107.838 67.453 107.761 66.8109 107.686 66.1658C107.662 65.9466 107.634 65.7274 107.621 65.5052C107.618 65.462 107.671 65.391 107.711 65.3817C107.745 65.3724 107.819 65.4218 107.838 65.4651C108.144 66.1874 108.141 66.209 108.926 66.175C109.489 66.1534 110.049 66.0732 110.611 66.0145C110.695 66.0053 110.772 65.962 110.862 65.9312C110.744 64.8569 110.63 63.8012 110.509 62.6931C110.188 62.7208 109.888 62.7455 109.588 62.7795C109.136 62.8289 108.682 62.8659 108.237 62.9431C107.795 63.0203 107.625 63.2672 107.64 63.7272C107.643 63.8012 107.628 63.8784 107.621 63.9525C107.584 63.9587 107.55 63.9648 107.513 63.9741C107.476 63.8475 107.424 63.7241 107.408 63.5944C107.328 62.9122 107.25 62.2269 107.186 61.5447C107.176 61.4429 107.238 61.3348 107.266 61.2299C107.312 61.3194 107.383 61.4058 107.405 61.5015C107.501 61.8936 107.668 62.0633 108.073 62.0325C109.013 61.9584 109.953 61.8565 110.893 61.7608C111.394 61.7114 111.891 61.6497 112.392 61.5972C113.082 61.5262 113.221 61.3842 113.252 60.7175C113.255 60.6712 113.267 60.6249 113.28 60.5631C113.341 60.5724 113.425 60.5724 113.425 60.5847C113.536 61.4799 113.641 62.372 113.746 63.2672C113.703 63.2796 113.663 63.2919 113.62 63.3073C113.573 63.2024 113.502 63.1036 113.481 62.9925C113.416 62.6282 113.208 62.4554 112.841 62.4801C112.154 62.5295 111.471 62.5788 110.757 62.6313C110.877 63.7488 110.998 64.8384 111.118 65.9559C111.805 65.8756 112.473 65.817 113.131 65.712C113.549 65.6441 113.682 65.4404 113.694 65.0205C113.697 64.9249 113.703 64.8292 113.716 64.6223C113.827 64.7458 113.917 64.7983 113.92 64.8569C113.963 65.6101 113.997 66.3633 114 67.1196C113.691 66.5609 113.586 66.5825 112.701 66.6504C111.601 66.7368 110.503 66.8788 109.405 67.0023C109.152 67.0301 108.895 67.0671 108.645 67.132C108.166 67.2554 108.076 67.3943 108.095 67.8913C108.098 67.9654 108.073 68.0395 108.061 68.1136C108.008 68.1074 107.959 68.1043 107.912 68.0981Z" fill="#28231E"/>
<path d="M13.1868 76.8741C13.4373 77.4174 13.6166 79.4794 13.4434 79.6461C13.4249 79.6337 13.3909 79.6214 13.3878 79.6059C13.2517 78.862 13.1064 78.7601 12.3118 78.8373C11.6656 78.8991 11.0194 78.9546 10.3299 79.0164C10.4505 80.1276 10.5711 81.2173 10.6948 82.3532C11.5296 82.239 12.3211 82.1433 13.1064 82.0199C13.4373 81.9674 13.5609 81.7143 13.5764 81.4056C13.5826 81.2975 13.5764 81.1864 13.5764 81.0753C13.6289 81.0722 13.6784 81.0722 13.731 81.0691C13.833 81.9736 13.932 82.8749 14.034 83.7794C14 83.7917 13.9629 83.8072 13.9289 83.8195C13.8887 83.7639 13.8268 83.7145 13.8145 83.6559C13.6939 83.0601 13.5393 82.9305 12.9426 82.9768C12.318 83.0231 11.6934 83.0756 11.0689 83.1435C10.2866 83.2268 9.50441 83.3133 8.72835 83.4306C7.99249 83.5417 7.99558 83.5633 7.9492 84.3165C7.94611 84.3628 7.92756 84.4091 7.91519 84.4585C7.69567 84.3412 7.42977 82.2668 7.58436 81.6278C7.65238 81.8377 7.70185 81.9489 7.72659 82.0662C7.78842 82.3563 7.97703 82.5477 8.26148 82.5354C8.98497 82.5045 9.70229 82.4335 10.4567 82.3749C10.3361 81.2543 10.2217 80.1832 10.1011 79.0657C9.75794 79.0935 9.43329 79.109 9.10865 79.146C8.76854 79.183 8.42844 79.2355 8.08833 79.2911C7.65238 79.3621 7.49779 79.5442 7.49161 79.9825C7.48851 80.0813 7.47924 80.177 7.46996 80.2758C7.42049 80.2758 7.37102 80.2789 7.32155 80.2789C7.22261 79.3806 7.12677 78.4854 7.02783 77.5871C7.06802 77.5779 7.11131 77.5686 7.1515 77.5594C7.18551 77.6396 7.23189 77.7137 7.25353 77.797C7.40194 78.3033 7.54108 78.4329 8.06669 78.3928C8.85202 78.3342 9.63426 78.2415 10.4165 78.152C11.0998 78.0749 11.7862 78.01 12.4633 77.8927C13.0508 77.7909 13.1095 77.6767 13.1157 77.0716C13.1126 77.0192 13.1528 76.9636 13.1868 76.8741Z" fill="#28231E"/>
<path d="M25.3255 32.9296C25.3626 32.8493 25.3904 32.7629 25.4368 32.6857C25.6872 32.2844 25.6872 32.056 25.3285 31.7473C24.4041 30.954 23.4549 30.1854 22.515 29.4106C22.2954 29.2315 22.079 29.0463 21.8471 28.8858C21.4452 28.6111 21.2226 28.6389 20.8701 28.9692C20.8113 29.0247 20.7371 29.0648 20.6691 29.1112C20.6413 29.0865 20.6166 29.0618 20.5887 29.034C20.6413 28.9506 20.6846 28.858 20.7464 28.7809C21.2813 28.1203 21.8069 27.4504 22.3635 26.8084C22.6355 26.4935 22.9447 26.2002 23.2786 25.9502C24.67 24.913 26.321 25.1075 27.4557 26.4194C28.4204 27.5307 28.5688 28.7809 27.7618 30.0434C27.2362 30.8676 26.5715 31.6084 25.9655 32.3832C25.8016 32.5931 25.6223 32.7938 25.4491 32.9975C25.4089 32.979 25.3656 32.9543 25.3255 32.9296ZM24.299 25.978C23.5971 25.9965 22.92 26.4904 22.3727 27.2004C21.977 27.7128 22.0203 27.9289 22.5273 28.3363C23.0375 28.7438 23.5384 29.1605 24.0454 29.5711C24.6576 30.0681 25.2667 30.5651 25.8851 31.0528C26.083 31.2102 26.3179 31.3429 26.556 31.1485C27.2393 30.5898 27.7495 29.9076 27.7216 28.9877C27.6784 27.5183 26.0149 25.978 24.299 25.978Z" fill="#28231E"/>
<path d="M95.8817 112.114C95.8693 112.141 95.857 112.172 95.8384 112.2C95.4798 112.737 95.5045 112.978 95.9961 113.392C96.5805 113.882 97.1772 114.358 97.7677 114.842C98.1789 115.176 98.5809 115.518 98.9983 115.846C99.7743 116.451 99.7774 116.444 100.538 115.867C100.547 115.948 100.584 116.034 100.557 116.065C99.629 117.13 98.9117 118.386 97.709 119.192C96.7536 119.831 95.7178 119.973 94.6913 119.365C93.6246 118.735 92.9166 117.83 92.9413 116.531C92.9599 115.568 93.4546 114.787 94.0451 114.061C94.5584 113.432 95.0778 112.808 95.6003 112.185C95.656 112.12 95.7426 112.083 95.8168 112.033C95.8415 112.061 95.8601 112.086 95.8817 112.114ZM93.4515 115.975C93.4639 116.052 93.4731 116.16 93.4948 116.269C93.6772 117.253 94.2863 117.939 95.0809 118.482C95.6498 118.871 96.2651 119.108 96.9824 118.997C97.8667 118.861 98.4634 118.337 98.9519 117.636C99.1652 117.327 99.1312 117.071 98.8406 116.833C98.2191 116.327 97.6039 115.815 96.9824 115.309C96.4661 114.886 95.9559 114.46 95.4334 114.049C95.1922 113.858 94.9078 113.632 94.6048 113.879C93.9555 114.413 93.4948 115.065 93.4515 115.975Z" fill="#28231E"/>
<path d="M91.1728 126.113C91.012 126.245 90.8605 126.387 90.6936 126.514C89.8866 127.122 89.8866 127.11 88.9003 126.872C87.1998 126.464 85.4961 126.066 83.7245 125.649C84.3274 126.461 84.887 127.221 85.4528 127.977C85.6229 128.202 85.7868 128.437 85.9723 128.647C86.3804 129.107 86.6278 129.141 87.1657 128.854C87.2616 128.801 87.3729 128.776 87.478 128.739C87.4966 128.776 87.5151 128.814 87.5337 128.847C86.9339 129.292 86.334 129.74 85.7342 130.184C85.7095 130.166 85.6847 130.15 85.66 130.132C85.6816 130.064 85.6847 129.98 85.728 129.928C86.0496 129.523 86.0774 129.267 85.7744 128.844C85.2735 128.144 84.751 127.461 84.2347 126.77C83.743 126.109 83.2514 125.446 82.7629 124.782C82.7135 124.717 82.6795 124.643 82.5774 124.473C84.9891 125.029 87.3049 125.566 89.7103 126.122C89.1785 125.406 88.7024 124.757 88.2201 124.112C87.8831 123.658 87.543 123.205 87.1998 122.754C86.804 122.239 86.4824 122.174 85.8919 122.476C85.8208 122.513 85.7373 122.529 85.6353 122.501C86.2135 121.998 86.7823 121.501 87.4718 121.106C87.3451 121.448 87.1596 121.717 87.1781 121.967C87.1967 122.235 87.3791 122.51 87.546 122.742C88.3128 123.797 89.0951 124.841 89.8773 125.884C90.2174 126.338 90.3844 126.366 90.9038 126.091C90.9687 126.057 91.0491 126.048 91.1202 126.026C91.1357 126.054 91.1542 126.082 91.1728 126.113Z" fill="#28231E"/>
<path d="M84.9643 19.3937C84.3893 19.9648 83.8111 20.5328 83.2236 21.1162C83.236 21.1255 83.1834 21.0977 83.1865 21.0884C83.3226 20.6593 82.9825 20.5606 82.7166 20.4093C81.755 19.866 80.7934 19.3196 79.8349 18.7733C79.7236 18.7115 79.6247 18.6282 79.5196 18.5572C79.5319 18.5232 79.5443 18.4924 79.5567 18.4584C79.6433 18.4769 79.736 18.4862 79.8164 18.5201C80.3018 18.727 80.4533 18.6992 80.744 18.2639C81.0099 17.8657 81.2386 17.4459 81.5076 16.9983C80.9326 16.668 80.3698 16.347 79.8071 16.0321C79.7515 16.0013 79.6556 15.9828 79.6 16.0074C79.1578 16.2174 78.6971 16.4057 78.2859 16.6649C77.8283 16.9551 77.8345 17.2268 78.2179 17.6095C78.2643 17.6558 78.2983 17.7176 78.3478 17.7886C77.9798 17.7947 76.3999 16.8656 76.335 16.5909C77.1141 16.881 77.7758 16.5199 78.4374 16.2297C79.8535 15.6092 81.2603 14.9672 82.664 14.3189C82.8371 14.2387 83.1061 14.0442 83.0907 13.9393C83.0598 13.7417 82.8619 13.5657 82.7196 13.396C82.6485 13.3126 82.5434 13.2571 82.4537 13.1922C82.4816 13.149 82.5094 13.1058 82.5341 13.0595C83.4029 13.5503 84.2718 14.0411 85.1406 14.5319C85.1344 14.5659 85.1313 14.6029 85.1251 14.6369C85.0385 14.6307 84.9334 14.6523 84.8623 14.6153C84.3027 14.3066 84.0677 14.3066 83.6719 14.9795C82.9454 16.2174 82.2373 17.4675 81.5324 18.7177C81.3005 19.1313 81.353 19.3104 81.7488 19.5789C81.8106 19.6191 81.8725 19.6561 81.9374 19.6962C83.168 20.4371 83.5328 20.4062 84.6273 19.4802C84.7108 19.4092 84.8252 19.3721 84.9272 19.3196C84.9427 19.3443 84.952 19.369 84.9643 19.3937ZM82.8557 14.6153C82.834 14.5937 82.8124 14.5751 82.7939 14.5535C81.8725 14.9733 80.948 15.3932 79.9679 15.8408C80.5584 16.1772 81.0779 16.4705 81.6189 16.7761C82.0425 16.0383 82.4476 15.3253 82.8557 14.6153Z" fill="#28231E"/>
<path d="M37.461 19.3351C36.8766 18.5479 36.3541 17.838 35.8285 17.128C35.6461 16.881 35.4637 16.6341 35.272 16.3933C34.9102 15.9334 34.5547 15.8685 34.0476 16.1433C33.9517 16.1957 33.8404 16.2266 33.7075 16.2081C34.264 15.6926 34.8453 15.2296 35.476 14.8314C35.5008 14.8622 35.5255 14.89 35.5502 14.9209C35.5317 14.9641 35.5255 15.0104 35.4977 15.0443C35.1359 15.4827 35.1143 15.708 35.4575 16.1896C35.9738 16.9088 36.5087 17.6157 37.0374 18.3257C37.5538 19.0233 38.0732 19.7209 38.5895 20.4186C38.5741 20.4494 38.5586 20.4803 38.5432 20.5112C36.2243 19.9771 33.9023 19.44 31.4937 18.8844C32.3749 20.0667 33.1881 21.1779 34.0229 22.2676C34.4464 22.8201 34.6907 22.8417 35.3214 22.5145C35.3895 22.4775 35.4729 22.4651 35.6183 22.4188C35.3709 22.8356 33.9456 23.8481 33.7168 23.8203C33.7137 23.7987 33.6982 23.7647 33.7075 23.7524C34.1651 23.1782 34.1774 22.9529 33.7384 22.3509C32.9314 21.2489 32.1183 20.1531 31.302 19.0603C30.9897 18.6405 30.7795 18.6344 30.0746 19.0511C30.1086 18.906 30.1024 18.798 30.1518 18.7609C30.4796 18.5016 30.8135 18.2485 31.1629 18.0139C31.2464 17.9583 31.3917 17.9491 31.4937 17.9738C33.3519 18.3998 35.207 18.835 37.0652 19.2672C37.158 19.2888 37.26 19.3011 37.461 19.3351Z" fill="#28231E"/>
<path d="M41.6072 126.56C41.5082 126.529 41.4062 126.505 41.3104 126.461C40.9888 126.31 40.7013 126.344 40.5003 126.65C40.2189 127.079 39.9561 127.523 39.6655 127.992C40.2622 128.332 40.8342 128.659 41.4124 128.977C41.4711 129.011 41.5763 129.005 41.6412 128.977C42.0431 128.795 42.4513 128.622 42.8316 128.403C43.3572 128.097 43.3788 127.832 42.9676 127.4C42.9274 127.36 42.9027 127.304 42.8779 127.252C42.8718 127.236 42.8934 127.208 42.9243 127.122C43.5922 127.505 44.2538 127.881 44.9124 128.258C44.9 128.292 44.8846 128.323 44.8722 128.357C44.8289 128.369 44.7794 128.403 44.7454 128.391C44.1023 128.162 43.5365 128.437 42.98 128.681C41.4773 129.338 39.984 130.014 38.4937 130.696C38.3298 130.771 38.0763 130.953 38.0917 131.051C38.1196 131.24 38.2989 131.413 38.438 131.573C38.5122 131.66 38.6328 131.703 38.7318 131.854C38.6606 131.863 38.5679 131.907 38.5184 131.879C37.696 131.419 36.8766 130.95 36.0573 130.48C36.0666 130.443 36.0728 130.403 36.082 130.366C36.1717 130.375 36.2706 130.363 36.3479 130.397C36.9787 130.681 37.1796 130.638 37.5167 130.051C38.234 128.81 38.942 127.563 39.6439 126.313C39.9036 125.853 39.8541 125.696 39.4089 125.412C39.2326 125.301 39.0471 125.199 38.8647 125.1C38.0083 124.634 37.4177 124.727 36.6695 125.433C36.5582 125.538 36.4252 125.625 36.3016 125.72C36.2768 125.687 36.2552 125.656 36.2304 125.622C36.8272 125.06 37.427 124.501 37.9712 123.992C37.8599 124.418 38.3267 124.489 38.6297 124.668C39.5387 125.202 40.4632 125.714 41.3784 126.236C41.4773 126.292 41.5701 126.363 41.6659 126.424C41.6443 126.477 41.6257 126.52 41.6072 126.56ZM39.5542 128.227C39.1213 128.986 38.7101 129.709 38.2432 130.53C39.2945 130.051 40.2468 129.619 41.2238 129.175C40.6549 128.851 40.1231 128.551 39.5542 128.227Z" fill="#28231E"/>
<path d="M74.2294 9.5127C74.4025 9.53122 74.4953 9.52505 74.5726 9.55592C75.395 9.86769 76.2298 10.1548 77.0306 10.5159C77.4233 10.6919 77.7974 10.9666 78.1004 11.2722C78.6044 11.7815 78.6137 12.4143 78.3354 13.0472C78.0602 13.6769 77.5593 13.9979 76.8729 14.0566C76.1247 14.1214 75.4414 13.9238 74.7334 13.5256C74.5169 14.1553 74.2912 14.7573 74.1057 15.3685C74.0284 15.6247 74.1521 15.8469 74.4056 15.9766C74.5633 16.0568 74.7148 16.1433 74.8972 16.242C74.6283 16.3563 72.3928 15.5475 72.0991 15.2357C72.2352 15.245 72.3248 15.2357 72.4083 15.2573C72.903 15.3746 73.0638 15.3283 73.2616 14.8746C73.5152 14.3004 73.7223 13.7077 73.948 13.1212C74.2356 12.3742 74.5231 11.6272 74.7983 10.8771C75.0487 10.1918 74.9993 10.0776 74.384 9.701C74.3469 9.67939 74.3222 9.62691 74.2294 9.5127ZM74.8354 13.3064C75.0271 13.4052 75.1941 13.5071 75.3703 13.5812C76.27 13.9516 77.1481 13.5503 77.5068 12.6057C77.8716 11.6519 77.5315 10.9234 76.5545 10.5715C76.0814 10.4017 75.9176 10.4665 75.7351 10.9357C75.4383 11.7044 75.1477 12.4823 74.8354 13.3064Z" fill="#28231E"/>
<path d="M13.5331 68.305C12.7323 68.2957 11.9748 68.4192 11.2328 68.2617C11.2328 68.2185 11.2297 68.1784 11.2297 68.1352C11.4492 68.0765 11.6749 68.0241 11.8913 67.9592C13.0044 67.6166 13.5517 66.7739 13.3569 65.6966C13.2579 65.1502 12.9456 64.7798 12.3922 64.6594C11.8851 64.5483 11.4894 64.7705 11.2266 65.1841C10.9669 65.5947 10.7752 66.0516 10.5278 66.4745C10.2866 66.885 10.064 67.3264 9.74557 67.6722C9.11792 68.3513 8.05432 68.2432 7.48851 67.5116C6.94744 66.8109 6.95362 66.0361 7.15768 65.2305C7.17933 65.1471 7.20715 65.0668 7.23498 64.9835C7.38339 64.5266 7.38339 64.5266 7 64.1593C7.70185 64.0544 8.40061 63.9494 9.10247 63.8445C9.12102 63.8815 9.13648 63.9216 9.15503 63.9587C9.07773 64.0111 9.00662 64.076 8.92314 64.1192C8.61086 64.2828 8.26766 64.4032 7.98321 64.6069C7.38339 65.0329 7.12058 65.9528 7.36484 66.6257C7.61219 67.311 8.47173 67.5487 8.98497 67.0332C9.26324 66.7523 9.45803 66.3788 9.65591 66.0299C9.90635 65.5916 10.095 65.1193 10.3639 64.6933C10.7288 64.1161 11.2699 63.7765 11.9748 63.8506C12.8312 63.9401 13.3414 64.4742 13.5671 65.2737C13.7557 65.9528 13.7124 66.635 13.4218 67.2863C13.2672 67.6289 12.924 67.9808 13.5331 68.305Z" fill="#28231E"/>
<path d="M46.4738 131.456C46.6747 130.885 46.8664 130.372 47.0334 129.851C47.1911 129.36 47.0921 129.168 46.6284 128.94C46.5202 128.888 46.4243 128.814 46.3223 128.749C46.347 128.705 46.3687 128.662 46.3934 128.619C47.29 128.956 48.1836 129.295 49.0802 129.632C49.0709 129.675 49.0617 129.718 49.0555 129.758C48.9565 129.752 48.8514 129.755 48.7556 129.733C48.3134 129.638 48.0939 129.693 47.9362 130.088C47.3735 131.518 46.8232 132.953 46.3037 134.398C46.1429 134.848 46.2635 135.015 46.6964 135.247C46.7737 135.287 46.8417 135.342 46.9128 135.389C46.8974 135.422 46.885 135.456 46.8695 135.49C46.7768 135.472 46.6778 135.466 46.5913 135.432C45.7874 135.132 44.9711 134.861 44.1889 134.512C43.7962 134.336 43.4221 134.064 43.1129 133.759C42.643 133.296 42.5966 132.7 42.8068 132.089C43.0202 131.465 43.4716 131.116 44.1085 130.968C44.8196 130.805 45.4627 131.018 46.1058 131.277C46.2141 131.323 46.3192 131.382 46.4738 131.456ZM46.4058 131.616C45.9141 131.496 45.4658 131.277 45.0299 131.305C44.2105 131.354 43.6169 132.039 43.5458 132.833C43.4747 133.648 43.8735 134.169 44.7578 134.475C45.0855 134.589 45.2834 134.499 45.4009 134.197C45.7286 133.376 46.044 132.549 46.4058 131.616Z" fill="#28231E"/>
<path d="M111.99 92.6016C111.279 92.6016 110.58 92.6016 109.885 92.6016C109.869 92.5615 109.857 92.5244 109.841 92.4843C109.981 92.4318 110.117 92.3454 110.262 92.3269C111.159 92.2127 111.796 91.6694 112.03 90.7989C112.182 90.2309 112.012 89.7247 111.588 89.4684C111.112 89.1845 110.614 89.2369 110.2 89.7154C109.736 90.2525 109.35 90.8575 108.902 91.4101C108.286 92.1633 107.455 92.3794 106.709 92.0182C105.998 91.6725 105.556 90.6322 105.723 89.771C105.834 89.2061 106.035 88.6936 106.385 88.2368C106.536 88.0361 106.675 87.8077 106.323 87.6379C106.292 87.6225 106.301 87.5299 106.289 87.4713C106.926 87.4219 108.416 87.7738 108.493 87.9775C108.042 88.0701 107.575 88.1195 107.139 88.2677C106.243 88.5733 105.766 89.629 106.072 90.5242C106.351 91.3391 107.346 91.6076 107.943 90.9841C108.373 90.5365 108.716 90.0025 109.106 89.5117C109.474 89.0486 109.832 88.5794 110.472 88.4621C111.502 88.2738 112.157 89.0949 112.299 89.8142C112.445 90.5488 112.225 91.1909 111.882 91.8114C111.749 92.0521 111.579 92.2837 111.978 92.4442C111.993 92.4565 111.984 92.5368 111.99 92.6016Z" fill="#28231E"/>
<path d="M68.1384 137.37C68.0859 137.309 68.0179 137.253 67.9838 137.182C67.7427 136.673 67.5046 136.163 67.2758 135.648C67.2449 135.58 67.2758 135.487 67.2789 135.407C67.3531 135.45 67.452 135.472 67.4922 135.534C67.8787 136.126 68.3734 136.562 69.1031 136.636C69.6102 136.688 70.0894 136.577 70.4697 136.225C70.9675 135.768 70.8469 134.913 70.2038 134.617C69.7678 134.416 69.2731 134.348 68.797 134.234C68.4414 134.151 68.0735 134.111 67.721 134.021C66.911 133.811 66.3946 133.308 66.3452 132.453C66.3019 131.666 66.7162 131.101 67.3871 130.721C68.0766 130.329 68.8186 130.206 69.5885 130.391C69.9441 130.477 70.0987 130.36 70.1172 129.993C70.1729 129.953 70.2285 129.912 70.2842 129.872C70.2966 129.959 70.2966 130.045 70.3182 130.129C70.4883 130.727 70.6645 131.323 70.8284 131.922C70.8469 131.99 70.7882 132.079 70.7634 132.157C70.6985 132.104 70.6057 132.064 70.5686 131.993C70.2069 131.354 69.7678 130.817 69.0072 130.635C68.0271 130.4 67.0099 131.132 67.0501 132.064C67.0687 132.558 67.3593 132.879 67.7952 133.015C68.2807 133.166 68.797 133.228 69.2979 133.339C69.6782 133.425 70.0616 133.499 70.4264 133.629C71.0015 133.833 71.3663 134.228 71.4375 134.864C71.5117 135.515 71.2427 136.006 70.7449 136.395C70.145 136.864 69.4463 136.938 68.7166 136.892C68.4167 136.873 68.1322 136.873 68.2528 137.367C68.2219 137.373 68.1817 137.373 68.1384 137.37Z" fill="#28231E"/>
<path d="M19.1572 34.3588C18.7151 34.3804 18.2977 34.3588 17.8957 34.4267C17.1599 34.5471 16.5508 35.1737 16.4178 35.893C16.3498 36.2696 16.4518 36.6091 16.7517 36.8561C17.0795 37.1246 17.4752 37.2203 17.8493 37.0166C18.2451 36.8005 18.5976 36.5073 18.9717 36.248C19.3643 35.9732 19.7354 35.6615 20.1528 35.433C20.7619 35.0997 21.3957 35.1367 21.9522 35.5658C22.5304 36.0103 22.719 36.6431 22.6077 37.3438C22.4809 38.134 22.1099 38.7946 21.4514 39.2885C21.0309 39.6034 21.0278 39.662 21.306 40.1065C21.1793 40.0942 21.0865 40.1065 21.0154 40.0726C20.4712 39.8195 19.9271 39.5632 19.3891 39.2947C19.318 39.2607 19.2809 39.162 19.2283 39.094C19.3149 39.0755 19.4014 39.0416 19.4849 39.0416C19.9456 39.0539 20.4218 39.1589 20.8608 39.0755C21.7544 38.9057 22.3109 38.0816 22.2491 37.1709C22.2027 36.4764 21.473 35.9393 20.833 36.2109C20.3568 36.4116 19.9425 36.7604 19.5097 37.0598C19.185 37.2821 18.8913 37.5475 18.5574 37.7543C17.973 38.1186 17.3577 38.2081 16.761 37.779C16.1272 37.3222 15.9788 36.6709 16.1241 35.9424C16.2447 35.3281 16.594 34.8404 17.03 34.4051C17.1939 34.2384 17.4598 34.0686 17.1135 33.8155C17.1073 33.8093 17.197 33.6365 17.2155 33.6427C17.8493 33.8279 18.4801 34.0223 19.1077 34.223C19.1386 34.2261 19.1417 34.3032 19.1572 34.3588Z" fill="#28231E"/>
<path d="M104.217 111.314C104.004 111.326 103.887 111.364 103.788 111.336C103.281 111.194 102.777 111.042 102.276 110.879C102.192 110.851 102.13 110.755 102.059 110.694C102.143 110.666 102.226 110.623 102.31 110.616C102.721 110.586 103.157 110.632 103.543 110.521C104.254 110.317 104.644 109.761 104.789 109.058C104.925 108.397 104.186 107.758 103.525 107.925C102.897 108.082 102.495 108.567 102 108.925C101.586 109.224 101.159 109.545 100.683 109.709C99.6414 110.064 98.6056 109.264 98.5716 108.15C98.5407 107.141 98.9828 106.354 99.7434 105.724C99.9599 105.545 100.309 105.4 99.9382 105.048C99.9228 105.032 99.9413 104.943 99.966 104.927C100.006 104.903 100.074 104.897 100.118 104.915C100.696 105.184 101.271 105.455 101.843 105.736C101.898 105.764 101.92 105.86 101.957 105.924C101.886 105.949 101.815 105.999 101.747 105.992C101.37 105.962 100.993 105.887 100.615 105.887C99.5919 105.884 98.7169 107.017 98.955 108.011C99.1189 108.687 99.8856 109.085 100.526 108.752C101.011 108.499 101.435 108.128 101.877 107.798C102.368 107.431 102.829 107.017 103.485 106.974C104.356 106.915 105.068 107.588 105.105 108.465C105.139 109.32 104.774 109.984 104.18 110.549C103.936 110.774 103.76 110.987 104.217 111.314Z" fill="#28231E"/>
<path d="M9.07155 52.4015C9.92181 52.4015 10.6082 52.4015 11.2915 52.4015C11.3039 52.4385 11.3193 52.4756 11.3317 52.5126C11.2544 52.5527 11.1802 52.6145 11.0967 52.633C10.4691 52.7565 9.88471 52.9479 9.48586 53.5004C9.18595 53.911 9.08391 54.3709 9.14266 54.8617C9.22614 55.5655 10.1382 55.9668 10.7102 55.513C11.0689 55.229 11.3348 54.8247 11.6316 54.4666C11.947 54.0869 12.2067 53.6578 12.5623 53.3244C13.5764 52.3768 15.1409 52.883 15.4315 54.2412C15.6046 55.0469 15.4501 55.8032 15.0079 56.4977C14.8039 56.8188 14.405 57.112 14.9461 57.5287C14.1546 57.4392 13.4063 57.3621 12.6828 57.1521C12.6859 57.0966 12.689 57.041 12.6921 56.9885C12.9024 56.9669 13.1095 56.9392 13.3198 56.9299C14.4266 56.8743 15.2089 56.0625 15.212 54.9667C15.2151 54.4141 14.9121 53.9295 14.4638 53.7566C13.9752 53.5683 13.4991 53.6825 13.1064 54.1425C12.788 54.516 12.5221 54.9327 12.2222 55.3247C12.0366 55.5686 11.8419 55.8094 11.6347 56.0347C11.208 56.4946 10.6824 56.6829 10.0671 56.5163C9.41783 56.3372 9.08082 55.8557 8.91386 55.2383C8.74381 54.6086 8.92932 54.0252 9.17049 53.4479C9.30653 53.1176 9.75176 52.7935 9.07155 52.4015Z" fill="#28231E"/>
<path d="M50.923 15.0413C50.7096 14.3251 50.5056 13.6306 50.2984 12.9329C50.3201 12.9021 50.3417 12.8712 50.3664 12.8434C50.453 12.899 50.5581 12.936 50.62 13.0132C50.8828 13.3342 51.0961 13.7077 51.396 13.9886C52.0515 14.6029 53.2202 14.5103 53.8231 13.8466C54.3333 13.2848 54.2838 12.2384 53.3903 11.9914C52.6977 11.8001 51.9773 11.7044 51.2754 11.5377C50.5334 11.3648 49.9119 11.0407 49.7542 10.1887C49.6398 9.57752 49.8686 9.10215 50.3108 8.71012C50.8797 8.20696 51.5692 8.06805 52.305 8.10818C52.5926 8.12362 52.9327 8.244 52.9543 7.76245C53.0409 7.77789 53.18 7.76863 53.2017 7.81493C53.483 8.386 53.7458 8.96324 54.0148 9.54048C53.987 9.57135 53.9623 9.59913 53.9344 9.63C53.8417 9.54974 53.7273 9.48183 53.6593 9.38305C53.2202 8.74716 52.6513 8.32735 51.8505 8.36439C51.5661 8.37674 51.2723 8.47243 51.0095 8.58973C50.6478 8.75025 50.4499 9.05276 50.4499 9.46948C50.4499 9.90164 50.6107 10.2752 51.0157 10.4202C51.5197 10.5962 52.0515 10.695 52.5771 10.7937C53.2078 10.9141 53.8479 10.9975 54.3426 11.4543C55.1866 12.2322 54.9888 13.5318 53.9375 14.214C53.2604 14.6523 52.5122 14.7511 51.7423 14.6245C51.396 14.569 51.1363 14.5227 51.0745 14.9641C51.0621 14.9826 51.0064 14.995 50.923 15.0413Z" fill="#28231E"/>
<path d="M28.8409 23.953C29.6448 23.243 29.8056 23.0239 29.1779 22.2707C29.2367 22.246 29.3201 22.1935 29.3356 22.2089C29.8427 22.7152 30.3405 23.2276 30.8042 23.7925C30.4332 23.7462 30.1951 23.2523 29.7839 23.5178C29.4778 23.7153 29.2088 23.9746 28.878 24.2432C29.518 24.8852 30.1147 25.4995 30.7362 26.0891C30.8104 26.1601 31.0701 26.1509 31.1536 26.0768C31.5556 25.7156 31.9668 25.3544 32.2914 24.9285C32.6748 24.4253 32.4676 23.8758 32.2419 23.3542C32.2017 23.2585 32.2048 23.1443 32.1894 23.0393C32.2358 23.03 32.279 23.0208 32.3254 23.0115C32.6686 23.6412 33.0087 24.274 33.3519 24.9038C33.3334 24.9408 33.3148 24.9779 33.2963 25.0149C32.8943 24.6753 32.7119 24.9995 32.4955 25.2063C31.6761 25.9934 30.863 26.7837 30.0436 27.5677C29.9602 27.6449 29.8458 27.6912 29.7468 27.7498C29.7252 27.7159 29.7035 27.6819 29.6819 27.6449C29.7252 27.5893 29.7654 27.5338 29.8087 27.4813C30.1488 27.08 30.1457 26.8114 29.787 26.4132C29.4809 26.0737 29.1686 25.7434 28.8533 25.4131C28.2225 24.7525 27.5918 24.095 26.9518 23.4437C26.3983 22.8788 26.185 22.8726 25.4862 23.3233C25.5295 23.2307 25.5512 23.1134 25.6192 23.0486C26.3427 22.3417 27.0754 21.644 27.802 20.9402C27.9102 20.8384 28.0154 20.7365 28.1205 20.6316C28.2875 20.4649 28.4946 20.3043 28.2009 20.008C28.8533 20.2056 29.3541 20.6007 29.9014 20.9063C29.9509 20.9341 29.9478 21.0483 29.9571 21.0699C29.4716 20.9958 29.011 20.8291 28.5781 20.8847C27.901 20.9742 27.5114 21.5484 27.1373 22.0639C27.0754 22.1503 27.1868 22.4528 27.3042 22.567C27.7835 23.0424 28.3029 23.4776 28.8409 23.953Z" fill="#28231E"/>
<path d="M107.646 76.8031C108.008 76.5129 109.82 76.5963 109.934 76.8525C109.538 76.9975 109.13 77.121 108.747 77.2939C107.924 77.6705 107.615 78.6521 107.89 79.4886C108.042 79.9517 108.336 80.2604 108.852 80.3406C109.371 80.4209 109.752 80.2048 110.008 79.7881C110.253 79.3929 110.438 78.9608 110.667 78.5533C110.877 78.1829 111.084 77.8032 111.338 77.4637C111.987 76.5963 113.338 76.7352 113.895 77.7507C113.935 77.8248 113.994 77.9082 113.991 77.9853C113.96 78.7293 113.904 79.4732 113.883 80.2171C113.876 80.4332 113.954 80.6493 113.994 80.8839C113.672 80.9395 113.351 80.9981 113.026 81.0444C112.714 81.0876 112.402 81.1154 112.089 81.1525C112.074 81.1092 112.058 81.0691 112.04 81.0259C112.145 80.9672 112.244 80.887 112.355 80.8561C112.819 80.7234 113.208 80.4826 113.511 80.106C113.845 79.6924 113.972 79.2108 113.913 78.6953C113.861 78.2354 113.607 77.8958 113.144 77.7569C112.708 77.6273 112.228 77.7878 111.95 78.2138C111.709 78.5811 111.536 78.9917 111.332 79.3806C111.171 79.6831 111.023 79.9949 110.84 80.285C110.398 80.9734 109.767 81.3068 108.951 81.1308C108.197 80.9672 107.804 80.4054 107.625 79.6985C107.433 78.9484 107.513 78.2138 107.878 77.5223C108.039 77.2198 108.15 76.942 107.646 76.8031Z" fill="#28231E"/>
<path d="M45.7688 13.0194C46.1491 12.828 46.5078 12.6922 46.8139 12.4823C47.1756 12.2322 46.9035 11.8093 46.9839 11.4636C47.3179 12.155 47.6147 12.8311 47.8156 13.6367C47.5034 13.325 47.2962 12.9422 47.052 12.9144C46.6655 12.8712 46.2543 13.0657 45.8245 13.1675C46.1213 13.9825 46.3903 14.7418 46.6778 15.495C46.783 15.7698 46.9654 15.9118 47.2869 15.779C47.5467 15.671 47.8249 15.6092 48.0877 15.5105C48.9442 15.1894 49.2441 14.7542 49.2564 13.8405C49.2564 13.7201 49.2564 13.6028 49.2564 13.467C49.4914 13.5534 49.6955 15.0258 49.5842 15.6525C49.1853 15.1431 48.7958 15.529 48.4247 15.6555C47.358 16.0167 46.3037 16.4118 45.1814 16.7359C45.2278 16.6742 45.2587 16.5878 45.3205 16.5507C45.8399 16.2544 45.942 16.1124 45.7596 15.5815C45.2772 14.18 44.7702 12.7879 44.2507 11.3988C44.0776 10.9388 43.8673 10.8709 43.3726 10.9882C43.2923 11.0067 43.2088 11.0067 43.1284 11.016C43.1129 10.9882 43.1006 10.9573 43.0851 10.9296C43.1933 10.8678 43.2953 10.7845 43.4097 10.7444C44.4548 10.3647 45.506 9.99116 46.5542 9.61148C46.7768 9.53122 47.0674 9.47875 46.885 9.11141C47.2498 9.1608 48.1743 10.5221 48.0073 10.8586C47.8744 10.6919 47.7662 10.5406 47.6425 10.4048C47.2251 9.94795 46.718 9.83065 46.1368 10.0375C45.8832 10.127 45.6297 10.2134 45.3762 10.306C45.0361 10.4264 44.9248 10.661 45.0453 11.0006C45.2679 11.6426 45.5029 12.2847 45.7688 13.0194Z" fill="#28231E"/>
<path d="M75.3858 131.842C75.092 131.039 74.8354 130.317 74.5602 129.601C74.3995 129.184 74.2541 129.125 73.8182 129.264C73.5492 129.348 73.2833 129.437 73.0205 129.539C72.2228 129.851 71.9538 130.249 71.9507 131.107C71.9507 131.252 71.9507 131.397 71.9507 131.579C71.8549 131.548 71.759 131.539 71.759 131.518C71.691 130.811 71.6291 130.104 71.623 129.36C71.8703 129.786 72.1609 129.594 72.433 129.496C73.5028 129.11 74.5726 128.718 75.6424 128.332C75.7599 128.289 75.8866 128.27 76.0072 128.239C76.0227 128.27 76.0381 128.304 76.0536 128.335C75.9547 128.4 75.8619 128.477 75.7568 128.53C75.3796 128.73 75.2714 128.909 75.4074 129.301C75.9021 130.721 76.3999 132.138 76.9255 133.546C77.1388 134.114 77.4295 134.191 77.8654 134.018C77.9304 133.99 78.0138 134.009 78.088 134.003C78.1004 134.036 78.1128 134.067 78.1251 134.101C78.0293 134.148 77.9396 134.203 77.8407 134.24C76.774 134.632 75.7042 135.018 74.6406 135.416C74.4613 135.481 74.1366 135.46 74.3067 135.824C74.2325 135.845 74.1057 135.907 74.0934 135.885C73.744 135.395 73.4039 134.898 73.073 134.398C73.0545 134.373 73.1101 134.299 73.172 134.157C73.373 134.379 73.5245 134.57 73.6976 134.737C74.0408 135.064 74.4675 135.12 74.9034 135.024C75.2219 134.953 75.5218 134.799 75.8372 134.7C76.2051 134.583 76.2731 134.324 76.1618 134.006C75.9392 133.36 75.698 132.725 75.4661 132.089C74.4366 132.175 74.0872 132.595 74.3191 133.512C74.2325 133.49 74.1212 133.49 74.1088 133.456C73.8738 132.826 73.6512 132.194 73.4317 131.561C73.4193 131.527 73.4503 131.477 73.4533 131.462C73.7069 131.684 73.9326 132.045 74.2078 132.089C74.5602 132.138 74.9529 131.941 75.3858 131.842Z" fill="#28231E"/>
<path d="M93.0032 125.078C92.0694 124.68 91.2748 124.121 91.2686 123.844C91.4603 123.921 91.6366 123.995 91.8159 124.063C92.4405 124.301 92.9599 124.118 93.4391 123.686C94.3203 122.893 94.3265 122.877 93.5102 122.032C93.167 121.677 92.8331 121.316 92.459 120.924C92.2488 121.127 92.0478 121.303 91.8716 121.501C91.5469 121.868 91.55 122.112 91.8468 122.51C91.9025 122.587 91.921 122.689 91.9581 122.779C91.8623 122.732 91.7448 122.708 91.6737 122.637C91.2934 122.251 90.9193 121.856 90.5513 121.458C90.4833 121.383 90.4493 121.282 90.3813 121.158C90.7276 121.309 91.0522 121.587 91.2717 121.519C91.6458 121.402 91.955 121.072 92.3353 120.8C91.7015 120.152 91.1233 119.553 90.5359 118.963C90.3504 118.778 90.137 118.79 89.9453 118.97C89.664 119.229 89.3764 119.482 89.1105 119.757C88.656 120.223 88.5942 120.763 88.8384 121.353C88.9126 121.532 88.9807 121.711 89.0827 121.967C88.9528 121.933 88.8508 121.933 88.8292 121.893C88.5138 121.325 88.2046 120.754 87.9016 120.18C87.8861 120.149 87.9171 120.09 87.9356 119.997C88.2355 120.303 88.4241 120.084 88.6189 119.899C89.4661 119.087 90.3071 118.272 91.1573 117.463C91.247 117.38 91.3614 117.321 91.4634 117.253C91.4851 117.281 91.5067 117.309 91.5253 117.337C91.5036 117.377 91.4943 117.429 91.4603 117.454C90.9718 117.84 91.0708 118.244 91.4882 118.679C92.4034 119.633 93.3185 120.584 94.2337 121.535C94.3265 121.63 94.4316 121.72 94.5398 121.803C94.9016 122.09 95.0469 122.087 95.4148 121.809C95.4952 121.748 95.5942 121.704 95.6838 121.655C95.7055 121.683 95.7271 121.711 95.7487 121.738C95.6931 121.806 95.6436 121.88 95.5818 121.942C94.8274 122.671 94.0699 123.396 93.3185 124.128C93.0681 124.365 92.6909 124.557 93.0032 125.078Z" fill="#28231E"/>
<path d="M99.6878 28.0061C99.932 28.0524 101.113 29.6452 101.401 30.3243C101.265 30.2533 101.175 30.2317 101.119 30.1761C100.696 29.7409 100.507 29.6977 100.012 30.0279C99.1838 30.5774 98.3645 31.1454 97.5513 31.7195C97.3318 31.8739 97.1339 32.0684 96.9638 32.2752C96.429 32.9296 96.4042 33.6396 96.8711 34.3002C97.4214 35.0811 98.0707 35.325 98.9024 35.0194C99.2549 34.8897 99.5981 34.7076 99.9135 34.5039C100.553 34.0903 101.178 33.6488 101.803 33.2105C102.483 32.7351 102.545 32.4943 102.211 31.7288C102.198 31.701 102.208 31.664 102.208 31.6269C102.48 31.6856 103.506 33.1333 103.506 33.442C103.494 33.4451 103.475 33.4513 103.472 33.4451C102.913 32.8524 102.39 33.1117 101.855 33.4976C101.206 33.9637 100.56 34.4391 99.8733 34.8434C99.4373 35.0997 98.9488 35.288 98.4572 35.4207C98.0027 35.5472 97.5575 35.3867 97.1648 35.1274C96.2991 34.5625 95.7024 33.334 95.8817 32.482C96.0146 31.8461 96.4506 31.4263 96.9484 31.0713C97.7585 30.491 98.5902 29.9384 99.4064 29.3643C99.997 28.9475 100.037 28.7376 99.7001 28.1048C99.6878 28.0894 99.694 28.0616 99.6878 28.0061Z" fill="#28231E"/>
<path d="M61.4477 131.339C62.1681 131.339 62.8854 131.339 63.6058 131.339C63.6243 131.366 63.6429 131.394 63.6614 131.422C62.6597 131.678 62.5824 132.576 62.2825 133.308C61.8836 134.293 61.5219 135.293 61.1446 136.287C60.9282 136.858 60.9282 136.858 61.1137 137.475C60.9962 137.549 60.8695 137.623 60.752 137.707C60.6345 137.787 60.5263 137.88 60.3686 138C60.0625 137.231 59.778 136.512 59.4936 135.79C59.0638 134.697 58.6495 133.601 58.2043 132.518C58.0311 132.098 57.9013 131.607 57.3107 131.552C57.2891 131.548 57.2767 131.45 57.2551 131.369C58.1146 131.369 58.9463 131.369 59.778 131.369C59.7904 131.4 59.7997 131.434 59.8121 131.465C59.7131 131.499 59.6173 131.555 59.5152 131.567C59.1226 131.623 58.9773 131.826 59.0793 132.206C59.4039 133.422 59.4039 133.422 60.65 133.422C61.0828 133.422 61.5126 133.422 61.9764 133.422C62.1 133.076 62.233 132.74 62.3381 132.394C62.4834 131.916 62.2948 131.641 61.797 131.567C61.6703 131.548 61.5497 131.511 61.426 131.481C61.4322 131.431 61.4415 131.385 61.4477 131.339ZM60.7829 136.574C61.1632 135.564 61.5188 134.629 61.8681 133.706C61.1199 133.706 60.4057 133.706 59.6451 133.706C60.0316 134.679 60.3933 135.592 60.7829 136.574Z" fill="#28231E"/>
<path d="M59.7966 13.6583C59.0267 13.6583 58.3156 13.6583 57.5736 13.6583C57.6014 13.5935 57.6076 13.541 57.6261 13.538C58.195 13.4299 58.4145 12.9731 58.5939 12.5162C59.138 11.121 59.6698 9.72261 60.1769 8.31191C60.2542 8.09892 60.1614 7.82728 60.1429 7.50624C60.3068 7.38586 60.551 7.20682 60.8262 7C60.9066 7.19756 60.9808 7.37351 61.0519 7.55255C61.6981 9.19167 62.335 10.8339 62.9905 12.4699C63.1729 12.9299 63.3244 13.4423 63.9706 13.4947C63.7264 13.754 61.559 13.751 61.3951 13.5318C61.4106 13.5133 61.4229 13.4824 61.4415 13.4793C62.1835 13.3404 62.2732 13.1799 62.0073 12.4606C61.6703 11.5531 61.6703 11.55 60.6871 11.5562C60.2789 11.5593 59.8708 11.5624 59.4658 11.5809C59.373 11.584 59.2277 11.6365 59.1999 11.7044C59.0576 12.0408 58.9154 12.3866 58.835 12.7416C58.7454 13.1552 58.9834 13.4207 59.4132 13.4639C59.5091 13.4731 59.608 13.4824 59.7007 13.504C59.7255 13.5071 59.7379 13.5596 59.7966 13.6583ZM60.4181 8.42921C60.0439 9.4201 59.6915 10.3523 59.3359 11.3C60.0811 11.3 60.7891 11.3 61.5497 11.3C61.1725 10.3462 60.8107 9.42627 60.4181 8.42921Z" fill="#28231E"/>
<path d="M21.3617 117.062C20.8423 116.306 20.3228 115.546 19.8034 114.79C19.8436 114.759 19.8838 114.728 19.924 114.694C19.9951 114.762 20.0724 114.827 20.1373 114.898C20.4805 115.265 20.632 115.318 21.0649 115.046C21.7513 114.614 22.416 114.151 23.0777 113.679C23.4672 113.401 23.8537 113.111 24.1938 112.777C24.7411 112.24 24.8029 111.475 24.4041 110.823C23.9248 110.036 23.223 109.724 22.4531 109.925C21.6678 110.129 21.0649 110.641 20.4187 111.08C20.0013 111.364 19.5808 111.638 19.185 111.95C18.6934 112.336 18.6532 112.601 18.9284 113.166C18.9624 113.234 18.9717 113.311 18.9933 113.382C18.9531 113.404 18.9129 113.429 18.8727 113.45C18.4553 112.848 18.0379 112.246 17.6205 111.641C17.6422 111.617 17.6638 111.595 17.6824 111.57C17.7318 111.583 17.7968 111.58 17.8308 111.607C18.3193 112.015 18.5172 112.043 19.0428 111.697C19.7694 111.215 20.4805 110.709 21.204 110.221C21.7173 109.876 22.2614 109.61 22.8983 109.567C23.5847 109.521 24.1165 109.82 24.5401 110.32C25.0596 110.934 25.4584 111.598 25.3038 112.453C25.177 113.16 24.6885 113.608 24.1351 113.994C23.3312 114.558 22.518 115.111 21.7142 115.676C21.2164 116.025 21.17 116.235 21.4328 116.778C21.4668 116.849 21.4514 116.945 21.4575 117.028C21.4266 117.043 21.3926 117.053 21.3617 117.062Z" fill="#28231E"/>
<path d="M64.153 9.24106C64.4251 8.55886 64.6972 7.87667 64.9693 7.19447C65.0064 7.19139 65.0404 7.1883 65.0775 7.1883C65.1022 7.56489 65.3434 7.58959 65.6278 7.62972C66.8646 7.80258 68.0982 8.01866 69.335 8.19153C69.5143 8.21622 69.7153 8.09275 69.9843 8.01558C70.043 8.68234 70.108 9.43244 70.176 10.1856C70.142 10.1949 70.108 10.2072 70.0739 10.2165C70.0307 10.1733 69.9688 10.1362 69.9503 10.0838C69.8173 9.71643 69.7153 9.33366 69.5576 8.97867C69.3133 8.43847 68.63 8.1267 68.0704 8.29957C67.9529 8.33661 67.8231 8.50947 67.7952 8.64221C67.6778 9.21636 67.5881 9.79669 67.5015 10.377C67.3624 11.2969 67.2449 12.2199 67.0934 13.1398C66.9944 13.7386 67.0903 13.9207 67.6808 14.1214C67.7458 14.143 67.8076 14.1739 67.8602 14.2109C67.8725 14.2202 67.854 14.2757 67.8447 14.3467C66.9326 14.2078 66.0298 14.0689 65.1239 13.93C65.127 13.8837 65.127 13.8374 65.1301 13.7942C65.2383 13.7849 65.3527 13.7571 65.4578 13.7726C65.8845 13.8281 66.0854 13.5966 66.1504 13.2262C66.2833 12.4761 66.4008 11.7198 66.5183 10.9666C66.6389 10.2011 66.7471 9.43244 66.8677 8.6669C66.9357 8.23166 66.8244 8.09583 66.4163 7.98471C65.733 7.79641 65.2414 8.03718 64.858 8.58664C64.725 8.77803 64.6013 8.97867 64.4591 9.16389C64.4035 9.23488 64.3107 9.2781 64.2334 9.33058C64.2087 9.29662 64.1809 9.26884 64.153 9.24106Z" fill="#28231E"/>
<path d="M51.2043 136.978C51.1487 136.311 51.0899 135.577 51.0312 134.842C51.0714 134.83 51.1116 134.814 51.1487 134.802C51.2012 134.898 51.2692 134.987 51.3094 135.089C51.4424 135.429 51.5475 135.781 51.6928 136.114C51.9464 136.688 52.6606 136.787 53.078 136.728C53.2048 136.71 53.3717 136.497 53.4057 136.349C53.5325 135.777 53.616 135.194 53.7025 134.614C53.8417 133.694 53.9561 132.771 54.1045 131.854C54.1972 131.268 54.0859 131.058 53.5294 130.906C53.4645 130.888 53.3995 130.863 53.3408 130.829C53.3253 130.82 53.3377 130.761 53.3377 130.666C54.256 130.805 55.1619 130.943 56.0647 131.079C56.0647 131.126 56.0678 131.172 56.0678 131.215C55.941 131.231 55.8112 131.264 55.6875 131.255C55.3165 131.224 55.097 131.373 55.0351 131.743C54.9146 132.478 54.7878 133.212 54.6703 133.95C54.5466 134.722 54.4415 135.5 54.3116 136.271C54.2313 136.762 54.3951 136.95 54.8805 137.055C55.5731 137.204 56.0122 136.876 56.3832 136.373C56.5223 136.185 56.6367 135.981 56.7728 135.79C56.8099 135.737 56.881 135.706 56.9335 135.666C56.9675 135.688 56.9985 135.713 57.0325 135.734C56.7573 136.426 56.4821 137.117 56.207 137.806C56.1698 137.809 56.1327 137.815 56.0987 137.818C56.1018 137.488 55.9194 137.441 55.6597 137.404C54.4229 137.228 53.1893 137.012 51.9525 136.842C51.7268 136.812 51.4764 136.926 51.2043 136.978Z" fill="#28231E"/>
<path d="M41.0414 11.3494C41.5268 11.868 42.0091 12.3866 42.4946 12.9052C42.4698 12.9453 42.4451 12.9854 42.4234 13.0255C42.309 12.9669 42.1854 12.9237 42.0833 12.8465C41.029 12.0501 39.6253 12.2291 38.8894 13.2756C38.4597 13.8868 38.4164 14.5751 38.5803 15.2851C38.7967 16.2359 39.2295 17.0601 40.052 17.625C41.4835 18.6128 43.4345 17.8935 43.8859 16.2143C43.9385 16.0198 43.9539 15.8161 43.9879 15.6154C44.0467 15.6247 44.1054 15.6339 44.1672 15.6432C44.1178 15.9519 44.1147 16.276 44.0157 16.5693C43.5829 17.8626 42.6059 18.5448 41.3073 18.6961C40.0551 18.8412 39.0564 18.2886 38.3546 17.2484C37.0281 15.2789 37.8629 12.9144 40.1478 12.1365C40.2993 12.0841 40.4477 12.0347 40.6023 11.9884C40.8868 11.905 41.0939 11.7754 40.9177 11.3988C40.9548 11.3864 40.9981 11.3679 41.0414 11.3494Z" fill="#28231E"/>
<path d="M80.1596 133.638C79.3279 132.925 78.7435 132.181 78.8084 132.036C79.2629 132.231 79.702 132.478 80.172 132.604C81.1397 132.86 82.5743 132.163 82.6856 130.73C82.7939 129.323 82.2559 128.141 81.0624 127.344C79.6432 126.397 77.7541 127.131 77.3213 128.761C77.2687 128.959 77.2471 129.162 77.21 129.366C77.1512 129.357 77.0925 129.344 77.0306 129.335C77.0832 129.03 77.1079 128.715 77.1945 128.418C77.4975 127.357 78.558 126.458 79.804 126.322C81.2263 126.168 82.2992 126.779 82.9948 128.002C84.1017 129.949 83.1741 132.166 80.982 132.891C80.8305 132.941 80.679 132.984 80.5306 133.039C80.3265 133.117 80.0823 133.175 80.2462 133.496C80.2585 133.521 80.1905 133.586 80.1596 133.638Z" fill="#28231E"/>
<path d="M97.069 24.8945C97.1401 24.913 97.239 24.9069 97.2792 24.9532C97.845 25.6199 98.4016 26.2929 98.9581 26.9689C98.9859 27.0028 98.9766 27.0676 98.9952 27.188C98.8839 27.1201 98.8221 27.0954 98.7788 27.0553C98.3521 26.6386 98.1573 26.6015 97.6997 26.975C96.6578 27.8208 95.6313 28.6882 94.5986 29.5464C94.1904 29.8829 93.8009 30.2502 93.3618 30.5435C92.224 31.309 91.2315 30.8737 90.6255 29.8489C90.5451 29.71 90.4617 29.4847 90.5204 29.3766C90.5915 29.2408 90.811 29.1111 90.9687 29.1142C91.2192 29.1142 91.3026 29.3519 91.2717 29.5742C91.2254 29.8983 91.1419 30.2379 91.482 30.4354C91.8314 30.6391 92.1313 30.4107 92.3848 30.207C93.3185 29.46 94.2399 28.6975 95.1613 27.9381C95.7024 27.4906 96.2403 27.0368 96.7783 26.5861C96.8742 26.5058 96.97 26.4287 97.0566 26.3422C97.5482 25.8669 97.5637 25.657 97.1432 25.1168C97.1092 25.0705 97.0721 25.0272 97.038 24.9809C97.0473 24.947 97.0597 24.9192 97.069 24.8945Z" fill="#28231E"/>
<path d="M23.9836 120.139C23.3807 119.414 22.7778 118.689 22.1748 117.963C22.1934 117.932 22.212 117.901 22.2305 117.874C22.3016 117.901 22.3944 117.908 22.4377 117.96C22.8272 118.432 23.1766 118.318 23.5847 117.988C24.3577 117.358 25.1183 116.71 25.8851 116.071C26.4818 115.574 27.0662 115.062 27.6784 114.583C28.6956 113.784 29.8458 113.981 30.5229 115.058C30.6002 115.179 30.6589 115.324 30.6836 115.463C30.7269 115.719 30.5971 115.932 30.3466 115.926C30.2075 115.923 30.0653 115.728 29.9385 115.605C29.9076 115.574 29.9138 115.484 29.9292 115.429C30.0158 115.114 30.0529 114.784 29.7406 114.599C29.4314 114.416 29.1068 114.568 28.8502 114.771C28.0092 115.438 27.1806 116.117 26.355 116.799C25.6625 117.374 24.9792 117.96 24.2866 118.531C23.6558 119.047 23.6249 119.192 24.0392 119.877C24.0794 119.945 24.0794 120.041 24.098 120.124C24.0547 120.124 24.0176 120.13 23.9836 120.139Z" fill="#28231E"/>
<path d="M113.524 82.3995C113.638 82.4921 113.641 82.5323 113.552 83.2886C113.511 83.6281 113.456 83.9677 113.403 84.3041C113.351 84.6283 113.289 84.9524 113.233 85.2734C113.202 85.2827 113.168 85.2888 113.137 85.2981C113.11 85.2148 113.051 85.1283 113.06 85.0512C113.153 84.3998 113.057 84.2208 112.42 84.1035C111.251 83.8874 110.08 83.7053 108.908 83.5139C108.571 83.4583 108.231 83.4151 107.89 83.3626C107.587 83.3163 107.417 83.4738 107.359 83.7454C107.284 84.0788 107.226 84.4184 107.182 84.7579C107.068 85.6407 107.6 86.113 108.302 86.4711C108.441 86.5421 108.568 86.6378 108.701 86.7211C108.673 86.7705 108.642 86.823 108.614 86.8724C107.866 86.539 107.121 86.2056 106.351 85.8599C107.124 85.471 106.883 84.7301 107.019 84.156C107.207 83.3503 107.284 82.5168 107.414 81.6957C107.43 81.6062 107.485 81.5229 107.523 81.4395C107.557 81.4426 107.594 81.4426 107.628 81.4457C107.628 81.563 107.634 81.6834 107.628 81.8007C107.6 82.1649 107.776 82.3995 108.119 82.4675C108.815 82.6064 109.514 82.7237 110.212 82.841C110.902 82.9552 111.591 83.0601 112.281 83.1651C112.463 83.1929 112.646 83.2021 112.831 83.2145C113.147 83.233 113.341 83.0879 113.419 82.7761C113.437 82.6496 113.484 82.5292 113.524 82.3995Z" fill="#28231E"/>
<path d="M13.598 63.5327C13.5918 63.4432 13.5795 63.3567 13.5795 63.2672C13.5795 62.7826 13.4465 62.5881 12.9766 62.4893C12.4355 62.3782 11.8913 62.2918 11.3472 62.2084C10.4381 62.0664 9.52914 61.9213 8.61704 61.8071C8.02959 61.733 7.9121 61.8318 7.72968 62.3875C7.70804 62.4585 7.64311 62.514 7.57199 62.5541C7.64311 61.0725 7.91519 59.8099 8.13162 59.7698C8.1409 59.7914 8.16254 59.813 8.15945 59.8315C8.01104 60.6002 8.11616 60.7885 8.87676 60.9274C10.3237 61.1867 11.7769 61.4182 13.227 61.6559C13.5084 61.7022 13.7464 61.5941 13.7959 61.3132C13.8918 60.7854 14.0031 60.2483 13.9845 59.7173C13.966 59.1401 13.4836 58.8499 13.026 58.5875C12.8529 58.4888 12.6828 58.39 12.5128 58.2912C12.5375 58.2418 12.5623 58.1955 12.587 58.1461C13.3352 58.4795 14.0804 58.8129 14.8286 59.1463C14.1453 59.3284 14.3494 59.9087 14.2721 60.2946C14.0742 61.2793 13.9536 62.2763 13.7959 63.2703C13.7804 63.3629 13.731 63.4493 13.697 63.5389C13.663 63.5419 13.6289 63.5389 13.598 63.5327Z" fill="#28231E"/>
<path d="M102.761 103.455C102.947 103.223 103.107 103.091 103.178 102.921C103.534 102.103 103.865 101.276 104.205 100.448C104.233 100.384 104.27 100.322 104.353 100.152C104.394 100.334 104.446 100.427 104.428 100.501C104.347 100.831 104.499 101.019 104.783 101.137C105.677 101.504 106.573 101.865 107.464 102.239C107.884 102.418 108.141 102.254 108.302 101.825C108.339 101.85 108.376 101.875 108.413 101.902C108.394 102.026 108.398 102.155 108.351 102.267C108.061 102.992 107.751 103.711 107.473 104.443C107.408 104.609 107.445 104.816 107.433 105.106C107.022 105.051 106.518 104.983 106.011 104.912C106.004 104.869 106.001 104.826 105.995 104.782C106.091 104.748 106.187 104.693 106.283 104.69C106.985 104.653 107.584 104.066 107.584 103.378C107.584 103.285 107.479 103.149 107.387 103.106C106.932 102.896 106.465 102.711 106.011 102.52C105.627 103.119 105.667 103.313 106.23 103.77C105.986 103.94 104.656 103.399 104.613 103.128C104.851 103.128 105.145 103.211 105.321 103.106C105.513 102.992 105.596 102.699 105.766 102.421C105.207 102.202 104.703 101.992 104.186 101.816C104.106 101.788 103.914 101.896 103.868 101.989C103.713 102.307 103.559 102.634 103.478 102.973C103.364 103.461 103.633 103.816 103.995 104.116C104.091 104.196 104.165 104.298 104.248 104.39C104.211 104.43 104.171 104.474 104.134 104.514C103.655 104.143 103.175 103.776 102.761 103.455Z" fill="#28231E"/>
<path d="M13.6784 39.8905C14.1762 39.9614 14.674 40.0324 15.1718 40.1065C15.1718 40.1559 15.1718 40.2022 15.1718 40.2516C15.0821 40.267 14.9925 40.2917 14.8997 40.2948C14.204 40.3319 13.5826 40.9554 13.6104 41.6376C13.6135 41.7518 13.7804 41.9 13.9041 41.9617C14.3122 42.1562 14.7358 42.3167 15.2336 42.5205C15.3047 42.2457 15.447 41.9833 15.4099 41.7487C15.3758 41.5419 15.1409 41.3691 15.0079 41.0974C15.5521 41.3166 16.0963 41.5357 16.6404 41.7549C16.6311 41.7827 16.6188 41.8074 16.6095 41.8352C16.3498 41.863 16.0468 41.8166 15.8427 41.937C15.6603 42.042 15.5892 42.3352 15.4346 42.6007C15.988 42.8199 16.4889 43.0329 17.0022 43.2088C17.0764 43.2335 17.2619 43.1131 17.3083 43.0174C17.4659 42.6995 17.6113 42.3692 17.7071 42.0296C17.806 41.6901 17.6886 41.3783 17.4381 41.119C17.2804 40.9554 17.1289 40.7856 16.9774 40.619C17.2062 40.5603 18.2049 41.2703 18.4059 41.5913C18.242 41.8043 18.0627 41.9648 17.9761 42.1655C17.6391 42.9403 17.333 43.7274 17.0084 44.5053C16.9712 44.5948 16.8847 44.6627 16.7888 44.7121C16.8105 44.0546 16.7888 44.0052 16.1859 43.7552C15.4284 43.4372 14.6647 43.1317 13.9041 42.8261C13.5331 42.6779 13.1652 42.5513 12.9426 43.0545C12.9302 43.0792 12.8591 43.0792 12.7447 43.107C12.788 42.9372 12.8065 42.8106 12.8529 42.6964C13.1281 42.0111 13.4156 41.332 13.6908 40.6467C13.7835 40.4183 13.9691 40.1775 13.564 39.9615C13.6011 39.9368 13.6413 39.9151 13.6784 39.8905Z" fill="#28231E"/>
<path d="M109.393 45.3141C109.699 46.1784 110.005 47.0427 110.311 47.907C110.262 47.9255 110.216 47.9471 110.166 47.9657C110.123 47.8916 110.076 47.8206 110.039 47.7434C109.829 47.3051 109.616 47.1785 109.155 47.339C107.758 47.8206 106.366 48.3176 104.984 48.8331C104.459 49.0275 104.387 49.2189 104.508 49.7684C104.523 49.8425 104.517 49.9227 104.462 50.0153C104.047 49.1757 103.732 48.3083 103.454 47.4316C103.5 47.4131 103.546 47.3915 103.596 47.373C103.642 47.4471 103.692 47.5212 103.732 47.5983C103.951 48.0459 104.159 48.1694 104.61 48.012C106.004 47.5273 107.396 47.0273 108.778 46.5087C109.288 46.3173 109.378 46.0765 109.251 45.561C109.232 45.4838 109.263 45.3943 109.273 45.311C109.31 45.3141 109.353 45.3141 109.393 45.3141Z" fill="#28231E"/>
<path d="M19.9549 30.1977C19.6673 31.1732 19.6643 31.1763 20.5423 31.772C21.5194 32.4357 22.4995 33.0932 23.4827 33.7507C23.6064 33.834 23.7331 33.9081 23.863 33.976C24.1753 34.1458 24.4597 34.1149 24.6793 33.8217C24.7504 33.726 24.7875 33.6025 24.8864 33.5408C24.9884 33.8989 23.6651 35.8405 23.3745 35.893C23.3992 35.8158 23.4085 35.751 23.4394 35.6954C23.7177 35.1645 23.6899 34.9391 23.1983 34.5996C22.0326 33.797 20.8577 33.0068 19.6766 32.2289C19.2376 31.9387 18.9284 31.8986 18.5636 32.3832C18.5234 32.4357 18.4584 32.4696 18.3935 32.5221C18.3502 32.1918 19.6086 30.3181 19.9549 30.1977Z" fill="#28231E"/>
<path d="M97.8141 109.116C97.7801 109.2 97.7554 109.289 97.7121 109.369C97.4926 109.795 97.5235 110.064 97.9069 110.329C99.122 111.166 100.34 111.996 101.574 112.802C102.081 113.135 102.232 113.067 102.817 112.419C102.817 112.558 102.848 112.654 102.811 112.709C102.347 113.404 101.877 114.092 101.404 114.781C101.388 114.805 101.342 114.812 101.218 114.867C101.274 114.71 101.292 114.62 101.333 114.54C101.549 114.126 101.531 113.944 101.172 113.639C100.94 113.441 100.677 113.274 100.424 113.101C99.5177 112.487 98.6087 111.876 97.6966 111.265C97.5544 111.169 97.4029 111.086 97.2514 111.002C96.9391 110.836 96.6856 110.925 96.4784 111.194C96.4135 111.277 96.3486 111.357 96.2249 111.397C96.6021 110.546 97.1895 109.826 97.675 109.045C97.7244 109.07 97.7677 109.095 97.8141 109.116Z" fill="#28231E"/>
<path d="M17.67 97.6054C17.6144 97.5529 17.5371 97.5128 17.503 97.448C17.2464 96.9479 17.0362 96.8306 16.492 97.0189C15.1285 97.4912 13.7712 97.9789 12.42 98.4821C11.8975 98.6765 11.814 98.8864 11.9377 99.4236C11.9532 99.4915 11.947 99.5625 11.8944 99.652C11.4708 98.8371 11.208 97.9666 10.8927 97.1146C10.9267 97.093 10.9638 97.0745 10.9978 97.0529C11.0472 97.1146 11.106 97.1702 11.14 97.2381C11.3997 97.7443 11.5574 97.8431 12.1108 97.6517C13.4867 97.1794 14.8595 96.6824 16.2199 96.17C16.7579 95.9663 16.8136 95.8027 16.7023 95.2378C16.6868 95.1637 16.6992 95.0865 16.6992 95.0094C16.7363 95.0001 16.7734 94.9908 16.8136 94.9816C17.1258 95.8335 17.4381 96.6886 17.7504 97.5406C17.7257 97.5622 17.6978 97.5838 17.67 97.6054Z" fill="#28231E"/>
<path d="M108.936 59.6988C108.871 59.634 108.765 59.5784 108.744 59.5012C108.599 58.961 108.472 58.4147 108.339 57.8714C108.37 57.8467 108.401 57.822 108.428 57.7973C108.5 57.8683 108.608 57.927 108.633 58.0103C108.725 58.319 108.886 58.2727 109.102 58.143C109.854 57.6985 109.857 57.7016 109.644 56.8651C109.606 56.7231 109.588 56.5749 109.535 56.4391C109.48 56.2971 109.405 56.0687 109.313 56.0563C109.01 56.01 108.679 55.9915 108.391 56.0748C108.286 56.1057 108.271 56.4483 108.197 56.7076C108.141 56.6552 108.03 56.6027 108.008 56.5286C107.89 56.1304 107.792 55.726 107.699 55.3216C107.683 55.2568 107.739 55.1735 107.761 55.0994C107.819 55.1395 107.875 55.1796 107.934 55.2198C108.156 55.371 108.364 55.6118 108.608 55.655C109.644 55.8402 110.692 55.9668 111.737 56.1119C111.82 56.1242 111.944 56.1458 111.99 56.0995C112.466 55.6272 112.664 56.1304 112.986 56.3588C111.842 57.1583 110.723 57.9331 109.606 58.7172C109.288 58.9425 108.905 59.1339 109.028 59.6556C109 59.6679 108.966 59.6834 108.936 59.6988ZM111.601 56.402C111.598 56.3712 111.595 56.3403 111.595 56.3094C110.982 56.2323 110.367 56.1551 109.718 56.0748C109.835 56.5564 109.943 56.9916 110.061 57.4732C110.602 57.0966 111.103 56.7478 111.601 56.402Z" fill="#28231E"/>
<path d="M11.7429 88.9715C12.9456 89.0795 13.0044 89.0486 13.0013 88.3078C13.0693 88.385 13.1806 88.4529 13.2023 88.5424C13.3167 88.9653 13.4063 89.3974 13.5176 89.8759C13.4249 89.8605 13.3105 89.8667 13.295 89.8327C13.1157 89.4067 12.7168 89.3542 12.3458 89.2987C11.4492 89.1567 10.5495 89.0332 9.64354 88.9375C9.40856 88.9128 9.16121 89.0301 8.91695 89.0641C8.81492 89.0795 8.69125 89.0733 8.60777 89.0239C8.46245 88.9406 8.33878 88.814 8.17491 88.6844C9.053 88.0732 9.85997 87.5114 10.6639 86.9465C11.0565 86.6718 11.4461 86.3908 11.8357 86.1099C12.0521 85.9525 12.2314 85.7796 12.1943 85.474C12.1881 85.4185 12.2716 85.3537 12.3675 85.2117C12.5406 85.8908 12.6921 86.4773 12.8343 87.0669C12.8436 87.1039 12.788 87.178 12.7478 87.1965C12.7199 87.2089 12.6457 87.1595 12.621 87.1193C12.3366 86.681 12.3304 86.6779 11.8851 86.9804C11.3564 87.3385 11.3595 87.3385 11.5048 87.962C11.5852 88.2954 11.6625 88.6288 11.7429 88.9715ZM11.1338 87.5176C10.5711 87.9096 10.0548 88.2707 9.4673 88.6813C10.1908 88.7739 10.8246 88.8542 11.4987 88.9437C11.3688 88.4405 11.2544 87.9991 11.1338 87.5176Z" fill="#28231E"/>
<path d="M10.2866 74.1576C9.77649 74.1638 9.70229 74.0619 9.8476 73.6607C9.93417 73.4199 10.0084 73.1729 10.1135 72.9383C10.1537 72.8488 10.265 72.7161 10.3268 72.7253C10.6762 72.7747 11.0287 72.8334 11.3595 72.9445C11.5543 73.0093 11.5976 73.1976 11.477 73.4014C11.1957 73.886 10.7659 74.1206 10.2866 74.1576Z" fill="#28231E"/>
<path d="M112.34 72.6482C112.123 73.4816 111.424 73.8675 110.522 73.6545C110.636 73.2717 110.729 72.8828 110.874 72.5123C110.908 72.4228 111.121 72.3333 111.23 72.3549C111.598 72.4259 111.956 72.5432 112.34 72.6482Z" fill="#28231E"/>
</svg>
