<svg width="78" height="104" viewBox="0 0 78 104" fill="none" xmlns="http://www.w3.org/2000/svg">
<path d="M50.4801 47.9344C50.4058 47.9834 50.3359 48.03 50.266 48.0741C50.2953 48.0814 50.3246 48.0888 50.3517 48.0937C50.4373 48.6157 50.5252 49.1377 50.6109 49.6596C50.5951 49.667 50.5793 49.6719 50.5613 49.6792C50.5275 49.6229 50.4937 49.569 50.4238 49.4489C50.4238 49.7209 50.4238 49.9194 50.4238 50.1179C50.4012 50.1253 50.381 50.1326 50.3584 50.14C50.2502 49.9292 50.133 49.7258 50.0361 49.5102C49.5335 48.4 48.2916 48.0251 47.3991 48.2824C46.6643 48.4931 46.4344 49.5077 46.6869 49.9513C46.8987 50.0395 47.043 50.0934 47.1805 50.1596C47.6312 50.3752 48.082 50.5909 48.526 50.8163C49.0602 51.0884 49.5898 51.3702 50.1173 51.6569C50.1916 51.6986 50.2412 51.7966 50.3426 51.9191C50.1961 51.9191 50.124 51.9191 50.1037 51.9191C50.3156 52.2843 50.6063 52.6396 50.7461 53.0562C51.2329 54.4996 50.4441 55.9455 48.9903 56.318C47.8949 56.5998 46.8356 56.4503 45.8281 55.899C45.4202 55.6759 45.179 55.377 45.2241 54.8231C45.2602 54.382 45.197 53.9311 45.1722 53.392C45.3278 53.6101 45.4314 53.7547 45.5599 53.936C45.5509 53.7081 45.5419 53.512 45.5329 53.3135C45.5419 53.3086 45.5509 53.3037 45.5599 53.2988C45.5802 53.3503 45.605 53.3993 45.6185 53.4508C46.0107 54.8966 47.6245 55.698 48.8145 55.328C48.979 55.2765 49.1526 55.1368 49.2495 54.9849C49.6958 54.2717 49.5019 53.463 48.792 53.1077C48.2894 52.8553 47.7597 52.669 47.2458 52.446C46.6463 52.1862 46.0873 51.853 45.6794 51.2918C44.9762 50.3262 45.1542 48.6696 46.1594 47.8878C47.5028 46.839 49.2473 47.0791 50.408 47.8364C50.4215 47.8486 50.4305 47.8682 50.4801 47.9344Z" fill="#D8A70D"/>
<path d="M32.4288 47.9123C32.3499 47.981 32.2891 48.0349 32.226 48.0863C32.2508 48.0863 32.2756 48.0863 32.3003 48.0863C32.386 48.6108 32.4716 49.1377 32.5573 49.6621C32.5415 49.6694 32.5257 49.6743 32.51 49.6817C32.4761 49.6278 32.4423 49.5739 32.3815 49.4807C32.3815 49.716 32.3815 49.9145 32.3815 50.113C32.3589 50.1228 32.3364 50.1326 32.3139 50.14C32.2079 49.9439 32.0862 49.7577 31.9983 49.5518C31.5363 48.4588 30.3034 48.0226 29.359 48.2824C28.5454 48.5078 28.3538 49.6768 28.7708 50.0934C28.906 50.1326 29.0457 50.1571 29.1765 50.2135C29.758 50.4683 30.344 50.7134 30.9142 50.9952C31.3199 51.1962 31.7098 51.4388 32.0997 51.6741C32.2823 51.7843 32.3635 51.9412 32.1719 52.1446C32.4761 52.5024 32.6858 52.892 32.7782 53.3675C32.972 54.3796 32.5821 55.4284 31.7572 55.9578C31.0089 56.4356 30.1907 56.5263 29.3433 56.4185C28.7775 56.3474 28.2456 56.1734 27.7385 55.8818C27.3553 55.6612 27.1345 55.3794 27.175 54.8721C27.2111 54.4114 27.1818 53.9458 27.1818 53.4777C27.281 53.6174 27.3869 53.7645 27.5041 53.9286C27.5041 53.7498 27.5041 53.5856 27.5041 53.4238C27.5154 53.4214 27.5266 53.4189 27.5379 53.414C27.6574 53.7448 27.7678 54.0806 27.903 54.4016C27.9413 54.4947 28.0563 54.5536 28.1419 54.6173C28.2141 54.6712 28.302 54.7006 28.3718 54.7545C29.0953 55.3059 29.8797 55.5828 30.7587 55.3329C30.93 55.2838 31.1125 55.1319 31.2117 54.9702C31.6309 54.2913 31.4349 53.4704 30.7632 53.1273C30.2561 52.8675 29.7174 52.6788 29.1945 52.4558C28.613 52.2059 28.0721 51.8799 27.6619 51.3506C26.9293 50.4071 27.0804 48.7113 28.0788 47.9148C29.4199 46.8463 31.1779 47.0644 32.3454 47.8339C32.3702 47.8462 32.386 47.8707 32.4288 47.9123Z" fill="#D8A70D"/>
<path d="M42.4721 53.6468C42.4586 53.735 42.4428 53.8233 42.4293 53.9115C42.4405 53.9164 42.4518 53.9213 42.4608 53.9262C42.5465 53.7865 42.6321 53.6468 42.7538 53.4508C42.5848 54.4457 42.4293 55.3745 42.2693 56.3156C40.225 56.3156 38.2033 56.3156 36.1071 56.3156C36.2672 56.2592 36.3618 56.2249 36.4565 56.193C36.4565 56.1832 36.4565 56.1734 36.4565 56.1636C36.3055 56.1636 36.1567 56.1636 36.0057 56.1636C36.0057 56.1489 36.0035 56.1342 36.0035 56.122C36.1207 56.0877 36.2559 56.0828 36.3506 56.0141C36.5219 55.8892 36.7225 55.7593 36.8171 55.573C36.9343 55.3476 37.0109 55.0633 37.0132 54.8035C37.029 52.8259 37.0222 50.8482 37.0222 48.8705C37.0222 48.1721 36.7833 47.8535 36.1612 47.7212C36.2041 47.6991 36.2401 47.6795 36.2852 47.6575C36.1905 47.6207 36.1026 47.5864 35.9516 47.5276C36.2694 47.5276 36.5219 47.5276 36.7743 47.5276C36.7811 47.5055 36.7856 47.4859 36.7923 47.4639C36.6751 47.41 36.5557 47.356 36.4362 47.2997C37.5046 47.2997 38.5774 47.2997 39.666 47.2997C39.5533 47.3585 39.4519 47.4124 39.3279 47.4786C39.3933 47.5031 39.4361 47.5178 39.506 47.5447C39.3978 47.5864 39.3122 47.6183 39.1634 47.6746C39.3595 47.6746 39.4902 47.6746 39.6232 47.6746C39.6255 47.6893 39.6277 47.704 39.6277 47.7187C39.5849 47.731 39.5421 47.7432 39.4992 47.7555C38.9132 47.9344 38.6833 48.2848 38.6743 48.9024C38.6428 50.9193 38.6608 52.9361 38.663 54.953C38.663 55.1785 38.6901 55.4064 38.9876 55.2005C39.0146 55.1809 39.071 55.2054 39.1116 55.2152C39.7224 55.3941 40.3399 55.3672 40.9552 55.2569C41.3857 55.1809 41.6539 54.8354 41.9019 54.4874C42.0957 54.2154 42.2602 53.9164 42.436 53.6297C42.4473 53.637 42.4586 53.6419 42.4721 53.6468Z" fill="#D8A70D"/>
<path d="M71.4615 31.1329C70.9476 31.2407 70.436 31.3485 69.9266 31.4539C69.9108 31.4245 69.8905 31.4 69.8928 31.3951C70.1114 31.1133 69.9424 30.8682 69.8319 30.6182C69.4803 29.8291 69.1287 29.0425 68.7794 28.2534C68.7478 28.1847 68.7478 28.099 68.7659 28.0156C69.2099 28.5793 69.264 28.594 69.8793 28.273C70.6771 27.8539 71.475 27.4324 72.2706 27.0084C72.3811 26.9496 72.4847 26.881 72.5794 26.7634C71.182 26.7634 69.7869 26.7634 68.3895 26.7634C68.3714 26.7389 68.3557 26.7144 68.3376 26.6923C69.1445 25.5135 69.9514 24.3372 70.7853 23.1193C70.6862 23.1658 70.6185 23.1928 70.5532 23.2271C69.7463 23.6486 68.9349 24.0579 68.1393 24.5014C67.9454 24.6093 67.7606 24.8004 67.6479 25.0038C67.5803 25.1264 67.6615 25.3469 67.6367 25.543C67.3437 25.0969 67.1453 24.597 66.938 24.1044C66.9605 24.0848 66.983 24.0652 67.0056 24.0456C67.0574 24.102 67.1138 24.1559 67.1611 24.2172C67.3121 24.4108 67.4856 24.5333 67.7246 24.4181C68.1663 24.2049 68.6058 23.9917 69.0431 23.7662C69.5615 23.5016 70.0754 23.2247 70.5892 22.9526C71.0671 22.7002 71.1099 22.5948 70.9634 22.0508C70.9566 22.0263 70.9679 21.9969 70.9769 21.9258C71.0378 21.9675 71.0919 21.9895 71.1234 22.0312C71.1572 22.0729 71.1595 22.1415 71.191 22.188C71.6238 22.8056 71.5516 23.3178 71.0648 23.9108C70.4337 24.6803 69.9131 25.5552 69.3451 26.3835C69.3248 26.4129 69.309 26.4448 69.2752 26.5085C69.3767 26.5159 69.4533 26.5257 69.5277 26.5257C70.5284 26.533 71.5269 26.5355 72.5276 26.5428C72.8747 26.5453 72.8995 26.5061 72.78 26.1385C72.7575 26.0698 72.7642 25.9914 72.7597 25.9155C72.8138 25.9694 72.8882 26.0135 72.9198 26.0796C73.2466 26.7928 73.5599 27.5133 73.8912 28.224C74.0129 28.4837 74.0196 28.8954 74.4772 28.8513C74.3758 28.9518 74.2743 29.0523 74.1707 29.1503C73.9475 29.3635 73.7289 29.5816 73.499 29.7875C73.4584 29.8242 73.3795 29.8144 73.3187 29.8267C73.33 29.7678 73.3232 29.6919 73.3548 29.6527C74.0061 28.8881 73.8078 28.4494 73.4066 27.6137C73.2939 27.3785 73.1294 27.3638 72.931 27.4299C72.8634 27.452 72.8003 27.4937 72.7372 27.5255C72.336 27.7387 71.9325 27.9495 71.5156 28.1725C71.59 28.3416 71.6531 28.4984 71.7252 28.6504C71.9371 29.0939 72.0768 29.1527 72.5163 28.9935C72.5704 28.9738 72.6335 28.991 72.7011 29.0376C72.2165 29.3194 71.7635 29.6502 71.2046 29.8267C71.3849 29.5595 71.6283 29.361 71.6373 29.1478C71.6508 28.8636 71.4818 28.5695 71.3781 28.2362C70.7876 28.5548 70.2444 28.844 69.7035 29.138C69.5141 29.241 69.5299 29.4297 69.5953 29.5939C69.7283 29.9222 69.8703 30.2482 70.037 30.5545C70.1926 30.8363 70.4337 30.9956 70.7538 30.9883C70.9814 30.9809 71.2113 30.9883 71.4389 30.9883C71.448 31.0446 71.4547 31.0887 71.4615 31.1329Z" fill="#D8A70D"/>
<path d="M7.08845 82.1134C6.9149 81.7237 6.74586 81.3708 6.60387 81.0057C6.57682 80.9346 6.62415 80.7974 6.67599 80.7214C7.37018 79.702 8.07114 78.6874 8.76759 77.6704C8.80816 77.6116 8.83746 77.543 8.88479 77.4572C7.6722 77.4572 6.49117 77.4572 5.26281 77.4572C5.3169 77.6753 5.36649 77.864 5.41382 78.0551C5.39579 78.0698 5.3755 78.087 5.35747 78.1017C5.30789 78.038 5.24703 77.9792 5.21322 77.9057C4.85486 77.1116 4.50325 76.3127 4.14939 75.5163C4.06374 75.3227 4.00064 75.0899 3.70989 75.2541C3.79102 74.9453 4.64525 74.1611 4.87965 74.1954C4.77822 74.3302 4.69258 74.4503 4.60468 74.563C4.32745 74.9208 4.28237 75.3129 4.45367 75.7368C4.53706 75.9427 4.62271 76.1461 4.72188 76.3421C4.87289 76.6362 4.99009 76.673 5.27182 76.5431C5.32141 76.521 5.36874 76.4941 5.41833 76.4696C5.81952 76.2564 6.22071 76.0456 6.65796 75.8128C6.51146 75.5481 6.38975 75.2737 6.22071 75.0458C6.00208 74.7541 5.72485 75.0066 5.45664 74.9869C5.8984 74.6365 6.39651 74.4209 6.87659 74.166C6.89462 74.1954 6.91265 74.2248 6.93068 74.2542C6.86532 74.313 6.80446 74.3767 6.73459 74.4258C6.47314 74.6096 6.41679 74.7664 6.52949 75.0899C6.60387 75.3055 6.70078 75.5114 6.79545 75.7466C7.34539 75.4526 7.87505 75.1732 8.40246 74.8914C8.60531 74.7835 8.63912 74.5924 8.56023 74.3963C8.43176 74.0753 8.29878 73.7518 8.12523 73.4577C7.88182 73.046 7.4964 72.9382 7.06366 72.9897C6.9442 73.0044 6.82475 73.0068 6.70529 73.0142C6.70078 72.9676 6.69628 72.9235 6.69177 72.8769C7.2034 72.7667 7.71728 72.6564 8.22215 72.5486C8.24244 72.5902 8.26047 72.6172 8.25821 72.6196C8.01029 72.8647 8.18384 73.0926 8.28301 73.3181C8.66842 74.1856 9.05609 75.0507 9.44375 75.9182C9.42347 75.9402 9.40318 75.9598 9.3829 75.9819C9.33331 75.928 9.27021 75.8814 9.23414 75.8177C9.06285 75.5163 8.90282 75.4183 8.60756 75.5653C7.5843 76.0775 6.57231 76.6142 5.55581 77.1435C5.56032 77.1705 5.56708 77.1999 5.57159 77.2268C6.96899 77.2268 8.3664 77.2268 9.84494 77.2268C8.98171 78.484 8.17031 79.6677 7.3206 80.9077C7.44456 80.8513 7.51218 80.8244 7.57979 80.79C8.38443 80.3661 9.18907 79.9421 9.99145 79.5133C10.1177 79.4446 10.2461 79.3662 10.3521 79.2633C10.5076 79.1138 10.5932 78.93 10.4963 78.6898C10.467 78.6188 10.476 78.5281 10.4625 78.3884C10.7578 78.6923 11.1905 79.7804 11.1116 79.947C10.7172 79.4618 10.5977 79.4348 10.032 79.7314C9.18681 80.1749 8.34161 80.6209 7.49866 81.0694C7.07718 81.2924 7.04112 81.3831 7.16283 81.8855C7.17184 81.9222 7.17861 81.9614 7.1741 81.9982C7.16734 82.0227 7.14029 82.0423 7.08845 82.1134Z" fill="#D8A70D"/>
<path d="M57.4424 12.459C57.0727 12.1184 56.7031 11.7777 56.3335 11.4371C56.347 11.4102 56.3583 11.3832 56.3718 11.3587C56.4304 11.3783 56.498 11.3807 56.5453 11.4175C56.8045 11.6111 57.0322 11.518 57.2147 11.3023C57.546 10.9151 57.8593 10.5132 58.1749 10.1113C58.5378 9.6506 58.8916 9.18253 59.2545 8.71936C59.5835 8.29785 59.579 8.08464 59.2477 7.77341C59.2319 7.75871 59.2342 7.72195 59.2139 7.63863C59.3063 7.67539 59.3694 7.68764 59.419 7.7244C59.4911 7.78076 59.5452 7.87389 59.6219 7.91555C60.1944 8.23168 60.1966 8.6973 60.0343 9.30506C59.7639 10.327 59.5745 11.3734 59.3537 12.4125C59.3469 12.4468 59.3582 12.486 59.3627 12.5497C60.3769 12.0694 61.3799 11.6111 62.3693 11.1136C62.7052 10.9445 62.9644 10.871 63.2258 11.2337C63.3453 11.4003 63.5278 11.5082 63.6766 11.6528C63.7239 11.6993 63.7532 11.7704 63.7983 11.839C63.7374 11.866 63.7127 11.8856 63.7059 11.8782C63.334 11.5425 63.1424 11.5621 62.7976 11.9959C62.1282 12.8389 61.4655 13.6892 60.8142 14.5519C60.5324 14.9244 60.555 15.0273 60.839 15.3802C60.8728 15.4218 60.8818 15.488 60.9043 15.5419C60.8818 15.5591 60.8592 15.5738 60.8367 15.5909C60.3409 15.1376 59.8473 14.6817 59.3514 14.2284C59.3582 14.2039 59.3649 14.1818 59.3717 14.1573C59.4258 14.1622 59.4889 14.15 59.5295 14.1794C59.9013 14.4391 60.0276 14.4391 60.3093 14.0838C61.017 13.1967 61.7112 12.2973 62.464 11.3317C61.1297 11.9689 59.8675 12.5693 58.5265 13.2089C58.6144 12.4296 58.8262 11.7434 58.9705 11.0426C59.117 10.3294 59.2906 9.62364 59.4145 8.88355C59.144 9.22419 58.8736 9.56482 58.6054 9.90546C58.265 10.3368 57.9224 10.7632 57.5889 11.1994C57.208 11.6944 57.2035 11.8121 57.501 12.3782C57.4807 12.4076 57.4627 12.4345 57.4424 12.459Z" fill="#D8A70D"/>
<path d="M20.6771 91.5091C21.0873 91.8914 21.4524 92.2321 21.8176 92.5702C21.804 92.5972 21.7905 92.6242 21.7747 92.6487C21.7229 92.6364 21.6665 92.6364 21.6192 92.6119C21.2676 92.4232 21.1324 92.4306 20.8619 92.7491C20.5035 93.1731 20.1655 93.6191 19.8229 94.0578C19.4848 94.4891 19.1467 94.9204 18.8199 95.3615C18.5607 95.7095 18.5697 95.81 18.8289 96.1457C18.8672 96.1947 18.892 96.2585 18.9213 96.3148C18.8988 96.3369 18.8762 96.3614 18.8537 96.3834C18.6576 96.2119 18.4683 96.0305 18.2632 95.8737C18.0107 95.6801 17.9431 95.4767 18.0288 95.1238C18.3105 93.945 18.5449 92.754 18.7951 91.5655C18.7996 91.5385 18.7906 91.5091 18.7861 91.4454C18.1888 91.7297 17.6051 92.0066 17.0213 92.2835C16.5052 92.5286 15.9935 92.7785 15.4729 93.0065C15.3782 93.0481 15.2204 93.0359 15.1416 92.9746C14.8959 92.7785 14.6728 92.5482 14.4451 92.3252C14.4068 92.286 14.3843 92.2272 14.3144 92.1095C14.4316 92.1487 14.4789 92.1561 14.5195 92.183C14.8734 92.4183 15.0356 92.4036 15.3219 92.0458C15.7659 91.4944 16.1964 90.9308 16.6314 90.3696C16.8523 90.0853 17.0731 89.8035 17.2873 89.5143C17.6005 89.0903 17.5983 89.0021 17.2805 88.5904C17.258 88.561 17.2557 88.512 17.2444 88.4728C17.267 88.4507 17.2873 88.4287 17.3098 88.4091C17.7989 88.86 18.2902 89.3134 18.7793 89.7643C18.7635 89.7937 18.75 89.8231 18.7342 89.8525C18.6847 89.8402 18.6283 89.8402 18.59 89.8133C18.2406 89.5609 18.1122 89.5633 17.8304 89.9089C17.4067 90.4284 16.9965 90.9602 16.5818 91.4871C16.291 91.8571 16.0025 92.2321 15.7343 92.6438C17.0078 92.036 18.279 91.4307 19.6403 90.7813C19.3067 92.2713 18.9934 93.6779 18.6779 95.0846C18.6937 95.0944 18.7117 95.1067 18.7275 95.1164C18.9889 94.7905 19.2504 94.4646 19.5073 94.1362C19.8747 93.6681 20.2376 93.1952 20.6027 92.7246C20.9183 92.3203 20.9273 92.1757 20.6748 91.7248C20.6568 91.688 20.6771 91.6194 20.6771 91.5091Z" fill="#D8A70D"/>
<path d="M73.7627 35.5048C73.2533 35.6494 72.7687 35.7744 72.2932 35.9287C71.8492 36.0709 71.7996 36.1787 71.8627 36.6664C71.8694 36.7154 71.8447 36.7693 71.8334 36.8232C71.8018 36.8257 71.7725 36.8281 71.741 36.8281C71.5787 36.1272 71.4164 35.4239 71.2541 34.723C71.2767 34.7059 71.3015 34.6912 71.324 34.674C71.3668 34.7304 71.4277 34.7794 71.4502 34.8431C71.5922 35.2401 71.6824 35.3259 72.0723 35.2279C73.1294 34.9656 74.1819 34.6863 75.2322 34.3971C75.5658 34.304 75.6312 34.1569 75.6154 33.7673C75.6131 33.6913 75.6154 33.6153 75.6627 33.51C75.701 33.5688 75.7596 33.6227 75.7732 33.6889C75.9557 34.5172 76.1608 35.3406 76.2983 36.1787C76.4065 36.8355 76.1608 37.5854 75.408 37.7275C75.1128 37.7839 74.8581 37.6809 74.6395 37.4824C74.4885 37.3477 74.3645 37.1761 74.2225 37.0144C73.5666 37.2374 72.6763 38.4406 72.5862 39.1979C72.5208 39.7346 72.5907 40.2443 72.7642 40.7393C73.0888 41.6632 73.9272 42.2048 74.9392 42.1632C75.0204 42.1607 75.1015 42.1632 75.1804 42.1632C75.1826 42.2024 75.1849 42.2416 75.1872 42.2783C74.9798 42.2979 74.7679 42.3519 74.5628 42.3298C73.3435 42.1926 72.5411 41.3618 72.309 40.0556C72.0385 38.5313 72.4938 37.3428 73.668 36.4826C73.8844 36.3233 73.9903 36.1763 73.8709 35.8993C73.8236 35.7817 73.8033 35.6469 73.7627 35.5048ZM73.9633 35.4558C73.9994 35.6494 74.0196 35.8013 74.0557 35.9508C74.1391 36.2914 74.236 36.6272 74.511 36.8502C74.8603 37.1296 75.3111 37.1173 75.683 36.8306C76.0166 36.5733 76.1428 36.1052 76.0143 35.593C75.8814 35.0637 75.8385 34.9926 75.5027 35.0612C74.9933 35.1666 74.4885 35.3185 73.9633 35.4558Z" fill="#D8A70D"/>
<path d="M72.3315 73.2078C71.5877 73.1833 70.8394 73.2102 70.1926 73.6808C69.0386 74.5213 68.4864 76.6534 70.1475 77.8542C70.2196 77.9056 70.294 77.9596 70.3548 78.0772C70.294 78.0772 70.2196 78.1017 70.1768 78.0723C69.3834 77.543 68.8853 76.8151 68.9011 75.7589C68.9259 74.1439 70.0911 72.7128 71.5584 72.5045C71.8244 72.4677 72.0971 72.4996 72.3653 72.4751C72.4464 72.4677 72.5546 72.4015 72.5952 72.3256C72.6831 72.1589 72.7372 71.9702 72.8273 71.7325C72.2549 71.5046 71.6936 71.262 71.1166 71.0733C71.0107 71.039 70.8349 71.2105 70.7087 71.3134C70.6411 71.3674 70.6163 71.4801 70.5509 71.6051C70.4765 71.311 71.1392 69.5784 71.315 69.5196C71.3218 69.5465 71.3398 69.5759 71.3353 69.598C71.182 70.169 71.2158 70.2793 71.7207 70.5096C72.6493 70.9336 73.5846 71.3478 74.5223 71.7497C74.9685 71.9408 75.07 71.8844 75.2931 71.4335C75.3134 71.3943 75.3427 71.3576 75.4283 71.3281C75.4283 71.3894 75.4441 71.4556 75.4261 71.507C75.1533 72.2349 74.8829 72.9627 74.5944 73.6857C74.4501 74.0484 74.2315 74.3596 73.9092 74.5654C73.3683 74.9061 72.7079 74.6659 72.4915 74.0312C72.4059 73.7837 72.3878 73.5092 72.3315 73.2078ZM72.9716 71.8183C72.8702 72.1222 72.7687 72.3795 72.6989 72.6466C72.5388 73.2568 72.7597 73.7371 73.2849 73.9626C73.7943 74.1807 74.2473 73.9846 74.5132 73.421C74.5786 73.2838 74.6147 73.1318 74.6688 72.9897C74.7567 72.752 74.6778 72.5951 74.4704 72.4996C73.9858 72.279 73.5013 72.0584 72.9716 71.8183Z" fill="#D8A70D"/>
<path d="M5.32141 32.2675C5.8398 32.4905 6.3334 32.716 6.83602 32.912C7.14705 33.0321 7.30031 32.939 7.47612 32.6106C7.50767 32.5493 7.56177 32.5028 7.60684 32.4488C7.63164 32.466 7.65643 32.4831 7.68348 32.5028C7.43104 33.1742 7.18086 33.8457 6.92842 34.5172C6.89912 34.5098 6.86757 34.5025 6.83827 34.4951C6.84278 34.4241 6.83376 34.3481 6.85179 34.2819C6.95322 33.8751 6.90138 33.7134 6.53625 33.5394C5.88939 33.2306 5.23351 32.9439 4.57763 32.6522C4.26434 32.5126 3.9488 32.3704 3.631 32.2454C3.196 32.0739 3.07429 32.1303 2.85116 32.5689C2.83087 32.6081 2.79932 32.6375 2.72043 32.738C2.72043 32.6057 2.70466 32.5444 2.72269 32.4979C3.00668 31.7382 3.29066 30.976 3.58367 30.2188C3.631 30.0938 3.70763 29.9786 3.78201 29.8708C4.12009 29.3806 4.54382 29.1993 4.9946 29.3414C5.47693 29.4958 5.72485 29.8708 5.76768 30.5079C5.77444 30.5962 5.76768 30.6844 5.76768 30.8192C6.67825 30.8069 7.58205 30.7971 8.26723 30.0276C8.89155 29.3267 9.1823 28.4862 8.95917 27.5035C8.8307 26.9374 8.48811 26.5257 8.05987 26.1924C7.96746 26.1189 7.86829 26.0527 7.78941 25.9155C7.85252 25.9253 7.92239 25.9204 7.97648 25.9498C8.95241 26.4987 9.4708 27.7142 9.17329 28.8685C8.83746 30.1771 8.132 31.1279 6.85179 31.4318C6.53174 31.5078 6.19366 31.5176 5.86234 31.5176C5.66175 31.5176 5.54905 31.5666 5.49721 31.7872C5.4634 31.9367 5.39353 32.0739 5.32141 32.2675ZM5.19068 32.2087C5.29887 31.7921 5.44312 31.4269 5.48369 31.0495C5.55581 30.3781 4.89092 29.8095 4.28913 29.9811C3.87216 30.1011 3.4304 30.7162 3.46196 31.1843C3.47097 31.3044 3.58818 31.4661 3.69411 31.5201C4.16066 31.7553 4.64299 31.9612 5.19068 32.2087Z" fill="#D8A70D"/>
<path d="M2.42743 70.5047C2.36657 70.2425 2.30346 69.9778 2.24712 69.7132C2.11188 69.0907 1.95862 68.4683 1.85494 67.8409C1.75126 67.2282 1.97891 66.4636 2.65507 66.2994C3.05175 66.2014 3.35828 66.3583 3.62875 66.6425C3.73693 66.7553 3.82483 66.8949 3.93753 67.042C4.62721 66.5053 5.31465 65.9662 5.522 64.9908C5.80825 63.643 5.16589 61.8319 3.32222 61.8589C3.20727 61.8613 3.09232 61.8589 2.97512 61.8589C2.96836 61.8344 2.9616 61.8074 2.95258 61.7829C3.01794 61.7486 3.08331 61.6947 3.15092 61.6874C4.38605 61.5477 5.46115 62.3662 5.76993 63.6797C6.14633 65.2751 5.71809 66.569 4.46493 67.5101C4.23955 67.6791 4.16517 67.8286 4.26209 68.0958C4.30716 68.2207 4.33421 68.3531 4.37478 68.505C4.87063 68.3653 5.35522 68.2428 5.83079 68.0933C6.3041 67.9438 6.38299 67.7772 6.26128 67.2062C6.32889 67.2331 6.40778 67.2405 6.41454 67.2699C6.56555 67.9291 6.7098 68.5883 6.85405 69.25C6.85855 69.2696 6.83376 69.2966 6.79545 69.3848C6.74811 69.2696 6.71431 69.201 6.69177 69.1324C6.5926 68.826 6.392 68.6766 6.11477 68.7476C5.0577 69.0221 4.00289 69.3015 2.95033 69.5956C2.54012 69.7107 2.49279 69.821 2.53111 70.2891C2.53336 70.3283 2.53561 70.3675 2.53336 70.4067C2.53111 70.4337 2.51758 70.4606 2.50857 70.4876C2.48152 70.4925 2.45447 70.4974 2.42743 70.5047ZM4.23278 68.5418C4.10431 68.1546 4.01867 67.7747 3.85639 67.439C3.66481 67.0444 3.30644 66.917 2.91201 66.9783C2.56041 67.0346 2.25839 67.2086 2.13668 67.6032C2.01046 68.0124 2.06906 68.4192 2.25163 68.7868C2.30121 68.8873 2.4973 68.9804 2.60323 68.9584C3.1374 68.8456 3.6603 68.6913 4.23278 68.5418Z" fill="#D8A70D"/>
<path d="M73.5621 48.5054C73.508 47.9932 73.4517 47.4835 73.3976 46.9713C73.3795 46.7973 73.3593 46.6233 73.3502 46.4469C73.348 46.4126 73.3863 46.3562 73.4156 46.3488C73.4404 46.3415 73.4945 46.3807 73.508 46.415C73.7312 46.9884 73.7289 47.0056 74.3014 46.9786C74.7116 46.9615 75.1195 46.8978 75.5297 46.8512C75.5906 46.8439 75.6469 46.8096 75.7123 46.785C75.6267 45.9322 75.5433 45.0941 75.4554 44.2143C75.221 44.2364 75.0023 44.256 74.7837 44.283C74.4546 44.3222 74.1233 44.3516 73.7988 44.4128C73.4765 44.4741 73.3525 44.6702 73.3638 45.0353C73.366 45.0941 73.3548 45.1554 73.3502 45.2142C73.3232 45.2191 73.2984 45.224 73.2713 45.2313C73.2443 45.1309 73.206 45.0328 73.1947 44.9299C73.1361 44.3883 73.0798 43.8443 73.0324 43.3027C73.0257 43.2218 73.0708 43.1361 73.091 43.0527C73.1249 43.1238 73.1767 43.1924 73.1925 43.2684C73.2623 43.5796 73.384 43.7144 73.6793 43.6899C74.3645 43.6311 75.0497 43.5502 75.7348 43.4742C76.1 43.435 76.4629 43.386 76.828 43.3444C77.3306 43.288 77.432 43.1753 77.4546 42.6459C77.4568 42.6092 77.4658 42.5724 77.4748 42.5234C77.5199 42.5308 77.5808 42.5308 77.5808 42.5406C77.6619 43.2512 77.7385 43.9595 77.8152 44.6702C77.7836 44.68 77.7543 44.6898 77.7228 44.702C77.6889 44.6187 77.6371 44.5403 77.6213 44.452C77.574 44.1629 77.423 44.0256 77.1548 44.0452C76.6544 44.0844 76.1563 44.1237 75.6357 44.1653C75.7236 45.0525 75.8115 45.9175 75.8994 46.8047C76.3997 46.7409 76.8866 46.6944 77.3667 46.6111C77.6709 46.5571 77.7679 46.3954 77.7769 46.0621C77.7791 45.9861 77.7836 45.9102 77.7926 45.746C77.8738 45.844 77.9391 45.8857 77.9414 45.9322C77.9729 46.5302 77.9977 47.1281 78 47.7285C77.7746 47.285 77.698 47.3021 77.0534 47.356C76.251 47.4247 75.4509 47.5374 74.6507 47.6354C74.4659 47.6575 74.2788 47.6869 74.0963 47.7383C73.7469 47.8364 73.6816 47.9466 73.6951 48.3412C73.6973 48.4 73.6793 48.4588 73.6703 48.5176C73.632 48.5127 73.5959 48.5103 73.5621 48.5054Z" fill="#D8A70D"/>
<path d="M4.51001 55.4725C4.69258 55.9039 4.8233 57.5409 4.69708 57.6732C4.68356 57.6634 4.65877 57.6536 4.65651 57.6414C4.55734 57.0508 4.45141 56.9699 3.87216 57.0312C3.4011 57.0802 2.93004 57.1243 2.42743 57.1733C2.51533 58.0555 2.60323 58.9206 2.69339 59.8224C3.30193 59.7317 3.87893 59.6558 4.45141 59.5578C4.69258 59.5161 4.78273 59.3151 4.794 59.0701C4.79851 58.9843 4.794 58.8961 4.794 58.8079C4.83232 58.8054 4.86838 58.8054 4.9067 58.803C4.98107 59.521 5.0532 60.2366 5.12758 60.9546C5.10278 60.9644 5.07574 60.9767 5.05094 60.9865C5.02164 60.9424 4.97656 60.9032 4.96755 60.8566C4.87965 60.3836 4.76695 60.2807 4.33196 60.3174C3.87667 60.3542 3.42139 60.3959 2.96611 60.4498C2.39587 60.5159 1.82564 60.5846 1.25992 60.6777C0.723495 60.7659 0.725749 60.7831 0.691941 61.381C0.689687 61.4178 0.676164 61.4545 0.667148 61.4938C0.507123 61.4006 0.313289 59.7538 0.425983 59.2465C0.475569 59.4132 0.511631 59.5014 0.529662 59.5945C0.574739 59.8249 0.712226 59.9768 0.919583 59.967C1.44699 59.9425 1.96989 59.8861 2.51984 59.8396C2.43194 58.95 2.34854 58.0996 2.26064 57.2125C2.01046 57.2346 1.7738 57.2468 1.53715 57.2762C1.28922 57.3056 1.04129 57.3473 0.793366 57.3914C0.475569 57.4478 0.362875 57.5923 0.358367 57.9403C0.356113 58.0188 0.349351 58.0947 0.34259 58.1731C0.306528 58.1731 0.270466 58.1756 0.234404 58.1756C0.16228 57.4625 0.0924091 56.7518 0.0202849 56.0386C0.0495854 56.0313 0.0811396 56.0239 0.11044 56.0166C0.135233 56.0803 0.169041 56.1391 0.184818 56.2053C0.293004 56.6072 0.394429 56.7101 0.777588 56.6783C1.35007 56.6317 1.92031 56.5582 2.49054 56.4871C2.98864 56.4258 3.489 56.3744 3.9826 56.2813C4.41084 56.2004 4.45367 56.1097 4.45817 55.6294C4.45592 55.5877 4.48522 55.5436 4.51001 55.4725Z" fill="#D8A70D"/>
<path d="M13.3587 20.5853C13.3858 20.5216 13.4061 20.453 13.4399 20.3917C13.6224 20.0731 13.6224 19.8918 13.361 19.6467C12.6871 19.0169 11.9951 18.4067 11.31 17.7916C11.1499 17.6495 10.9922 17.5024 10.8231 17.375C10.5301 17.1569 10.3678 17.1789 10.1109 17.4412C10.0681 17.4853 10.014 17.5171 9.9644 17.5539C9.94411 17.5343 9.92608 17.5147 9.9058 17.4926C9.94412 17.4265 9.97567 17.3529 10.0207 17.2917C10.4107 16.7672 10.7938 16.2355 11.1995 15.7257C11.3979 15.4758 11.6233 15.2429 11.8667 15.0444C12.8809 14.221 14.0845 14.3754 14.9117 15.4169C15.6149 16.2992 15.7231 17.2917 15.1348 18.294C14.7516 18.9483 14.2671 19.5365 13.8253 20.1516C13.7058 20.3182 13.5751 20.4775 13.4489 20.6392C13.4196 20.6245 13.388 20.6049 13.3587 20.5853ZM12.6105 15.0665C12.0988 15.0812 11.6052 15.4733 11.2063 16.0369C10.9178 16.4438 10.9493 16.6153 11.319 16.9388C11.6909 17.2623 12.056 17.5931 12.4256 17.919C12.8719 18.3136 13.3159 18.7081 13.7667 19.0953C13.9109 19.2203 14.0822 19.3257 14.2558 19.1713C14.7539 18.7277 15.1258 18.1862 15.1055 17.4559C15.0739 16.2894 13.8614 15.0665 12.6105 15.0665Z" fill="#D8A70D"/>
<path d="M64.7923 83.449C64.7832 83.471 64.7742 83.4956 64.7607 83.5176C64.4993 83.944 64.5173 84.1352 64.8757 84.4635C65.3016 84.8532 65.7366 85.2306 66.1671 85.6153C66.4669 85.88 66.7599 86.152 67.0642 86.4118C67.6299 86.8921 67.6321 86.8872 68.1866 86.429C68.1934 86.4927 68.2204 86.5613 68.2001 86.5858C67.524 87.4313 67.0011 88.4287 66.1243 89.0683C65.4279 89.5756 64.6728 89.6883 63.9245 89.2055C63.1469 88.7056 62.6308 87.9876 62.6488 86.9558C62.6623 86.1912 63.023 85.5712 63.4535 84.9953C63.8276 84.4954 64.2063 84.0004 64.5872 83.5053C64.6277 83.4539 64.6908 83.4245 64.7449 83.3853C64.763 83.4073 64.7765 83.4269 64.7923 83.449ZM63.0207 86.5147C63.0297 86.576 63.0365 86.6618 63.0523 86.7475C63.1852 87.5293 63.6293 88.0733 64.2085 88.5046C64.6232 88.8134 65.0717 89.0021 65.5946 88.9139C66.2393 88.8061 66.6743 88.3895 67.0304 87.8332C67.1859 87.5881 67.1611 87.3847 66.9492 87.196C66.4962 86.7941 66.0477 86.3873 65.5946 85.9854C65.2182 85.6497 64.8464 85.3115 64.4654 84.9855C64.2896 84.8336 64.0823 84.6547 63.8614 84.8507C63.3881 85.2747 63.0523 85.7918 63.0207 86.5147Z" fill="#D8A70D"/>
<path d="M61.3596 94.5626C61.2424 94.668 61.132 94.7807 61.0103 94.8812C60.422 95.364 60.422 95.3542 59.703 95.1655C58.4634 94.842 57.2215 94.5259 55.93 94.195C56.3695 94.8395 56.7775 95.4424 57.1899 96.0428C57.3139 96.2217 57.4334 96.4079 57.5686 96.5746C57.8661 96.9397 58.0464 96.9667 58.4386 96.7388C58.5084 96.6971 58.5896 96.6775 58.6662 96.6481C58.6797 96.6775 58.6933 96.7069 58.7068 96.7339C58.2695 97.0868 57.8323 97.4421 57.395 97.795C57.377 97.7803 57.359 97.768 57.3409 97.7533C57.3567 97.6994 57.359 97.6333 57.3905 97.5916C57.6249 97.2706 57.6452 97.0672 57.4243 96.7314C57.0592 96.1751 56.6783 95.6335 56.3019 95.0846C55.9435 94.5602 55.5852 94.0333 55.2291 93.5064C55.193 93.4549 55.1682 93.3961 55.0938 93.2613C56.8518 93.7024 58.54 94.1289 60.2935 94.57C59.9059 94.0014 59.5588 93.4868 59.2072 92.9746C58.9615 92.6144 58.7136 92.2541 58.4634 91.8963C58.1749 91.4871 57.9405 91.4356 57.51 91.6758C57.4581 91.7052 57.3973 91.7174 57.3229 91.6954C57.7444 91.2959 58.1591 90.9014 58.6617 90.5877C58.5693 90.8597 58.4341 91.0729 58.4476 91.2714C58.4611 91.4846 58.5941 91.7027 58.7158 91.8865C59.2748 92.7246 59.845 93.5529 60.4152 94.3813C60.6632 94.7415 60.7849 94.7636 61.1635 94.5455C61.2108 94.5185 61.2695 94.5111 61.3213 94.494C61.3326 94.5161 61.3461 94.5381 61.3596 94.5626Z" fill="#D8A70D"/>
<path d="M56.8338 9.8393C56.4146 10.2927 55.9931 10.7436 55.5649 11.2067C55.5739 11.2141 55.5356 11.192 55.5378 11.1847C55.637 10.8441 55.3891 10.7656 55.1953 10.6456C54.4943 10.2142 53.7933 9.78048 53.0946 9.34672C53.0135 9.2977 52.9414 9.23154 52.8647 9.17517C52.8737 9.14822 52.8828 9.12371 52.8918 9.09675C52.9549 9.11146 53.0225 9.11881 53.0811 9.14577C53.435 9.30996 53.5454 9.2879 53.7573 8.94236C53.9511 8.62623 54.1179 8.29294 54.314 7.9376C53.8948 7.67538 53.4846 7.42052 53.0743 7.17056C53.0338 7.14605 52.9639 7.13134 52.9233 7.15095C52.601 7.31759 52.2652 7.46708 51.9654 7.67293C51.6319 7.90329 51.6364 8.11895 51.9159 8.42283C51.9497 8.45959 51.9745 8.5086 52.0105 8.56497C51.7423 8.56987 50.5906 7.83223 50.5432 7.61412C51.1112 7.84448 51.5935 7.55775 52.0759 7.3274C53.1082 6.83482 54.1337 6.32509 55.1569 5.81045C55.2831 5.74674 55.4792 5.59235 55.468 5.50902C55.4454 5.35218 55.3012 5.2125 55.1975 5.07771C55.1457 5.01155 55.069 4.96743 55.0037 4.91597C55.024 4.88166 55.0442 4.84735 55.0623 4.81059C55.6956 5.20025 56.3289 5.5899 56.9623 5.97955C56.9578 6.0065 56.9555 6.03591 56.951 6.06287C56.8879 6.05797 56.8113 6.07512 56.7594 6.04571C56.3515 5.80065 56.1802 5.80065 55.8917 6.33489C55.362 7.31759 54.8459 8.3101 54.332 9.30261C54.163 9.63099 54.2013 9.77313 54.4898 9.98633C54.5349 10.0182 54.5799 10.0476 54.6273 10.0795C55.5243 10.6676 55.7903 10.6431 56.5881 9.90791C56.649 9.85155 56.7324 9.82214 56.8068 9.78048C56.818 9.80008 56.8248 9.81969 56.8338 9.8393ZM55.2967 6.04571C55.2809 6.02856 55.2651 6.01386 55.2516 5.9967C54.5799 6.32999 53.906 6.66327 53.1915 7.01862C53.622 7.28573 54.0007 7.51855 54.3951 7.76116C54.7039 7.17546 54.9992 6.60936 55.2967 6.04571Z" fill="#D8A70D"/>
<path d="M22.2052 9.79273C21.7792 9.16782 21.3983 8.60418 21.0152 8.04053C20.8822 7.84448 20.7492 7.64843 20.6095 7.45728C20.3458 7.09213 20.0866 7.04067 19.7169 7.25878C19.6471 7.30044 19.5659 7.32494 19.469 7.31024C19.8747 6.90099 20.2984 6.53339 20.7582 6.21726C20.7763 6.24176 20.7943 6.26382 20.8123 6.28833C20.7988 6.32264 20.7943 6.3594 20.774 6.38635C20.5103 6.73434 20.4945 6.91324 20.7447 7.29554C21.1211 7.86653 21.511 8.42773 21.8964 8.99138C22.2728 9.54522 22.6515 10.0991 23.0279 10.6529C23.0166 10.6774 23.0053 10.7019 22.9941 10.7264C21.3037 10.3025 19.611 9.87605 17.8552 9.43494C18.4976 10.3735 19.0904 11.2558 19.6989 12.1208C20.0077 12.5595 20.1857 12.5767 20.6455 12.3169C20.6951 12.2875 20.756 12.2777 20.8619 12.2409C20.6816 12.5718 19.6426 13.3756 19.4758 13.3535C19.4735 13.3363 19.4622 13.3094 19.469 13.2996C19.8026 12.8438 19.8116 12.6649 19.4915 12.187C18.9033 11.3121 18.3105 10.4422 17.7155 9.57463C17.4879 9.24134 17.3346 9.23644 16.8207 9.56727C16.8455 9.4521 16.841 9.36632 16.877 9.33692C17.116 9.13106 17.3594 8.93011 17.6141 8.74386C17.6749 8.69975 17.7809 8.6924 17.8552 8.712C19.2098 9.05019 20.5621 9.39573 21.9167 9.73882C21.9843 9.75597 22.0587 9.76578 22.2052 9.79273Z" fill="#D8A70D"/>
<path d="M25.2277 94.918C25.1555 94.8934 25.0812 94.8738 25.0113 94.8395C24.7769 94.7194 24.5673 94.7464 24.4208 94.989C24.2157 95.3297 24.0241 95.6825 23.8122 96.055C24.2472 96.3246 24.6642 96.5844 25.0857 96.8368C25.1285 96.8638 25.2051 96.8589 25.2525 96.8368C25.5455 96.6922 25.843 96.555 26.1202 96.381C26.5034 96.1384 26.5191 95.9276 26.2194 95.5845C26.1901 95.5527 26.172 95.5086 26.154 95.4669C26.1495 95.4546 26.1653 95.4326 26.1878 95.364C26.6747 95.6678 27.157 95.9668 27.6371 96.2658C27.628 96.2928 27.6168 96.3173 27.6078 96.3442C27.5762 96.354 27.5401 96.381 27.5154 96.3712C27.0466 96.1898 26.6341 96.4079 26.2284 96.6015C25.133 97.1235 24.0444 97.6602 22.958 98.2018C22.8386 98.2606 22.6537 98.4052 22.665 98.4836C22.6853 98.6331 22.816 98.7703 22.9174 98.8978C22.9715 98.9664 23.0594 99.0007 23.1316 99.1208C23.0797 99.1281 23.0121 99.1625 22.976 99.1404C22.3765 98.7753 21.7792 98.4028 21.182 98.0303C21.1887 98.0008 21.1932 97.969 21.2 97.9396C21.2654 97.9469 21.3375 97.9371 21.3938 97.9641C21.8536 98.1895 22.0001 98.1552 22.2458 97.6896C22.7687 96.7045 23.2848 95.7144 23.7965 94.7219C23.9858 94.3568 23.9497 94.2318 23.6252 94.0063C23.4967 93.9181 23.3615 93.8372 23.2285 93.7588C22.6042 93.3888 22.1737 93.4623 21.6282 94.0235C21.5471 94.1068 21.4502 94.1754 21.36 94.2514C21.342 94.2244 21.3262 94.1999 21.3082 94.173C21.7432 93.7269 22.1804 93.2834 22.5771 92.879C22.496 93.2172 22.8363 93.2736 23.0572 93.4157C23.7198 93.8397 24.3937 94.2465 25.0609 94.6606C25.133 94.7048 25.2006 94.7611 25.2705 94.8101C25.2547 94.8518 25.2412 94.8861 25.2277 94.918ZM23.7311 96.2413C23.4156 96.8441 23.1158 97.4176 22.7754 98.0695C23.5418 97.6896 24.236 97.3465 24.9482 96.9936C24.5335 96.7363 24.1458 96.4986 23.7311 96.2413Z" fill="#D8A70D"/>
<path d="M49.0084 1.99482C49.1346 2.00952 49.2022 2.00462 49.2585 2.02912C49.8581 2.27664 50.4666 2.50455 51.0504 2.79127C51.3366 2.93096 51.6093 3.14906 51.8302 3.39168C52.1976 3.79603 52.2043 4.29841 52.0015 4.80079C51.8009 5.30072 51.4358 5.55559 50.9354 5.60215C50.39 5.65361 49.8919 5.49677 49.3757 5.18064C49.218 5.68057 49.0534 6.15844 48.9182 6.64367C48.8618 6.84707 48.952 7.02352 49.1368 7.12644C49.2518 7.19016 49.3622 7.25878 49.4952 7.3372C49.2991 7.42787 47.6695 6.78581 47.4554 6.53829C47.5546 6.54564 47.62 6.53829 47.6808 6.55545C48.0414 6.64857 48.1586 6.61181 48.3029 6.25157C48.4877 5.79575 48.6387 5.32523 48.8032 4.85961C49.0129 4.26655 49.2225 3.6735 49.4231 3.078C49.6056 2.53396 49.5696 2.44328 49.121 2.1443C49.094 2.12715 49.076 2.08549 49.0084 1.99482ZM49.4501 5.00664C49.5899 5.08507 49.7116 5.16594 49.84 5.22475C50.4959 5.51883 51.136 5.20024 51.3975 4.45035C51.6634 3.69311 51.4155 3.11476 50.7033 2.83538C50.3584 2.7006 50.239 2.75206 50.106 3.12456C49.8896 3.73477 49.6778 4.35233 49.4501 5.00664Z" fill="#D8A70D"/>
<path d="M4.76245 48.6696C4.17869 48.6622 3.62649 48.7603 3.08556 48.6353C3.08556 48.601 3.08331 48.5691 3.08331 48.5348C3.24333 48.4882 3.40787 48.4466 3.56564 48.3951C4.37703 48.1231 4.77597 47.4541 4.63398 46.5988C4.56185 46.165 4.33421 45.871 3.93077 45.7754C3.56113 45.6872 3.27263 45.8636 3.08105 46.192C2.89173 46.5179 2.75199 46.8806 2.57168 47.2164C2.39587 47.5423 2.23359 47.8927 2.00144 48.1672C1.54391 48.7063 0.768573 48.6206 0.356113 48.0398C-0.038316 47.4835 -0.0338081 46.8684 0.114948 46.2288C0.130725 46.1626 0.15101 46.0989 0.171295 46.0327C0.279481 45.67 0.279481 45.67 0 45.3784C0.511631 45.2951 1.02101 45.2117 1.53264 45.1284C1.54616 45.1578 1.55743 45.1897 1.57095 45.2191C1.51461 45.2608 1.46277 45.3122 1.40191 45.3465C1.17427 45.4764 0.924091 45.572 0.716734 45.7337C0.279481 46.0719 0.0879014 46.8022 0.265958 47.3364C0.446268 47.8805 1.07285 48.0692 1.44699 47.6599C1.64984 47.4369 1.79183 47.1404 1.93608 46.8635C2.11865 46.5155 2.25613 46.1405 2.45222 45.8023C2.71818 45.3441 3.11261 45.0745 3.62649 45.1333C4.25082 45.2044 4.62271 45.6283 4.78724 46.2631C4.92473 46.8022 4.89317 47.3438 4.68131 47.8609C4.56861 48.1329 4.31843 48.4123 4.76245 48.6696Z" fill="#D8A70D"/>
<path d="M28.7753 98.8047C28.9218 98.3513 29.0615 97.9445 29.1832 97.5303C29.2982 97.1407 29.2261 96.9887 28.888 96.8074C28.8091 96.7657 28.7392 96.7069 28.6648 96.6554C28.6829 96.6211 28.6986 96.5868 28.7167 96.5525C29.3703 96.8196 30.0217 97.0892 30.6753 97.3563C30.6685 97.3906 30.6618 97.4249 30.6573 97.4568C30.5851 97.4519 30.5085 97.4544 30.4386 97.4372C30.1163 97.3612 29.9563 97.4053 29.8414 97.719C29.4312 98.8537 29.03 99.9932 28.6513 101.14C28.5341 101.498 28.622 101.63 28.9376 101.814C28.9939 101.846 29.0435 101.89 29.0953 101.927C29.0841 101.954 29.075 101.981 29.0638 102.008C28.9962 101.993 28.924 101.988 28.8609 101.961C28.2749 101.723 27.6799 101.508 27.1097 101.231C26.8234 101.091 26.5507 100.875 26.3253 100.633C25.9827 100.265 25.9489 99.7923 26.1022 99.307C26.2577 98.812 26.5868 98.5351 27.0511 98.4175C27.5695 98.2876 28.0383 98.4567 28.5071 98.6625C28.5859 98.6993 28.6626 98.7458 28.7753 98.8047ZM28.7257 98.9321C28.3673 98.8365 28.0405 98.6625 27.7227 98.6846C27.1254 98.7238 26.6927 99.2678 26.6409 99.8976C26.589 100.545 26.8798 100.959 27.5244 101.201C27.7633 101.292 27.9075 101.221 27.9932 100.981C28.2321 100.329 28.462 99.6722 28.7257 98.9321Z" fill="#D8A70D"/>
<path d="M76.535 67.9585C76.0166 67.9585 75.5072 67.9585 75.0001 67.9585C74.9888 67.9267 74.9798 67.8973 74.9685 67.8654C75.07 67.8238 75.1691 67.7551 75.2751 67.7404C75.9287 67.6498 76.393 67.2184 76.5643 66.5274C76.6747 66.0764 76.5508 65.6745 76.242 65.4711C75.8949 65.2457 75.532 65.2873 75.23 65.6672C74.8919 66.0936 74.6102 66.5739 74.2834 67.0126C73.8348 67.6105 73.2285 67.7821 72.6853 67.4954C72.167 67.2209 71.8447 66.395 71.9664 65.7113C72.0475 65.2628 72.194 64.856 72.4487 64.4933C72.5591 64.334 72.6606 64.1527 72.4036 64.0179C72.3811 64.0057 72.3878 63.9321 72.3788 63.8856C72.8431 63.8464 73.9295 64.1257 73.9858 64.2875C73.6568 64.361 73.3164 64.4002 72.9986 64.5178C72.345 64.7605 71.9979 65.5986 72.221 66.3092C72.4239 66.9562 73.1497 67.1694 73.5846 66.6744C73.8979 66.3191 74.1481 65.8951 74.4321 65.5054C74.7003 65.1378 74.9618 64.7654 75.4283 64.6722C76.1789 64.5227 76.6567 65.1746 76.7604 65.7456C76.8663 66.3289 76.7063 66.8386 76.4561 67.3312C76.3592 67.5223 76.2352 67.7061 76.526 67.8336C76.5372 67.8434 76.5305 67.9071 76.535 67.9585Z" fill="#D8A70D"/>
<path d="M44.5682 103.5C44.5299 103.451 44.4803 103.407 44.4555 103.351C44.2797 102.946 44.1062 102.542 43.9394 102.133C43.9168 102.079 43.9394 102.005 43.9416 101.941C43.9957 101.976 44.0678 101.993 44.0971 102.042C44.3789 102.512 44.7395 102.858 45.2714 102.917C45.641 102.958 45.9904 102.87 46.2676 102.591C46.6305 102.228 46.5426 101.549 46.0738 101.314C45.756 101.155 45.3954 101.101 45.0483 101.01C44.7891 100.944 44.5209 100.912 44.2639 100.841C43.6734 100.674 43.297 100.275 43.261 99.5962C43.2294 98.9713 43.5314 98.5228 44.0205 98.2214C44.5231 97.9102 45.0641 97.8121 45.6253 97.9592C45.8845 98.0278 45.9972 97.9347 46.0107 97.6431C46.0513 97.6112 46.0918 97.5793 46.1324 97.5475C46.1414 97.6161 46.1414 97.6847 46.1572 97.7509C46.2812 98.2263 46.4096 98.6993 46.5291 99.1747C46.5426 99.2286 46.4998 99.2997 46.4817 99.3609C46.4344 99.3193 46.3668 99.2874 46.3398 99.2311C46.0761 98.7238 45.756 98.2974 45.2015 98.1528C44.4871 97.9665 43.7455 98.5473 43.7748 99.2874C43.7884 99.6795 44.0002 99.9344 44.318 100.042C44.6719 100.162 45.0483 100.211 45.4134 100.3C45.6906 100.368 45.9701 100.427 46.2361 100.53C46.6553 100.692 46.9213 101.005 46.9731 101.51C47.0272 102.027 46.8311 102.417 46.4682 102.726C46.031 103.098 45.5216 103.157 44.9897 103.12C44.7711 103.106 44.5637 103.106 44.6516 103.498C44.6291 103.503 44.5998 103.503 44.5682 103.5Z" fill="#D8A70D"/>
<path d="M8.86225 21.72C8.53995 21.7371 8.23567 21.72 7.94267 21.7739C7.40625 21.8695 6.96223 22.3669 6.86532 22.9379C6.81573 23.2369 6.89011 23.5065 7.10873 23.7025C7.34765 23.9157 7.63614 23.9917 7.90886 23.83C8.19736 23.6584 8.4543 23.4256 8.72702 23.2198C9.01326 23.0016 9.28373 22.7541 9.588 22.5728C10.032 22.3081 10.4941 22.3375 10.8998 22.6782C11.3212 23.0311 11.4587 23.5334 11.3776 24.0897C11.2852 24.7171 11.0147 25.2415 10.5346 25.6336C10.2281 25.8836 10.2259 25.9302 10.4287 26.283C10.3363 26.2732 10.2687 26.283 10.2168 26.2561C9.82015 26.0551 9.42347 25.8517 9.03129 25.6385C8.97945 25.6116 8.95241 25.5332 8.91409 25.4792C8.9772 25.4645 9.04031 25.4376 9.10116 25.4376C9.43699 25.4474 9.78409 25.5307 10.1041 25.4645C10.7555 25.3298 11.1612 24.6754 11.1161 23.9525C11.0823 23.4011 10.5504 22.9747 10.0839 23.1903C9.73676 23.3496 9.43474 23.6266 9.11919 23.8643C8.88254 24.0407 8.66842 24.2515 8.425 24.4157C7.99902 24.7048 7.5505 24.7759 7.1155 24.4353C6.65345 24.0726 6.54526 23.5555 6.6512 22.9771C6.7391 22.4895 6.99379 22.1023 7.31158 21.7567C7.43104 21.6244 7.62487 21.4896 7.37244 21.2887C7.36793 21.2838 7.43329 21.1465 7.44682 21.1514C7.90886 21.2985 8.36865 21.4528 8.82619 21.6121C8.84873 21.6146 8.85098 21.6759 8.86225 21.72Z" fill="#D8A70D"/>
<path d="M70.8687 82.8143C70.7132 82.8241 70.6276 82.8535 70.5554 82.8314C70.1858 82.7187 69.8184 82.5986 69.4533 82.4687C69.3924 82.4467 69.3474 82.3707 69.2955 82.3217C69.3564 82.2996 69.4172 82.2653 69.4781 82.2604C69.7778 82.2359 70.0956 82.2727 70.3774 82.1845C70.8958 82.0227 71.1798 81.5816 71.2857 81.0229C71.3849 80.4984 70.8462 79.9911 70.3639 80.1235C69.9063 80.2485 69.6133 80.6332 69.2527 80.9175C68.9507 81.1552 68.6396 81.4101 68.2925 81.5399C67.533 81.8218 66.7779 81.187 66.7531 80.3024C66.7306 79.501 67.0529 78.8761 67.6074 78.3762C67.7651 78.234 68.0198 78.1189 67.7494 77.8395C67.7381 77.8272 67.7516 77.7562 67.7696 77.7439C67.7989 77.7243 67.8485 77.7194 67.8801 77.7341C68.3016 77.9473 68.7208 78.163 69.1377 78.386C69.1783 78.408 69.1941 78.484 69.2211 78.5355C69.1693 78.5551 69.1175 78.5943 69.0679 78.5894C68.7929 78.5649 68.5179 78.5061 68.243 78.5061C67.4969 78.5036 66.8591 79.403 67.0326 80.1921C67.1521 80.7288 67.711 81.0449 68.1776 80.7802C68.5314 80.5793 68.8402 80.2852 69.1625 80.023C69.5209 79.7314 69.8567 79.403 70.3345 79.3687C70.9701 79.3221 71.4885 79.8564 71.5156 80.5523C71.5404 81.2312 71.2744 81.758 70.8417 82.2065C70.6636 82.3854 70.5351 82.5545 70.8687 82.8143Z" fill="#D8A70D"/>
<path d="M1.5101 36.0439C2.12992 36.0439 2.63028 36.0439 3.12838 36.0439C3.1374 36.0733 3.14867 36.1027 3.15769 36.1321C3.10134 36.164 3.04725 36.213 2.98639 36.2277C2.52885 36.3257 2.10287 36.4777 1.81212 36.9163C1.59349 37.2423 1.51911 37.6074 1.56194 37.9971C1.62279 38.5558 2.28769 38.8744 2.70466 38.5142C2.96611 38.2887 3.15994 37.9677 3.37631 37.6834C3.60621 37.382 3.79553 37.0413 4.05473 36.7767C4.794 36.0243 5.93446 36.4262 6.14633 37.5045C6.27255 38.1441 6.15985 38.7445 5.83755 39.2959C5.68879 39.5508 5.39804 39.7836 5.79247 40.1144C5.21548 40.0434 4.67004 39.9821 4.14263 39.8154C4.14488 39.7713 4.14714 39.7272 4.14939 39.6856C4.30266 39.6684 4.45367 39.6464 4.60693 39.639C5.41382 39.5949 5.98405 38.9504 5.9863 38.0804C5.98856 37.6417 5.76768 37.257 5.44086 37.1198C5.08475 36.9703 4.73765 37.0609 4.45141 37.4261C4.21926 37.7226 4.02543 38.0534 3.8068 38.3647C3.67157 38.5583 3.52957 38.7494 3.37857 38.9283C3.06753 39.2935 2.68437 39.443 2.23585 39.3106C1.76253 39.1685 1.51686 38.7862 1.39515 38.2961C1.27119 37.7961 1.40642 37.333 1.58222 36.8747C1.68139 36.6125 2.00595 36.3552 1.5101 36.0439Z" fill="#D8A70D"/>
<path d="M32.0186 6.3839C31.8631 5.81535 31.7143 5.26396 31.5633 4.71012C31.5791 4.68561 31.5949 4.66111 31.6129 4.63905C31.676 4.68316 31.7526 4.71257 31.7977 4.77383C31.9893 5.0287 32.1448 5.32523 32.3634 5.54823C32.8413 6.03591 33.6932 5.96239 34.1327 5.43551C34.5046 4.98949 34.4686 4.15873 33.8172 3.96268C33.3123 3.81074 32.7872 3.73477 32.2755 3.60243C31.7346 3.4652 31.2816 3.20788 31.1666 2.5315C31.0832 2.04628 31.25 1.66888 31.5723 1.35765C31.9871 0.958198 32.4897 0.847919 33.0261 0.879778C33.2357 0.892031 33.4836 0.987606 33.4994 0.605307C33.5625 0.61756 33.6639 0.610208 33.6797 0.646968C33.8848 1.10033 34.0764 1.5586 34.2725 2.01687C34.2522 2.04138 34.2342 2.06343 34.2139 2.08794C34.1463 2.02422 34.0629 1.97031 34.0133 1.89189C33.6932 1.38706 33.2785 1.05377 32.6948 1.08318C32.4874 1.09298 32.2733 1.16895 32.0817 1.26208C31.818 1.38951 31.6738 1.62967 31.6738 1.96051C31.6738 2.3036 31.791 2.60012 32.0862 2.7153C32.4536 2.85499 32.8413 2.93341 33.2244 3.01183C33.6842 3.1074 34.1508 3.17357 34.5114 3.53626C35.1267 4.15382 34.9825 5.18554 34.2161 5.72713C33.7225 6.07512 33.1771 6.15354 32.6159 6.05307C32.3635 6.00895 32.1741 5.97219 32.129 6.32264C32.12 6.33734 32.0795 6.34714 32.0186 6.3839Z" fill="#D8A70D"/>
<path d="M15.9214 13.4589C16.5074 12.8952 16.6246 12.7212 16.1671 12.1233C16.2099 12.1037 16.2708 12.062 16.282 12.0743C16.6517 12.4762 17.0145 12.883 17.3526 13.3314C17.0822 13.2947 16.9086 12.9026 16.6088 13.1133C16.3857 13.2702 16.1896 13.476 15.9484 13.6892C16.415 14.199 16.85 14.6866 17.303 15.1547C17.3571 15.2111 17.5464 15.2037 17.6073 15.1449C17.9003 14.8582 18.2001 14.5715 18.4367 14.2333C18.7162 13.8338 18.5652 13.3976 18.4007 12.9835C18.3714 12.9075 18.3736 12.8168 18.3624 12.7335C18.3962 12.7261 18.4277 12.7188 18.4615 12.7114C18.7117 13.2114 18.9596 13.7137 19.2098 14.2137C19.1963 14.2431 19.1828 14.2725 19.1692 14.3019C18.8762 14.0323 18.7433 14.2896 18.5855 14.4538C17.9882 15.0787 17.3954 15.7061 16.7982 16.3286C16.7373 16.3898 16.6539 16.4266 16.5818 16.4732C16.566 16.4462 16.5502 16.4192 16.5345 16.3898C16.566 16.3457 16.5953 16.3016 16.6269 16.26C16.8748 15.9414 16.8725 15.7282 16.6111 15.412C16.388 15.1425 16.1603 14.8802 15.9304 14.618C15.4706 14.0936 15.0108 13.5716 14.5443 13.0545C14.1408 12.6061 13.9853 12.6012 13.4759 12.959C13.5075 12.8854 13.5233 12.7923 13.5729 12.7408C14.1003 12.1797 14.6344 11.6258 15.1641 11.0671C15.243 10.9862 15.3196 10.9053 15.3962 10.822C15.518 10.6897 15.669 10.5622 15.4548 10.327C15.9304 10.4838 16.2955 10.7975 16.6945 11.0401C16.7305 11.0622 16.7283 11.1528 16.7351 11.17C16.3812 11.1112 16.0454 10.9788 15.7298 11.023C15.2362 11.094 14.9522 11.5498 14.6795 11.9591C14.6344 12.0277 14.7156 12.2679 14.8012 12.3585C15.1506 12.7359 15.5292 13.0815 15.9214 13.4589Z" fill="#D8A70D"/>
<path d="M73.3683 55.4162C73.632 55.1858 74.9528 55.252 75.0361 55.4554C74.7477 55.5706 74.4501 55.6686 74.1707 55.8058C73.5711 56.1048 73.3457 56.8841 73.5463 57.5482C73.6568 57.9158 73.8709 58.1609 74.2473 58.2246C74.6259 58.2883 74.9032 58.1168 75.0902 57.7859C75.2683 57.4723 75.4035 57.1292 75.5703 56.8057C75.7236 56.5116 75.8746 56.2102 76.0594 55.9406C76.5327 55.252 77.5177 55.3623 77.9234 56.1685C77.9527 56.2273 77.9955 56.2935 77.9932 56.3548C77.9707 56.9454 77.9301 57.536 77.9144 58.1266C77.9098 58.2981 77.9662 58.4697 77.9955 58.6559C77.7611 58.7 77.5267 58.7466 77.29 58.7834C77.0624 58.8177 76.8347 58.8397 76.6071 58.8691C76.5958 58.8348 76.5846 58.803 76.571 58.7686C76.6477 58.7221 76.7198 58.6584 76.8009 58.6339C77.139 58.5285 77.423 58.3373 77.6439 58.0384C77.8873 57.71 77.9797 57.3277 77.9369 56.9184C77.8986 56.5533 77.7138 56.2837 77.3757 56.1734C77.0579 56.0705 76.7085 56.1979 76.5057 56.5361C76.3299 56.8277 76.2037 57.1537 76.0549 57.4625C75.9377 57.7026 75.8295 57.9501 75.6965 58.1805C75.3742 58.727 74.9144 58.9917 74.3194 58.852C73.7695 58.7221 73.4832 58.2761 73.3525 57.7149C73.2128 57.1194 73.2714 56.5361 73.5373 55.9872C73.6545 55.747 73.7357 55.5265 73.3683 55.4162Z" fill="#D8A70D"/>
<path d="M28.2614 4.77874C28.5386 4.6268 28.8001 4.51897 29.0232 4.35233C29.2869 4.15382 29.0886 3.81809 29.1472 3.54362C29.3906 4.09256 29.607 4.62925 29.7535 5.26886C29.5258 5.02135 29.3748 4.71747 29.1968 4.69541C28.915 4.66111 28.6153 4.8155 28.302 4.89637C28.5183 5.54333 28.7144 6.14619 28.924 6.74414C29.0007 6.96225 29.1336 7.07498 29.368 6.9696C29.5574 6.88383 29.7602 6.83482 29.9518 6.7564C30.5761 6.50153 30.7948 6.15599 30.8038 5.4306C30.8038 5.33503 30.8038 5.24191 30.8038 5.13408C30.9751 5.2027 31.1238 6.37165 31.0427 6.86913C30.7519 6.46477 30.4679 6.7711 30.1975 6.87158C29.4199 7.1583 28.6513 7.47198 27.8332 7.7293C27.867 7.68029 27.8895 7.61167 27.9346 7.58226C28.3132 7.347 28.3876 7.23427 28.2546 6.81276C27.903 5.70017 27.5334 4.59494 27.1547 3.49215C27.0285 3.12701 26.8753 3.0731 26.5146 3.16622C26.456 3.18092 26.3952 3.18092 26.3366 3.18828C26.3253 3.16622 26.3163 3.14171 26.305 3.11966C26.3839 3.07064 26.4583 3.00448 26.5417 2.97262C27.3035 2.67119 28.0698 2.37466 28.8339 2.07324C28.9962 2.00952 29.208 1.96786 29.075 1.67623C29.341 1.71544 30.0149 2.79617 29.8932 3.06329C29.7963 2.93096 29.7174 2.81088 29.6272 2.70305C29.323 2.34036 28.9533 2.24723 28.5296 2.41142C28.3448 2.48249 28.16 2.55111 27.9751 2.62463C27.7272 2.7202 27.6461 2.90645 27.734 3.17602C27.8963 3.68575 28.0676 4.19549 28.2614 4.77874Z" fill="#D8A70D"/>
<path d="M49.8513 99.111C49.6372 98.4738 49.4501 97.9004 49.2495 97.3318C49.1323 97.001 49.0264 96.9544 48.7086 97.0647C48.5125 97.1309 48.3187 97.2019 48.1271 97.2828C47.5456 97.5303 47.3495 97.8465 47.3472 98.5277C47.3472 98.6429 47.3472 98.7581 47.3472 98.9027C47.2774 98.8782 47.2075 98.8708 47.2075 98.8537C47.1579 98.2925 47.1128 97.7313 47.1083 97.1407C47.2886 97.4789 47.5005 97.3269 47.6988 97.2485C48.4787 96.9422 49.2585 96.6309 50.0384 96.3246C50.124 96.2903 50.2164 96.2756 50.3043 96.2511C50.3156 96.2756 50.3269 96.3026 50.3381 96.3271C50.266 96.3785 50.1984 96.4398 50.1218 96.4815C49.8468 96.6407 49.7679 96.7829 49.8671 97.0941C50.2277 98.2214 50.5906 99.3462 50.9737 100.464C51.1292 100.915 51.3411 100.976 51.6589 100.839C51.7062 100.817 51.7671 100.831 51.8212 100.826C51.8302 100.853 51.8392 100.878 51.8482 100.905C51.7784 100.942 51.713 100.986 51.6409 101.015C50.8633 101.326 50.0835 101.633 49.3081 101.949C49.1774 102 48.9407 101.983 49.0647 102.272C49.0106 102.289 48.9182 102.338 48.9092 102.321C48.6545 101.932 48.4066 101.537 48.1654 101.14C48.1519 101.121 48.1924 101.062 48.2375 100.949C48.384 101.125 48.4945 101.277 48.6207 101.41C48.8709 101.669 49.1819 101.714 49.4997 101.638C49.7318 101.581 49.9505 101.459 50.1804 101.38C50.4486 101.287 50.4982 101.081 50.417 100.829C50.2547 100.317 50.0789 99.8119 49.9099 99.307C49.1594 99.3757 48.9047 99.7089 49.0737 100.437C49.0106 100.42 48.9295 100.42 48.9204 100.393C48.7492 99.8927 48.5869 99.3904 48.4268 98.888C48.4178 98.861 48.4404 98.8218 48.4426 98.8096C48.6274 98.986 48.792 99.2727 48.9926 99.307C49.2495 99.3462 49.5358 99.1894 49.8513 99.111Z" fill="#D8A70D"/>
<path d="M62.6939 93.7416C62.0132 93.4255 61.434 92.9819 61.4295 92.7614C61.5692 92.8227 61.6977 92.8815 61.8284 92.9354C62.2837 93.1241 62.6623 92.9795 63.0117 92.6364C63.6541 92.0066 63.6586 91.9943 63.0635 91.3229C62.8134 91.0411 62.5699 90.7543 62.2972 90.4431C62.144 90.6048 61.9975 90.7445 61.869 90.9014C61.6323 91.193 61.6346 91.3866 61.851 91.7027C61.8915 91.764 61.905 91.8449 61.9321 91.9159C61.8622 91.8792 61.7766 91.8596 61.7247 91.8032C61.4475 91.4969 61.1748 91.1832 60.9066 90.8671C60.857 90.8082 60.8322 90.7274 60.7826 90.6293C61.035 90.7494 61.2717 90.97 61.4317 90.9161C61.7044 90.8229 61.9298 90.5607 62.2071 90.3451C61.745 89.8304 61.3235 89.355 60.8953 88.8869C60.7601 88.7399 60.6046 88.7497 60.4648 88.8918C60.2597 89.0977 60.0501 89.2986 59.8563 89.5168C59.525 89.8868 59.4799 90.3157 59.6579 90.7837C59.712 90.9259 59.7616 91.068 59.836 91.2714C59.7413 91.2444 59.6669 91.2445 59.6512 91.2126C59.4213 90.7617 59.1959 90.3083 58.975 89.8525C58.9637 89.828 58.9863 89.7814 58.9998 89.7079C59.2184 89.9505 59.3559 89.7765 59.4979 89.6295C60.1155 88.985 60.7285 88.338 61.3483 87.6959C61.4137 87.6298 61.4971 87.5832 61.5715 87.5293C61.5872 87.5513 61.603 87.5734 61.6166 87.5955C61.6008 87.6273 61.594 87.669 61.5692 87.6886C61.2131 87.9949 61.2852 88.3159 61.5895 88.6615C62.2567 89.4187 62.9238 90.1735 63.591 90.9283C63.6586 91.0043 63.7352 91.0754 63.8141 91.1415C64.0778 91.3694 64.1837 91.367 64.4519 91.1464C64.5105 91.0974 64.5827 91.0631 64.648 91.0239C64.6638 91.046 64.6796 91.068 64.6954 91.0901C64.6548 91.144 64.6187 91.2028 64.5736 91.2518C64.0237 91.8302 63.4715 92.4061 62.9238 92.9868C62.7412 93.1755 62.4663 93.3275 62.6939 93.7416Z" fill="#D8A70D"/>
<path d="M67.5668 16.6766C67.7448 16.7133 68.6058 17.9778 68.8154 18.517C68.7163 18.4606 68.6509 18.4435 68.6103 18.3994C68.3016 18.0538 68.1641 18.0195 67.8035 18.2817C67.1994 18.7179 66.6021 19.1689 66.0094 19.6247C65.8493 19.7472 65.7051 19.9016 65.5811 20.0658C65.1912 20.5853 65.1732 21.149 65.5135 21.6734C65.9147 22.2934 66.388 22.487 66.9943 22.2444C67.2512 22.1415 67.5014 21.9969 67.7313 21.8351C68.1979 21.5068 68.6532 21.1563 69.1084 20.8083C69.6043 20.4309 69.6494 20.2398 69.406 19.632C69.3969 19.61 69.4037 19.5806 69.4037 19.5512C69.602 19.5977 70.3503 20.7471 70.3503 20.9921C70.3413 20.9946 70.3278 20.9995 70.3255 20.9946C69.9176 20.5241 69.5367 20.7299 69.1468 21.0362C68.6734 21.4063 68.2024 21.7837 67.702 22.1047C67.3842 22.3081 67.0281 22.4576 66.6697 22.563C66.3384 22.6635 66.0139 22.536 65.7276 22.3302C65.0965 21.8817 64.6615 20.9064 64.7923 20.23C64.8892 19.7252 65.207 19.3919 65.5699 19.11C66.1604 18.6493 66.7667 18.2107 67.3617 17.7548C67.7922 17.424 67.8215 17.2574 67.5758 16.755C67.5668 16.7427 67.5713 16.7207 67.5668 16.6766Z" fill="#D8A70D"/>
<path d="M39.6908 98.7115C40.216 98.7115 40.7389 98.7115 41.264 98.7115C41.2775 98.7336 41.2911 98.7556 41.3046 98.7777C40.5743 98.9811 40.518 99.6942 40.2994 100.275C40.0086 101.057 39.7449 101.851 39.4699 102.64C39.3122 103.093 39.3122 103.093 39.4474 103.583C39.3617 103.642 39.2693 103.701 39.1837 103.767C39.098 103.831 39.0192 103.904 38.9042 104C38.6811 103.39 38.4737 102.819 38.2664 102.245C37.9531 101.378 37.6511 100.508 37.3265 99.6477C37.2003 99.3144 37.1056 98.9247 36.6751 98.8806C36.6593 98.8782 36.6503 98.7998 36.6346 98.736C37.2611 98.736 37.8674 98.736 38.4737 98.736C38.4827 98.7606 38.4895 98.7875 38.4985 98.812C38.4264 98.839 38.3565 98.8831 38.2821 98.8929C37.9959 98.937 37.89 99.0987 37.9643 99.4002C38.201 100.366 38.201 100.366 39.1093 100.366C39.4249 100.366 39.7381 100.366 40.0762 100.366C40.1664 100.091 40.2633 99.8241 40.3399 99.5496C40.4459 99.1698 40.3084 98.9517 39.9455 98.8929C39.8531 98.8782 39.7652 98.8488 39.675 98.8243C39.6795 98.785 39.6863 98.7483 39.6908 98.7115ZM39.2062 102.868C39.4835 102.066 39.7427 101.324 39.9973 100.591C39.4519 100.591 38.9313 100.591 38.3768 100.591C38.6585 101.363 38.9222 102.089 39.2062 102.868Z" fill="#D8A70D"/>
<path d="M38.4872 5.28602C37.926 5.28602 37.4076 5.28602 36.8667 5.28602C36.887 5.23455 36.8915 5.19289 36.905 5.19044C37.3197 5.10467 37.4798 4.74198 37.6105 4.37928C38.0072 3.2716 38.3948 2.16146 38.7645 1.04152C38.8208 0.872426 38.7532 0.65677 38.7397 0.401904C38.8591 0.30633 39.0372 0.164192 39.2378 0C39.2964 0.156841 39.3505 0.296527 39.4023 0.438664C39.8734 1.73995 40.3377 3.04369 40.8155 4.34252C40.9485 4.70767 41.0589 5.11447 41.53 5.15613C41.3519 5.36199 39.772 5.35954 39.6525 5.18554C39.6638 5.17084 39.6728 5.14633 39.6863 5.14388C40.2272 5.0336 40.2926 4.90617 40.0988 4.33517C39.8531 3.61469 39.8531 3.61223 39.1364 3.61714C38.8388 3.61959 38.5413 3.62204 38.2461 3.63674C38.1785 3.63919 38.0725 3.68085 38.0522 3.73477C37.9486 4.00189 37.8449 4.27636 37.7863 4.55818C37.7209 4.88656 37.8945 5.09732 38.2078 5.13163C38.2776 5.13898 38.3498 5.14633 38.4174 5.16349C38.4354 5.16594 38.4444 5.2076 38.4872 5.28602ZM38.9403 1.13464C38.6676 1.9213 38.4106 2.66139 38.1514 3.41373C38.6946 3.41373 39.2107 3.41373 39.7652 3.41373C39.4902 2.65649 39.2265 1.9262 38.9403 1.13464Z" fill="#D8A70D"/>
<path d="M10.4693 87.3773C10.0906 86.7769 9.71197 86.1741 9.33331 85.5737C9.36261 85.5492 9.39191 85.5247 9.42122 85.4977C9.47305 85.5516 9.5294 85.6031 9.57673 85.6595C9.82691 85.9511 9.93735 85.9927 10.2529 85.7771C10.7533 85.434 11.2378 85.0664 11.7202 84.6915C12.0042 84.4709 12.2859 84.2405 12.5338 83.9759C12.9328 83.5495 12.9778 82.9417 12.6871 82.4246C12.3377 81.7997 11.8261 81.5522 11.2649 81.7115C10.6924 81.8732 10.2529 82.28 9.78183 82.628C9.47756 82.8535 9.17103 83.0716 8.88254 83.3191C8.52417 83.6254 8.49487 83.8362 8.69547 84.2847C8.72026 84.3386 8.72702 84.3998 8.7428 84.4562C8.7135 84.4734 8.6842 84.493 8.6549 84.5101C8.35062 84.0322 8.04635 83.5544 7.74207 83.074C7.75785 83.0544 7.77363 83.0373 7.78715 83.0177C7.82321 83.0275 7.87055 83.025 7.89534 83.0471C8.25145 83.3706 8.3957 83.3926 8.77886 83.1181C9.30852 82.7358 9.82691 82.3339 10.3543 81.9467C10.7285 81.6723 11.1251 81.4615 11.5894 81.4272C12.0898 81.3905 12.4775 81.6282 12.7863 82.0252C13.1649 82.5128 13.4557 83.0397 13.343 83.7186C13.2506 84.2798 12.8944 84.6351 12.491 84.9414C11.905 85.3899 11.3122 85.8285 10.7262 86.277C10.3633 86.5539 10.3295 86.7206 10.5211 87.1519C10.5459 87.2083 10.5346 87.2842 10.5391 87.3504C10.5166 87.3626 10.4918 87.37 10.4693 87.3773Z" fill="#D8A70D"/>
<path d="M41.663 1.77916C41.8613 1.23757 42.0596 0.69598 42.258 0.15439C42.285 0.15194 42.3098 0.149489 42.3369 0.149489C42.3549 0.448466 42.5307 0.468071 42.7381 0.49993C43.6396 0.637165 44.5389 0.808709 45.4405 0.945945C45.5712 0.96555 45.7177 0.867525 45.9138 0.806259C45.9566 1.3356 46.0039 1.9311 46.0535 2.52905C46.0287 2.53641 46.0039 2.54621 45.9791 2.55356C45.9476 2.51925 45.9025 2.48984 45.889 2.44818C45.7921 2.15656 45.7177 1.85268 45.6027 1.57086C45.4247 1.142 44.9266 0.894482 44.5186 1.03172C44.433 1.06112 44.3383 1.19836 44.318 1.30374C44.2324 1.75956 44.167 2.22027 44.1039 2.68099C44.0025 3.41128 43.9168 4.14402 43.8064 4.87431C43.7343 5.34973 43.8041 5.49432 44.2346 5.65361C44.282 5.67077 44.327 5.69527 44.3654 5.72468C44.3744 5.73203 44.3609 5.77614 44.3541 5.83251C43.6892 5.72223 43.0311 5.61195 42.3707 5.50167C42.3729 5.46491 42.3729 5.42815 42.3752 5.39385C42.4541 5.38649 42.5375 5.36444 42.6141 5.37669C42.9251 5.4208 43.0716 5.237 43.119 4.94293C43.2159 4.34742 43.3015 3.74702 43.3872 3.14907C43.4751 2.54131 43.554 1.9311 43.6419 1.32334C43.6914 0.977803 43.6103 0.869975 43.3128 0.781752C42.8147 0.632264 42.4563 0.823413 42.1768 1.25963C42.0799 1.41157 41.9898 1.57086 41.8861 1.71789C41.8455 1.77426 41.7779 1.80857 41.7216 1.85023C41.7035 1.82327 41.6832 1.80122 41.663 1.77916Z" fill="#D8A70D"/>
<path d="M32.2237 103.189C32.1831 102.66 32.1403 102.076 32.0975 101.493C32.1268 101.483 32.1561 101.471 32.1831 101.461C32.2215 101.537 32.271 101.608 32.3003 101.689C32.3973 101.959 32.4739 102.238 32.5798 102.503C32.7646 102.958 33.2853 103.037 33.5896 102.99C33.682 102.976 33.8037 102.807 33.8285 102.689C33.9209 102.236 33.9817 101.772 34.0448 101.312C34.1463 100.581 34.2297 99.8486 34.3378 99.1208C34.4055 98.6552 34.3243 98.4885 33.9186 98.3684C33.8713 98.3537 33.824 98.3341 33.7811 98.3072C33.7699 98.2998 33.7789 98.2533 33.7789 98.1773C34.4483 98.2876 35.1087 98.3979 35.7668 98.5057C35.7668 98.5424 35.7691 98.5792 35.7691 98.6135C35.6767 98.6258 35.582 98.6527 35.4918 98.6454C35.2214 98.6209 35.0613 98.7385 35.0163 99.0326C34.9284 99.6158 34.836 100.199 34.7503 100.785C34.6602 101.397 34.5835 102.015 34.4889 102.628C34.4303 103.017 34.5497 103.167 34.9036 103.25C35.4084 103.368 35.7285 103.108 35.999 102.709C36.1004 102.559 36.1838 102.397 36.2829 102.245C36.31 102.204 36.3618 102.179 36.4002 102.147C36.4249 102.164 36.4475 102.184 36.4723 102.201C36.2717 102.75 36.0711 103.299 35.8705 103.846C35.8434 103.848 35.8164 103.853 35.7916 103.855C35.7939 103.593 35.6609 103.556 35.4715 103.527C34.57 103.387 33.6707 103.216 32.7691 103.081C32.6046 103.057 32.4221 103.147 32.2237 103.189Z" fill="#D8A70D"/>
<path d="M24.8152 3.45294C25.1691 3.86465 25.5207 4.27636 25.8745 4.68806C25.8565 4.71992 25.8385 4.75178 25.8227 4.78364C25.7393 4.73708 25.6491 4.70277 25.5748 4.6415C24.8062 4.00924 23.7829 4.15137 23.2465 4.98214C22.9332 5.46736 22.9017 6.01386 23.0211 6.5775C23.1789 7.3323 23.4944 7.98662 24.094 8.43508C25.1375 9.21929 26.5597 8.64829 26.8888 7.31514C26.9271 7.16075 26.9384 6.99901 26.9632 6.83972C27.006 6.84707 27.0488 6.85442 27.0939 6.86177C27.0578 7.10684 27.0556 7.36415 26.9834 7.59696C26.6679 8.62378 25.9557 9.16537 25.009 9.28545C24.0962 9.40063 23.3682 8.96197 22.8566 8.1361C21.8897 6.5726 22.4982 4.69541 24.1638 4.07785C24.2743 4.03619 24.3825 3.99698 24.4952 3.96022C24.7025 3.89406 24.8535 3.79113 24.7251 3.49215C24.7521 3.48235 24.7837 3.46765 24.8152 3.45294Z" fill="#D8A70D"/>
<path d="M53.3313 100.537C52.725 99.9712 52.299 99.3806 52.3463 99.2654C52.6777 99.4198 52.9977 99.6158 53.3403 99.7163C54.0458 99.9197 55.0916 99.3659 55.1727 98.2288C55.2516 97.1113 54.8594 96.1727 53.9894 95.5404C52.9549 94.7881 51.5778 95.3713 51.2622 96.6653C51.2239 96.8221 51.2081 96.9838 51.1811 97.1456C51.1383 97.1382 51.0954 97.1284 51.0504 97.1211C51.0887 96.8785 51.1067 96.6285 51.1698 96.3932C51.3907 95.5502 52.1638 94.8371 53.0721 94.7293C54.1089 94.6067 54.891 95.0919 55.3981 96.0624C56.205 97.6087 55.5288 99.3683 53.9308 99.9442C53.8204 99.9834 53.7099 100.018 53.6018 100.062C53.453 100.123 53.2749 100.17 53.3944 100.425C53.4034 100.444 53.3538 100.496 53.3313 100.537Z" fill="#D8A70D"/>
<path d="M65.6578 14.2063C65.7096 14.221 65.7817 14.2161 65.811 14.2529C66.2235 14.7822 66.6292 15.3165 67.0349 15.8532C67.0552 15.8801 67.0484 15.9316 67.0619 16.0271C66.9808 15.9732 66.9357 15.9536 66.9042 15.9218C66.5931 15.5909 66.4511 15.5615 66.1175 15.8581C65.358 16.5295 64.6097 17.2182 63.8569 17.8994C63.5594 18.1665 63.2754 18.4582 62.9554 18.691C62.1259 19.2987 61.4024 18.9532 60.9607 18.1396C60.9021 18.0293 60.8412 17.8504 60.884 17.7646C60.9359 17.6568 61.0959 17.5539 61.2109 17.5563C61.3934 17.5563 61.4543 17.745 61.4317 17.9215C61.3979 18.1788 61.3371 18.4484 61.585 18.6052C61.8397 18.767 62.0583 18.5856 62.2431 18.4239C62.9238 17.8308 63.5955 17.2255 64.2671 16.6227C64.6615 16.2673 65.0537 15.9071 65.4459 15.5493C65.5158 15.4856 65.5856 15.4243 65.6487 15.3557C66.0071 14.9783 66.0184 14.8116 65.7118 14.3828C65.687 14.346 65.66 14.3117 65.6352 14.2749C65.642 14.248 65.651 14.2259 65.6578 14.2063Z" fill="#D8A70D"/>
<path d="M12.3806 89.8206C11.9411 89.2447 11.5015 88.6688 11.062 88.0929C11.0756 88.0684 11.0891 88.0439 11.1026 88.0219C11.1544 88.0439 11.2221 88.0488 11.2536 88.0905C11.5376 88.4654 11.7923 88.3748 12.0898 88.1125C12.6533 87.6126 13.2077 87.098 13.7667 86.5907C14.2017 86.1962 14.6277 85.7893 15.0739 85.4095C15.8155 84.7748 16.6539 84.9316 17.1475 85.7869C17.2039 85.8825 17.2467 85.9977 17.2647 86.1079C17.2963 86.3113 17.2016 86.4804 17.019 86.4755C16.9176 86.4731 16.8139 86.3187 16.7215 86.2206C16.699 86.1961 16.7035 86.1251 16.7148 86.081C16.7779 85.831 16.8049 85.5688 16.5773 85.4217C16.3519 85.2772 16.1152 85.3972 15.9282 85.559C15.3151 86.0883 14.7111 86.6275 14.1093 87.169C13.6044 87.6249 13.1063 88.0905 12.6014 88.5438C12.1416 88.9531 12.1191 89.0683 12.4211 89.6123C12.4504 89.6662 12.4504 89.7422 12.464 89.8084C12.4324 89.8084 12.4054 89.8133 12.3806 89.8206Z" fill="#D8A70D"/>
<path d="M77.6529 59.8592C77.7363 59.9327 77.7385 59.9646 77.6732 60.565C77.6439 60.8345 77.6033 61.1041 77.565 61.3712C77.5267 61.6285 77.4816 61.8859 77.441 62.1407C77.4185 62.1481 77.3937 62.153 77.3712 62.1603C77.3509 62.0942 77.3081 62.0255 77.3148 61.9643C77.3824 61.4472 77.3126 61.305 76.8483 61.2119C75.9963 61.0404 75.1421 60.8958 74.2879 60.7439C74.0422 60.6998 73.7943 60.6654 73.5463 60.6238C73.3254 60.587 73.2015 60.712 73.1587 60.9277C73.1046 61.1923 73.0617 61.4619 73.0302 61.7315C72.9468 62.4324 73.3345 62.8073 73.8461 63.0916C73.9475 63.1479 74.0399 63.2239 74.1368 63.2901C74.1166 63.3293 74.094 63.3709 74.0737 63.4101C73.5283 63.1455 72.9851 62.8808 72.4239 62.6063C72.9874 62.2976 72.8116 61.7094 72.9107 61.2536C73.0482 60.614 73.1046 59.9523 73.1992 59.3004C73.2105 59.2294 73.2511 59.1632 73.2781 59.097C73.3029 59.0995 73.33 59.0995 73.3548 59.1019C73.3548 59.1951 73.3593 59.2906 73.3548 59.3838C73.3345 59.6729 73.4629 59.8592 73.7131 59.9131C74.2202 60.0234 74.7296 60.1165 75.239 60.2096C75.7416 60.3003 76.2442 60.3836 76.7468 60.4669C76.8798 60.489 77.0128 60.4963 77.148 60.5061C77.3779 60.5209 77.5199 60.4057 77.5763 60.1582C77.5898 60.0577 77.6236 59.9621 77.6529 59.8592Z" fill="#D8A70D"/>
<path d="M4.80978 44.8809C4.80527 44.8098 4.79626 44.7412 4.79626 44.6702C4.79626 44.2854 4.69934 44.131 4.35675 44.0526C3.96232 43.9644 3.56564 43.8958 3.16895 43.8296C2.50631 43.7169 1.84367 43.6017 1.17878 43.511C0.750542 43.4522 0.664894 43.5306 0.531916 43.9717C0.516138 44.0281 0.468807 44.0722 0.416968 44.1041C0.468807 42.9278 0.667148 41.9254 0.82492 41.8936C0.831681 41.9107 0.847459 41.9279 0.845205 41.9426C0.737018 42.5528 0.81365 42.7023 1.3681 42.8126C2.42292 43.0184 3.48224 43.2022 4.53931 43.3909C4.74442 43.4277 4.91796 43.3419 4.95403 43.1189C5.0239 42.6998 5.10504 42.2734 5.09151 41.8519C5.07799 41.3937 4.72638 41.1633 4.39281 40.955C4.26659 40.8766 4.14263 40.7982 4.01867 40.7197C4.0367 40.6805 4.05473 40.6438 4.07276 40.6046C4.6182 40.8692 5.16138 41.1339 5.70682 41.3986C5.20871 41.5431 5.35747 42.0039 5.30112 42.3102C5.15688 43.0919 5.06897 43.8835 4.95403 44.6726C4.94276 44.7461 4.9067 44.8147 4.8819 44.8858C4.85711 44.8883 4.83232 44.8858 4.80978 44.8809Z" fill="#D8A70D"/>
<path d="M69.8071 76.575C69.9424 76.3912 70.0596 76.2858 70.1114 76.151C70.3706 75.5016 70.6118 74.8448 70.8597 74.188C70.88 74.1366 70.907 74.0876 70.9679 73.9528C70.9972 74.0974 71.0355 74.1709 71.022 74.2297C70.9634 74.4919 71.0738 74.6414 71.2812 74.7345C71.9326 75.0262 72.5862 75.3129 73.2353 75.6094C73.5418 75.7515 73.7289 75.6217 73.8461 75.281C73.8731 75.3006 73.9002 75.3202 73.9272 75.3423C73.9137 75.4403 73.916 75.5432 73.8822 75.6315C73.6703 76.2074 73.4449 76.7784 73.2421 77.3592C73.1947 77.4915 73.2218 77.6557 73.2128 77.886C72.913 77.8419 72.5456 77.788 72.176 77.7317C72.1715 77.6973 72.1692 77.663 72.1647 77.6287C72.2346 77.6018 72.3044 77.5577 72.3743 77.5552C72.8859 77.5258 73.3232 77.0602 73.3232 76.5137C73.3232 76.4402 73.2466 76.3324 73.1789 76.298C72.8476 76.1314 72.5073 75.9844 72.176 75.8324C71.8965 76.3078 71.9258 76.4622 72.336 76.8249C72.1579 76.9597 71.1888 76.5308 71.1572 76.3152C71.3308 76.3152 71.5449 76.3814 71.6734 76.298C71.8131 76.2074 71.874 75.9746 71.9979 75.754C71.59 75.58 71.2226 75.4134 70.8462 75.2737C70.7876 75.2516 70.6478 75.3374 70.614 75.4109C70.5013 75.6633 70.3886 75.9231 70.33 76.1927C70.2467 76.5799 70.4427 76.8617 70.7064 77.0994C70.7763 77.1631 70.8304 77.244 70.8913 77.3175C70.8642 77.3494 70.8349 77.3837 70.8079 77.4155C70.4585 77.1215 70.1092 76.8298 69.8071 76.575Z" fill="#D8A70D"/>
<path d="M4.86838 26.1115C5.23125 26.1679 5.59413 26.2242 5.957 26.283C5.957 26.3223 5.957 26.359 5.957 26.3982C5.89164 26.4105 5.82628 26.4301 5.75866 26.4325C5.25154 26.4619 4.79851 26.957 4.81879 27.4986C4.82105 27.5892 4.94276 27.7069 5.03291 27.7559C5.33042 27.9103 5.63921 28.0377 6.00208 28.1994C6.05392 27.9813 6.1576 27.773 6.13055 27.5868C6.10576 27.4226 5.93446 27.2854 5.83755 27.0697C6.23423 27.2437 6.63091 27.4177 7.0276 27.5917C7.02083 27.6137 7.01182 27.6333 7.00506 27.6554C6.81573 27.6775 6.59485 27.6407 6.44609 27.7363C6.31312 27.8196 6.26128 28.0524 6.14858 28.2632C6.55203 28.4372 6.91715 28.6063 7.2913 28.7459C7.34539 28.7655 7.48063 28.67 7.51443 28.594C7.62938 28.3416 7.73531 28.0794 7.80518 27.8098C7.87731 27.5402 7.79166 27.2927 7.6091 27.0869C7.49415 26.957 7.38371 26.8222 7.27327 26.6899C7.44006 26.6433 8.16806 27.2069 8.31456 27.4618C8.1951 27.6309 8.06438 27.7583 8.00127 27.9176C7.7556 28.5327 7.53246 29.1576 7.29581 29.7752C7.26876 29.8463 7.20565 29.9002 7.13578 29.9394C7.15156 29.4174 7.13578 29.3782 6.69628 29.1797C6.14407 28.9273 5.58737 28.6847 5.03291 28.4421C4.76245 28.3244 4.49424 28.224 4.33196 28.6234C4.32294 28.643 4.2711 28.643 4.18771 28.6651C4.21926 28.5303 4.23279 28.4298 4.26659 28.3391C4.46719 27.7951 4.6768 27.256 4.87739 26.7119C4.94501 26.5306 5.08024 26.3394 4.78499 26.1679C4.81203 26.1483 4.84133 26.1311 4.86838 26.1115Z" fill="#D8A70D"/>
<path d="M74.6417 30.4173C74.8649 31.1034 75.088 31.7896 75.3111 32.4758C75.2751 32.4905 75.2412 32.5077 75.2052 32.5224C75.1736 32.4635 75.1398 32.4072 75.1128 32.3459C74.9595 31.9979 74.804 31.8974 74.4682 32.0249C73.4494 32.4072 72.4352 32.8017 71.4277 33.211C71.0445 33.3654 70.9927 33.5173 71.0806 33.9535C71.0919 34.0123 71.0873 34.0761 71.0468 34.1496C70.7448 33.483 70.5149 32.7944 70.312 32.0984C70.3458 32.0837 70.3796 32.0665 70.4157 32.0518C70.4495 32.1107 70.4856 32.1695 70.5149 32.2307C70.6749 32.5861 70.8259 32.6841 71.155 32.5591C72.1715 32.1744 73.1857 31.7774 74.1932 31.3657C74.5651 31.2137 74.6304 31.0226 74.538 30.6133C74.5245 30.5521 74.5471 30.481 74.5538 30.4148C74.5809 30.4173 74.6124 30.4173 74.6417 30.4173Z" fill="#D8A70D"/>
<path d="M9.44375 18.4165C9.23414 19.1909 9.23189 19.1934 9.87199 19.6663C10.5842 20.1932 11.2987 20.7152 12.0154 21.2372C12.1056 21.3034 12.198 21.3622 12.2927 21.4161C12.5203 21.5509 12.7277 21.5264 12.8877 21.2936C12.9395 21.2176 12.9666 21.1196 13.0387 21.0705C13.1131 21.3548 12.1484 22.8963 11.9365 22.9379C11.9546 22.8767 11.9613 22.8252 11.9839 22.7811C12.1867 22.3596 12.1664 22.1807 11.8081 21.9111C10.9584 21.274 10.1019 20.6466 9.2409 20.029C8.92085 19.7987 8.69547 19.7668 8.42951 20.1516C8.40021 20.1932 8.35288 20.2202 8.30554 20.2618C8.27399 19.9996 9.19132 18.5121 9.44375 18.4165Z" fill="#D8A70D"/>
<path d="M66.2009 81.0694C66.1761 81.1356 66.1581 81.2066 66.1266 81.2704C65.9665 81.6086 65.9891 81.8218 66.2686 82.0325C67.1543 82.6966 68.0424 83.3559 68.9417 83.9955C69.3113 84.2601 69.4217 84.2062 69.8477 83.6916C69.8477 83.8019 69.8703 83.8778 69.8432 83.922C69.5051 84.4734 69.1625 85.0198 68.8177 85.5663C68.8064 85.5859 68.7726 85.5908 68.6825 85.6349C68.723 85.51 68.7366 85.4389 68.7659 85.3752C68.9236 85.0468 68.9101 84.9022 68.6487 84.6596C68.4796 84.5028 68.288 84.3704 68.1032 84.2332C67.4428 83.7455 66.7802 83.2603 66.1153 82.7751C66.0116 82.6991 65.9012 82.6329 65.7907 82.5668C65.5631 82.4344 65.3783 82.5055 65.2273 82.7187C65.1799 82.7849 65.1326 82.8486 65.0424 82.8804C65.3174 82.2041 65.7457 81.6331 66.0995 81.0131C66.1356 81.0327 66.1671 81.0523 66.2009 81.0694Z" fill="#D8A70D"/>
<path d="M7.77814 71.931C7.73757 71.8894 7.68122 71.8575 7.65643 71.806C7.46936 71.409 7.31609 71.3159 6.91941 71.4654C5.92545 71.8403 4.936 72.2275 3.95105 72.627C3.57014 72.7814 3.50929 72.948 3.59944 73.3744C3.61071 73.4283 3.60621 73.4847 3.56789 73.5558C3.25911 72.9088 3.06753 72.2177 2.83763 71.5414C2.86243 71.5242 2.88947 71.5095 2.91427 71.4923C2.95033 71.5414 2.99315 71.5855 3.01794 71.6394C3.20727 72.0413 3.32222 72.1197 3.72566 71.9678C4.72864 71.5928 5.72936 71.1983 6.72107 70.7915C7.11324 70.6297 7.15381 70.4998 7.07267 70.0514C7.0614 69.9926 7.07042 69.9313 7.07042 69.87C7.09747 69.8627 7.12451 69.8553 7.15381 69.848C7.38145 70.5243 7.6091 71.2032 7.83674 71.8795C7.81871 71.8967 7.79842 71.9139 7.77814 71.931Z" fill="#D8A70D"/>
<path d="M74.3081 41.8372C74.2608 41.7858 74.1842 41.7416 74.1684 41.6804C74.0625 41.2515 73.9701 40.8178 73.8731 40.3864C73.8957 40.3668 73.9182 40.3472 73.9385 40.3276C73.9903 40.384 74.0692 40.4306 74.0873 40.4967C74.1549 40.7418 74.2721 40.705 74.4299 40.6021C74.9775 40.2492 74.9798 40.2517 74.8243 39.5875C74.7972 39.4748 74.7837 39.3572 74.7454 39.2494C74.7048 39.1366 74.6507 38.9553 74.5831 38.9455C74.3622 38.9087 74.1211 38.894 73.9115 38.9602C73.8348 38.9847 73.8236 39.2567 73.7695 39.4626C73.7289 39.4209 73.6478 39.3792 73.632 39.3204C73.5463 39.0043 73.4742 38.6833 73.4066 38.3622C73.3953 38.3108 73.4359 38.2446 73.4517 38.1858C73.4945 38.2176 73.5351 38.2495 73.5779 38.2813C73.7402 38.4014 73.8912 38.5926 74.0692 38.6269C74.8243 38.7739 75.5883 38.8744 76.3502 38.9896C76.411 38.9994 76.5012 39.0165 76.535 38.9798C76.8821 38.6048 77.0263 39.0043 77.2607 39.1856C76.4268 39.8203 75.6109 40.4355 74.7972 41.0579C74.5651 41.2368 74.2856 41.3888 74.3758 41.8029C74.3555 41.8127 74.3307 41.825 74.3081 41.8372ZM76.251 39.2199C76.2487 39.1954 76.2465 39.1709 76.2465 39.1464C75.8002 39.0852 75.3517 39.0239 74.8784 38.9602C74.964 39.3425 75.0429 39.688 75.1286 40.0703C75.523 39.7713 75.8881 39.4944 76.251 39.2199Z" fill="#D8A70D"/>
<path d="M3.45745 65.0766C4.33421 65.1623 4.37703 65.1379 4.37478 64.5497C4.42437 64.611 4.5055 64.6649 4.52128 64.7359C4.60467 65.0717 4.67004 65.4148 4.75118 65.7946C4.68356 65.7824 4.60017 65.7873 4.5889 65.7603C4.45817 65.4221 4.16742 65.3805 3.89696 65.3363C3.24333 65.2236 2.58745 65.1256 1.92707 65.0496C1.75577 65.03 1.57546 65.1231 1.39741 65.1501C1.32303 65.1623 1.23287 65.1574 1.17202 65.1182C1.06608 65.0521 0.97593 64.9516 0.856474 64.8487C1.49658 64.3634 2.08484 63.9174 2.67085 63.469C2.95709 63.2509 3.24108 63.0278 3.52507 62.8048C3.68284 62.6799 3.81356 62.5426 3.78652 62.3C3.78201 62.2559 3.84286 62.2044 3.91273 62.0917C4.03895 62.6309 4.14939 63.0965 4.25307 63.5645C4.25983 63.5939 4.21926 63.6528 4.18996 63.6675C4.16968 63.6773 4.11558 63.6381 4.09755 63.6062C3.8902 63.2582 3.88569 63.2558 3.56113 63.4959C3.17572 63.7802 3.17797 63.7802 3.2839 64.2752C3.3425 64.5399 3.39885 64.8046 3.45745 65.0766ZM3.01344 63.9223C2.60323 64.2336 2.22683 64.5203 1.7986 64.8462C2.326 64.9197 2.78805 64.9835 3.27939 65.0545C3.18473 64.6551 3.10134 64.3046 3.01344 63.9223Z" fill="#D8A70D"/>
<path d="M2.39587 53.316C2.02398 53.3209 1.96989 53.24 2.07582 52.9214C2.13893 52.7303 2.19302 52.5342 2.26966 52.348C2.29896 52.2769 2.3801 52.1715 2.42517 52.1789C2.67986 52.2181 2.9368 52.2647 3.17797 52.3529C3.31996 52.4044 3.35152 52.5538 3.26362 52.7156C3.05851 53.1003 2.74522 53.2866 2.39587 53.316Z" fill="#D8A70D"/>
<path d="M76.7897 52.1176C76.6319 52.7793 76.1225 53.0856 75.4644 52.9165C75.5478 52.6127 75.6154 52.3039 75.7213 52.0098C75.7461 51.9387 75.9016 51.8677 75.9805 51.8848C76.2487 51.9412 76.5102 52.0343 76.7897 52.1176Z" fill="#D8A70D"/>
</svg>
