<svg width="1857" height="179" viewBox="0 0 1857 179" fill="none" xmlns="http://www.w3.org/2000/svg">
<path d="M47.2121 179C28.8494 179 10.2385 174.797 1.05713 168.616C0.312693 156.501 -0.183595 143.398 0.0645502 129.8H3.53858C9.99035 157.49 22.6457 174.055 49.9417 174.055C75.0044 174.055 88.9005 156.749 88.9005 139.442C88.9005 93.9503 3.53858 100.131 3.53858 44.0083C3.53858 13.3508 31.8271 0 53.6639 0C65.5749 0 82.4487 3.21408 93.119 10.1367C93.8634 21.5097 94.1115 33.8715 93.8634 46.7279H90.3894C83.9376 22.0041 70.0415 4.94475 51.1824 4.94475C30.8345 4.94475 15.9458 20.0262 15.9458 41.5359C15.9458 88.5111 102.052 81.0939 102.052 134.497C102.052 159.468 82.4487 179 47.2121 179Z" fill="#322C26"/>
<path d="M121.673 176.033V172.819C140.532 170.347 145.247 158.232 145.247 131.036V47.9641C145.247 24.7237 145.247 8.90054 122.914 6.18093V2.96684C133.088 3.70856 142.517 4.20303 151.202 4.20303C160.136 4.20303 168.821 3.70856 179.739 2.96684V6.18093C161.376 8.15884 157.654 18.2956 157.654 47.9641V135.239C157.654 157.738 163.61 169.605 182.717 169.605C206.042 169.605 210.509 169.358 220.187 162.435C228.375 156.501 236.068 144.387 239.046 129.8H242.52C242.272 145.128 241.775 160.457 240.783 176.033C222.42 175.539 206.539 175.291 190.409 175.291C170.061 175.291 147.48 175.539 121.673 176.033Z" fill="#322C26"/>
<path d="M308.443 179C290.08 179 271.469 174.797 262.288 168.616C261.544 156.501 261.047 143.398 261.295 129.8H264.769C271.221 157.49 283.877 174.055 311.173 174.055C336.235 174.055 350.131 156.749 350.131 139.442C350.131 93.9503 264.769 100.131 264.769 44.0083C264.769 13.3508 293.058 0 314.895 0C326.806 0 343.68 3.21408 354.35 10.1367C355.094 21.5097 355.342 33.8715 355.094 46.7279H351.62C345.168 22.0041 331.272 4.94475 312.413 4.94475C292.065 4.94475 277.177 20.0262 277.177 41.5359C277.177 88.5111 363.283 81.0939 363.283 134.497C363.283 159.468 343.68 179 308.443 179Z" fill="#322C26"/>
<path d="M541.806 138.206C553.965 154.771 566.869 168.863 579.772 173.066V176.033C572.824 175.539 569.102 175.291 562.898 175.291C556.695 175.291 550.739 175.539 545.776 176.033C543.543 168.369 535.354 150.815 528.902 142.162L503.095 106.065C495.651 96.1754 491.432 94.1975 483.244 93.9503H465.874V131.036C465.874 160.952 472.822 170.841 488.207 172.819V176.033C478.281 175.044 469.099 174.797 459.918 174.797C450.489 174.797 441.307 175.044 430.885 176.033V172.819C449.248 170.594 453.963 157.49 453.963 131.036V45.7389C453.963 16.5649 449.248 9.14779 431.63 6.18093V2.96684H492.177C523.939 2.96684 551.484 18.5428 551.484 47.2224C551.484 69.4738 532.625 87.0276 508.306 92.2196L541.806 138.206ZM465.874 88.2638H492.921C520.217 88.2638 536.099 70.2155 536.099 47.7168C536.099 22.0041 516.495 8.40607 490.44 8.40607C482.499 8.40607 473.07 8.65331 465.874 9.14779V88.2638Z" fill="#322C26"/>
<path d="M705.345 132.272H708.819C708.571 146.859 708.075 161.446 707.082 176.033C688.719 175.539 672.838 175.291 653.979 175.291C633.879 175.291 610.802 175.539 585.491 176.033V172.819C604.102 170.347 608.569 158.232 608.569 131.036V47.9641C608.569 24.7237 608.32 8.65331 586.236 6.18093V2.96684C601.869 3.46133 616.013 3.70856 636.609 3.70856C652.49 3.70856 678.794 3.46133 704.104 2.96684C704.601 16.5649 704.849 30.4102 704.849 44.0083H701.375C692.69 13.1036 682.268 8.90054 655.468 8.90054C644.798 8.90054 631.398 8.90054 620.976 9.64226V82.8246H654.724C670.109 82.8246 677.305 69.4738 679.042 54.8867H682.516C682.02 62.7983 681.771 73.924 681.771 85.0497C681.771 96.1754 682.02 107.548 682.516 115.707H679.042C677.305 101.367 670.109 88.5111 654.724 88.5111H620.976V129.8C620.976 156.996 625.442 169.852 646.535 169.852C655.22 169.852 660.183 169.852 668.62 170.099C687.479 170.594 699.638 155.265 705.345 132.272Z" fill="#322C26"/>
<path d="M782.681 179C764.318 179 745.707 174.797 736.526 168.616C735.782 156.501 735.285 143.398 735.534 129.8H739.008C745.459 157.49 758.115 174.055 785.411 174.055C810.473 174.055 824.37 156.749 824.37 139.442C824.37 93.9503 739.008 100.131 739.008 44.0083C739.008 13.3508 767.296 0 789.133 0C801.044 0 817.918 3.21408 828.588 10.1367C829.332 21.5097 829.581 33.8715 829.332 46.7279H825.858C819.407 22.0041 805.51 4.94475 786.651 4.94475C766.304 4.94475 751.415 20.0262 751.415 41.5359C751.415 88.5111 837.521 81.0939 837.521 134.497C837.521 159.468 817.918 179 782.681 179Z" fill="#322C26"/>
<path d="M857.142 176.033V172.819C875.753 170.594 880.22 157.49 880.22 131.036V47.9641C880.22 18.2956 876.746 8.40607 857.887 6.18093V2.96684C868.06 3.70856 877.242 4.20303 886.423 4.20303C895.356 4.20303 904.538 3.95579 914.96 2.96684V6.18093C896.349 8.40607 892.627 18.2956 892.627 47.9641V131.036C892.627 157.49 897.093 170.594 915.704 172.819V176.033C905.282 175.044 895.605 174.797 886.423 174.797C877.242 174.797 867.812 175.044 857.142 176.033Z" fill="#322C26"/>
<path d="M932.022 176.033V172.819C950.385 170.347 955.099 158.232 955.099 131.036V47.9641C955.099 24.7237 954.603 8.90054 932.766 6.18093V2.96684C944.429 3.21408 954.107 3.21408 964.281 3.21408C974.455 3.21408 985.373 2.96684 1000.51 2.96684C1056.09 2.96684 1088.11 38.3218 1088.11 89.5C1088.11 139.195 1051.63 176.033 1002.99 176.033C991.577 176.033 973.214 175.786 956.092 175.786C947.407 175.786 938.97 175.786 932.022 176.033ZM1004.73 170.099C1040.96 169.358 1071.48 141.173 1071.48 89.7472C1071.48 35.6022 1045.18 8.90054 998.028 8.90054C987.606 8.90054 977.681 9.14779 967.507 9.64226V131.778C967.507 154.771 972.47 168.122 986.614 169.358C992.321 169.852 1000.26 170.099 1004.73 170.099Z" fill="#322C26"/>
<path d="M1228.05 132.272H1231.52C1231.28 146.859 1230.78 161.446 1229.79 176.033C1211.42 175.539 1195.54 175.291 1176.68 175.291C1156.58 175.291 1133.51 175.539 1108.2 176.033V172.819C1126.81 170.347 1131.27 158.232 1131.27 131.036V47.9641C1131.27 24.7237 1131.02 8.65331 1108.94 6.18093V2.96684C1124.57 3.46133 1138.72 3.70856 1159.31 3.70856C1175.19 3.70856 1201.5 3.46133 1226.81 2.96684C1227.3 16.5649 1227.55 30.4102 1227.55 44.0083H1224.08C1215.39 13.1036 1204.97 8.90054 1178.17 8.90054C1167.5 8.90054 1154.1 8.90054 1143.68 9.64226V82.8246H1177.43C1192.81 82.8246 1200.01 69.4738 1201.75 54.8867H1205.22C1204.72 62.7983 1204.48 73.924 1204.48 85.0497C1204.48 96.1754 1204.72 107.548 1205.22 115.707H1201.75C1200.01 101.367 1192.81 88.5111 1177.43 88.5111H1143.68V129.8C1143.68 156.996 1148.15 169.852 1169.24 169.852C1177.92 169.852 1182.89 169.852 1191.32 170.099C1210.18 170.594 1222.34 155.265 1228.05 132.272Z" fill="#322C26"/>
<path d="M1395.53 4.20303C1404.96 4.20303 1414.14 3.70856 1422.58 2.96684V6.18093C1402.98 8.40607 1398.76 24.971 1398.76 55.134V177.764H1394.79L1285.11 21.7569V124.113C1285.11 150.815 1288.58 170.841 1311.91 172.819V176.033C1303.47 175.044 1292.55 174.797 1281.63 174.797C1271.21 174.797 1260.54 175.044 1253.59 176.033V172.819C1272.95 170.594 1278.16 150.815 1278.16 124.113V56.3702C1278.16 26.2072 1272.2 8.15884 1253.59 6.18093V2.96684C1261.78 3.46133 1267.98 3.70856 1273.44 3.70856C1278.9 3.70856 1283.87 3.46133 1288.33 2.96684L1391.81 149.084V55.134C1391.81 24.971 1386.1 8.15884 1365.26 6.18093V2.96684C1375.93 3.70856 1385.61 4.20303 1395.53 4.20303Z" fill="#322C26"/>
<path d="M1524.66 179C1476.27 179 1439.55 141.173 1439.55 89.2528C1439.55 37.8273 1475.53 0 1524.41 0C1540.54 0 1563.37 4.69751 1579 14.8343C1579.75 29.174 1580 44.0083 1579.75 58.3481H1576.27C1570.81 31.3992 1553.2 5.19198 1520.19 5.19198C1484.21 5.19198 1455.92 35.355 1455.92 89.5C1455.92 143.398 1485.95 173.561 1522.92 173.561C1549.72 173.561 1571.56 150.073 1576.27 124.36H1579.75C1580 137.711 1579.75 151.062 1579 164.413C1562.87 175.044 1539.55 179 1524.66 179Z" fill="#322C26"/>
<path d="M1724.82 132.272H1728.3C1728.05 146.859 1727.55 161.446 1726.56 176.033C1708.2 175.539 1692.32 175.291 1673.46 175.291C1653.36 175.291 1630.28 175.539 1604.97 176.033V172.819C1623.58 170.347 1628.05 158.232 1628.05 131.036V47.9641C1628.05 24.7237 1627.8 8.65331 1605.71 6.18093V2.96684C1621.35 3.46133 1635.49 3.70856 1656.09 3.70856C1671.97 3.70856 1698.27 3.46133 1723.58 2.96684C1724.08 16.5649 1724.33 30.4102 1724.33 44.0083H1720.85C1712.17 13.1036 1701.75 8.90054 1674.95 8.90054C1664.28 8.90054 1650.88 8.90054 1640.45 9.64226V82.8246H1674.2C1689.59 82.8246 1696.78 69.4738 1698.52 54.8867H1701.99C1701.5 62.7983 1701.25 73.924 1701.25 85.0497C1701.25 96.1754 1701.5 107.548 1701.99 115.707H1698.52C1696.78 101.367 1689.59 88.5111 1674.2 88.5111H1640.45V129.8C1640.45 156.996 1644.92 169.852 1666.01 169.852C1674.7 169.852 1679.66 169.852 1688.1 170.099C1706.96 170.594 1719.12 155.265 1724.82 132.272Z" fill="#322C26"/>
<path d="M1802.16 179C1783.8 179 1765.19 174.797 1756 168.616C1755.26 156.501 1754.76 143.398 1755.01 129.8H1758.49C1764.94 157.49 1777.59 174.055 1804.89 174.055C1829.95 174.055 1843.85 156.749 1843.85 139.442C1843.85 93.9503 1758.49 100.131 1758.49 44.0083C1758.49 13.3508 1786.77 0 1808.61 0C1820.52 0 1837.4 3.21408 1848.07 10.1367C1848.81 21.5097 1849.06 33.8715 1848.81 46.7279H1845.34C1838.89 22.0041 1824.99 4.94475 1806.13 4.94475C1785.78 4.94475 1770.89 20.0262 1770.89 41.5359C1770.89 88.5111 1857 81.0939 1857 134.497C1857 159.468 1837.4 179 1802.16 179Z" fill="#322C26"/>
</svg>
