<svg width="16" height="15" viewBox="0 0 16 15" fill="none" xmlns="http://www.w3.org/2000/svg">
<path d="M12.9634 3.06391C13.0427 3.14316 13.1186 3.22571 13.1968 3.30716C13.2749 3.3886 13.3442 3.47668 13.4185 3.56199C13.7078 3.91147 13.9648 4.28662 14.1864 4.68288C14.642 5.48972 14.9265 6.38289 15.0225 7.30728C15.1187 8.24733 15.0063 9.19895 14.6932 10.0944C14.38 10.9898 13.8739 11.8069 13.2109 12.4876C13.1177 12.5808 13.0245 12.6741 12.9274 12.7624C8.85079 8.48165 8.79664 7.13125 12.7962 2.89668L12.9634 3.06391ZM4.91745 1.58957C5.73551 1.20809 6.61822 0.987924 7.51687 0.941222C9.32614 0.850654 11.0964 1.44734 12.4725 2.61157C12.5551 2.68092 12.6376 2.75685 12.7213 2.83059L12.7443 2.85354C8.56593 6.79905 7.19664 6.7944 3.04096 2.86818C3.59585 2.34608 4.22921 1.91452 4.91745 1.58957ZM1.4594 10.8975C1.04574 10.0641 0.813415 9.15108 0.777611 8.21821C0.741807 7.28533 0.903329 6.35358 1.25162 5.48385C1.63913 4.51165 2.23299 3.63357 2.9919 2.91068C6.96238 7.11173 6.92593 8.46419 2.85476 12.7463C2.28209 12.2194 1.80949 11.5933 1.4594 10.8975ZM10.9093 14.0416C9.21581 14.7512 7.33215 14.8444 5.58838 14.305C4.71484 14.0373 3.90102 13.6071 3.18943 13.0369C3.09043 12.9566 2.99363 12.873 2.89905 12.7873C7.23354 8.6714 8.56601 8.68226 12.8872 12.7982C12.3009 13.3196 11.6324 13.7399 10.9093 14.0416Z" fill="#FF3C2B"/>
</svg>
