<svg width="111" height="15" viewBox="0 0 111 15" fill="none" xmlns="http://www.w3.org/2000/svg">
<path d="M0.624581 0.288461L0 3.44093H2.61921L0.423103 14.7115H4.41236L7.23305 0.288461H0.624581Z" fill="#F5FBFF"/>
<path d="M14.9552 15C17.4736 15 19.5488 14.2788 21.1405 12.3214L18.7832 9.95192C17.7758 11.1264 16.6073 11.6209 15.338 11.6209C13.1822 11.6209 11.8927 10.3228 11.8927 8.38599C11.8927 5.54258 13.706 3.37912 16.4461 3.37912C17.8564 3.37912 18.884 3.97665 19.5488 5.06868L22.43 2.71978C21.4226 0.968406 19.3071 0 16.708 0C11.4696 0 7.86314 3.64698 7.86314 8.65385C7.86314 12.4245 10.6234 15 14.9552 15Z" fill="#F5FBFF"/>
<path d="M32.6159 14.7115H36.585L33.1801 0.288461H29.2513L20.2049 14.7115H24.4158L26.0478 11.9093H32.0518L32.6159 14.7115ZM27.8006 8.9011L30.5004 4.2239L31.4474 8.9011H27.8006Z" fill="#F5FBFF"/>
<path d="M42.9947 15C47.125 15 49.7845 12.9602 49.7845 9.86951C49.7845 5.41896 42.9141 6.5522 42.9343 4.57418C42.9343 3.79121 43.8208 3.17308 45.4729 3.17308C46.8631 3.17308 48.2331 3.54396 49.3413 4.26511L50.7919 1.23626C49.5226 0.432693 47.7093 0 45.7147 0C41.5441 0 38.945 2.03984 38.945 5.1511C38.945 9.68406 45.7953 8.61264 45.7953 10.5495C45.7953 11.3324 44.9088 11.8269 43.3775 11.8269C41.7657 11.8269 40.1136 11.3324 38.6831 10.4052L37.1116 13.4547C38.3809 14.3407 40.577 15 42.9947 15Z" fill="#F5FBFF"/>
<path d="M63.0107 0.288461L61.9631 5.68681H56.5433L57.591 0.288461H53.6017L50.781 14.7115H54.7703L55.8583 9.10714H61.278L60.1901 14.7115H64.1793L67 0.288461H63.0107Z" fill="#F5FBFF"/>
<path d="M79.5748 7.26429C81.1364 6.57857 82.1432 5.31429 82.1432 3.51429C82.1432 1.26429 80.3967 0 77.1502 0H69.8766L67 15H74.9106C78.6091 15 81.5062 13.5 81.5062 10.2429C81.5062 8.85 80.8076 7.82143 79.5748 7.26429ZM76.1845 3.06429C77.253 3.06429 77.8899 3.42857 77.8899 4.24286C77.8899 5.35714 77.1091 5.95714 75.6708 5.95714H72.7532L73.3079 3.06429H76.1845ZM75.1366 11.9357H71.6025L72.1778 8.89286H75.7736C76.7598 8.89286 77.4584 9.25714 77.4584 10.1571C77.4584 11.3571 76.5544 11.9357 75.1366 11.9357Z" fill="#FF3C2B"/>
<path d="M96.2909 3.27857L96.9279 0H85.6681L82.7915 15H94.3184L94.9759 11.7214H87.4351L87.9488 8.97857H94.3595L94.9553 5.80714H88.5652L89.0378 3.27857H96.2909Z" fill="#FF3C2B"/>
<path d="M99.6375 15H103.706L105.945 3.36429H110.342L111 0H98.117L97.4595 3.36429H101.877L99.6375 15Z" fill="#FF3C2B"/>
</svg>
