<svg width="192" height="25" viewBox="0 0 192 25" fill="none" xmlns="http://www.w3.org/2000/svg">
<path d="M1.07204 0.480769L0 5.73489H4.49566L0.726222 24.5192H7.57346L12.4149 0.480769H1.07204Z" fill="#AFC4D2"/>
<path d="M25.6693 25C29.992 25 33.554 23.7981 36.286 20.5357L32.2399 16.5865C30.5108 18.544 28.505 19.3681 26.3264 19.3681C22.6261 19.3681 20.4128 17.2047 20.4128 13.9766C20.4128 9.23764 23.5252 5.63187 28.2284 5.63187C30.6491 5.63187 32.4128 6.62775 33.554 8.4478L38.4992 4.53297C36.7701 1.61401 33.139 0 28.6779 0C19.6866 0 13.4964 6.0783 13.4964 14.4231C13.4964 20.7074 18.2342 25 25.6693 25Z" fill="#AFC4D2"/>
<path d="M55.9826 24.5192H62.7952L56.9509 0.480769H50.2074L34.6801 24.5192H41.9077L44.7088 19.8489H55.0143L55.9826 24.5192ZM47.7175 14.8352L52.3515 7.03984L53.9768 14.8352H47.7175Z" fill="#AFC4D2"/>
<path d="M73.7969 25C80.8862 25 85.451 21.6003 85.451 16.4492C85.451 9.0316 73.6586 10.9203 73.6931 7.62363C73.6931 6.31868 75.2148 5.28846 78.0505 5.28846C80.4366 5.28846 82.7882 5.90659 84.6902 7.10852L87.1801 2.06044C85.0015 0.721155 81.8891 0 78.4655 0C71.307 0 66.8459 3.39973 66.8459 8.58516C66.8459 16.1401 78.6038 14.3544 78.6038 17.5824C78.6038 18.8874 77.0822 19.7115 74.4539 19.7115C71.6874 19.7115 68.8517 18.8874 66.3963 17.342L63.699 22.4244C65.8776 23.9011 69.647 25 73.7969 25Z" fill="#AFC4D2"/>
<path d="M108.153 0.480769L106.354 9.47802H97.0519L98.8502 0.480769H92.003L87.1615 24.5192H94.0087L95.8762 15.1786H105.179L103.311 24.5192H110.159L115 0.480769H108.153Z" fill="#AFC4D2"/>
<path d="M137.006 12.1071C139.739 10.9643 141.501 8.85714 141.501 5.85714C141.501 2.10714 138.444 0 132.763 0H120.034L115 25H128.844C135.316 25 140.386 22.5 140.386 17.0714C140.386 14.75 139.163 13.0357 137.006 12.1071ZM131.073 5.10714C132.943 5.10714 134.057 5.71429 134.057 7.07143C134.057 8.92857 132.691 9.92857 130.174 9.92857H125.068L126.039 5.10714H131.073ZM129.239 19.8929H123.054L124.061 14.8214H130.354C132.08 14.8214 133.302 15.4286 133.302 16.9286C133.302 18.9286 131.72 19.8929 129.239 19.8929Z" fill="#2C3E6D"/>
<path d="M166.259 5.46429L167.374 0H147.669L142.635 25H162.807L163.958 19.5357H150.761L151.66 14.9643H162.879L163.922 9.67857H152.739L153.566 5.46429H166.259Z" fill="#2C3E6D"/>
<path d="M172.116 25H179.235L183.155 5.60714H190.849L192 0H169.455L168.304 5.60714H176.035L172.116 25Z" fill="#2C3E6D"/>
</svg>
