<svg width="23" height="23" viewBox="0 0 23 23" fill="none" xmlns="http://www.w3.org/2000/svg">
<path d="M21.6356 10.9415C21.3663 10.8243 21.1874 10.5882 21.1449 10.2936C21.102 9.99675 21.2081 9.71702 21.436 9.52619C22.2345 8.85761 22.4777 7.77099 22.0411 6.82228C21.6087 5.88237 20.6359 5.36474 19.6195 5.53436C19.3341 5.58198 19.0608 5.48302 18.8694 5.26299C18.6724 5.03662 18.6114 4.74176 18.7017 4.45407C19.0152 3.4559 18.6351 2.4085 17.756 1.84778C16.8865 1.29317 15.7899 1.38818 15.0271 2.08407C14.8114 2.28083 14.528 2.347 14.2495 2.26556C13.9667 2.18286 13.7601 1.96997 13.6827 1.68153C13.4127 0.675764 12.5356 0 11.5 0C10.4644 0 9.58724 0.675764 9.31726 1.68153C9.23982 1.97002 9.03323 2.1829 8.75045 2.2656C8.47194 2.347 8.18858 2.28092 7.97287 2.08412C7.21002 1.38823 6.11337 1.29331 5.24397 1.84783C4.36486 2.40855 3.98483 3.45595 4.29829 4.45412C4.38863 4.74185 4.32753 5.03671 4.1306 5.26308C3.93915 5.48315 3.66571 5.58207 3.38042 5.53445C2.36444 5.36492 1.39128 5.88246 0.958824 6.82232C0.522327 7.77103 0.765484 8.85766 1.56395 9.52628C1.79184 9.71706 1.89794 9.99679 1.85509 10.2937C1.81255 10.5882 1.63372 10.8244 1.36442 10.9415C0.413709 11.3551 -0.124669 12.326 0.0246933 13.3572C0.173516 14.3848 0.962103 15.1602 1.98688 15.2866C2.27541 15.3222 2.51129 15.4961 2.63406 15.7638C2.75948 16.0373 2.73585 16.3374 2.56928 16.5871C1.98935 17.4563 2.06127 18.5691 2.7482 19.3559C3.42682 20.1333 4.50506 20.3527 5.43129 19.9019C5.69178 19.7751 5.9813 19.7921 6.22562 19.9485C6.47633 20.1089 6.61648 20.3736 6.61019 20.6746C6.58827 21.7192 7.24394 22.6165 8.24181 22.9073C8.45622 22.9698 8.67233 23 8.88485 23C9.65484 23 10.3775 22.6034 10.7995 21.9091C10.9529 21.6567 11.2082 21.512 11.5 21.512C11.7918 21.512 12.0471 21.6567 12.2005 21.9091C12.739 22.795 13.767 23.1962 14.7582 22.9073C15.756 22.6165 16.4118 21.7192 16.3898 20.6745C16.3835 20.3736 16.5236 20.1089 16.7744 19.9484C17.0186 19.7921 17.3082 19.775 17.5687 19.9019C18.4949 20.3527 19.5731 20.1332 20.2518 19.3559C20.9388 18.569 21.0107 17.4562 20.4307 16.587C20.2642 16.3373 20.2406 16.0372 20.366 15.7638C20.4887 15.4961 20.7246 15.3221 21.0131 15.2865C22.0379 15.1601 22.8265 14.3848 22.9753 13.3571C23.1246 12.326 22.5862 11.3551 21.6356 10.9415ZM9.34376 6.4687C10.1364 6.4687 10.7812 7.11355 10.7812 7.90621C10.7812 8.69886 10.1364 9.34371 9.34376 9.34371C8.55113 9.34371 7.90629 8.69886 7.90629 7.90621C7.90629 7.11355 8.55113 6.4687 9.34376 6.4687ZM13.6562 16.5313C12.8635 16.5313 12.2187 15.8864 12.2187 15.0937C12.2187 14.3011 12.8635 13.6562 13.6562 13.6562C14.4488 13.6562 15.0936 14.3011 15.0936 15.0937C15.0936 15.8864 14.4488 16.5313 13.6562 16.5313ZM15.6018 8.41445L8.41448 15.602C8.27415 15.7424 8.0902 15.8125 7.90629 15.8125C7.72239 15.8125 7.53844 15.7424 7.3981 15.602C7.11739 15.3213 7.11739 14.8662 7.3981 14.5855L14.5855 7.398C14.8661 7.11728 15.3212 7.11728 15.6019 7.398C15.8825 7.67867 15.8825 8.13378 15.6018 8.41445Z" fill="#FFD84E"/>
</svg>
