<svg  viewBox="0 0 623 623" fill="none" xmlns="http://www.w3.org/2000/svg">
<mask id="mask0_770_1890" style="mask-type:alpha" maskUnits="userSpaceOnUse" x="0" y="0" width="623" height="623">
<path class="path path-1" d="M420.667 299.932C468.44 294.896 501.44 284.306 488.889 269.473C474.392 252.336 323.953 97.7715 306.427 110.136C287.412 123.547 376.259 247.646 356.343 266.962C333.326 289.286 122.185 109.391 161.754 339.418C198.135 550.931 255.286 432.877 311.505 451.096C585.624 539.933 270.223 315.801 420.672 299.937L420.667 299.932Z" stroke="white" stroke-miterlimit="10"/>
<path class="path path-2" d="M434.088 300.703C293.468 325.821 580.413 539.938 311.5 462.488C247.962 444.186 184.988 546.397 151.035 337.555C114.111 115.478 315.195 277.066 342.348 252.398C364.251 232.497 284.446 114.417 306.764 102.864C331.132 90.251 478.895 241.125 496.099 264.131C508.526 280.751 478.621 292.758 434.088 300.708V300.703Z" stroke="white" stroke-miterlimit="10"/>
<path class="path path-3" d="M447.509 301.475C316.531 335.919 574.481 541.662 311.5 473.88C240.514 455.583 172.572 541.755 140.316 335.692C106.782 121.446 297.013 264.804 328.347 237.828C352.187 217.306 281.869 105.696 307.1 95.5822C338.657 82.9326 483.496 229.764 503.304 258.774C515.762 277.024 488.739 290.631 447.509 301.475Z" stroke="white" stroke-miterlimit="10"/>
<path class="path path-4" d="M460.93 302.246C339.413 346.147 568.074 544.679 311.5 485.271C232.978 467.089 159.751 537.184 129.602 333.828C99.0084 127.486 278.805 252.517 314.357 223.263C340.096 202.084 279.462 97.2435 307.442 88.305C346.359 75.8728 488.206 218.315 510.514 253.423C523.101 273.235 498.816 288.561 460.935 302.246H460.93Z" stroke="white" stroke-miterlimit="10"/>
<path class="path path-5" d="M474.356 303.017C362.129 356.576 561.35 548.69 311.5 496.669C225.375 478.734 146.895 532.63 118.883 331.97C91.1827 133.546 260.56 240.199 300.357 208.699C327.98 186.836 277.097 88.9623 307.779 81.033C354.128 69.0459 493.004 206.81 517.718 248.076C530.492 269.405 508.847 286.558 474.356 303.017Z" stroke="white" stroke-miterlimit="10"/>
<path class="path path-6" d="M487.776 303.788C384.732 367.274 554.399 553.473 311.5 508.06C217.71 490.525 134.002 528.08 108.169 330.107C83.3102 139.618 242.295 227.849 286.366 194.134C315.853 171.573 274.762 80.795 308.12 73.7559C361.933 62.4054 497.895 195.252 524.928 242.724C537.93 265.549 518.857 284.643 487.782 303.788H487.776Z" stroke="white" stroke-miterlimit="10"/>
<path class="path path-7" d="M501.197 304.559C407.319 378.293 547.308 558.871 311.5 519.457C210.003 502.491 121.062 523.546 97.4504 328.249C75.3809 145.699 224.014 215.484 272.366 179.569C303.705 156.294 272.412 72.6949 308.456 66.4788C369.743 55.915 502.848 183.653 532.133 237.373C545.388 261.683 528.862 282.831 501.202 304.559H501.197Z" stroke="white" stroke-miterlimit="10"/>
<path class="path path-8" d="M514.618 305.33C430.01 389.654 540.124 564.766 311.495 530.849C202.255 514.644 108.071 519.018 86.7314 326.386C67.3843 151.791 205.712 203.088 258.365 165.005C291.552 141 270.052 64.6465 308.788 59.2068C377.543 49.554 507.858 172.039 539.332 232.026C552.862 257.812 538.903 281.129 514.613 305.33H514.618Z" stroke="white" stroke-miterlimit="10"/>
<path class="path path-9" d="M528.044 306.102C452.944 401.3 532.899 571.06 311.5 542.241C194.491 527.009 95.0335 514.494 76.0177 324.527C59.3413 157.893 187.411 190.682 244.375 150.44C279.4 125.7 267.697 56.6344 309.135 51.9296C385.348 43.2861 512.941 160.393 546.547 226.674C560.367 253.93 549.027 279.503 528.044 306.102Z" stroke="white" stroke-miterlimit="10"/>
<path class="path path-10" d="M541.465 306.873C476.209 413.152 525.643 577.69 311.5 553.638C186.696 539.622 81.918 509.991 65.2986 322.669C51.2205 164.006 169.088 178.255 230.375 135.876C267.237 110.385 265.311 48.643 309.466 44.6576C393.122 37.101 518.06 148.737 553.747 221.328C567.872 250.053 559.228 277.94 541.46 306.878L541.465 306.873Z" stroke="white" stroke-miterlimit="10"/>
<path class="path path-11" d="M554.885 307.644C499.846 425.082 518.391 584.595 311.5 565.03C178.891 552.489 68.7299 505.488 54.5845 320.806C43.0425 170.118 150.766 165.812 216.384 121.311C255.079 95.0697 262.93 40.6775 309.812 37.3805C400.901 30.9781 523.23 137.056 560.962 215.976C575.397 246.166 569.538 276.393 554.891 307.649L554.885 307.644Z" stroke="white" stroke-miterlimit="10"/>
<path class="path path-12" d="M568.312 308.415C523.847 436.981 511.176 591.737 311.5 576.422C171.081 565.656 55.4491 500.99 43.8657 318.943C34.7874 176.236 132.434 153.354 202.384 106.741C242.905 79.7391 260.524 32.7172 310.144 30.0982C408.654 24.9017 528.427 125.364 568.162 210.619C582.918 242.279 579.921 274.819 568.306 308.41L568.312 308.415Z" stroke="white" stroke-miterlimit="10"/>
<path class="path path-13" d="M581.732 309.186C548.142 448.751 504.003 599.071 311.5 587.819C163.276 579.155 42.0594 496.498 33.1519 317.085C26.4648 182.364 114.096 140.891 188.389 92.1816C230.737 64.4188 258.112 24.7827 310.486 22.8314C416.403 18.8823 533.665 113.677 575.377 205.278C590.459 238.402 590.392 273.22 581.738 309.192L581.732 309.186Z" stroke="white" stroke-miterlimit="10"/>
<path class="path path-14" d="M595.153 309.958C572.644 460.345 496.901 606.581 311.5 599.211C155.492 593.011 28.5401 492.005 22.4327 315.221C18.054 188.477 95.7476 128.412 174.394 77.6119C218.569 49.0778 255.695 16.8431 310.822 15.5491C424.13 12.8888 538.923 101.964 582.581 199.921C597.995 234.51 600.903 271.559 595.153 309.958Z" stroke="white" stroke-miterlimit="10"/>
<path class="path path-15" d="M608.574 310.729C597.286 471.757 489.883 614.226 311.495 610.603C147.723 607.275 14.8607 487.497 11.7138 313.358C9.56586 194.584 77.3323 115.814 160.393 63.0472C206.359 33.685 253.267 8.91892 311.158 8.27712C431.852 6.93142 544.213 90.2511 589.786 194.574C605.536 230.634 611.441 269.85 608.574 310.729Z" stroke="white" stroke-miterlimit="10"/>
<path class="path path-16" d="M311.5 622C482.984 622 622 482.984 622 311.5C622 140.016 482.984 1 311.5 1C140.016 1 1 140.016 1 311.5C1 482.984 140.016 622 311.5 622Z" stroke="white" stroke-miterlimit="10"/>
</mask>
<g mask="url(#mask0_770_1890)">
<g filter="url(#filter0_iiii_770_1890)">
<ellipse cx="310.245" cy="311.918" rx="332.089" ry="332.089" fill="url(#paint0_angular_770_1890)"/>
</g>
</g>
<defs>
<filter id="filter0_iiii_770_1890" x="-21.8444" y="-20.1712" width="664.179" height="664.179" filterUnits="userSpaceOnUse" color-interpolation-filters="sRGB">
<feFlood flood-opacity="0" result="BackgroundImageFix"/>
<feBlend mode="normal" in="SourceGraphic" in2="BackgroundImageFix" result="shape"/>
<feColorMatrix in="SourceAlpha" type="matrix" values="0 0 0 0 0 0 0 0 0 0 0 0 0 0 0 0 0 0 127 0" result="hardAlpha"/>
<feOffset/>
<feGaussianBlur stdDeviation="125"/>
<feComposite in2="hardAlpha" operator="arithmetic" k2="-1" k3="1"/>
<feColorMatrix type="matrix" values="0 0 0 0 0.0392157 0 0 0 0 0.0588235 0 0 0 0 0.0666667 0 0 0 1 0"/>
<feBlend mode="normal" in2="shape" result="effect1_innerShadow_770_1890"/>
<feColorMatrix in="SourceAlpha" type="matrix" values="0 0 0 0 0 0 0 0 0 0 0 0 0 0 0 0 0 0 127 0" result="hardAlpha"/>
<feOffset/>
<feGaussianBlur stdDeviation="125"/>
<feComposite in2="hardAlpha" operator="arithmetic" k2="-1" k3="1"/>
<feColorMatrix type="matrix" values="0 0 0 0 0.0392157 0 0 0 0 0.0588235 0 0 0 0 0.0666667 0 0 0 1 0"/>
<feBlend mode="normal" in2="effect1_innerShadow_770_1890" result="effect2_innerShadow_770_1890"/>
<feColorMatrix in="SourceAlpha" type="matrix" values="0 0 0 0 0 0 0 0 0 0 0 0 0 0 0 0 0 0 127 0" result="hardAlpha"/>
<feOffset/>
<feGaussianBlur stdDeviation="125"/>
<feComposite in2="hardAlpha" operator="arithmetic" k2="-1" k3="1"/>
<feColorMatrix type="matrix" values="0 0 0 0 0.0392157 0 0 0 0 0.0588235 0 0 0 0 0.0666667 0 0 0 1 0"/>
<feBlend mode="normal" in2="effect2_innerShadow_770_1890" result="effect3_innerShadow_770_1890"/>
<feColorMatrix in="SourceAlpha" type="matrix" values="0 0 0 0 0 0 0 0 0 0 0 0 0 0 0 0 0 0 127 0" result="hardAlpha"/>
<feOffset/>
<feGaussianBlur stdDeviation="125"/>
<feComposite in2="hardAlpha" operator="arithmetic" k2="-1" k3="1"/>
<feColorMatrix type="matrix" values="0 0 0 0 0.0392157 0 0 0 0 0.0588235 0 0 0 0 0.0666667 0 0 0 1 0"/>
<feBlend mode="normal" in2="effect3_innerShadow_770_1890" result="effect4_innerShadow_770_1890"/>
</filter>
<radialGradient id="paint0_angular_770_1890" cx="0" cy="0" r="1" gradientUnits="userSpaceOnUse" gradientTransform="translate(310.245 311.918) rotate(90) scale(332.089 332.089)">
<stop stop-color="#2843A5"/>
<stop offset="0.119792" stop-color="#13235B"/>
<stop offset="0.307292" stop-color="#2869A5"/>
<stop offset="0.447917" stop-color="#2843A5"/>
<stop offset="0.604167" stop-color="#2869A5"/>
<stop offset="0.723958" stop-color="#13235B"/>
<stop offset="0.838542" stop-color="#2869A5"/>
<stop offset="0.901042" stop-color="#13235B"/>
</radialGradient>
</defs>
</svg>
