<svg width="134" height="140" viewBox="0 0 134 140" fill="none" xmlns="http://www.w3.org/2000/svg">
<path d="M12.0512 25.215C11.9642 25.215 11.8738 25.2083 11.7867 25.1915C11.6997 25.1748 11.6093 25.148 11.5256 25.1145C11.3481 25.0442 9.18528 24.157 6.71106 21.7899C4.23685 19.4262 1.45463 15.586 0.0384001 9.60967C-0.0519976 9.22464 0.0216663 8.83627 0.212506 8.5249C0.403345 8.21353 0.718034 7.97247 1.10306 7.88207C1.48809 7.79168 1.87311 7.86532 2.18783 8.05951C2.50255 8.2537 2.74028 8.56508 2.83402 8.95011C4.06946 14.1597 6.43319 17.5044 8.52573 19.5601C10.6183 21.6158 12.4396 22.3859 12.5903 22.4428C12.9552 22.5935 13.2297 22.8747 13.3737 23.2128C13.5177 23.551 13.5344 23.9427 13.3871 24.311C13.2733 24.5923 13.0825 24.8166 12.8514 24.9739C12.6171 25.1279 12.3425 25.215 12.0579 25.215H12.0512Z" fill="#593E7C"/>
<path d="M17.8392 21.5155C17.7254 21.5155 17.6082 21.5021 17.4944 21.472C17.3806 21.4418 17.2667 21.4017 17.1596 21.3414C16.9955 21.251 14.9733 20.1261 12.8707 17.4978C10.7681 14.8696 8.58183 10.7414 8.08631 4.64128C8.05618 4.24621 8.18676 3.87457 8.42447 3.59333C8.66218 3.3121 9.00705 3.1246 9.40212 3.09112C9.79384 3.05764 10.1655 3.18822 10.4467 3.42593C10.728 3.66364 10.9188 4.01184 10.9523 4.40691C11.3842 9.73702 13.2624 13.3295 15.0369 15.5928C16.8114 17.8561 18.4921 18.7935 18.5256 18.8103C18.8738 18.9978 19.1148 19.3125 19.2186 19.664C19.3224 20.0156 19.2956 20.4073 19.1048 20.7588C18.9742 20.9999 18.7867 21.1874 18.5658 21.3146C18.3448 21.4419 18.0937 21.5121 17.8392 21.5121V21.5155Z" fill="#593E7C"/>
<path d="M24.2687 19.5331C24.108 19.5331 23.9472 19.5063 23.7932 19.4528C23.6392 19.3992 23.4919 19.3155 23.358 19.2083C23.2173 19.0912 21.4898 17.6314 20.0401 14.6818C18.5903 11.7321 17.4152 7.28924 18.3727 1.21251C18.4363 0.820785 18.6472 0.492679 18.9419 0.275055C19.2365 0.0574306 19.6182 -0.0430178 20.0166 0.0172474C20.4083 0.0775125 20.7364 0.295144 20.9541 0.589773C21.1717 0.884403 21.2721 1.26608 21.2119 1.65781C20.3883 6.88413 21.3223 10.6708 22.4942 13.1718C23.666 15.6761 25.0722 16.8948 25.1894 16.9919C25.4907 17.2464 25.6615 17.6013 25.6949 17.9662C25.7284 18.3312 25.6212 18.7095 25.3701 19.0142C25.2262 19.1849 25.0554 19.3155 24.8646 19.3992C24.6771 19.4862 24.4695 19.5298 24.2653 19.5298L24.2687 19.5331Z" fill="#593E7C"/>
<path d="M121.701 25.215C121.416 25.215 121.138 25.1279 120.904 24.9739C120.669 24.8166 120.479 24.5889 120.368 24.3077C120.221 23.9394 120.238 23.5476 120.385 23.2128C120.529 22.8747 120.803 22.5935 121.168 22.4461C121.319 22.3859 123.14 21.6158 125.233 19.5601C127.325 17.5044 129.689 14.1597 130.925 8.95011C131.015 8.56508 131.253 8.2537 131.567 8.05951C131.882 7.86532 132.267 7.79168 132.652 7.88207C133.037 7.97247 133.352 8.21353 133.543 8.5249C133.734 8.83627 133.811 9.22464 133.717 9.60967C132.304 15.5826 129.518 19.4228 127.044 21.7899C124.57 24.1536 122.407 25.0442 122.23 25.1145C122.143 25.148 122.056 25.1748 121.965 25.1915C121.878 25.2083 121.788 25.215 121.701 25.215Z" fill="#593E7C"/>
<path d="M115.911 21.5153C115.657 21.5153 115.406 21.4484 115.185 21.3178C114.964 21.1872 114.776 20.9997 114.646 20.762C114.458 20.4138 114.428 20.0221 114.532 19.6706C114.635 19.319 114.873 19.0076 115.221 18.8168C115.359 18.7398 117.039 17.7823 118.79 15.519C120.545 13.2557 122.369 9.69335 122.798 4.4101C122.832 4.01503 123.026 3.66682 123.307 3.4291C123.588 3.19139 123.96 3.06082 124.345 3.0943C124.74 3.12778 125.085 3.31527 125.322 3.59651C125.56 3.87774 125.691 4.24938 125.661 4.64445C125.165 10.7413 122.979 14.8728 120.876 17.501C118.774 20.1292 116.755 21.2542 116.587 21.3446C116.48 21.4049 116.366 21.4484 116.253 21.4752C116.139 21.5053 116.022 21.5187 115.908 21.5187L115.911 21.5153Z" fill="#593E7C"/>
<path d="M109.483 19.5331C109.275 19.5331 109.067 19.4896 108.88 19.4025C108.689 19.3155 108.515 19.1849 108.374 19.0108C108.123 18.7061 108.02 18.3278 108.053 17.9629C108.086 17.5979 108.261 17.2464 108.565 16.9919C108.692 16.8848 110.095 15.6594 111.264 13.1584C112.432 10.654 113.363 6.87409 112.539 1.65781C112.479 1.26608 112.58 0.887751 112.797 0.589773C113.015 0.291796 113.343 0.0775125 113.735 0.0172474C114.126 -0.0430178 114.508 0.0574306 114.806 0.275055C115.104 0.492679 115.318 0.820785 115.379 1.21251C116.336 7.28924 115.161 11.7288 113.711 14.6818C112.262 17.6314 110.537 19.0945 110.393 19.2083C110.259 19.3188 110.112 19.3992 109.958 19.4561C109.804 19.5097 109.643 19.5365 109.483 19.5365V19.5331Z" fill="#593E7C"/>
<path d="M61.9103 29.5475C60.2162 23.1192 56.6036 17.7154 51.8159 13.9187C47.0282 10.122 41.0586 7.93237 34.6504 7.93237C28.2422 7.93237 22.276 10.122 17.4849 13.9187C12.6972 17.7154 9.08462 23.1192 7.3905 29.5475C4.84597 39.1966 5.63612 51.2797 7.0624 60.9489C8.48867 70.6181 10.5511 77.8767 10.5511 77.8767H58.7531C58.7531 77.8767 60.8155 70.6181 62.2418 60.9489C63.6681 51.2797 64.4582 39.1966 61.9137 29.5475H61.9103Z" fill="#A188BB"/>
<path d="M58.7499 79.3163H10.5478C10.2264 79.3163 9.92505 79.2091 9.68064 79.025C9.43623 78.8409 9.25211 78.5797 9.16506 78.2717C8.99431 77.6724 6.92183 70.2631 5.52903 60.5738C4.13959 50.8845 3.43315 38.9119 5.99777 29.1857C7.78898 22.3992 11.5622 16.7276 16.581 12.7534C21.5997 8.7793 27.8673 6.49927 34.6472 6.49927C41.427 6.49927 47.6912 8.7793 52.7133 12.7534C57.732 16.7276 61.5053 22.4026 63.2965 29.1857C65.8645 38.9119 65.158 50.8845 63.7652 60.5738C62.3758 70.2631 60.3 77.6724 60.1293 78.2717C60.0422 78.5797 59.858 78.8409 59.6136 79.025C59.3692 79.2091 59.0679 79.3163 58.7465 79.3163H58.7499ZM11.6527 76.4436H57.6483C58.3414 73.7786 60.1594 66.3124 61.2508 57.43C62.3457 48.5476 62.7173 38.2489 60.521 29.9156C58.9005 23.7719 55.4922 18.6326 50.9589 15.0335C46.4256 11.4343 40.7674 9.36856 34.6505 9.36856C28.5336 9.36856 22.8787 11.4343 18.3421 15.0335C13.8088 18.6326 10.3971 23.7719 8.77668 29.9156C6.58035 38.2456 6.95197 48.5442 8.04678 57.43C9.1416 66.3157 10.9563 73.7786 11.6493 76.4436H11.6527Z" fill="#593E7C"/>
<path d="M61.9102 29.5472C60.8656 25.5898 59.0978 22.0241 56.7743 18.9808C54.4507 15.9374 51.5747 13.4196 48.3171 11.5581C42.2303 11.7289 36.7395 15.6159 32.7654 21.8032C28.7945 27.9904 26.3438 36.4777 26.3438 45.8423C26.3438 46.0197 26.3471 46.1938 26.3538 46.3713C26.3605 46.5487 26.3672 46.7228 26.3705 46.8969L35.3835 44.2017L44.3965 41.5065L36.4415 50.9782L28.4865 60.4498C29.7153 64.4307 31.4228 67.9964 33.5019 70.9594C35.5811 73.9258 38.0285 76.2895 40.7304 77.8732H56.7308C57.156 77.6221 57.5745 77.3542 57.9896 77.0663C58.4015 76.7784 58.8099 76.4737 59.2083 76.1489C60.0353 72.9046 61.7997 65.3782 62.8142 56.5996C63.8287 47.821 64.0898 37.7935 61.9136 29.5406L61.9102 29.5472Z" fill="#593E7C"/>
<path d="M58.7534 77.8799C58.7534 77.8799 57.4678 74.6557 53.8117 71.4315C50.1556 68.2073 44.1324 64.9832 34.6541 64.9832C25.1757 64.9832 19.1525 68.2073 15.4964 71.4315C11.8403 74.6557 10.5547 77.8799 10.5547 77.8799" fill="#A188BB"/>
<path d="M10.5506 79.3162C10.4602 79.3162 10.3732 79.3095 10.2828 79.2894C10.1924 79.2726 10.1053 79.2459 10.0182 79.2124C9.64996 79.0651 9.37543 78.7838 9.23146 78.4457C9.08749 78.1075 9.07074 77.7158 9.21805 77.3475C9.33189 77.0663 10.7615 73.6144 14.6319 70.2329C18.4989 66.8513 24.8033 63.5435 34.6533 63.5435C44.5033 63.5435 50.8077 66.8547 54.6747 70.2329C58.5417 73.6144 59.9747 77.0629 60.0885 77.3475C60.2358 77.7158 60.2191 78.1109 60.0751 78.4457C59.9312 78.7838 59.6566 79.0651 59.2883 79.2124C58.9234 79.3597 58.5317 79.3429 58.1935 79.199C57.8554 79.055 57.5708 78.7838 57.4234 78.4155C57.323 78.1678 56.0508 75.1679 52.5922 72.2317C49.1337 69.2921 43.4922 66.4161 34.6533 66.4161C25.8144 66.4161 20.0859 69.3858 16.6206 72.3689C13.1554 75.3521 11.9099 78.3519 11.8865 78.4122C11.7727 78.6934 11.5818 78.9177 11.3474 79.0751C11.1131 79.2325 10.8352 79.3162 10.5506 79.3162Z" fill="#593E7C"/>
<path d="M58.7499 79.3163H10.5478C10.2264 79.3163 9.92505 79.2091 9.68064 79.025C9.43623 78.8409 9.25211 78.5797 9.16506 78.2717C8.99431 77.6724 6.92183 70.2631 5.52903 60.5738C4.13959 50.8845 3.43315 38.9119 5.99777 29.1857C7.78898 22.3992 11.5622 16.7276 16.581 12.7534C21.5997 8.7793 27.8673 6.49927 34.6472 6.49927C41.427 6.49927 47.6912 8.7793 52.7133 12.7534C57.732 16.7276 61.5053 22.4026 63.2965 29.1857C65.8645 38.9119 65.158 50.8845 63.7652 60.5738C62.3758 70.2631 60.3 77.6724 60.1293 78.2717C60.0422 78.5797 59.858 78.8409 59.6136 79.025C59.3692 79.2091 59.0679 79.3163 58.7465 79.3163H58.7499ZM11.6527 76.4436H57.6483C58.3414 73.7786 60.1594 66.3124 61.2508 57.43C62.3457 48.5476 62.7173 38.2489 60.521 29.9156C58.9005 23.7719 55.4922 18.6326 50.9589 15.0335C46.4256 11.4343 40.7674 9.36856 34.6505 9.36856C28.5336 9.36856 22.8787 11.4343 18.3421 15.0335C13.8088 18.6326 10.3971 23.7719 8.77668 29.9156C6.58035 38.2456 6.95197 48.5442 8.04678 57.43C9.1416 66.3157 10.9563 73.7786 11.6493 76.4436H11.6527Z" fill="#593E7C"/>
<path d="M126.361 29.5475C124.664 23.1192 121.055 17.7154 116.267 13.9187C111.479 10.122 105.51 7.93237 99.1016 7.93237C92.6934 7.93237 86.7272 10.122 81.9361 13.9187C77.1484 17.7154 73.5358 23.1192 71.8417 29.5475C69.2971 39.1966 70.0873 51.2797 71.5136 60.9489C72.9398 70.6181 75.0022 77.8767 75.0022 77.8767H123.204C123.204 77.8767 125.267 70.6181 126.693 60.9489C128.119 51.2797 128.909 39.1966 126.365 29.5475H126.361Z" fill="#A188BB"/>
<path d="M123.201 79.3163H74.999C74.6776 79.3163 74.3762 79.2091 74.1318 79.025C73.8874 78.8409 73.7033 78.5797 73.6162 78.2717C73.4455 77.6724 71.3696 70.2631 69.9802 60.5738C68.5908 50.8845 67.8843 38.9119 70.4489 29.1857C72.2402 22.3992 76.0134 16.7276 81.0322 12.7534C86.0509 8.7793 92.3185 6.49927 99.0983 6.49927C105.878 6.49927 112.142 8.7793 117.164 12.7534C122.183 16.7276 125.956 22.3992 127.748 29.1857C130.316 38.9119 129.609 50.8845 128.216 60.5738C126.827 70.2631 124.751 77.6724 124.58 78.2717C124.493 78.5797 124.309 78.8409 124.065 79.025C123.82 79.2091 123.519 79.3163 123.198 79.3163H123.201ZM76.1038 76.4436H122.099C122.793 73.7786 124.611 66.3124 125.705 57.43C126.8 48.5476 127.172 38.2489 124.975 29.9156C123.355 23.7719 119.943 18.6326 115.41 15.0335C110.877 11.4343 105.219 9.36856 99.1017 9.36856C92.9848 9.36856 87.3299 11.4343 82.7932 15.0335C78.26 18.6326 74.8517 23.7719 73.2278 29.9156C71.0315 38.2456 71.4031 48.5442 72.498 57.43C73.5928 66.3157 75.4108 73.7786 76.1038 76.4436Z" fill="#593E7C"/>
<path d="M126.361 29.5472C125.317 25.5898 123.549 22.0241 121.225 18.9808C118.902 15.9374 116.026 13.4196 112.768 11.5581C106.681 11.7289 101.191 15.6159 97.2165 21.8032C93.2457 27.9904 90.7949 36.4777 90.7949 45.8423C90.7949 46.0197 90.7983 46.1938 90.805 46.3713C90.8117 46.5453 90.8183 46.7228 90.8217 46.8969L99.8347 44.2017L108.848 41.5065L100.893 50.9782L92.9377 60.4498C94.1664 64.4307 95.8739 67.9964 97.9531 70.9594C100.032 73.9258 102.48 76.2895 105.182 77.8732H121.182C121.607 77.6221 122.026 77.3542 122.441 77.0663C122.856 76.7784 123.261 76.4737 123.66 76.1489C124.486 72.9046 126.251 65.3782 127.265 56.5996C128.28 47.821 128.541 37.7935 126.365 29.5406L126.361 29.5472Z" fill="#593E7C"/>
<path d="M123.201 77.8799C123.201 77.8799 121.915 74.6557 118.259 71.4315C114.603 68.2073 108.58 64.9832 99.1013 64.9832C89.623 64.9832 83.5998 68.2073 79.9437 71.4315C76.2876 74.6557 75.002 77.8799 75.002 77.8799" fill="#A188BB"/>
<path d="M123.2 79.3162C122.915 79.3162 122.641 79.2325 122.406 79.0751C122.172 78.9211 121.981 78.6934 121.867 78.4155C121.767 78.1711 120.495 75.1713 117.036 72.2317C113.578 69.2921 107.936 66.4161 99.0972 66.4161C90.2583 66.4161 84.5298 69.3858 81.0646 72.3689C77.5993 75.3521 76.3538 78.3519 76.3304 78.4122C76.1831 78.7805 75.8985 79.055 75.5603 79.199C75.2222 79.3429 74.8305 79.3597 74.4655 79.2124C74.0972 79.0651 73.8227 78.7838 73.6787 78.4457C73.5348 78.1075 73.518 77.7158 73.6653 77.3475C73.7792 77.0663 75.2088 73.6144 79.0792 70.2329C82.9462 66.8513 89.2506 63.5435 99.1006 63.5435C108.951 63.5435 115.255 66.8547 119.122 70.2329C122.989 73.6144 124.422 77.0629 124.536 77.3475C124.683 77.7158 124.666 78.1109 124.522 78.4457C124.378 78.7838 124.104 79.0651 123.736 79.2124C123.649 79.2459 123.561 79.2726 123.471 79.2894C123.381 79.3061 123.294 79.3162 123.203 79.3162H123.2Z" fill="#593E7C"/>
<path d="M123.201 79.3163H74.999C74.6776 79.3163 74.3762 79.2091 74.1318 79.025C73.8874 78.8409 73.7033 78.5797 73.6162 78.2717C73.4455 77.6724 71.3696 70.2631 69.9802 60.5738C68.5908 50.8845 67.8843 38.9119 70.4489 29.1857C72.2402 22.3992 76.0134 16.7276 81.0322 12.7534C86.0509 8.7793 92.3185 6.49927 99.0983 6.49927C105.878 6.49927 112.142 8.7793 117.164 12.7534C122.183 16.7276 125.956 22.3992 127.748 29.1857C130.316 38.9119 129.609 50.8845 128.216 60.5738C126.827 70.2631 124.751 77.6724 124.58 78.2717C124.493 78.5797 124.309 78.8409 124.065 79.025C123.82 79.2091 123.519 79.3163 123.198 79.3163H123.201ZM76.1038 76.4436H122.099C122.793 73.7786 124.611 66.3124 125.705 57.43C126.8 48.5476 127.172 38.2489 124.975 29.9156C123.355 23.7719 119.943 18.6326 115.41 15.0335C110.877 11.4343 105.219 9.36856 99.1017 9.36856C92.9848 9.36856 87.3299 11.4343 82.7932 15.0335C78.26 18.6326 74.8517 23.7719 73.2278 29.9156C71.0315 38.2456 71.4031 48.5442 72.498 57.43C73.5928 66.3157 75.4108 73.7786 76.1038 76.4436Z" fill="#593E7C"/>
<path d="M29.3574 94.54C30.3719 94.2286 31.3897 93.9173 32.4042 93.6092C33.4186 93.2979 34.4365 92.9865 35.4509 92.6785" fill="#A188BB"/>
<path d="M29.3583 95.976C29.0503 95.976 28.7556 95.8756 28.5112 95.6981C28.2701 95.5207 28.0793 95.2662 27.9856 94.9582C27.8684 94.5799 27.9186 94.1881 28.0893 93.8634C28.2634 93.5386 28.5581 93.2808 28.9364 93.1636L31.9831 92.2329L35.0299 91.3021C35.4116 91.1849 35.7999 91.2318 36.1247 91.4059C36.4495 91.58 36.7073 91.8746 36.8245 92.2563C36.9417 92.6346 36.8914 93.0264 36.7207 93.3511C36.5499 93.6759 36.2519 93.9337 35.8736 94.0509L32.8269 94.9816L29.7801 95.9124C29.7098 95.9325 29.6395 95.9492 29.5692 95.9593C29.4989 95.9693 29.4286 95.976 29.3583 95.976Z" fill="#593E7C"/>
<path d="M104.394 94.54C103.38 94.2286 102.362 93.9173 101.348 93.6092C100.333 93.2979 99.3152 92.9865 98.3008 92.6785" fill="#A188BB"/>
<path d="M104.394 95.9763C104.324 95.9763 104.253 95.9696 104.183 95.9596C104.113 95.9496 104.042 95.9328 103.972 95.9127L100.925 94.9819L97.8787 94.0512C97.5004 93.934 97.2024 93.6762 97.0316 93.3514C96.8575 93.0267 96.8107 92.635 96.9279 92.2566C97.045 91.8783 97.3028 91.5803 97.6242 91.4095C97.949 91.2355 98.3407 91.1886 98.7191 91.3058L101.766 92.2366L104.813 93.1673C105.191 93.2845 105.489 93.5423 105.66 93.8671C105.834 94.1918 105.881 94.5835 105.763 94.9619C105.67 95.2699 105.479 95.5243 105.238 95.7018C104.997 95.8792 104.699 95.9797 104.391 95.9797L104.394 95.9763Z" fill="#593E7C"/>
<path d="M66.8752 139.993C61.2839 139.993 56.0409 138.54 51.5511 135.872C47.0614 133.204 43.3182 129.32 40.7235 124.455C36.8063 117.109 34.4023 109.63 32.9694 103.901C31.5364 98.1761 31.071 94.2053 31.0342 93.8839C30.9907 93.4888 31.1112 93.1139 31.3389 92.8293C31.5665 92.5414 31.908 92.3404 32.2998 92.2969C32.6948 92.2467 33.0698 92.3672 33.3578 92.5983C33.6457 92.8293 33.8432 93.1708 33.8901 93.5659C33.9001 93.6429 34.3488 97.4797 35.7449 103.074C37.141 108.669 39.478 116.015 43.2613 123.106C45.6016 127.495 48.9798 130.997 53.0343 133.404C57.0888 135.812 61.823 137.121 66.8786 137.121C71.9341 137.121 76.6683 135.812 80.7228 133.404C84.7773 130.997 88.1555 127.495 90.4958 123.106C94.2858 116.001 96.6227 108.656 98.0155 103.064C99.4083 97.473 99.8569 93.6429 99.8636 93.5659C99.9072 93.1708 100.108 92.8326 100.396 92.605C100.684 92.3773 101.059 92.2567 101.451 92.3003C101.846 92.3438 102.184 92.5447 102.415 92.8326C102.646 93.1205 102.763 93.4955 102.72 93.8906C102.683 94.212 102.221 98.1828 100.784 103.908C99.3514 109.633 96.9475 117.116 93.0303 124.462C90.4355 129.327 86.6924 133.21 82.2026 135.879C77.7129 138.547 72.4698 140 66.8786 140L66.8752 139.993Z" fill="#593E7C"/>
<path d="M66.8751 94.1113C64.1933 94.1113 61.8028 93.4383 60.0853 92.3334C58.3644 91.2286 57.3164 89.6952 57.3164 87.9709C57.3164 86.2467 58.3677 84.7133 60.0853 83.6084C61.8062 82.5035 64.1967 81.8306 66.8751 81.8306C69.5536 81.8306 71.9441 82.5035 73.665 83.6084C75.3859 84.7133 76.4338 86.2467 76.4338 87.9709C76.4338 89.6952 75.3825 91.2286 73.665 92.3334C71.9441 93.4383 69.5536 94.1113 66.8751 94.1113ZM66.8751 84.7032C64.96 84.7032 63.2894 85.1351 62.0941 85.7579C60.9022 86.3806 60.1857 87.1975 60.1857 87.9709C60.1857 88.7443 60.9022 89.5579 62.0941 90.184C63.286 90.8067 64.96 91.2387 66.8751 91.2387C68.7902 91.2387 70.4609 90.8067 71.6528 90.184C72.8447 89.5613 73.5612 88.7443 73.5612 87.9709C73.5612 87.1975 72.8447 86.384 71.6528 85.7579C70.4609 85.1351 68.7869 84.7032 66.8751 84.7032Z" fill="#593E7C"/>
</svg>
