<svg viewBox="0 0 33 33" fill="none" xmlns="http://www.w3.org/2000/svg">
<path fill-rule="evenodd" clip-rule="evenodd" d="M16.5 31.4286C24.7448 31.4286 31.4286 24.7448 31.4286 16.5C31.4286 8.25518 24.7448 1.57143 16.5 1.57143C8.25518 1.57143 1.57143 8.25518 1.57143 16.5C1.57143 24.7448 8.25518 31.4286 16.5 31.4286ZM16.5 33C25.6127 33 33 25.6127 33 16.5C33 7.3873 25.6127 0 16.5 0C7.3873 0 0 7.3873 0 16.5C0 25.6127 7.3873 33 16.5 33Z" fill="#0472B6"/>
<path d="M21.6602 10.4176L16.5005 15.5778L11.3407 10.4176C11.2167 10.304 11.0535 10.2427 10.8853 10.2464C10.7172 10.2501 10.5569 10.3186 10.438 10.4376C10.319 10.5565 10.2506 10.7168 10.2468 10.885C10.2431 11.0532 10.3044 11.2163 10.418 11.3404L15.5751 16.5007L10.4167 21.6597C10.3536 21.7198 10.3033 21.7918 10.2685 21.8716C10.2337 21.9515 10.2152 22.0374 10.2142 22.1245C10.2131 22.2115 10.2294 22.2979 10.2622 22.3786C10.295 22.4592 10.3436 22.5325 10.4051 22.5941C10.4666 22.6557 10.5398 22.7044 10.6204 22.7373C10.701 22.7702 10.7874 22.7867 10.8744 22.7857C10.9615 22.7848 11.0475 22.7664 11.1273 22.7318C11.2072 22.6971 11.2793 22.6468 11.3394 22.5839L16.5005 17.4249L21.6602 22.5852C21.7843 22.6988 21.9474 22.7601 22.1156 22.7564C22.2838 22.7526 22.444 22.6841 22.563 22.5652C22.6819 22.4462 22.7504 22.286 22.7541 22.1178C22.7579 21.9496 22.6966 21.7864 22.583 21.6623L17.4233 16.502L22.583 11.3404C22.646 11.2804 22.6964 11.2083 22.7312 11.1285C22.7659 11.0487 22.7844 10.9627 22.7855 10.8757C22.7866 10.7886 22.7702 10.7022 22.7374 10.6216C22.7047 10.5409 22.6561 10.4676 22.5946 10.406C22.5331 10.3444 22.4598 10.2957 22.3792 10.2628C22.2986 10.2299 22.2123 10.2134 22.1252 10.2144C22.0382 10.2153 21.9522 10.2337 21.8723 10.2684C21.7925 10.303 21.7204 10.3533 21.6602 10.4163V10.4176Z" fill="#0472B6"/>
</svg>
