<svg width="26" height="20" viewBox="0 0 26 20" fill="none" xmlns="http://www.w3.org/2000/svg">
<path d="M4.4412 17.9528C4.3667 17.879 4.2782 17.8213 4.1757 17.7805C4.0733 17.7394 3.9611 17.7188 3.8392 17.7188C3.7748 17.7188 3.7078 17.7242 3.6383 17.7353C3.5688 17.7464 3.5007 17.7657 3.4341 17.7935C3.3674 17.8213 3.3039 17.8598 3.2438 17.909C3.1836 17.958 3.1312 18.0199 3.0869 18.0947C3.0152 17.9775 2.9182 17.8855 2.7956 17.8189C2.6731 17.7521 2.5329 17.7188 2.3753 17.7188C2.3222 17.7188 2.2675 17.7235 2.2108 17.7332C2.1543 17.7426 2.0981 17.759 2.0422 17.7826C1.9862 17.806 1.9328 17.8379 1.882 17.8783C1.8311 17.9184 1.7849 17.9694 1.7434 18.031V17.7738H1.2962V19.8788H1.7477V18.7121C1.7477 18.6226 1.7619 18.5432 1.7906 18.4734C1.8193 18.4039 1.8576 18.3459 1.9056 18.2988C1.9536 18.2522 2.0099 18.2165 2.0743 18.1922C2.1388 18.1682 2.2076 18.1562 2.2808 18.1562C2.4326 18.1562 2.5506 18.2038 2.6344 18.2988C2.7182 18.3943 2.7601 18.5304 2.7601 18.7076V19.8788H3.2116V18.7121C3.2116 18.6226 3.2258 18.5432 3.2545 18.4734C3.2832 18.4039 3.3215 18.3459 3.3695 18.2988C3.4176 18.2522 3.4738 18.2165 3.5383 18.1922C3.6028 18.1682 3.6716 18.1562 3.7447 18.1562C3.8966 18.1562 4.0145 18.2038 4.0983 18.2988C4.1821 18.3943 4.224 18.5304 4.224 18.7076V19.8788H4.6755V18.5559C4.6755 18.4329 4.6551 18.32 4.6143 18.2177C4.5734 18.1151 4.5157 18.0269 4.4412 17.9528Z" fill="#7F8CAB"/>
<path d="M6.8218 17.7738V18.0286C6.7478 17.935 6.656 17.8598 6.5464 17.8035C6.4368 17.7471 6.3058 17.7188 6.1533 17.7188C6.0037 17.7188 5.8646 17.7464 5.7357 17.8013C5.6069 17.8562 5.4943 17.9327 5.3981 18.031C5.3018 18.1291 5.2263 18.246 5.1715 18.3813C5.1167 18.5168 5.0894 18.6651 5.0894 18.8262C5.0894 18.9875 5.1167 19.1357 5.1715 19.2714C5.2263 19.4068 5.3018 19.5237 5.3981 19.6216C5.4943 19.7198 5.6069 19.7964 5.7357 19.8513C5.8646 19.9062 6.0037 19.9338 6.1533 19.9338C6.3058 19.9338 6.4368 19.9059 6.5464 19.8503C6.656 19.7946 6.7478 19.7198 6.8218 19.6261V19.8788H7.2861V17.7738H6.8218ZM6.8041 19.0944C6.773 19.1765 6.7293 19.2475 6.6731 19.3076C6.6167 19.3675 6.5494 19.4149 6.471 19.4493C6.3924 19.4837 6.3051 19.5009 6.2088 19.5009C6.1081 19.5009 6.0182 19.483 5.939 19.4471C5.8597 19.4113 5.7927 19.363 5.7379 19.3021C5.6831 19.2412 5.6409 19.1699 5.6113 19.0878C5.5817 19.0058 5.567 18.9186 5.567 18.8262C5.567 18.734 5.5817 18.6468 5.6113 18.5648C5.6409 18.4828 5.6831 18.4114 5.7379 18.3505C5.7927 18.2899 5.8597 18.2415 5.939 18.2056C6.0182 18.1698 6.1081 18.1518 6.2088 18.1518C6.3051 18.1518 6.3924 18.169 6.471 18.2035C6.5494 18.2378 6.6167 18.285 6.6731 18.345C6.7293 18.4053 6.773 18.4761 6.8041 18.5583C6.8352 18.6403 6.8507 18.7295 6.8507 18.8262C6.8507 18.9229 6.8352 19.0123 6.8041 19.0944Z" fill="#7F8CAB"/>
<path d="M8.8757 18.6217L8.6558 18.5886C8.6069 18.5814 8.5611 18.573 8.5181 18.5633C8.4751 18.5539 8.4382 18.541 8.4071 18.525C8.376 18.509 8.3512 18.4884 8.3327 18.4635C8.3141 18.4385 8.3049 18.4077 8.3049 18.3712C8.3049 18.2966 8.34 18.2361 8.4104 18.1899C8.4807 18.1439 8.5795 18.1208 8.7069 18.1208C8.7735 18.1208 8.839 18.1265 8.9035 18.1384C8.9679 18.1501 9.029 18.1647 9.0868 18.1824C9.1445 18.1999 9.1971 18.2193 9.2445 18.2406C9.2918 18.2617 9.3318 18.282 9.3644 18.3009L9.5643 17.9428C9.4532 17.8724 9.3237 17.8179 9.1756 17.779C9.0275 17.7403 8.8698 17.7208 8.7025 17.7208C8.5661 17.7208 8.444 17.7365 8.336 17.7681C8.2279 17.7995 8.1357 17.8443 8.0594 17.9021C7.9831 17.96 7.9247 18.0308 7.8839 18.1142C7.8432 18.1978 7.8229 18.2915 7.8229 18.3952C7.8229 18.5653 7.8839 18.7027 8.0061 18.8074C8.1283 18.9122 8.3078 18.9807 8.5447 19.0128L8.7669 19.0414C8.8942 19.059 8.9876 19.0872 9.0468 19.1261C9.106 19.1649 9.1356 19.2143 9.1356 19.2744C9.1356 19.3534 9.0948 19.416 9.0135 19.4621C8.932 19.5083 8.8113 19.5313 8.6514 19.5313C8.564 19.5313 8.4859 19.5255 8.417 19.5139C8.3482 19.5021 8.2853 19.4864 8.2283 19.4666C8.1712 19.4469 8.1202 19.4243 8.075 19.3986C8.0298 19.3729 7.988 19.3454 7.9495 19.3161L7.734 19.661C7.811 19.7181 7.8918 19.7644 7.9762 19.7995C8.0605 19.8347 8.1435 19.8622 8.2249 19.8819C8.3063 19.9015 8.3834 19.9147 8.4559 19.9214C8.5284 19.9279 8.5921 19.9313 8.6469 19.9313C8.7995 19.9313 8.936 19.9144 9.0567 19.8807C9.1774 19.8472 9.2789 19.7999 9.3611 19.739C9.4432 19.6782 9.5061 19.6058 9.5498 19.5215C9.5935 19.4372 9.6154 19.3447 9.6154 19.2437C9.6154 19.0635 9.5502 18.9231 9.4199 18.8228C9.2896 18.7223 9.1082 18.6554 8.8757 18.6217Z" fill="#7F8CAB"/>
<path d="M13.9731 18.3744C13.9235 18.2392 13.8546 18.1227 13.7665 18.0252C13.6785 17.9278 13.5726 17.8523 13.4489 17.7988C13.3253 17.7454 13.1894 17.7186 13.0414 17.7186C12.8844 17.7186 12.7411 17.7454 12.6115 17.7988C12.482 17.8523 12.3706 17.9278 12.2773 18.0252C12.1839 18.1227 12.1114 18.2393 12.0596 18.3755C12.0078 18.5118 11.9819 18.6621 11.9819 18.826C11.9819 18.9931 12.0085 19.1447 12.0618 19.281C12.1151 19.4173 12.1899 19.5336 12.2862 19.6302C12.3825 19.7269 12.4972 19.8016 12.6305 19.8545C12.7638 19.9071 12.9103 19.9335 13.0703 19.9335C13.2316 19.9335 13.3853 19.9116 13.5312 19.8677C13.677 19.8236 13.815 19.7467 13.9453 19.6368L13.7144 19.3096C13.6255 19.3798 13.5274 19.4344 13.4201 19.4732C13.3127 19.5121 13.2056 19.5313 13.0991 19.5313C13.0235 19.5313 12.951 19.5213 12.8815 19.5007C12.8118 19.4801 12.7488 19.4484 12.6927 19.405C12.6363 19.362 12.5883 19.3067 12.5483 19.2392C12.5083 19.1718 12.4809 19.0904 12.4661 18.9953H14.0387C14.0416 18.9689 14.0438 18.9411 14.0454 18.9118C14.0468 18.8823 14.0475 18.8532 14.0475 18.8239C14.0475 18.6597 14.0227 18.51 13.9731 18.3744ZM12.4683 18.6458C12.4802 18.5696 12.5008 18.4996 12.5306 18.4359C12.56 18.3723 12.5982 18.3173 12.6449 18.2713C12.6915 18.2253 12.7471 18.1898 12.8114 18.1647C12.8759 18.1397 12.9496 18.1274 13.0325 18.1274C13.1806 18.1274 13.3012 18.1728 13.3945 18.2634C13.4878 18.3544 13.547 18.4818 13.5721 18.6458H12.4683Z" fill="#7F8CAB"/>
<path d="M19.934 17.7736V18.0284C19.86 17.9347 19.7682 17.8596 19.6587 17.8033C19.549 17.7469 19.418 17.7186 19.2655 17.7186C19.116 17.7186 18.9767 17.7462 18.8479 17.8011C18.7191 17.8559 18.6065 17.9325 18.5103 18.0308C18.414 18.1289 18.3384 18.2458 18.2838 18.381C18.2289 18.5166 18.2016 18.6649 18.2016 18.826C18.2016 18.9873 18.2289 19.1355 18.2838 19.2712C18.3384 19.4066 18.414 19.5235 18.5103 19.6214C18.6065 19.7196 18.7191 19.7962 18.8479 19.8511C18.9767 19.906 19.116 19.9335 19.2655 19.9335C19.418 19.9335 19.549 19.9057 19.6587 19.8501C19.7682 19.7944 19.86 19.7196 19.934 19.6259V19.8785H20.3983V17.7736H19.934ZM19.9163 19.0942C19.8852 19.1763 19.8415 19.2473 19.7852 19.3074C19.7289 19.3673 19.6616 19.4147 19.5831 19.4491C19.5047 19.4835 19.4173 19.5007 19.321 19.5007C19.2204 19.5007 19.1303 19.4828 19.0512 19.4469C18.972 19.4111 18.9048 19.3628 18.8501 19.3018C18.7953 19.241 18.7531 19.1697 18.7235 19.0875C18.6939 19.0056 18.6792 18.9184 18.6792 18.826C18.6792 18.7337 18.6939 18.6466 18.7235 18.5646C18.7531 18.4826 18.7953 18.4111 18.8501 18.3503C18.9048 18.2897 18.972 18.2413 19.0512 18.2054C19.1303 18.1695 19.2204 18.1516 19.321 18.1516C19.4173 18.1516 19.5047 18.1688 19.5831 18.2033C19.6616 18.2376 19.7289 18.2848 19.7852 18.3447C19.8415 18.4051 19.8852 18.4759 19.9163 18.558C19.9473 18.6401 19.9629 18.7293 19.9629 18.826C19.9629 18.9227 19.9473 19.0121 19.9163 19.0942Z" fill="#7F8CAB"/>
<path d="M11.4106 19.4589C11.3358 19.4867 11.2622 19.5007 11.1896 19.5007C11.1421 19.5007 11.0981 19.4935 11.0574 19.4786C11.0167 19.4641 10.9811 19.4411 10.9508 19.4095C10.9204 19.378 10.8964 19.3374 10.8786 19.2876C10.8609 19.2378 10.8518 19.1777 10.8518 19.1074V18.1911H11.5976V17.7736H10.8518V17.1363H10.3855V17.7736H9.9613V18.1911H10.3855V19.1162C10.3855 19.3961 10.4525 19.602 10.5865 19.7346C10.7205 19.8671 10.9082 19.9335 11.1496 19.9335C11.2843 19.9335 11.4054 19.913 11.5128 19.872C11.5837 19.8449 11.6495 19.8139 11.7112 19.7797L11.5524 19.3952C11.5075 19.4189 11.4603 19.4403 11.4106 19.4589Z" fill="#7F8CAB"/>
<path d="M15.6017 17.7188C15.4714 17.7188 15.3537 17.7423 15.2485 17.7892C15.1433 17.8361 15.0553 17.9488 14.9842 18.0498V17.7738H14.5628V19.8788H14.9886V18.7208C14.9886 18.6314 15.0012 18.5516 15.0264 18.4813C15.0516 18.4108 15.0863 18.3516 15.1308 18.3033C15.1752 18.255 15.2284 18.2185 15.2908 18.1935C15.3529 18.1687 15.421 18.1562 15.4951 18.1562C15.5514 18.1562 15.612 18.1628 15.6772 18.1761C15.7104 18.1826 15.7414 18.191 15.7705 18.2007L15.9078 17.7613C15.8705 17.7496 15.8327 17.7398 15.7938 17.7332C15.7368 17.7235 15.6727 17.7188 15.6017 17.7188Z" fill="#7F8CAB"/>
<path d="M22.0549 17.7186C21.9247 17.7186 21.8069 17.7421 21.7017 17.789C21.5967 17.8359 21.5085 17.9486 21.4374 18.0496V17.7736H21.016V19.8785H21.442V18.7206C21.442 18.6311 21.4544 18.5514 21.4797 18.4811C21.5048 18.4106 21.5396 18.3514 21.5841 18.3031C21.6284 18.2548 21.6818 18.2182 21.744 18.1933C21.8062 18.1685 21.8743 18.156 21.9483 18.156C22.0046 18.156 22.0652 18.1626 22.1304 18.1758C22.1637 18.1824 22.1948 18.1908 22.2238 18.2005L22.361 17.7611C22.3238 17.7494 22.286 17.7396 22.247 17.7329C22.19 17.7233 22.126 17.7186 22.0549 17.7186Z" fill="#7F8CAB"/>
<path d="M24.2231 16.9178V18.0283C24.1491 17.9347 24.0573 17.8596 23.9478 17.8032C23.8381 17.7468 23.7071 17.7186 23.5546 17.7186C23.405 17.7186 23.2658 17.7461 23.137 17.801C23.0082 17.8559 22.8956 17.9324 22.7995 18.0307C22.7031 18.1288 22.6276 18.2457 22.5728 18.381C22.518 18.5165 22.4906 18.6648 22.4906 18.826C22.4906 18.9872 22.518 19.1355 22.5728 19.2711C22.6276 19.4065 22.7031 19.5234 22.7995 19.6214C22.8956 19.7196 23.0082 19.7961 23.137 19.851C23.2658 19.906 23.405 19.9335 23.5546 19.9335C23.7071 19.9335 23.8381 19.9056 23.9478 19.85C24.0573 19.7943 24.1491 19.7196 24.2231 19.6259V19.8785H24.6874V16.9178H24.2231ZM24.2054 19.0942C24.1743 19.1762 24.1306 19.2473 24.0743 19.3074C24.018 19.3673 23.9507 19.4146 23.8723 19.449C23.7938 19.4835 23.7064 19.5006 23.6101 19.5006C23.5094 19.5006 23.4195 19.4827 23.3403 19.4469C23.261 19.411 23.194 19.3627 23.1392 19.3018C23.0844 19.241 23.0423 19.1696 23.0127 19.0875C22.983 19.0055 22.9682 18.9183 22.9682 18.826C22.9682 18.7337 22.983 18.6465 23.0127 18.5645C23.0423 18.4825 23.0844 18.4111 23.1392 18.3503C23.194 18.2896 23.261 18.2412 23.3403 18.2053C23.4195 18.1695 23.5094 18.1516 23.6101 18.1516C23.7064 18.1516 23.7938 18.1688 23.8723 18.2032C23.9507 18.2375 24.018 18.2847 24.0743 18.3447C24.1306 18.4051 24.1743 18.4759 24.2054 18.558C24.2365 18.64 24.2521 18.7292 24.2521 18.826C24.2521 18.9226 24.2365 19.012 24.2054 19.0942Z" fill="#7F8CAB"/>
<path d="M16.7127 18.3395C16.7719 18.2804 16.8422 18.234 16.9237 18.2012C17.0052 18.1682 17.0932 18.1518 17.188 18.1518C17.2922 18.1518 17.3892 18.168 17.4788 18.2012C17.5654 18.2329 17.6404 18.2774 17.7041 18.3339L17.9276 17.9662C17.8438 17.9 17.7494 17.8457 17.6444 17.8035C17.5044 17.7471 17.3523 17.7188 17.188 17.7188C17.0236 17.7188 16.8715 17.7471 16.7316 17.8035C16.5916 17.8598 16.471 17.9374 16.3695 18.0363C16.2681 18.1354 16.1885 18.2522 16.1308 18.3867C16.0729 18.5215 16.0441 18.6682 16.0441 18.8262C16.0441 18.9844 16.0729 19.131 16.1308 19.2659C16.1885 19.4006 16.2681 19.5173 16.3695 19.6162C16.471 19.7151 16.5916 19.7928 16.7316 19.8492C16.8715 19.9055 17.0236 19.9338 17.188 19.9338C17.3523 19.9338 17.5044 19.9055 17.6444 19.8492C17.7494 19.8069 17.8438 19.7526 17.9276 19.6862L17.7041 19.3185C17.6404 19.3753 17.5654 19.4195 17.4788 19.4513C17.3892 19.4843 17.2922 19.5009 17.188 19.5009C17.0932 19.5009 17.0052 19.4843 16.9237 19.4513C16.8422 19.4186 16.7719 19.3724 16.7127 19.313C16.6534 19.2537 16.6068 19.1827 16.5728 19.0999C16.5386 19.0172 16.5217 18.926 16.5217 18.8262C16.5217 18.7266 16.5386 18.6355 16.5728 18.5527C16.6068 18.4699 16.6534 18.3989 16.7127 18.3395Z" fill="#7F8CAB"/>
<path d="M25.8231 19.6335C25.803 19.6141 25.7794 19.5987 25.7524 19.5873C25.7254 19.5759 25.6963 19.5703 25.6655 19.5703C25.6339 19.5703 25.6043 19.5759 25.577 19.5873C25.5496 19.5987 25.5258 19.6141 25.5057 19.6335C25.4856 19.6529 25.4698 19.6756 25.4583 19.7016C25.447 19.7274 25.4412 19.7552 25.4412 19.785C25.4412 19.8142 25.447 19.8419 25.4583 19.8681C25.4698 19.8942 25.4856 19.9172 25.5057 19.9369C25.5258 19.9563 25.5496 19.9718 25.577 19.9831C25.6043 19.9945 25.6339 20 25.6655 20C25.6963 20 25.7254 19.9945 25.7524 19.9831C25.7794 19.9718 25.803 19.9563 25.8231 19.9369C25.8433 19.9172 25.8592 19.8942 25.8708 19.8681C25.8824 19.8419 25.8881 19.8142 25.8881 19.785C25.8881 19.7552 25.8824 19.7274 25.8708 19.7016C25.8592 19.6756 25.8433 19.6529 25.8231 19.6335Z" fill="#7F8CAB"/>
<path d="M25.8089 19.8455C25.8008 19.8643 25.7898 19.8808 25.7759 19.8947C25.7618 19.9088 25.7454 19.9199 25.7263 19.9281C25.7072 19.9362 25.687 19.9402 25.6655 19.9402C25.6432 19.9402 25.6226 19.9362 25.6033 19.9281C25.5842 19.9199 25.5675 19.9088 25.5533 19.8947C25.5392 19.8808 25.528 19.8643 25.52 19.8455C25.5119 19.8269 25.5079 19.8066 25.5079 19.785C25.5079 19.7635 25.5119 19.7434 25.52 19.7244C25.528 19.7054 25.5392 19.6892 25.5533 19.6753C25.5675 19.6613 25.5842 19.6503 25.6033 19.6422C25.6226 19.6342 25.6432 19.63 25.6655 19.63C25.687 19.63 25.7072 19.6342 25.7263 19.6422C25.7454 19.6503 25.7618 19.6613 25.7759 19.6753C25.7898 19.6892 25.8008 19.7054 25.8089 19.7244C25.8169 19.7434 25.821 19.7635 25.821 19.785C25.821 19.8066 25.8169 19.8269 25.8089 19.8455Z" fill="#7F8CAB"/>
<path d="M25.7439 19.7919C25.7537 19.7818 25.7587 19.7691 25.7587 19.7537C25.7587 19.7343 25.7517 19.7187 25.7381 19.7072C25.7243 19.6956 25.7044 19.6898 25.6779 19.6898H25.5822V19.8799H25.6364V19.8136H25.6427L25.6962 19.8799H25.7611L25.7012 19.8116C25.7198 19.8085 25.734 19.8019 25.7439 19.7919Z" fill="#7F8CAB"/>
<path d="M25.677 19.7711H25.6364V19.7362H25.677C25.6853 19.7362 25.6918 19.7376 25.6962 19.7403C25.7008 19.7434 25.703 19.7477 25.703 19.7537C25.703 19.7602 25.7008 19.7646 25.6962 19.7671C25.6918 19.7696 25.6853 19.7711 25.677 19.7711Z" fill="#7F8CAB"/>
<path d="M25.4973 12.2249V11.9928H25.5923V11.9289H25.3322V11.9928H25.4271V12.2249H25.4973Z" fill="#7F8CAB"/>
<path d="M25.8255 12.1186L25.7512 11.9289H25.6507V12.2249H25.7209V12.0201L25.7882 12.1967H25.8626L25.9298 12.0195V12.2249H26V11.9289H25.8995L25.8255 12.1186Z" fill="#7F8CAB"/>
<path d="M8.021 15.8673C9.6616 15.8673 11.1897 15.3805 12.4625 14.5429C12.3965 14.4914 12.3294 14.439 12.2667 14.3866C10.3775 12.7594 9.295 10.4067 9.295 7.9345C9.295 5.46085 10.3817 3.10831 12.2809 1.48534C12.3294 1.42979 12.3944 1.37929 12.4592 1.32467C11.1897 0.48827 9.6616 0.000239849 8.02 0.000239849C3.5904 0.000239849 0 3.55329 0 7.9345C0 12.3164 3.5904 15.8684 8.021 15.8673Z" fill="#7F8CAB"/>
<path d="M9.9157 7.9343C9.9157 10.3264 10.9831 12.466 12.6745 13.92C12.7718 14.0054 12.8745 14.089 12.9772 14.1682C13.0811 14.089 13.1817 14.0054 13.2801 13.92C14.9704 12.466 16.0388 10.3264 16.0388 7.9343C16.0388 5.54314 14.9715 3.40237 13.2801 1.9483C13.1828 1.86265 13.0811 1.78138 12.9772 1.70121C12.8734 1.78138 12.7729 1.86177 12.6745 1.9483C10.9831 3.40237 9.9157 5.54314 9.9157 7.9343Z" fill="#7F8CAB"/>
<path d="M25.9546 7.9342C25.9546 3.55416 22.3641 0 17.9346 0C16.2908 0 14.7649 0.48803 13.4953 1.32444C13.5602 1.37906 13.6251 1.42956 13.6737 1.48511C15.5727 3.10807 16.6595 5.46062 16.6595 7.9342C16.6595 10.4055 15.5771 12.7559 13.6878 14.3863C13.6251 14.4388 13.558 14.4911 13.492 14.5427C14.7649 15.3803 16.2908 15.8671 17.9334 15.8671C22.3641 15.8682 25.9546 12.3162 25.9546 7.9342Z" fill="#7F8CAB"/>
</svg>
