<svg width="46" height="15" viewBox="0 0 46 15" fill="none" xmlns="http://www.w3.org/2000/svg">
<path d="M45.969 13.79H42.5083C42.3811 13.216 42.2454 12.654 42.1384 12.088C42.0939 11.853 42.0144 11.761 41.7356 11.765C40.3482 11.782 38.9607 11.778 37.5733 11.767C37.3624 11.766 37.2797 11.831 37.215 12.012C37.0243 12.552 36.8154 13.086 36.6003 13.618C36.5727 13.69 36.4763 13.789 36.4095 13.79C35.1588 13.8 33.9081 13.797 32.6213 13.797C32.8556 13.264 33.0771 12.756 33.3039 12.248L38.1435 1.358C38.4933 0.571 39.0159 0.242 39.9168 0.242H42.9556C43.0563 0.684 43.157 1.12 43.2534 1.557C44.0473 5.145 44.8391 8.733 45.6351 12.32C45.7368 12.78 45.8577 13.236 45.969 13.693V13.79V13.79ZM41.4399 8.975L40.3429 4.015L40.2984 4.007L38.3894 8.975H41.4399ZM30.8926 0C31.3494 0.08 31.8094 0.146 32.262 0.245C32.6754 0.335 33.0781 0.46 33.517 0.577L32.8693 3.436C32.2906 3.276 31.7373 3.091 31.1692 2.973C30.3923 2.811 29.5952 2.749 28.8173 2.953C28.4921 3.04047 28.1905 3.19216 27.9322 3.398C27.5051 3.743 27.4998 4.24 27.9068 4.602C28.1887 4.852 28.5215 5.057 28.8554 5.246C29.6122 5.676 30.4071 6.049 31.1427 6.508C32.0097 7.048 32.6415 7.792 32.775 8.796C33.0082 10.573 32.3129 11.972 30.7304 12.962C29.7362 13.585 28.6106 13.863 27.4372 13.966C25.7996 14.11 24.1939 13.936 22.6294 13.452C22.5234 13.419 22.4217 13.379 22.3199 13.339C22.2892 13.327 22.2627 13.307 22.216 13.279L22.8859 10.319C23.153 10.429 23.4032 10.539 23.6597 10.636C24.8817 11.101 26.1441 11.313 27.4531 11.082C27.7934 11.022 28.141 10.88 28.4283 10.698C29.0557 10.302 29.1151 9.558 28.5449 9.092C28.1707 8.786 27.7202 8.561 27.2931 8.315C26.6253 7.932 25.9173 7.605 25.2866 7.176C24.4769 6.626 23.8918 5.893 23.7805 4.919C23.6141 3.459 24.1875 2.275 25.3746 1.354C26.408 0.554 27.6344 0.198 28.9402 0.049C29.0133 0.04 29.0844 0.017 29.1554 0H30.8936H30.8926ZM17.4358 0.253C17.2418 0.694 17.0574 1.115 16.8708 1.535C15.0902 5.543 13.3063 9.551 11.533 13.562C11.4483 13.753 11.3454 13.803 11.1398 13.802C10.0156 13.791 8.89132 13.7916 7.76713 13.804C7.52865 13.807 7.45128 13.728 7.39616 13.527C6.44329 10.023 5.47452 6.523 4.53224 3.017C4.35947 2.374 4.01288 1.934 3.3642 1.665C2.32442 1.232 1.24435 0.929 0.142031 0.682C0.0943342 0.672 0.0466367 0.659 0 0.648C0.00529963 0.242 0.00529984 0.242 0.415491 0.242H6.31716C7.24989 0.242 7.924 0.754 8.09995 1.625C8.59917 4.092 9.0878 6.56 9.58173 9.028C9.60292 9.136 9.6273 9.243 9.66016 9.395C9.71104 9.305 9.74707 9.255 9.77039 9.199C10.9925 6.283 12.2146 3.367 13.4303 0.449C13.496 0.29 13.5787 0.236 13.76 0.237C14.9015 0.246 16.043 0.242 17.1835 0.242C17.2577 0.242 17.3319 0.248 17.4358 0.252V0.253ZM15.9466 13.798L19.0172 0.256H22.7449L22.2849 2.291C21.4402 6.016 20.5933 9.741 19.7581 13.469C19.6998 13.728 19.6023 13.81 19.3171 13.805C18.2964 13.786 17.2736 13.798 16.2518 13.798H15.9466V13.798Z" fill="#7F8CAB"/>
</svg>
