<svg width="711" height="896" viewBox="0 0 711 896" fill="none" xmlns="http://www.w3.org/2000/svg">
<path d="M110.191 1L226.504 30.989L289 1M1 30.2565L226.181 107.078L373.624 30.2565H455.962L536.385 59.8032L685 1M7.59291 98.5261L260.515 202.189L365.862 98.5261L450.14 89.6407L521.01 128.144L718.296 60.0227M4.95543 181.164L299.048 313.319L366.051 181.164L442.626 160.14L524.944 205.193L718.296 142.119M4.95543 253.249L299.391 395.362L364.488 552.659L391.293 718.859L371.5 895M4.95543 310.393L253.73 463.092L316.899 576.011L339.869 727.56L316.899 895M6.27417 383.247L226.874 537.878L271.059 616.963L287.127 723.102L255.5 895M6.27417 460.055L192.541 592.337L230.165 672.518L237.022 773.615L183 895M6.27417 571.314L151.858 648.547L188.235 713.922L176.747 785.24L6.27417 895M6.27417 674.742L110.191 689.741L148.678 725.737L142.905 752.734L6.27417 780.866M422.5 895L442.567 718.614L415.69 552.177L350.418 394.657L383.054 249.024L432.968 228.22L503.999 272.801L720.933 228.22M478.5 895L489.431 722.09L472.202 553.183L407.116 396.13L418.602 325.012L489.431 345.755L585.145 354.644L724.889 301.306M531.5 895L538.855 728.387L521.625 555.824L475.681 439.789V401.111L546.512 418.963L615.429 413.012L734.118 368.384M590.5 895L602.122 814.761L584.827 696.076L552.157 509.149L569.453 476.51L623.261 497.28L772 439.467L751.945 525.568L607.887 559.589L623.261 681.241L666 895M704 895L659.774 618.932L732.8 601.129" stroke="#323232"/>
</svg>
