<svg width="101" height="46" viewBox="0 0 101 46" fill="none" xmlns="http://www.w3.org/2000/svg">
<path d="M22.5 0.5C10.0936 0.5 0 10.5936 0 23C0 35.4064 10.0936 45.5 22.5 45.5C34.9064 45.5 45 35.4064 45 23C45 10.5936 34.9064 0.5 22.5 0.5ZM2.61737 24.2857H10.6266C10.7118 27.2781 11.0932 30.0962 11.7169 32.6429H5.06744C3.67575 30.1369 2.81054 27.3018 2.61737 24.2857ZM23.7857 10.7857V3.28503C26.0571 4.03101 28.2847 6.70571 29.8165 10.7857H23.7857ZM30.6343 13.3571C31.2874 15.8029 31.7087 18.6135 31.8006 21.7143H23.7857V13.3571H30.6343ZM21.2143 3.28503V10.7857H15.1835C16.7153 6.70571 18.9429 4.03101 21.2143 3.28503ZM21.2143 13.3571V21.7143H13.1994C13.2913 18.6135 13.7126 15.8029 14.3657 13.3571H21.2143ZM10.6266 21.7143H2.61737C2.81054 18.6982 3.67575 15.8631 5.06744 13.3571H11.7169C11.0932 15.9038 10.7118 18.7219 10.6266 21.7143ZM13.1994 24.2857H21.2143V32.6429H14.3657C13.7126 30.1971 13.2913 27.3865 13.1994 24.2857ZM21.2143 35.2143V42.715C18.9429 41.969 16.7153 39.2943 15.1835 35.2143H21.2143ZM23.7857 42.715V35.2143H29.8165C28.2847 39.2943 26.0571 41.969 23.7857 42.715ZM23.7857 32.6429V24.2857H31.8006C31.7087 27.3865 31.2874 30.1971 30.6343 32.6429H23.7857ZM34.3734 24.2857H42.3826C42.1895 27.3018 41.3242 30.1369 39.9326 32.6429H33.2831C33.9067 30.0962 34.2882 27.2781 34.3734 24.2857ZM34.3734 21.7143C34.2882 18.7219 33.9067 15.9038 33.2831 13.3571H39.9326C41.3242 15.8631 42.1895 18.6982 42.3826 21.7143H34.3734ZM38.2298 10.7857H32.5392C31.6568 8.15967 30.4944 5.91924 29.1228 4.20726C32.7558 5.49156 35.9064 7.80042 38.2298 10.7857ZM15.8772 4.20726C14.5056 5.91924 13.3432 8.15967 12.4608 10.7857H6.77017C9.09358 7.80042 12.2442 5.49156 15.8772 4.20726ZM6.77017 35.2143H12.4608C13.3432 37.8403 14.5056 40.0808 15.8772 41.7927C12.2442 40.5084 9.09358 38.1996 6.77017 35.2143ZM29.1228 41.7927C30.4944 40.0808 31.6568 37.8403 32.5392 35.2143H38.2298C35.9064 38.1996 32.7558 40.5084 29.1228 41.7927Z" fill="white"/>
<path d="M76.0134 22.469V17.6507H78.7031C81.1188 17.6507 82.8372 18.3331 82.8372 20.1529C82.8372 21.8486 81.0939 22.469 78.7031 22.469H76.0134ZM73 29.5H76.0134V24.6196H78.728H79.2011L82.5383 29.5H86L82.3889 24.2061C84.705 23.565 86 22.2001 86 20.1529C86 17.113 83.3352 15.5 78.728 15.5H73V29.5Z" fill="white"/>
<circle cx="78.5" cy="23" r="21" stroke="white" stroke-width="3"/>
</svg>
