<svg width="25" height="24" viewBox="0 0 25 24" fill="none" xmlns="http://www.w3.org/2000/svg">
<path d="M12.4998 2.00001C11.1991 1.95278 9.9024 2.16913 8.68756 2.63605C7.47273 3.10297 6.36489 3.8108 5.4307 4.71696C4.49651 5.62313 3.75528 6.7089 3.25158 7.90895C2.74789 9.10901 2.49215 10.3986 2.49976 11.7C2.483 13.0512 2.75437 14.3904 3.29581 15.6285C3.83725 16.8665 4.63631 17.975 5.63975 18.88C5.71942 18.951 5.78429 19.037 5.83062 19.1331C5.87695 19.2292 5.90385 19.3335 5.90975 19.44V21.22C5.91524 21.3512 5.95254 21.4791 6.01845 21.5927C6.08437 21.7063 6.17691 21.8022 6.28811 21.8721C6.39932 21.9419 6.52584 21.9837 6.65678 21.9938C6.78772 22.0039 6.91916 21.982 7.03975 21.93L9.03975 21.06C9.21053 20.9955 9.39898 20.9955 9.56975 21.06C10.5152 21.3152 11.4905 21.443 12.4698 21.44C15.0477 21.444 17.5216 20.4237 19.3472 18.6037C21.1729 16.7837 22.2008 14.3129 22.2048 11.735C22.2087 9.1571 21.1885 6.6832 19.3684 4.85754C17.5484 3.03187 15.0777 2.00399 12.4998 2.00001ZM18.4998 9.46001L15.5698 14.12C15.4593 14.2955 15.3136 14.4461 15.1419 14.5624C14.9703 14.6787 14.7764 14.7582 14.5724 14.7957C14.3685 14.8333 14.159 14.8282 13.9572 14.7808C13.7554 14.7333 13.5656 14.6445 13.3998 14.52L11.0598 12.77C10.9559 12.6921 10.8296 12.65 10.6998 12.65C10.5699 12.65 10.4436 12.6921 10.3398 12.77L7.17975 15.17C7.09175 15.2379 6.98254 15.2724 6.87151 15.2674C6.76049 15.2623 6.65483 15.2181 6.5733 15.1426C6.49178 15.0671 6.43965 14.9651 6.42619 14.8548C6.41272 14.7445 6.43879 14.6329 6.49975 14.54L9.42976 9.88001C9.54026 9.70456 9.68594 9.55393 9.85759 9.43763C10.0292 9.32132 10.2232 9.24187 10.4271 9.20428C10.631 9.16669 10.8405 9.17179 11.0423 9.21925C11.2441 9.2667 11.434 9.35549 11.5998 9.48001L13.9398 11.23C14.0436 11.3079 14.1699 11.35 14.2998 11.35C14.4296 11.35 14.5559 11.3079 14.6598 11.23L17.8198 8.83001C17.9078 8.76214 18.017 8.72765 18.128 8.73266C18.239 8.73768 18.3447 8.78188 18.4262 8.85741C18.5077 8.93294 18.5599 9.03492 18.5733 9.14524C18.5868 9.25556 18.5607 9.36708 18.4998 9.46001Z" fill="white"/>
</svg>
