<svg width="33" height="34" viewBox="0 0 33 34" fill="none" xmlns="http://www.w3.org/2000/svg">
<path d="M16.4688 0.53125C7.3877 0.53125 0 7.91895 0 17C0 26.0811 7.3877 33.4688 16.4688 33.4688C25.5498 33.4688 32.9375 26.0811 32.9375 17C32.9375 7.91894 25.5498 0.53125 16.4688 0.53125ZM16.4688 30.2812C9.14538 30.2812 3.1875 24.3234 3.1875 17C3.1875 9.67663 9.14538 3.71875 16.4688 3.71875C23.7921 3.71875 29.75 9.67663 29.75 17C29.75 24.3234 23.7921 30.2812 16.4688 30.2812Z" fill="#FAC600"/>
<path d="M11.3762 16.4532C13.8825 16.4532 15.9219 14.4138 15.9219 11.9075C15.9219 9.40115 13.8825 7.36175 11.3762 7.36175C8.8699 7.36175 6.8305 9.40115 6.8305 11.9075C6.8305 14.4138 8.8699 16.4532 11.3762 16.4532ZM11.3762 10.5493C12.1254 10.5493 12.7344 11.1583 12.7344 11.9075C12.7344 12.6566 12.1254 13.2657 11.3762 13.2657C10.6271 13.2657 10.018 12.6566 10.018 11.9075C10.018 11.1583 10.6271 10.5493 11.3762 10.5493ZM21.5613 17.5468C19.0544 17.5468 17.0156 19.5862 17.0156 22.0925C17.0156 24.5989 19.0545 26.6382 21.5613 26.6382C24.0681 26.6382 26.107 24.5989 26.107 22.0925C26.107 19.5862 24.0681 17.5468 21.5613 17.5468ZM21.5613 23.4507C20.8121 23.4507 20.2031 22.8417 20.2031 22.0925C20.2031 21.3434 20.8121 20.7343 21.5613 20.7343C22.3104 20.7343 22.9195 21.3434 22.9195 22.0925C22.9195 22.8417 22.3104 23.4507 21.5613 23.4507ZM25.1078 8.36148C24.4852 7.73892 23.4767 7.73892 22.8541 8.36148L7.83023 23.3849C7.20767 24.0069 7.20767 25.016 7.83023 25.6385C8.14151 25.9498 8.54929 26.1054 8.95707 26.1054C9.36484 26.1054 9.77262 25.9498 10.0839 25.6385L25.1078 10.6151C25.7303 9.9931 25.7303 8.98404 25.1078 8.36148Z" fill="#FAC600"/>
</svg>
