<svg width="106" height="106" viewBox="0 0 106 106" fill="none" xmlns="http://www.w3.org/2000/svg">
<path d="M14.8462 6.43453H11.3039C10.8921 6.43453 10.4972 6.59812 10.206 6.88932C9.91476 7.18051 9.75117 7.57546 9.75117 7.98727C9.75117 8.39908 9.91476 8.79402 10.206 9.08521C10.4972 9.37641 10.8921 9.54 11.3039 9.54H13.2935V21.4567C13.2935 21.8685 13.4571 22.2635 13.7483 22.5547C14.0395 22.8459 14.4344 23.0095 14.8462 23.0095C15.258 23.0095 15.653 22.8459 15.9442 22.5547C16.2354 22.2635 16.3989 21.8685 16.3989 21.4567V7.98727C16.3989 7.78336 16.3588 7.58145 16.2808 7.39306C16.2027 7.20467 16.0883 7.0335 15.9442 6.88932C15.8 6.74513 15.6288 6.63076 15.4404 6.55273C15.252 6.47469 15.0501 6.43453 14.8462 6.43453ZM88.4127 95.9404H92.4084C92.4084 96.7043 92.4084 97.4372 92.3939 98.1018C92.3923 98.3056 92.4308 98.5077 92.5074 98.6966C92.5839 98.8855 92.697 99.0574 92.84 99.2026C92.9831 99.3478 93.1534 99.4633 93.3411 99.5427C93.5289 99.622 93.7304 99.6635 93.9342 99.6648H93.9466C94.3563 99.6649 94.7494 99.503 95.0402 99.2145C95.3311 98.9259 95.4961 98.5342 95.4994 98.1245C95.4994 97.7105 95.4994 96.9196 95.5159 95.9341C95.9024 95.9016 96.2627 95.7256 96.526 95.4408C96.7892 95.156 96.9364 94.783 96.9384 94.3952C96.9405 94.0074 96.7974 93.6328 96.5372 93.3452C96.277 93.0576 95.9186 92.8778 95.5325 92.8411C95.5491 89.8495 95.5553 86.6923 95.5325 86.2513C95.4497 85.1457 94.81 84.2679 93.899 84.0112C93.5657 83.916 92.4063 83.7131 91.4643 85.0236C90.8267 85.9118 87.9055 91.895 87.0235 93.7086C86.9084 93.9454 86.8553 94.2076 86.8694 94.4705C86.8834 94.7334 86.9641 94.9885 87.1039 95.2117C87.2436 95.4348 87.4378 95.6188 87.6682 95.7463C87.8986 95.8737 88.1577 95.9405 88.421 95.9404H88.4127ZM92.4395 89.748C92.4395 90.6818 92.4395 91.7418 92.427 92.8349H90.9012C91.4416 91.7355 91.9736 90.6797 92.4395 89.748ZM101.342 27.9492C102.577 27.9481 103.761 27.457 104.634 26.5837C105.508 25.7103 105.999 24.5261 106 23.291V4.6582C105.999 3.42311 105.508 2.23891 104.634 1.36557C103.761 0.492222 102.577 0.0010964 101.342 0L68.8379 0C64.0351 0.0054795 59.4306 1.9158 56.0345 5.31188C52.6385 8.70796 50.7281 13.3125 50.7227 18.1152V30.7089C46.2754 31.1719 42.0675 32.9514 38.6375 35.8197C35.2075 38.688 32.7114 42.5146 31.4688 46.8098C29.1939 44.1099 27.9473 40.6925 27.9492 37.1621V4.6582C27.9481 3.42311 27.457 2.23891 26.5837 1.36557C25.7103 0.492222 24.5261 0.0010964 23.291 0H4.6582C3.42311 0.0010964 2.23891 0.492222 1.36557 1.36557C0.492222 2.23891 0.0010964 3.42311 0 4.6582V37.1621C0.0054795 41.9649 1.9158 46.5694 5.31188 49.9655C8.70796 53.3615 13.3125 55.2719 18.1152 55.2773H30.7089C31.1719 59.7246 32.9514 63.9325 35.8197 67.3625C38.688 70.7925 42.5146 73.2886 46.8098 74.5312C44.1099 76.8061 40.6925 78.0527 37.1621 78.0508H4.6582C3.42311 78.0519 2.23891 78.543 1.36557 79.4164C0.492222 80.2897 0.0010964 81.4739 0 82.709V101.342C0.0010964 102.577 0.492222 103.761 1.36557 104.634C2.23891 105.508 3.42311 105.999 4.6582 106H37.1621C41.9649 105.995 46.5694 104.084 49.9655 100.688C53.3615 97.292 55.2719 92.6875 55.2773 87.8848V75.2911C59.7246 74.8281 63.9325 73.0486 67.3625 70.1803C70.7925 67.312 73.2886 63.4854 74.5312 59.1902C76.8061 61.8901 78.0527 65.3075 78.0508 68.8379V101.342C78.0519 102.577 78.543 103.761 79.4164 104.634C80.2897 105.508 81.4739 105.999 82.709 106H101.342C102.577 105.999 103.761 105.508 104.634 104.634C105.508 103.761 105.999 102.577 106 101.342V68.8379C105.995 64.0351 104.084 59.4306 100.688 56.0345C97.292 52.6385 92.6875 50.7281 87.8848 50.7227H75.2911C74.8281 46.2754 73.0486 42.0675 70.1803 38.6375C67.312 35.2075 63.4854 32.7114 59.1902 31.4688C61.8901 29.1939 65.3075 27.9473 68.8379 27.9492H101.342ZM30.6116 52.1719H18.1152C14.1357 52.1675 10.3205 50.5847 7.50657 47.7708C4.69264 44.9568 3.10985 41.1416 3.10547 37.1621V4.6582C3.10547 4.24639 3.26906 3.85145 3.56025 3.56025C3.85145 3.26906 4.24639 3.10547 4.6582 3.10547H23.291C23.7028 3.10547 24.0978 3.26906 24.389 3.56025C24.6802 3.85145 24.8438 4.24639 24.8438 4.6582V37.1621C24.8413 39.6767 25.3637 42.1642 26.3776 44.4653C27.3914 46.7665 28.8744 48.8307 30.7317 50.526C30.6717 51.0684 30.6406 51.617 30.6116 52.1719ZM75.3884 53.8281H87.8848C91.8643 53.8325 95.6795 55.4153 98.4934 58.2292C101.307 61.0432 102.89 64.8584 102.895 68.8379V101.342C102.895 101.754 102.731 102.149 102.44 102.44C102.149 102.731 101.754 102.895 101.342 102.895H82.709C82.2972 102.895 81.9022 102.731 81.611 102.44C81.3198 102.149 81.1562 101.754 81.1562 101.342V68.8379C81.1573 66.325 80.6342 63.8396 79.6203 61.5403C78.6065 59.241 77.1243 57.1784 75.2683 55.4844C75.3283 54.9316 75.3697 54.383 75.3884 53.8281ZM52.1719 87.8848C52.1675 91.8643 50.5847 95.6795 47.7708 98.4934C44.9568 101.307 41.1416 102.89 37.1621 102.895H4.6582C4.24639 102.895 3.85145 102.731 3.56025 102.44C3.26906 102.149 3.10547 101.754 3.10547 101.342V82.709C3.10547 82.2972 3.26906 81.9022 3.56025 81.611C3.85145 81.3198 4.24639 81.1562 4.6582 81.1562H37.1621C39.6767 81.1587 42.1642 80.6363 44.4653 79.6224C46.7665 78.6086 48.8307 77.1256 50.526 75.2683C51.0684 75.3283 51.617 75.3697 52.1719 75.3884V87.8848ZM72.3015 53C72.3019 56.8176 71.1703 60.5495 69.0496 63.7239C66.929 66.8983 63.9147 69.3726 60.3878 70.8338C56.861 72.295 52.98 72.6775 49.2357 71.933C45.4915 71.1885 42.0521 69.3503 39.3525 66.651C36.6529 63.9518 34.8144 60.5126 34.0695 56.7684C33.3246 53.0242 33.7067 49.1432 35.1675 45.6162C36.6283 42.0892 39.1023 39.0746 42.2764 36.9536C45.4506 34.8326 49.1824 33.7005 53 33.7005C58.1169 33.7066 63.0225 35.7418 66.6408 39.3598C70.2592 42.9777 72.295 47.8831 72.3015 53ZM55.4844 30.7317C54.942 30.6717 54.3933 30.6303 53.8385 30.6116V18.1152C53.8429 14.1375 55.4242 10.3239 58.2359 7.51022C61.0476 4.69659 64.8602 3.11259 68.8379 3.10547H101.342C101.754 3.10547 102.149 3.26906 102.44 3.56025C102.731 3.85145 102.895 4.24639 102.895 4.6582V23.291C102.895 23.7028 102.731 24.0978 102.44 24.389C102.149 24.6802 101.754 24.8438 101.342 24.8438H68.8379C66.325 24.8427 63.8396 25.3658 61.5403 26.3797C59.241 27.3935 57.1784 28.8757 55.4844 30.7317ZM18.1711 83.9388C15.6868 83.9388 13.5191 85.5805 13.0243 87.8434C12.9365 88.2458 13.0121 88.6667 13.2346 89.0134C13.4571 89.3602 13.8081 89.6043 14.2106 89.6922C14.6131 89.78 15.034 89.7044 15.3807 89.4819C15.7274 89.2594 15.9716 88.9083 16.0594 88.5059C16.2437 87.6591 17.1318 87.0442 18.1711 87.0442C19.3554 87.0442 20.318 87.8413 20.318 88.8185C20.318 89.7957 19.3554 90.5927 18.1711 90.5927C17.7593 90.5927 17.3644 90.7563 17.0732 91.0475C16.782 91.3387 16.6184 91.7337 16.6184 92.1455C16.6184 92.5573 16.782 92.9522 17.0732 93.2434C17.3644 93.5346 17.7593 93.6982 18.1711 93.6982C19.3554 93.6982 20.318 94.4953 20.318 95.4745C20.318 96.4538 19.3554 97.2488 18.1711 97.2488C17.0946 97.2488 16.1795 96.5821 16.0429 95.7002C16.0305 95.6256 16.0243 95.5501 16.0242 95.4745C16.0242 95.0627 15.8606 94.6678 15.5694 94.3766C15.2782 94.0854 14.8833 93.9218 14.4715 93.9218C14.0597 93.9218 13.6647 94.0854 13.3735 94.3766C13.0823 94.6678 12.9188 95.0627 12.9188 95.4745C12.9191 95.7095 12.9371 95.9441 12.9726 96.1764C13.3432 98.5572 15.577 100.354 18.1711 100.354C21.0696 100.354 23.4235 98.1659 23.4235 95.4745C23.42 94.8537 23.2931 94.2397 23.0504 93.6682C22.8077 93.0967 22.4538 92.5791 22.0095 92.1455C22.4523 91.7112 22.8045 91.1933 23.0455 90.6218C23.2864 90.0503 23.4114 89.4366 23.4132 88.8164C23.4132 86.125 21.0571 83.9408 18.1608 83.9408L18.1711 83.9388ZM46.6193 59.3807C46.7632 59.5252 46.9342 59.6398 47.1225 59.718C47.3108 59.7963 47.5127 59.8365 47.7166 59.8365C47.9205 59.8365 48.1224 59.7963 48.3107 59.718C48.499 59.6398 48.6699 59.5252 48.8138 59.3807L59.1364 49.0664C59.4285 48.7743 59.5926 48.3781 59.5926 47.965C59.5926 47.5519 59.4285 47.1557 59.1364 46.8636C58.8443 46.5715 58.4481 46.4074 58.035 46.4074C57.6219 46.4074 57.2257 46.5715 56.9336 46.8636L46.6131 57.1862C46.4693 57.3306 46.3553 57.502 46.2778 57.6905C46.2003 57.879 46.1607 58.0809 46.1612 58.2847C46.1618 58.4885 46.2026 58.6903 46.2812 58.8783C46.3598 59.0664 46.4747 59.2371 46.6193 59.3807ZM79.1398 11.9478C79.3399 11.9872 79.5458 11.9869 79.7458 11.9468C79.9457 11.9066 80.1358 11.8275 80.3052 11.7139C80.4746 11.6002 80.6199 11.4543 80.7329 11.2845C80.8459 11.1147 80.9243 10.9243 80.9637 10.7242C81.0341 10.3736 81.2299 10.0607 81.5143 9.84407C81.7988 9.62743 82.1525 9.52192 82.5092 9.54731C82.8659 9.57269 83.2011 9.72723 83.4521 9.98198C83.703 10.2367 83.8525 10.5742 83.8725 10.9312L83.8477 11.1797C83.6295 11.8842 83.2919 12.5459 82.8498 13.1361C80.9865 15.8068 79.8664 17.2768 79.2681 18.0511C78.529 19.0158 78.1232 19.5479 78.3841 20.3967C78.4588 20.6431 78.592 20.8677 78.7722 21.0516C78.9525 21.2354 79.1744 21.373 79.4193 21.4526C79.6263 21.523 79.8064 21.583 82.1107 21.583C83.0195 21.583 84.2555 21.583 85.9532 21.552C86.365 21.5495 86.7589 21.3835 87.0484 21.0906C87.3378 20.7976 87.4991 20.4017 87.4966 19.9899C87.4941 19.5781 87.3281 19.1841 87.0352 18.8947C86.7423 18.6052 86.3463 18.444 85.9345 18.4465H85.918C84.8828 18.4589 83.7959 18.4693 82.8415 18.4713C83.4729 17.6204 84.3114 16.4673 85.3963 14.9187C86.0861 13.9871 86.5932 12.9334 86.891 11.8132C86.9039 11.7628 86.9136 11.7116 86.92 11.66L86.978 11.2025C86.9867 11.1338 86.9909 11.0646 86.9904 10.9954C86.9895 9.8595 86.566 8.76453 85.8024 7.92353C85.0388 7.08253 83.9897 6.55565 82.8591 6.44538C81.7286 6.33511 80.5974 6.64935 79.6857 7.32695C78.774 8.00455 78.147 8.99706 77.9266 10.1114C77.8852 10.3117 77.8837 10.5182 77.9223 10.719C77.961 10.9198 78.0389 11.111 78.1516 11.2817C78.2643 11.4523 78.4097 11.599 78.5792 11.7133C78.7488 11.8276 78.9393 11.9073 79.1398 11.9478ZM55.5879 55.5879C54.6559 56.5527 54.1401 57.845 54.1517 59.1864C54.1633 60.5278 54.7013 61.811 55.6499 62.7596C56.5984 63.7082 57.8816 64.2462 59.223 64.2578C60.5644 64.2694 61.8568 63.7536 62.8216 62.8216C63.3101 62.3496 63.6997 61.7851 63.9678 61.161C64.2358 60.5369 64.3769 59.8656 64.3828 59.1864C64.3886 58.5072 64.2592 57.8336 64.002 57.2049C63.7447 56.5763 63.3649 56.0051 62.8846 55.5248C62.4043 55.0445 61.8332 54.6647 61.2045 54.4075C60.5758 54.1503 59.9023 54.0208 59.223 54.0267C58.5438 54.0325 57.8726 54.1736 57.2484 54.4417C56.6243 54.7097 56.0598 55.0994 55.5879 55.5879ZM61.215 59.2109C61.216 59.6772 61.0552 60.1293 60.7601 60.4902C60.465 60.8512 60.0538 61.0986 59.5967 61.1902C59.1396 61.2819 58.6648 61.2122 58.2533 60.9929C57.8419 60.7737 57.5192 60.4185 57.3403 59.988C57.1615 59.5574 57.1375 59.0782 57.2725 58.6319C57.4074 58.1857 57.693 57.8001 58.0805 57.5408C58.468 57.2816 58.9335 57.1648 59.3975 57.2104C59.8615 57.2559 60.2953 57.461 60.625 57.7907C60.8126 57.9764 60.9615 58.1977 61.0628 58.4415C61.1641 58.6853 61.2158 58.9469 61.215 59.2109ZM50.4121 50.4121C51.2482 49.5755 51.7684 48.475 51.8842 47.2979C51.9999 46.1208 51.7041 44.94 51.0471 43.9566C50.39 42.9731 49.4124 42.2478 48.2806 41.9042C47.1489 41.5606 45.9331 41.6199 44.8401 42.0721C43.7472 42.5243 42.8449 43.3413 42.2867 44.384C41.7285 45.4268 41.549 46.6308 41.7788 47.791C42.0087 48.9512 42.6335 49.9958 43.5471 50.7471C44.4606 51.4983 45.6063 51.9096 46.7891 51.911C47.4621 51.9136 48.129 51.7825 48.751 51.5252C49.373 51.2678 49.9376 50.8895 50.4121 50.4121ZM44.785 46.7891C44.7846 46.4583 44.8658 46.1325 45.0215 45.8407C45.1771 45.5488 45.4023 45.2999 45.6772 45.1159C45.9521 44.9319 46.2682 44.8186 46.5973 44.7861C46.9265 44.7535 47.2586 44.8027 47.5642 44.9292C47.8698 45.0557 48.1395 45.2557 48.3493 45.5114C48.5592 45.7671 48.7026 46.0706 48.7671 46.3951C48.8315 46.7195 48.8148 47.0548 48.7186 47.3713C48.6224 47.6878 48.4496 47.9756 48.2155 48.2093C47.9344 48.4899 47.5764 48.681 47.1868 48.7584C46.7971 48.8357 46.3933 48.7959 46.0263 48.644C45.6593 48.492 45.3455 48.2347 45.1246 47.9046C44.9037 47.5745 44.7855 47.1863 44.785 46.7891Z" fill="#FAC600"/>
</svg>
