<svg width="25" height="24" viewBox="0 0 25 24" fill="none" xmlns="http://www.w3.org/2000/svg">
<g clip-path="url(#clip0_299_2195)">
<path d="M20.5 13.293V12.675L23.72 8.65C24.223 8.021 24.5 7.232 24.5 6.427C24.5 5.64 23.86 5 23.073 5H19.565C19.021 5 18.534 5.323 18.324 5.822C17.128 8.666 16.083 10.75 15.664 11.13C15.272 11.484 14.776 11.338 14.499 11.209V6.094C14.499 5.80403 14.3839 5.52592 14.1789 5.32078C13.974 5.11564 13.696 5.00027 13.406 5H9C8.90098 4.99982 8.80414 5.02905 8.72175 5.08398C8.63936 5.13891 8.57513 5.21706 8.53722 5.30854C8.4993 5.40001 8.48939 5.50068 8.50876 5.59779C8.52813 5.6949 8.57589 5.78407 8.646 5.854L8.92 6.127C9.294 6.501 9.5 6.998 9.5 7.527V11.323C9.45329 11.3709 9.39282 11.4031 9.327 11.415C9.215 11.436 9.037 11.329 8.854 11.146C8.131 10.423 6.149 6.662 5.447 5.274C5.40489 5.19165 5.34088 5.1225 5.26202 5.07416C5.18316 5.02582 5.0925 5.00016 5 5H1.797C1.082 5 0.5 5.582 0.5 6.297V6.552C0.5 7.612 0.793 8.646 1.349 9.541C4.032 13.856 7.71 19 10 19H13.271C13.5969 18.9997 13.9093 18.8702 14.1397 18.6397C14.3702 18.4093 14.4997 18.0969 14.5 17.771V16.914C14.5006 16.7335 14.5545 16.5573 14.6551 16.4074C14.7556 16.2575 14.8982 16.1407 15.0649 16.0716C15.2317 16.0026 15.4151 15.9844 15.5922 16.0193C15.7692 16.0543 15.932 16.1408 16.06 16.268L18.136 18.344C18.3438 18.5526 18.5909 18.7179 18.8629 18.8305C19.1349 18.9431 19.4266 19.0007 19.721 19H23.289C23.78 19 24.218 18.707 24.406 18.254C24.594 17.801 24.491 17.284 24.144 16.937L20.5 13.293Z" fill="white"/>
</g>
<defs>
<clipPath id="clip0_299_2195">
<rect width="24" height="24" fill="white" transform="translate(0.5)"/>
</clipPath>
</defs>
</svg>
