<svg width="20" height="20" viewBox="0 0 20 20" fill="none" xmlns="http://www.w3.org/2000/svg">
<path d="M19.8019 0.19802C19.5378 -0.0660066 19.0682 -0.0660066 18.8041 0.19802L10 8.9989L1.19589 0.19802C0.931768 -0.0660066 0.462216 -0.0660066 0.198092 0.19802C-0.0660308 0.462046 -0.0660308 0.931426 0.198092 1.19545L9.0022 9.99633L0.198092 18.7972C-0.0660308 19.0612 -0.0660308 19.5306 0.198092 19.7946C0.344828 19.9413 0.520909 20 0.696992 20C0.873074 20 1.04916 19.9413 1.19589 19.7946L10 10.9938L18.8041 19.7946C18.9508 19.9413 19.1269 20 19.303 20C19.4791 20 19.6552 19.9413 19.8019 19.7946C20.066 19.5306 20.066 19.0612 19.8019 18.7972L10.9978 9.99633L19.8019 1.19545C20.066 0.931426 20.066 0.491382 19.8019 0.19802Z" fill="#585C5D"/>
</svg>
