<svg width="135" height="24" viewBox="0 0 135 24" fill="none" xmlns="http://www.w3.org/2000/svg">
<g clip-path="url(#clip0_139_2297)">
<path d="M24.6253 6.71094H22.4067C22.2124 6.71094 22.0488 6.87435 22.0488 7.0684V9.98936V23.1337C22.0488 23.3379 22.2124 23.4911 22.4169 23.4911H22.4271H24.6253H24.6355C24.84 23.4911 25.0036 23.3277 25.0036 23.1337V9.98936V7.0684C25.0036 6.87435 24.84 6.71094 24.6457 6.71094H24.6253Z" fill="white"/>
<path d="M76.553 6.71094H74.3344C74.1401 6.71094 73.9766 6.87435 73.9766 7.0684V9.98936V23.1337C73.9766 23.3379 74.1401 23.4911 74.3446 23.4911H74.3549H76.553H76.5632C76.7677 23.4911 76.9313 23.3277 76.9313 23.1337V9.98936V7.0684C76.9313 6.87435 76.7677 6.71094 76.5735 6.71094H76.553Z" fill="white"/>
<path d="M2.4089 3.42096H20.8019C20.9552 3.42096 21.0881 3.32904 21.1393 3.19627L22.0185 1.00044C22.1105 0.765542 21.9367 0.5 21.6811 0.5H4.924C2.19419 0.5 -0.0244141 2.70604 -0.0244141 5.42274V7.06705V20.2624V23.1323C-0.0244141 23.3366 0.13917 23.4898 0.333426 23.4898H2.54181C2.74629 23.4898 2.90987 23.3264 2.90987 23.1323H2.9201V20.5586C2.9201 20.3544 2.96099 20.1603 3.03256 19.9765L6.39625 11.6936C6.46782 11.5098 6.39625 11.3055 6.21222 11.2136L3.62555 9.88588C3.50286 9.8246 3.55398 9.63055 3.6869 9.63055H18.297C18.4503 9.63055 18.5833 9.53863 18.6446 9.39565L19.5136 7.22025C19.6159 6.97513 19.4318 6.70959 19.166 6.70959H3.45174C3.19614 6.70959 3.01211 6.44405 3.11435 6.20915L3.70734 4.76909C3.78914 4.57504 3.70734 4.35036 3.51309 4.25844L2.34755 3.66607C2.22486 3.6048 2.27598 3.42096 2.4089 3.42096Z" fill="white"/>
<path d="M71.4517 6.70959H57.2097H55.5636C55.3591 6.70959 55.2058 6.54618 55.2058 6.36234V6.06616H55.1955V0.85746C55.1955 0.66341 55.032 0.5 54.8377 0.5H52.6293C52.4351 0.5 52.2715 0.66341 52.2715 0.85746V6.06616V6.34192V11.2238V11.6425V12.4187V12.9294V17.6785V18.5977C52.2715 21.3144 54.4799 23.5204 57.2199 23.5204H65.0208C65.1742 23.5204 65.3173 23.4285 65.3786 23.2855L66.2477 21.1305C66.3499 20.8854 66.1659 20.6097 65.8898 20.6097H55.5738C55.3898 20.6097 55.216 20.4667 55.216 20.2829L58.7024 11.7242C58.7739 11.5404 58.7024 11.3361 58.5183 11.2442L55.9317 9.91652C55.809 9.85524 55.8601 9.66119 55.993 9.66119H70.6031C70.7565 9.66119 70.8996 9.56927 70.9507 9.42629L71.8198 7.25089C71.922 7.00577 71.738 6.74023 71.4721 6.74023L71.4517 6.70959Z" fill="white"/>
<path d="M47.0468 7.24983C46.3721 6.9128 45.6155 6.71875 44.8078 6.71875H27.8666C27.6724 6.71875 27.5088 6.88216 27.5088 7.07621V7.7707V11.2227V11.6415V12.4177V12.9181V17.6672V18.5864V20.2818V23.1517C27.5088 23.356 27.6724 23.5092 27.8666 23.5092H30.075C30.2795 23.5092 30.4431 23.3457 30.4431 23.1517H30.4533V23.0904V20.578C30.4533 20.3737 30.4942 20.1797 30.5658 19.9958L33.9397 11.713C34.0112 11.5291 33.9397 11.3249 33.7556 11.233L31.169 9.90525C31.0463 9.84397 31.0974 9.64992 31.2303 9.64992H45.8404H46.4641C46.6686 9.64992 46.8321 9.81333 46.8321 10.0176V23.1006V23.1619C46.8321 23.3662 46.9957 23.5194 47.2002 23.5194H49.3984C49.6028 23.5194 49.7664 23.356 49.7664 23.1517V11.6517C49.7664 9.73163 48.6622 8.0771 47.0571 7.26005L47.0468 7.24983Z" fill="white"/>
<path d="M122.224 20.2205C122.224 20.4146 122.061 20.578 121.866 20.578H106.213C106.029 20.578 105.876 20.435 105.856 20.2512L109.342 11.6926C109.414 11.5087 109.342 11.2942 109.158 11.2125L106.571 9.89504C106.459 9.83376 106.5 9.64992 106.622 9.63971H121.866C122.061 9.63971 122.224 9.80312 122.224 9.99717V20.2205ZM120.21 6.71875H107.778C105.079 6.7596 102.911 8.94522 102.911 11.6415V18.5864C102.911 21.3031 105.12 23.5092 107.86 23.5092H120.292C122.991 23.4683 125.159 21.2827 125.159 18.5864V11.6415C125.159 8.92479 122.95 6.71875 120.21 6.71875Z" fill="white"/>
<path d="M98.8519 13.7158L101.265 7.73091L101.469 7.23046C101.571 6.98535 101.387 6.70959 101.122 6.70959H98.7701C98.6167 6.70959 98.4736 6.80151 98.4123 6.94449L95.8154 13.389C95.7642 13.5218 95.6313 13.6137 95.478 13.6137H90.4784H82.7389C82.5855 13.6137 82.4628 13.5218 82.4015 13.389C82.381 13.3481 82.3708 13.2971 82.3708 13.2562V12.9907V9.38544V0.85746C82.3708 0.66341 82.2072 0.5 82.013 0.5H79.7944C79.6001 0.5 79.4365 0.66341 79.4365 0.85746V7.78197V9.38544V12.9907V13.2664V18.1483V18.5671V19.3433V19.8539V23.1425C79.4365 23.3468 79.6001 23.5 79.8046 23.5H79.8148H82.013H82.0232C82.2174 23.5 82.3708 23.3468 82.381 23.163C82.381 23.1528 82.381 23.1425 82.381 23.1425V20.2624C82.3913 20.099 83.2705 17.9134 83.2705 17.9134C83.3523 17.7194 83.2705 17.4947 83.0763 17.4028L82.473 17.0964L81.9107 16.8104C81.788 16.7491 81.8392 16.5653 81.9721 16.5653H82.8411H90.4784H95.4677C95.6109 16.5653 95.7438 16.6572 95.8051 16.79L98.4123 23.2651C98.4736 23.4081 98.6065 23.5 98.7701 23.5H101.122C101.387 23.5 101.571 23.2242 101.469 22.9791L101.265 22.4787L98.4429 15.4827L98.3509 15.2478C98.3202 15.1661 98.3202 15.0639 98.3509 14.9822L98.8519 13.726V13.7158Z" fill="white"/>
<path d="M127.734 7.33365H128.992V8.97797H129.575V7.33365H130.832V6.76172H127.734V7.33365Z" fill="white"/>
<path d="M134.37 6.71094C134.145 6.71094 133.972 6.84371 133.859 7.01733L133.021 8.44717L132.182 7.01733C132.07 6.8335 131.896 6.71094 131.661 6.71094C131.344 6.71094 131.078 6.97648 131.078 7.29309V8.97826H131.661V7.29309L132.52 8.74335C132.622 8.91698 132.806 9.02932 133.021 9.02932C133.235 9.02932 133.419 8.91698 133.522 8.74335L134.37 7.29309V8.97826H134.943V7.29309C134.943 6.97648 134.677 6.71094 134.36 6.71094H134.37Z" fill="white"/>
</g>
<defs>
<clipPath id="clip0_139_2297">
<rect width="135" height="23" fill="white" transform="translate(0 0.5)"/>
</clipPath>
</defs>
</svg>
