<svg width="300" height="52" viewBox="0 0 300 52" fill="none" xmlns="http://www.w3.org/2000/svg">
<path d="M54.7389 13.7624H49.8184C49.3875 13.7624 49.0247 14.1246 49.0247 14.5546V21.0284V50.1603C49.0247 50.613 49.3875 50.9525 49.841 50.9525H49.8637H54.7389H54.7616C55.2151 50.9525 55.5779 50.5904 55.5779 50.1603V21.0284V14.5546C55.5779 14.1246 55.2151 13.7624 54.7842 13.7624H54.7389Z" fill="white" style="fill:white;fill-opacity:1;"/>
<path d="M169.907 13.7624H164.986C164.555 13.7624 164.193 14.1246 164.193 14.5546V21.0284V50.1603C164.193 50.613 164.555 50.9525 165.009 50.9525H165.032H169.907H169.929C170.383 50.9525 170.746 50.5904 170.746 50.1603V21.0284V14.5546C170.746 14.1246 170.383 13.7624 169.952 13.7624H169.907Z" fill="white" style="fill:white;fill-opacity:1;"/>
<path d="M5.46563 6.47376H46.2585C46.5986 6.47376 46.8934 6.27004 47.0068 5.97577L48.9568 1.10914C49.1609 0.588523 48.7754 0 48.2085 0H11.0437C4.98945 0 0.0689087 4.88927 0.0689087 10.9103V14.5546V43.7997V50.1603C0.0689087 50.613 0.431713 50.9525 0.862544 50.9525H5.76041C6.21391 50.9525 6.57672 50.5904 6.57672 50.1603H6.59939V44.4561C6.59939 44.0034 6.69009 43.5734 6.84882 43.1659L14.309 24.8085C14.4677 24.4011 14.309 23.9484 13.9008 23.7446L8.16399 20.802C7.89188 20.6662 8.00526 20.2361 8.30004 20.2361H40.703C41.0432 20.2361 41.3379 20.0324 41.474 19.7155L43.4014 14.8942C43.6281 14.3509 43.22 13.7624 42.6304 13.7624H7.77851C7.21163 13.7624 6.80347 13.1739 7.03022 12.6532L8.34539 9.46164C8.52679 9.03157 8.34539 8.53359 7.91456 8.32987L5.32958 7.01701C5.05747 6.8812 5.17085 6.47376 5.46563 6.47376Z" fill="white" style="fill:white;fill-opacity:1;"/>
<path d="M158.592 13.7624H127.005H123.354C122.901 13.7624 122.561 13.4002 122.561 12.9928V12.3363H122.538V0.792243C122.538 0.362168 122.175 0 121.744 0H116.846C116.416 0 116.053 0.362168 116.053 0.792243V12.3363V12.9475V23.7673V24.6953V26.4156V27.5474V38.0729V40.1101C116.053 46.1312 120.951 51.0204 127.028 51.0204H144.329C144.669 51.0204 144.987 50.8167 145.123 50.4998L147.05 45.7237C147.277 45.1805 146.869 44.5693 146.256 44.5693H123.377C122.969 44.5693 122.583 44.2524 122.583 43.845L130.316 24.8764C130.474 24.469 130.316 24.0163 129.907 23.8125L124.171 20.8699C123.899 20.7341 124.012 20.304 124.307 20.304H156.71C157.05 20.304 157.367 20.1003 157.481 19.7834L159.408 14.9621C159.635 14.4188 159.227 13.8303 158.637 13.8303L158.592 13.7624Z" fill="white" style="fill:white;fill-opacity:1;"/>
<path d="M104.466 14.9621C102.969 14.2151 101.291 13.785 99.4999 13.785H61.9269C61.4961 13.785 61.1333 14.1472 61.1333 14.5773V16.1165V23.7673V24.6953V26.4156V27.5248V38.0503V40.0875V43.845V50.2055C61.1333 50.6583 61.4961 50.9978 61.9269 50.9978H66.8248C67.2783 50.9978 67.6411 50.6356 67.6411 50.2055H67.6638V50.0697V44.5014C67.6638 44.0487 67.7545 43.6186 67.9132 43.2112L75.396 24.8538C75.5548 24.4463 75.396 23.9936 74.9879 23.7899L69.251 20.8473C68.9789 20.7115 69.0923 20.2814 69.3871 20.2814H101.79H103.173C103.627 20.2814 103.99 20.6436 103.99 21.0963V50.0924V50.2282C103.99 50.6809 104.352 51.0204 104.806 51.0204H109.681C110.135 51.0204 110.497 50.6583 110.497 50.2055V24.718C110.497 20.4625 108.048 16.7955 104.488 14.9847L104.466 14.9621Z" fill="white" style="fill:white;fill-opacity:1;"/>
<path d="M271.197 43.7092C271.197 44.1392 270.834 44.5014 270.404 44.5014H235.688C235.28 44.5014 234.939 44.1845 234.894 43.7771L242.626 24.8085C242.785 24.4011 242.626 23.9257 242.218 23.7446L236.481 20.8247C236.232 20.6888 236.323 20.2814 236.595 20.2588H270.404C270.834 20.2588 271.197 20.6209 271.197 21.051V43.7092ZM266.73 13.785H239.157C233.171 13.8756 228.364 18.7196 228.364 24.6953V40.0875C228.364 46.1085 233.261 50.9978 239.338 50.9978H266.912C272.898 50.9073 277.705 46.0633 277.705 40.0875V24.6953C277.705 18.6743 272.807 13.785 266.73 13.785Z" fill="white" style="fill:white;fill-opacity:1;"/>
<path d="M219.361 29.2903L224.713 16.0259L225.166 14.9168C225.393 14.3735 224.985 13.7624 224.395 13.7624H219.18C218.84 13.7624 218.522 13.9661 218.386 14.283L212.627 28.566C212.514 28.8603 212.219 29.064 211.879 29.064H200.79H183.625C183.285 29.064 183.013 28.8603 182.877 28.566C182.832 28.4755 182.809 28.3623 182.809 28.2717V27.6832V19.6929V0.792243C182.809 0.362168 182.446 0 182.015 0H177.095C176.664 0 176.301 0.362168 176.301 0.792243V16.1391V19.6929V27.6832V28.2944V39.1142V40.0422V41.7625V42.8943V50.1829C176.301 50.6356 176.664 50.9752 177.117 50.9752H177.14H182.015H182.038C182.469 50.9752 182.809 50.6356 182.832 50.2282C182.832 50.2056 182.832 50.1829 182.832 50.1829V43.7997C182.854 43.4375 184.804 38.5935 184.804 38.5935C184.986 38.1635 184.804 37.6655 184.373 37.4618L183.036 36.7827L181.789 36.1489C181.516 36.0131 181.63 35.6057 181.925 35.6057H183.852H200.79H211.856C212.173 35.6057 212.468 35.8094 212.604 36.1036L218.386 50.4545C218.522 50.7714 218.817 50.9752 219.18 50.9752H224.395C224.985 50.9752 225.393 50.364 225.166 49.8208L224.713 48.7116L218.454 33.2063L218.25 32.6857C218.182 32.5046 218.182 32.2782 218.25 32.0971L219.361 29.313V29.2903Z" fill="white" style="fill:white;fill-opacity:1;"/>
<path d="M283.419 15.1432H286.208V18.7875H287.501V15.1432H290.29V13.8756H283.419V15.1432Z" fill="white" style="fill:white;fill-opacity:1;"/>
<path d="M298.135 13.7624C297.637 13.7624 297.251 14.0567 297.002 14.4415L295.142 17.6104L293.283 14.4415C293.034 14.034 292.648 13.7624 292.127 13.7624C291.424 13.7624 290.834 14.3509 290.834 15.0526V18.7875H292.127V15.0526L294.031 18.2669C294.258 18.6517 294.666 18.9007 295.142 18.9007C295.619 18.9007 296.027 18.6517 296.253 18.2669L298.135 15.0526V18.7875H299.405V15.0526C299.405 14.3509 298.816 13.7624 298.113 13.7624H298.135Z" fill="white" style="fill:white;fill-opacity:1;"/>
</svg>
