<svg width="135" height="130" viewBox="0 0 135 130" fill="none" xmlns="http://www.w3.org/2000/svg">
<path d="M52.1626 7.9763C59.7528 -2.40448 75.2472 -2.40449 82.8374 7.97628L93.9589 23.1866C96.304 26.3939 99.5955 28.7853 103.37 30.0244L121.273 35.9014C133.491 39.9122 138.279 54.6483 130.752 65.0749L119.723 80.3523C117.397 83.5737 116.14 87.443 116.128 91.4161L116.071 110.259C116.032 123.118 103.497 132.226 91.2545 128.289L73.3166 122.52C69.5342 121.304 65.4658 121.304 61.6834 122.52L43.7455 128.289C31.5032 132.226 18.968 123.118 18.929 110.259L18.872 91.4161C18.8599 87.443 17.6027 83.5737 15.2771 80.3523L4.24795 65.0749C-3.27925 54.6483 1.50878 39.9122 13.727 35.9014L31.6296 30.0244C35.4045 28.7853 38.696 26.3939 41.0411 23.1866L52.1626 7.9763Z" fill="white"/>
</svg>
