<svg xmlns="http://www.w3.org/2000/svg" viewBox="0 0 42 42" fill="none">
<circle cx="21" cy="21" r="20" stroke="#0472B6" stroke-width="2"/>
<path fill-rule="evenodd" clip-rule="evenodd" d="M20.8313 11.0184C25.2935 11.0378 27.432 12.3816 27.9275 12.8317C29.5738 14.2412 30.4125 17.6141 29.7992 22.5555C29.265 26.8706 26.3703 27.5455 25.3247 27.7893C25.2087 27.8163 25.1154 27.838 25.0507 27.8589C24.7757 27.9487 22.2189 28.5833 19.0052 28.3734C19.0052 28.3734 16.6101 31.2629 15.862 32.0142C15.7452 32.1306 15.6079 32.1781 15.5163 32.1558C15.3889 32.1243 15.3535 31.9718 15.3535 31.7488C15.3556 31.4299 15.374 27.8022 15.374 27.8022C10.8507 26.5456 10.9557 21.9367 11.0154 19.3205C11.0174 19.2306 11.0194 19.143 11.0212 19.058C11.0739 16.5001 11.5548 14.404 12.9824 12.9945C15.5474 10.6712 20.8313 11.0184 20.8313 11.0184ZM20.3407 13.5575C20.176 13.5564 20.0415 13.689 20.0404 13.8538C20.0392 14.0185 20.1718 14.153 20.3366 14.1542C21.9248 14.1652 23.237 14.6883 24.2939 15.7186C25.341 16.7393 25.8854 18.1462 25.8993 19.9761C25.9006 20.1409 26.0352 20.2734 26.1999 20.2722C26.3647 20.2709 26.4972 20.1364 26.496 19.9716C26.4811 18.0187 25.8952 16.4463 24.7104 15.2914C23.5355 14.146 22.072 13.5696 20.3407 13.5575ZM20.567 15.3816C20.5791 15.2173 20.722 15.0938 20.8863 15.1059C22.1391 15.1976 23.1475 15.6256 23.882 16.4274C24.6086 17.2213 24.954 18.209 24.9289 19.3674C24.9253 19.5321 24.7889 19.6628 24.6242 19.6592C24.4595 19.6556 24.3288 19.5192 24.3324 19.3545C24.3545 18.3329 24.0541 17.4992 23.442 16.8303C22.8317 16.1642 21.9787 15.7841 20.8428 15.7009C20.6785 15.6889 20.555 15.5459 20.567 15.3816ZM21.0193 16.9888C21.0279 16.8243 21.1682 16.6979 21.3327 16.7065C21.9483 16.7386 22.4605 16.9249 22.8253 17.3021C23.1886 17.6778 23.3668 18.2027 23.398 18.833C23.4062 18.9976 23.2794 19.1376 23.1149 19.1458C22.9503 19.1539 22.8103 19.0271 22.8021 18.8626C22.7754 18.323 22.6273 17.9556 22.3964 17.7169C22.1669 17.4796 21.8166 17.3292 21.3017 17.3023C21.1371 17.2937 21.0107 17.1534 21.0193 16.9888ZM21.3763 22.8436C21.3763 22.8436 21.7957 22.8789 22.0214 22.6008L22.4617 22.047C22.674 21.7723 23.1864 21.5972 23.6883 21.8767C24.0643 22.0912 24.4294 22.3243 24.7821 22.5753C25.0499 22.7722 25.5433 23.1787 25.7274 23.3304C25.7723 23.3674 25.7988 23.3892 25.7992 23.3892C26.1241 23.6635 26.1991 24.0662 25.9779 24.4909C25.9779 24.4922 25.9774 24.494 25.977 24.4956C25.9765 24.4972 25.9761 24.4987 25.9761 24.4998C25.7325 24.9221 25.4233 25.3029 25.0599 25.6279C25.0581 25.6288 25.0571 25.6297 25.0562 25.6306C25.055 25.6319 25.054 25.6331 25.0518 25.6343C24.7361 25.8981 24.426 26.048 24.1214 26.0841C24.0766 26.092 24.031 26.0948 23.9855 26.0926C23.8512 26.0939 23.7176 26.0733 23.5899 26.0317L23.58 26.0172C23.1107 25.8849 22.3272 25.5536 21.0224 24.8338C20.2674 24.4222 19.5485 23.9473 18.8736 23.4144C18.5353 23.1474 18.2126 22.8612 17.9071 22.5573L17.8095 22.4596C17.8022 22.4525 17.795 22.4453 17.7878 22.438L17.7769 22.427C17.4729 22.1215 17.1868 21.7988 16.9198 21.4606C16.3869 20.7857 15.9121 20.067 15.5003 19.3121C14.7805 18.007 14.4493 17.2242 14.3169 16.7542L14.3024 16.7443C14.2609 16.6166 14.2405 16.4829 14.2419 16.3486C14.2394 16.3032 14.2422 16.2576 14.2501 16.2127C14.288 15.9086 14.4382 15.5983 14.7006 15.2817C14.7016 15.2798 14.7026 15.2788 14.7036 15.2779C14.7047 15.2768 14.7058 15.2757 14.7069 15.2735C15.0319 14.9102 15.4127 14.601 15.8351 14.3577C15.8361 14.3577 15.8376 14.3572 15.8392 14.3567C15.8409 14.3561 15.8427 14.3555 15.844 14.3555C16.2686 14.1344 16.6714 14.2094 16.9453 14.5325C16.9474 14.5346 17.5154 15.2166 17.7592 15.5496C18.0102 15.9026 18.2433 16.2681 18.4578 16.6445C18.7374 17.146 18.5622 17.6594 18.2876 17.8711L17.7337 18.3113C17.4542 18.5371 17.491 18.9564 17.491 18.9564C17.491 18.9564 18.3113 22.0611 21.3763 22.8436Z" fill="#0472B6"/>
</svg>