<svg xmlns="http://www.w3.org/2000/svg" viewBox="0 0 42 42" fill="none">
  <circle cx="21" cy="21" r="20" stroke="#0472B6" stroke-width="2"/>
  <path fill-rule="evenodd" clip-rule="evenodd" d="M16.2728 28.2892C17.8267 29.3089 19.6343 29.8478 21.5006 29.8478C26.7387 29.8478 31.0001 25.6205 31 20.4245C31 15.2279 26.7385 11 21.5006 11C16.262 11 12 15.2279 12 20.4245C12 22.4219 12.6255 24.3321 13.8088 25.9489C13.8698 26.0324 13.8864 26.1403 13.8532 26.2381L12.8285 29.2612L16.0028 28.2522C16.0342 28.2422 16.0666 28.2373 16.0989 28.2373C16.1599 28.2373 16.2206 28.2549 16.2728 28.2892ZM26.9266 22.4937C26.9608 22.5105 26.9817 22.5207 26.9863 22.5229L26.9864 22.523C27.2195 22.6349 27.4037 22.7233 27.5105 22.899C27.6666 23.1574 27.6047 23.8693 27.3702 24.521C27.0725 25.3484 25.7636 26.0266 25.168 26.0794L25.0806 26.0877C24.9429 26.1013 24.7868 26.1166 24.5918 26.1166H24.5917C24.1275 26.1166 23.3111 26.037 21.5871 25.3483C19.7962 24.6329 18.0296 23.0992 16.6126 21.0296C16.6084 21.0236 16.6045 21.0179 16.6009 21.0125C16.5826 20.9858 16.5696 20.9668 16.562 20.9565C16.1919 20.4688 15.3301 19.1865 15.3301 17.8284C15.3301 16.3195 16.0524 15.4614 16.4794 15.1923C16.882 14.9385 17.7926 14.8186 17.9598 14.8115C18.059 14.8073 18.0694 14.8062 18.0799 14.8059C18.084 14.8057 18.088 14.8057 18.0971 14.8057C18.45 14.8057 18.704 15.0199 18.8962 15.4798C18.9153 15.5256 18.9732 15.6649 19.0508 15.8514C19.2961 16.4418 19.7379 17.5049 19.7699 17.5689C19.8212 17.6695 19.9799 17.9811 19.7941 18.3503L19.7542 18.4305L19.754 18.4309C19.678 18.585 19.6123 18.7181 19.465 18.8895C19.4176 18.9442 19.3694 19.0023 19.3213 19.0602L19.321 19.0606C19.2194 19.1828 19.1145 19.3091 19.0176 19.405C18.9845 19.4382 18.9203 19.5026 18.9133 19.5282C18.9133 19.5282 18.9133 19.5284 18.9134 19.5288C18.914 19.5327 18.9174 19.5548 18.9431 19.5985C19.1419 19.9349 20.5915 21.9298 22.5012 22.7594C22.5846 22.7957 22.8602 22.9091 22.8761 22.9091C22.8939 22.9091 22.9235 22.8795 22.9452 22.8546C23.1116 22.6667 23.6499 22.0374 23.8278 21.773C23.9851 21.5377 24.187 21.4179 24.4274 21.4179C24.5746 21.4179 24.7129 21.4632 24.8421 21.5096C25.1278 21.6124 26.6077 22.3375 26.9266 22.4937Z" fill="#0472B6"/>
</svg>