<svg width="53" height="52" viewBox="0 0 53 52" fill="none" xmlns="http://www.w3.org/2000/svg">
<g filter="url(#filter0)">
<path d="M48.5 22C48.5 10.1519 38.645 0.5 26.5 0.5C14.355 0.5 4.5 10.1519 4.5 22C4.5 33.8481 14.355 43.5 26.5 43.5C38.645 43.5 48.5 33.8481 48.5 22Z" stroke="#F5FBFF" shape-rendering="crispEdges"/>
</g>
<g filter="url(#filter1)">
<path d="M29.5555 14.3334C29.801 14.0879 29.801 13.6899 29.5555 13.4445V13.4445C29.3101 13.199 28.9121 13.199 28.6666 13.4445L20.6663 21.4448C20.4208 21.6903 20.4208 22.0883 20.6663 22.3337V22.3337C20.9117 22.5792 21.3097 22.5792 21.5552 22.3337L29.5555 14.3334Z" fill="white"/>
<path d="M29.5555 29.4768C29.801 29.7222 29.801 30.1202 29.5555 30.3657V30.3657C29.3101 30.6111 28.9121 30.6111 28.6666 30.3657L20.6663 22.3653C20.4208 22.1199 20.4208 21.7219 20.6663 21.4764V21.4764C20.9117 21.2309 21.3097 21.2309 21.5552 21.4764L29.5555 29.4768Z" fill="white"/>
</g>
<defs>
<filter id="filter0" x="0" y="0" width="53" height="52" filterUnits="userSpaceOnUse" color-interpolation-filters="sRGB">
<feFlood flood-opacity="0" result="BackgroundImageFix"/>
<feColorMatrix in="SourceAlpha" type="matrix" values="0 0 0 0 0 0 0 0 0 0 0 0 0 0 0 0 0 0 127 0" result="hardAlpha"/>
<feOffset dy="4"/>
<feGaussianBlur stdDeviation="2"/>
<feComposite in2="hardAlpha" operator="out"/>
<feColorMatrix type="matrix" values="0 0 0 0 0 0 0 0 0 0 0 0 0 0 0 0 0 0 0.25 0"/>
<feBlend mode="normal" in2="BackgroundImageFix" result="effect1_dropShadow_355:134"/>
<feBlend mode="normal" in="SourceGraphic" in2="effect1_dropShadow_355:134" result="shape"/>
</filter>
<filter id="filter1" x="16.4822" y="13.2604" width="17.2574" height="25.2894" filterUnits="userSpaceOnUse" color-interpolation-filters="sRGB">
<feFlood flood-opacity="0" result="BackgroundImageFix"/>
<feColorMatrix in="SourceAlpha" type="matrix" values="0 0 0 0 0 0 0 0 0 0 0 0 0 0 0 0 0 0 127 0" result="hardAlpha"/>
<feOffset dy="4"/>
<feGaussianBlur stdDeviation="2"/>
<feComposite in2="hardAlpha" operator="out"/>
<feColorMatrix type="matrix" values="0 0 0 0 0 0 0 0 0 0 0 0 0 0 0 0 0 0 0.25 0"/>
<feBlend mode="normal" in2="BackgroundImageFix" result="effect1_dropShadow_355:134"/>
<feBlend mode="normal" in="SourceGraphic" in2="effect1_dropShadow_355:134" result="shape"/>
</filter>
</defs>
</svg>
