<svg width="14" height="14" viewBox="0 0 14 14" fill="none" xmlns="http://www.w3.org/2000/svg">
<path d="M7.16145 0C7.27352 0 7.38559 0.0046804 7.49843 0.00702061C7.61127 0.00936081 7.72257 0.022622 7.83541 0.0304226C8.28713 0.0729556 8.73412 0.156501 9.17097 0.280044C10.0636 0.528425 10.8964 0.95877 11.6179 1.54453C12.3507 2.14121 12.9441 2.89362 13.3558 3.74819C13.7675 4.60275 13.9875 5.53844 14 6.4886C14 6.62043 14 6.75226 13.9938 6.88332C8.08428 6.739 7.09112 5.82242 6.92495 0H7.16145ZM0.429561 4.64686C0.738266 3.79866 1.20676 3.01881 1.80917 2.35034C3.02448 1.00695 4.69817 0.177106 6.49445 0.0273024C6.60188 0.0179416 6.71395 0.0132611 6.82524 0.00624054H6.8577C6.69308 5.75066 5.72155 6.7156 0.00678878 6.87785C0.0299722 6.11631 0.172668 5.36329 0.429561 4.64686ZM4.56608 13.6738C3.68423 13.377 2.87436 12.8956 2.1894 12.2613C1.50444 11.627 0.959811 10.8539 0.591095 9.99266C0.177653 9.03121 -0.0233206 7.99039 0.00215143 6.9426C5.78029 7.10563 6.71086 8.08774 6.86002 13.9944C6.08253 14.0268 5.30559 13.9182 4.56608 13.6738ZM13.4713 9.21494C12.7756 10.9141 11.5096 12.312 9.89517 13.1636C9.08819 13.592 8.20852 13.8633 7.30212 13.9632C7.17536 13.9765 7.04784 13.9858 6.92031 13.9921C7.07489 8.01675 8.02477 7.08223 13.9907 6.93714C13.9448 7.72035 13.7693 8.49027 13.4713 9.21494Z" fill="#25C16C"/>
</svg>
