<svg width="12" height="12" viewBox="0 0 12 12" fill="none" xmlns="http://www.w3.org/2000/svg">
<path d="M6 12C9.31372 12 12 9.31371 12 6C12 2.68629 9.31372 0 6 0C2.94098 0 0.416626 2.28923 0.0466614 5.24799H5.51031L3.6142 3.21758C3.52148 3.1186 3.4704 2.98194 3.4704 2.84106C3.4704 2.7001 3.52148 2.5679 3.6142 2.46892L3.90927 2.15355C4.00204 2.05449 4.12564 2 4.25763 2C4.3895 2 4.51315 2.05441 4.60593 2.15355L7.85614 5.62638C7.94922 5.72567 8.00031 5.85849 8 6.00008C8.00037 6.14119 7.94922 6.27394 7.85623 6.37339L4.60599 9.84614C4.51321 9.94527 4.38956 10 4.25772 10C4.1257 10 4.00214 9.94598 3.90936 9.84685L3.61426 9.53248C3.52155 9.43343 3.47049 9.30295 3.47049 9.16215C3.47049 9.02119 3.52155 8.89258 3.61426 8.79345L5.53183 6.7517H0.0466309C0.416443 9.71061 2.94086 12 6 12Z" fill="#FAC600"/>
</svg>
