<svg width="126" height="149" viewBox="0 0 126 149" fill="none" xmlns="http://www.w3.org/2000/svg">
<path d="M62.4723 47.5257C62.4723 60.6428 59.4237 70.0292 54.4942 76.1396C49.5647 82.2501 42.7545 85.0813 35.2313 85.0813C27.7081 85.0813 20.8978 82.2501 15.9684 76.1396C11.0389 70.0292 7.99023 60.6428 7.99023 47.5257C7.99023 34.4086 11.0389 25.0223 15.9684 18.9118C20.8978 12.8014 27.7081 9.97021 35.2313 9.97021C42.7545 9.97021 49.5647 12.8014 54.4942 18.9118C59.4237 25.0223 62.4723 34.4086 62.4723 47.5257Z" fill="#A187BB"/>
<path d="M35.2311 86.5342C26.2447 86.5342 19.0712 82.8883 14.1417 76.1906C9.21228 69.4929 6.53027 59.7399 6.53027 47.5258C6.53027 35.3117 9.21228 25.5587 14.1417 18.861C19.0712 12.1632 26.2447 8.51733 35.2311 8.51733C44.2176 8.51733 51.3911 12.1632 56.3205 18.861C61.25 25.5587 63.932 35.3117 63.932 47.5258C63.932 59.7399 61.25 69.4929 56.3205 76.1906C51.3911 82.8883 44.2176 86.5342 35.2311 86.5342ZM35.2311 11.4266C27.158 11.4266 20.711 14.8009 16.284 20.9996C11.8569 27.1983 9.44653 36.2214 9.44653 47.5258C9.44653 58.8301 11.8569 67.8532 16.284 74.0519C20.711 80.2507 27.158 83.625 35.2311 83.625C43.3043 83.625 49.7513 80.2507 54.1783 74.0519C58.6053 67.8532 61.0157 58.8301 61.0157 47.5258C61.0157 36.2214 58.6053 27.1983 54.1783 20.9996C49.7513 14.8009 43.3043 11.4266 35.2311 11.4266Z" fill="#593E7C"/>
<path d="M55.3966 21.3865C55.1997 21.356 54.9994 21.3322 54.8025 21.3118C54.6056 21.2915 54.4019 21.2847 54.2016 21.2847C50.9255 21.2847 47.9346 22.8089 45.6328 26.207C43.3344 29.6085 41.7286 34.8838 41.2363 42.3929L45.7143 44.9593L50.1922 47.5257L45.7143 50.0921L41.2363 52.6584C41.732 60.1675 43.3344 65.4463 45.6328 68.8444C47.9312 72.2458 50.9255 73.7667 54.2016 73.7667C54.4053 73.7667 54.6056 73.7565 54.8025 73.7395C54.9994 73.7225 55.1997 73.6954 55.3966 73.6648C57.5898 70.3448 59.3585 66.8822 60.5807 62.7101C61.8029 58.5381 62.4751 53.6633 62.4751 47.5257C62.4751 41.3881 61.8029 36.5099 60.5807 32.3412C59.3585 28.1725 57.5898 24.7065 55.3966 21.3865Z" fill="#593E7C"/>
<path d="M54.1984 75.2197C52.2531 75.2197 48.9838 74.6731 46.0302 71.5908C43.08 68.5084 40.4455 62.8902 39.7801 52.7502C39.7631 52.4718 39.8242 52.2003 39.9498 51.966C40.0754 51.7284 40.2689 51.5281 40.51 51.3923L43.8846 49.4607L47.2591 47.5292L43.8846 45.5976L40.51 43.666C40.2689 43.5268 40.0788 43.3265 39.9498 43.0923C39.8242 42.8581 39.7597 42.5865 39.7801 42.3081C40.4489 32.1682 43.08 26.5499 46.0302 23.4676C48.9804 20.3852 52.2531 19.8386 54.1984 19.8386C54.4191 19.8386 54.6398 19.8488 54.874 19.8692C55.1083 19.8895 55.3527 19.9167 55.6175 19.9574C55.8212 19.988 56.0113 20.0627 56.1811 20.1713C56.3508 20.2799 56.4968 20.4225 56.6088 20.5956C59.206 24.5267 61.0358 28.4442 62.2173 32.786C63.3953 37.1312 63.9249 41.9008 63.9249 47.5359C63.9249 53.1711 63.3953 57.9441 62.2173 62.2859C61.0392 66.6277 59.2093 70.5452 56.6088 74.4763C56.4968 74.6494 56.3474 74.792 56.1811 74.9006C56.0147 75.0092 55.8212 75.0839 55.6175 75.1145C55.3595 75.1552 55.1116 75.1823 54.8774 75.2027C54.6431 75.2231 54.4191 75.2333 54.1984 75.2333V75.2197ZM42.754 53.4597C43.2361 59.4547 44.516 64.1666 46.4647 67.3813C48.4134 70.5961 51.0343 72.307 54.2018 72.307C54.2595 72.307 54.3206 72.307 54.3783 72.307C54.4361 72.307 54.4938 72.3003 54.5549 72.2969C56.2591 69.6558 57.8751 66.6413 59.0634 62.7001C60.2516 58.7588 61.0189 53.8874 61.0189 47.5258C61.0189 41.1641 60.255 36.2927 59.0634 32.3515C57.8717 28.4102 56.2557 25.3957 54.5549 22.7547C54.4972 22.7513 54.4394 22.7479 54.3783 22.7445C54.3172 22.7411 54.2595 22.7445 54.2018 22.7445C51.0343 22.7445 48.4168 24.4588 46.4647 27.6702C44.5126 30.8816 43.2361 35.5934 42.754 41.5918L46.8348 43.9274L50.9155 46.2629C51.143 46.3919 51.3263 46.5786 51.4519 46.7959C51.5775 47.0132 51.6488 47.2644 51.6488 47.5258C51.6488 47.7872 51.5775 48.0384 51.4519 48.2556C51.3263 48.4729 51.143 48.6596 50.9155 48.7886L46.8348 51.1241L42.754 53.4597Z" fill="#593E7C"/>
<path d="M118.006 47.5257C118.006 60.6428 114.958 70.0292 110.028 76.1396C105.099 82.2501 98.2886 85.0813 90.7654 85.0813C83.2423 85.0813 76.432 82.2501 71.5025 76.1396C66.5731 70.0292 63.5244 60.6428 63.5244 47.5257C63.5244 34.4086 66.5731 25.0223 71.5025 18.9118C76.432 12.8014 83.2423 9.97021 90.7654 9.97021C98.2886 9.97021 105.099 12.8014 110.028 18.9118C114.958 25.0223 118.006 34.4086 118.006 47.5257Z" fill="#A187BB"/>
<path d="M90.7653 86.5342C81.7789 86.5342 74.6054 82.8883 69.6759 76.1906C64.7465 69.4929 62.0645 59.7399 62.0645 47.5258C62.0645 35.3117 64.7465 25.5587 69.6759 18.861C74.6054 12.1632 81.7789 8.51733 90.7653 8.51733C99.7517 8.51733 106.925 12.1632 111.855 18.861C116.784 25.5587 119.466 35.3117 119.466 47.5258C119.466 59.7399 116.784 69.4929 111.855 76.1906C106.925 82.8883 99.7517 86.5342 90.7653 86.5342ZM90.7653 11.4266C82.6921 11.4266 76.2451 14.8009 71.8181 20.9996C67.3911 27.1983 64.9807 36.2214 64.9807 47.5258C64.9807 58.8301 67.3911 67.8532 71.8181 74.0519C76.2451 80.2507 82.6921 83.625 90.7653 83.625C98.8385 83.625 105.286 80.2507 109.713 74.0519C114.14 67.8532 116.55 58.8301 116.55 47.5258C116.55 36.2214 114.14 27.1983 109.713 20.9996C105.286 14.8009 98.8385 11.4266 90.7653 11.4266Z" fill="#593E7C"/>
<path d="M110.931 21.3865C110.734 21.356 110.534 21.3322 110.337 21.3118C110.14 21.2915 109.936 21.2847 109.736 21.2847C106.46 21.2847 103.469 22.8089 101.167 26.207C98.8686 29.6085 97.2628 34.8838 96.7705 42.3929L101.248 44.9593L105.726 47.5257L101.248 50.0921L96.7705 52.6584C97.2662 60.1675 98.8686 65.4463 101.167 68.8444C103.465 72.2458 106.46 73.7667 109.736 73.7667C109.939 73.7667 110.14 73.7565 110.337 73.7395C110.534 73.7225 110.734 73.6954 110.931 73.6648C113.124 70.3448 114.893 66.8822 116.115 62.7101C117.337 58.5381 118.009 53.6633 118.009 47.5257C118.009 41.3881 117.337 36.5099 116.115 32.3412C114.893 28.1725 113.124 24.7065 110.931 21.3865Z" fill="#593E7C"/>
<path d="M109.733 75.2197C107.787 75.2197 104.518 74.6732 101.564 71.5908C98.6141 68.5084 95.9797 62.8902 95.3143 52.7502C95.2973 52.4718 95.3584 52.2003 95.484 51.966C95.6096 51.7284 95.8031 51.5281 96.0442 51.3923L99.4187 49.4607L102.793 47.5292L99.4187 45.5976L96.0442 43.666C95.8031 43.5268 95.613 43.3265 95.484 43.0923C95.3584 42.8581 95.2939 42.5865 95.3143 42.3081C95.9831 32.1682 98.6141 26.5499 101.568 23.4676C104.518 20.3852 107.791 19.8386 109.736 19.8386C109.957 19.8386 110.177 19.8488 110.412 19.8692C110.646 19.8895 110.89 19.9167 111.155 19.9574C111.359 19.988 111.549 20.0627 111.719 20.1713C111.888 20.2799 112.034 20.4225 112.146 20.5956C114.744 24.5267 116.573 28.4476 117.755 32.7894C118.933 37.1312 119.463 41.9008 119.463 47.5393C119.463 53.1779 118.933 57.9441 117.755 62.2859C116.577 66.6277 114.747 70.5486 112.146 74.4796C112.034 74.6528 111.885 74.7954 111.719 74.904C111.552 75.0126 111.359 75.0873 111.155 75.1179C110.897 75.1586 110.649 75.1857 110.415 75.2061C110.181 75.2265 109.953 75.2367 109.736 75.2367L109.733 75.2197ZM98.2882 53.4597C98.7703 59.4547 100.05 64.1666 101.999 67.3813C103.948 70.5927 106.568 72.307 109.736 72.307C109.794 72.307 109.855 72.307 109.913 72.307C109.97 72.307 110.031 72.3003 110.089 72.2969C111.793 69.6524 113.409 66.6413 114.598 62.6967C115.789 58.7554 116.553 53.884 116.553 47.5224C116.553 41.1607 115.789 36.2927 114.598 32.3481C113.406 28.4068 111.79 25.3923 110.089 22.7513C110.031 22.7479 109.974 22.7445 109.913 22.7411C109.855 22.7411 109.794 22.7411 109.736 22.7411C106.572 22.7411 103.951 24.4554 102.002 27.6668C100.054 30.8782 98.7737 35.59 98.2916 41.5884L102.372 43.924L106.453 46.2595C106.681 46.3885 106.864 46.5753 106.989 46.7925C107.115 47.0098 107.186 47.261 107.186 47.5224C107.186 47.7838 107.115 48.035 106.989 48.2522C106.864 48.4695 106.681 48.6562 106.453 48.7852L102.372 51.1207L98.2916 53.4563L98.2882 53.4597Z" fill="#593E7C"/>
<path d="M63.0219 115.284C55.9774 115.284 49.3742 114.459 43.2565 112.816C37.1388 111.176 31.5032 108.719 26.3938 105.46C23.5488 103.644 20.8668 101.573 18.3614 99.2577C15.8559 96.9425 13.527 94.3897 11.3983 91.6094C11.1539 91.2903 11.0622 90.9033 11.1098 90.5333C11.1573 90.1633 11.3474 89.8136 11.6665 89.5692C11.9857 89.3248 12.3761 89.2331 12.7461 89.2807C13.1162 89.3282 13.4659 89.5183 13.7103 89.8374C15.7371 92.4819 17.9506 94.9125 20.3304 97.1122C22.7103 99.312 25.2599 101.281 27.9623 103.002C32.9019 106.152 38.2388 108.495 44.0543 110.049C49.8699 111.604 56.1675 112.368 63.0253 112.368C63.4293 112.368 63.7925 112.531 64.0539 112.796C64.3187 113.061 64.4817 113.424 64.4817 113.824C64.4817 114.225 64.3187 114.592 64.0539 114.853C63.7891 115.118 63.4259 115.281 63.0253 115.281L63.0219 115.284Z" fill="#593E7C"/>
<path d="M62.974 115.284C62.57 115.284 62.2068 115.121 61.9453 114.856C61.6805 114.591 61.5176 114.228 61.5176 113.827C61.5176 113.427 61.6805 113.06 61.9453 112.799C62.2101 112.534 62.5734 112.371 62.974 112.371C69.8318 112.371 76.126 111.604 81.9416 110.053C87.7571 108.498 93.094 106.159 98.0336 103.005C100.733 101.284 103.282 99.3152 105.662 97.1154C108.042 94.9156 110.255 92.485 112.286 89.8406C112.53 89.5215 112.88 89.3314 113.25 89.2838C113.62 89.2363 114.007 89.328 114.326 89.5724C114.645 89.8168 114.835 90.1665 114.883 90.5365C114.93 90.9065 114.839 91.2935 114.594 91.6126C112.462 94.3928 110.133 96.9491 107.628 99.2642C105.122 101.579 102.44 103.65 99.5953 105.463C94.4859 108.722 88.8503 111.176 82.7326 112.819C76.6149 114.459 70.0117 115.287 62.9672 115.287L62.974 115.284Z" fill="#593E7C"/>
<path d="M63.0219 135.7C62.6179 135.7 62.2546 135.537 61.9932 135.272C61.7284 135.007 61.5654 134.644 61.5654 134.243V113.824C61.5654 113.424 61.7284 113.057 61.9932 112.796C62.258 112.531 62.6213 112.368 63.0219 112.368C63.4225 112.368 63.7891 112.531 64.0505 112.796C64.3153 113.06 64.4783 113.424 64.4783 113.824V134.243C64.4783 134.644 64.3153 135.011 64.0505 135.272C63.7857 135.537 63.4225 135.7 63.0219 135.7Z" fill="#593E7C"/>
<path d="M63.0217 149.003C63.0047 149.003 62.9878 149.003 62.9742 149.003C62.9606 149.003 62.947 149.003 62.93 149.003H62.8995C60.3193 148.99 58.0108 148.525 55.9942 147.618C53.9776 146.712 52.2461 145.357 50.8203 143.568C46.8176 138.548 45.9519 130.944 46.1115 124.49C46.271 118.037 47.4559 112.728 47.5543 112.297C47.6426 111.906 47.8836 111.587 48.1994 111.387C48.5151 111.19 48.9055 111.112 49.2993 111.2C49.6898 111.288 50.0089 111.529 50.2092 111.845C50.4061 112.161 50.4842 112.551 50.3959 112.945C50.3755 113.043 49.2688 118.01 49.0583 124.069C48.8478 130.129 49.537 137.282 53.1051 141.756C54.2661 143.209 55.6513 144.292 57.291 145.011C58.9274 145.731 60.8184 146.087 62.981 146.091C65.1435 146.087 67.0311 145.728 68.6709 145.011C70.3106 144.292 71.6958 143.212 72.8569 141.756C76.4249 137.285 77.1107 130.132 76.9036 124.069C76.6931 118.01 75.5898 113.043 75.566 112.945C75.4778 112.555 75.5558 112.161 75.7527 111.845C75.9497 111.529 76.2688 111.288 76.6626 111.2C77.053 111.108 77.4434 111.186 77.7592 111.383C78.0749 111.58 78.3159 111.899 78.4042 112.293C78.5027 112.724 79.6875 118.034 79.847 124.487C80.0066 130.944 79.1409 138.544 75.1383 143.565C73.7124 145.354 71.9844 146.705 69.9644 147.615C67.9478 148.521 65.6392 148.986 63.059 149H63.0285L63.0217 149.003Z" fill="#593E7C"/>
<path d="M63.9287 74.4185C65.4123 72.3104 67.2456 70.4569 69.3233 68.936C71.401 67.4152 73.7231 66.2271 76.1811 65.4497C77.1249 65.1509 78.0992 64.9133 79.0804 64.7979C80.0615 64.6825 81.0528 64.6893 82.0204 64.8862C82.9879 65.0797 83.9351 65.4904 84.7261 66.0845C85.5172 66.6786 86.152 67.4526 86.5017 68.3759C86.7869 69.1329 86.865 69.9409 86.7801 70.7454C86.6986 71.5466 86.4542 72.3443 86.0943 73.064C85.7344 73.7871 85.2727 74.4456 84.7465 75.0601C84.2203 75.6711 83.633 76.238 83.0253 76.7676C80.822 78.6924 78.3029 80.2472 75.6039 81.3742C72.9049 82.5012 70.0294 83.2005 67.1132 83.4144" fill="#A187BB"/>
<path d="M67.1091 84.8673C66.7322 84.8673 66.3826 84.7214 66.1212 84.4803C65.8597 84.2393 65.6866 83.8998 65.6594 83.5196C65.6289 83.1191 65.7647 82.7422 66.0091 82.4605C66.2536 82.1787 66.6032 81.9886 67.0038 81.9581C69.7707 81.7544 72.4901 81.0958 75.0431 80.0299C77.5961 78.964 79.9759 77.494 82.0638 75.6677C82.7326 75.0838 83.2826 74.5305 83.7307 73.9975C84.1789 73.4611 84.5252 72.9418 84.7866 72.4156C85.0887 71.8045 85.272 71.1799 85.3298 70.5757C85.3875 69.9748 85.323 69.3977 85.1329 68.8851C84.8986 68.2639 84.4505 67.7004 83.8563 67.2523C83.2622 66.8042 82.5289 66.4715 81.7277 66.3119C81.0182 66.1659 80.2441 66.1388 79.3954 66.2271C78.5467 66.3153 77.6232 66.519 76.6115 66.8381C74.2996 67.568 72.1234 68.6814 70.1747 70.1072C68.226 71.533 66.5082 73.271 65.1129 75.2535C64.882 75.5828 64.5391 75.7865 64.1725 75.851C63.8058 75.9155 63.4154 75.8408 63.0861 75.6066C62.7568 75.3758 62.5531 75.0329 62.4886 74.6663C62.4241 74.2996 62.5021 73.9093 62.733 73.58C64.3116 71.3361 66.2536 69.3705 68.4569 67.7581C70.6602 66.1456 73.1215 64.8861 75.739 64.0612C76.9884 63.6674 78.1528 63.4196 79.2426 63.3178C80.3324 63.2193 81.3475 63.2635 82.3049 63.457C83.6051 63.7184 84.79 64.2717 85.7507 65.0321C86.7115 65.7925 87.4516 66.7634 87.8624 67.8599C88.1951 68.7493 88.3207 69.7236 88.2392 70.7216C88.1578 71.7197 87.876 72.7381 87.3939 73.709C86.9356 74.6323 86.3381 75.4437 85.727 76.1396C85.1159 76.8355 84.4912 77.4126 83.9752 77.8607C81.6496 79.8941 78.9982 81.5303 76.1566 82.7151C73.3184 83.8998 70.2901 84.6365 67.2109 84.8605C67.194 84.8605 67.1736 84.8605 67.1566 84.8605C67.1396 84.8605 67.1193 84.8605 67.1023 84.8605L67.1091 84.8673Z" fill="#593E7C"/>
<path d="M24.6891 1.45972C21.8136 1.66 18.9788 2.37628 16.3375 3.53388C13.6963 4.69486 11.2519 6.30055 9.15384 8.28305C7.05576 10.2656 5.31415 12.6215 4.0071 15.198C2.69665 17.7746 1.82076 20.5719 1.4541 23.437" fill="#A187BB"/>
<path d="M1.45814 24.8967C1.42759 24.8967 1.39703 24.8967 1.36648 24.8967C1.33592 24.8967 1.30537 24.8933 1.27142 24.8865C0.870815 24.8356 0.531321 24.6285 0.30386 24.3331C0.0763982 24.0378 -0.0390299 23.6576 0.0118942 23.257C0.402313 20.2018 1.32234 17.2518 2.70409 14.5361C4.08243 11.8203 5.92249 9.34217 8.15637 7.22727C10.3902 5.11238 12.967 3.41503 15.7509 2.19294C18.5347 0.967455 21.5257 0.220622 24.5879 0.00336136C24.9919 -0.0237962 25.3653 0.115386 25.6471 0.35641C25.9289 0.600828 26.1156 0.950481 26.1428 1.35445C26.1699 1.75502 26.0341 2.13184 25.7897 2.4102C25.5453 2.69196 25.1922 2.87867 24.7916 2.90583C22.1028 3.09253 19.4242 3.77487 16.9289 4.87136C14.4336 5.96784 12.1183 7.48188 10.156 9.33877C8.19371 11.1957 6.55056 13.4226 5.3148 15.86C4.07564 18.2974 3.24388 20.9384 2.90099 23.6203C2.85346 23.9869 2.67353 24.306 2.41552 24.5334C2.1575 24.7609 1.8214 24.8933 1.45814 24.8933V24.8967Z" fill="#593E7C"/>
<path d="M101.307 1.45972C104.182 1.66 107.017 2.37628 109.658 3.53388C112.299 4.69486 114.744 6.30055 116.842 8.28305C118.94 10.2656 120.682 12.6215 121.989 15.198C123.299 17.7746 124.175 20.5719 124.542 23.437" fill="#A187BB"/>
<path d="M124.538 24.8967C124.178 24.8967 123.839 24.7643 123.581 24.5369C123.323 24.3095 123.143 23.9937 123.095 23.6237C122.752 20.9419 121.917 18.3008 120.682 15.8635C119.442 13.4261 117.803 11.1991 115.84 9.34224C113.878 7.48534 111.566 5.97131 109.071 4.87482C106.576 3.77833 103.897 3.09939 101.208 2.90929C100.808 2.88213 100.454 2.69203 100.21 2.41367C99.9656 2.13191 99.8298 1.75849 99.8569 1.35792C99.8841 0.957341 100.071 0.607687 100.353 0.363269C100.634 0.118851 101.008 -0.0169367 101.412 0.00682617C104.477 0.220692 107.468 0.967525 110.252 2.19301C113.036 3.4151 115.613 5.11584 117.847 7.22734C120.081 9.33885 121.921 11.8204 123.299 14.5361C124.677 17.2519 125.597 20.2019 125.991 23.2571C126.042 23.6543 125.927 24.0379 125.699 24.3332C125.472 24.6286 125.129 24.8356 124.732 24.8866C124.701 24.8899 124.671 24.8933 124.637 24.8967C124.606 24.8967 124.576 24.8967 124.545 24.8967H124.538Z" fill="#593E7C"/>
</svg>
