<svg width="277" height="189" viewBox="0 0 277 189" fill="none" xmlns="http://www.w3.org/2000/svg">
<g clip-path="url(#clip0_1050_14066)">
<path d="M141.875 173.019C142.953 175.519 143.927 177.826 144.945 180.113C145.684 181.778 146.397 183.463 147.268 185.059C148.05 186.496 149.236 187.564 150.885 187.979C152.39 188.359 153.586 187.944 154.462 186.679C155.397 185.33 155.884 183.804 155.845 182.169C155.795 180.118 155.638 178.068 155.51 176.022C155.436 174.896 155.323 173.775 155.249 172.851C155.948 171.902 156.809 171.986 157.552 171.823C158.31 171.655 159.102 171.645 159.874 171.571C161.734 174.708 163.481 177.771 165.351 180.756C166.188 182.099 167.167 183.384 168.259 184.52C168.938 185.232 169.907 185.726 170.833 186.121C172.171 186.694 173.637 185.928 174.065 184.505C174.262 183.858 174.346 183.162 174.366 182.485C174.479 178.937 174.361 175.41 173.313 171.976C173.091 171.255 173.022 170.479 172.86 169.595C174.577 169.17 176.157 169.032 177.726 168.928C179.68 168.794 181.53 168.266 183.341 167.594C184.91 167.006 185.279 165.662 184.28 164.318C183.257 162.935 182.056 161.744 180.472 160.969C178.735 160.124 177.062 159.146 175.325 158.296C172.451 156.888 169.858 155.05 167.241 153.227C163.85 150.87 161.547 147.688 159.776 144.062C159.077 142.634 158.511 141.132 157.97 139.63C155.648 133.193 153.374 126.745 151.057 120.308C148.951 114.458 145.925 109.068 142.037 104.276C137.314 98.4508 131.429 93.9302 124.56 90.9016C117.563 87.8137 110.231 85.714 102.673 84.5826C98.4068 83.9453 94.0816 83.6933 89.7564 84.3603C88.044 84.6221 86.4252 85.0866 84.949 85.9907C83.8763 86.6478 82.9217 87.3197 82.6757 88.7821C82.5379 89.6022 81.8589 90.3977 81.2635 91.0548C79.4232 93.0754 77.6075 95.1357 75.595 96.9785C69.6362 102.443 63.5839 107.783 56.9067 112.398C51.0956 116.415 45.1663 120.229 39.0106 123.672C31.2558 128.005 23.2943 131.893 14.644 134.161C11.5686 134.966 8.61139 136.192 5.43271 136.631C4.99969 136.691 4.57158 136.908 4.17795 137.125C3.3562 137.585 3.02162 138.746 3.60225 139.487C4.15335 140.189 4.80779 140.861 5.54587 141.345C9.93994 144.186 14.3635 146.977 18.792 149.758C19.6581 150.302 20.5536 150.811 21.4836 151.231C26.3402 153.454 31.1525 155.806 36.0977 157.807C41.466 159.98 46.9475 161.883 52.4241 163.785C58.3484 165.84 64.4942 167.001 70.6646 168.048C71.9981 168.276 73.3266 168.557 74.6503 168.809C75.5114 171.117 75.4523 173.434 75.9493 175.642C76.3282 177.307 76.5398 179.016 76.9875 180.662C77.2828 181.744 77.7453 182.831 78.3505 183.774C79.3297 185.296 80.983 185.553 82.533 184.624C83.7533 183.893 84.6243 182.816 85.1754 181.561C86.0906 179.481 86.8828 177.342 87.6406 175.197C88.1277 173.814 88.4623 172.381 88.8412 171.057C91.8575 170.706 94.0521 170.845 97.28 171.581C97.3439 172.184 97.4571 172.836 97.4719 173.493C97.5506 176.917 97.59 180.341 97.6834 183.759C97.7031 184.55 97.7966 185.365 98.0131 186.126C98.5248 187.919 100.016 188.695 101.728 187.998C104.459 186.892 106.668 185.103 107.79 182.312C108.509 180.528 108.981 178.626 109.419 176.744C109.754 175.316 110.009 173.873 110.462 172.386C111.156 172.312 111.702 172.203 112.253 172.208C122.021 172.307 131.788 172.312 141.875 173.014V173.019Z" fill="#CBAC8D"/>
<path class="needles" d="M212.317 163.236C214.847 163.236 217.11 163.226 219.378 163.236C221.883 163.251 224.402 163.246 226.833 162.584C228.24 162.199 229.697 161.714 230.902 160.929C233.299 159.363 235.169 157.382 233.835 153.973C238.834 152.194 242.864 149.363 245.275 144.66C247.618 140.09 248.784 135.297 247.411 130.065C248.439 129.453 249.404 128.884 250.363 128.306C253.837 126.197 256.189 123.213 257.075 119.216C257.552 117.106 258.005 114.937 258 112.798C257.99 107.773 255.677 103.841 251.633 100.931C251.003 100.476 250.285 100.15 249.674 99.8043C249.615 98.7224 250.417 98.3024 250.86 97.6799C253.567 93.8559 253.665 89.7552 250.934 85.9164C249.95 84.538 248.779 83.2436 247.49 82.1468C244.286 79.4196 241.137 76.5985 237.452 74.4988C237.068 74.2814 236.743 73.9603 236.251 73.5848C236.551 73.0512 236.802 72.572 237.092 72.1125C238.254 70.2796 238.141 68.4071 237.117 66.6038C236.502 65.5218 235.759 64.4892 234.947 63.5456C232.767 61.021 230.209 58.9558 227.173 57.523C223.369 55.7247 219.585 53.8819 215.521 52.7109C214.66 52.4639 213.838 52.0736 212.878 51.7031C212.878 51.0954 212.878 50.547 212.878 50.0035C212.864 48.4621 212.298 47.1182 211.427 45.8781C210.295 44.2576 208.809 43.0324 207.141 42.0196C202.442 39.159 197.364 37.1778 192.074 35.7549C188.536 34.8014 184.871 34.8212 181.239 34.5939C180.673 34.5593 180.102 34.5346 179.537 34.5692C178.115 34.6483 176.934 34.3024 175.861 33.2204C174.326 31.6642 172.421 30.6019 170.286 30.0387C162.334 27.9439 154.348 27.5141 146.367 29.7719C142.313 30.9231 138.494 32.7214 134.789 34.7471C133.003 35.7204 131.236 36.7233 129.298 37.8003C128.83 37.2124 128.432 36.6887 128.004 36.1848C126.591 34.5149 124.785 33.7244 122.611 33.7046C120.195 33.6799 117.862 34.1394 115.579 34.8755C111.343 36.2391 107.352 38.1116 103.534 40.4337C98.5343 43.4721 94.1058 47.1874 89.8593 51.1695C89.2836 51.708 88.6833 52.2218 87.9846 52.8394C87.3548 52.0588 86.8479 51.3226 86.228 50.7001C85.8441 50.3148 85.2586 49.796 84.8256 49.8504C83.1723 50.048 81.3714 49.7318 79.9247 50.8879C78.5076 52.0193 76.9428 53.037 75.7422 54.371C69.5964 61.2087 65.1433 68.9506 64.1494 78.2783C63.7311 82.2357 63.6868 86.2524 63.7557 90.2394C63.8394 94.9231 66.093 97.4428 70.6986 98.0751C73.3902 98.4457 76.1555 98.6483 78.8569 98.4605C86.1344 97.9566 93.407 98.1493 100.68 98.2085C105.482 98.2481 110.176 98.9842 114.644 100.936C121.902 104.103 126.591 109.478 128.515 117.185C128.983 119.053 129.18 121.004 129.322 122.936C129.588 126.464 129.677 130.006 129.923 133.534C130.05 135.352 130.277 137.17 130.602 138.963C131.167 142.046 132.412 144.842 134.449 147.249C137.697 151.092 141.082 154.773 145.629 157.149C146.731 157.727 147.755 158.478 148.758 159.215C150.879 160.771 153.197 161.976 155.544 163.137C162.556 166.616 170.04 168.389 177.726 169.516C182.469 170.212 187.208 170.489 192 170.217C197.521 169.906 202.747 168.448 207.835 166.398C209.646 165.667 211.26 164.644 212.298 163.241L212.317 163.236Z" fill="#5A5553"/>
<path d="M107.308 134.379C102.751 134.053 97.683 138.588 99.4446 144.897C100.069 147.135 101.354 149.027 103.041 150.608C104.734 152.194 106.884 152.585 109.074 152.347C112.474 151.982 115.058 150.307 116.327 146.987C118.6 141.043 115.117 135.386 108.666 134.492C108.218 134.428 107.76 134.413 107.313 134.374L107.308 134.379Z" fill="#D3746A"/>
    <g class="needles">
    <path d="M167.929 96.9637C167.526 97.8481 166.689 97.9271 165.971 98.1889C164.908 98.5743 163.82 98.9053 162.777 99.3302C162.074 99.6168 161.818 100.254 161.872 101C161.921 101.672 162.477 102.275 163.2 102.319C164.101 102.374 165.011 102.319 165.917 102.324C168.175 102.324 170.439 102.334 172.579 102.344C172.958 103.05 172.815 103.411 172.338 103.648C170.611 104.508 168.884 105.373 167.152 106.222C163.791 107.877 160.415 109.503 157.069 111.188C155.711 111.869 155.308 112.739 155.79 113.554C156.243 114.315 156.936 114.488 158.201 114.088C158.846 113.885 159.49 113.643 160.1 113.347C164.396 111.276 168.697 109.221 172.958 107.087C174.267 106.43 175.556 105.659 176.697 104.74C178.553 103.243 178.302 101.227 176.196 100.071C175.507 99.6909 174.744 99.4537 174.045 99.1622C173.661 98.1642 174.626 98.0555 175.015 97.601C176.397 95.9558 176.018 94.2217 173.971 93.6634C172.574 93.283 171.083 93.2533 169.632 93.0656C169.43 92.5221 169.784 92.2553 170.143 91.9589C170.842 91.3858 171.605 90.8572 172.175 90.1704C173.12 89.0341 172.717 87.3 171.344 86.7466C170.424 86.3761 169.366 86.1686 168.377 86.1933C165.838 86.2526 163.505 87.1764 161.237 88.2485C161.035 88.3424 160.799 88.4857 160.715 88.6685C160.543 89.0637 160.322 89.5133 160.371 89.9086C160.45 90.5163 160.942 90.9461 161.557 90.9214C162.221 90.8967 162.9 90.7386 163.535 90.5311C164.485 90.2248 165.39 89.7505 166.399 89.7851C166.625 90.5459 166.054 90.6398 165.734 90.8473C164.406 91.7218 163.038 92.532 161.719 93.4164C161.158 93.7918 160.622 94.2365 160.184 94.7454C159.397 95.6594 159.992 97.2996 161.178 97.3886C162.182 97.4627 163.205 97.3145 164.214 97.2157C165.114 97.1267 166.005 96.939 166.91 96.8451C167.235 96.8105 167.57 96.9192 167.934 96.9686L167.929 96.9637Z" fill="black"/>
<path d="M167.304 58.131C168.667 55.7793 169.312 55.4977 166.704 53.1805C166.704 52.9384 166.62 52.6667 166.718 52.5136C167.235 51.7329 167.688 50.9276 167.368 49.9642C167.023 48.9168 166.212 48.2696 165.237 47.8744C164.401 47.5335 163.525 47.237 162.639 47.0789C160.267 46.659 157.881 46.7627 155.504 47.0493C155.17 47.0888 154.84 47.2025 154.515 47.3062C153.556 47.6125 153.088 48.2103 153.157 49.0107C153.226 49.7864 153.831 50.2063 154.914 50.1866C156.616 50.1569 158.324 50.0927 160.026 50.0877C160.528 50.0877 161.03 50.236 162.226 50.4237C160.317 51.1895 158.998 51.3377 157.674 51.5403C156.789 51.6786 155.873 51.8762 155.081 52.2665C154.668 52.4691 154.328 53.1163 154.23 53.6153C154.087 54.3514 154.555 55.0184 155.244 55.2012C156.434 55.5224 157.674 55.6558 158.939 55.8781C158.934 56.6142 158.221 56.4759 157.817 56.6834C157.423 56.8909 156.951 56.9452 156.518 57.0836C155.588 57.3751 154.86 57.8889 154.796 58.9511C154.742 59.8305 155.613 60.5518 156.961 60.6852C158.088 60.7989 159.229 60.8186 160.366 60.8384C162.167 60.868 163.948 61.0311 165.547 61.2979C166.005 62.0884 165.66 62.4243 165.262 62.6269C163.948 63.2939 162.585 63.8719 161.281 64.5685C160.287 65.0972 159.323 65.6999 158.417 66.3768C157.95 66.7226 157.842 67.3352 158.083 67.933C158.329 68.5358 159.106 68.9607 159.785 68.7038C163.077 67.4489 166.408 66.2681 169.198 64.0004C169.548 63.7138 169.868 63.3778 170.143 63.0221C171.019 61.9056 170.916 60.6161 169.853 59.6675C169.435 59.292 168.928 59.0104 168.445 58.7189C168.086 58.5015 167.693 58.3335 167.309 58.1409L167.304 58.131Z" fill="black"/>
<path d="M114.019 65.3639C112.897 66.8313 111.529 67.3698 110.22 67.9923C109.507 68.3332 108.764 68.6198 108.07 69.0002C107.475 69.3263 107.204 70.1365 107.391 70.7788C107.608 71.5199 108.164 71.9398 108.877 71.9645C109.659 71.9892 110.452 71.8805 111.229 71.7471C112.902 71.4556 114.575 71.3124 116.647 71.3766C116.219 72.009 116.061 72.4438 115.751 72.6611C113.522 74.2174 111.268 75.7342 109.01 77.2509C108.356 77.6906 107.622 78.0365 107.032 78.5503C106.599 78.9258 106.491 79.5335 106.746 80.1164C107.002 80.7044 107.494 81.0206 108.09 80.9366C108.749 80.8378 109.418 80.6401 110.029 80.3635C113.689 78.7133 116.78 76.2183 119.781 73.6097C120.199 73.2491 120.529 72.7501 120.79 72.256C121.488 70.9418 121.105 69.4399 119.83 68.7087C119.063 68.269 118.197 68.0022 117.281 67.6168C117.714 66.8214 118.206 66.0606 118.561 65.2355C119.196 63.7681 118.398 62.1773 116.848 61.7623C116.307 61.619 115.727 61.5301 115.17 61.5696C112.425 61.7623 109.837 62.5478 107.376 63.7731C107.175 63.8719 106.958 63.9954 106.825 64.1634C106.471 64.613 106.171 65.0971 106.466 65.7098C106.737 66.273 107.199 66.6485 107.804 66.5497C108.577 66.4212 109.32 66.1297 110.078 65.9074C111.254 65.5616 112.376 64.9143 114.029 65.3639H114.019Z" fill="black"/>
<path d="M204.371 112.26C203.85 112.67 203.279 113.035 202.816 113.505C201.808 114.532 202.226 116.089 203.633 116.434C204.391 116.622 205.203 116.642 205.99 116.677C207.23 116.736 208.475 116.741 209.631 116.77C209.986 117.403 209.843 117.759 209.361 117.986C207.924 118.663 206.467 119.305 205.05 120.021C204.248 120.426 203.461 120.891 202.757 121.439C202.28 121.81 202.172 122.472 202.516 122.981C202.738 123.317 203.21 123.658 203.579 123.677C204.238 123.707 204.962 123.618 205.562 123.356C207.953 122.309 210.305 121.177 212.672 120.076C212.776 120.026 212.874 119.967 212.967 119.908C215.369 118.361 215.423 116.123 213.076 114.443C212.554 114.068 211.978 113.772 211.299 113.361C211.944 112.665 212.544 112.151 212.972 111.519C213.981 110.032 213.238 108.06 211.472 107.828C210.035 107.635 208.514 107.67 207.082 107.917C204.056 108.446 201.158 109.468 198.324 110.649C198.117 110.738 197.915 110.852 197.719 110.965C197.064 111.341 196.705 112.092 196.897 112.67C197.138 113.391 197.999 113.841 198.845 113.584C200.573 113.06 202.285 112.482 204.007 111.924L204.376 112.255L204.371 112.26Z" fill="black"/>
<path d="M180.934 133.134C179.669 134.645 178.385 135.12 177.248 135.792C176.471 136.251 175.615 136.622 174.955 137.21C174.611 137.516 174.404 138.262 174.517 138.711C174.63 139.171 175.142 139.719 175.595 139.858C176.328 140.085 177.155 140.045 177.942 140.06C179.29 140.085 180.638 140.065 181.878 140.065C182.277 140.688 182.174 141.088 181.746 141.379C179.684 142.787 177.617 144.186 175.551 145.584C174.896 146.028 174.202 146.429 173.592 146.923C173.13 147.298 172.948 147.856 173.199 148.454C173.454 149.062 174.261 149.507 174.876 149.349C175.423 149.21 176.018 149.101 176.476 148.8C179.32 146.933 182.134 145.03 184.939 143.109C185.303 142.862 185.579 142.461 185.839 142.091C186.907 140.564 186.725 139.018 185.278 137.872C184.673 137.392 183.945 137.071 183.094 136.572C183.61 135.782 184.142 135.09 184.545 134.329C185.456 132.615 184.841 130.886 183.059 130.12C182.548 129.902 181.977 129.739 181.426 129.72C178.429 129.631 175.605 130.481 172.795 131.385C172.692 131.419 172.593 131.493 172.51 131.567C172.077 131.953 171.698 132.363 171.831 133.02C171.963 133.667 172.667 134.275 173.307 134.171C174.424 133.983 175.531 133.756 176.633 133.484C177.848 133.183 179.059 132.995 180.939 133.134H180.934Z" fill="black"/>
        <path  d="M231.277 137.422C231.621 136.33 232.093 135.12 231.158 133.978C230.229 132.847 228.969 132.457 227.547 132.393C225.475 132.304 223.482 132.659 221.539 133.321C221.121 133.465 220.732 133.726 220.368 133.993C219.856 134.364 219.728 135.288 220.068 135.856C220.402 136.409 220.929 136.587 221.519 136.464C222.513 136.261 223.492 135.969 224.491 135.782C225.027 135.683 225.588 135.718 226.051 135.698C226.459 136.454 225.948 136.622 225.623 136.859C224.983 137.323 224.265 137.694 223.694 138.227C222.833 139.038 223.3 140.712 224.471 140.964C225.328 141.152 226.233 141.122 227.104 141.187C227.325 141.938 226.72 141.869 226.381 142.022C225.254 142.535 224.068 142.95 223.015 143.583C222.656 143.8 222.484 144.546 222.459 145.06C222.429 145.604 223.364 146.177 223.994 146.122C224.442 146.083 224.904 146.038 225.328 145.895C227.261 145.243 229.2 144.606 231.095 143.855C231.808 143.573 232.482 143.079 233.048 142.55C233.83 141.824 233.929 140.594 233.309 139.739C232.782 139.013 232.128 138.38 231.282 137.422H231.277Z" fill="black"/>

        <path  d="M216.869 80.6599C217.656 79.9139 218.252 79.4346 218.739 78.8714C219.757 77.6857 219.447 76.1047 217.981 75.5217C217.066 75.1561 215.998 74.8893 215.034 74.9733C211.53 75.2895 208.12 76.0899 204.824 77.3448C204.612 77.4238 204.42 77.5523 204.228 77.6709C203.638 78.0365 203.397 78.8171 203.677 79.4495C203.938 80.0423 204.435 80.3091 205.03 80.2498C205.581 80.1905 206.123 79.983 206.669 79.8546C207.86 79.573 209.055 79.2963 210.423 79.3704C209.769 79.8694 209.119 80.3783 208.46 80.8723C207.86 81.3269 207.633 81.9444 207.727 82.6658C207.82 83.3871 208.484 83.9305 209.459 84.0294C210.246 84.1084 211.038 84.0788 211.83 84.1183C212.377 84.1479 212.923 84.2122 213.646 84.2764C213.41 85.0817 213.159 85.6844 213.075 86.307C212.967 87.1123 213.794 87.962 214.552 87.7595C216.84 87.1468 219.103 86.4453 221.371 85.7635C221.578 85.6993 221.76 85.5412 221.942 85.4078C223.035 84.6074 223.074 82.9622 221.927 82.2211C221.18 81.7419 220.313 81.4158 219.462 81.1391C218.749 80.9069 217.976 80.8526 216.869 80.6599Z" fill="black"/>
</g>
    <path class="nose" d="M0.000288963 131.068C0.197111 134.379 1.35345 137.303 2.992 140.065C3.1593 140.342 3.45944 140.549 3.72024 140.757C4.26642 141.197 5.16198 141.251 5.58515 140.757C7.42544 138.613 9.41825 136.523 10.2301 133.736C10.919 131.375 10.8993 129.013 9.01969 127.052C7.6567 125.629 6.03785 124.987 4.1139 125.55C2.14568 126.128 0.767892 127.393 0.241392 129.448C0.103616 129.991 0.0691719 130.564 -0.00463676 131.073L0.000288963 131.068Z" fill="black"/>

    <path d="M73.9707 122.837C74.0051 120.535 73.5475 118.796 72.4945 117.259C70.8707 114.878 68.0365 114.35 65.6647 116C63.6079 117.427 62.5156 119.507 61.9645 121.899C61.7873 122.669 62.363 123.534 63.1011 123.751C63.7113 123.934 64.5133 123.628 64.8479 123.035C65.0694 122.645 65.212 122.205 65.4138 121.805C65.7139 121.197 65.9993 120.575 66.3635 120.011C66.9392 119.122 67.7068 118.327 68.8434 118.608C69.9604 118.89 70.295 119.957 70.4721 120.99C70.5853 121.657 70.5755 122.343 70.6148 123.02C70.6394 123.47 70.6198 123.929 70.6788 124.374C70.7674 125.051 71.3775 125.619 72.032 125.698C72.8242 125.792 73.577 125.253 73.7935 124.438C73.8526 124.221 73.9116 123.998 73.9313 123.776C73.9657 123.327 73.9756 122.872 73.9756 122.852L73.9707 122.837Z" fill="black"/>
<path d="M100.207 126.795C100.089 124.621 99.4935 122.566 98.0321 120.846C95.6358 118.035 92.1619 118.09 89.8492 120.99C88.7618 122.353 88.068 123.9 88.0729 125.693C88.0729 126.36 88.6437 127.086 89.2391 127.21C89.864 127.338 90.6857 126.968 90.9514 126.365C91.2713 125.634 91.4484 124.838 91.8224 124.137C92.1324 123.549 92.59 123.015 93.0624 122.546C93.5298 122.082 94.5041 122.067 94.9371 122.566C95.5177 123.238 96.0787 123.979 96.428 124.789C96.7872 125.609 96.8561 126.558 97.0923 127.437C97.3433 128.381 98.0125 128.934 98.7407 128.86C99.4542 128.786 100.114 128.02 100.178 127.18C100.187 127.067 100.192 126.953 100.202 126.795H100.207Z" fill="black"/>
</g>
<g clip-path="url(#clip1_1050_14066)">
<path class="needles" d="M213.333 76.6603C212.591 76.9495 212.04 77.173 211.482 77.3877C209.745 78.054 207.958 78.6188 206.283 79.4202C205.181 79.9457 204.152 80.7209 203.24 81.5462C201.256 83.3355 200.869 85.3544 201.925 87.7802C203.171 90.6439 205.362 92.5956 208.124 93.9327C210.423 95.0454 212.859 95.8658 215.383 96.2681C222.289 97.3697 229.108 96.9718 235.769 94.4484C238.193 93.529 240.456 92.3012 242.615 90.8783C243.425 90.3453 244.154 89.6624 244.826 88.9584C249.25 84.3442 251.961 78.8328 253.463 72.7141C254.447 68.704 254.496 64.675 253.852 60.6386C253.278 57.071 251.714 53.9892 249.38 51.2892C248.036 49.7394 246.369 48.6319 244.44 47.9202C240.69 46.5355 238.325 47.5925 236.833 51.3122C236.506 52.1226 236.233 52.9564 235.89 53.9036C235.608 53.6316 235.355 53.4973 235.273 53.2902C234.47 51.2344 234.038 49.1057 233.994 46.8703C233.957 44.9389 233.791 43.0077 233.582 41.0868C233.396 39.4033 232.761 37.8485 231.79 36.4752C231.293 35.7713 230.695 35.1025 230.02 34.5712C227.912 32.9052 225.093 33.2915 223.491 35.4963C222.929 36.2714 222.565 37.2061 222.207 38.1062C221.914 38.8435 221.781 39.6399 221.561 40.4048C221.388 40.9975 221.218 41.5985 220.987 42.1703C220.724 42.8288 220.413 43.5809 219.581 43.5758C218.797 43.5745 218.403 42.9033 218.06 42.277C217.288 40.871 216.991 39.3247 216.751 37.7559C216.499 36.1077 216.312 34.4403 215.921 32.8242C215.612 31.5587 215.139 30.3123 214.56 29.1441C213.758 27.527 212.362 26.6907 210.506 26.7218C208.647 26.7552 207.292 27.7044 206.414 29.2746C205.9 30.1971 205.588 31.2309 205.184 32.2139C204.289 34.4002 203.682 34.592 202.01 32.9804C200.693 31.7089 199.512 30.2942 198.294 28.9251C196.786 27.2265 195.334 25.4756 193.797 23.8017C192.296 22.166 190.397 21.0641 188.374 20.1797C187.238 19.684 186.034 19.4374 184.765 19.5403C182.185 19.7511 180.494 21.3257 180.141 23.8729C179.915 25.496 180.246 27.0233 180.918 28.4835C181.849 30.5064 183.281 32.1501 184.845 33.6935C186.464 35.29 188.11 36.8589 189.71 38.4756C190.448 39.2206 191.162 40.0044 191.759 40.8572C192.201 41.4889 192.506 42.2395 192.756 42.9775C192.997 43.6878 192.573 44.4064 191.82 44.6406C191.146 44.8486 190.428 44.9151 189.754 45.1231C188.575 45.4908 187.342 45.7862 186.258 46.351C184.058 47.4918 183.725 49.5693 185.321 51.3915C186.333 52.5434 187.659 53.2359 189.075 53.7299C190.483 54.2205 191.95 54.548 193.37 55.0098C194.873 55.5 196.382 55.9853 197.819 56.6245C198.931 57.1209 199.978 57.8044 200.557 58.9726C200.732 59.3335 200.542 59.9952 200.161 60.0916C199.39 60.2865 198.613 60.4618 197.829 60.5689C196.061 60.8075 194.317 61.1591 192.737 62.0196C191.814 62.5243 190.886 63.1209 190.148 63.8601C188.228 65.7737 188.373 68.1716 190.499 69.793C192.262 71.1359 194.277 72.0223 196.492 72.3617C199.018 72.7425 201.559 73.0515 204.089 73.3893C205.575 73.5883 207.065 73.7443 208.541 73.9966C209.944 74.235 211.247 74.7739 212.415 75.5783C212.743 75.8026 212.951 76.1959 213.339 76.6607L213.333 76.6603Z" fill="#BF713C"/>
<path class="needles" d="M233.953 77.3567C233.303 77.5587 232.728 77.7775 232.14 77.9086C229.288 78.5495 226.427 79.1627 223.572 79.8061C222.884 79.9615 222.197 80.1604 221.535 80.402C220.885 80.6392 220.546 81.3213 220.73 81.8725C220.886 82.3483 221.426 82.7116 221.972 82.6449C222.497 82.5818 223.02 82.4699 223.534 82.3463C226.724 81.5865 229.915 80.8159 233.105 80.0507C233.622 79.9247 234.169 79.8824 234.655 79.6834C236.094 79.0986 237.156 79.6369 238.235 80.5505C244.374 85.7474 250.616 90.8199 257.101 95.5899C257.804 96.1074 258.509 96.6331 259.241 97.1068C259.603 97.342 260.023 97.5034 260.436 97.637C260.88 97.7787 261.539 97.4258 261.766 96.9756C261.999 96.5151 261.872 96.0932 261.539 95.7845C261.092 95.3744 260.571 95.0397 260.09 94.6676C255.799 91.3539 251.525 88.02 247.208 84.7421C246.358 84.0963 246.001 83.3496 245.961 82.3035C245.777 77.5569 245.551 72.8122 245.327 68.0649C245.307 67.6327 245.303 67.1584 245.119 66.7941C244.992 66.5454 244.567 66.3186 244.271 66.319C243.983 66.3174 243.497 66.5759 243.436 66.8039C243.234 67.5594 243.093 68.3524 243.097 69.1274C243.123 72.5612 243.209 75.9944 243.259 79.4275C243.266 79.9291 243.211 80.4338 243.172 81.1268C242.607 80.8047 242.197 80.6442 241.874 80.3769C237.912 77.0737 233.974 73.7453 230.243 70.1764C229.065 69.0544 228.55 67.7938 228.497 66.2457C228.366 62.2887 228.243 58.3297 228.109 54.3752C228.093 53.8512 228.089 53.3173 227.982 52.8103C227.881 52.3227 227.455 52.0769 226.99 52.1638C226.686 52.2204 226.253 52.4643 226.177 52.71C225.973 53.3733 225.839 54.0857 225.836 54.7788C225.825 57.5974 225.877 60.4131 225.891 63.231C225.896 63.9167 225.858 64.6043 225.836 65.5099C225.352 65.2729 225.002 65.1904 224.784 64.9777C221.846 62.1069 218.923 59.2183 216 56.3297C212.828 53.1907 209.849 49.8751 206.967 46.4697C205.444 44.6697 203.786 42.9833 202.171 41.2599C201.818 40.8845 201.427 40.5061 200.975 40.2772C200.742 40.1608 200.253 40.2783 200.036 40.4692C199.816 40.6627 199.65 41.1069 199.709 41.3826C199.794 41.7849 200.045 42.1871 200.319 42.51C203.575 46.2842 206.802 50.0776 210.126 53.7896C211.989 55.8719 214.026 57.8002 215.97 59.8104C216.307 60.16 216.583 60.5698 216.865 60.9258C216.342 61.4955 215.778 61.3901 215.272 61.4872C212.661 61.9853 210.049 62.475 207.442 62.9896C207.016 63.0742 206.575 63.2063 206.201 63.4198C205.795 63.6497 205.6 64.0645 205.693 64.5487C205.787 65.0466 206.15 65.3496 206.616 65.3007C208.023 65.152 209.421 64.9268 210.821 64.7288C213.449 64.3541 216.079 63.9877 218.703 63.6018C219.369 63.5041 219.882 63.6919 220.371 64.1514C224.745 68.3033 229.139 72.4379 233.516 76.5873C233.69 76.7531 233.767 77.0193 233.951 77.3485L233.953 77.3567Z" fill="black"/>
</g>
<defs>
<clipPath id="clip0_1050_14066">
<rect width="258" height="160" fill="white" transform="matrix(-1 0 0 1 258 28.2554)"/>
</clipPath>
<clipPath id="clip1_1050_14066">
<rect width="60.2734" height="109.91" fill="white" transform="matrix(-0.767701 0.640808 0.640809 0.7677 206.568 0)"/>
</clipPath>
</defs>
</svg>
