<svg viewBox="0 0 49 47" fill="none" xmlns="http://www.w3.org/2000/svg">
<path d="M3.21669 45.3207C3.21669 44.9916 3.21669 44.7573 3.21669 44.5241C3.21669 32.9422 3.21669 21.3592 3.21669 9.77728C3.21669 9.02099 3.21669 9.02099 3.97997 9.02099C8.0185 9.02099 12.057 9.02099 16.0956 9.02099C16.309 9.02099 16.5235 9.02099 16.8153 9.02099C16.8153 5.9882 16.8153 3.0099 16.8153 0C21.9558 0 27.0167 0 32.1365 0C32.1365 3.00009 32.1365 5.96641 32.1365 9.02099C32.4043 9.02099 32.6145 9.02099 32.8235 9.02099C36.9165 9.02099 41.0095 9.0308 45.1014 9.009C45.6229 9.00682 45.7656 9.14849 45.7645 9.67157C45.7503 21.2905 45.7536 32.9084 45.7536 44.5274C45.7536 44.7606 45.7536 44.9949 45.7536 45.3218C46.5822 45.3218 47.3705 45.3218 48.16 45.3218C48.9581 45.3218 48.9635 45.3218 48.957 46.0988C48.9483 47.1199 49.0789 46.9946 48.063 46.9957C32.3074 46.9978 16.5529 46.9978 0.797268 46.9978C0.0132984 46.9978 0.0132983 46.9978 0.0122095 46.2056C0.0122095 46.0792 0.0274533 45.9495 0.0100318 45.8253C-0.048766 45.4013 0.15376 45.3033 0.542478 45.3142C1.40702 45.337 2.27266 45.3207 3.21669 45.3207ZM30.4694 45.2902C30.4694 45.0635 30.4694 44.9022 30.4694 44.741C30.4694 30.5687 30.4673 16.3975 30.4803 2.22528C30.4803 1.72726 30.3235 1.62809 29.8619 1.63027C26.2774 1.64771 22.6918 1.65207 19.1073 1.627C18.5738 1.62373 18.4943 1.81553 18.4943 2.28195C18.5041 16.4172 18.503 30.5534 18.5041 44.6886C18.5041 44.8804 18.5226 45.0733 18.5335 45.276C19.3175 45.276 20.0481 45.276 20.8223 45.276C20.8223 45.0167 20.8223 44.802 20.8223 44.5862C20.8223 41.3965 20.8048 38.2068 20.8277 35.0171C20.8473 32.3047 23.2526 30.5622 25.7373 31.4263C27.2062 31.9374 28.1426 33.3345 28.1469 35.0727C28.1556 38.2624 28.1491 41.4521 28.1513 44.6418C28.1513 44.851 28.1698 45.0603 28.1796 45.2891C28.9549 45.2902 29.6702 45.2902 30.4694 45.2902ZM4.92509 45.2935C5.14721 45.3044 5.3247 45.3196 5.50218 45.3196C9.06924 45.3207 12.6374 45.3109 16.2045 45.3327C16.7151 45.336 16.8338 45.1779 16.8338 44.6897C16.8207 33.5612 16.824 22.4326 16.8229 11.304C16.8229 11.1133 16.8022 10.9237 16.7913 10.7363C12.7996 10.7363 8.8776 10.7363 4.92509 10.7363C4.92509 22.255 4.92509 33.7388 4.92509 45.2935ZM32.1757 10.7177C32.1648 10.9651 32.1485 11.1591 32.1485 11.3542C32.1474 22.4642 32.1506 33.5753 32.1376 44.6854C32.1376 45.1692 32.2464 45.336 32.7626 45.3327C36.3296 45.3098 39.8978 45.3218 43.4648 45.3196C43.6554 45.3196 43.8459 45.3011 44.0278 45.2924C44.0278 33.729 44.0278 22.2321 44.0278 10.7188C40.072 10.7177 36.163 10.7177 32.1757 10.7177ZM26.4723 45.2869C26.4723 45.0439 26.4723 44.8314 26.4723 44.62C26.4723 42.1397 26.4723 39.6583 26.4723 37.1781C26.4723 36.4174 26.493 35.6568 26.4647 34.8972C26.4168 33.6146 25.5076 32.806 24.2619 32.9051C23.2177 32.988 22.5045 33.8489 22.5013 35.0737C22.4936 38.3332 22.498 41.5927 22.5002 44.851C22.5002 44.9894 22.5274 45.1278 22.5448 45.2869C23.8536 45.2869 25.1287 45.2869 26.4723 45.2869Z" fill="white"/>
<path d="M24.4318 19.9687C23.3821 19.9687 22.3314 19.9567 21.2818 19.9752C20.9257 19.9817 20.8136 19.864 20.8157 19.5088C20.8288 17.3707 20.8288 15.2326 20.8157 13.0945C20.8136 12.7381 20.9268 12.6259 21.2818 12.6281C23.4181 12.6412 25.5544 12.6412 27.6907 12.6281C28.0457 12.6259 28.1589 12.7392 28.1567 13.0945C28.1437 15.2326 28.1437 17.3707 28.1567 19.5088C28.1589 19.8651 28.0457 19.9817 27.6907 19.9752C26.604 19.9567 25.5174 19.9687 24.4318 19.9687ZM26.4462 14.3488C25.1047 14.3488 23.8275 14.3488 22.5437 14.3488C22.5437 15.6761 22.5437 16.9664 22.5437 18.2545C23.8667 18.2545 25.1428 18.2545 26.4462 18.2545C26.4462 16.9402 26.4462 15.663 26.4462 14.3488Z" fill="white"/>
<path d="M20.8223 25.6016C20.8223 24.5326 20.8353 23.4635 20.8146 22.3955C20.807 22.0196 20.9224 21.8921 21.3068 21.8943C23.4235 21.9095 25.5413 21.9084 27.6591 21.8943C28.0348 21.8921 28.16 22.0054 28.1578 22.389C28.1426 24.5086 28.1426 26.6271 28.1578 28.7466C28.16 29.1226 28.05 29.2479 27.6657 29.2457C25.5489 29.2305 23.4311 29.2305 21.3133 29.2457C20.9377 29.2479 20.807 29.1379 20.8146 28.7532C20.8364 27.7037 20.8223 26.6521 20.8223 25.6016ZM22.547 23.6041C22.547 24.9499 22.547 26.238 22.547 27.5185C23.8699 27.5185 25.1439 27.5185 26.4222 27.5185C26.4222 26.1922 26.4222 24.9052 26.4222 23.6041C25.1123 23.6041 23.8525 23.6041 22.547 23.6041Z" fill="white"/>
<path d="M23.5629 7.89527C22.7942 7.89527 22.0352 7.88001 21.2763 7.90181C20.9148 7.91271 20.8179 7.78085 20.8135 7.43104C20.8005 6.21705 20.7874 6.21705 21.9928 6.21705C22.5154 6.21705 23.0381 6.21705 23.6478 6.21705C23.6478 5.44877 23.6729 4.71319 23.638 3.98087C23.6162 3.52427 23.7719 3.39349 24.2195 3.40221C25.3236 3.42292 25.3236 3.40221 25.3236 4.53447C25.3236 5.07281 25.3236 5.61224 25.3236 6.21705C26.1326 6.21705 26.8871 6.23884 27.6395 6.20833C28.0533 6.19198 28.1611 6.33583 28.1578 6.73577C28.1491 7.89527 28.1654 7.89418 27.032 7.89527C26.5256 7.89636 26.0193 7.90072 25.513 7.90508C25.4793 7.90508 25.4444 7.92251 25.3236 7.9563C25.3236 8.68207 25.2985 9.43618 25.3334 10.187C25.354 10.6273 25.1994 10.7395 24.778 10.733C23.6467 10.7166 23.6478 10.7352 23.6456 9.57894C23.6446 9.0722 23.638 8.56547 23.6304 8.05873C23.6315 8.02713 23.6064 7.99553 23.5629 7.89527Z" fill="white"/>
<path d="M7.25413 12.6826C7.41419 12.6695 7.57208 12.6444 7.72887 12.6444C9.80857 12.6422 11.8883 12.6531 13.968 12.6346C14.3915 12.6313 14.5287 12.7534 14.5244 13.1849C14.5048 15.2664 14.5124 17.3478 14.5189 19.4292C14.52 19.7518 14.5059 19.9763 14.0714 19.973C11.9013 19.9556 9.73126 19.9643 7.56119 19.9632C7.47408 19.9632 7.38588 19.9425 7.25413 19.9262C7.25413 17.5167 7.25413 15.1236 7.25413 12.6826ZM12.8007 18.2534C12.8007 16.9195 12.8007 15.6467 12.8007 14.3586C11.4876 14.3586 10.2158 14.3586 8.91463 14.3586C8.91463 15.6696 8.91463 16.9446 8.91463 18.2534C10.2169 18.2534 11.4887 18.2534 12.8007 18.2534Z" fill="white"/>
<path d="M10.8092 29.237C9.77699 29.237 8.74476 29.2261 7.71254 29.2436C7.3554 29.2501 7.19642 29.1695 7.19969 28.7662C7.21711 26.6456 7.21602 24.5249 7.20078 22.4043C7.19751 22.0141 7.34015 21.9117 7.70709 21.915C9.80748 21.928 11.909 21.9313 14.0093 21.9128C14.4275 21.9095 14.5265 22.0577 14.5233 22.45C14.5069 24.5347 14.5037 26.6194 14.5255 28.703C14.5298 29.1466 14.3774 29.2566 13.9603 29.2457C12.9107 29.2196 11.86 29.237 10.8092 29.237ZM8.92442 23.6237C8.92442 24.9532 8.92442 26.2271 8.92442 27.5566C9.79332 27.5566 10.6219 27.5566 11.4506 27.5566C12.8421 27.5566 12.8421 27.5566 12.8421 26.1803C12.8421 25.3368 12.8421 24.4933 12.8421 23.6237C11.4974 23.6237 10.2376 23.6237 8.92442 23.6237Z" fill="white"/>
<path d="M7.20731 34.7926C7.20731 33.741 7.21602 32.6894 7.20187 31.6388C7.19751 31.3163 7.29551 31.1909 7.63414 31.192C9.78897 31.2029 11.9438 31.2018 14.0997 31.1942C14.397 31.1931 14.52 31.289 14.5189 31.5996C14.5113 33.7748 14.5102 35.9499 14.5189 38.1251C14.52 38.4498 14.3708 38.5163 14.0867 38.5152C11.9318 38.5086 9.77699 38.5054 7.62107 38.5174C7.26829 38.5195 7.19969 38.3626 7.20296 38.0553C7.21493 36.9677 7.20731 35.8802 7.20731 34.7926ZM12.8149 32.916C11.4832 32.916 10.2104 32.916 8.92551 32.916C8.92551 34.2335 8.92551 35.5086 8.92551 36.7934C10.2408 36.7934 11.5148 36.7934 12.8149 36.7934C12.8149 35.49 12.8149 34.2281 12.8149 32.916Z" fill="white"/>
<path d="M34.5494 12.6433C35.2223 12.6433 35.8876 12.6433 36.5539 12.6433C38.1273 12.6433 39.7007 12.6531 41.2741 12.6368C41.6497 12.6324 41.775 12.7479 41.7717 13.1305C41.7564 15.2478 41.7564 17.3663 41.7717 19.4837C41.775 19.8695 41.6432 19.9763 41.2708 19.9741C39.1552 19.9599 37.0396 19.9665 34.9239 19.9676C34.6757 19.9676 34.4535 19.9752 34.4557 19.6167C34.4666 17.3543 34.4677 15.092 34.4742 12.8297C34.4731 12.7959 34.4993 12.7632 34.5494 12.6433ZM40.0546 18.2654C40.0546 16.9359 40.0546 15.6609 40.0546 14.3553C38.749 14.3553 37.4784 14.3553 36.1739 14.3553C36.1739 15.6707 36.1739 16.9577 36.1739 18.2654C37.4773 18.2654 38.736 18.2654 40.0546 18.2654Z" fill="white"/>
<path d="M41.7641 25.6561C41.7641 26.6892 41.7488 27.7223 41.7717 28.7553C41.7804 29.1444 41.641 29.2457 41.2697 29.2436C39.1693 29.2294 37.0679 29.2261 34.9675 29.2457C34.5526 29.249 34.4459 29.1095 34.4481 28.7128C34.4644 26.6281 34.4677 24.5445 34.4459 22.4598C34.4416 22.0218 34.5875 21.9084 35.0056 21.9128C37.07 21.9302 39.1345 21.9335 41.1989 21.9106C41.6606 21.9052 41.7837 22.061 41.7717 22.5023C41.7456 23.5529 41.7641 24.6045 41.7641 25.6561ZM36.1336 23.6204C36.1336 24.8747 36.1238 26.0658 36.1511 27.2558C36.1532 27.3583 36.3982 27.5359 36.5365 27.5414C37.2584 27.5708 37.9825 27.5555 38.7055 27.5555C40.0883 27.5555 40.0883 27.5555 40.0883 26.1737C40.0883 25.3292 40.0883 24.4846 40.0883 23.6204C38.7425 23.6204 37.4816 23.6204 36.1336 23.6204Z" fill="white"/>
<path d="M41.7641 34.9016C41.7641 35.9346 41.7466 36.9688 41.7728 38.0008C41.7837 38.416 41.6388 38.5228 41.2414 38.5195C39.1584 38.5032 37.0766 38.4999 34.9936 38.5217C34.5526 38.5261 34.4448 38.3779 34.4481 37.9616C34.4655 35.8769 34.4655 33.7922 34.4481 31.7086C34.4448 31.2945 34.5853 31.1877 34.9805 31.191C37.0809 31.2073 39.1824 31.2073 41.2828 31.191C41.6704 31.1877 41.7771 31.3228 41.7706 31.6944C41.751 32.7624 41.7641 33.8314 41.7641 34.9016ZM40.0513 32.8757C38.8111 32.8757 37.6352 32.867 36.4614 32.8899C36.3503 32.8921 36.1489 33.0849 36.1467 33.1928C36.1227 34.2968 36.1249 35.4018 36.1434 36.5068C36.1456 36.6168 36.3057 36.8163 36.395 36.8184C37.6014 36.8391 38.8089 36.8326 40.0513 36.8326C40.0513 35.4966 40.0513 34.2216 40.0513 32.8757Z" fill="white"/>
</svg>
