<svg width="42" height="42" viewBox="0 0 42 42" fill="none" xmlns="http://www.w3.org/2000/svg">
<rect width="42" height="42" rx="21" fill="white"/>
<path fill-rule="evenodd" clip-rule="evenodd" d="M29.389 23.9088C28.4552 23.3556 27.2361 22.738 26.1467 23.1883C25.3037 23.5357 24.759 24.835 24.2143 25.504C23.929 25.8514 23.6048 25.9028 23.1638 25.7227C19.9994 24.4748 17.5741 22.3778 15.8233 19.4832C15.525 19.0329 15.5769 18.6856 15.94 18.261C16.4718 17.6435 17.1332 16.9488 17.2759 16.1126C17.4185 15.2763 17.0294 14.3115 16.6793 13.5781C16.2383 12.639 15.7455 11.2882 14.7858 10.7478C13.9169 10.259 12.7626 10.542 11.9845 11.1724C10.6357 12.2659 9.98722 13.9641 10.0002 15.6623C10.0002 16.1383 10.065 16.6272 10.1818 17.0903C10.4541 18.2096 10.9729 19.2516 11.5565 20.2422C11.9974 20.9884 12.4773 21.7088 12.9961 22.4164C14.695 24.6935 16.796 26.6747 19.2342 28.1671C20.4533 28.9133 21.7632 29.5565 23.1249 30.0068C24.6423 30.5085 26.0041 31.0231 27.6511 30.7144C29.376 30.3927 31.075 29.3378 31.7624 27.6911C31.9699 27.2022 32.0606 26.6619 31.9569 26.1473C31.7234 25.0795 30.2709 24.4491 29.402 23.9345L29.389 23.9088Z" fill="#E18531"/>
</svg>
