<svg width="42" height="42" viewBox="0 0 42 42" fill="none" xmlns="http://www.w3.org/2000/svg">
<rect width="42" height="42" rx="21" fill="white"/>
<path d="M14.832 30.9988C14.8136 30.9804 14.7791 30.962 14.7791 30.9448C14.7814 30.7699 14.7906 30.5938 14.7975 30.4189C14.7986 30.3901 14.8032 30.3625 14.8044 30.3337C14.8147 29.8861 14.8239 29.4396 14.8343 28.9919C14.8435 28.626 14.8527 28.2601 14.8631 27.8941C14.8711 27.6203 14.8803 27.3475 14.8895 27.0736C14.8792 27.069 14.87 27.0633 14.8596 27.0587H13V23.0322H15.0667C15.0667 22.7503 15.0621 22.4925 15.0667 22.2359C15.0817 21.588 15.1013 20.9402 15.1208 20.2923C15.1289 20.0311 15.1369 19.7687 15.1507 19.5075C15.1588 19.3383 15.1772 19.1692 15.191 18.9862H13.0012V14.9459H15.3003C15.313 14.9091 15.3222 14.8953 15.3222 14.8826C15.3326 14.458 15.3395 14.0334 15.351 13.6087C15.3682 13 15.3878 12.3901 15.4085 11.7814C15.4154 11.5673 15.4258 11.3544 15.4384 11.1404C15.4407 11.1001 15.4568 11.0598 15.4672 11.0196C15.4868 11.0138 15.5063 11.0069 15.5259 11.0012C15.6927 11.0058 15.8608 11.0127 16.0276 11.0127C17.0909 11.0127 18.1553 11.0127 19.2186 11.0127H19.4741C19.4626 11.191 19.4476 11.3544 19.443 11.519C19.4361 11.7583 19.443 11.9977 19.435 12.2371C19.4177 12.8124 19.3924 13.3878 19.3786 13.9643C19.3705 14.2819 19.3774 14.5995 19.3774 14.9287H23.3705C23.374 14.8803 23.3774 14.8389 23.3786 14.7975C23.3889 14.2532 23.3935 13.7089 23.4085 13.1646C23.4223 12.6364 23.443 12.1093 23.466 11.5811C23.4741 11.3924 23.5017 11.2048 23.5213 11.0173C23.5408 11.0115 23.5615 11.0058 23.5811 11C23.748 11.0046 23.916 11.0115 24.0828 11.0115C25.199 11.0115 26.3164 11.0115 27.4326 11.0115C27.4557 11.0115 27.4798 11.015 27.5178 11.0173C27.5178 11.1243 27.5212 11.2278 27.5178 11.3303C27.512 11.4672 27.4971 11.6041 27.4925 11.7422C27.481 12.1335 27.4729 12.5247 27.4614 12.916C27.4545 13.1772 27.4441 13.4396 27.4361 13.7008C27.4257 14.0345 27.4165 14.3682 27.4039 14.7008C27.4016 14.7699 27.382 14.8389 27.3659 14.9344H29.3141V18.9724H27.2646C27.2531 19.1059 27.237 19.2267 27.2336 19.3475C27.2209 19.8101 27.2128 20.2727 27.2013 20.7353C27.1944 20.9919 27.1852 21.2486 27.1772 21.5063C27.1668 21.8446 27.1588 22.183 27.1449 22.5213C27.138 22.6812 27.1196 22.84 27.1047 23.0173H29.3107V27.0598H26.9884C26.9735 27.3049 26.9516 27.5305 26.9459 27.7572C26.9321 28.2819 26.9286 28.8078 26.9148 29.3326C26.901 29.8458 26.8745 30.359 26.8607 30.8734C26.8584 30.9735 26.8158 30.9908 26.7284 30.9908C25.5489 30.9885 24.3705 30.9873 23.191 30.9873C23.1001 30.9873 23.0092 30.9931 22.9183 30.9954C22.9079 30.9965 22.8976 30.9988 22.886 31C22.8676 30.9678 22.8331 30.9344 22.8331 30.9022C22.8389 30.4971 22.8469 30.0932 22.8584 29.6881C22.863 29.5132 22.8814 29.3383 22.886 29.1634C22.8976 28.702 22.9045 28.2405 22.916 27.7779C22.9217 27.542 22.9332 27.3073 22.9413 27.0713C22.9309 27.0667 22.9217 27.061 22.9114 27.0564C21.5995 27.0564 20.2888 27.0564 18.977 27.0552C18.9655 27.0587 18.954 27.0621 18.9436 27.0656C18.9344 27.0852 18.9183 27.1047 18.9171 27.1254C18.9068 27.5639 18.8976 28.0023 18.8872 28.4407C18.878 28.8021 18.8699 29.1646 18.8573 29.5259C18.8412 29.962 18.8136 30.3982 18.8044 30.8343C18.8021 30.9678 18.7583 30.9919 18.6363 30.9908C17.4016 30.9862 16.1668 30.9873 14.9321 30.9873C14.9079 30.9873 14.8849 30.9919 14.8608 30.9942C14.8504 30.9954 14.8389 30.9965 14.8285 30.9977L14.832 30.9988ZM23.2336 18.9919H19.2129C19.191 19.3774 19.1622 19.7514 19.1496 20.1254C19.1254 20.7917 19.1093 21.4591 19.0909 22.1266C19.0863 22.2946 19.0943 22.4626 19.0886 22.6295C19.084 22.7549 19.0656 22.8792 19.0518 23.0104H23.0759C23.0909 22.8849 23.1127 22.7687 23.1162 22.6513C23.13 22.2796 23.1404 21.9079 23.1484 21.5362C23.1588 21.0403 23.1668 20.5443 23.1749 20.0472C23.1749 20.0276 23.1749 20.0092 23.1749 19.9896C23.1933 19.6594 23.2129 19.3291 23.2313 18.9908L23.2336 18.9919Z" fill="#589353"/>
</svg>
