<svg width="42" height="42" viewBox="0 0 42 42" fill="none" xmlns="http://www.w3.org/2000/svg">
<rect width="42" height="42" rx="21" fill="white"/>
<path d="M20.9966 8.5C16.03 8.5 12 12.6501 12 17.7648C12 22.13 18.5436 30.0207 20.471 32.2554C20.754 32.5815 21.246 32.5815 21.529 32.2554C23.4564 30.0207 30 22.13 30 17.7648C29.9933 12.6501 25.9633 8.5 20.9966 8.5ZM20.9966 21.901C18.5436 21.901 16.5489 19.8468 16.5489 17.3206C16.5489 14.7945 18.5436 12.7403 20.9966 12.7403C23.4496 12.7403 25.4444 14.7945 25.4444 17.3206C25.4444 19.8468 23.4496 21.901 20.9966 21.901Z" fill="#E18531"/>
</svg>
